M48
; DRILL file {KiCad 7.0.6} date Sat Mar  2 19:51:44 2024
; FORMAT={-:-/ absolute / inch / decimal}
; #@! TF.CreationDate,2024-03-02T19:51:44+01:00
; #@! TF.GenerationSoftware,Kicad,Pcbnew,7.0.6
; #@! TF.FileFunction,Plated,1,2,PTH
FMAT,2
INCH
; #@! TA.AperFunction,Plated,PTH,ViaDrill
T1C0.0157
; #@! TA.AperFunction,Plated,PTH,ComponentDrill
T2C0.0374
; #@! TA.AperFunction,Plated,PTH,ComponentDrill
T3C0.0394
%
G90
G05
T1
X1.06Y-1.47
X1.06Y-2.065
X1.06Y-2.66
X1.2Y-1.295
X1.2Y-1.89
X1.2Y-2.485
X1.2Y-3.08
X1.2Y-3.675
X1.2Y-4.27
X1.2Y-4.865
X1.455Y-3.255
X1.455Y-3.85
X1.455Y-4.445
X1.455Y-5.04
X2.885Y-3.255
X2.885Y-3.85
X2.885Y-4.445
X2.885Y-5.04
X3.14Y-1.295
X3.14Y-1.89
X3.14Y-2.485
X3.14Y-3.08
X3.14Y-3.675
X3.14Y-4.27
X3.14Y-4.865
X3.28Y-1.47
X3.28Y-2.065
X3.28Y-2.66
T2
X1.9731Y-3.545
X2.0716Y-3.545
X2.17Y-3.545
X2.2684Y-3.545
X2.3669Y-3.545
T3
X1.8204Y-1.981
X1.8204Y-2.081
X1.8204Y-2.181
X1.8204Y-2.281
X1.8204Y-2.381
X1.8204Y-2.481
X1.8204Y-2.581
X1.8204Y-2.681
X1.8204Y-2.781
X1.8204Y-2.881
X1.97Y-3.13
X2.07Y-3.13
X2.17Y-3.13
X2.27Y-3.13
X2.37Y-3.13
X2.5283Y-1.9802
X2.5283Y-2.0802
X2.5283Y-2.1802
X2.5283Y-2.2802
X2.5283Y-2.3802
X2.5283Y-2.4802
X2.5283Y-2.5802
X2.5283Y-2.6802
X2.5283Y-2.7802
X2.5283Y-2.8802
T0
M30
