G04 #@! TF.GenerationSoftware,KiCad,Pcbnew,7.0.10*
G04 #@! TF.CreationDate,2024-03-12T21:55:27-04:00*
G04 #@! TF.ProjectId,Alarm_lights,416c6172-6d5f-46c6-9967-6874732e6b69,1.0.1*
G04 #@! TF.SameCoordinates,Original*
G04 #@! TF.FileFunction,Copper,L2,Bot*
G04 #@! TF.FilePolarity,Positive*
%FSLAX46Y46*%
G04 Gerber Fmt 4.6, Leading zero omitted, Abs format (unit mm)*
G04 Created by KiCad (PCBNEW 7.0.10) date 2024-03-12 21:55:27*
%MOMM*%
%LPD*%
G01*
G04 APERTURE LIST*
G04 Aperture macros list*
%AMRoundRect*
0 Rectangle with rounded corners*
0 $1 Rounding radius*
0 $2 $3 $4 $5 $6 $7 $8 $9 X,Y pos of 4 corners*
0 Add a 4 corners polygon primitive as box body*
4,1,4,$2,$3,$4,$5,$6,$7,$8,$9,$2,$3,0*
0 Add four circle primitives for the rounded corners*
1,1,$1+$1,$2,$3*
1,1,$1+$1,$4,$5*
1,1,$1+$1,$6,$7*
1,1,$1+$1,$8,$9*
0 Add four rect primitives between the rounded corners*
20,1,$1+$1,$2,$3,$4,$5,0*
20,1,$1+$1,$4,$5,$6,$7,0*
20,1,$1+$1,$6,$7,$8,$9,0*
20,1,$1+$1,$8,$9,$2,$3,0*%
G04 Aperture macros list end*
G04 #@! TA.AperFunction,SMDPad,CuDef*
%ADD10RoundRect,0.250000X-0.400000X-0.625000X0.400000X-0.625000X0.400000X0.625000X-0.400000X0.625000X0*%
G04 #@! TD*
G04 #@! TA.AperFunction,ComponentPad*
%ADD11R,1.700000X1.700000*%
G04 #@! TD*
G04 #@! TA.AperFunction,ComponentPad*
%ADD12O,1.700000X1.700000*%
G04 #@! TD*
G04 #@! TA.AperFunction,SMDPad,CuDef*
%ADD13RoundRect,0.150000X-0.150000X0.512500X-0.150000X-0.512500X0.150000X-0.512500X0.150000X0.512500X0*%
G04 #@! TD*
G04 #@! TA.AperFunction,SMDPad,CuDef*
%ADD14RoundRect,0.250000X0.625000X-0.400000X0.625000X0.400000X-0.625000X0.400000X-0.625000X-0.400000X0*%
G04 #@! TD*
G04 #@! TA.AperFunction,SMDPad,CuDef*
%ADD15RoundRect,0.250000X0.650000X-0.412500X0.650000X0.412500X-0.650000X0.412500X-0.650000X-0.412500X0*%
G04 #@! TD*
G04 #@! TA.AperFunction,ComponentPad*
%ADD16RoundRect,0.250000X0.600000X0.725000X-0.600000X0.725000X-0.600000X-0.725000X0.600000X-0.725000X0*%
G04 #@! TD*
G04 #@! TA.AperFunction,ComponentPad*
%ADD17O,1.700000X1.950000*%
G04 #@! TD*
G04 #@! TA.AperFunction,SMDPad,CuDef*
%ADD18RoundRect,0.250000X0.400000X0.625000X-0.400000X0.625000X-0.400000X-0.625000X0.400000X-0.625000X0*%
G04 #@! TD*
G04 #@! TA.AperFunction,ViaPad*
%ADD19C,0.800000*%
G04 #@! TD*
G04 #@! TA.AperFunction,Conductor*
%ADD20C,0.250000*%
G04 #@! TD*
G04 APERTURE END LIST*
D10*
X47980000Y-99949000D03*
X51080000Y-99949000D03*
D11*
X60198000Y-79502000D03*
D12*
X57658000Y-79502000D03*
X55118000Y-79502000D03*
X52578000Y-79502000D03*
X50038000Y-79502000D03*
D13*
X54168000Y-103002500D03*
X56068000Y-103002500D03*
X55118000Y-105277500D03*
D14*
X60325000Y-105690000D03*
X60325000Y-102590000D03*
D11*
X46238000Y-73177000D03*
D12*
X46238000Y-70637000D03*
X46238000Y-68097000D03*
X46238000Y-65557000D03*
X46238000Y-63017000D03*
X46238000Y-60477000D03*
X46238000Y-57937000D03*
X46238000Y-55397000D03*
X46238000Y-52857000D03*
X46238000Y-50317000D03*
D15*
X54229000Y-100114500D03*
X54229000Y-96989500D03*
D16*
X60118000Y-90043000D03*
D17*
X57618000Y-90043000D03*
X55118000Y-90043000D03*
X52618000Y-90043000D03*
X50118000Y-90043000D03*
D11*
X64218000Y-73157000D03*
D12*
X64218000Y-70617000D03*
X64218000Y-68077000D03*
X64218000Y-65537000D03*
X64218000Y-62997000D03*
X64218000Y-60457000D03*
X64218000Y-57917000D03*
X64218000Y-55377000D03*
X64218000Y-52837000D03*
X64218000Y-50297000D03*
D18*
X51080000Y-97028000D03*
X47980000Y-97028000D03*
D19*
X30480000Y-48006000D03*
X30480000Y-63119000D03*
X30480000Y-78232000D03*
X30480000Y-93345000D03*
X79756000Y-32893000D03*
X79756000Y-48006000D03*
X79756000Y-63119000D03*
X79756000Y-78232000D03*
X79756000Y-93345000D03*
X79756000Y-108458000D03*
X30480000Y-32893000D03*
X79756000Y-123571000D03*
X30480000Y-123571000D03*
X30480000Y-108458000D03*
X36957000Y-97790000D03*
X26924000Y-67564000D03*
X36957000Y-128016000D03*
X83312000Y-37338000D03*
X26924000Y-37338000D03*
X73279000Y-112903000D03*
X26924000Y-52451000D03*
X83312000Y-67564000D03*
X83312000Y-52451000D03*
X73279000Y-97790000D03*
X73279000Y-82677000D03*
X36957000Y-112903000D03*
X36957000Y-82677000D03*
X73279000Y-128016000D03*
D20*
X55118000Y-90043000D02*
X55118000Y-93345000D01*
X60325000Y-102590000D02*
X60325000Y-98552000D01*
X60325000Y-98552000D02*
X55118000Y-93345000D01*
X57618000Y-90043000D02*
X57618000Y-87463000D01*
X57618000Y-87463000D02*
X52578000Y-82423000D01*
X52578000Y-82423000D02*
X52578000Y-79502000D01*
X35331000Y-52857000D02*
X46238000Y-52857000D01*
X30480000Y-48006000D02*
X35331000Y-52857000D01*
X46238000Y-55397000D02*
X35281000Y-55397000D01*
X30480000Y-60198000D02*
X30480000Y-63119000D01*
X35281000Y-55397000D02*
X30480000Y-60198000D01*
X37821000Y-57937000D02*
X46238000Y-57937000D01*
X30480000Y-65278000D02*
X37821000Y-57937000D01*
X30480000Y-78232000D02*
X30480000Y-65278000D01*
X31496000Y-69342000D02*
X40361000Y-60477000D01*
X31496000Y-92329000D02*
X31496000Y-69342000D01*
X30480000Y-93345000D02*
X31496000Y-92329000D01*
X40361000Y-60477000D02*
X46238000Y-60477000D01*
X79756000Y-45466000D02*
X74905000Y-50317000D01*
X74905000Y-50317000D02*
X63998000Y-50317000D01*
X79756000Y-32893000D02*
X79756000Y-45466000D01*
X79756000Y-48006000D02*
X74905000Y-52857000D01*
X74905000Y-52857000D02*
X63998000Y-52857000D01*
X63998000Y-55397000D02*
X74955000Y-55397000D01*
X74955000Y-55397000D02*
X79756000Y-60198000D01*
X79756000Y-60198000D02*
X79756000Y-63119000D01*
X79756000Y-78232000D02*
X79756000Y-65278000D01*
X79756000Y-65278000D02*
X72415000Y-57937000D01*
X72415000Y-57937000D02*
X63998000Y-57937000D01*
X78740000Y-92329000D02*
X78740000Y-69342000D01*
X78740000Y-69342000D02*
X69875000Y-60477000D01*
X79756000Y-93345000D02*
X78740000Y-92329000D01*
X69875000Y-60477000D02*
X63998000Y-60477000D01*
X67335000Y-63017000D02*
X63998000Y-63017000D01*
X77724000Y-73406000D02*
X67335000Y-63017000D01*
X77724000Y-106426000D02*
X77724000Y-73406000D01*
X79756000Y-108458000D02*
X77724000Y-106426000D01*
X30480000Y-45466000D02*
X35331000Y-50317000D01*
X30480000Y-32893000D02*
X30480000Y-45466000D01*
X35331000Y-50317000D02*
X46238000Y-50317000D01*
X76708000Y-120523000D02*
X76708000Y-78267000D01*
X76708000Y-78267000D02*
X63998000Y-65557000D01*
X79756000Y-123571000D02*
X76708000Y-120523000D01*
X60158000Y-86447000D02*
X55118000Y-81407000D01*
X55118000Y-81407000D02*
X55118000Y-79502000D01*
X60158000Y-90043000D02*
X60158000Y-86447000D01*
X30480000Y-123571000D02*
X33528000Y-120523000D01*
X33528000Y-120523000D02*
X33528000Y-78267000D01*
X33528000Y-78267000D02*
X46238000Y-65557000D01*
X32512000Y-73406000D02*
X42901000Y-63017000D01*
X32512000Y-106426000D02*
X32512000Y-73406000D01*
X42901000Y-63017000D02*
X46238000Y-63017000D01*
X30480000Y-108458000D02*
X32512000Y-106426000D01*
X47980000Y-97028000D02*
X47980000Y-95483000D01*
X47980000Y-95483000D02*
X50118000Y-93345000D01*
X50118000Y-90043000D02*
X50118000Y-93345000D01*
X47980000Y-99949000D02*
X47980000Y-97028000D01*
X54229000Y-100114500D02*
X54229000Y-102941500D01*
X51080000Y-99949000D02*
X54063500Y-99949000D01*
X54229000Y-102941500D02*
X54168000Y-103002500D01*
X54063500Y-99949000D02*
X54229000Y-100114500D01*
G04 #@! TA.AperFunction,Conductor*
G36*
X84365394Y-24765972D02*
G01*
X84394918Y-24768555D01*
X84519977Y-24779496D01*
X84541257Y-24783248D01*
X84658947Y-24814782D01*
X84685897Y-24822004D01*
X84706209Y-24829397D01*
X84774063Y-24861038D01*
X84841920Y-24892680D01*
X84860636Y-24903486D01*
X84983295Y-24989372D01*
X84999853Y-25003266D01*
X85105733Y-25109146D01*
X85119627Y-25125704D01*
X85205513Y-25248363D01*
X85216320Y-25267081D01*
X85279602Y-25402790D01*
X85286995Y-25423102D01*
X85325750Y-25567739D01*
X85329503Y-25589024D01*
X85343028Y-25743605D01*
X85343500Y-25754413D01*
X85343500Y-129185586D01*
X85343028Y-129196394D01*
X85329503Y-129350975D01*
X85325750Y-129372260D01*
X85286995Y-129516897D01*
X85279602Y-129537209D01*
X85216320Y-129672918D01*
X85205513Y-129691636D01*
X85119627Y-129814295D01*
X85105733Y-129830853D01*
X84999853Y-129936733D01*
X84983295Y-129950627D01*
X84860636Y-130036513D01*
X84841918Y-130047320D01*
X84706209Y-130110602D01*
X84685897Y-130117995D01*
X84541260Y-130156750D01*
X84519975Y-130160503D01*
X84365395Y-130174028D01*
X84354587Y-130174500D01*
X25881413Y-130174500D01*
X25870605Y-130174028D01*
X25716024Y-130160503D01*
X25694739Y-130156750D01*
X25550102Y-130117995D01*
X25529790Y-130110602D01*
X25394081Y-130047320D01*
X25375363Y-130036513D01*
X25252704Y-129950627D01*
X25236146Y-129936733D01*
X25130266Y-129830853D01*
X25116372Y-129814295D01*
X25030486Y-129691636D01*
X25019679Y-129672918D01*
X24956397Y-129537209D01*
X24949004Y-129516897D01*
X24910249Y-129372260D01*
X24906496Y-129350974D01*
X24892972Y-129196393D01*
X24892500Y-129185586D01*
X24892500Y-123571000D01*
X29574540Y-123571000D01*
X29594326Y-123759256D01*
X29594327Y-123759259D01*
X29652818Y-123939277D01*
X29652821Y-123939284D01*
X29747467Y-124103216D01*
X29874129Y-124243888D01*
X30027265Y-124355148D01*
X30027270Y-124355151D01*
X30200192Y-124432142D01*
X30200197Y-124432144D01*
X30385354Y-124471500D01*
X30385355Y-124471500D01*
X30574644Y-124471500D01*
X30574646Y-124471500D01*
X30759803Y-124432144D01*
X30932730Y-124355151D01*
X31085871Y-124243888D01*
X31212533Y-124103216D01*
X31307179Y-123939284D01*
X31365674Y-123759256D01*
X31383321Y-123591344D01*
X31409904Y-123526734D01*
X31418951Y-123516638D01*
X33911788Y-121023801D01*
X33924042Y-121013986D01*
X33923859Y-121013764D01*
X33929868Y-121008791D01*
X33929877Y-121008786D01*
X33975949Y-120959722D01*
X33978566Y-120957023D01*
X33998120Y-120937471D01*
X34000576Y-120934303D01*
X34008156Y-120925427D01*
X34038062Y-120893582D01*
X34047715Y-120876020D01*
X34058389Y-120859770D01*
X34070673Y-120843936D01*
X34088019Y-120803850D01*
X34093157Y-120793362D01*
X34114196Y-120755093D01*
X34114197Y-120755092D01*
X34119177Y-120735691D01*
X34125478Y-120717288D01*
X34133438Y-120698896D01*
X34140272Y-120655741D01*
X34142635Y-120644331D01*
X34153500Y-120602019D01*
X34153500Y-120581983D01*
X34155027Y-120562582D01*
X34155064Y-120562350D01*
X34158160Y-120542804D01*
X34154050Y-120499324D01*
X34153500Y-120487655D01*
X34153500Y-106245145D01*
X54503907Y-106245145D01*
X54566442Y-106307681D01*
X54566447Y-106307685D01*
X54707803Y-106391282D01*
X54707806Y-106391283D01*
X54865504Y-106437099D01*
X54865510Y-106437100D01*
X54902350Y-106439999D01*
X54902366Y-106440000D01*
X55333634Y-106440000D01*
X55333649Y-106439999D01*
X55370489Y-106437100D01*
X55370495Y-106437099D01*
X55528193Y-106391283D01*
X55528196Y-106391282D01*
X55669552Y-106307685D01*
X55669557Y-106307681D01*
X55732092Y-106245145D01*
X55426947Y-105940000D01*
X58950001Y-105940000D01*
X58950001Y-106139986D01*
X58960494Y-106242697D01*
X59015641Y-106409119D01*
X59015643Y-106409124D01*
X59107684Y-106558345D01*
X59231654Y-106682315D01*
X59380875Y-106774356D01*
X59380880Y-106774358D01*
X59547302Y-106829505D01*
X59547309Y-106829506D01*
X59650019Y-106839999D01*
X60074999Y-106839999D01*
X60075000Y-106839998D01*
X60075000Y-105940000D01*
X60575000Y-105940000D01*
X60575000Y-106839999D01*
X60999972Y-106839999D01*
X60999986Y-106839998D01*
X61102697Y-106829505D01*
X61269119Y-106774358D01*
X61269124Y-106774356D01*
X61418345Y-106682315D01*
X61542315Y-106558345D01*
X61634356Y-106409124D01*
X61634358Y-106409119D01*
X61689505Y-106242697D01*
X61689506Y-106242690D01*
X61699999Y-106139986D01*
X61700000Y-106139973D01*
X61700000Y-105940000D01*
X60575000Y-105940000D01*
X60075000Y-105940000D01*
X58950001Y-105940000D01*
X55426947Y-105940000D01*
X55118000Y-105631053D01*
X54503907Y-106245145D01*
X34153500Y-106245145D01*
X34153500Y-104831052D01*
X54318000Y-104831052D01*
X54318000Y-105723947D01*
X54764447Y-105277500D01*
X55471553Y-105277500D01*
X55917999Y-105723947D01*
X55918000Y-105723946D01*
X55918000Y-104831053D01*
X55917999Y-104831052D01*
X55471553Y-105277499D01*
X55471553Y-105277500D01*
X54764447Y-105277500D01*
X54764447Y-105277499D01*
X54318000Y-104831052D01*
X34153500Y-104831052D01*
X34153500Y-78577452D01*
X34173185Y-78510413D01*
X34189819Y-78489771D01*
X44670660Y-68008930D01*
X44731983Y-67975445D01*
X44801675Y-67980429D01*
X44857608Y-68022301D01*
X44882025Y-68087765D01*
X44882341Y-68096611D01*
X44882341Y-68097000D01*
X44902936Y-68332403D01*
X44902938Y-68332413D01*
X44964094Y-68560655D01*
X44964096Y-68560659D01*
X44964097Y-68560663D01*
X45014948Y-68669712D01*
X45063965Y-68774830D01*
X45063967Y-68774834D01*
X45199501Y-68968395D01*
X45199506Y-68968402D01*
X45366597Y-69135493D01*
X45366603Y-69135498D01*
X45552158Y-69265425D01*
X45595783Y-69320002D01*
X45602977Y-69389500D01*
X45571454Y-69451855D01*
X45552158Y-69468575D01*
X45366597Y-69598505D01*
X45199505Y-69765597D01*
X45063965Y-69959169D01*
X45063964Y-69959171D01*
X44964098Y-70173335D01*
X44964094Y-70173344D01*
X44902938Y-70401586D01*
X44902936Y-70401596D01*
X44882341Y-70636999D01*
X44882341Y-70637000D01*
X44902936Y-70872403D01*
X44902938Y-70872413D01*
X44964094Y-71100655D01*
X44964096Y-71100659D01*
X44964097Y-71100663D01*
X45044574Y-71273245D01*
X45045999Y-71276301D01*
X45056491Y-71345379D01*
X45027971Y-71409163D01*
X44969495Y-71447402D01*
X44915971Y-71451444D01*
X44818984Y-71437500D01*
X44818983Y-71437500D01*
X43918000Y-71437500D01*
X43917991Y-71437500D01*
X43917990Y-71437501D01*
X43810549Y-71449052D01*
X43810537Y-71449054D01*
X43759027Y-71460260D01*
X43656502Y-71494383D01*
X43656496Y-71494386D01*
X43535462Y-71572171D01*
X43535451Y-71572179D01*
X43482659Y-71617923D01*
X43388433Y-71726664D01*
X43388430Y-71726668D01*
X43328664Y-71857534D01*
X43308976Y-71924582D01*
X43303949Y-71959549D01*
X43288500Y-72067000D01*
X43288500Y-73912500D01*
X43288500Y-73932500D01*
X43288500Y-100598260D01*
X43288500Y-103823000D01*
X43288501Y-103823009D01*
X43300052Y-103930450D01*
X43300054Y-103930462D01*
X43311260Y-103981972D01*
X43345383Y-104084497D01*
X43345386Y-104084503D01*
X43423171Y-104205537D01*
X43423179Y-104205548D01*
X43468923Y-104258340D01*
X43468926Y-104258343D01*
X43468930Y-104258347D01*
X43577664Y-104352567D01*
X43577667Y-104352568D01*
X43577668Y-104352569D01*
X43677918Y-104398353D01*
X43708541Y-104412338D01*
X43775580Y-104432023D01*
X43775584Y-104432024D01*
X43918000Y-104452500D01*
X43918003Y-104452500D01*
X53301734Y-104452500D01*
X53301743Y-104452500D01*
X53368687Y-104448048D01*
X53401245Y-104443698D01*
X53467026Y-104430415D01*
X53599069Y-104373264D01*
X53653960Y-104339513D01*
X53655796Y-104338492D01*
X53658570Y-104336679D01*
X53658588Y-104336668D01*
X53658590Y-104336667D01*
X53769182Y-104244629D01*
X53788904Y-104215243D01*
X53842607Y-104170548D01*
X53909095Y-104162334D01*
X53909114Y-104162101D01*
X53910257Y-104162191D01*
X53911950Y-104161982D01*
X53914150Y-104162364D01*
X53915431Y-104162598D01*
X53952306Y-104165500D01*
X53952314Y-104165500D01*
X54379907Y-104165500D01*
X54446946Y-104185185D01*
X54492701Y-104237989D01*
X54503907Y-104289500D01*
X54503907Y-104309854D01*
X55118000Y-104923947D01*
X55118001Y-104923947D01*
X55591735Y-104450210D01*
X55636080Y-104421711D01*
X55719313Y-104390667D01*
X55834495Y-104304442D01*
X55937119Y-104201817D01*
X55998440Y-104168334D01*
X56024799Y-104165500D01*
X56111201Y-104165500D01*
X56178240Y-104185185D01*
X56198882Y-104201819D01*
X56301505Y-104304442D01*
X56385653Y-104372254D01*
X56404949Y-104381066D01*
X56516527Y-104432023D01*
X56516530Y-104432023D01*
X56516531Y-104432024D01*
X56658947Y-104452500D01*
X56658950Y-104452500D01*
X59191923Y-104452500D01*
X59258962Y-104472185D01*
X59304717Y-104524989D01*
X59314661Y-104594147D01*
X59285636Y-104657703D01*
X59257019Y-104682039D01*
X59231656Y-104697682D01*
X59107684Y-104821654D01*
X59015643Y-104970875D01*
X59015641Y-104970880D01*
X58960494Y-105137302D01*
X58960493Y-105137309D01*
X58950000Y-105240013D01*
X58950000Y-105440000D01*
X60075000Y-105440000D01*
X60075000Y-104540000D01*
X59888460Y-104540000D01*
X59821421Y-104520315D01*
X59775666Y-104467511D01*
X59765722Y-104398353D01*
X59794747Y-104334797D01*
X59810518Y-104319558D01*
X59867487Y-104273527D01*
X59915030Y-104222327D01*
X59996932Y-104104033D01*
X60042189Y-103967456D01*
X60054504Y-103898680D01*
X60054504Y-103898677D01*
X60054504Y-103898668D01*
X60054549Y-103898171D01*
X60054577Y-103896555D01*
X60055239Y-103877297D01*
X60055826Y-103860236D01*
X60077803Y-103793914D01*
X60132149Y-103750001D01*
X60179753Y-103740499D01*
X60469263Y-103740499D01*
X60536302Y-103760184D01*
X60582057Y-103812988D01*
X60593262Y-103864498D01*
X60593263Y-103877297D01*
X60603207Y-103946455D01*
X60603208Y-103946460D01*
X60603209Y-103946463D01*
X60643741Y-104084501D01*
X60643744Y-104084507D01*
X60721526Y-104205537D01*
X60721534Y-104205548D01*
X60767278Y-104258340D01*
X60767281Y-104258343D01*
X60767285Y-104258347D01*
X60835929Y-104317828D01*
X60841076Y-104322288D01*
X60878849Y-104381066D01*
X60878849Y-104450936D01*
X60841074Y-104509714D01*
X60777518Y-104538738D01*
X60759872Y-104540000D01*
X60575000Y-104540000D01*
X60575000Y-105440000D01*
X61699999Y-105440000D01*
X61699999Y-105240028D01*
X61699998Y-105240013D01*
X61689505Y-105137302D01*
X61634358Y-104970880D01*
X61634356Y-104970875D01*
X61542315Y-104821654D01*
X61418343Y-104697682D01*
X61392981Y-104682039D01*
X61346256Y-104630091D01*
X61335033Y-104561129D01*
X61362877Y-104497046D01*
X61420945Y-104458190D01*
X61458077Y-104452500D01*
X66529990Y-104452500D01*
X66530000Y-104452500D01*
X66637456Y-104440947D01*
X66688967Y-104429741D01*
X66727373Y-104416958D01*
X66791497Y-104395616D01*
X66791501Y-104395613D01*
X66791504Y-104395613D01*
X66912543Y-104317825D01*
X66965347Y-104272070D01*
X67059567Y-104163336D01*
X67119338Y-104032459D01*
X67139023Y-103965420D01*
X67139024Y-103965416D01*
X67159500Y-103823000D01*
X67159500Y-72067000D01*
X67147947Y-71959544D01*
X67136741Y-71908033D01*
X67136637Y-71907722D01*
X67102616Y-71805502D01*
X67102613Y-71805496D01*
X67024828Y-71684462D01*
X67024825Y-71684457D01*
X67024820Y-71684451D01*
X66979076Y-71631659D01*
X66979072Y-71631656D01*
X66979070Y-71631653D01*
X66870336Y-71537433D01*
X66870333Y-71537431D01*
X66870331Y-71537430D01*
X66739465Y-71477664D01*
X66739460Y-71477662D01*
X66739459Y-71477662D01*
X66672420Y-71457977D01*
X66672422Y-71457977D01*
X66672417Y-71457976D01*
X66610347Y-71449052D01*
X66530000Y-71437500D01*
X65644477Y-71437500D01*
X65644475Y-71437500D01*
X65590451Y-71440396D01*
X65590444Y-71440396D01*
X65590435Y-71440397D01*
X65590429Y-71440397D01*
X65590397Y-71440400D01*
X65564090Y-71443229D01*
X65564078Y-71443231D01*
X65534313Y-71448053D01*
X65464990Y-71439345D01*
X65411378Y-71394539D01*
X65390501Y-71327862D01*
X65402097Y-71273250D01*
X65491903Y-71080663D01*
X65553063Y-70852408D01*
X65573659Y-70617000D01*
X65553063Y-70381592D01*
X65491903Y-70153337D01*
X65392035Y-69939171D01*
X65256495Y-69745599D01*
X65256494Y-69745597D01*
X65089402Y-69578506D01*
X65089396Y-69578501D01*
X64903842Y-69448575D01*
X64860217Y-69393998D01*
X64853023Y-69324500D01*
X64884546Y-69262145D01*
X64903842Y-69245425D01*
X64926026Y-69229891D01*
X65089401Y-69115495D01*
X65256495Y-68948401D01*
X65392035Y-68754830D01*
X65491903Y-68540663D01*
X65553063Y-68312408D01*
X65555289Y-68286961D01*
X65580741Y-68221893D01*
X65637332Y-68180915D01*
X65707094Y-68177036D01*
X65766498Y-68210088D01*
X76046181Y-78489771D01*
X76079666Y-78551094D01*
X76082500Y-78577452D01*
X76082500Y-120440255D01*
X76080775Y-120455872D01*
X76081061Y-120455899D01*
X76080326Y-120463665D01*
X76082439Y-120530872D01*
X76082500Y-120534767D01*
X76082500Y-120562357D01*
X76083003Y-120566335D01*
X76083918Y-120577967D01*
X76085290Y-120621624D01*
X76085291Y-120621627D01*
X76090880Y-120640867D01*
X76094824Y-120659911D01*
X76097336Y-120679792D01*
X76113414Y-120720403D01*
X76117197Y-120731452D01*
X76129381Y-120773388D01*
X76139580Y-120790634D01*
X76148138Y-120808103D01*
X76155514Y-120826732D01*
X76181181Y-120862060D01*
X76187593Y-120871821D01*
X76209828Y-120909417D01*
X76209833Y-120909424D01*
X76223990Y-120923580D01*
X76236628Y-120938376D01*
X76248405Y-120954586D01*
X76248406Y-120954587D01*
X76282057Y-120982425D01*
X76290698Y-120990288D01*
X78817038Y-123516629D01*
X78850523Y-123577952D01*
X78852678Y-123591348D01*
X78860968Y-123670227D01*
X78870326Y-123759256D01*
X78870327Y-123759259D01*
X78928818Y-123939277D01*
X78928821Y-123939284D01*
X79023467Y-124103216D01*
X79150129Y-124243888D01*
X79303265Y-124355148D01*
X79303270Y-124355151D01*
X79476192Y-124432142D01*
X79476197Y-124432144D01*
X79661354Y-124471500D01*
X79661355Y-124471500D01*
X79850644Y-124471500D01*
X79850646Y-124471500D01*
X80035803Y-124432144D01*
X80208730Y-124355151D01*
X80361871Y-124243888D01*
X80488533Y-124103216D01*
X80583179Y-123939284D01*
X80641674Y-123759256D01*
X80661460Y-123571000D01*
X80641674Y-123382744D01*
X80583179Y-123202716D01*
X80488533Y-123038784D01*
X80361871Y-122898112D01*
X80361870Y-122898111D01*
X80208734Y-122786851D01*
X80208729Y-122786848D01*
X80035807Y-122709857D01*
X80035802Y-122709855D01*
X79890001Y-122678865D01*
X79850646Y-122670500D01*
X79850645Y-122670500D01*
X79791452Y-122670500D01*
X79724413Y-122650815D01*
X79703771Y-122634181D01*
X77369819Y-120300228D01*
X77336334Y-120238905D01*
X77333500Y-120212547D01*
X77333500Y-107219452D01*
X77353185Y-107152413D01*
X77405989Y-107106658D01*
X77475147Y-107096714D01*
X77538703Y-107125739D01*
X77545181Y-107131771D01*
X78817038Y-108403629D01*
X78850523Y-108464952D01*
X78852678Y-108478348D01*
X78860968Y-108557227D01*
X78870326Y-108646256D01*
X78870327Y-108646259D01*
X78928818Y-108826277D01*
X78928821Y-108826284D01*
X79023467Y-108990216D01*
X79150129Y-109130888D01*
X79303265Y-109242148D01*
X79303270Y-109242151D01*
X79476192Y-109319142D01*
X79476197Y-109319144D01*
X79661354Y-109358500D01*
X79661355Y-109358500D01*
X79850644Y-109358500D01*
X79850646Y-109358500D01*
X80035803Y-109319144D01*
X80208730Y-109242151D01*
X80361871Y-109130888D01*
X80488533Y-108990216D01*
X80583179Y-108826284D01*
X80641674Y-108646256D01*
X80661460Y-108458000D01*
X80641674Y-108269744D01*
X80583179Y-108089716D01*
X80488533Y-107925784D01*
X80361871Y-107785112D01*
X80361870Y-107785111D01*
X80208734Y-107673851D01*
X80208729Y-107673848D01*
X80035807Y-107596857D01*
X80035802Y-107596855D01*
X79890001Y-107565865D01*
X79850646Y-107557500D01*
X79850645Y-107557500D01*
X79791452Y-107557500D01*
X79724413Y-107537815D01*
X79703771Y-107521181D01*
X78385819Y-106203228D01*
X78352334Y-106141905D01*
X78349500Y-106115547D01*
X78349500Y-93122452D01*
X78369185Y-93055413D01*
X78421989Y-93009658D01*
X78491147Y-92999714D01*
X78554703Y-93028739D01*
X78561174Y-93034765D01*
X78780304Y-93253895D01*
X78817038Y-93290629D01*
X78850523Y-93351952D01*
X78852678Y-93365348D01*
X78860968Y-93444227D01*
X78870326Y-93533256D01*
X78870327Y-93533259D01*
X78928818Y-93713277D01*
X78928821Y-93713284D01*
X79023467Y-93877216D01*
X79150129Y-94017888D01*
X79303265Y-94129148D01*
X79303270Y-94129151D01*
X79476192Y-94206142D01*
X79476197Y-94206144D01*
X79661354Y-94245500D01*
X79661355Y-94245500D01*
X79850644Y-94245500D01*
X79850646Y-94245500D01*
X80035803Y-94206144D01*
X80208730Y-94129151D01*
X80361871Y-94017888D01*
X80488533Y-93877216D01*
X80583179Y-93713284D01*
X80641674Y-93533256D01*
X80661460Y-93345000D01*
X80641674Y-93156744D01*
X80583179Y-92976716D01*
X80488533Y-92812784D01*
X80361871Y-92672112D01*
X80361870Y-92672111D01*
X80208734Y-92560851D01*
X80208729Y-92560848D01*
X80035807Y-92483857D01*
X80035802Y-92483855D01*
X79890001Y-92452865D01*
X79850646Y-92444500D01*
X79850645Y-92444500D01*
X79791452Y-92444500D01*
X79724413Y-92424815D01*
X79703771Y-92408181D01*
X79401819Y-92106228D01*
X79368334Y-92044905D01*
X79365500Y-92018547D01*
X79365500Y-79222741D01*
X79385185Y-79155702D01*
X79437989Y-79109947D01*
X79507147Y-79100003D01*
X79515266Y-79101448D01*
X79661354Y-79132500D01*
X79661355Y-79132500D01*
X79850644Y-79132500D01*
X79850646Y-79132500D01*
X80035803Y-79093144D01*
X80208730Y-79016151D01*
X80361871Y-78904888D01*
X80488533Y-78764216D01*
X80583179Y-78600284D01*
X80641674Y-78420256D01*
X80661460Y-78232000D01*
X80641674Y-78043744D01*
X80583179Y-77863716D01*
X80488533Y-77699784D01*
X80413350Y-77616284D01*
X80383120Y-77553292D01*
X80381500Y-77533312D01*
X80381500Y-65360742D01*
X80383224Y-65345122D01*
X80382939Y-65345095D01*
X80383673Y-65337333D01*
X80381561Y-65270112D01*
X80381500Y-65266218D01*
X80381500Y-65238656D01*
X80381500Y-65238650D01*
X80380996Y-65234668D01*
X80380081Y-65223029D01*
X80379955Y-65219016D01*
X80378710Y-65179373D01*
X80373119Y-65160130D01*
X80369173Y-65141078D01*
X80366664Y-65121208D01*
X80350579Y-65080583D01*
X80346806Y-65069562D01*
X80334618Y-65027610D01*
X80334617Y-65027609D01*
X80334617Y-65027607D01*
X80334616Y-65027606D01*
X80324423Y-65010371D01*
X80315861Y-64992894D01*
X80308487Y-64974269D01*
X80295989Y-64957068D01*
X80282811Y-64938930D01*
X80276405Y-64929177D01*
X80254170Y-64891580D01*
X80254168Y-64891578D01*
X80254165Y-64891574D01*
X80240006Y-64877415D01*
X80227368Y-64862619D01*
X80224863Y-64859171D01*
X80215594Y-64846413D01*
X80211027Y-64842635D01*
X80181940Y-64818572D01*
X80173299Y-64810709D01*
X79593772Y-64231181D01*
X79560287Y-64169858D01*
X79565271Y-64100166D01*
X79607143Y-64044233D01*
X79672607Y-64019816D01*
X79681453Y-64019500D01*
X79850644Y-64019500D01*
X79850646Y-64019500D01*
X80035803Y-63980144D01*
X80208730Y-63903151D01*
X80361871Y-63791888D01*
X80488533Y-63651216D01*
X80583179Y-63487284D01*
X80641674Y-63307256D01*
X80661460Y-63119000D01*
X80641674Y-62930744D01*
X80583179Y-62750716D01*
X80488533Y-62586784D01*
X80413350Y-62503284D01*
X80383120Y-62440292D01*
X80381500Y-62420312D01*
X80381500Y-60280737D01*
X80383224Y-60265123D01*
X80382938Y-60265096D01*
X80383672Y-60257333D01*
X80381561Y-60190144D01*
X80381500Y-60186250D01*
X80381500Y-60158651D01*
X80381500Y-60158650D01*
X80380997Y-60154670D01*
X80380080Y-60143021D01*
X80378709Y-60099373D01*
X80373121Y-60080139D01*
X80369174Y-60061081D01*
X80368999Y-60059696D01*
X80366664Y-60041208D01*
X80361870Y-60029099D01*
X80350583Y-60000592D01*
X80346799Y-59989539D01*
X80338872Y-59962257D01*
X80334617Y-59947610D01*
X80324420Y-59930368D01*
X80315863Y-59912902D01*
X80308486Y-59894268D01*
X80282809Y-59858926D01*
X80276412Y-59849190D01*
X80254170Y-59811579D01*
X80254167Y-59811576D01*
X80254165Y-59811573D01*
X80240005Y-59797413D01*
X80227370Y-59782620D01*
X80215593Y-59766412D01*
X80181945Y-59738576D01*
X80173304Y-59730713D01*
X75455803Y-55013212D01*
X75445980Y-55000950D01*
X75445759Y-55001134D01*
X75440786Y-54995122D01*
X75391776Y-54949099D01*
X75388977Y-54946386D01*
X75369477Y-54926885D01*
X75369471Y-54926880D01*
X75366286Y-54924409D01*
X75357434Y-54916848D01*
X75325582Y-54886938D01*
X75325580Y-54886936D01*
X75325577Y-54886935D01*
X75308029Y-54877288D01*
X75291763Y-54866604D01*
X75275932Y-54854324D01*
X75235849Y-54836978D01*
X75225363Y-54831841D01*
X75187094Y-54810803D01*
X75187092Y-54810802D01*
X75167693Y-54805822D01*
X75149281Y-54799518D01*
X75130898Y-54791562D01*
X75130892Y-54791560D01*
X75087760Y-54784729D01*
X75076322Y-54782361D01*
X75034020Y-54771500D01*
X75034019Y-54771500D01*
X75013984Y-54771500D01*
X74994586Y-54769973D01*
X74987162Y-54768797D01*
X74974805Y-54766840D01*
X74974804Y-54766840D01*
X74931325Y-54770950D01*
X74919656Y-54771500D01*
X65504759Y-54771500D01*
X65437720Y-54751815D01*
X65395469Y-54703441D01*
X65394743Y-54703861D01*
X65392612Y-54700171D01*
X65392374Y-54699898D01*
X65392035Y-54699171D01*
X65256495Y-54505599D01*
X65256494Y-54505597D01*
X65089402Y-54338506D01*
X65089396Y-54338501D01*
X64903842Y-54208575D01*
X64860217Y-54153998D01*
X64853023Y-54084500D01*
X64884546Y-54022145D01*
X64903842Y-54005425D01*
X64926026Y-53989891D01*
X65089401Y-53875495D01*
X65256495Y-53708401D01*
X65377648Y-53535377D01*
X65432225Y-53491752D01*
X65479223Y-53482500D01*
X74822257Y-53482500D01*
X74837877Y-53484224D01*
X74837904Y-53483939D01*
X74845660Y-53484671D01*
X74845667Y-53484673D01*
X74912873Y-53482561D01*
X74916768Y-53482500D01*
X74944346Y-53482500D01*
X74944350Y-53482500D01*
X74948324Y-53481997D01*
X74959963Y-53481080D01*
X75003627Y-53479709D01*
X75022869Y-53474117D01*
X75041912Y-53470174D01*
X75061792Y-53467664D01*
X75102401Y-53451585D01*
X75113444Y-53447803D01*
X75155390Y-53435618D01*
X75172629Y-53425422D01*
X75190103Y-53416862D01*
X75208727Y-53409488D01*
X75208727Y-53409487D01*
X75208732Y-53409486D01*
X75244083Y-53383800D01*
X75253814Y-53377408D01*
X75291420Y-53355170D01*
X75305589Y-53340999D01*
X75320379Y-53328368D01*
X75336587Y-53316594D01*
X75364438Y-53282926D01*
X75372279Y-53274309D01*
X79703772Y-48942819D01*
X79765095Y-48909334D01*
X79791453Y-48906500D01*
X79850644Y-48906500D01*
X79850646Y-48906500D01*
X80035803Y-48867144D01*
X80208730Y-48790151D01*
X80361871Y-48678888D01*
X80488533Y-48538216D01*
X80583179Y-48374284D01*
X80641674Y-48194256D01*
X80661460Y-48006000D01*
X80641674Y-47817744D01*
X80583179Y-47637716D01*
X80488533Y-47473784D01*
X80361871Y-47333112D01*
X80361870Y-47333111D01*
X80208734Y-47221851D01*
X80208729Y-47221848D01*
X80035807Y-47144857D01*
X80035802Y-47144855D01*
X79890001Y-47113865D01*
X79850646Y-47105500D01*
X79661354Y-47105500D01*
X79628897Y-47112398D01*
X79476197Y-47144855D01*
X79476192Y-47144857D01*
X79303270Y-47221848D01*
X79303265Y-47221851D01*
X79150129Y-47333111D01*
X79023466Y-47473785D01*
X78928821Y-47637715D01*
X78928818Y-47637722D01*
X78870327Y-47817740D01*
X78870326Y-47817744D01*
X78862405Y-47893105D01*
X78852678Y-47985651D01*
X78826093Y-48050266D01*
X78817038Y-48060370D01*
X74682228Y-52195181D01*
X74620905Y-52228666D01*
X74594547Y-52231500D01*
X65504759Y-52231500D01*
X65437720Y-52211815D01*
X65395469Y-52163441D01*
X65394743Y-52163861D01*
X65392612Y-52160171D01*
X65392374Y-52159898D01*
X65392035Y-52159171D01*
X65256495Y-51965599D01*
X65256494Y-51965597D01*
X65089402Y-51798506D01*
X65089396Y-51798501D01*
X64903842Y-51668575D01*
X64860217Y-51613998D01*
X64853023Y-51544500D01*
X64884546Y-51482145D01*
X64903842Y-51465425D01*
X64926026Y-51449891D01*
X65089401Y-51335495D01*
X65256495Y-51168401D01*
X65377648Y-50995377D01*
X65432225Y-50951752D01*
X65479223Y-50942500D01*
X74822257Y-50942500D01*
X74837877Y-50944224D01*
X74837904Y-50943939D01*
X74845660Y-50944671D01*
X74845667Y-50944673D01*
X74912873Y-50942561D01*
X74916768Y-50942500D01*
X74944346Y-50942500D01*
X74944350Y-50942500D01*
X74948324Y-50941997D01*
X74959963Y-50941080D01*
X75003627Y-50939709D01*
X75022869Y-50934117D01*
X75041912Y-50930174D01*
X75061792Y-50927664D01*
X75102401Y-50911585D01*
X75113444Y-50907803D01*
X75155390Y-50895618D01*
X75172629Y-50885422D01*
X75190103Y-50876862D01*
X75208727Y-50869488D01*
X75208727Y-50869487D01*
X75208732Y-50869486D01*
X75244083Y-50843800D01*
X75253814Y-50837408D01*
X75291420Y-50815170D01*
X75305589Y-50800999D01*
X75320379Y-50788368D01*
X75336587Y-50776594D01*
X75364438Y-50742926D01*
X75372279Y-50734309D01*
X80139788Y-45966801D01*
X80152042Y-45956986D01*
X80151859Y-45956764D01*
X80157868Y-45951791D01*
X80157877Y-45951786D01*
X80203949Y-45902722D01*
X80206566Y-45900023D01*
X80226120Y-45880471D01*
X80228576Y-45877303D01*
X80236156Y-45868427D01*
X80266062Y-45836582D01*
X80275715Y-45819020D01*
X80286389Y-45802770D01*
X80298673Y-45786936D01*
X80316019Y-45746850D01*
X80321157Y-45736362D01*
X80342196Y-45698093D01*
X80342197Y-45698092D01*
X80347177Y-45678691D01*
X80353478Y-45660288D01*
X80361438Y-45641896D01*
X80368272Y-45598741D01*
X80370635Y-45587331D01*
X80381500Y-45545019D01*
X80381500Y-45524983D01*
X80383027Y-45505582D01*
X80383064Y-45505350D01*
X80386160Y-45485804D01*
X80382050Y-45442324D01*
X80381500Y-45430655D01*
X80381500Y-33591687D01*
X80401185Y-33524648D01*
X80413350Y-33508715D01*
X80431891Y-33488122D01*
X80488533Y-33425216D01*
X80583179Y-33261284D01*
X80641674Y-33081256D01*
X80661460Y-32893000D01*
X80641674Y-32704744D01*
X80583179Y-32524716D01*
X80488533Y-32360784D01*
X80361871Y-32220112D01*
X80361870Y-32220111D01*
X80208734Y-32108851D01*
X80208729Y-32108848D01*
X80035807Y-32031857D01*
X80035802Y-32031855D01*
X79890001Y-32000865D01*
X79850646Y-31992500D01*
X79661354Y-31992500D01*
X79628897Y-31999398D01*
X79476197Y-32031855D01*
X79476192Y-32031857D01*
X79303270Y-32108848D01*
X79303265Y-32108851D01*
X79150129Y-32220111D01*
X79023466Y-32360785D01*
X78928821Y-32524715D01*
X78928818Y-32524722D01*
X78870327Y-32704740D01*
X78870326Y-32704744D01*
X78850540Y-32893000D01*
X78870326Y-33081256D01*
X78870327Y-33081259D01*
X78928818Y-33261277D01*
X78928821Y-33261284D01*
X79023467Y-33425216D01*
X79066772Y-33473310D01*
X79098650Y-33508715D01*
X79128880Y-33571706D01*
X79130500Y-33591687D01*
X79130500Y-45155547D01*
X79110815Y-45222586D01*
X79094181Y-45243228D01*
X74682228Y-49655181D01*
X74620905Y-49688666D01*
X74594547Y-49691500D01*
X65504759Y-49691500D01*
X65437720Y-49671815D01*
X65395469Y-49623441D01*
X65394743Y-49623861D01*
X65392612Y-49620171D01*
X65392374Y-49619898D01*
X65392035Y-49619171D01*
X65256495Y-49425599D01*
X65256494Y-49425597D01*
X65089402Y-49258506D01*
X65089395Y-49258501D01*
X64895834Y-49122967D01*
X64895830Y-49122965D01*
X64895828Y-49122964D01*
X64681663Y-49023097D01*
X64681659Y-49023096D01*
X64681655Y-49023094D01*
X64453413Y-48961938D01*
X64453403Y-48961936D01*
X64218001Y-48941341D01*
X64217999Y-48941341D01*
X63982596Y-48961936D01*
X63982586Y-48961938D01*
X63754344Y-49023094D01*
X63754335Y-49023098D01*
X63540171Y-49122964D01*
X63540169Y-49122965D01*
X63346597Y-49258505D01*
X63179505Y-49425597D01*
X63043965Y-49619169D01*
X63043964Y-49619171D01*
X62944098Y-49833335D01*
X62944094Y-49833344D01*
X62882938Y-50061586D01*
X62882936Y-50061596D01*
X62862341Y-50296999D01*
X62862341Y-50297000D01*
X62882936Y-50532403D01*
X62882938Y-50532413D01*
X62944094Y-50760655D01*
X62944096Y-50760659D01*
X62944097Y-50760663D01*
X63027588Y-50939709D01*
X63043965Y-50974830D01*
X63043967Y-50974834D01*
X63152281Y-51129521D01*
X63179501Y-51168396D01*
X63179506Y-51168402D01*
X63346597Y-51335493D01*
X63346603Y-51335498D01*
X63532158Y-51465425D01*
X63575783Y-51520002D01*
X63582977Y-51589500D01*
X63551454Y-51651855D01*
X63532158Y-51668575D01*
X63346597Y-51798505D01*
X63179505Y-51965597D01*
X63043965Y-52159169D01*
X63043964Y-52159171D01*
X62944098Y-52373335D01*
X62944094Y-52373344D01*
X62882938Y-52601586D01*
X62882936Y-52601596D01*
X62862341Y-52836999D01*
X62862341Y-52837000D01*
X62882936Y-53072403D01*
X62882938Y-53072413D01*
X62944094Y-53300655D01*
X62944096Y-53300659D01*
X62944097Y-53300663D01*
X63027588Y-53479709D01*
X63043965Y-53514830D01*
X63043967Y-53514834D01*
X63152281Y-53669521D01*
X63179501Y-53708396D01*
X63179506Y-53708402D01*
X63346597Y-53875493D01*
X63346603Y-53875498D01*
X63532158Y-54005425D01*
X63575783Y-54060002D01*
X63582977Y-54129500D01*
X63551454Y-54191855D01*
X63532158Y-54208575D01*
X63346597Y-54338505D01*
X63179505Y-54505597D01*
X63043965Y-54699169D01*
X63043964Y-54699171D01*
X62944098Y-54913335D01*
X62944094Y-54913344D01*
X62882938Y-55141586D01*
X62882936Y-55141596D01*
X62862341Y-55376999D01*
X62862341Y-55377000D01*
X62882936Y-55612403D01*
X62882938Y-55612413D01*
X62944094Y-55840655D01*
X62944096Y-55840659D01*
X62944097Y-55840663D01*
X62953424Y-55860664D01*
X63043965Y-56054830D01*
X63043967Y-56054834D01*
X63152281Y-56209521D01*
X63179501Y-56248396D01*
X63179506Y-56248402D01*
X63346597Y-56415493D01*
X63346603Y-56415498D01*
X63532158Y-56545425D01*
X63575783Y-56600002D01*
X63582977Y-56669500D01*
X63551454Y-56731855D01*
X63532158Y-56748575D01*
X63346597Y-56878505D01*
X63179505Y-57045597D01*
X63043965Y-57239169D01*
X63043964Y-57239171D01*
X62956408Y-57426936D01*
X62944257Y-57452995D01*
X62944098Y-57453335D01*
X62944094Y-57453344D01*
X62882938Y-57681586D01*
X62882936Y-57681596D01*
X62862341Y-57916999D01*
X62862341Y-57917000D01*
X62882936Y-58152403D01*
X62882938Y-58152413D01*
X62944094Y-58380655D01*
X62944096Y-58380659D01*
X62944097Y-58380663D01*
X62953424Y-58400664D01*
X63043965Y-58594830D01*
X63043967Y-58594834D01*
X63152281Y-58749521D01*
X63179501Y-58788396D01*
X63179506Y-58788402D01*
X63346597Y-58955493D01*
X63346603Y-58955498D01*
X63532158Y-59085425D01*
X63575783Y-59140002D01*
X63582977Y-59209500D01*
X63551454Y-59271855D01*
X63532158Y-59288575D01*
X63346597Y-59418505D01*
X63179505Y-59585597D01*
X63043965Y-59779169D01*
X63043964Y-59779171D01*
X62956408Y-59966936D01*
X62947842Y-59985307D01*
X62944098Y-59993335D01*
X62944094Y-59993344D01*
X62882938Y-60221586D01*
X62882936Y-60221596D01*
X62862341Y-60456999D01*
X62862341Y-60457000D01*
X62882936Y-60692403D01*
X62882938Y-60692413D01*
X62944094Y-60920655D01*
X62944096Y-60920659D01*
X62944097Y-60920663D01*
X62953424Y-60940664D01*
X63043965Y-61134830D01*
X63043967Y-61134834D01*
X63152281Y-61289521D01*
X63179501Y-61328396D01*
X63179506Y-61328402D01*
X63346597Y-61495493D01*
X63346603Y-61495498D01*
X63532158Y-61625425D01*
X63575783Y-61680002D01*
X63582977Y-61749500D01*
X63551454Y-61811855D01*
X63532158Y-61828575D01*
X63346597Y-61958505D01*
X63179505Y-62125597D01*
X63043965Y-62319169D01*
X63043964Y-62319171D01*
X62956408Y-62506936D01*
X62944257Y-62532995D01*
X62944098Y-62533335D01*
X62944094Y-62533344D01*
X62882938Y-62761586D01*
X62882936Y-62761596D01*
X62862341Y-62996999D01*
X62862341Y-62997000D01*
X62882936Y-63232403D01*
X62882938Y-63232413D01*
X62944094Y-63460655D01*
X62944096Y-63460659D01*
X62944097Y-63460663D01*
X62956511Y-63487284D01*
X63043965Y-63674830D01*
X63043967Y-63674834D01*
X63152281Y-63829521D01*
X63179501Y-63868396D01*
X63179506Y-63868402D01*
X63346597Y-64035493D01*
X63346603Y-64035498D01*
X63532158Y-64165425D01*
X63575783Y-64220002D01*
X63582977Y-64289500D01*
X63551454Y-64351855D01*
X63532158Y-64368575D01*
X63346597Y-64498505D01*
X63179505Y-64665597D01*
X63043965Y-64859169D01*
X63043964Y-64859171D01*
X62974730Y-65007644D01*
X62947842Y-65065307D01*
X62944098Y-65073335D01*
X62944094Y-65073344D01*
X62882938Y-65301586D01*
X62882936Y-65301596D01*
X62862341Y-65536999D01*
X62862341Y-65537000D01*
X62882936Y-65772403D01*
X62882938Y-65772413D01*
X62944094Y-66000655D01*
X62944096Y-66000659D01*
X62944097Y-66000663D01*
X62996776Y-66113633D01*
X63043965Y-66214830D01*
X63043967Y-66214834D01*
X63179501Y-66408395D01*
X63179506Y-66408402D01*
X63346597Y-66575493D01*
X63346603Y-66575498D01*
X63532158Y-66705425D01*
X63575783Y-66760002D01*
X63582977Y-66829500D01*
X63551454Y-66891855D01*
X63532158Y-66908575D01*
X63346597Y-67038505D01*
X63179505Y-67205597D01*
X63043965Y-67399169D01*
X63043964Y-67399171D01*
X62944098Y-67613335D01*
X62944094Y-67613344D01*
X62882938Y-67841586D01*
X62882936Y-67841596D01*
X62862341Y-68076999D01*
X62862341Y-68077000D01*
X62882936Y-68312403D01*
X62882938Y-68312413D01*
X62944094Y-68540655D01*
X62944096Y-68540659D01*
X62944097Y-68540663D01*
X62988660Y-68636228D01*
X63043965Y-68754830D01*
X63043967Y-68754834D01*
X63179501Y-68948395D01*
X63179506Y-68948402D01*
X63346597Y-69115493D01*
X63346603Y-69115498D01*
X63532158Y-69245425D01*
X63575783Y-69300002D01*
X63582977Y-69369500D01*
X63551454Y-69431855D01*
X63532158Y-69448575D01*
X63346597Y-69578505D01*
X63179505Y-69745597D01*
X63043965Y-69939169D01*
X63043964Y-69939171D01*
X62944098Y-70153335D01*
X62944094Y-70153344D01*
X62882938Y-70381586D01*
X62882936Y-70381596D01*
X62862341Y-70616999D01*
X62862341Y-70617000D01*
X62882936Y-70852403D01*
X62882938Y-70852413D01*
X62944094Y-71080655D01*
X62944096Y-71080659D01*
X62944097Y-71080663D01*
X62953424Y-71100664D01*
X63036531Y-71278888D01*
X63047023Y-71347966D01*
X63018503Y-71411750D01*
X62960027Y-71449989D01*
X62906503Y-71454031D01*
X62791523Y-71437500D01*
X47657017Y-71437500D01*
X47657015Y-71437500D01*
X47602966Y-71440397D01*
X47602965Y-71440397D01*
X47576632Y-71443229D01*
X47576620Y-71443230D01*
X47565006Y-71445112D01*
X47495682Y-71436399D01*
X47442073Y-71391590D01*
X47421200Y-71324911D01*
X47432797Y-71270305D01*
X47511903Y-71100663D01*
X47573063Y-70872408D01*
X47593659Y-70637000D01*
X47573063Y-70401592D01*
X47511903Y-70173337D01*
X47412035Y-69959171D01*
X47276495Y-69765599D01*
X47276494Y-69765597D01*
X47109402Y-69598506D01*
X47109396Y-69598501D01*
X46923842Y-69468575D01*
X46880217Y-69413998D01*
X46873023Y-69344500D01*
X46904546Y-69282145D01*
X46923842Y-69265425D01*
X46952405Y-69245425D01*
X47109401Y-69135495D01*
X47276495Y-68968401D01*
X47412035Y-68774830D01*
X47511903Y-68560663D01*
X47573063Y-68332408D01*
X47593659Y-68097000D01*
X47573063Y-67861592D01*
X47511903Y-67633337D01*
X47412035Y-67419171D01*
X47276495Y-67225599D01*
X47276494Y-67225597D01*
X47109402Y-67058506D01*
X47109396Y-67058501D01*
X46923842Y-66928575D01*
X46880217Y-66873998D01*
X46873023Y-66804500D01*
X46904546Y-66742145D01*
X46923842Y-66725425D01*
X46952405Y-66705425D01*
X47109401Y-66595495D01*
X47276495Y-66428401D01*
X47412035Y-66234830D01*
X47511903Y-66020663D01*
X47573063Y-65792408D01*
X47593659Y-65557000D01*
X47573063Y-65321592D01*
X47524693Y-65141069D01*
X47511905Y-65093344D01*
X47511904Y-65093343D01*
X47511903Y-65093337D01*
X47412035Y-64879171D01*
X47410806Y-64877415D01*
X47276494Y-64685597D01*
X47109402Y-64518506D01*
X47109396Y-64518501D01*
X46923842Y-64388575D01*
X46880217Y-64333998D01*
X46873023Y-64264500D01*
X46904546Y-64202145D01*
X46923842Y-64185425D01*
X47057282Y-64091989D01*
X47109401Y-64055495D01*
X47276495Y-63888401D01*
X47412035Y-63694830D01*
X47511903Y-63480663D01*
X47573063Y-63252408D01*
X47593659Y-63017000D01*
X47573063Y-62781592D01*
X47515771Y-62567773D01*
X47511905Y-62553344D01*
X47511904Y-62553343D01*
X47511903Y-62553337D01*
X47412035Y-62339171D01*
X47411652Y-62338623D01*
X47276494Y-62145597D01*
X47109402Y-61978506D01*
X47109396Y-61978501D01*
X46923842Y-61848575D01*
X46880217Y-61793998D01*
X46873023Y-61724500D01*
X46904546Y-61662145D01*
X46923842Y-61645425D01*
X46952405Y-61625425D01*
X47109401Y-61515495D01*
X47276495Y-61348401D01*
X47412035Y-61154830D01*
X47511903Y-60940663D01*
X47573063Y-60712408D01*
X47593659Y-60477000D01*
X47573063Y-60241592D01*
X47515771Y-60027773D01*
X47511905Y-60013344D01*
X47511904Y-60013343D01*
X47511903Y-60013337D01*
X47412035Y-59799171D01*
X47411652Y-59798623D01*
X47276494Y-59605597D01*
X47109402Y-59438506D01*
X47109396Y-59438501D01*
X46923842Y-59308575D01*
X46880217Y-59253998D01*
X46873023Y-59184500D01*
X46904546Y-59122145D01*
X46923842Y-59105425D01*
X46952405Y-59085425D01*
X47109401Y-58975495D01*
X47276495Y-58808401D01*
X47412035Y-58614830D01*
X47511903Y-58400663D01*
X47573063Y-58172408D01*
X47593659Y-57937000D01*
X47573063Y-57701592D01*
X47515771Y-57487773D01*
X47511905Y-57473344D01*
X47511904Y-57473343D01*
X47511903Y-57473337D01*
X47412035Y-57259171D01*
X47411652Y-57258623D01*
X47276494Y-57065597D01*
X47109402Y-56898506D01*
X47109396Y-56898501D01*
X46923842Y-56768575D01*
X46880217Y-56713998D01*
X46873023Y-56644500D01*
X46904546Y-56582145D01*
X46923842Y-56565425D01*
X46952405Y-56545425D01*
X47109401Y-56435495D01*
X47276495Y-56268401D01*
X47412035Y-56074830D01*
X47511903Y-55860663D01*
X47573063Y-55632408D01*
X47593659Y-55397000D01*
X47573063Y-55161592D01*
X47515771Y-54947773D01*
X47511905Y-54933344D01*
X47511904Y-54933343D01*
X47511903Y-54933337D01*
X47412035Y-54719171D01*
X47411652Y-54718623D01*
X47276494Y-54525597D01*
X47109402Y-54358506D01*
X47109396Y-54358501D01*
X46923842Y-54228575D01*
X46880217Y-54173998D01*
X46873023Y-54104500D01*
X46904546Y-54042145D01*
X46923842Y-54025425D01*
X46952405Y-54005425D01*
X47109401Y-53895495D01*
X47276495Y-53728401D01*
X47412035Y-53534830D01*
X47511903Y-53320663D01*
X47573063Y-53092408D01*
X47593659Y-52857000D01*
X47573063Y-52621592D01*
X47511903Y-52393337D01*
X47412035Y-52179171D01*
X47411652Y-52178623D01*
X47276494Y-51985597D01*
X47109402Y-51818506D01*
X47109396Y-51818501D01*
X46923842Y-51688575D01*
X46880217Y-51633998D01*
X46873023Y-51564500D01*
X46904546Y-51502145D01*
X46923842Y-51485425D01*
X46952405Y-51465425D01*
X47109401Y-51355495D01*
X47276495Y-51188401D01*
X47412035Y-50994830D01*
X47511903Y-50780663D01*
X47573063Y-50552408D01*
X47593659Y-50317000D01*
X47573063Y-50081592D01*
X47511903Y-49853337D01*
X47412035Y-49639171D01*
X47411652Y-49638623D01*
X47276494Y-49445597D01*
X47109402Y-49278506D01*
X47109395Y-49278501D01*
X46915834Y-49142967D01*
X46915830Y-49142965D01*
X46872938Y-49122964D01*
X46701663Y-49043097D01*
X46701659Y-49043096D01*
X46701655Y-49043094D01*
X46473413Y-48981938D01*
X46473403Y-48981936D01*
X46238001Y-48961341D01*
X46237999Y-48961341D01*
X46002596Y-48981936D01*
X46002586Y-48981938D01*
X45774344Y-49043094D01*
X45774335Y-49043098D01*
X45560171Y-49142964D01*
X45560169Y-49142965D01*
X45366597Y-49278505D01*
X45199505Y-49445597D01*
X45064348Y-49638623D01*
X45009771Y-49682248D01*
X44962773Y-49691500D01*
X35641452Y-49691500D01*
X35574413Y-49671815D01*
X35553771Y-49655181D01*
X31141819Y-45243228D01*
X31108334Y-45181905D01*
X31105500Y-45155547D01*
X31105500Y-33591687D01*
X31125185Y-33524648D01*
X31137350Y-33508715D01*
X31155891Y-33488122D01*
X31212533Y-33425216D01*
X31307179Y-33261284D01*
X31365674Y-33081256D01*
X31385460Y-32893000D01*
X31365674Y-32704744D01*
X31307179Y-32524716D01*
X31212533Y-32360784D01*
X31085871Y-32220112D01*
X31085870Y-32220111D01*
X30932734Y-32108851D01*
X30932729Y-32108848D01*
X30759807Y-32031857D01*
X30759802Y-32031855D01*
X30614001Y-32000865D01*
X30574646Y-31992500D01*
X30385354Y-31992500D01*
X30352897Y-31999398D01*
X30200197Y-32031855D01*
X30200192Y-32031857D01*
X30027270Y-32108848D01*
X30027265Y-32108851D01*
X29874129Y-32220111D01*
X29747466Y-32360785D01*
X29652821Y-32524715D01*
X29652818Y-32524722D01*
X29594327Y-32704740D01*
X29594326Y-32704744D01*
X29574540Y-32893000D01*
X29594326Y-33081256D01*
X29594327Y-33081259D01*
X29652818Y-33261277D01*
X29652821Y-33261284D01*
X29747467Y-33425216D01*
X29790772Y-33473310D01*
X29822650Y-33508715D01*
X29852880Y-33571706D01*
X29854500Y-33591687D01*
X29854500Y-45383255D01*
X29852775Y-45398872D01*
X29853061Y-45398899D01*
X29852326Y-45406665D01*
X29854439Y-45473872D01*
X29854500Y-45477767D01*
X29854500Y-45505357D01*
X29855003Y-45509335D01*
X29855918Y-45520967D01*
X29857290Y-45564624D01*
X29857291Y-45564627D01*
X29862880Y-45583867D01*
X29866824Y-45602911D01*
X29869336Y-45622792D01*
X29885414Y-45663403D01*
X29889197Y-45674452D01*
X29901381Y-45716388D01*
X29911580Y-45733634D01*
X29920138Y-45751103D01*
X29927514Y-45769732D01*
X29953181Y-45805060D01*
X29959593Y-45814821D01*
X29981828Y-45852417D01*
X29981833Y-45852424D01*
X29995990Y-45866580D01*
X30008628Y-45881376D01*
X30020405Y-45897586D01*
X30020406Y-45897587D01*
X30054057Y-45925425D01*
X30062698Y-45933288D01*
X34830197Y-50700788D01*
X34840022Y-50713051D01*
X34840243Y-50712869D01*
X34845211Y-50718874D01*
X34894222Y-50764899D01*
X34897021Y-50767612D01*
X34916522Y-50787114D01*
X34916526Y-50787117D01*
X34916529Y-50787120D01*
X34919702Y-50789581D01*
X34928574Y-50797159D01*
X34960418Y-50827062D01*
X34977976Y-50836714D01*
X34994233Y-50847393D01*
X35010064Y-50859673D01*
X35039803Y-50872542D01*
X35050152Y-50877021D01*
X35060641Y-50882160D01*
X35084457Y-50895252D01*
X35098908Y-50903197D01*
X35111523Y-50906435D01*
X35118305Y-50908177D01*
X35136719Y-50914481D01*
X35155104Y-50922438D01*
X35198261Y-50929273D01*
X35209656Y-50931632D01*
X35251981Y-50942500D01*
X35272016Y-50942500D01*
X35291413Y-50944026D01*
X35311196Y-50947160D01*
X35354675Y-50943050D01*
X35366344Y-50942500D01*
X44962773Y-50942500D01*
X45029812Y-50962185D01*
X45064348Y-50995377D01*
X45199501Y-51188396D01*
X45199506Y-51188402D01*
X45366597Y-51355493D01*
X45366603Y-51355498D01*
X45552158Y-51485425D01*
X45595783Y-51540002D01*
X45602977Y-51609500D01*
X45571454Y-51671855D01*
X45552158Y-51688575D01*
X45366597Y-51818505D01*
X45199505Y-51985597D01*
X45064348Y-52178623D01*
X45009771Y-52222248D01*
X44962773Y-52231500D01*
X35641452Y-52231500D01*
X35574413Y-52211815D01*
X35553771Y-52195181D01*
X31418960Y-48060369D01*
X31385475Y-47999046D01*
X31383323Y-47985668D01*
X31365674Y-47817744D01*
X31307179Y-47637716D01*
X31212533Y-47473784D01*
X31085871Y-47333112D01*
X31085870Y-47333111D01*
X30932734Y-47221851D01*
X30932729Y-47221848D01*
X30759807Y-47144857D01*
X30759802Y-47144855D01*
X30614001Y-47113865D01*
X30574646Y-47105500D01*
X30385354Y-47105500D01*
X30352897Y-47112398D01*
X30200197Y-47144855D01*
X30200192Y-47144857D01*
X30027270Y-47221848D01*
X30027265Y-47221851D01*
X29874129Y-47333111D01*
X29747466Y-47473785D01*
X29652821Y-47637715D01*
X29652818Y-47637722D01*
X29594327Y-47817740D01*
X29594326Y-47817744D01*
X29574540Y-48006000D01*
X29594326Y-48194256D01*
X29594327Y-48194259D01*
X29652818Y-48374277D01*
X29652821Y-48374284D01*
X29747467Y-48538216D01*
X29874129Y-48678888D01*
X30027265Y-48790148D01*
X30027270Y-48790151D01*
X30200192Y-48867142D01*
X30200197Y-48867144D01*
X30385354Y-48906500D01*
X30444548Y-48906500D01*
X30511587Y-48926185D01*
X30532229Y-48942819D01*
X34830197Y-53240788D01*
X34840022Y-53253051D01*
X34840243Y-53252869D01*
X34845211Y-53258874D01*
X34894222Y-53304899D01*
X34897021Y-53307612D01*
X34916522Y-53327114D01*
X34916526Y-53327117D01*
X34916529Y-53327120D01*
X34919702Y-53329581D01*
X34928574Y-53337159D01*
X34960418Y-53367062D01*
X34977976Y-53376714D01*
X34994233Y-53387393D01*
X35010064Y-53399673D01*
X35039803Y-53412542D01*
X35050152Y-53417021D01*
X35060641Y-53422160D01*
X35084457Y-53435252D01*
X35098908Y-53443197D01*
X35111523Y-53446435D01*
X35118305Y-53448177D01*
X35136719Y-53454481D01*
X35155104Y-53462438D01*
X35198261Y-53469273D01*
X35209656Y-53471632D01*
X35251981Y-53482500D01*
X35272016Y-53482500D01*
X35291413Y-53484026D01*
X35311196Y-53487160D01*
X35354675Y-53483050D01*
X35366344Y-53482500D01*
X44962773Y-53482500D01*
X45029812Y-53502185D01*
X45064348Y-53535377D01*
X45199501Y-53728396D01*
X45199506Y-53728402D01*
X45366597Y-53895493D01*
X45366603Y-53895498D01*
X45552158Y-54025425D01*
X45595783Y-54080002D01*
X45602977Y-54149500D01*
X45571454Y-54211855D01*
X45552158Y-54228575D01*
X45366597Y-54358505D01*
X45199505Y-54525597D01*
X45064348Y-54718623D01*
X45009771Y-54762248D01*
X44962773Y-54771500D01*
X35363737Y-54771500D01*
X35348120Y-54769776D01*
X35348093Y-54770062D01*
X35340331Y-54769327D01*
X35273144Y-54771439D01*
X35269250Y-54771500D01*
X35241650Y-54771500D01*
X35237962Y-54771965D01*
X35237649Y-54772005D01*
X35226031Y-54772918D01*
X35182377Y-54774290D01*
X35182367Y-54774292D01*
X35163134Y-54779879D01*
X35144094Y-54783822D01*
X35124217Y-54786334D01*
X35124210Y-54786335D01*
X35124208Y-54786336D01*
X35124206Y-54786336D01*
X35124205Y-54786337D01*
X35083584Y-54802419D01*
X35072537Y-54806201D01*
X35030611Y-54818382D01*
X35030608Y-54818383D01*
X35013363Y-54828581D01*
X34995901Y-54837135D01*
X34977272Y-54844511D01*
X34977267Y-54844514D01*
X34941926Y-54870189D01*
X34932168Y-54876599D01*
X34894580Y-54898828D01*
X34880408Y-54913000D01*
X34865623Y-54925628D01*
X34849412Y-54937407D01*
X34821571Y-54971059D01*
X34813711Y-54979696D01*
X30096208Y-59697199D01*
X30083951Y-59707020D01*
X30084134Y-59707241D01*
X30078122Y-59712214D01*
X30032098Y-59761223D01*
X30029391Y-59764016D01*
X30009889Y-59783517D01*
X30009875Y-59783534D01*
X30007407Y-59786715D01*
X29999843Y-59795570D01*
X29969937Y-59827418D01*
X29969936Y-59827420D01*
X29960284Y-59844976D01*
X29949610Y-59861226D01*
X29937329Y-59877061D01*
X29937324Y-59877068D01*
X29919975Y-59917158D01*
X29914838Y-59927644D01*
X29893803Y-59965906D01*
X29888822Y-59985307D01*
X29882521Y-60003710D01*
X29874562Y-60022102D01*
X29874561Y-60022105D01*
X29867728Y-60065243D01*
X29865360Y-60076674D01*
X29854501Y-60118971D01*
X29854500Y-60118982D01*
X29854500Y-60139016D01*
X29852973Y-60158413D01*
X29849840Y-60178196D01*
X29853272Y-60214505D01*
X29853950Y-60221674D01*
X29854500Y-60233343D01*
X29854500Y-62420312D01*
X29834815Y-62487351D01*
X29822650Y-62503284D01*
X29747466Y-62586784D01*
X29652821Y-62750715D01*
X29652818Y-62750722D01*
X29594327Y-62930740D01*
X29594326Y-62930744D01*
X29574540Y-63119000D01*
X29594326Y-63307256D01*
X29594327Y-63307259D01*
X29652818Y-63487277D01*
X29652821Y-63487284D01*
X29747467Y-63651216D01*
X29786741Y-63694834D01*
X29874129Y-63791888D01*
X30027265Y-63903148D01*
X30027270Y-63903151D01*
X30200192Y-63980142D01*
X30200197Y-63980144D01*
X30385354Y-64019500D01*
X30385355Y-64019500D01*
X30554546Y-64019500D01*
X30621585Y-64039185D01*
X30667340Y-64091989D01*
X30677284Y-64161147D01*
X30648259Y-64224703D01*
X30642227Y-64231181D01*
X30096208Y-64777199D01*
X30083951Y-64787020D01*
X30084134Y-64787241D01*
X30078122Y-64792214D01*
X30032098Y-64841223D01*
X30029391Y-64844016D01*
X30009889Y-64863517D01*
X30009875Y-64863534D01*
X30007407Y-64866715D01*
X29999843Y-64875570D01*
X29969937Y-64907418D01*
X29969936Y-64907420D01*
X29960284Y-64924976D01*
X29949610Y-64941226D01*
X29937329Y-64957061D01*
X29937324Y-64957068D01*
X29919975Y-64997158D01*
X29914838Y-65007644D01*
X29893803Y-65045906D01*
X29888822Y-65065307D01*
X29882521Y-65083710D01*
X29874562Y-65102102D01*
X29874561Y-65102105D01*
X29867728Y-65145243D01*
X29865360Y-65156674D01*
X29854501Y-65198971D01*
X29854500Y-65198982D01*
X29854500Y-65219016D01*
X29852973Y-65238415D01*
X29849840Y-65258194D01*
X29849840Y-65258195D01*
X29853950Y-65301674D01*
X29854500Y-65313343D01*
X29854500Y-77533312D01*
X29834815Y-77600351D01*
X29822650Y-77616284D01*
X29747466Y-77699784D01*
X29652821Y-77863715D01*
X29652818Y-77863722D01*
X29594327Y-78043740D01*
X29594326Y-78043744D01*
X29574540Y-78232000D01*
X29594326Y-78420256D01*
X29594327Y-78420259D01*
X29652818Y-78600277D01*
X29652821Y-78600284D01*
X29747467Y-78764216D01*
X29874129Y-78904888D01*
X30027265Y-79016148D01*
X30027270Y-79016151D01*
X30200192Y-79093142D01*
X30200197Y-79093144D01*
X30385354Y-79132500D01*
X30385355Y-79132500D01*
X30574644Y-79132500D01*
X30574646Y-79132500D01*
X30720720Y-79101451D01*
X30790386Y-79106767D01*
X30846120Y-79148904D01*
X30870225Y-79214484D01*
X30870500Y-79222741D01*
X30870500Y-92018547D01*
X30850815Y-92085586D01*
X30834181Y-92106228D01*
X30532228Y-92408181D01*
X30470905Y-92441666D01*
X30444547Y-92444500D01*
X30385354Y-92444500D01*
X30352897Y-92451398D01*
X30200197Y-92483855D01*
X30200192Y-92483857D01*
X30027270Y-92560848D01*
X30027265Y-92560851D01*
X29874129Y-92672111D01*
X29747466Y-92812785D01*
X29652821Y-92976715D01*
X29652818Y-92976722D01*
X29608342Y-93113606D01*
X29594326Y-93156744D01*
X29574540Y-93345000D01*
X29594326Y-93533256D01*
X29594327Y-93533259D01*
X29652818Y-93713277D01*
X29652821Y-93713284D01*
X29747467Y-93877216D01*
X29874129Y-94017888D01*
X30027265Y-94129148D01*
X30027270Y-94129151D01*
X30200192Y-94206142D01*
X30200197Y-94206144D01*
X30385354Y-94245500D01*
X30385355Y-94245500D01*
X30574644Y-94245500D01*
X30574646Y-94245500D01*
X30759803Y-94206144D01*
X30932730Y-94129151D01*
X31085871Y-94017888D01*
X31212533Y-93877216D01*
X31307179Y-93713284D01*
X31365674Y-93533256D01*
X31383321Y-93365344D01*
X31409904Y-93300734D01*
X31418951Y-93290638D01*
X31674819Y-93034771D01*
X31736142Y-93001286D01*
X31805834Y-93006270D01*
X31861767Y-93048142D01*
X31886184Y-93113606D01*
X31886500Y-93122452D01*
X31886500Y-106115547D01*
X31866815Y-106182586D01*
X31850181Y-106203228D01*
X30532228Y-107521181D01*
X30470905Y-107554666D01*
X30444547Y-107557500D01*
X30385354Y-107557500D01*
X30352897Y-107564398D01*
X30200197Y-107596855D01*
X30200192Y-107596857D01*
X30027270Y-107673848D01*
X30027265Y-107673851D01*
X29874129Y-107785111D01*
X29747466Y-107925785D01*
X29652821Y-108089715D01*
X29652818Y-108089722D01*
X29594327Y-108269740D01*
X29594326Y-108269744D01*
X29574540Y-108458000D01*
X29594326Y-108646256D01*
X29594327Y-108646259D01*
X29652818Y-108826277D01*
X29652821Y-108826284D01*
X29747467Y-108990216D01*
X29874129Y-109130888D01*
X30027265Y-109242148D01*
X30027270Y-109242151D01*
X30200192Y-109319142D01*
X30200197Y-109319144D01*
X30385354Y-109358500D01*
X30385355Y-109358500D01*
X30574644Y-109358500D01*
X30574646Y-109358500D01*
X30759803Y-109319144D01*
X30932730Y-109242151D01*
X31085871Y-109130888D01*
X31212533Y-108990216D01*
X31307179Y-108826284D01*
X31365674Y-108646256D01*
X31383321Y-108478344D01*
X31409904Y-108413734D01*
X31418951Y-108403638D01*
X32690819Y-107131771D01*
X32752142Y-107098286D01*
X32821834Y-107103270D01*
X32877767Y-107145142D01*
X32902184Y-107210606D01*
X32902500Y-107219452D01*
X32902500Y-120212547D01*
X32882815Y-120279586D01*
X32866181Y-120300228D01*
X30532228Y-122634181D01*
X30470905Y-122667666D01*
X30444547Y-122670500D01*
X30385354Y-122670500D01*
X30352897Y-122677398D01*
X30200197Y-122709855D01*
X30200192Y-122709857D01*
X30027270Y-122786848D01*
X30027265Y-122786851D01*
X29874129Y-122898111D01*
X29747466Y-123038785D01*
X29652821Y-123202715D01*
X29652818Y-123202722D01*
X29594327Y-123382740D01*
X29594326Y-123382744D01*
X29574540Y-123571000D01*
X24892500Y-123571000D01*
X24892500Y-25754413D01*
X24892972Y-25743606D01*
X24906496Y-25589025D01*
X24910247Y-25567744D01*
X24949004Y-25423099D01*
X24956397Y-25402790D01*
X25015302Y-25276468D01*
X25019682Y-25267074D01*
X25030482Y-25248368D01*
X25116377Y-25125696D01*
X25130260Y-25109152D01*
X25236152Y-25003260D01*
X25252696Y-24989377D01*
X25375368Y-24903482D01*
X25394074Y-24892682D01*
X25529792Y-24829396D01*
X25550099Y-24822004D01*
X25694744Y-24783247D01*
X25716020Y-24779496D01*
X25846594Y-24768072D01*
X25870606Y-24765972D01*
X25881413Y-24765500D01*
X25970193Y-24765500D01*
X84265807Y-24765500D01*
X84354587Y-24765500D01*
X84365394Y-24765972D01*
G37*
G04 #@! TD.AperFunction*
G04 #@! TA.AperFunction,NonConductor*
G36*
X45029812Y-56042185D02*
G01*
X45064348Y-56075377D01*
X45199501Y-56268396D01*
X45199506Y-56268402D01*
X45366597Y-56435493D01*
X45366603Y-56435498D01*
X45552158Y-56565425D01*
X45595783Y-56620002D01*
X45602977Y-56689500D01*
X45571454Y-56751855D01*
X45552158Y-56768575D01*
X45366597Y-56898505D01*
X45199505Y-57065597D01*
X45064348Y-57258623D01*
X45009771Y-57302248D01*
X44962773Y-57311500D01*
X37903743Y-57311500D01*
X37888122Y-57309775D01*
X37888095Y-57310061D01*
X37880333Y-57309326D01*
X37813113Y-57311439D01*
X37809219Y-57311500D01*
X37781650Y-57311500D01*
X37777673Y-57312002D01*
X37766042Y-57312917D01*
X37722374Y-57314289D01*
X37722368Y-57314290D01*
X37703126Y-57319880D01*
X37684087Y-57323823D01*
X37664217Y-57326334D01*
X37664203Y-57326337D01*
X37623598Y-57342413D01*
X37612554Y-57346194D01*
X37570614Y-57358379D01*
X37570610Y-57358381D01*
X37553366Y-57368579D01*
X37535905Y-57377133D01*
X37517274Y-57384510D01*
X37517262Y-57384517D01*
X37481933Y-57410185D01*
X37472173Y-57416596D01*
X37434580Y-57438829D01*
X37420414Y-57452995D01*
X37405624Y-57465627D01*
X37389414Y-57477404D01*
X37389411Y-57477407D01*
X37361573Y-57511058D01*
X37353711Y-57519697D01*
X31589731Y-63283676D01*
X31528408Y-63317161D01*
X31458716Y-63312177D01*
X31402783Y-63270305D01*
X31378366Y-63204841D01*
X31378728Y-63183044D01*
X31385460Y-63119000D01*
X31365674Y-62930744D01*
X31307179Y-62750716D01*
X31212533Y-62586784D01*
X31137350Y-62503284D01*
X31107120Y-62440292D01*
X31105500Y-62420312D01*
X31105500Y-60508452D01*
X31125185Y-60441413D01*
X31141819Y-60420771D01*
X35503772Y-56058819D01*
X35565095Y-56025334D01*
X35591453Y-56022500D01*
X44962773Y-56022500D01*
X45029812Y-56042185D01*
G37*
G04 #@! TD.AperFunction*
G04 #@! TA.AperFunction,NonConductor*
G36*
X74711587Y-56042185D02*
G01*
X74732229Y-56058819D01*
X79094181Y-60420771D01*
X79127666Y-60482094D01*
X79130500Y-60508452D01*
X79130500Y-62420312D01*
X79110815Y-62487351D01*
X79098650Y-62503284D01*
X79023466Y-62586784D01*
X78928821Y-62750715D01*
X78928818Y-62750722D01*
X78870327Y-62930740D01*
X78870326Y-62930744D01*
X78850540Y-63118999D01*
X78850540Y-63119000D01*
X78857270Y-63183036D01*
X78844700Y-63251765D01*
X78796968Y-63302789D01*
X78729227Y-63319906D01*
X78662986Y-63297683D01*
X78646268Y-63283677D01*
X72915803Y-57553212D01*
X72905980Y-57540950D01*
X72905759Y-57541134D01*
X72900786Y-57535122D01*
X72851776Y-57489099D01*
X72848977Y-57486386D01*
X72829477Y-57466885D01*
X72829471Y-57466880D01*
X72826286Y-57464409D01*
X72817434Y-57456848D01*
X72785582Y-57426938D01*
X72785580Y-57426936D01*
X72785577Y-57426935D01*
X72768029Y-57417288D01*
X72751763Y-57406604D01*
X72735932Y-57394324D01*
X72695849Y-57376978D01*
X72685363Y-57371841D01*
X72647094Y-57350803D01*
X72647092Y-57350802D01*
X72627693Y-57345822D01*
X72609281Y-57339518D01*
X72590898Y-57331562D01*
X72590892Y-57331560D01*
X72547760Y-57324729D01*
X72536322Y-57322361D01*
X72494020Y-57311500D01*
X72494019Y-57311500D01*
X72473984Y-57311500D01*
X72454586Y-57309973D01*
X72447162Y-57308797D01*
X72434805Y-57306840D01*
X72434804Y-57306840D01*
X72391325Y-57310950D01*
X72379656Y-57311500D01*
X65504759Y-57311500D01*
X65437720Y-57291815D01*
X65395469Y-57243441D01*
X65394743Y-57243861D01*
X65392612Y-57240171D01*
X65392374Y-57239898D01*
X65392035Y-57239171D01*
X65256495Y-57045599D01*
X65256494Y-57045597D01*
X65089402Y-56878506D01*
X65089396Y-56878501D01*
X64903842Y-56748575D01*
X64860217Y-56693998D01*
X64853023Y-56624500D01*
X64884546Y-56562145D01*
X64903842Y-56545425D01*
X64926026Y-56529891D01*
X65089401Y-56415495D01*
X65256495Y-56248401D01*
X65377648Y-56075377D01*
X65432225Y-56031752D01*
X65479223Y-56022500D01*
X74644548Y-56022500D01*
X74711587Y-56042185D01*
G37*
G04 #@! TD.AperFunction*
G04 #@! TA.AperFunction,NonConductor*
G36*
X45029812Y-58582185D02*
G01*
X45064348Y-58615377D01*
X45199501Y-58808396D01*
X45199506Y-58808402D01*
X45366597Y-58975493D01*
X45366603Y-58975498D01*
X45552158Y-59105425D01*
X45595783Y-59160002D01*
X45602977Y-59229500D01*
X45571454Y-59291855D01*
X45552158Y-59308575D01*
X45366597Y-59438505D01*
X45199505Y-59605597D01*
X45064348Y-59798623D01*
X45009771Y-59842248D01*
X44962773Y-59851500D01*
X40443737Y-59851500D01*
X40428120Y-59849776D01*
X40428093Y-59850062D01*
X40420331Y-59849327D01*
X40353144Y-59851439D01*
X40349250Y-59851500D01*
X40321650Y-59851500D01*
X40317962Y-59851965D01*
X40317649Y-59852005D01*
X40306031Y-59852918D01*
X40262373Y-59854290D01*
X40262372Y-59854290D01*
X40243129Y-59859881D01*
X40224079Y-59863825D01*
X40204211Y-59866334D01*
X40204210Y-59866335D01*
X40163600Y-59882413D01*
X40152553Y-59886195D01*
X40110610Y-59898381D01*
X40110609Y-59898382D01*
X40093367Y-59908579D01*
X40075899Y-59917137D01*
X40057269Y-59924513D01*
X40057266Y-59924515D01*
X40021939Y-59950181D01*
X40012180Y-59956592D01*
X39974579Y-59978830D01*
X39960408Y-59993000D01*
X39945623Y-60005628D01*
X39929412Y-60017407D01*
X39901571Y-60051059D01*
X39893711Y-60059696D01*
X31317181Y-68636227D01*
X31255858Y-68669712D01*
X31186166Y-68664728D01*
X31130233Y-68622856D01*
X31105816Y-68557392D01*
X31105500Y-68548546D01*
X31105500Y-65588452D01*
X31125185Y-65521413D01*
X31141819Y-65500771D01*
X38043771Y-58598819D01*
X38105094Y-58565334D01*
X38131452Y-58562500D01*
X44962773Y-58562500D01*
X45029812Y-58582185D01*
G37*
G04 #@! TD.AperFunction*
G04 #@! TA.AperFunction,NonConductor*
G36*
X72171587Y-58582185D02*
G01*
X72192229Y-58598819D01*
X79094181Y-65500771D01*
X79127666Y-65562094D01*
X79130500Y-65588452D01*
X79130500Y-68548547D01*
X79110815Y-68615586D01*
X79058011Y-68661341D01*
X78988853Y-68671285D01*
X78925297Y-68642260D01*
X78918819Y-68636228D01*
X70375803Y-60093212D01*
X70365980Y-60080950D01*
X70365759Y-60081134D01*
X70360786Y-60075122D01*
X70311776Y-60029099D01*
X70308977Y-60026386D01*
X70289477Y-60006885D01*
X70289471Y-60006880D01*
X70286286Y-60004409D01*
X70277434Y-59996848D01*
X70245582Y-59966938D01*
X70245580Y-59966936D01*
X70245577Y-59966935D01*
X70228029Y-59957288D01*
X70211763Y-59946604D01*
X70195932Y-59934324D01*
X70155849Y-59916978D01*
X70145363Y-59911841D01*
X70107094Y-59890803D01*
X70107092Y-59890802D01*
X70087693Y-59885822D01*
X70069281Y-59879518D01*
X70050898Y-59871562D01*
X70050892Y-59871560D01*
X70007760Y-59864729D01*
X69996322Y-59862361D01*
X69954020Y-59851500D01*
X69954019Y-59851500D01*
X69933984Y-59851500D01*
X69914586Y-59849973D01*
X69907162Y-59848797D01*
X69894805Y-59846840D01*
X69894804Y-59846840D01*
X69851325Y-59850950D01*
X69839656Y-59851500D01*
X65504759Y-59851500D01*
X65437720Y-59831815D01*
X65395469Y-59783441D01*
X65394743Y-59783861D01*
X65392612Y-59780171D01*
X65392374Y-59779898D01*
X65392035Y-59779171D01*
X65256495Y-59585599D01*
X65256494Y-59585597D01*
X65089402Y-59418506D01*
X65089396Y-59418501D01*
X64903842Y-59288575D01*
X64860217Y-59233998D01*
X64853023Y-59164500D01*
X64884546Y-59102145D01*
X64903842Y-59085425D01*
X64926026Y-59069891D01*
X65089401Y-58955495D01*
X65256495Y-58788401D01*
X65377648Y-58615377D01*
X65432225Y-58571752D01*
X65479223Y-58562500D01*
X72104548Y-58562500D01*
X72171587Y-58582185D01*
G37*
G04 #@! TD.AperFunction*
G04 #@! TA.AperFunction,NonConductor*
G36*
X45029812Y-61122185D02*
G01*
X45064348Y-61155377D01*
X45199501Y-61348396D01*
X45199506Y-61348402D01*
X45366597Y-61515493D01*
X45366603Y-61515498D01*
X45552158Y-61645425D01*
X45595783Y-61700002D01*
X45602977Y-61769500D01*
X45571454Y-61831855D01*
X45552158Y-61848575D01*
X45366597Y-61978505D01*
X45199505Y-62145597D01*
X45064348Y-62338623D01*
X45009771Y-62382248D01*
X44962773Y-62391500D01*
X42983743Y-62391500D01*
X42968122Y-62389775D01*
X42968095Y-62390061D01*
X42960333Y-62389326D01*
X42893113Y-62391439D01*
X42889219Y-62391500D01*
X42861650Y-62391500D01*
X42857673Y-62392002D01*
X42846042Y-62392917D01*
X42802374Y-62394289D01*
X42802368Y-62394290D01*
X42783126Y-62399880D01*
X42764087Y-62403823D01*
X42744217Y-62406334D01*
X42744203Y-62406337D01*
X42703598Y-62422413D01*
X42692554Y-62426194D01*
X42650614Y-62438379D01*
X42650610Y-62438381D01*
X42633366Y-62448579D01*
X42615905Y-62457133D01*
X42597274Y-62464510D01*
X42597262Y-62464517D01*
X42561933Y-62490185D01*
X42552173Y-62496596D01*
X42514580Y-62518829D01*
X42500414Y-62532995D01*
X42485624Y-62545627D01*
X42469414Y-62557404D01*
X42469411Y-62557407D01*
X42441573Y-62591058D01*
X42433711Y-62599697D01*
X32333181Y-72700228D01*
X32271858Y-72733713D01*
X32202166Y-72728729D01*
X32146233Y-72686857D01*
X32121816Y-72621393D01*
X32121500Y-72612547D01*
X32121500Y-69652452D01*
X32141185Y-69585413D01*
X32157819Y-69564771D01*
X40583772Y-61138819D01*
X40645095Y-61105334D01*
X40671453Y-61102500D01*
X44962773Y-61102500D01*
X45029812Y-61122185D01*
G37*
G04 #@! TD.AperFunction*
G04 #@! TA.AperFunction,NonConductor*
G36*
X69631587Y-61122185D02*
G01*
X69652229Y-61138819D01*
X78078181Y-69564771D01*
X78111666Y-69626094D01*
X78114500Y-69652452D01*
X78114500Y-72612547D01*
X78094815Y-72679586D01*
X78042011Y-72725341D01*
X77972853Y-72735285D01*
X77909297Y-72706260D01*
X77902819Y-72700228D01*
X67835803Y-62633212D01*
X67825980Y-62620950D01*
X67825759Y-62621134D01*
X67820786Y-62615122D01*
X67771776Y-62569099D01*
X67768977Y-62566386D01*
X67749477Y-62546885D01*
X67749471Y-62546880D01*
X67746286Y-62544409D01*
X67737434Y-62536848D01*
X67705582Y-62506938D01*
X67705580Y-62506936D01*
X67705577Y-62506935D01*
X67688029Y-62497288D01*
X67671763Y-62486604D01*
X67655932Y-62474324D01*
X67615849Y-62456978D01*
X67605363Y-62451841D01*
X67567094Y-62430803D01*
X67567092Y-62430802D01*
X67547693Y-62425822D01*
X67529281Y-62419518D01*
X67510898Y-62411562D01*
X67510892Y-62411560D01*
X67467760Y-62404729D01*
X67456322Y-62402361D01*
X67414020Y-62391500D01*
X67414019Y-62391500D01*
X67393984Y-62391500D01*
X67374586Y-62389973D01*
X67367162Y-62388797D01*
X67354805Y-62386840D01*
X67354804Y-62386840D01*
X67311325Y-62390950D01*
X67299656Y-62391500D01*
X65504759Y-62391500D01*
X65437720Y-62371815D01*
X65395469Y-62323441D01*
X65394743Y-62323861D01*
X65392612Y-62320171D01*
X65392374Y-62319898D01*
X65392035Y-62319171D01*
X65256495Y-62125599D01*
X65256494Y-62125597D01*
X65089402Y-61958506D01*
X65089396Y-61958501D01*
X64903842Y-61828575D01*
X64860217Y-61773998D01*
X64853023Y-61704500D01*
X64884546Y-61642145D01*
X64903842Y-61625425D01*
X64926026Y-61609891D01*
X65089401Y-61495495D01*
X65256495Y-61328401D01*
X65377648Y-61155377D01*
X65432225Y-61111752D01*
X65479223Y-61102500D01*
X69564548Y-61102500D01*
X69631587Y-61122185D01*
G37*
G04 #@! TD.AperFunction*
G04 #@! TA.AperFunction,NonConductor*
G36*
X45029812Y-63662185D02*
G01*
X45064348Y-63695377D01*
X45199501Y-63888396D01*
X45199506Y-63888402D01*
X45366597Y-64055493D01*
X45366603Y-64055498D01*
X45552158Y-64185425D01*
X45595783Y-64240002D01*
X45602977Y-64309500D01*
X45571454Y-64371855D01*
X45552158Y-64388575D01*
X45366597Y-64518505D01*
X45199505Y-64685597D01*
X45063965Y-64879169D01*
X45063964Y-64879171D01*
X44964098Y-65093335D01*
X44964094Y-65093344D01*
X44902938Y-65321586D01*
X44902936Y-65321596D01*
X44882341Y-65556999D01*
X44882341Y-65557000D01*
X44902937Y-65792408D01*
X44929855Y-65892873D01*
X44928192Y-65962723D01*
X44897761Y-66012646D01*
X33349181Y-77561227D01*
X33287858Y-77594712D01*
X33218166Y-77589728D01*
X33162233Y-77547856D01*
X33137816Y-77482392D01*
X33137500Y-77473546D01*
X33137500Y-73716452D01*
X33157185Y-73649413D01*
X33173819Y-73628771D01*
X43123771Y-63678819D01*
X43185094Y-63645334D01*
X43211452Y-63642500D01*
X44962773Y-63642500D01*
X45029812Y-63662185D01*
G37*
G04 #@! TD.AperFunction*
G04 #@! TA.AperFunction,NonConductor*
G36*
X67091587Y-63662185D02*
G01*
X67112229Y-63678819D01*
X77062181Y-73628771D01*
X77095666Y-73690094D01*
X77098500Y-73716452D01*
X77098500Y-77473547D01*
X77078815Y-77540586D01*
X77026011Y-77586341D01*
X76956853Y-77596285D01*
X76893297Y-77567260D01*
X76886819Y-77561228D01*
X65500619Y-66175028D01*
X65467134Y-66113705D01*
X65472118Y-66044013D01*
X65475918Y-66034942D01*
X65482576Y-66020664D01*
X65491903Y-66000663D01*
X65553063Y-65772408D01*
X65573659Y-65537000D01*
X65553063Y-65301592D01*
X65499611Y-65102104D01*
X65491905Y-65073344D01*
X65491904Y-65073343D01*
X65491903Y-65073337D01*
X65392035Y-64859171D01*
X65383101Y-64846411D01*
X65256494Y-64665597D01*
X65089402Y-64498506D01*
X65089396Y-64498501D01*
X64903842Y-64368575D01*
X64860217Y-64313998D01*
X64853023Y-64244500D01*
X64884546Y-64182145D01*
X64903842Y-64165425D01*
X65008719Y-64091989D01*
X65089401Y-64035495D01*
X65256495Y-63868401D01*
X65377648Y-63695377D01*
X65432225Y-63651752D01*
X65479223Y-63642500D01*
X67024548Y-63642500D01*
X67091587Y-63662185D01*
G37*
G04 #@! TD.AperFunction*
G04 #@! TA.AperFunction,Conductor*
G36*
X44886022Y-71962685D02*
G01*
X44931777Y-72015489D01*
X44941721Y-72084647D01*
X44935165Y-72110333D01*
X44894403Y-72219620D01*
X44894401Y-72219627D01*
X44888000Y-72279155D01*
X44888000Y-72927000D01*
X45804314Y-72927000D01*
X45778507Y-72967156D01*
X45738000Y-73105111D01*
X45738000Y-73248889D01*
X45778507Y-73386844D01*
X45804314Y-73427000D01*
X44888000Y-73427000D01*
X44888000Y-74074844D01*
X44894401Y-74134372D01*
X44894403Y-74134379D01*
X44944645Y-74269086D01*
X44944649Y-74269093D01*
X45030809Y-74384187D01*
X45030812Y-74384190D01*
X45145906Y-74470350D01*
X45145913Y-74470354D01*
X45280620Y-74520596D01*
X45280627Y-74520598D01*
X45340155Y-74526999D01*
X45340172Y-74527000D01*
X45988000Y-74527000D01*
X45988000Y-73612501D01*
X46095685Y-73661680D01*
X46202237Y-73677000D01*
X46273763Y-73677000D01*
X46380315Y-73661680D01*
X46488000Y-73612501D01*
X46488000Y-74527000D01*
X47135828Y-74527000D01*
X47135844Y-74526999D01*
X47195372Y-74520598D01*
X47195379Y-74520596D01*
X47330086Y-74470354D01*
X47330093Y-74470350D01*
X47445187Y-74384190D01*
X47445190Y-74384187D01*
X47531350Y-74269093D01*
X47531354Y-74269086D01*
X47581596Y-74134379D01*
X47581598Y-74134372D01*
X47587999Y-74074844D01*
X47588000Y-74074827D01*
X47588000Y-73427000D01*
X46671686Y-73427000D01*
X46697493Y-73386844D01*
X46738000Y-73248889D01*
X46738000Y-73105111D01*
X46697493Y-72967156D01*
X46671686Y-72927000D01*
X47588000Y-72927000D01*
X47588000Y-72279172D01*
X47587999Y-72279155D01*
X47581598Y-72219627D01*
X47581596Y-72219620D01*
X47540835Y-72110333D01*
X47535851Y-72040642D01*
X47569336Y-71979319D01*
X47630659Y-71945834D01*
X47657017Y-71943000D01*
X62791523Y-71943000D01*
X62858562Y-71962685D01*
X62904317Y-72015489D01*
X62914261Y-72084647D01*
X62907705Y-72110333D01*
X62874403Y-72199620D01*
X62874401Y-72199627D01*
X62868000Y-72259155D01*
X62868000Y-72907000D01*
X63784314Y-72907000D01*
X63758507Y-72947156D01*
X63718000Y-73085111D01*
X63718000Y-73228889D01*
X63758507Y-73366844D01*
X63784314Y-73407000D01*
X62868000Y-73407000D01*
X62868000Y-74054844D01*
X62874401Y-74114372D01*
X62874403Y-74114379D01*
X62924645Y-74249086D01*
X62924649Y-74249093D01*
X63010809Y-74364187D01*
X63010812Y-74364190D01*
X63125906Y-74450350D01*
X63125913Y-74450354D01*
X63260620Y-74500596D01*
X63260627Y-74500598D01*
X63320155Y-74506999D01*
X63320172Y-74507000D01*
X63968000Y-74507000D01*
X63968000Y-73592501D01*
X64075685Y-73641680D01*
X64182237Y-73657000D01*
X64253763Y-73657000D01*
X64360315Y-73641680D01*
X64468000Y-73592501D01*
X64468000Y-74507000D01*
X65115828Y-74507000D01*
X65115844Y-74506999D01*
X65175372Y-74500598D01*
X65175379Y-74500596D01*
X65310086Y-74450354D01*
X65310093Y-74450350D01*
X65425187Y-74364190D01*
X65425190Y-74364187D01*
X65511350Y-74249093D01*
X65511354Y-74249086D01*
X65561596Y-74114379D01*
X65561598Y-74114372D01*
X65567999Y-74054844D01*
X65568000Y-74054827D01*
X65568000Y-73407000D01*
X64651686Y-73407000D01*
X64677493Y-73366844D01*
X64718000Y-73228889D01*
X64718000Y-73085111D01*
X64677493Y-72947156D01*
X64651686Y-72907000D01*
X65568000Y-72907000D01*
X65568000Y-72259172D01*
X65567999Y-72259155D01*
X65561598Y-72199627D01*
X65561596Y-72199620D01*
X65528295Y-72110333D01*
X65523311Y-72040641D01*
X65556796Y-71979318D01*
X65618120Y-71945834D01*
X65644477Y-71943000D01*
X66530000Y-71943000D01*
X66597039Y-71962685D01*
X66642794Y-72015489D01*
X66654000Y-72067000D01*
X66654000Y-103823000D01*
X66634315Y-103890039D01*
X66581511Y-103935794D01*
X66530000Y-103947000D01*
X61216355Y-103947000D01*
X61149316Y-103927315D01*
X61103561Y-103874511D01*
X61093617Y-103805353D01*
X61122642Y-103741797D01*
X61177350Y-103705294D01*
X61269334Y-103674814D01*
X61418656Y-103582712D01*
X61542712Y-103458656D01*
X61634814Y-103309334D01*
X61689999Y-103142797D01*
X61700500Y-103040009D01*
X61700499Y-102139992D01*
X61689999Y-102037203D01*
X61634814Y-101870666D01*
X61542712Y-101721344D01*
X61418656Y-101597288D01*
X61269334Y-101505186D01*
X61102797Y-101450001D01*
X61102795Y-101450000D01*
X61061896Y-101445822D01*
X60997205Y-101419425D01*
X60957054Y-101362244D01*
X60950500Y-101322464D01*
X60950500Y-98634742D01*
X60952224Y-98619122D01*
X60951939Y-98619096D01*
X60952671Y-98611340D01*
X60952673Y-98611333D01*
X60950561Y-98544126D01*
X60950500Y-98540231D01*
X60950500Y-98512654D01*
X60950500Y-98512650D01*
X60949996Y-98508665D01*
X60949080Y-98497021D01*
X60947709Y-98453373D01*
X60942122Y-98434144D01*
X60938174Y-98415084D01*
X60935663Y-98395204D01*
X60919588Y-98354604D01*
X60915804Y-98343552D01*
X60903618Y-98301609D01*
X60903616Y-98301606D01*
X60893423Y-98284371D01*
X60884861Y-98266894D01*
X60877487Y-98248269D01*
X60851816Y-98212937D01*
X60845405Y-98203177D01*
X60823170Y-98165580D01*
X60823168Y-98165578D01*
X60823165Y-98165574D01*
X60809006Y-98151415D01*
X60796368Y-98136619D01*
X60784594Y-98120413D01*
X60750940Y-98092572D01*
X60742299Y-98084709D01*
X55779819Y-93122228D01*
X55746334Y-93060905D01*
X55743500Y-93034547D01*
X55743500Y-91443225D01*
X55763185Y-91376186D01*
X55796373Y-91341653D01*
X55989401Y-91206495D01*
X56156495Y-91039401D01*
X56266426Y-90882401D01*
X56321001Y-90838778D01*
X56390500Y-90831584D01*
X56452855Y-90863106D01*
X56469571Y-90882398D01*
X56496457Y-90920795D01*
X56579506Y-91039403D01*
X56746597Y-91206493D01*
X56746599Y-91206495D01*
X56789675Y-91236657D01*
X56940165Y-91342032D01*
X56940167Y-91342033D01*
X56940170Y-91342035D01*
X57154337Y-91441903D01*
X57154343Y-91441904D01*
X57154344Y-91441905D01*
X57195050Y-91452812D01*
X57382592Y-91503063D01*
X57559034Y-91518500D01*
X57617999Y-91523659D01*
X57618000Y-91523659D01*
X57618001Y-91523659D01*
X57676966Y-91518500D01*
X57853408Y-91503063D01*
X58081663Y-91441903D01*
X58295829Y-91342035D01*
X58489401Y-91206495D01*
X58636602Y-91059293D01*
X58697924Y-91025810D01*
X58767615Y-91030794D01*
X58823549Y-91072665D01*
X58829821Y-91081879D01*
X58833186Y-91087334D01*
X58925288Y-91236656D01*
X59049344Y-91360712D01*
X59198666Y-91452814D01*
X59365203Y-91507999D01*
X59467991Y-91518500D01*
X60768008Y-91518499D01*
X60870797Y-91507999D01*
X61037334Y-91452814D01*
X61186656Y-91360712D01*
X61310712Y-91236656D01*
X61402814Y-91087334D01*
X61457999Y-90920797D01*
X61468500Y-90818009D01*
X61468499Y-89267992D01*
X61467156Y-89254849D01*
X61457999Y-89165203D01*
X61457998Y-89165200D01*
X61418697Y-89046599D01*
X61402814Y-88998666D01*
X61310712Y-88849344D01*
X61186656Y-88725288D01*
X61055784Y-88644566D01*
X61037336Y-88633187D01*
X61037335Y-88633186D01*
X61037334Y-88633186D01*
X60885690Y-88582936D01*
X60868495Y-88577238D01*
X60811051Y-88537465D01*
X60784228Y-88472949D01*
X60783500Y-88459532D01*
X60783500Y-86529737D01*
X60785224Y-86514123D01*
X60784938Y-86514096D01*
X60785672Y-86506333D01*
X60783561Y-86439143D01*
X60783500Y-86435249D01*
X60783500Y-86407651D01*
X60783500Y-86407650D01*
X60782997Y-86403670D01*
X60782080Y-86392021D01*
X60780709Y-86348374D01*
X60780709Y-86348372D01*
X60775120Y-86329137D01*
X60771174Y-86310084D01*
X60768664Y-86290208D01*
X60752578Y-86249581D01*
X60748803Y-86238554D01*
X60736617Y-86196610D01*
X60726421Y-86179369D01*
X60717860Y-86161893D01*
X60710486Y-86143269D01*
X60710485Y-86143267D01*
X60684809Y-86107926D01*
X60678412Y-86098190D01*
X60656170Y-86060579D01*
X60656167Y-86060576D01*
X60656165Y-86060573D01*
X60642005Y-86046413D01*
X60629370Y-86031620D01*
X60617593Y-86015412D01*
X60583945Y-85987576D01*
X60575304Y-85979713D01*
X55779819Y-81184228D01*
X55746334Y-81122905D01*
X55743500Y-81096547D01*
X55743500Y-80777226D01*
X55763185Y-80710187D01*
X55796374Y-80675654D01*
X55989401Y-80540495D01*
X56156495Y-80373401D01*
X56286425Y-80187842D01*
X56341002Y-80144217D01*
X56410500Y-80137023D01*
X56472855Y-80168546D01*
X56489575Y-80187842D01*
X56619500Y-80373395D01*
X56619505Y-80373401D01*
X56786599Y-80540495D01*
X56883384Y-80608265D01*
X56980165Y-80676032D01*
X56980167Y-80676033D01*
X56980170Y-80676035D01*
X57194337Y-80775903D01*
X57194343Y-80775904D01*
X57194344Y-80775905D01*
X57249285Y-80790626D01*
X57422592Y-80837063D01*
X57593319Y-80852000D01*
X57657999Y-80857659D01*
X57658000Y-80857659D01*
X57658001Y-80857659D01*
X57722681Y-80852000D01*
X57893408Y-80837063D01*
X58121663Y-80775903D01*
X58335830Y-80676035D01*
X58529401Y-80540495D01*
X58651718Y-80418177D01*
X58713037Y-80384695D01*
X58782729Y-80389679D01*
X58838663Y-80431550D01*
X58855579Y-80462531D01*
X58863276Y-80483169D01*
X58863276Y-80483170D01*
X59714923Y-79631523D01*
X59738507Y-79711844D01*
X59816239Y-79832798D01*
X59924900Y-79926952D01*
X60055685Y-79986680D01*
X60065466Y-79988086D01*
X59216829Y-80836722D01*
X59240623Y-80845597D01*
X59240627Y-80845598D01*
X59300155Y-80851999D01*
X59300172Y-80852000D01*
X61095828Y-80852000D01*
X61095844Y-80851999D01*
X61155375Y-80845598D01*
X61179170Y-80836723D01*
X61179170Y-80836722D01*
X60330533Y-79988086D01*
X60340315Y-79986680D01*
X60471100Y-79926952D01*
X60579761Y-79832798D01*
X60657493Y-79711844D01*
X60681076Y-79631524D01*
X61532722Y-80483170D01*
X61532723Y-80483170D01*
X61541598Y-80459375D01*
X61547999Y-80399844D01*
X61548000Y-80399827D01*
X61548000Y-78604172D01*
X61547999Y-78604155D01*
X61541598Y-78544627D01*
X61541597Y-78544623D01*
X61532722Y-78520829D01*
X60681076Y-79372475D01*
X60657493Y-79292156D01*
X60579761Y-79171202D01*
X60471100Y-79077048D01*
X60340315Y-79017320D01*
X60330534Y-79015913D01*
X61179170Y-78167276D01*
X61155373Y-78158401D01*
X61095844Y-78152000D01*
X59300157Y-78152000D01*
X59240625Y-78158401D01*
X59240615Y-78158404D01*
X59216829Y-78167274D01*
X59216829Y-78167277D01*
X60065466Y-79015913D01*
X60055685Y-79017320D01*
X59924900Y-79077048D01*
X59816239Y-79171202D01*
X59738507Y-79292156D01*
X59714923Y-79372475D01*
X58863277Y-78520829D01*
X58863274Y-78520829D01*
X58855578Y-78541467D01*
X58813708Y-78597402D01*
X58748245Y-78621821D01*
X58679971Y-78606971D01*
X58651714Y-78585818D01*
X58529402Y-78463506D01*
X58529395Y-78463501D01*
X58335834Y-78327967D01*
X58335830Y-78327965D01*
X58332328Y-78326332D01*
X58121663Y-78228097D01*
X58121659Y-78228096D01*
X58121655Y-78228094D01*
X57893413Y-78166938D01*
X57893403Y-78166936D01*
X57658001Y-78146341D01*
X57657999Y-78146341D01*
X57422596Y-78166936D01*
X57422586Y-78166938D01*
X57194344Y-78228094D01*
X57194335Y-78228098D01*
X56980171Y-78327964D01*
X56980169Y-78327965D01*
X56786597Y-78463505D01*
X56619505Y-78630597D01*
X56489575Y-78816158D01*
X56434998Y-78859783D01*
X56365500Y-78866977D01*
X56303145Y-78835454D01*
X56286425Y-78816158D01*
X56156494Y-78630597D01*
X55989402Y-78463506D01*
X55989395Y-78463501D01*
X55795834Y-78327967D01*
X55795830Y-78327965D01*
X55792328Y-78326332D01*
X55581663Y-78228097D01*
X55581659Y-78228096D01*
X55581655Y-78228094D01*
X55353413Y-78166938D01*
X55353403Y-78166936D01*
X55118001Y-78146341D01*
X55117999Y-78146341D01*
X54882596Y-78166936D01*
X54882586Y-78166938D01*
X54654344Y-78228094D01*
X54654335Y-78228098D01*
X54440171Y-78327964D01*
X54440169Y-78327965D01*
X54246597Y-78463505D01*
X54079505Y-78630597D01*
X53949575Y-78816158D01*
X53894998Y-78859783D01*
X53825500Y-78866977D01*
X53763145Y-78835454D01*
X53746425Y-78816158D01*
X53616494Y-78630597D01*
X53449402Y-78463506D01*
X53449395Y-78463501D01*
X53255834Y-78327967D01*
X53255830Y-78327965D01*
X53252328Y-78326332D01*
X53041663Y-78228097D01*
X53041659Y-78228096D01*
X53041655Y-78228094D01*
X52813413Y-78166938D01*
X52813403Y-78166936D01*
X52578001Y-78146341D01*
X52577999Y-78146341D01*
X52342596Y-78166936D01*
X52342586Y-78166938D01*
X52114344Y-78228094D01*
X52114335Y-78228098D01*
X51900171Y-78327964D01*
X51900169Y-78327965D01*
X51706597Y-78463505D01*
X51539505Y-78630597D01*
X51409575Y-78816158D01*
X51354998Y-78859783D01*
X51285500Y-78866977D01*
X51223145Y-78835454D01*
X51206425Y-78816158D01*
X51076494Y-78630597D01*
X50909402Y-78463506D01*
X50909395Y-78463501D01*
X50715834Y-78327967D01*
X50715830Y-78327965D01*
X50712328Y-78326332D01*
X50501663Y-78228097D01*
X50501659Y-78228096D01*
X50501655Y-78228094D01*
X50273413Y-78166938D01*
X50273403Y-78166936D01*
X50038001Y-78146341D01*
X50037999Y-78146341D01*
X49802596Y-78166936D01*
X49802586Y-78166938D01*
X49574344Y-78228094D01*
X49574335Y-78228098D01*
X49360171Y-78327964D01*
X49360169Y-78327965D01*
X49166597Y-78463505D01*
X48999505Y-78630597D01*
X48863965Y-78824169D01*
X48863964Y-78824171D01*
X48764098Y-79038335D01*
X48764094Y-79038344D01*
X48702938Y-79266586D01*
X48702936Y-79266596D01*
X48682341Y-79501999D01*
X48682341Y-79502000D01*
X48702936Y-79737403D01*
X48702938Y-79737413D01*
X48764094Y-79965655D01*
X48764096Y-79965659D01*
X48764097Y-79965663D01*
X48844004Y-80137023D01*
X48863965Y-80179830D01*
X48863967Y-80179834D01*
X48972281Y-80334521D01*
X48999505Y-80373401D01*
X49166599Y-80540495D01*
X49263384Y-80608265D01*
X49360165Y-80676032D01*
X49360167Y-80676033D01*
X49360170Y-80676035D01*
X49574337Y-80775903D01*
X49574343Y-80775904D01*
X49574344Y-80775905D01*
X49629285Y-80790626D01*
X49802592Y-80837063D01*
X49973319Y-80852000D01*
X50037999Y-80857659D01*
X50038000Y-80857659D01*
X50038001Y-80857659D01*
X50102681Y-80852000D01*
X50273408Y-80837063D01*
X50501663Y-80775903D01*
X50715830Y-80676035D01*
X50909401Y-80540495D01*
X51076495Y-80373401D01*
X51206425Y-80187842D01*
X51261002Y-80144217D01*
X51330500Y-80137023D01*
X51392855Y-80168546D01*
X51409575Y-80187842D01*
X51539500Y-80373395D01*
X51539505Y-80373401D01*
X51706599Y-80540495D01*
X51899624Y-80675653D01*
X51943248Y-80730228D01*
X51952500Y-80777226D01*
X51952500Y-82340255D01*
X51950775Y-82355872D01*
X51951061Y-82355899D01*
X51950326Y-82363665D01*
X51952439Y-82430872D01*
X51952500Y-82434767D01*
X51952500Y-82462357D01*
X51953003Y-82466335D01*
X51953918Y-82477967D01*
X51955290Y-82521624D01*
X51955291Y-82521627D01*
X51960880Y-82540867D01*
X51964824Y-82559911D01*
X51967336Y-82579792D01*
X51983414Y-82620403D01*
X51987197Y-82631452D01*
X51999381Y-82673388D01*
X52009580Y-82690634D01*
X52018138Y-82708103D01*
X52025514Y-82726732D01*
X52051181Y-82762060D01*
X52057593Y-82771821D01*
X52079828Y-82809417D01*
X52079833Y-82809424D01*
X52093990Y-82823580D01*
X52106628Y-82838376D01*
X52118405Y-82854586D01*
X52118406Y-82854587D01*
X52152057Y-82882425D01*
X52160698Y-82890288D01*
X56956181Y-87685771D01*
X56989666Y-87747094D01*
X56992500Y-87773452D01*
X56992500Y-88642773D01*
X56972815Y-88709812D01*
X56939623Y-88744348D01*
X56746597Y-88879505D01*
X56579505Y-89046597D01*
X56469575Y-89203595D01*
X56414998Y-89247220D01*
X56345500Y-89254414D01*
X56283145Y-89222891D01*
X56266425Y-89203595D01*
X56156494Y-89046597D01*
X55989402Y-88879506D01*
X55989395Y-88879501D01*
X55795834Y-88743967D01*
X55795830Y-88743965D01*
X55743500Y-88719563D01*
X55581663Y-88644097D01*
X55581659Y-88644096D01*
X55581655Y-88644094D01*
X55353413Y-88582938D01*
X55353403Y-88582936D01*
X55118001Y-88562341D01*
X55117999Y-88562341D01*
X54882596Y-88582936D01*
X54882586Y-88582938D01*
X54654344Y-88644094D01*
X54654335Y-88644098D01*
X54440171Y-88743964D01*
X54440169Y-88743965D01*
X54246597Y-88879505D01*
X54079508Y-89046594D01*
X53969268Y-89204033D01*
X53914691Y-89247658D01*
X53845192Y-89254850D01*
X53798819Y-89231407D01*
X53784404Y-89230146D01*
X53080935Y-89933616D01*
X53054519Y-89843649D01*
X52980673Y-89728742D01*
X52877445Y-89639295D01*
X52753199Y-89582554D01*
X52728449Y-89578995D01*
X53452893Y-88854553D01*
X53295578Y-88744399D01*
X53081492Y-88644570D01*
X53081483Y-88644566D01*
X52853326Y-88583432D01*
X52853315Y-88583430D01*
X52618002Y-88562843D01*
X52617998Y-88562843D01*
X52382684Y-88583430D01*
X52382673Y-88583432D01*
X52154516Y-88644566D01*
X52154507Y-88644570D01*
X51940423Y-88744399D01*
X51940421Y-88744400D01*
X51783106Y-88854553D01*
X51783105Y-88854553D01*
X52507548Y-89578995D01*
X52482801Y-89582554D01*
X52358555Y-89639295D01*
X52255327Y-89728742D01*
X52181481Y-89843649D01*
X52155064Y-89933616D01*
X51451594Y-89230146D01*
X51435436Y-89231560D01*
X51415303Y-89247655D01*
X51345805Y-89254849D01*
X51283450Y-89223327D01*
X51266729Y-89204030D01*
X51156494Y-89046597D01*
X50989402Y-88879506D01*
X50989395Y-88879501D01*
X50795834Y-88743967D01*
X50795830Y-88743965D01*
X50743500Y-88719563D01*
X50581663Y-88644097D01*
X50581659Y-88644096D01*
X50581655Y-88644094D01*
X50353413Y-88582938D01*
X50353403Y-88582936D01*
X50118001Y-88562341D01*
X50117999Y-88562341D01*
X49882596Y-88582936D01*
X49882586Y-88582938D01*
X49654344Y-88644094D01*
X49654335Y-88644098D01*
X49440171Y-88743964D01*
X49440169Y-88743965D01*
X49246597Y-88879505D01*
X49079505Y-89046597D01*
X48943965Y-89240169D01*
X48943964Y-89240171D01*
X48844098Y-89454335D01*
X48844094Y-89454344D01*
X48782938Y-89682586D01*
X48782936Y-89682596D01*
X48767500Y-89859032D01*
X48767500Y-90226967D01*
X48782936Y-90403403D01*
X48782938Y-90403413D01*
X48844094Y-90631655D01*
X48844096Y-90631659D01*
X48844097Y-90631663D01*
X48868000Y-90682922D01*
X48943964Y-90845828D01*
X48943965Y-90845830D01*
X49079505Y-91039402D01*
X49246597Y-91206493D01*
X49246599Y-91206495D01*
X49439624Y-91341653D01*
X49483248Y-91396228D01*
X49492500Y-91443226D01*
X49492500Y-93034546D01*
X49472815Y-93101585D01*
X49456181Y-93122227D01*
X47596208Y-94982199D01*
X47583951Y-94992020D01*
X47584134Y-94992241D01*
X47578122Y-94997214D01*
X47532098Y-95046223D01*
X47529391Y-95049016D01*
X47509889Y-95068517D01*
X47509875Y-95068534D01*
X47507407Y-95071715D01*
X47499843Y-95080570D01*
X47469937Y-95112418D01*
X47469936Y-95112420D01*
X47460284Y-95129976D01*
X47449610Y-95146226D01*
X47437329Y-95162061D01*
X47437324Y-95162068D01*
X47419975Y-95202158D01*
X47414838Y-95212644D01*
X47393803Y-95250906D01*
X47388822Y-95270307D01*
X47382521Y-95288710D01*
X47374562Y-95307102D01*
X47374561Y-95307105D01*
X47367728Y-95350243D01*
X47365360Y-95361674D01*
X47354501Y-95403971D01*
X47354500Y-95403982D01*
X47354500Y-95424016D01*
X47352973Y-95443415D01*
X47349840Y-95463194D01*
X47349840Y-95463195D01*
X47353950Y-95506674D01*
X47354500Y-95518343D01*
X47354500Y-95597551D01*
X47334815Y-95664590D01*
X47282011Y-95710345D01*
X47269507Y-95715256D01*
X47260667Y-95718185D01*
X47111342Y-95810289D01*
X46987289Y-95934342D01*
X46895187Y-96083663D01*
X46895186Y-96083666D01*
X46840001Y-96250203D01*
X46840001Y-96250204D01*
X46840000Y-96250204D01*
X46829500Y-96352983D01*
X46829500Y-97703001D01*
X46829501Y-97703018D01*
X46840000Y-97805796D01*
X46840001Y-97805799D01*
X46842022Y-97811897D01*
X46895186Y-97972334D01*
X46987288Y-98121656D01*
X47111344Y-98245712D01*
X47260666Y-98337814D01*
X47269498Y-98340740D01*
X47326944Y-98380508D01*
X47353771Y-98445022D01*
X47354500Y-98458448D01*
X47354500Y-98518551D01*
X47334815Y-98585590D01*
X47282011Y-98631345D01*
X47269507Y-98636256D01*
X47260667Y-98639185D01*
X47111342Y-98731289D01*
X46987289Y-98855342D01*
X46895187Y-99004663D01*
X46895185Y-99004668D01*
X46891037Y-99017186D01*
X46840001Y-99171203D01*
X46840001Y-99171204D01*
X46840000Y-99171204D01*
X46829500Y-99273983D01*
X46829500Y-100624001D01*
X46829501Y-100624018D01*
X46840000Y-100726796D01*
X46840001Y-100726799D01*
X46879611Y-100846331D01*
X46895186Y-100893334D01*
X46987288Y-101042656D01*
X47111344Y-101166712D01*
X47260666Y-101258814D01*
X47427203Y-101313999D01*
X47529991Y-101324500D01*
X48430008Y-101324499D01*
X48430016Y-101324498D01*
X48430019Y-101324498D01*
X48486302Y-101318748D01*
X48532797Y-101313999D01*
X48699334Y-101258814D01*
X48848656Y-101166712D01*
X48972712Y-101042656D01*
X49064814Y-100893334D01*
X49119999Y-100726797D01*
X49130500Y-100624009D01*
X49130499Y-99273992D01*
X49128151Y-99251011D01*
X49119999Y-99171203D01*
X49119998Y-99171200D01*
X49064814Y-99004666D01*
X48972712Y-98855344D01*
X48848656Y-98731288D01*
X48699334Y-98639186D01*
X48699333Y-98639185D01*
X48699332Y-98639185D01*
X48690493Y-98636256D01*
X48633049Y-98596482D01*
X48606228Y-98531965D01*
X48605500Y-98518551D01*
X48605500Y-98458448D01*
X48625185Y-98391409D01*
X48677989Y-98345654D01*
X48690488Y-98340744D01*
X48699334Y-98337814D01*
X48848656Y-98245712D01*
X48972712Y-98121656D01*
X49064814Y-97972334D01*
X49119999Y-97805797D01*
X49130500Y-97703009D01*
X49130500Y-97702971D01*
X49930000Y-97702971D01*
X49930001Y-97702989D01*
X49940493Y-97805695D01*
X49942548Y-97811896D01*
X49942549Y-97811897D01*
X50726447Y-97028000D01*
X51433553Y-97028000D01*
X52217449Y-97811897D01*
X52219505Y-97805697D01*
X52219505Y-97805695D01*
X52229999Y-97702985D01*
X52229999Y-97451971D01*
X52829000Y-97451971D01*
X52829001Y-97451987D01*
X52839494Y-97554697D01*
X52894641Y-97721119D01*
X52894643Y-97721124D01*
X52986684Y-97870345D01*
X52990643Y-97874304D01*
X53875447Y-96989500D01*
X54582553Y-96989500D01*
X55467357Y-97874304D01*
X55471315Y-97870345D01*
X55563356Y-97721124D01*
X55563358Y-97721119D01*
X55618505Y-97554697D01*
X55618506Y-97554690D01*
X55628999Y-97451986D01*
X55628999Y-96527028D01*
X55628998Y-96527012D01*
X55618505Y-96424302D01*
X55563358Y-96257880D01*
X55563356Y-96257875D01*
X55471315Y-96108654D01*
X55467357Y-96104696D01*
X54582553Y-96989500D01*
X53875447Y-96989500D01*
X52990643Y-96104696D01*
X52986684Y-96108654D01*
X52894643Y-96257875D01*
X52894641Y-96257880D01*
X52839494Y-96424302D01*
X52839493Y-96424309D01*
X52829000Y-96527013D01*
X52829000Y-97451971D01*
X52229999Y-97451971D01*
X52229999Y-96353028D01*
X52229998Y-96353010D01*
X52219506Y-96250304D01*
X52217450Y-96244101D01*
X52217449Y-96244101D01*
X51433553Y-97027999D01*
X51433553Y-97028000D01*
X50726447Y-97028000D01*
X49942549Y-96244102D01*
X49940493Y-96250305D01*
X49930000Y-96353013D01*
X49930000Y-97702971D01*
X49130500Y-97702971D01*
X49130499Y-96352992D01*
X49119999Y-96250203D01*
X49064814Y-96083666D01*
X48972712Y-95934344D01*
X48848656Y-95810288D01*
X48848655Y-95810287D01*
X48846463Y-95808935D01*
X50214488Y-95808935D01*
X51080000Y-96674447D01*
X51080001Y-96674447D01*
X51917345Y-95837100D01*
X53430153Y-95837100D01*
X54229000Y-96635946D01*
X54229001Y-96635946D01*
X55027845Y-95837099D01*
X54928981Y-95827000D01*
X53529028Y-95827000D01*
X53529010Y-95827001D01*
X53430154Y-95837099D01*
X53430153Y-95837100D01*
X51917345Y-95837100D01*
X51945510Y-95808935D01*
X51799124Y-95718643D01*
X51799119Y-95718641D01*
X51632697Y-95663494D01*
X51632690Y-95663493D01*
X51529980Y-95653000D01*
X50630028Y-95653000D01*
X50630012Y-95653001D01*
X50527302Y-95663494D01*
X50360880Y-95718641D01*
X50360871Y-95718645D01*
X50214488Y-95808934D01*
X50214488Y-95808935D01*
X48846463Y-95808935D01*
X48817278Y-95790934D01*
X48789556Y-95773835D01*
X48742832Y-95721889D01*
X48731609Y-95652926D01*
X48759452Y-95588844D01*
X48766961Y-95580627D01*
X50501786Y-93845802D01*
X50514048Y-93835980D01*
X50513865Y-93835759D01*
X50519868Y-93830791D01*
X50519877Y-93830786D01*
X50565934Y-93781739D01*
X50568582Y-93779006D01*
X50588120Y-93759470D01*
X50590570Y-93756310D01*
X50598154Y-93747429D01*
X50628062Y-93715582D01*
X50637714Y-93698023D01*
X50648389Y-93681772D01*
X50660674Y-93665936D01*
X50678030Y-93625825D01*
X50683161Y-93615354D01*
X50684657Y-93612634D01*
X50704197Y-93577092D01*
X50709180Y-93557680D01*
X50715477Y-93539291D01*
X50723438Y-93520895D01*
X50730270Y-93477748D01*
X50732639Y-93466316D01*
X50743499Y-93424022D01*
X50743500Y-93424017D01*
X50743500Y-93403983D01*
X50745027Y-93384582D01*
X50745064Y-93384350D01*
X50748160Y-93364804D01*
X50744050Y-93321324D01*
X50743500Y-93309655D01*
X50743500Y-91443225D01*
X50763185Y-91376186D01*
X50796373Y-91341653D01*
X50989401Y-91206495D01*
X51156495Y-91039401D01*
X51266732Y-90881965D01*
X51321306Y-90838342D01*
X51390805Y-90831148D01*
X51437178Y-90854591D01*
X51451594Y-90855852D01*
X52155064Y-90152382D01*
X52181481Y-90242351D01*
X52255327Y-90357258D01*
X52358555Y-90446705D01*
X52482801Y-90503446D01*
X52507548Y-90507004D01*
X51783105Y-91231445D01*
X51940423Y-91341601D01*
X52154507Y-91441429D01*
X52154516Y-91441433D01*
X52382673Y-91502567D01*
X52382684Y-91502569D01*
X52617998Y-91523157D01*
X52618002Y-91523157D01*
X52853315Y-91502569D01*
X52853326Y-91502567D01*
X53081483Y-91441433D01*
X53081492Y-91441429D01*
X53295575Y-91341601D01*
X53452893Y-91231445D01*
X52728451Y-90507004D01*
X52753199Y-90503446D01*
X52877445Y-90446705D01*
X52980673Y-90357258D01*
X53054519Y-90242351D01*
X53080935Y-90152383D01*
X53784404Y-90855852D01*
X53800551Y-90854440D01*
X53820698Y-90838338D01*
X53890197Y-90831147D01*
X53952550Y-90862672D01*
X53969267Y-90881965D01*
X54079505Y-91039402D01*
X54246597Y-91206493D01*
X54246599Y-91206495D01*
X54439624Y-91341653D01*
X54483248Y-91396228D01*
X54492500Y-91443226D01*
X54492500Y-93262255D01*
X54490775Y-93277872D01*
X54491061Y-93277899D01*
X54490326Y-93285665D01*
X54492439Y-93352872D01*
X54492500Y-93356767D01*
X54492500Y-93384357D01*
X54493003Y-93388335D01*
X54493918Y-93399967D01*
X54495290Y-93443624D01*
X54495291Y-93443627D01*
X54500880Y-93462867D01*
X54504824Y-93481911D01*
X54507336Y-93501792D01*
X54523414Y-93542403D01*
X54527197Y-93553452D01*
X54539381Y-93595388D01*
X54549580Y-93612634D01*
X54558138Y-93630103D01*
X54565514Y-93648732D01*
X54591181Y-93684060D01*
X54597593Y-93693821D01*
X54619828Y-93731417D01*
X54619833Y-93731424D01*
X54633990Y-93745580D01*
X54646628Y-93760376D01*
X54658405Y-93776586D01*
X54658406Y-93776587D01*
X54692057Y-93804425D01*
X54700698Y-93812288D01*
X59663181Y-98774771D01*
X59696666Y-98836094D01*
X59699500Y-98862452D01*
X59699500Y-101322465D01*
X59679815Y-101389504D01*
X59627011Y-101435259D01*
X59588102Y-101445823D01*
X59547202Y-101450001D01*
X59547200Y-101450001D01*
X59380668Y-101505185D01*
X59380663Y-101505187D01*
X59231342Y-101597289D01*
X59107289Y-101721342D01*
X59015187Y-101870663D01*
X59015186Y-101870666D01*
X58960001Y-102037203D01*
X58960001Y-102037204D01*
X58960000Y-102037204D01*
X58949500Y-102139983D01*
X58949500Y-103040001D01*
X58949501Y-103040019D01*
X58960000Y-103142796D01*
X58960001Y-103142799D01*
X59015185Y-103309331D01*
X59015186Y-103309334D01*
X59107288Y-103458656D01*
X59231344Y-103582712D01*
X59380666Y-103674814D01*
X59472651Y-103705295D01*
X59530095Y-103745067D01*
X59556918Y-103809582D01*
X59544603Y-103878358D01*
X59497060Y-103929558D01*
X59433646Y-103947000D01*
X56658947Y-103947000D01*
X56068000Y-103356053D01*
X55477053Y-103947000D01*
X55034257Y-103947000D01*
X54967218Y-103927315D01*
X54921463Y-103874511D01*
X54911519Y-103805353D01*
X54917849Y-103782971D01*
X54917568Y-103782890D01*
X54965597Y-103617573D01*
X54965598Y-103617567D01*
X54968499Y-103580701D01*
X54968500Y-103580694D01*
X54968500Y-102556052D01*
X55268000Y-102556052D01*
X55268000Y-103448947D01*
X55714447Y-103002500D01*
X56421553Y-103002500D01*
X56867999Y-103448947D01*
X56868000Y-103448946D01*
X56868000Y-102556053D01*
X56867999Y-102556052D01*
X56421553Y-103002499D01*
X56421553Y-103002500D01*
X55714447Y-103002500D01*
X55714447Y-103002499D01*
X55268000Y-102556052D01*
X54968500Y-102556052D01*
X54968500Y-102424306D01*
X54965598Y-102387431D01*
X54919744Y-102229602D01*
X54906185Y-102206675D01*
X54871768Y-102148477D01*
X54854500Y-102085357D01*
X54854500Y-102034854D01*
X55453907Y-102034854D01*
X56068000Y-102648947D01*
X56682093Y-102034854D01*
X56619557Y-101972318D01*
X56619552Y-101972314D01*
X56478196Y-101888717D01*
X56478193Y-101888716D01*
X56320495Y-101842900D01*
X56320489Y-101842899D01*
X56283649Y-101840000D01*
X55852350Y-101840000D01*
X55815510Y-101842899D01*
X55815504Y-101842900D01*
X55657806Y-101888716D01*
X55657803Y-101888717D01*
X55516447Y-101972314D01*
X55516442Y-101972318D01*
X55453907Y-102034854D01*
X54854500Y-102034854D01*
X54854500Y-101397088D01*
X54874185Y-101330049D01*
X54926989Y-101284294D01*
X54965897Y-101273730D01*
X55031797Y-101266999D01*
X55198334Y-101211814D01*
X55347656Y-101119712D01*
X55471712Y-100995656D01*
X55563814Y-100846334D01*
X55618999Y-100679797D01*
X55629500Y-100577009D01*
X55629499Y-99651992D01*
X55618999Y-99549203D01*
X55563814Y-99382666D01*
X55471712Y-99233344D01*
X55347656Y-99109288D01*
X55198334Y-99017186D01*
X55031797Y-98962001D01*
X55031795Y-98962000D01*
X54929010Y-98951500D01*
X53528998Y-98951500D01*
X53528981Y-98951501D01*
X53426203Y-98962000D01*
X53426200Y-98962001D01*
X53259668Y-99017185D01*
X53259663Y-99017187D01*
X53110342Y-99109289D01*
X52986290Y-99233341D01*
X52986288Y-99233343D01*
X52986288Y-99233344D01*
X52967010Y-99264598D01*
X52915064Y-99311322D01*
X52861473Y-99323500D01*
X52347535Y-99323500D01*
X52280496Y-99303815D01*
X52234741Y-99251011D01*
X52224177Y-99212102D01*
X52223663Y-99207071D01*
X52219999Y-99171203D01*
X52164814Y-99004666D01*
X52072712Y-98855344D01*
X51948656Y-98731288D01*
X51799334Y-98639186D01*
X51699010Y-98605942D01*
X51641567Y-98566170D01*
X51614744Y-98501655D01*
X51627059Y-98432879D01*
X51674602Y-98381679D01*
X51699012Y-98370531D01*
X51799119Y-98337358D01*
X51799124Y-98337356D01*
X51945510Y-98247064D01*
X51945510Y-98247062D01*
X51840347Y-98141899D01*
X53430153Y-98141899D01*
X53529019Y-98151999D01*
X54928972Y-98151999D01*
X54928987Y-98151998D01*
X55027845Y-98141899D01*
X54229001Y-97343053D01*
X54229000Y-97343053D01*
X53430153Y-98141899D01*
X51840347Y-98141899D01*
X51080000Y-97381553D01*
X50214488Y-98247063D01*
X50360875Y-98337356D01*
X50360880Y-98337358D01*
X50460987Y-98370530D01*
X50518432Y-98410302D01*
X50545255Y-98474818D01*
X50532940Y-98543594D01*
X50485397Y-98594794D01*
X50460988Y-98605942D01*
X50360666Y-98639186D01*
X50360663Y-98639187D01*
X50211342Y-98731289D01*
X50087289Y-98855342D01*
X49995187Y-99004663D01*
X49995185Y-99004668D01*
X49991037Y-99017186D01*
X49940001Y-99171203D01*
X49940001Y-99171204D01*
X49940000Y-99171204D01*
X49929500Y-99273983D01*
X49929500Y-100624001D01*
X49929501Y-100624018D01*
X49940000Y-100726796D01*
X49940001Y-100726799D01*
X49979611Y-100846331D01*
X49995186Y-100893334D01*
X50087288Y-101042656D01*
X50211344Y-101166712D01*
X50360666Y-101258814D01*
X50527203Y-101313999D01*
X50629991Y-101324500D01*
X51530008Y-101324499D01*
X51530016Y-101324498D01*
X51530019Y-101324498D01*
X51586302Y-101318748D01*
X51632797Y-101313999D01*
X51799334Y-101258814D01*
X51948656Y-101166712D01*
X52072712Y-101042656D01*
X52164814Y-100893334D01*
X52219999Y-100726797D01*
X52224177Y-100685896D01*
X52250573Y-100621207D01*
X52307753Y-100581055D01*
X52347535Y-100574500D01*
X52716266Y-100574500D01*
X52783305Y-100594185D01*
X52829060Y-100646989D01*
X52836255Y-100673465D01*
X52837585Y-100673181D01*
X52839001Y-100679799D01*
X52894185Y-100846331D01*
X52894186Y-100846334D01*
X52986288Y-100995656D01*
X53110344Y-101119712D01*
X53259666Y-101211814D01*
X53426203Y-101266999D01*
X53492103Y-101273731D01*
X53556794Y-101300127D01*
X53596945Y-101357307D01*
X53603500Y-101397089D01*
X53603500Y-101933191D01*
X53583815Y-102000230D01*
X53567181Y-102020872D01*
X53499923Y-102088129D01*
X53499917Y-102088137D01*
X53416255Y-102229603D01*
X53416254Y-102229606D01*
X53370402Y-102387426D01*
X53370401Y-102387432D01*
X53367500Y-102424298D01*
X53367500Y-103580701D01*
X53370401Y-103617567D01*
X53370402Y-103617573D01*
X53418432Y-103782890D01*
X53416731Y-103783384D01*
X53424105Y-103843089D01*
X53393820Y-103906054D01*
X53334301Y-103942650D01*
X53301743Y-103947000D01*
X43918000Y-103947000D01*
X43850961Y-103927315D01*
X43805206Y-103874511D01*
X43794000Y-103823000D01*
X43794000Y-72067000D01*
X43813685Y-71999961D01*
X43866489Y-71954206D01*
X43918000Y-71943000D01*
X44818983Y-71943000D01*
X44886022Y-71962685D01*
G37*
G04 #@! TD.AperFunction*
G04 #@! TA.AperFunction,NonConductor*
G36*
X53932855Y-80168546D02*
G01*
X53949575Y-80187842D01*
X54079500Y-80373395D01*
X54079505Y-80373401D01*
X54246599Y-80540495D01*
X54439624Y-80675653D01*
X54483248Y-80730228D01*
X54492500Y-80777226D01*
X54492500Y-81324255D01*
X54490775Y-81339872D01*
X54491061Y-81339899D01*
X54490326Y-81347665D01*
X54492439Y-81414872D01*
X54492500Y-81418767D01*
X54492500Y-81446357D01*
X54493003Y-81450335D01*
X54493918Y-81461967D01*
X54495290Y-81505624D01*
X54495291Y-81505627D01*
X54500880Y-81524867D01*
X54504824Y-81543911D01*
X54507336Y-81563792D01*
X54523414Y-81604403D01*
X54527197Y-81615452D01*
X54539381Y-81657388D01*
X54549580Y-81674634D01*
X54558138Y-81692103D01*
X54565514Y-81710732D01*
X54591181Y-81746060D01*
X54597593Y-81755821D01*
X54619828Y-81793417D01*
X54619833Y-81793424D01*
X54633990Y-81807580D01*
X54646628Y-81822376D01*
X54658405Y-81838586D01*
X54658406Y-81838587D01*
X54692057Y-81866425D01*
X54700698Y-81874288D01*
X59496181Y-86669771D01*
X59529666Y-86731094D01*
X59532500Y-86757452D01*
X59532500Y-88448932D01*
X59512815Y-88515971D01*
X59460011Y-88561726D01*
X59421103Y-88572290D01*
X59365202Y-88578001D01*
X59365200Y-88578001D01*
X59198668Y-88633185D01*
X59198663Y-88633187D01*
X59049342Y-88725289D01*
X58925289Y-88849342D01*
X58829821Y-89004121D01*
X58777873Y-89050845D01*
X58708910Y-89062068D01*
X58644828Y-89034224D01*
X58636601Y-89026705D01*
X58489402Y-88879506D01*
X58489401Y-88879505D01*
X58356093Y-88786161D01*
X58296376Y-88744347D01*
X58252751Y-88689770D01*
X58243500Y-88642772D01*
X58243500Y-87545737D01*
X58245224Y-87530123D01*
X58244938Y-87530096D01*
X58245672Y-87522333D01*
X58243561Y-87455143D01*
X58243500Y-87451249D01*
X58243500Y-87423651D01*
X58243500Y-87423650D01*
X58242997Y-87419670D01*
X58242080Y-87408021D01*
X58240709Y-87364374D01*
X58240709Y-87364372D01*
X58235120Y-87345137D01*
X58231174Y-87326084D01*
X58228664Y-87306208D01*
X58212578Y-87265581D01*
X58208803Y-87254554D01*
X58196617Y-87212610D01*
X58186421Y-87195369D01*
X58177860Y-87177893D01*
X58170486Y-87159269D01*
X58170485Y-87159267D01*
X58144809Y-87123926D01*
X58138412Y-87114190D01*
X58116170Y-87076579D01*
X58116167Y-87076576D01*
X58116165Y-87076573D01*
X58102005Y-87062413D01*
X58089370Y-87047620D01*
X58077593Y-87031412D01*
X58043945Y-87003576D01*
X58035304Y-86995713D01*
X53239819Y-82200228D01*
X53206334Y-82138905D01*
X53203500Y-82112547D01*
X53203500Y-80777226D01*
X53223185Y-80710187D01*
X53256374Y-80675654D01*
X53449401Y-80540495D01*
X53616495Y-80373401D01*
X53746425Y-80187842D01*
X53801002Y-80144217D01*
X53870500Y-80137023D01*
X53932855Y-80168546D01*
G37*
G04 #@! TD.AperFunction*
M02*
