G04 #@! TF.GenerationSoftware,KiCad,Pcbnew,8.0.2*
G04 #@! TF.CreationDate,2024-06-22T22:10:03+02:00*
G04 #@! TF.ProjectId,Alarm_lights,416c6172-6d5f-46c6-9967-6874732e6b69,0.4.x*
G04 #@! TF.SameCoordinates,Original*
G04 #@! TF.FileFunction,Copper,L2,Bot*
G04 #@! TF.FilePolarity,Positive*
%FSLAX46Y46*%
G04 Gerber Fmt 4.6, Leading zero omitted, Abs format (unit mm)*
G04 Created by KiCad (PCBNEW 8.0.2) date 2024-06-22 22:10:03*
%MOMM*%
%LPD*%
G01*
G04 APERTURE LIST*
G04 Aperture macros list*
%AMRoundRect*
0 Rectangle with rounded corners*
0 $1 Rounding radius*
0 $2 $3 $4 $5 $6 $7 $8 $9 X,Y pos of 4 corners*
0 Add a 4 corners polygon primitive as box body*
4,1,4,$2,$3,$4,$5,$6,$7,$8,$9,$2,$3,0*
0 Add four circle primitives for the rounded corners*
1,1,$1+$1,$2,$3*
1,1,$1+$1,$4,$5*
1,1,$1+$1,$6,$7*
1,1,$1+$1,$8,$9*
0 Add four rect primitives between the rounded corners*
20,1,$1+$1,$2,$3,$4,$5,0*
20,1,$1+$1,$4,$5,$6,$7,0*
20,1,$1+$1,$6,$7,$8,$9,0*
20,1,$1+$1,$8,$9,$2,$3,0*%
G04 Aperture macros list end*
G04 #@! TA.AperFunction,SMDPad,CuDef*
%ADD10RoundRect,0.250000X-0.400000X-0.625000X0.400000X-0.625000X0.400000X0.625000X-0.400000X0.625000X0*%
G04 #@! TD*
G04 #@! TA.AperFunction,SMDPad,CuDef*
%ADD11RoundRect,0.150000X-0.875000X-0.150000X0.875000X-0.150000X0.875000X0.150000X-0.875000X0.150000X0*%
G04 #@! TD*
G04 #@! TA.AperFunction,ComponentPad*
%ADD12R,1.700000X1.700000*%
G04 #@! TD*
G04 #@! TA.AperFunction,ComponentPad*
%ADD13O,1.700000X1.700000*%
G04 #@! TD*
G04 #@! TA.AperFunction,SMDPad,CuDef*
%ADD14RoundRect,0.150000X-0.150000X0.512500X-0.150000X-0.512500X0.150000X-0.512500X0.150000X0.512500X0*%
G04 #@! TD*
G04 #@! TA.AperFunction,SMDPad,CuDef*
%ADD15RoundRect,0.250000X0.400000X0.625000X-0.400000X0.625000X-0.400000X-0.625000X0.400000X-0.625000X0*%
G04 #@! TD*
G04 #@! TA.AperFunction,SMDPad,CuDef*
%ADD16RoundRect,0.250000X0.625000X-0.400000X0.625000X0.400000X-0.625000X0.400000X-0.625000X-0.400000X0*%
G04 #@! TD*
G04 #@! TA.AperFunction,SMDPad,CuDef*
%ADD17RoundRect,0.250000X0.650000X-0.412500X0.650000X0.412500X-0.650000X0.412500X-0.650000X-0.412500X0*%
G04 #@! TD*
G04 #@! TA.AperFunction,ComponentPad*
%ADD18RoundRect,0.250000X0.600000X0.725000X-0.600000X0.725000X-0.600000X-0.725000X0.600000X-0.725000X0*%
G04 #@! TD*
G04 #@! TA.AperFunction,ComponentPad*
%ADD19O,1.700000X1.950000*%
G04 #@! TD*
G04 #@! TA.AperFunction,SMDPad,CuDef*
%ADD20RoundRect,0.250000X0.412500X0.650000X-0.412500X0.650000X-0.412500X-0.650000X0.412500X-0.650000X0*%
G04 #@! TD*
G04 #@! TA.AperFunction,ViaPad*
%ADD21C,0.800000*%
G04 #@! TD*
G04 #@! TA.AperFunction,Conductor*
%ADD22C,0.250000*%
G04 #@! TD*
G04 APERTURE END LIST*
D10*
X47980000Y-99949000D03*
X51080000Y-99949000D03*
D11*
X50498000Y-68859000D03*
X50498000Y-67589000D03*
X50498000Y-66319000D03*
X50498000Y-65049000D03*
X50498000Y-63779000D03*
X50498000Y-62509000D03*
X50498000Y-61239000D03*
X50498000Y-59969000D03*
X50498000Y-58699000D03*
X50498000Y-57429000D03*
X50498000Y-56159000D03*
X50498000Y-54889000D03*
X59798000Y-54889000D03*
X59798000Y-56159000D03*
X59798000Y-57429000D03*
X59798000Y-58699000D03*
X59798000Y-59969000D03*
X59798000Y-61239000D03*
X59798000Y-62509000D03*
X59798000Y-63779000D03*
X59798000Y-65049000D03*
X59798000Y-66319000D03*
X59798000Y-67589000D03*
X59798000Y-68859000D03*
D12*
X60198000Y-79502000D03*
D13*
X57658000Y-79502000D03*
X55118000Y-79502000D03*
X52578000Y-79502000D03*
X50038000Y-79502000D03*
D14*
X54168000Y-103002500D03*
X56068000Y-103002500D03*
X55118000Y-105277500D03*
D15*
X54636000Y-84074000D03*
X51536000Y-84074000D03*
D16*
X60329600Y-105080000D03*
X60329600Y-101980000D03*
D12*
X46238000Y-73177000D03*
D13*
X46238000Y-70637000D03*
X46238000Y-68097000D03*
X46238000Y-65557000D03*
X46238000Y-63017000D03*
X46238000Y-60477000D03*
X46238000Y-57937000D03*
X46238000Y-55397000D03*
X46238000Y-52857000D03*
X46238000Y-50317000D03*
D17*
X54229000Y-100114500D03*
X54229000Y-96989500D03*
D18*
X60118000Y-90043000D03*
D19*
X57618000Y-90043000D03*
X55118000Y-90043000D03*
X52618000Y-90043000D03*
X50118000Y-90043000D03*
D12*
X64218000Y-73157000D03*
D13*
X64218000Y-70617000D03*
X64218000Y-68077000D03*
X64218000Y-65537000D03*
X64218000Y-62997000D03*
X64218000Y-60457000D03*
X64218000Y-57917000D03*
X64218000Y-55377000D03*
X64218000Y-52837000D03*
X64218000Y-50297000D03*
D10*
X57378000Y-84074000D03*
X60478000Y-84074000D03*
D20*
X56680500Y-74295000D03*
X53555500Y-74295000D03*
D15*
X51080000Y-97028000D03*
X47980000Y-97028000D03*
D21*
X30480000Y-48006000D03*
X30480000Y-63119000D03*
X30480000Y-78232000D03*
X30480000Y-93345000D03*
X79756000Y-32893000D03*
X79756000Y-48006000D03*
X79756000Y-63119000D03*
X79756000Y-78232000D03*
X79756000Y-93345000D03*
X79756000Y-108458000D03*
X30480000Y-32893000D03*
X79756000Y-123571000D03*
X30480000Y-123571000D03*
X30480000Y-108458000D03*
X36957000Y-97790000D03*
X26924000Y-67564000D03*
X36957000Y-128016000D03*
X83312000Y-37338000D03*
X26924000Y-37338000D03*
X73279000Y-112903000D03*
X26924000Y-52451000D03*
X83312000Y-67564000D03*
X83312000Y-52451000D03*
X73279000Y-97790000D03*
X73279000Y-82677000D03*
X36957000Y-112903000D03*
X36957000Y-82677000D03*
X73279000Y-128016000D03*
D22*
X61244000Y-68859000D02*
X62169000Y-69784000D01*
X63002000Y-70617000D02*
X64218000Y-70617000D01*
X55118000Y-90043000D02*
X55118000Y-93345000D01*
X57658000Y-80137000D02*
X57658000Y-79502000D01*
X60478000Y-82957000D02*
X57658000Y-80137000D01*
X51536000Y-85445000D02*
X51536000Y-84074000D01*
X60478000Y-84074000D02*
X60478000Y-82957000D01*
X55118000Y-90043000D02*
X55118000Y-89027000D01*
X59798000Y-68859000D02*
X61244000Y-68859000D01*
X62169000Y-69784000D02*
X63002000Y-70617000D01*
X55118000Y-89027000D02*
X51536000Y-85445000D01*
X60325000Y-102590000D02*
X60325000Y-98552000D01*
X60325000Y-98552000D02*
X55118000Y-93345000D01*
X56367200Y-88899600D02*
X56367200Y-91185600D01*
X54864000Y-77216000D02*
X54864000Y-68643500D01*
X52578000Y-79502000D02*
X52578000Y-80899000D01*
X54636000Y-82957000D02*
X54636000Y-84074000D01*
X57618000Y-88479000D02*
X57618000Y-90043000D01*
X52578000Y-80899000D02*
X54636000Y-82957000D01*
X57188500Y-66319000D02*
X59798000Y-66319000D01*
X54636000Y-84074000D02*
X54636000Y-85497000D01*
X52578000Y-79502000D02*
X54864000Y-77216000D01*
X54636000Y-85497000D02*
X57618000Y-88479000D01*
X54864000Y-68643500D02*
X57188500Y-66319000D01*
X48318000Y-56573000D02*
X49174000Y-57429000D01*
X46238000Y-52857000D02*
X47523000Y-52857000D01*
X48318000Y-53652000D02*
X48318000Y-56573000D01*
X35331000Y-52857000D02*
X46238000Y-52857000D01*
X30480000Y-48006000D02*
X35331000Y-52857000D01*
X49174000Y-57429000D02*
X50443000Y-57429000D01*
X47523000Y-52857000D02*
X48318000Y-53652000D01*
X47868000Y-55742000D02*
X47868000Y-57393000D01*
X46238000Y-55397000D02*
X35281000Y-55397000D01*
X30480000Y-60198000D02*
X30480000Y-63119000D01*
X47868000Y-57393000D02*
X49174000Y-58699000D01*
X49174000Y-58699000D02*
X50443000Y-58699000D01*
X47523000Y-55397000D02*
X47868000Y-55742000D01*
X35281000Y-55397000D02*
X30480000Y-60198000D01*
X46238000Y-55397000D02*
X47523000Y-55397000D01*
X37821000Y-57937000D02*
X46238000Y-57937000D01*
X30480000Y-65278000D02*
X37821000Y-57937000D01*
X30480000Y-78232000D02*
X30480000Y-65278000D01*
X46238000Y-57937000D02*
X47142000Y-57937000D01*
X47142000Y-57937000D02*
X49174000Y-59969000D01*
X49174000Y-59969000D02*
X50443000Y-59969000D01*
X48387000Y-60452000D02*
X49174000Y-61239000D01*
X31496000Y-69342000D02*
X40361000Y-60477000D01*
X31496000Y-92329000D02*
X31496000Y-69342000D01*
X46263000Y-60452000D02*
X48387000Y-60452000D01*
X30480000Y-93345000D02*
X31496000Y-92329000D01*
X49174000Y-61239000D02*
X50443000Y-61239000D01*
X46238000Y-60477000D02*
X46263000Y-60452000D01*
X40361000Y-60477000D02*
X46238000Y-60477000D01*
X79756000Y-45466000D02*
X74905000Y-50317000D01*
X61282000Y-54869000D02*
X60013000Y-54869000D01*
X74905000Y-50317000D02*
X63998000Y-50317000D01*
X62138000Y-51092000D02*
X62138000Y-54013000D01*
X79756000Y-32893000D02*
X79756000Y-45466000D01*
X62933000Y-50297000D02*
X62138000Y-51092000D01*
X62138000Y-54013000D02*
X61282000Y-54869000D01*
X64218000Y-50297000D02*
X62933000Y-50297000D01*
X61282000Y-56139000D02*
X60013000Y-56139000D01*
X62588000Y-53182000D02*
X62588000Y-54833000D01*
X64218000Y-52837000D02*
X62933000Y-52837000D01*
X62933000Y-52837000D02*
X62588000Y-53182000D01*
X79756000Y-48006000D02*
X74905000Y-52857000D01*
X74905000Y-52857000D02*
X63998000Y-52857000D01*
X62588000Y-54833000D02*
X61282000Y-56139000D01*
X63314000Y-55377000D02*
X61282000Y-57409000D01*
X61282000Y-57409000D02*
X60013000Y-57409000D01*
X63998000Y-55397000D02*
X74955000Y-55397000D01*
X74955000Y-55397000D02*
X79756000Y-60198000D01*
X79756000Y-60198000D02*
X79756000Y-63119000D01*
X64218000Y-55377000D02*
X63314000Y-55377000D01*
X79756000Y-78232000D02*
X79756000Y-65278000D01*
X64218000Y-57917000D02*
X61844000Y-57917000D01*
X79756000Y-65278000D02*
X72415000Y-57937000D01*
X61062000Y-58699000D02*
X59793000Y-58699000D01*
X72415000Y-57937000D02*
X63998000Y-57937000D01*
X61844000Y-57917000D02*
X61062000Y-58699000D01*
X61252000Y-59924000D02*
X61785000Y-60457000D01*
X78740000Y-92329000D02*
X78740000Y-69342000D01*
X61785000Y-60457000D02*
X64218000Y-60457000D01*
X78740000Y-69342000D02*
X69875000Y-60477000D01*
X59988000Y-59924000D02*
X61252000Y-59924000D01*
X79756000Y-93345000D02*
X78740000Y-92329000D01*
X69875000Y-60477000D02*
X63998000Y-60477000D01*
X63110000Y-62997000D02*
X64218000Y-62997000D01*
X61307000Y-61194000D02*
X63110000Y-62997000D01*
X67335000Y-63017000D02*
X63998000Y-63017000D01*
X77724000Y-73406000D02*
X67335000Y-63017000D01*
X59988000Y-61194000D02*
X61307000Y-61194000D01*
X77724000Y-106426000D02*
X77724000Y-73406000D01*
X79756000Y-108458000D02*
X77724000Y-106426000D01*
X49174000Y-56159000D02*
X48768000Y-55753000D01*
X30480000Y-45466000D02*
X35331000Y-50317000D01*
X48768000Y-51562000D02*
X47523000Y-50317000D01*
X30480000Y-32893000D02*
X30480000Y-45466000D01*
X50498000Y-56159000D02*
X49174000Y-56159000D01*
X47523000Y-50317000D02*
X46238000Y-50317000D01*
X35331000Y-50317000D02*
X46238000Y-50317000D01*
X48768000Y-55753000D02*
X48768000Y-51562000D01*
X76708000Y-120523000D02*
X76708000Y-78267000D01*
X76708000Y-78267000D02*
X63998000Y-65557000D01*
X79756000Y-123571000D02*
X76708000Y-120523000D01*
X59793000Y-62509000D02*
X61190000Y-62509000D01*
X61190000Y-62509000D02*
X64218000Y-65537000D01*
X60118000Y-90043000D02*
X60118000Y-88185000D01*
X55372000Y-69723000D02*
X57506000Y-67589000D01*
X57378000Y-85445000D02*
X57378000Y-84074000D01*
X55118000Y-80645000D02*
X57378000Y-82905000D01*
X57506000Y-67589000D02*
X59798000Y-67589000D01*
X55118000Y-79502000D02*
X55372000Y-79248000D01*
X60118000Y-88185000D02*
X57378000Y-85445000D01*
X57378000Y-82905000D02*
X57378000Y-84074000D01*
X55118000Y-79502000D02*
X55118000Y-80645000D01*
X55372000Y-79248000D02*
X55372000Y-69723000D01*
X50468000Y-63754000D02*
X49149000Y-63754000D01*
X30480000Y-123571000D02*
X33528000Y-120523000D01*
X47346000Y-65557000D02*
X46238000Y-65557000D01*
X49149000Y-63754000D02*
X47346000Y-65557000D01*
X33528000Y-120523000D02*
X33528000Y-78267000D01*
X33528000Y-78267000D02*
X46238000Y-65557000D01*
X48671000Y-63017000D02*
X46238000Y-63017000D01*
X50468000Y-62484000D02*
X49204000Y-62484000D01*
X32512000Y-73406000D02*
X42901000Y-63017000D01*
X32512000Y-106426000D02*
X32512000Y-73406000D01*
X42901000Y-63017000D02*
X46238000Y-63017000D01*
X30480000Y-108458000D02*
X32512000Y-106426000D01*
X49204000Y-62484000D02*
X48671000Y-63017000D01*
X47980000Y-97028000D02*
X47980000Y-95483000D01*
X47980000Y-95483000D02*
X50118000Y-93345000D01*
X50118000Y-90043000D02*
X50118000Y-93345000D01*
X47980000Y-99949000D02*
X47980000Y-97028000D01*
X54229000Y-100114500D02*
X54229000Y-102941500D01*
X51080000Y-99949000D02*
X54063500Y-99949000D01*
X54229000Y-102941500D02*
X54168000Y-103002500D01*
X54063500Y-99949000D02*
X54229000Y-100114500D01*
G04 #@! TA.AperFunction,Conductor*
G36*
X84365394Y-24765972D02*
G01*
X84394918Y-24768555D01*
X84519977Y-24779496D01*
X84541257Y-24783248D01*
X84658947Y-24814782D01*
X84685897Y-24822004D01*
X84706209Y-24829397D01*
X84774063Y-24861038D01*
X84841920Y-24892680D01*
X84860636Y-24903486D01*
X84983295Y-24989372D01*
X84999853Y-25003266D01*
X85105733Y-25109146D01*
X85119627Y-25125704D01*
X85205513Y-25248363D01*
X85216320Y-25267081D01*
X85279602Y-25402790D01*
X85286995Y-25423102D01*
X85325750Y-25567739D01*
X85329503Y-25589024D01*
X85343028Y-25743605D01*
X85343500Y-25754413D01*
X85343500Y-129185586D01*
X85343028Y-129196394D01*
X85329503Y-129350975D01*
X85325750Y-129372260D01*
X85286995Y-129516897D01*
X85279602Y-129537209D01*
X85216320Y-129672918D01*
X85205513Y-129691636D01*
X85119627Y-129814295D01*
X85105733Y-129830853D01*
X84999853Y-129936733D01*
X84983295Y-129950627D01*
X84860636Y-130036513D01*
X84841918Y-130047320D01*
X84706209Y-130110602D01*
X84685897Y-130117995D01*
X84541260Y-130156750D01*
X84519975Y-130160503D01*
X84365395Y-130174028D01*
X84354587Y-130174500D01*
X25881413Y-130174500D01*
X25870605Y-130174028D01*
X25716024Y-130160503D01*
X25694739Y-130156750D01*
X25550102Y-130117995D01*
X25529790Y-130110602D01*
X25394081Y-130047320D01*
X25375363Y-130036513D01*
X25252704Y-129950627D01*
X25236146Y-129936733D01*
X25130266Y-129830853D01*
X25116372Y-129814295D01*
X25030486Y-129691636D01*
X25019679Y-129672918D01*
X24956397Y-129537209D01*
X24949004Y-129516897D01*
X24910249Y-129372260D01*
X24906496Y-129350974D01*
X24892972Y-129196393D01*
X24892500Y-129185586D01*
X24892500Y-123571000D01*
X29574540Y-123571000D01*
X29594326Y-123759256D01*
X29594327Y-123759259D01*
X29652818Y-123939277D01*
X29652821Y-123939284D01*
X29747467Y-124103216D01*
X29874129Y-124243888D01*
X30027265Y-124355148D01*
X30027270Y-124355151D01*
X30200192Y-124432142D01*
X30200197Y-124432144D01*
X30385354Y-124471500D01*
X30385355Y-124471500D01*
X30574644Y-124471500D01*
X30574646Y-124471500D01*
X30759803Y-124432144D01*
X30932730Y-124355151D01*
X31085871Y-124243888D01*
X31212533Y-124103216D01*
X31307179Y-123939284D01*
X31365674Y-123759256D01*
X31383321Y-123591344D01*
X31409904Y-123526734D01*
X31418951Y-123516638D01*
X33911788Y-121023801D01*
X33924042Y-121013986D01*
X33923859Y-121013764D01*
X33929868Y-121008791D01*
X33929877Y-121008786D01*
X33975949Y-120959722D01*
X33978566Y-120957023D01*
X33998120Y-120937471D01*
X34000576Y-120934303D01*
X34008156Y-120925427D01*
X34038062Y-120893582D01*
X34047715Y-120876020D01*
X34058389Y-120859770D01*
X34070673Y-120843936D01*
X34088019Y-120803850D01*
X34093157Y-120793362D01*
X34114196Y-120755093D01*
X34114197Y-120755092D01*
X34119177Y-120735691D01*
X34125478Y-120717288D01*
X34133438Y-120698896D01*
X34140272Y-120655741D01*
X34142635Y-120644331D01*
X34153500Y-120602019D01*
X34153500Y-120581983D01*
X34155027Y-120562582D01*
X34155064Y-120562350D01*
X34158160Y-120542804D01*
X34154050Y-120499324D01*
X34153500Y-120487655D01*
X34153500Y-105527500D01*
X54318000Y-105527500D01*
X54318000Y-105855649D01*
X54320899Y-105892489D01*
X54320900Y-105892495D01*
X54366716Y-106050193D01*
X54366717Y-106050196D01*
X54450314Y-106191552D01*
X54450321Y-106191561D01*
X54566438Y-106307678D01*
X54566447Y-106307685D01*
X54707801Y-106391281D01*
X54865514Y-106437100D01*
X54865511Y-106437100D01*
X54867998Y-106437295D01*
X54868000Y-106437295D01*
X54868000Y-105527500D01*
X55368000Y-105527500D01*
X55368000Y-106437295D01*
X55368001Y-106437295D01*
X55370486Y-106437100D01*
X55528198Y-106391281D01*
X55669552Y-106307685D01*
X55669561Y-106307678D01*
X55785678Y-106191561D01*
X55785685Y-106191552D01*
X55869282Y-106050196D01*
X55869283Y-106050193D01*
X55915099Y-105892495D01*
X55915100Y-105892489D01*
X55917999Y-105855649D01*
X55918000Y-105855634D01*
X55918000Y-105527500D01*
X55368000Y-105527500D01*
X54868000Y-105527500D01*
X54318000Y-105527500D01*
X34153500Y-105527500D01*
X34153500Y-105330000D01*
X58954601Y-105330000D01*
X58954601Y-105529986D01*
X58965094Y-105632697D01*
X59020241Y-105799119D01*
X59020243Y-105799124D01*
X59112284Y-105948345D01*
X59236254Y-106072315D01*
X59385475Y-106164356D01*
X59385480Y-106164358D01*
X59551902Y-106219505D01*
X59551909Y-106219506D01*
X59654619Y-106229999D01*
X60079599Y-106229999D01*
X60079600Y-106229998D01*
X60079600Y-105330000D01*
X60579600Y-105330000D01*
X60579600Y-106229999D01*
X61004572Y-106229999D01*
X61004586Y-106229998D01*
X61107297Y-106219505D01*
X61273719Y-106164358D01*
X61273724Y-106164356D01*
X61422945Y-106072315D01*
X61546915Y-105948345D01*
X61638956Y-105799124D01*
X61638958Y-105799119D01*
X61694105Y-105632697D01*
X61694106Y-105632690D01*
X61704599Y-105529986D01*
X61704600Y-105529973D01*
X61704600Y-105330000D01*
X60579600Y-105330000D01*
X60079600Y-105330000D01*
X58954601Y-105330000D01*
X34153500Y-105330000D01*
X34153500Y-78577452D01*
X34173185Y-78510413D01*
X34189819Y-78489771D01*
X44670660Y-68008930D01*
X44731983Y-67975445D01*
X44801675Y-67980429D01*
X44857608Y-68022301D01*
X44882025Y-68087765D01*
X44882341Y-68096611D01*
X44882341Y-68097000D01*
X44902936Y-68332403D01*
X44902938Y-68332413D01*
X44964094Y-68560655D01*
X44964096Y-68560659D01*
X44964097Y-68560663D01*
X45014948Y-68669712D01*
X45063965Y-68774830D01*
X45063967Y-68774834D01*
X45135663Y-68877225D01*
X45181993Y-68943392D01*
X45199501Y-68968395D01*
X45199506Y-68968402D01*
X45366597Y-69135493D01*
X45366603Y-69135498D01*
X45552158Y-69265425D01*
X45595783Y-69320002D01*
X45602977Y-69389500D01*
X45571454Y-69451855D01*
X45552158Y-69468575D01*
X45366597Y-69598505D01*
X45199505Y-69765597D01*
X45063965Y-69959169D01*
X45063964Y-69959171D01*
X44964098Y-70173335D01*
X44964094Y-70173344D01*
X44902938Y-70401586D01*
X44902936Y-70401596D01*
X44882341Y-70636999D01*
X44882341Y-70637000D01*
X44902936Y-70872403D01*
X44902938Y-70872413D01*
X44964094Y-71100655D01*
X44964096Y-71100659D01*
X44964097Y-71100663D01*
X44996300Y-71169722D01*
X45027012Y-71235584D01*
X45037504Y-71304662D01*
X45008984Y-71368446D01*
X44950508Y-71406685D01*
X44896985Y-71410727D01*
X44832805Y-71401500D01*
X44832802Y-71401500D01*
X43588000Y-71401500D01*
X43587991Y-71401500D01*
X43587990Y-71401501D01*
X43480549Y-71413052D01*
X43480537Y-71413054D01*
X43429027Y-71424260D01*
X43326502Y-71458383D01*
X43326496Y-71458386D01*
X43205462Y-71536171D01*
X43205451Y-71536179D01*
X43152659Y-71581923D01*
X43058433Y-71690664D01*
X43058430Y-71690668D01*
X42998664Y-71821534D01*
X42978976Y-71888582D01*
X42973949Y-71923549D01*
X42958500Y-72031000D01*
X42958500Y-73932500D01*
X42958500Y-100598260D01*
X42958500Y-103787000D01*
X42958501Y-103787009D01*
X42970052Y-103894450D01*
X42970054Y-103894462D01*
X42981260Y-103945972D01*
X43015383Y-104048497D01*
X43015386Y-104048503D01*
X43093171Y-104169537D01*
X43093179Y-104169548D01*
X43138923Y-104222340D01*
X43138926Y-104222343D01*
X43138930Y-104222347D01*
X43247664Y-104316567D01*
X43247667Y-104316568D01*
X43247668Y-104316569D01*
X43341925Y-104359616D01*
X43378541Y-104376338D01*
X43445580Y-104396023D01*
X43445584Y-104396024D01*
X43588000Y-104416500D01*
X43588003Y-104416500D01*
X53290501Y-104416500D01*
X53296388Y-104416293D01*
X53325835Y-104415263D01*
X53343131Y-104414051D01*
X53378302Y-104410347D01*
X53516470Y-104370206D01*
X53579003Y-104341864D01*
X53580058Y-104341397D01*
X53580113Y-104341362D01*
X53701374Y-104263920D01*
X53763057Y-104193143D01*
X53821942Y-104155538D01*
X53891134Y-104155538D01*
X53904102Y-104159306D01*
X53915427Y-104162597D01*
X53915428Y-104162597D01*
X53915431Y-104162598D01*
X53952306Y-104165500D01*
X53952314Y-104165500D01*
X54350742Y-104165500D01*
X54417781Y-104185185D01*
X54463536Y-104237989D01*
X54473480Y-104307147D01*
X54452814Y-104355857D01*
X54454288Y-104356729D01*
X54366717Y-104504803D01*
X54366716Y-104504806D01*
X54320900Y-104662504D01*
X54320899Y-104662510D01*
X54318000Y-104699350D01*
X54318000Y-105027500D01*
X55918000Y-105027500D01*
X55918000Y-104699365D01*
X55917999Y-104699350D01*
X55915100Y-104662510D01*
X55915099Y-104662504D01*
X55869283Y-104504806D01*
X55869282Y-104504803D01*
X55829382Y-104437335D01*
X55812199Y-104369611D01*
X55834359Y-104303349D01*
X55861804Y-104274947D01*
X55870495Y-104268442D01*
X55937119Y-104201817D01*
X55998440Y-104168334D01*
X56024799Y-104165500D01*
X56111201Y-104165500D01*
X56178240Y-104185185D01*
X56198882Y-104201819D01*
X56265505Y-104268442D01*
X56349653Y-104336254D01*
X56360915Y-104341397D01*
X56480527Y-104396023D01*
X56480530Y-104396023D01*
X56480531Y-104396024D01*
X56622947Y-104416500D01*
X56622950Y-104416500D01*
X58839100Y-104416500D01*
X58906139Y-104436185D01*
X58951894Y-104488989D01*
X58962458Y-104553103D01*
X58954600Y-104630013D01*
X58954600Y-104830000D01*
X61704599Y-104830000D01*
X61704599Y-104630028D01*
X61704598Y-104630013D01*
X61696741Y-104553102D01*
X61709510Y-104484409D01*
X61757391Y-104433525D01*
X61820099Y-104416500D01*
X66707990Y-104416500D01*
X66708000Y-104416500D01*
X66815456Y-104404947D01*
X66866967Y-104393741D01*
X66901197Y-104382347D01*
X66969497Y-104359616D01*
X66969501Y-104359613D01*
X66969504Y-104359613D01*
X67090543Y-104281825D01*
X67143347Y-104236070D01*
X67237567Y-104127336D01*
X67297338Y-103996459D01*
X67317023Y-103929420D01*
X67317024Y-103929416D01*
X67337500Y-103787000D01*
X67337500Y-72031000D01*
X67325947Y-71923544D01*
X67314741Y-71872033D01*
X67299586Y-71826500D01*
X67280616Y-71769502D01*
X67280613Y-71769496D01*
X67202828Y-71648462D01*
X67202825Y-71648457D01*
X67202820Y-71648451D01*
X67157076Y-71595659D01*
X67157072Y-71595656D01*
X67157070Y-71595653D01*
X67048336Y-71501433D01*
X67048333Y-71501431D01*
X67048331Y-71501430D01*
X66917465Y-71441664D01*
X66917460Y-71441662D01*
X66917459Y-71441662D01*
X66872766Y-71428538D01*
X66850417Y-71421976D01*
X66772176Y-71410727D01*
X66708000Y-71401500D01*
X65631050Y-71401500D01*
X65631048Y-71401500D01*
X65577024Y-71404396D01*
X65577017Y-71404396D01*
X65577008Y-71404397D01*
X65577002Y-71404397D01*
X65576970Y-71404400D01*
X65550644Y-71407231D01*
X65550245Y-71407285D01*
X65550203Y-71407278D01*
X65549001Y-71407408D01*
X65548966Y-71407089D01*
X65481180Y-71396709D01*
X65428797Y-71350473D01*
X65409726Y-71283257D01*
X65421338Y-71231989D01*
X65491903Y-71080663D01*
X65553063Y-70852408D01*
X65573659Y-70617000D01*
X65553063Y-70381592D01*
X65491903Y-70153337D01*
X65392035Y-69939171D01*
X65276074Y-69773560D01*
X65256494Y-69745597D01*
X65089402Y-69578506D01*
X65089396Y-69578501D01*
X64903842Y-69448575D01*
X64860217Y-69393998D01*
X64853023Y-69324500D01*
X64884546Y-69262145D01*
X64903842Y-69245425D01*
X64926026Y-69229891D01*
X65089401Y-69115495D01*
X65256495Y-68948401D01*
X65392035Y-68754830D01*
X65491903Y-68540663D01*
X65553063Y-68312408D01*
X65555289Y-68286961D01*
X65580741Y-68221893D01*
X65637332Y-68180915D01*
X65707094Y-68177036D01*
X65766498Y-68210088D01*
X76046181Y-78489771D01*
X76079666Y-78551094D01*
X76082500Y-78577452D01*
X76082500Y-120440255D01*
X76080775Y-120455872D01*
X76081061Y-120455899D01*
X76080326Y-120463665D01*
X76082439Y-120530872D01*
X76082500Y-120534767D01*
X76082500Y-120562357D01*
X76083003Y-120566335D01*
X76083918Y-120577967D01*
X76085290Y-120621624D01*
X76085291Y-120621627D01*
X76090880Y-120640867D01*
X76094824Y-120659911D01*
X76097336Y-120679792D01*
X76113414Y-120720403D01*
X76117197Y-120731452D01*
X76129381Y-120773388D01*
X76139580Y-120790634D01*
X76148138Y-120808103D01*
X76155514Y-120826732D01*
X76181181Y-120862060D01*
X76187593Y-120871821D01*
X76209828Y-120909417D01*
X76209833Y-120909424D01*
X76223990Y-120923580D01*
X76236628Y-120938376D01*
X76248405Y-120954586D01*
X76248406Y-120954587D01*
X76282057Y-120982425D01*
X76290698Y-120990288D01*
X78817038Y-123516629D01*
X78850523Y-123577952D01*
X78852678Y-123591348D01*
X78860968Y-123670227D01*
X78870326Y-123759256D01*
X78870327Y-123759259D01*
X78928818Y-123939277D01*
X78928821Y-123939284D01*
X79023467Y-124103216D01*
X79150129Y-124243888D01*
X79303265Y-124355148D01*
X79303270Y-124355151D01*
X79476192Y-124432142D01*
X79476197Y-124432144D01*
X79661354Y-124471500D01*
X79661355Y-124471500D01*
X79850644Y-124471500D01*
X79850646Y-124471500D01*
X80035803Y-124432144D01*
X80208730Y-124355151D01*
X80361871Y-124243888D01*
X80488533Y-124103216D01*
X80583179Y-123939284D01*
X80641674Y-123759256D01*
X80661460Y-123571000D01*
X80641674Y-123382744D01*
X80583179Y-123202716D01*
X80488533Y-123038784D01*
X80361871Y-122898112D01*
X80361870Y-122898111D01*
X80208734Y-122786851D01*
X80208729Y-122786848D01*
X80035807Y-122709857D01*
X80035802Y-122709855D01*
X79890001Y-122678865D01*
X79850646Y-122670500D01*
X79850645Y-122670500D01*
X79791452Y-122670500D01*
X79724413Y-122650815D01*
X79703771Y-122634181D01*
X77369819Y-120300228D01*
X77336334Y-120238905D01*
X77333500Y-120212547D01*
X77333500Y-107219452D01*
X77353185Y-107152413D01*
X77405989Y-107106658D01*
X77475147Y-107096714D01*
X77538703Y-107125739D01*
X77545181Y-107131771D01*
X78817038Y-108403629D01*
X78850523Y-108464952D01*
X78852678Y-108478348D01*
X78860968Y-108557227D01*
X78870326Y-108646256D01*
X78870327Y-108646259D01*
X78928818Y-108826277D01*
X78928821Y-108826284D01*
X79023467Y-108990216D01*
X79150129Y-109130888D01*
X79303265Y-109242148D01*
X79303270Y-109242151D01*
X79476192Y-109319142D01*
X79476197Y-109319144D01*
X79661354Y-109358500D01*
X79661355Y-109358500D01*
X79850644Y-109358500D01*
X79850646Y-109358500D01*
X80035803Y-109319144D01*
X80208730Y-109242151D01*
X80361871Y-109130888D01*
X80488533Y-108990216D01*
X80583179Y-108826284D01*
X80641674Y-108646256D01*
X80661460Y-108458000D01*
X80641674Y-108269744D01*
X80583179Y-108089716D01*
X80488533Y-107925784D01*
X80361871Y-107785112D01*
X80361870Y-107785111D01*
X80208734Y-107673851D01*
X80208729Y-107673848D01*
X80035807Y-107596857D01*
X80035802Y-107596855D01*
X79890001Y-107565865D01*
X79850646Y-107557500D01*
X79850645Y-107557500D01*
X79791452Y-107557500D01*
X79724413Y-107537815D01*
X79703771Y-107521181D01*
X78385819Y-106203228D01*
X78352334Y-106141905D01*
X78349500Y-106115547D01*
X78349500Y-93122452D01*
X78369185Y-93055413D01*
X78421989Y-93009658D01*
X78491147Y-92999714D01*
X78554703Y-93028739D01*
X78561174Y-93034765D01*
X78780304Y-93253895D01*
X78817038Y-93290629D01*
X78850523Y-93351952D01*
X78852678Y-93365348D01*
X78860968Y-93444227D01*
X78870326Y-93533256D01*
X78870327Y-93533259D01*
X78928818Y-93713277D01*
X78928821Y-93713284D01*
X79023467Y-93877216D01*
X79150129Y-94017888D01*
X79303265Y-94129148D01*
X79303270Y-94129151D01*
X79476192Y-94206142D01*
X79476197Y-94206144D01*
X79661354Y-94245500D01*
X79661355Y-94245500D01*
X79850644Y-94245500D01*
X79850646Y-94245500D01*
X80035803Y-94206144D01*
X80208730Y-94129151D01*
X80361871Y-94017888D01*
X80488533Y-93877216D01*
X80583179Y-93713284D01*
X80641674Y-93533256D01*
X80661460Y-93345000D01*
X80641674Y-93156744D01*
X80583179Y-92976716D01*
X80488533Y-92812784D01*
X80361871Y-92672112D01*
X80361870Y-92672111D01*
X80208734Y-92560851D01*
X80208729Y-92560848D01*
X80035807Y-92483857D01*
X80035802Y-92483855D01*
X79890001Y-92452865D01*
X79850646Y-92444500D01*
X79850645Y-92444500D01*
X79791452Y-92444500D01*
X79724413Y-92424815D01*
X79703771Y-92408181D01*
X79401819Y-92106228D01*
X79368334Y-92044905D01*
X79365500Y-92018547D01*
X79365500Y-79222741D01*
X79385185Y-79155702D01*
X79437989Y-79109947D01*
X79507147Y-79100003D01*
X79515266Y-79101448D01*
X79661354Y-79132500D01*
X79661355Y-79132500D01*
X79850644Y-79132500D01*
X79850646Y-79132500D01*
X80035803Y-79093144D01*
X80208730Y-79016151D01*
X80361871Y-78904888D01*
X80488533Y-78764216D01*
X80583179Y-78600284D01*
X80641674Y-78420256D01*
X80661460Y-78232000D01*
X80641674Y-78043744D01*
X80583179Y-77863716D01*
X80488533Y-77699784D01*
X80413350Y-77616284D01*
X80383120Y-77553292D01*
X80381500Y-77533312D01*
X80381500Y-65360742D01*
X80383224Y-65345122D01*
X80382939Y-65345095D01*
X80383673Y-65337333D01*
X80381561Y-65270112D01*
X80381500Y-65266218D01*
X80381500Y-65238656D01*
X80381500Y-65238650D01*
X80380996Y-65234668D01*
X80380081Y-65223029D01*
X80379955Y-65219016D01*
X80378710Y-65179373D01*
X80373119Y-65160130D01*
X80369173Y-65141078D01*
X80366664Y-65121208D01*
X80350579Y-65080583D01*
X80346806Y-65069562D01*
X80334618Y-65027610D01*
X80334617Y-65027609D01*
X80334617Y-65027607D01*
X80334616Y-65027606D01*
X80324423Y-65010371D01*
X80315861Y-64992894D01*
X80308487Y-64974269D01*
X80295989Y-64957068D01*
X80282811Y-64938930D01*
X80276405Y-64929177D01*
X80254170Y-64891580D01*
X80254168Y-64891578D01*
X80254165Y-64891574D01*
X80240006Y-64877415D01*
X80227368Y-64862619D01*
X80224863Y-64859171D01*
X80215594Y-64846413D01*
X80211027Y-64842635D01*
X80181940Y-64818572D01*
X80173299Y-64810709D01*
X79593772Y-64231181D01*
X79560287Y-64169858D01*
X79565271Y-64100166D01*
X79607143Y-64044233D01*
X79672607Y-64019816D01*
X79681453Y-64019500D01*
X79850644Y-64019500D01*
X79850646Y-64019500D01*
X80035803Y-63980144D01*
X80208730Y-63903151D01*
X80361871Y-63791888D01*
X80488533Y-63651216D01*
X80583179Y-63487284D01*
X80641674Y-63307256D01*
X80661460Y-63119000D01*
X80641674Y-62930744D01*
X80583179Y-62750716D01*
X80488533Y-62586784D01*
X80413350Y-62503284D01*
X80383120Y-62440292D01*
X80381500Y-62420312D01*
X80381500Y-60280737D01*
X80383224Y-60265123D01*
X80382938Y-60265096D01*
X80383672Y-60257333D01*
X80381561Y-60190144D01*
X80381500Y-60186250D01*
X80381500Y-60158651D01*
X80381500Y-60158650D01*
X80380997Y-60154670D01*
X80380080Y-60143021D01*
X80378709Y-60099373D01*
X80373121Y-60080139D01*
X80369174Y-60061081D01*
X80368999Y-60059696D01*
X80366664Y-60041208D01*
X80361870Y-60029099D01*
X80350583Y-60000592D01*
X80346799Y-59989539D01*
X80338872Y-59962257D01*
X80334617Y-59947610D01*
X80324420Y-59930368D01*
X80315863Y-59912902D01*
X80308486Y-59894268D01*
X80282809Y-59858926D01*
X80276412Y-59849190D01*
X80254170Y-59811579D01*
X80254167Y-59811576D01*
X80254165Y-59811573D01*
X80240005Y-59797413D01*
X80227370Y-59782620D01*
X80215593Y-59766412D01*
X80181945Y-59738576D01*
X80173304Y-59730713D01*
X75455803Y-55013212D01*
X75445980Y-55000950D01*
X75445759Y-55001134D01*
X75440786Y-54995122D01*
X75391776Y-54949099D01*
X75388977Y-54946386D01*
X75369477Y-54926885D01*
X75369471Y-54926880D01*
X75366286Y-54924409D01*
X75357434Y-54916848D01*
X75325582Y-54886938D01*
X75325580Y-54886936D01*
X75325577Y-54886935D01*
X75308029Y-54877288D01*
X75291763Y-54866604D01*
X75275932Y-54854324D01*
X75235849Y-54836978D01*
X75225363Y-54831841D01*
X75187094Y-54810803D01*
X75187092Y-54810802D01*
X75167693Y-54805822D01*
X75149281Y-54799518D01*
X75130898Y-54791562D01*
X75130892Y-54791560D01*
X75087760Y-54784729D01*
X75076322Y-54782361D01*
X75034020Y-54771500D01*
X75034019Y-54771500D01*
X75013984Y-54771500D01*
X74994586Y-54769973D01*
X74986434Y-54768682D01*
X74974805Y-54766840D01*
X74974804Y-54766840D01*
X74931325Y-54770950D01*
X74919656Y-54771500D01*
X65504759Y-54771500D01*
X65437720Y-54751815D01*
X65395469Y-54703441D01*
X65394743Y-54703861D01*
X65392612Y-54700171D01*
X65392374Y-54699898D01*
X65392035Y-54699171D01*
X65256495Y-54505599D01*
X65256494Y-54505597D01*
X65089402Y-54338506D01*
X65089396Y-54338501D01*
X64903842Y-54208575D01*
X64860217Y-54153998D01*
X64853023Y-54084500D01*
X64884546Y-54022145D01*
X64903842Y-54005425D01*
X64926026Y-53989891D01*
X65089401Y-53875495D01*
X65256495Y-53708401D01*
X65377648Y-53535377D01*
X65432225Y-53491752D01*
X65479223Y-53482500D01*
X74822257Y-53482500D01*
X74837877Y-53484224D01*
X74837904Y-53483939D01*
X74845660Y-53484671D01*
X74845667Y-53484673D01*
X74912873Y-53482561D01*
X74916768Y-53482500D01*
X74944346Y-53482500D01*
X74944350Y-53482500D01*
X74948324Y-53481997D01*
X74959963Y-53481080D01*
X75003627Y-53479709D01*
X75022869Y-53474117D01*
X75041912Y-53470174D01*
X75061792Y-53467664D01*
X75102401Y-53451585D01*
X75113444Y-53447803D01*
X75155390Y-53435618D01*
X75172629Y-53425422D01*
X75190103Y-53416862D01*
X75208727Y-53409488D01*
X75208727Y-53409487D01*
X75208732Y-53409486D01*
X75244083Y-53383800D01*
X75253814Y-53377408D01*
X75291420Y-53355170D01*
X75305589Y-53340999D01*
X75320379Y-53328368D01*
X75336587Y-53316594D01*
X75364438Y-53282926D01*
X75372279Y-53274309D01*
X79703772Y-48942819D01*
X79765095Y-48909334D01*
X79791453Y-48906500D01*
X79850644Y-48906500D01*
X79850646Y-48906500D01*
X80035803Y-48867144D01*
X80208730Y-48790151D01*
X80361871Y-48678888D01*
X80488533Y-48538216D01*
X80583179Y-48374284D01*
X80641674Y-48194256D01*
X80661460Y-48006000D01*
X80641674Y-47817744D01*
X80583179Y-47637716D01*
X80488533Y-47473784D01*
X80361871Y-47333112D01*
X80361870Y-47333111D01*
X80208734Y-47221851D01*
X80208729Y-47221848D01*
X80035807Y-47144857D01*
X80035802Y-47144855D01*
X79890001Y-47113865D01*
X79850646Y-47105500D01*
X79661354Y-47105500D01*
X79628897Y-47112398D01*
X79476197Y-47144855D01*
X79476192Y-47144857D01*
X79303270Y-47221848D01*
X79303265Y-47221851D01*
X79150129Y-47333111D01*
X79023466Y-47473785D01*
X78928821Y-47637715D01*
X78928818Y-47637722D01*
X78870327Y-47817740D01*
X78870326Y-47817744D01*
X78862405Y-47893105D01*
X78852678Y-47985651D01*
X78826093Y-48050266D01*
X78817038Y-48060370D01*
X74682228Y-52195181D01*
X74620905Y-52228666D01*
X74594547Y-52231500D01*
X65504759Y-52231500D01*
X65437720Y-52211815D01*
X65395469Y-52163441D01*
X65394743Y-52163861D01*
X65392612Y-52160171D01*
X65392374Y-52159898D01*
X65392035Y-52159171D01*
X65256495Y-51965599D01*
X65256494Y-51965597D01*
X65089402Y-51798506D01*
X65089396Y-51798501D01*
X64903842Y-51668575D01*
X64860217Y-51613998D01*
X64853023Y-51544500D01*
X64884546Y-51482145D01*
X64903842Y-51465425D01*
X64961455Y-51425084D01*
X65089401Y-51335495D01*
X65256495Y-51168401D01*
X65377648Y-50995377D01*
X65432225Y-50951752D01*
X65479223Y-50942500D01*
X74822257Y-50942500D01*
X74837877Y-50944224D01*
X74837904Y-50943939D01*
X74845660Y-50944671D01*
X74845667Y-50944673D01*
X74912873Y-50942561D01*
X74916768Y-50942500D01*
X74944346Y-50942500D01*
X74944350Y-50942500D01*
X74948324Y-50941997D01*
X74959963Y-50941080D01*
X75003627Y-50939709D01*
X75022869Y-50934117D01*
X75041912Y-50930174D01*
X75061792Y-50927664D01*
X75102401Y-50911585D01*
X75113444Y-50907803D01*
X75155390Y-50895618D01*
X75172629Y-50885422D01*
X75190103Y-50876862D01*
X75208727Y-50869488D01*
X75208727Y-50869487D01*
X75208732Y-50869486D01*
X75244083Y-50843800D01*
X75253814Y-50837408D01*
X75291420Y-50815170D01*
X75305589Y-50800999D01*
X75320379Y-50788368D01*
X75336587Y-50776594D01*
X75364438Y-50742926D01*
X75372279Y-50734309D01*
X80139788Y-45966801D01*
X80152042Y-45956986D01*
X80151859Y-45956764D01*
X80157868Y-45951791D01*
X80157877Y-45951786D01*
X80203949Y-45902722D01*
X80206566Y-45900023D01*
X80226120Y-45880471D01*
X80228576Y-45877303D01*
X80236156Y-45868427D01*
X80266062Y-45836582D01*
X80275715Y-45819020D01*
X80286389Y-45802770D01*
X80298673Y-45786936D01*
X80316019Y-45746850D01*
X80321157Y-45736362D01*
X80342196Y-45698093D01*
X80342197Y-45698092D01*
X80347177Y-45678691D01*
X80353478Y-45660288D01*
X80361438Y-45641896D01*
X80368272Y-45598741D01*
X80370635Y-45587331D01*
X80381500Y-45545019D01*
X80381500Y-45524983D01*
X80383027Y-45505582D01*
X80383064Y-45505350D01*
X80386160Y-45485804D01*
X80382050Y-45442324D01*
X80381500Y-45430655D01*
X80381500Y-33591687D01*
X80401185Y-33524648D01*
X80413350Y-33508715D01*
X80431891Y-33488122D01*
X80488533Y-33425216D01*
X80583179Y-33261284D01*
X80641674Y-33081256D01*
X80661460Y-32893000D01*
X80641674Y-32704744D01*
X80583179Y-32524716D01*
X80488533Y-32360784D01*
X80361871Y-32220112D01*
X80361870Y-32220111D01*
X80208734Y-32108851D01*
X80208729Y-32108848D01*
X80035807Y-32031857D01*
X80035802Y-32031855D01*
X79890001Y-32000865D01*
X79850646Y-31992500D01*
X79661354Y-31992500D01*
X79628897Y-31999398D01*
X79476197Y-32031855D01*
X79476192Y-32031857D01*
X79303270Y-32108848D01*
X79303265Y-32108851D01*
X79150129Y-32220111D01*
X79023466Y-32360785D01*
X78928821Y-32524715D01*
X78928818Y-32524722D01*
X78870327Y-32704740D01*
X78870326Y-32704744D01*
X78850540Y-32893000D01*
X78870326Y-33081256D01*
X78870327Y-33081259D01*
X78928818Y-33261277D01*
X78928821Y-33261284D01*
X79023467Y-33425216D01*
X79066772Y-33473310D01*
X79098650Y-33508715D01*
X79128880Y-33571706D01*
X79130500Y-33591687D01*
X79130500Y-45155547D01*
X79110815Y-45222586D01*
X79094181Y-45243228D01*
X74682228Y-49655181D01*
X74620905Y-49688666D01*
X74594547Y-49691500D01*
X65504759Y-49691500D01*
X65437720Y-49671815D01*
X65395469Y-49623441D01*
X65394743Y-49623861D01*
X65392612Y-49620171D01*
X65392374Y-49619898D01*
X65392035Y-49619171D01*
X65256495Y-49425599D01*
X65256494Y-49425597D01*
X65089402Y-49258506D01*
X65089395Y-49258501D01*
X64895834Y-49122967D01*
X64895830Y-49122965D01*
X64895828Y-49122964D01*
X64681663Y-49023097D01*
X64681659Y-49023096D01*
X64681655Y-49023094D01*
X64453413Y-48961938D01*
X64453403Y-48961936D01*
X64218001Y-48941341D01*
X64217999Y-48941341D01*
X63982596Y-48961936D01*
X63982586Y-48961938D01*
X63754344Y-49023094D01*
X63754335Y-49023098D01*
X63540171Y-49122964D01*
X63540169Y-49122965D01*
X63346597Y-49258505D01*
X63179505Y-49425597D01*
X63044833Y-49617930D01*
X62990256Y-49661555D01*
X62947157Y-49670746D01*
X62928459Y-49671334D01*
X62925123Y-49671439D01*
X62921232Y-49671500D01*
X62893647Y-49671500D01*
X62889661Y-49672003D01*
X62878033Y-49672918D01*
X62834373Y-49674290D01*
X62815129Y-49679881D01*
X62796079Y-49683825D01*
X62776211Y-49686334D01*
X62776210Y-49686334D01*
X62735599Y-49702413D01*
X62724554Y-49706194D01*
X62682614Y-49718379D01*
X62682610Y-49718381D01*
X62665366Y-49728579D01*
X62647905Y-49737133D01*
X62629274Y-49744510D01*
X62629262Y-49744517D01*
X62593933Y-49770185D01*
X62584173Y-49776596D01*
X62546580Y-49798829D01*
X62532414Y-49812995D01*
X62517624Y-49825627D01*
X62501414Y-49837404D01*
X62501411Y-49837407D01*
X62473573Y-49871058D01*
X62465711Y-49879697D01*
X61754208Y-50591199D01*
X61741951Y-50601020D01*
X61742134Y-50601241D01*
X61736122Y-50606214D01*
X61690098Y-50655223D01*
X61687391Y-50658016D01*
X61667889Y-50677517D01*
X61667875Y-50677534D01*
X61665407Y-50680715D01*
X61657843Y-50689570D01*
X61627937Y-50721418D01*
X61627936Y-50721420D01*
X61618284Y-50738976D01*
X61607610Y-50755226D01*
X61595329Y-50771061D01*
X61595324Y-50771068D01*
X61577975Y-50811158D01*
X61572838Y-50821644D01*
X61551803Y-50859906D01*
X61546822Y-50879307D01*
X61540521Y-50897710D01*
X61532562Y-50916102D01*
X61532561Y-50916105D01*
X61525728Y-50959243D01*
X61523360Y-50970674D01*
X61512501Y-51012971D01*
X61512500Y-51012982D01*
X61512500Y-51033016D01*
X61510973Y-51052415D01*
X61507840Y-51072194D01*
X61507840Y-51072195D01*
X61511950Y-51115674D01*
X61512500Y-51127343D01*
X61512500Y-52994041D01*
X61492815Y-53061080D01*
X61440011Y-53106835D01*
X61370854Y-53116779D01*
X61348048Y-53113500D01*
X61348047Y-53113500D01*
X49517500Y-53113500D01*
X49450461Y-53093815D01*
X49404706Y-53041011D01*
X49393500Y-52989500D01*
X49393500Y-51644742D01*
X49395224Y-51629122D01*
X49394939Y-51629096D01*
X49395671Y-51621340D01*
X49395673Y-51621333D01*
X49393561Y-51554126D01*
X49393500Y-51550231D01*
X49393500Y-51522654D01*
X49393500Y-51522650D01*
X49392996Y-51518665D01*
X49392080Y-51507021D01*
X49391578Y-51491035D01*
X49390709Y-51463373D01*
X49385122Y-51444144D01*
X49381174Y-51425084D01*
X49378663Y-51405204D01*
X49362588Y-51364604D01*
X49358804Y-51353552D01*
X49346618Y-51311609D01*
X49346616Y-51311606D01*
X49336423Y-51294371D01*
X49327861Y-51276894D01*
X49320487Y-51258269D01*
X49294816Y-51222937D01*
X49288405Y-51213177D01*
X49266170Y-51175580D01*
X49266168Y-51175578D01*
X49266165Y-51175574D01*
X49252006Y-51161415D01*
X49239368Y-51146619D01*
X49231411Y-51135667D01*
X49227594Y-51130413D01*
X49216810Y-51121492D01*
X49193940Y-51102572D01*
X49185299Y-51094709D01*
X48023803Y-49933212D01*
X48013980Y-49920950D01*
X48013759Y-49921134D01*
X48008786Y-49915122D01*
X47959776Y-49869099D01*
X47956977Y-49866386D01*
X47937477Y-49846885D01*
X47937471Y-49846880D01*
X47934286Y-49844409D01*
X47925434Y-49836848D01*
X47893582Y-49806938D01*
X47893580Y-49806936D01*
X47893577Y-49806935D01*
X47876029Y-49797288D01*
X47859763Y-49786604D01*
X47843932Y-49774324D01*
X47803849Y-49756978D01*
X47793363Y-49751841D01*
X47755094Y-49730803D01*
X47755092Y-49730802D01*
X47735693Y-49725822D01*
X47717281Y-49719518D01*
X47698898Y-49711562D01*
X47698892Y-49711560D01*
X47655760Y-49704729D01*
X47644322Y-49702361D01*
X47602020Y-49691500D01*
X47602019Y-49691500D01*
X47581984Y-49691500D01*
X47562586Y-49689973D01*
X47554333Y-49688666D01*
X47542805Y-49686840D01*
X47542799Y-49686839D01*
X47523304Y-49688682D01*
X47454710Y-49675391D01*
X47410064Y-49636355D01*
X47276494Y-49445597D01*
X47109402Y-49278506D01*
X47109395Y-49278501D01*
X46915834Y-49142967D01*
X46915830Y-49142965D01*
X46872938Y-49122964D01*
X46701663Y-49043097D01*
X46701659Y-49043096D01*
X46701655Y-49043094D01*
X46473413Y-48981938D01*
X46473403Y-48981936D01*
X46238001Y-48961341D01*
X46237999Y-48961341D01*
X46002596Y-48981936D01*
X46002586Y-48981938D01*
X45774344Y-49043094D01*
X45774335Y-49043098D01*
X45560171Y-49142964D01*
X45560169Y-49142965D01*
X45366597Y-49278505D01*
X45199505Y-49445597D01*
X45064348Y-49638623D01*
X45009771Y-49682248D01*
X44962773Y-49691500D01*
X35641452Y-49691500D01*
X35574413Y-49671815D01*
X35553771Y-49655181D01*
X31141819Y-45243228D01*
X31108334Y-45181905D01*
X31105500Y-45155547D01*
X31105500Y-33591687D01*
X31125185Y-33524648D01*
X31137350Y-33508715D01*
X31155891Y-33488122D01*
X31212533Y-33425216D01*
X31307179Y-33261284D01*
X31365674Y-33081256D01*
X31385460Y-32893000D01*
X31365674Y-32704744D01*
X31307179Y-32524716D01*
X31212533Y-32360784D01*
X31085871Y-32220112D01*
X31085870Y-32220111D01*
X30932734Y-32108851D01*
X30932729Y-32108848D01*
X30759807Y-32031857D01*
X30759802Y-32031855D01*
X30614001Y-32000865D01*
X30574646Y-31992500D01*
X30385354Y-31992500D01*
X30352897Y-31999398D01*
X30200197Y-32031855D01*
X30200192Y-32031857D01*
X30027270Y-32108848D01*
X30027265Y-32108851D01*
X29874129Y-32220111D01*
X29747466Y-32360785D01*
X29652821Y-32524715D01*
X29652818Y-32524722D01*
X29594327Y-32704740D01*
X29594326Y-32704744D01*
X29574540Y-32893000D01*
X29594326Y-33081256D01*
X29594327Y-33081259D01*
X29652818Y-33261277D01*
X29652821Y-33261284D01*
X29747467Y-33425216D01*
X29790772Y-33473310D01*
X29822650Y-33508715D01*
X29852880Y-33571706D01*
X29854500Y-33591687D01*
X29854500Y-45383255D01*
X29852775Y-45398872D01*
X29853061Y-45398899D01*
X29852326Y-45406665D01*
X29854439Y-45473872D01*
X29854500Y-45477767D01*
X29854500Y-45505357D01*
X29855003Y-45509335D01*
X29855918Y-45520967D01*
X29857290Y-45564624D01*
X29857291Y-45564627D01*
X29862880Y-45583867D01*
X29866824Y-45602911D01*
X29869336Y-45622792D01*
X29885414Y-45663403D01*
X29889197Y-45674452D01*
X29901381Y-45716388D01*
X29911580Y-45733634D01*
X29920138Y-45751103D01*
X29927514Y-45769732D01*
X29953181Y-45805060D01*
X29959593Y-45814821D01*
X29981828Y-45852417D01*
X29981833Y-45852424D01*
X29995990Y-45866580D01*
X30008628Y-45881376D01*
X30020405Y-45897586D01*
X30020406Y-45897587D01*
X30054057Y-45925425D01*
X30062698Y-45933288D01*
X34830197Y-50700788D01*
X34840022Y-50713051D01*
X34840243Y-50712869D01*
X34845211Y-50718874D01*
X34894222Y-50764899D01*
X34897021Y-50767612D01*
X34916522Y-50787114D01*
X34916526Y-50787117D01*
X34916529Y-50787120D01*
X34919702Y-50789581D01*
X34928574Y-50797159D01*
X34960418Y-50827062D01*
X34977976Y-50836714D01*
X34994233Y-50847393D01*
X35010064Y-50859673D01*
X35039803Y-50872542D01*
X35050152Y-50877021D01*
X35060641Y-50882160D01*
X35072645Y-50888759D01*
X35098908Y-50903197D01*
X35111523Y-50906435D01*
X35118305Y-50908177D01*
X35136719Y-50914481D01*
X35155104Y-50922438D01*
X35198261Y-50929273D01*
X35209656Y-50931632D01*
X35251981Y-50942500D01*
X35272016Y-50942500D01*
X35291413Y-50944026D01*
X35311196Y-50947160D01*
X35354675Y-50943050D01*
X35366344Y-50942500D01*
X44962773Y-50942500D01*
X45029812Y-50962185D01*
X45064348Y-50995377D01*
X45199501Y-51188396D01*
X45199506Y-51188402D01*
X45366597Y-51355493D01*
X45366603Y-51355498D01*
X45552158Y-51485425D01*
X45595783Y-51540002D01*
X45602977Y-51609500D01*
X45571454Y-51671855D01*
X45552158Y-51688575D01*
X45366597Y-51818505D01*
X45199505Y-51985597D01*
X45064348Y-52178623D01*
X45009771Y-52222248D01*
X44962773Y-52231500D01*
X35641452Y-52231500D01*
X35574413Y-52211815D01*
X35553771Y-52195181D01*
X31418960Y-48060369D01*
X31385475Y-47999046D01*
X31383323Y-47985668D01*
X31365674Y-47817744D01*
X31307179Y-47637716D01*
X31212533Y-47473784D01*
X31085871Y-47333112D01*
X31085870Y-47333111D01*
X30932734Y-47221851D01*
X30932729Y-47221848D01*
X30759807Y-47144857D01*
X30759802Y-47144855D01*
X30614001Y-47113865D01*
X30574646Y-47105500D01*
X30385354Y-47105500D01*
X30352897Y-47112398D01*
X30200197Y-47144855D01*
X30200192Y-47144857D01*
X30027270Y-47221848D01*
X30027265Y-47221851D01*
X29874129Y-47333111D01*
X29747466Y-47473785D01*
X29652821Y-47637715D01*
X29652818Y-47637722D01*
X29594327Y-47817740D01*
X29594326Y-47817744D01*
X29574540Y-48006000D01*
X29594326Y-48194256D01*
X29594327Y-48194259D01*
X29652818Y-48374277D01*
X29652821Y-48374284D01*
X29747467Y-48538216D01*
X29874129Y-48678888D01*
X30027265Y-48790148D01*
X30027270Y-48790151D01*
X30200192Y-48867142D01*
X30200197Y-48867144D01*
X30385354Y-48906500D01*
X30444548Y-48906500D01*
X30511587Y-48926185D01*
X30532229Y-48942819D01*
X34830197Y-53240788D01*
X34840022Y-53253051D01*
X34840243Y-53252869D01*
X34845211Y-53258874D01*
X34894222Y-53304899D01*
X34897021Y-53307612D01*
X34916522Y-53327114D01*
X34916526Y-53327117D01*
X34916529Y-53327120D01*
X34919702Y-53329581D01*
X34928574Y-53337159D01*
X34960418Y-53367062D01*
X34977976Y-53376714D01*
X34994233Y-53387393D01*
X35010064Y-53399673D01*
X35039803Y-53412542D01*
X35050152Y-53417021D01*
X35060641Y-53422160D01*
X35084457Y-53435252D01*
X35098908Y-53443197D01*
X35111523Y-53446435D01*
X35118305Y-53448177D01*
X35136719Y-53454481D01*
X35155104Y-53462438D01*
X35198261Y-53469273D01*
X35209656Y-53471632D01*
X35251981Y-53482500D01*
X35272016Y-53482500D01*
X35291413Y-53484026D01*
X35311196Y-53487160D01*
X35354675Y-53483050D01*
X35366344Y-53482500D01*
X44962773Y-53482500D01*
X45029812Y-53502185D01*
X45064348Y-53535377D01*
X45199501Y-53728396D01*
X45199506Y-53728402D01*
X45366597Y-53895493D01*
X45366603Y-53895498D01*
X45552158Y-54025425D01*
X45595783Y-54080002D01*
X45602977Y-54149500D01*
X45571454Y-54211855D01*
X45552158Y-54228575D01*
X45366597Y-54358505D01*
X45199505Y-54525597D01*
X45064348Y-54718623D01*
X45009771Y-54762248D01*
X44962773Y-54771500D01*
X35363737Y-54771500D01*
X35348120Y-54769776D01*
X35348093Y-54770062D01*
X35340331Y-54769327D01*
X35273144Y-54771439D01*
X35269250Y-54771500D01*
X35241650Y-54771500D01*
X35237962Y-54771965D01*
X35237649Y-54772005D01*
X35226031Y-54772918D01*
X35182377Y-54774290D01*
X35182367Y-54774292D01*
X35163134Y-54779879D01*
X35144094Y-54783822D01*
X35124217Y-54786334D01*
X35124210Y-54786335D01*
X35124208Y-54786336D01*
X35124206Y-54786336D01*
X35124205Y-54786337D01*
X35083584Y-54802419D01*
X35072537Y-54806201D01*
X35030611Y-54818382D01*
X35030608Y-54818383D01*
X35013363Y-54828581D01*
X34995901Y-54837135D01*
X34977272Y-54844511D01*
X34977267Y-54844514D01*
X34941926Y-54870189D01*
X34932168Y-54876599D01*
X34894580Y-54898828D01*
X34880408Y-54913000D01*
X34865623Y-54925628D01*
X34849412Y-54937407D01*
X34821571Y-54971059D01*
X34813711Y-54979696D01*
X30096208Y-59697199D01*
X30083951Y-59707020D01*
X30084134Y-59707241D01*
X30078122Y-59712214D01*
X30032098Y-59761223D01*
X30029391Y-59764016D01*
X30009889Y-59783517D01*
X30009875Y-59783534D01*
X30007407Y-59786715D01*
X29999843Y-59795570D01*
X29969937Y-59827418D01*
X29969936Y-59827420D01*
X29960284Y-59844976D01*
X29949610Y-59861226D01*
X29937329Y-59877061D01*
X29937324Y-59877068D01*
X29919975Y-59917158D01*
X29914838Y-59927644D01*
X29893803Y-59965906D01*
X29888822Y-59985307D01*
X29882521Y-60003710D01*
X29874562Y-60022102D01*
X29874561Y-60022105D01*
X29867728Y-60065243D01*
X29865360Y-60076674D01*
X29854501Y-60118971D01*
X29854500Y-60118982D01*
X29854500Y-60139016D01*
X29852973Y-60158413D01*
X29849840Y-60178196D01*
X29853272Y-60214505D01*
X29853950Y-60221674D01*
X29854500Y-60233343D01*
X29854500Y-62420312D01*
X29834815Y-62487351D01*
X29822650Y-62503284D01*
X29747466Y-62586784D01*
X29652821Y-62750715D01*
X29652818Y-62750722D01*
X29594327Y-62930740D01*
X29594326Y-62930744D01*
X29574540Y-63119000D01*
X29594326Y-63307256D01*
X29594327Y-63307259D01*
X29652818Y-63487277D01*
X29652821Y-63487284D01*
X29747467Y-63651216D01*
X29787230Y-63695377D01*
X29874129Y-63791888D01*
X30027265Y-63903148D01*
X30027270Y-63903151D01*
X30200192Y-63980142D01*
X30200197Y-63980144D01*
X30385354Y-64019500D01*
X30385355Y-64019500D01*
X30554546Y-64019500D01*
X30621585Y-64039185D01*
X30667340Y-64091989D01*
X30677284Y-64161147D01*
X30648259Y-64224703D01*
X30642227Y-64231181D01*
X30096208Y-64777199D01*
X30083951Y-64787020D01*
X30084134Y-64787241D01*
X30078122Y-64792214D01*
X30032098Y-64841223D01*
X30029391Y-64844016D01*
X30009889Y-64863517D01*
X30009875Y-64863534D01*
X30007407Y-64866715D01*
X29999843Y-64875570D01*
X29969937Y-64907418D01*
X29969936Y-64907420D01*
X29960284Y-64924976D01*
X29949610Y-64941226D01*
X29937329Y-64957061D01*
X29937324Y-64957068D01*
X29919975Y-64997158D01*
X29914838Y-65007644D01*
X29893803Y-65045906D01*
X29888822Y-65065307D01*
X29882521Y-65083710D01*
X29874562Y-65102102D01*
X29874561Y-65102105D01*
X29867728Y-65145243D01*
X29865360Y-65156674D01*
X29854501Y-65198971D01*
X29854500Y-65198982D01*
X29854500Y-65219016D01*
X29852973Y-65238415D01*
X29849840Y-65258194D01*
X29849840Y-65258195D01*
X29853950Y-65301674D01*
X29854500Y-65313343D01*
X29854500Y-77533312D01*
X29834815Y-77600351D01*
X29822650Y-77616284D01*
X29747466Y-77699784D01*
X29652821Y-77863715D01*
X29652818Y-77863722D01*
X29594327Y-78043740D01*
X29594326Y-78043744D01*
X29574540Y-78232000D01*
X29594326Y-78420256D01*
X29594327Y-78420259D01*
X29652818Y-78600277D01*
X29652821Y-78600284D01*
X29747467Y-78764216D01*
X29874129Y-78904888D01*
X30027265Y-79016148D01*
X30027270Y-79016151D01*
X30200192Y-79093142D01*
X30200197Y-79093144D01*
X30385354Y-79132500D01*
X30385355Y-79132500D01*
X30574644Y-79132500D01*
X30574646Y-79132500D01*
X30720720Y-79101451D01*
X30790386Y-79106767D01*
X30846120Y-79148904D01*
X30870225Y-79214484D01*
X30870500Y-79222741D01*
X30870500Y-92018547D01*
X30850815Y-92085586D01*
X30834181Y-92106228D01*
X30532228Y-92408181D01*
X30470905Y-92441666D01*
X30444547Y-92444500D01*
X30385354Y-92444500D01*
X30352897Y-92451398D01*
X30200197Y-92483855D01*
X30200192Y-92483857D01*
X30027270Y-92560848D01*
X30027265Y-92560851D01*
X29874129Y-92672111D01*
X29747466Y-92812785D01*
X29652821Y-92976715D01*
X29652818Y-92976722D01*
X29608342Y-93113606D01*
X29594326Y-93156744D01*
X29574540Y-93345000D01*
X29594326Y-93533256D01*
X29594327Y-93533259D01*
X29652818Y-93713277D01*
X29652821Y-93713284D01*
X29747467Y-93877216D01*
X29874129Y-94017888D01*
X30027265Y-94129148D01*
X30027270Y-94129151D01*
X30200192Y-94206142D01*
X30200197Y-94206144D01*
X30385354Y-94245500D01*
X30385355Y-94245500D01*
X30574644Y-94245500D01*
X30574646Y-94245500D01*
X30759803Y-94206144D01*
X30932730Y-94129151D01*
X31085871Y-94017888D01*
X31212533Y-93877216D01*
X31307179Y-93713284D01*
X31365674Y-93533256D01*
X31383321Y-93365344D01*
X31409904Y-93300734D01*
X31418951Y-93290638D01*
X31674819Y-93034771D01*
X31736142Y-93001286D01*
X31805834Y-93006270D01*
X31861767Y-93048142D01*
X31886184Y-93113606D01*
X31886500Y-93122452D01*
X31886500Y-106115547D01*
X31866815Y-106182586D01*
X31850181Y-106203228D01*
X30532228Y-107521181D01*
X30470905Y-107554666D01*
X30444547Y-107557500D01*
X30385354Y-107557500D01*
X30352897Y-107564398D01*
X30200197Y-107596855D01*
X30200192Y-107596857D01*
X30027270Y-107673848D01*
X30027265Y-107673851D01*
X29874129Y-107785111D01*
X29747466Y-107925785D01*
X29652821Y-108089715D01*
X29652818Y-108089722D01*
X29594327Y-108269740D01*
X29594326Y-108269744D01*
X29574540Y-108458000D01*
X29594326Y-108646256D01*
X29594327Y-108646259D01*
X29652818Y-108826277D01*
X29652821Y-108826284D01*
X29747467Y-108990216D01*
X29874129Y-109130888D01*
X30027265Y-109242148D01*
X30027270Y-109242151D01*
X30200192Y-109319142D01*
X30200197Y-109319144D01*
X30385354Y-109358500D01*
X30385355Y-109358500D01*
X30574644Y-109358500D01*
X30574646Y-109358500D01*
X30759803Y-109319144D01*
X30932730Y-109242151D01*
X31085871Y-109130888D01*
X31212533Y-108990216D01*
X31307179Y-108826284D01*
X31365674Y-108646256D01*
X31383321Y-108478344D01*
X31409904Y-108413734D01*
X31418951Y-108403638D01*
X32690819Y-107131771D01*
X32752142Y-107098286D01*
X32821834Y-107103270D01*
X32877767Y-107145142D01*
X32902184Y-107210606D01*
X32902500Y-107219452D01*
X32902500Y-120212547D01*
X32882815Y-120279586D01*
X32866181Y-120300228D01*
X30532228Y-122634181D01*
X30470905Y-122667666D01*
X30444547Y-122670500D01*
X30385354Y-122670500D01*
X30352897Y-122677398D01*
X30200197Y-122709855D01*
X30200192Y-122709857D01*
X30027270Y-122786848D01*
X30027265Y-122786851D01*
X29874129Y-122898111D01*
X29747466Y-123038785D01*
X29652821Y-123202715D01*
X29652818Y-123202722D01*
X29594327Y-123382740D01*
X29594326Y-123382744D01*
X29574540Y-123571000D01*
X24892500Y-123571000D01*
X24892500Y-25754413D01*
X24892972Y-25743606D01*
X24906496Y-25589025D01*
X24910247Y-25567744D01*
X24949004Y-25423099D01*
X24956397Y-25402790D01*
X25015302Y-25276468D01*
X25019682Y-25267074D01*
X25030482Y-25248368D01*
X25116377Y-25125696D01*
X25130260Y-25109152D01*
X25236152Y-25003260D01*
X25252696Y-24989377D01*
X25375368Y-24903482D01*
X25394074Y-24892682D01*
X25529792Y-24829396D01*
X25550099Y-24822004D01*
X25694744Y-24783247D01*
X25716020Y-24779496D01*
X25846594Y-24768072D01*
X25870606Y-24765972D01*
X25881413Y-24765500D01*
X25970193Y-24765500D01*
X84265807Y-24765500D01*
X84354587Y-24765500D01*
X84365394Y-24765972D01*
G37*
G04 #@! TD.AperFunction*
G04 #@! TA.AperFunction,NonConductor*
G36*
X63109937Y-51107166D02*
G01*
X63165870Y-51149038D01*
X63168175Y-51152220D01*
X63179505Y-51168401D01*
X63179506Y-51168402D01*
X63179508Y-51168404D01*
X63346597Y-51335493D01*
X63346603Y-51335498D01*
X63532158Y-51465425D01*
X63575783Y-51520002D01*
X63582977Y-51589500D01*
X63551454Y-51651855D01*
X63532158Y-51668575D01*
X63346597Y-51798505D01*
X63179505Y-51965597D01*
X63044833Y-52157930D01*
X62990256Y-52201555D01*
X62947155Y-52210746D01*
X62928315Y-52211338D01*
X62925110Y-52211439D01*
X62921219Y-52211500D01*
X62889755Y-52211500D01*
X62889755Y-52210154D01*
X62827101Y-52195937D01*
X62778140Y-52146091D01*
X62763500Y-52087641D01*
X62763500Y-51402451D01*
X62783185Y-51335412D01*
X62799815Y-51314774D01*
X62978922Y-51135666D01*
X63040245Y-51102182D01*
X63109937Y-51107166D01*
G37*
G04 #@! TD.AperFunction*
G04 #@! TA.AperFunction,NonConductor*
G36*
X47474248Y-51152926D02*
G01*
X47477049Y-51155640D01*
X47765554Y-51444144D01*
X48106181Y-51784771D01*
X48139666Y-51846094D01*
X48142500Y-51872452D01*
X48142500Y-52293007D01*
X48122815Y-52360046D01*
X48070011Y-52405801D01*
X48000853Y-52415745D01*
X47941159Y-52388483D01*
X47940550Y-52389269D01*
X47937473Y-52386882D01*
X47937471Y-52386880D01*
X47934286Y-52384409D01*
X47925434Y-52376848D01*
X47893582Y-52346938D01*
X47893580Y-52346936D01*
X47893577Y-52346935D01*
X47876029Y-52337288D01*
X47859763Y-52326604D01*
X47843932Y-52314324D01*
X47803849Y-52296978D01*
X47793363Y-52291841D01*
X47755094Y-52270803D01*
X47755092Y-52270802D01*
X47735693Y-52265822D01*
X47717281Y-52259518D01*
X47698898Y-52251562D01*
X47698892Y-52251560D01*
X47655760Y-52244729D01*
X47644322Y-52242361D01*
X47602020Y-52231500D01*
X47602019Y-52231500D01*
X47581984Y-52231500D01*
X47562586Y-52229973D01*
X47554333Y-52228666D01*
X47542805Y-52226840D01*
X47542799Y-52226839D01*
X47523304Y-52228682D01*
X47454710Y-52215391D01*
X47410064Y-52176355D01*
X47276494Y-51985597D01*
X47109402Y-51818506D01*
X47109396Y-51818501D01*
X46923842Y-51688575D01*
X46880217Y-51633998D01*
X46873023Y-51564500D01*
X46904546Y-51502145D01*
X46923842Y-51485425D01*
X46996190Y-51434766D01*
X47109401Y-51355495D01*
X47276495Y-51188401D01*
X47287819Y-51172227D01*
X47342394Y-51128601D01*
X47411893Y-51121406D01*
X47474248Y-51152926D01*
G37*
G04 #@! TD.AperFunction*
G04 #@! TA.AperFunction,NonConductor*
G36*
X63408623Y-53918925D02*
G01*
X63532158Y-54005425D01*
X63575783Y-54060002D01*
X63582977Y-54129500D01*
X63551454Y-54191855D01*
X63532158Y-54208575D01*
X63408623Y-54295075D01*
X63342417Y-54317402D01*
X63274650Y-54300392D01*
X63226837Y-54249444D01*
X63213500Y-54193500D01*
X63213500Y-54020500D01*
X63233185Y-53953461D01*
X63285989Y-53907706D01*
X63355147Y-53897762D01*
X63408623Y-53918925D01*
G37*
G04 #@! TD.AperFunction*
G04 #@! TA.AperFunction,NonConductor*
G36*
X47474248Y-53692926D02*
G01*
X47477077Y-53695667D01*
X47656181Y-53874771D01*
X47689666Y-53936094D01*
X47692500Y-53962452D01*
X47692500Y-54645364D01*
X47672815Y-54712403D01*
X47620011Y-54758158D01*
X47550853Y-54768102D01*
X47549102Y-54767837D01*
X47542807Y-54766840D01*
X47542799Y-54766839D01*
X47523304Y-54768682D01*
X47454710Y-54755391D01*
X47410064Y-54716355D01*
X47276494Y-54525597D01*
X47109402Y-54358506D01*
X47109396Y-54358501D01*
X46923842Y-54228575D01*
X46880217Y-54173998D01*
X46873023Y-54104500D01*
X46904546Y-54042145D01*
X46923842Y-54025425D01*
X46952405Y-54005425D01*
X47109401Y-53895495D01*
X47276495Y-53728401D01*
X47287820Y-53712227D01*
X47342394Y-53668601D01*
X47411893Y-53661406D01*
X47474248Y-53692926D01*
G37*
G04 #@! TD.AperFunction*
G04 #@! TA.AperFunction,NonConductor*
G36*
X47181350Y-56473608D02*
G01*
X47229163Y-56524556D01*
X47242500Y-56580500D01*
X47242500Y-56753499D01*
X47222815Y-56820538D01*
X47170011Y-56866293D01*
X47100853Y-56876237D01*
X47047377Y-56855074D01*
X46923842Y-56768575D01*
X46880217Y-56713999D01*
X46873023Y-56644500D01*
X46904545Y-56582145D01*
X46923842Y-56565425D01*
X47047377Y-56478925D01*
X47113583Y-56456598D01*
X47181350Y-56473608D01*
G37*
G04 #@! TD.AperFunction*
G04 #@! TA.AperFunction,NonConductor*
G36*
X63296681Y-56381423D02*
G01*
X63341028Y-56409924D01*
X63346597Y-56415493D01*
X63346603Y-56415498D01*
X63532158Y-56545425D01*
X63575783Y-56600002D01*
X63582977Y-56669500D01*
X63551454Y-56731855D01*
X63532158Y-56748575D01*
X63346597Y-56878505D01*
X63179505Y-57045597D01*
X63044348Y-57238623D01*
X62989771Y-57282248D01*
X62942773Y-57291500D01*
X62583452Y-57291500D01*
X62516413Y-57271815D01*
X62470658Y-57219011D01*
X62460714Y-57149853D01*
X62489739Y-57086297D01*
X62495771Y-57079819D01*
X63165666Y-56409924D01*
X63226989Y-56376439D01*
X63296681Y-56381423D01*
G37*
G04 #@! TD.AperFunction*
G04 #@! TA.AperFunction,NonConductor*
G36*
X63123103Y-58714355D02*
G01*
X63143475Y-58736945D01*
X63179501Y-58788396D01*
X63179506Y-58788402D01*
X63346597Y-58955493D01*
X63346603Y-58955498D01*
X63532158Y-59085425D01*
X63575783Y-59140002D01*
X63582977Y-59209500D01*
X63551454Y-59271855D01*
X63532158Y-59288575D01*
X63346597Y-59418505D01*
X63179508Y-59585594D01*
X63143475Y-59637055D01*
X63088897Y-59680680D01*
X63019399Y-59687872D01*
X62957044Y-59656350D01*
X62921631Y-59596120D01*
X62917900Y-59565931D01*
X62917900Y-58808068D01*
X62937585Y-58741029D01*
X62990389Y-58695274D01*
X63059547Y-58685330D01*
X63123103Y-58714355D01*
G37*
G04 #@! TD.AperFunction*
G04 #@! TA.AperFunction,NonConductor*
G36*
X47245979Y-58941421D02*
G01*
X47290333Y-58969924D01*
X47935228Y-59614819D01*
X47968713Y-59676142D01*
X47963729Y-59745834D01*
X47921857Y-59801767D01*
X47856393Y-59826184D01*
X47847547Y-59826500D01*
X47495721Y-59826500D01*
X47428682Y-59806815D01*
X47394146Y-59773623D01*
X47276494Y-59605597D01*
X47109402Y-59438506D01*
X47109401Y-59438505D01*
X46923842Y-59308575D01*
X46923841Y-59308574D01*
X46880216Y-59253997D01*
X46873024Y-59184498D01*
X46904546Y-59122144D01*
X46923836Y-59105428D01*
X47109401Y-58975495D01*
X47114970Y-58969925D01*
X47176287Y-58936440D01*
X47245979Y-58941421D01*
G37*
G04 #@! TD.AperFunction*
G04 #@! TA.AperFunction,NonConductor*
G36*
X63009812Y-61102185D02*
G01*
X63044348Y-61135377D01*
X63179501Y-61328396D01*
X63179506Y-61328402D01*
X63346597Y-61495493D01*
X63346603Y-61495498D01*
X63532158Y-61625425D01*
X63575783Y-61680002D01*
X63582977Y-61749500D01*
X63551454Y-61811855D01*
X63532158Y-61828575D01*
X63346597Y-61958505D01*
X63239028Y-62066075D01*
X63177705Y-62099560D01*
X63108013Y-62094576D01*
X63063666Y-62066075D01*
X62291772Y-61294181D01*
X62258287Y-61232858D01*
X62263271Y-61163166D01*
X62305143Y-61107233D01*
X62370607Y-61082816D01*
X62379453Y-61082500D01*
X62942773Y-61082500D01*
X63009812Y-61102185D01*
G37*
G04 #@! TD.AperFunction*
G04 #@! TA.AperFunction,NonConductor*
G36*
X47399034Y-61328376D02*
G01*
X47454967Y-61370248D01*
X47479384Y-61435712D01*
X47479700Y-61444558D01*
X47479700Y-62049441D01*
X47460015Y-62116480D01*
X47407211Y-62162235D01*
X47338053Y-62172179D01*
X47274497Y-62143154D01*
X47268019Y-62137123D01*
X47196971Y-62066075D01*
X47109401Y-61978505D01*
X47109397Y-61978502D01*
X47109396Y-61978501D01*
X46923842Y-61848575D01*
X46880217Y-61793998D01*
X46873023Y-61724500D01*
X46904546Y-61662145D01*
X46923842Y-61645425D01*
X46952405Y-61625425D01*
X47109401Y-61515495D01*
X47268019Y-61356877D01*
X47329342Y-61323392D01*
X47399034Y-61328376D01*
G37*
G04 #@! TD.AperFunction*
G04 #@! TA.AperFunction,NonConductor*
G36*
X45029812Y-56042185D02*
G01*
X45064348Y-56075377D01*
X45199501Y-56268396D01*
X45199506Y-56268402D01*
X45366597Y-56435493D01*
X45366603Y-56435498D01*
X45552158Y-56565425D01*
X45595783Y-56620002D01*
X45602977Y-56689500D01*
X45571454Y-56751855D01*
X45552158Y-56768575D01*
X45366597Y-56898505D01*
X45199505Y-57065597D01*
X45064348Y-57258623D01*
X45009771Y-57302248D01*
X44962773Y-57311500D01*
X37903743Y-57311500D01*
X37888122Y-57309775D01*
X37888095Y-57310061D01*
X37880333Y-57309326D01*
X37813113Y-57311439D01*
X37809219Y-57311500D01*
X37781650Y-57311500D01*
X37777673Y-57312002D01*
X37766042Y-57312917D01*
X37722374Y-57314289D01*
X37722368Y-57314290D01*
X37703126Y-57319880D01*
X37684087Y-57323823D01*
X37664217Y-57326334D01*
X37664203Y-57326337D01*
X37623598Y-57342413D01*
X37612554Y-57346194D01*
X37570614Y-57358379D01*
X37570610Y-57358381D01*
X37553366Y-57368579D01*
X37535905Y-57377133D01*
X37517274Y-57384510D01*
X37517262Y-57384517D01*
X37481933Y-57410185D01*
X37472173Y-57416596D01*
X37434580Y-57438829D01*
X37420414Y-57452995D01*
X37405624Y-57465627D01*
X37389414Y-57477404D01*
X37389411Y-57477407D01*
X37361573Y-57511058D01*
X37353711Y-57519697D01*
X31589731Y-63283676D01*
X31528408Y-63317161D01*
X31458716Y-63312177D01*
X31402783Y-63270305D01*
X31378366Y-63204841D01*
X31378728Y-63183044D01*
X31385460Y-63119000D01*
X31365674Y-62930744D01*
X31307179Y-62750716D01*
X31212533Y-62586784D01*
X31137350Y-62503284D01*
X31107120Y-62440292D01*
X31105500Y-62420312D01*
X31105500Y-60508452D01*
X31125185Y-60441413D01*
X31141819Y-60420771D01*
X35503772Y-56058819D01*
X35565095Y-56025334D01*
X35591453Y-56022500D01*
X44962773Y-56022500D01*
X45029812Y-56042185D01*
G37*
G04 #@! TD.AperFunction*
G04 #@! TA.AperFunction,NonConductor*
G36*
X74711587Y-56042185D02*
G01*
X74732229Y-56058819D01*
X79094181Y-60420771D01*
X79127666Y-60482094D01*
X79130500Y-60508452D01*
X79130500Y-62420312D01*
X79110815Y-62487351D01*
X79098650Y-62503284D01*
X79023466Y-62586784D01*
X78928821Y-62750715D01*
X78928818Y-62750722D01*
X78870327Y-62930740D01*
X78870326Y-62930744D01*
X78850540Y-63118999D01*
X78850540Y-63119000D01*
X78857270Y-63183036D01*
X78844700Y-63251765D01*
X78796968Y-63302789D01*
X78729227Y-63319906D01*
X78662986Y-63297683D01*
X78646268Y-63283677D01*
X72915803Y-57553212D01*
X72905980Y-57540950D01*
X72905759Y-57541134D01*
X72900786Y-57535122D01*
X72851776Y-57489099D01*
X72848977Y-57486386D01*
X72829477Y-57466885D01*
X72829471Y-57466880D01*
X72826286Y-57464409D01*
X72817434Y-57456848D01*
X72785582Y-57426938D01*
X72785580Y-57426936D01*
X72785577Y-57426935D01*
X72768029Y-57417288D01*
X72751763Y-57406604D01*
X72735932Y-57394324D01*
X72695849Y-57376978D01*
X72685363Y-57371841D01*
X72647094Y-57350803D01*
X72647092Y-57350802D01*
X72627693Y-57345822D01*
X72609281Y-57339518D01*
X72590898Y-57331562D01*
X72590892Y-57331560D01*
X72547760Y-57324729D01*
X72536322Y-57322361D01*
X72494020Y-57311500D01*
X72494019Y-57311500D01*
X72473984Y-57311500D01*
X72454586Y-57309973D01*
X72447162Y-57308797D01*
X72434805Y-57306840D01*
X72434804Y-57306840D01*
X72391325Y-57310950D01*
X72379656Y-57311500D01*
X65504759Y-57311500D01*
X65437720Y-57291815D01*
X65395469Y-57243441D01*
X65394743Y-57243861D01*
X65392612Y-57240171D01*
X65392374Y-57239898D01*
X65392035Y-57239171D01*
X65256495Y-57045599D01*
X65256494Y-57045597D01*
X65089402Y-56878506D01*
X65089396Y-56878501D01*
X64903842Y-56748575D01*
X64860217Y-56693998D01*
X64853023Y-56624500D01*
X64884546Y-56562145D01*
X64903842Y-56545425D01*
X64933646Y-56524556D01*
X65089401Y-56415495D01*
X65256495Y-56248401D01*
X65377648Y-56075377D01*
X65432225Y-56031752D01*
X65479223Y-56022500D01*
X74644548Y-56022500D01*
X74711587Y-56042185D01*
G37*
G04 #@! TD.AperFunction*
G04 #@! TA.AperFunction,NonConductor*
G36*
X48143587Y-63662185D02*
G01*
X48189342Y-63714989D01*
X48199286Y-63784147D01*
X48170261Y-63847703D01*
X48164234Y-63854175D01*
X47998909Y-64019500D01*
X47392333Y-64626074D01*
X47331010Y-64659559D01*
X47261318Y-64654575D01*
X47216971Y-64626075D01*
X47216970Y-64626074D01*
X47109401Y-64518505D01*
X47109397Y-64518502D01*
X47109396Y-64518501D01*
X46923842Y-64388575D01*
X46880217Y-64333998D01*
X46873023Y-64264500D01*
X46904546Y-64202145D01*
X46923842Y-64185425D01*
X47057282Y-64091989D01*
X47109401Y-64055495D01*
X47276495Y-63888401D01*
X47411652Y-63695377D01*
X47466229Y-63651752D01*
X47513227Y-63642500D01*
X48076548Y-63642500D01*
X48143587Y-63662185D01*
G37*
G04 #@! TD.AperFunction*
G04 #@! TA.AperFunction,NonConductor*
G36*
X47399034Y-66408376D02*
G01*
X47454967Y-66450248D01*
X47479384Y-66515712D01*
X47479700Y-66524558D01*
X47479700Y-67129441D01*
X47460015Y-67196480D01*
X47407211Y-67242235D01*
X47338053Y-67252179D01*
X47274497Y-67223154D01*
X47268019Y-67217123D01*
X47236827Y-67185931D01*
X47109401Y-67058505D01*
X47109397Y-67058502D01*
X47109396Y-67058501D01*
X46923842Y-66928575D01*
X46880217Y-66873998D01*
X46873023Y-66804500D01*
X46904546Y-66742145D01*
X46923842Y-66725425D01*
X46952405Y-66705425D01*
X47109401Y-66595495D01*
X47268019Y-66436877D01*
X47329342Y-66403392D01*
X47399034Y-66408376D01*
G37*
G04 #@! TD.AperFunction*
G04 #@! TA.AperFunction,NonConductor*
G36*
X63123103Y-66334355D02*
G01*
X63143475Y-66356945D01*
X63179501Y-66408396D01*
X63179506Y-66408402D01*
X63346597Y-66575493D01*
X63346603Y-66575498D01*
X63532158Y-66705425D01*
X63575783Y-66760002D01*
X63582977Y-66829500D01*
X63551454Y-66891855D01*
X63532158Y-66908575D01*
X63346597Y-67038505D01*
X63179508Y-67205594D01*
X63143475Y-67257055D01*
X63088897Y-67300680D01*
X63019399Y-67307872D01*
X62957044Y-67276350D01*
X62921631Y-67216120D01*
X62917900Y-67185931D01*
X62917900Y-66428068D01*
X62937585Y-66361029D01*
X62990389Y-66315274D01*
X63059547Y-66305330D01*
X63123103Y-66334355D01*
G37*
G04 #@! TD.AperFunction*
G04 #@! TA.AperFunction,NonConductor*
G36*
X45029812Y-58582185D02*
G01*
X45064348Y-58615377D01*
X45199501Y-58808396D01*
X45199506Y-58808402D01*
X45366597Y-58975493D01*
X45366603Y-58975498D01*
X45552158Y-59105425D01*
X45595783Y-59160002D01*
X45602977Y-59229500D01*
X45571454Y-59291855D01*
X45552158Y-59308575D01*
X45366597Y-59438505D01*
X45199505Y-59605597D01*
X45064348Y-59798623D01*
X45009771Y-59842248D01*
X44962773Y-59851500D01*
X40443737Y-59851500D01*
X40428120Y-59849776D01*
X40428093Y-59850062D01*
X40420331Y-59849327D01*
X40353144Y-59851439D01*
X40349250Y-59851500D01*
X40321650Y-59851500D01*
X40317962Y-59851965D01*
X40317649Y-59852005D01*
X40306031Y-59852918D01*
X40262373Y-59854290D01*
X40262372Y-59854290D01*
X40243129Y-59859881D01*
X40224079Y-59863825D01*
X40204211Y-59866334D01*
X40204210Y-59866335D01*
X40163600Y-59882413D01*
X40152553Y-59886195D01*
X40110610Y-59898381D01*
X40110609Y-59898382D01*
X40093367Y-59908579D01*
X40075899Y-59917137D01*
X40057269Y-59924513D01*
X40057266Y-59924515D01*
X40021939Y-59950181D01*
X40012180Y-59956592D01*
X39974579Y-59978830D01*
X39960408Y-59993000D01*
X39945623Y-60005628D01*
X39929412Y-60017407D01*
X39901571Y-60051059D01*
X39893711Y-60059696D01*
X31317181Y-68636227D01*
X31255858Y-68669712D01*
X31186166Y-68664728D01*
X31130233Y-68622856D01*
X31105816Y-68557392D01*
X31105500Y-68548546D01*
X31105500Y-65588452D01*
X31125185Y-65521413D01*
X31141819Y-65500771D01*
X38043771Y-58598819D01*
X38105094Y-58565334D01*
X38131452Y-58562500D01*
X44962773Y-58562500D01*
X45029812Y-58582185D01*
G37*
G04 #@! TD.AperFunction*
G04 #@! TA.AperFunction,NonConductor*
G36*
X72171587Y-58582185D02*
G01*
X72192229Y-58598819D01*
X79094181Y-65500771D01*
X79127666Y-65562094D01*
X79130500Y-65588452D01*
X79130500Y-68548547D01*
X79110815Y-68615586D01*
X79058011Y-68661341D01*
X78988853Y-68671285D01*
X78925297Y-68642260D01*
X78918819Y-68636228D01*
X70375803Y-60093212D01*
X70365980Y-60080950D01*
X70365759Y-60081134D01*
X70360786Y-60075122D01*
X70311776Y-60029099D01*
X70308977Y-60026386D01*
X70289477Y-60006885D01*
X70289471Y-60006880D01*
X70286286Y-60004409D01*
X70277434Y-59996848D01*
X70245582Y-59966938D01*
X70245580Y-59966936D01*
X70245577Y-59966935D01*
X70228029Y-59957288D01*
X70211763Y-59946604D01*
X70195932Y-59934324D01*
X70155849Y-59916978D01*
X70145363Y-59911841D01*
X70107094Y-59890803D01*
X70107092Y-59890802D01*
X70087693Y-59885822D01*
X70069281Y-59879518D01*
X70050898Y-59871562D01*
X70050892Y-59871560D01*
X70007760Y-59864729D01*
X69996322Y-59862361D01*
X69954020Y-59851500D01*
X69954019Y-59851500D01*
X69933984Y-59851500D01*
X69914586Y-59849973D01*
X69907162Y-59848797D01*
X69894805Y-59846840D01*
X69894804Y-59846840D01*
X69851325Y-59850950D01*
X69839656Y-59851500D01*
X65504759Y-59851500D01*
X65437720Y-59831815D01*
X65395469Y-59783441D01*
X65394743Y-59783861D01*
X65392612Y-59780171D01*
X65392374Y-59779898D01*
X65392035Y-59779171D01*
X65256495Y-59585599D01*
X65256494Y-59585597D01*
X65089402Y-59418506D01*
X65089396Y-59418501D01*
X64903842Y-59288575D01*
X64860217Y-59233998D01*
X64853023Y-59164500D01*
X64884546Y-59102145D01*
X64903842Y-59085425D01*
X64926026Y-59069891D01*
X65089401Y-58955495D01*
X65256495Y-58788401D01*
X65377648Y-58615377D01*
X65432225Y-58571752D01*
X65479223Y-58562500D01*
X72104548Y-58562500D01*
X72171587Y-58582185D01*
G37*
G04 #@! TD.AperFunction*
G04 #@! TA.AperFunction,NonConductor*
G36*
X63121804Y-68867145D02*
G01*
X63129666Y-68877224D01*
X63179505Y-68948401D01*
X63179506Y-68948402D01*
X63346597Y-69115493D01*
X63346603Y-69115498D01*
X63532158Y-69245425D01*
X63575783Y-69300002D01*
X63582977Y-69369500D01*
X63551454Y-69431855D01*
X63532158Y-69448575D01*
X63346597Y-69578505D01*
X63185028Y-69740075D01*
X63123705Y-69773560D01*
X63054013Y-69768576D01*
X63009666Y-69740075D01*
X62730341Y-69460750D01*
X62696856Y-69399427D01*
X62701840Y-69329735D01*
X62724305Y-69291872D01*
X62817967Y-69183783D01*
X62877738Y-69052906D01*
X62897423Y-68985867D01*
X62897424Y-68985863D01*
X62905354Y-68930702D01*
X62934378Y-68867148D01*
X62993155Y-68829372D01*
X63063025Y-68829371D01*
X63121804Y-68867145D01*
G37*
G04 #@! TD.AperFunction*
G04 #@! TA.AperFunction,NonConductor*
G36*
X47399034Y-68948376D02*
G01*
X47454967Y-68990248D01*
X47479384Y-69055712D01*
X47479700Y-69064558D01*
X47479700Y-69669441D01*
X47460015Y-69736480D01*
X47407211Y-69782235D01*
X47338053Y-69792179D01*
X47274497Y-69763154D01*
X47268019Y-69757123D01*
X47247376Y-69736480D01*
X47109401Y-69598505D01*
X47109397Y-69598502D01*
X47109396Y-69598501D01*
X46923842Y-69468575D01*
X46880217Y-69413998D01*
X46873023Y-69344500D01*
X46904546Y-69282145D01*
X46923842Y-69265425D01*
X46952405Y-69245425D01*
X47109401Y-69135495D01*
X47268019Y-68976877D01*
X47329342Y-68943392D01*
X47399034Y-68948376D01*
G37*
G04 #@! TD.AperFunction*
G04 #@! TA.AperFunction,NonConductor*
G36*
X45029812Y-61122185D02*
G01*
X45064348Y-61155377D01*
X45199501Y-61348396D01*
X45199506Y-61348402D01*
X45366597Y-61515493D01*
X45366603Y-61515498D01*
X45552158Y-61645425D01*
X45595783Y-61700002D01*
X45602977Y-61769500D01*
X45571454Y-61831855D01*
X45552158Y-61848575D01*
X45366597Y-61978505D01*
X45199505Y-62145597D01*
X45064348Y-62338623D01*
X45009771Y-62382248D01*
X44962773Y-62391500D01*
X42983743Y-62391500D01*
X42968122Y-62389775D01*
X42968095Y-62390061D01*
X42960333Y-62389326D01*
X42893113Y-62391439D01*
X42889219Y-62391500D01*
X42861650Y-62391500D01*
X42857673Y-62392002D01*
X42846042Y-62392917D01*
X42802374Y-62394289D01*
X42802368Y-62394290D01*
X42783126Y-62399880D01*
X42764087Y-62403823D01*
X42744217Y-62406334D01*
X42744203Y-62406337D01*
X42703598Y-62422413D01*
X42692554Y-62426194D01*
X42650614Y-62438379D01*
X42650610Y-62438381D01*
X42633366Y-62448579D01*
X42615905Y-62457133D01*
X42597274Y-62464510D01*
X42597262Y-62464517D01*
X42561933Y-62490185D01*
X42552173Y-62496596D01*
X42514580Y-62518829D01*
X42500414Y-62532995D01*
X42485624Y-62545627D01*
X42469414Y-62557404D01*
X42469411Y-62557407D01*
X42441573Y-62591058D01*
X42433711Y-62599697D01*
X32333181Y-72700228D01*
X32271858Y-72733713D01*
X32202166Y-72728729D01*
X32146233Y-72686857D01*
X32121816Y-72621393D01*
X32121500Y-72612547D01*
X32121500Y-69652452D01*
X32141185Y-69585413D01*
X32157819Y-69564771D01*
X40583772Y-61138819D01*
X40645095Y-61105334D01*
X40671453Y-61102500D01*
X44962773Y-61102500D01*
X45029812Y-61122185D01*
G37*
G04 #@! TD.AperFunction*
G04 #@! TA.AperFunction,NonConductor*
G36*
X69631587Y-61122185D02*
G01*
X69652229Y-61138819D01*
X78078181Y-69564771D01*
X78111666Y-69626094D01*
X78114500Y-69652452D01*
X78114500Y-72612547D01*
X78094815Y-72679586D01*
X78042011Y-72725341D01*
X77972853Y-72735285D01*
X77909297Y-72706260D01*
X77902819Y-72700228D01*
X67835803Y-62633212D01*
X67825980Y-62620950D01*
X67825759Y-62621134D01*
X67820786Y-62615122D01*
X67771776Y-62569099D01*
X67768977Y-62566386D01*
X67749477Y-62546885D01*
X67749471Y-62546880D01*
X67746286Y-62544409D01*
X67737434Y-62536848D01*
X67705582Y-62506938D01*
X67705580Y-62506936D01*
X67705577Y-62506935D01*
X67688029Y-62497288D01*
X67671763Y-62486604D01*
X67655932Y-62474324D01*
X67615849Y-62456978D01*
X67605363Y-62451841D01*
X67567094Y-62430803D01*
X67567092Y-62430802D01*
X67547693Y-62425822D01*
X67529281Y-62419518D01*
X67510898Y-62411562D01*
X67510892Y-62411560D01*
X67467760Y-62404729D01*
X67456322Y-62402361D01*
X67414020Y-62391500D01*
X67414019Y-62391500D01*
X67393984Y-62391500D01*
X67374586Y-62389973D01*
X67367162Y-62388797D01*
X67354805Y-62386840D01*
X67354804Y-62386840D01*
X67311325Y-62390950D01*
X67299656Y-62391500D01*
X65504759Y-62391500D01*
X65437720Y-62371815D01*
X65395469Y-62323441D01*
X65394743Y-62323861D01*
X65392612Y-62320171D01*
X65392374Y-62319898D01*
X65392035Y-62319171D01*
X65268787Y-62143154D01*
X65256494Y-62125597D01*
X65089402Y-61958506D01*
X65089396Y-61958501D01*
X64903842Y-61828575D01*
X64860217Y-61773998D01*
X64853023Y-61704500D01*
X64884546Y-61642145D01*
X64903842Y-61625425D01*
X64926026Y-61609891D01*
X65089401Y-61495495D01*
X65256495Y-61328401D01*
X65377648Y-61155377D01*
X65432225Y-61111752D01*
X65479223Y-61102500D01*
X69564548Y-61102500D01*
X69631587Y-61122185D01*
G37*
G04 #@! TD.AperFunction*
G04 #@! TA.AperFunction,NonConductor*
G36*
X45029812Y-63662185D02*
G01*
X45064348Y-63695377D01*
X45199501Y-63888396D01*
X45199506Y-63888402D01*
X45366597Y-64055493D01*
X45366603Y-64055498D01*
X45552158Y-64185425D01*
X45595783Y-64240002D01*
X45602977Y-64309500D01*
X45571454Y-64371855D01*
X45552158Y-64388575D01*
X45366597Y-64518505D01*
X45199505Y-64685597D01*
X45063965Y-64879169D01*
X45063964Y-64879171D01*
X44964098Y-65093335D01*
X44964094Y-65093344D01*
X44902938Y-65321586D01*
X44902936Y-65321596D01*
X44882341Y-65556999D01*
X44882341Y-65557000D01*
X44902937Y-65792408D01*
X44929855Y-65892873D01*
X44928192Y-65962723D01*
X44897761Y-66012646D01*
X33349181Y-77561227D01*
X33287858Y-77594712D01*
X33218166Y-77589728D01*
X33162233Y-77547856D01*
X33137816Y-77482392D01*
X33137500Y-77473546D01*
X33137500Y-73716452D01*
X33157185Y-73649413D01*
X33173819Y-73628771D01*
X43123771Y-63678819D01*
X43185094Y-63645334D01*
X43211452Y-63642500D01*
X44962773Y-63642500D01*
X45029812Y-63662185D01*
G37*
G04 #@! TD.AperFunction*
G04 #@! TA.AperFunction,NonConductor*
G36*
X67091587Y-63662185D02*
G01*
X67112229Y-63678819D01*
X77062181Y-73628771D01*
X77095666Y-73690094D01*
X77098500Y-73716452D01*
X77098500Y-77473547D01*
X77078815Y-77540586D01*
X77026011Y-77586341D01*
X76956853Y-77596285D01*
X76893297Y-77567260D01*
X76886819Y-77561228D01*
X65500619Y-66175028D01*
X65467134Y-66113705D01*
X65472118Y-66044013D01*
X65475918Y-66034942D01*
X65486315Y-66012646D01*
X65491903Y-66000663D01*
X65553063Y-65772408D01*
X65573659Y-65537000D01*
X65553063Y-65301592D01*
X65499611Y-65102104D01*
X65491905Y-65073344D01*
X65491904Y-65073343D01*
X65491903Y-65073337D01*
X65392035Y-64859171D01*
X65383101Y-64846411D01*
X65256494Y-64665597D01*
X65089402Y-64498506D01*
X65089396Y-64498501D01*
X64903842Y-64368575D01*
X64860217Y-64313998D01*
X64853023Y-64244500D01*
X64884546Y-64182145D01*
X64903842Y-64165425D01*
X65008719Y-64091989D01*
X65089401Y-64035495D01*
X65256495Y-63868401D01*
X65377648Y-63695377D01*
X65432225Y-63651752D01*
X65479223Y-63642500D01*
X67024548Y-63642500D01*
X67091587Y-63662185D01*
G37*
G04 #@! TD.AperFunction*
G04 #@! TA.AperFunction,Conductor*
G36*
X58309928Y-68234185D02*
G01*
X58355683Y-68286989D01*
X58365627Y-68356147D01*
X58349621Y-68401621D01*
X58321718Y-68448801D01*
X58275899Y-68606513D01*
X58275704Y-68608998D01*
X58275705Y-68609000D01*
X59924000Y-68609000D01*
X59991039Y-68628685D01*
X60036794Y-68681489D01*
X60048000Y-68733000D01*
X60048000Y-69659000D01*
X60074000Y-69659000D01*
X60141039Y-69678685D01*
X60186794Y-69731489D01*
X60198000Y-69783000D01*
X60198000Y-78027500D01*
X60178315Y-78094539D01*
X60125511Y-78140294D01*
X60074000Y-78151500D01*
X59300129Y-78151500D01*
X59300123Y-78151501D01*
X59240516Y-78157908D01*
X59105671Y-78208202D01*
X59105664Y-78208206D01*
X58990455Y-78294452D01*
X58990452Y-78294455D01*
X58904206Y-78409664D01*
X58904202Y-78409671D01*
X58853908Y-78544517D01*
X58847501Y-78604116D01*
X58847500Y-78604135D01*
X58847500Y-78614689D01*
X58827815Y-78681728D01*
X58811181Y-78702370D01*
X58141076Y-79372474D01*
X58117493Y-79292156D01*
X58039761Y-79171202D01*
X57931100Y-79077048D01*
X57800315Y-79017320D01*
X57790533Y-79015913D01*
X58419373Y-78387073D01*
X58419373Y-78387072D01*
X58335583Y-78328402D01*
X58335579Y-78328400D01*
X58121492Y-78228570D01*
X58121483Y-78228566D01*
X57893326Y-78167432D01*
X57893315Y-78167430D01*
X57658002Y-78146843D01*
X57657998Y-78146843D01*
X57422684Y-78167430D01*
X57422673Y-78167432D01*
X57194516Y-78228566D01*
X57194507Y-78228570D01*
X56980419Y-78328401D01*
X56896625Y-78387072D01*
X57525466Y-79015913D01*
X57515685Y-79017320D01*
X57384900Y-79077048D01*
X57276239Y-79171202D01*
X57198507Y-79292156D01*
X57174923Y-79372476D01*
X56543073Y-78740626D01*
X56489881Y-78816594D01*
X56435304Y-78860219D01*
X56365806Y-78867413D01*
X56303451Y-78835891D01*
X56286730Y-78816594D01*
X56156494Y-78630597D01*
X56033819Y-78507922D01*
X56000334Y-78446599D01*
X55997500Y-78420241D01*
X55997500Y-75809784D01*
X56017185Y-75742745D01*
X56069989Y-75696990D01*
X56134104Y-75686426D01*
X56218021Y-75694999D01*
X56430499Y-75694999D01*
X56430500Y-75694998D01*
X56430500Y-74545000D01*
X56930500Y-74545000D01*
X56930500Y-75694999D01*
X57142972Y-75694999D01*
X57142986Y-75694998D01*
X57245697Y-75684505D01*
X57412119Y-75629358D01*
X57412124Y-75629356D01*
X57561345Y-75537315D01*
X57685315Y-75413345D01*
X57777356Y-75264124D01*
X57777358Y-75264119D01*
X57832505Y-75097697D01*
X57832506Y-75097690D01*
X57842999Y-74994986D01*
X57843000Y-74994973D01*
X57843000Y-74545000D01*
X56930500Y-74545000D01*
X56430500Y-74545000D01*
X56430500Y-72895000D01*
X56930500Y-72895000D01*
X56930500Y-74045000D01*
X57842999Y-74045000D01*
X57842999Y-73595028D01*
X57842998Y-73595013D01*
X57832505Y-73492302D01*
X57777358Y-73325880D01*
X57777356Y-73325875D01*
X57685315Y-73176654D01*
X57561345Y-73052684D01*
X57412124Y-72960643D01*
X57412119Y-72960641D01*
X57245697Y-72905494D01*
X57245690Y-72905493D01*
X57142986Y-72895000D01*
X56930500Y-72895000D01*
X56430500Y-72895000D01*
X56218029Y-72895000D01*
X56218010Y-72895001D01*
X56134101Y-72903573D01*
X56065408Y-72890803D01*
X56014524Y-72842922D01*
X55997500Y-72780215D01*
X55997500Y-70033452D01*
X56017185Y-69966413D01*
X56033819Y-69945771D01*
X56870589Y-69109001D01*
X58275704Y-69109001D01*
X58275899Y-69111486D01*
X58321718Y-69269198D01*
X58405314Y-69410552D01*
X58405321Y-69410561D01*
X58521438Y-69526678D01*
X58521447Y-69526685D01*
X58662803Y-69610282D01*
X58662806Y-69610283D01*
X58820504Y-69656099D01*
X58820510Y-69656100D01*
X58857350Y-69658999D01*
X58857366Y-69659000D01*
X59548000Y-69659000D01*
X59548000Y-69109000D01*
X58275705Y-69109000D01*
X58275704Y-69109001D01*
X56870589Y-69109001D01*
X57728771Y-68250819D01*
X57790094Y-68217334D01*
X57816452Y-68214500D01*
X58242889Y-68214500D01*
X58309928Y-68234185D01*
G37*
G04 #@! TD.AperFunction*
G04 #@! TA.AperFunction,Conductor*
G36*
X61415086Y-53638685D02*
G01*
X61460841Y-53691489D01*
X61470785Y-53760647D01*
X61441760Y-53824203D01*
X61435743Y-53830665D01*
X61189402Y-54077006D01*
X61124418Y-54141990D01*
X61063095Y-54175474D01*
X60993403Y-54170490D01*
X60973618Y-54161041D01*
X60933398Y-54137256D01*
X60933393Y-54137254D01*
X60775573Y-54091402D01*
X60775567Y-54091401D01*
X60738701Y-54088500D01*
X60738694Y-54088500D01*
X58857306Y-54088500D01*
X58857298Y-54088500D01*
X58820432Y-54091401D01*
X58820426Y-54091402D01*
X58662606Y-54137254D01*
X58662603Y-54137255D01*
X58521137Y-54220917D01*
X58521129Y-54220923D01*
X58404923Y-54337129D01*
X58404917Y-54337137D01*
X58321255Y-54478603D01*
X58321254Y-54478606D01*
X58275402Y-54636426D01*
X58275401Y-54636432D01*
X58272500Y-54673298D01*
X58272500Y-55104701D01*
X58275401Y-55141567D01*
X58275402Y-55141573D01*
X58321254Y-55299393D01*
X58321255Y-55299396D01*
X58404917Y-55440862D01*
X58409702Y-55447031D01*
X58407256Y-55448927D01*
X58433857Y-55497642D01*
X58428873Y-55567334D01*
X58408069Y-55599703D01*
X58409702Y-55600969D01*
X58404917Y-55607137D01*
X58321255Y-55748603D01*
X58321254Y-55748606D01*
X58275402Y-55906426D01*
X58275401Y-55906432D01*
X58272500Y-55943298D01*
X58272500Y-56374701D01*
X58275401Y-56411567D01*
X58275402Y-56411573D01*
X58321254Y-56569393D01*
X58321255Y-56569396D01*
X58404917Y-56710862D01*
X58409702Y-56717031D01*
X58407256Y-56718927D01*
X58433857Y-56767642D01*
X58428873Y-56837334D01*
X58408069Y-56869703D01*
X58409702Y-56870969D01*
X58404917Y-56877137D01*
X58321255Y-57018603D01*
X58321254Y-57018606D01*
X58275402Y-57176426D01*
X58275401Y-57176432D01*
X58272500Y-57213298D01*
X58272500Y-57644701D01*
X58275401Y-57681567D01*
X58275402Y-57681573D01*
X58321254Y-57839393D01*
X58321255Y-57839396D01*
X58404917Y-57980862D01*
X58409702Y-57987031D01*
X58407256Y-57988927D01*
X58433857Y-58037642D01*
X58428873Y-58107334D01*
X58408069Y-58139703D01*
X58409702Y-58140969D01*
X58404917Y-58147137D01*
X58321255Y-58288603D01*
X58321254Y-58288606D01*
X58275402Y-58446426D01*
X58275401Y-58446432D01*
X58272500Y-58483298D01*
X58272500Y-58914701D01*
X58275401Y-58951567D01*
X58275402Y-58951573D01*
X58321254Y-59109393D01*
X58321255Y-59109396D01*
X58321256Y-59109398D01*
X58330449Y-59124942D01*
X58404917Y-59250862D01*
X58409702Y-59257031D01*
X58407256Y-59258927D01*
X58433857Y-59307642D01*
X58428873Y-59377334D01*
X58408069Y-59409703D01*
X58409702Y-59410969D01*
X58404917Y-59417137D01*
X58321255Y-59558603D01*
X58321254Y-59558606D01*
X58275402Y-59716426D01*
X58275401Y-59716432D01*
X58272500Y-59753298D01*
X58272500Y-60184701D01*
X58275401Y-60221567D01*
X58275402Y-60221573D01*
X58321254Y-60379393D01*
X58321255Y-60379396D01*
X58404917Y-60520862D01*
X58409702Y-60527031D01*
X58407256Y-60528927D01*
X58433857Y-60577642D01*
X58428873Y-60647334D01*
X58408069Y-60679703D01*
X58409702Y-60680969D01*
X58404917Y-60687137D01*
X58321255Y-60828603D01*
X58321254Y-60828606D01*
X58275402Y-60986426D01*
X58275401Y-60986432D01*
X58272500Y-61023298D01*
X58272500Y-61454701D01*
X58275401Y-61491567D01*
X58275402Y-61491573D01*
X58321254Y-61649393D01*
X58321255Y-61649396D01*
X58404917Y-61790862D01*
X58409702Y-61797031D01*
X58407256Y-61798927D01*
X58433857Y-61847642D01*
X58428873Y-61917334D01*
X58408069Y-61949703D01*
X58409702Y-61950969D01*
X58404917Y-61957137D01*
X58321255Y-62098603D01*
X58321254Y-62098606D01*
X58275402Y-62256426D01*
X58275401Y-62256432D01*
X58272500Y-62293298D01*
X58272500Y-62724701D01*
X58275401Y-62761567D01*
X58275402Y-62761573D01*
X58321254Y-62919393D01*
X58321255Y-62919396D01*
X58404917Y-63060862D01*
X58409702Y-63067031D01*
X58407256Y-63068927D01*
X58433857Y-63117642D01*
X58428873Y-63187334D01*
X58408069Y-63219703D01*
X58409702Y-63220969D01*
X58404917Y-63227137D01*
X58321255Y-63368603D01*
X58321254Y-63368606D01*
X58275402Y-63526426D01*
X58275401Y-63526432D01*
X58272500Y-63563298D01*
X58272500Y-63994701D01*
X58275401Y-64031567D01*
X58275402Y-64031573D01*
X58321254Y-64189393D01*
X58321255Y-64189396D01*
X58404917Y-64330862D01*
X58409702Y-64337031D01*
X58407369Y-64338840D01*
X58434210Y-64387995D01*
X58429226Y-64457687D01*
X58408470Y-64490021D01*
X58410097Y-64491283D01*
X58405313Y-64497449D01*
X58321718Y-64638801D01*
X58275899Y-64796513D01*
X58275704Y-64798998D01*
X58275705Y-64799000D01*
X61320295Y-64799000D01*
X61320295Y-64798998D01*
X61320100Y-64796513D01*
X61274281Y-64638801D01*
X61190685Y-64497447D01*
X61185900Y-64491278D01*
X61188366Y-64489364D01*
X61161802Y-64440776D01*
X61166749Y-64371082D01*
X61187856Y-64338232D01*
X61186301Y-64337026D01*
X61191077Y-64330868D01*
X61191081Y-64330865D01*
X61274744Y-64189398D01*
X61313647Y-64055495D01*
X61320597Y-64031573D01*
X61320598Y-64031567D01*
X61323499Y-63994701D01*
X61323500Y-63994694D01*
X61323500Y-63826452D01*
X61343185Y-63759413D01*
X61395989Y-63713658D01*
X61465147Y-63703714D01*
X61528703Y-63732739D01*
X61535181Y-63738771D01*
X62376081Y-64579671D01*
X62409566Y-64640994D01*
X62412400Y-64667352D01*
X62412400Y-68843447D01*
X62392715Y-68910486D01*
X62339911Y-68956241D01*
X62270753Y-68966185D01*
X62207197Y-68937160D01*
X62200719Y-68931128D01*
X61744803Y-68475212D01*
X61734980Y-68462950D01*
X61734759Y-68463134D01*
X61729786Y-68457122D01*
X61680776Y-68411099D01*
X61677977Y-68408386D01*
X61658477Y-68388885D01*
X61658471Y-68388880D01*
X61655286Y-68386409D01*
X61646434Y-68378848D01*
X61614582Y-68348938D01*
X61614580Y-68348936D01*
X61614577Y-68348935D01*
X61597029Y-68339288D01*
X61580763Y-68328604D01*
X61572976Y-68322564D01*
X61564936Y-68316327D01*
X61564935Y-68316326D01*
X61564932Y-68316324D01*
X61524849Y-68298978D01*
X61514363Y-68293841D01*
X61476094Y-68272803D01*
X61476092Y-68272802D01*
X61456693Y-68267822D01*
X61438281Y-68261518D01*
X61419898Y-68253562D01*
X61419892Y-68253560D01*
X61376760Y-68246729D01*
X61365322Y-68244361D01*
X61320877Y-68232950D01*
X61260838Y-68197212D01*
X61229652Y-68134689D01*
X61237219Y-68065230D01*
X61244981Y-68049724D01*
X61274744Y-67999398D01*
X61320598Y-67841569D01*
X61323500Y-67804694D01*
X61323500Y-67373306D01*
X61320598Y-67336431D01*
X61274744Y-67178602D01*
X61191081Y-67037135D01*
X61191078Y-67037132D01*
X61186298Y-67030969D01*
X61188750Y-67029066D01*
X61162155Y-66980421D01*
X61167104Y-66910726D01*
X61187940Y-66878304D01*
X61186298Y-66877031D01*
X61191075Y-66870870D01*
X61191081Y-66870865D01*
X61274744Y-66729398D01*
X61313647Y-66595495D01*
X61320597Y-66571573D01*
X61320598Y-66571567D01*
X61323500Y-66534694D01*
X61323500Y-66103306D01*
X61320598Y-66066431D01*
X61317326Y-66055170D01*
X61274745Y-65908606D01*
X61274744Y-65908603D01*
X61274744Y-65908602D01*
X61191081Y-65767135D01*
X61191078Y-65767132D01*
X61186298Y-65760969D01*
X61188635Y-65759155D01*
X61161798Y-65710050D01*
X61166756Y-65640356D01*
X61187554Y-65607998D01*
X61185903Y-65606717D01*
X61190686Y-65600550D01*
X61274281Y-65459198D01*
X61320100Y-65301486D01*
X61320295Y-65299001D01*
X61320295Y-65299000D01*
X58275705Y-65299000D01*
X58275704Y-65299001D01*
X58275899Y-65301486D01*
X58321718Y-65459198D01*
X58349621Y-65506379D01*
X58366804Y-65574103D01*
X58344644Y-65640365D01*
X58290178Y-65684129D01*
X58242889Y-65693500D01*
X57271237Y-65693500D01*
X57255620Y-65691776D01*
X57255593Y-65692062D01*
X57247831Y-65691327D01*
X57180644Y-65693439D01*
X57176750Y-65693500D01*
X57149150Y-65693500D01*
X57145462Y-65693965D01*
X57145149Y-65694005D01*
X57133531Y-65694918D01*
X57089872Y-65696290D01*
X57089869Y-65696291D01*
X57070626Y-65701881D01*
X57051583Y-65705825D01*
X57031704Y-65708336D01*
X57031703Y-65708337D01*
X56991093Y-65724415D01*
X56980048Y-65728197D01*
X56938108Y-65740383D01*
X56938104Y-65740385D01*
X56920865Y-65750580D01*
X56903398Y-65759137D01*
X56884769Y-65766512D01*
X56884767Y-65766514D01*
X56849426Y-65792189D01*
X56839668Y-65798599D01*
X56802080Y-65820828D01*
X56787908Y-65835000D01*
X56773123Y-65847628D01*
X56756912Y-65859407D01*
X56729071Y-65893059D01*
X56721211Y-65901696D01*
X54480208Y-68142699D01*
X54467951Y-68152520D01*
X54468134Y-68152741D01*
X54462122Y-68157714D01*
X54416098Y-68206723D01*
X54413391Y-68209516D01*
X54393889Y-68229017D01*
X54393875Y-68229034D01*
X54391407Y-68232215D01*
X54383843Y-68241070D01*
X54353937Y-68272918D01*
X54353936Y-68272920D01*
X54344284Y-68290476D01*
X54333610Y-68306726D01*
X54321329Y-68322561D01*
X54321324Y-68322568D01*
X54303975Y-68362658D01*
X54298838Y-68373144D01*
X54277803Y-68411406D01*
X54272822Y-68430807D01*
X54266521Y-68449210D01*
X54258562Y-68467602D01*
X54258561Y-68467605D01*
X54251728Y-68510743D01*
X54249360Y-68522174D01*
X54238501Y-68564471D01*
X54238500Y-68564482D01*
X54238500Y-68584516D01*
X54236973Y-68603915D01*
X54233840Y-68623694D01*
X54233840Y-68623695D01*
X54237950Y-68667174D01*
X54238500Y-68678843D01*
X54238500Y-72780215D01*
X54218815Y-72847254D01*
X54166011Y-72893009D01*
X54101898Y-72903573D01*
X54017988Y-72895000D01*
X53805500Y-72895000D01*
X53805500Y-75694999D01*
X54017972Y-75694999D01*
X54017986Y-75694998D01*
X54101898Y-75686426D01*
X54170591Y-75699195D01*
X54221475Y-75747076D01*
X54238500Y-75809784D01*
X54238500Y-76905546D01*
X54218815Y-76972585D01*
X54202181Y-76993227D01*
X53033646Y-78161761D01*
X52972323Y-78195246D01*
X52913873Y-78193855D01*
X52813408Y-78166937D01*
X52578001Y-78146341D01*
X52577999Y-78146341D01*
X52342596Y-78166936D01*
X52342586Y-78166938D01*
X52114344Y-78228094D01*
X52114335Y-78228098D01*
X51900171Y-78327964D01*
X51900169Y-78327965D01*
X51706597Y-78463505D01*
X51539505Y-78630597D01*
X51409575Y-78816158D01*
X51354998Y-78859783D01*
X51285500Y-78866977D01*
X51223145Y-78835454D01*
X51206425Y-78816158D01*
X51076494Y-78630597D01*
X50909402Y-78463506D01*
X50909395Y-78463501D01*
X50715834Y-78327967D01*
X50715830Y-78327965D01*
X50712328Y-78326332D01*
X50501663Y-78228097D01*
X50501659Y-78228096D01*
X50501655Y-78228094D01*
X50273413Y-78166938D01*
X50273403Y-78166936D01*
X50038001Y-78146341D01*
X50037999Y-78146341D01*
X49802596Y-78166936D01*
X49802586Y-78166938D01*
X49574344Y-78228094D01*
X49574335Y-78228098D01*
X49360171Y-78327964D01*
X49360169Y-78327965D01*
X49166597Y-78463505D01*
X48999505Y-78630597D01*
X48863965Y-78824169D01*
X48863964Y-78824171D01*
X48764098Y-79038335D01*
X48764094Y-79038344D01*
X48702938Y-79266586D01*
X48702936Y-79266596D01*
X48682341Y-79501999D01*
X48682341Y-79502000D01*
X48702936Y-79737403D01*
X48702938Y-79737413D01*
X48764094Y-79965655D01*
X48764096Y-79965659D01*
X48764097Y-79965663D01*
X48844004Y-80137023D01*
X48863965Y-80179830D01*
X48863967Y-80179834D01*
X48965529Y-80324879D01*
X48999505Y-80373401D01*
X49166599Y-80540495D01*
X49169917Y-80542818D01*
X49360165Y-80676032D01*
X49360167Y-80676033D01*
X49360170Y-80676035D01*
X49574337Y-80775903D01*
X49574343Y-80775904D01*
X49574344Y-80775905D01*
X49616506Y-80787202D01*
X49802592Y-80837063D01*
X49973319Y-80852000D01*
X50037999Y-80857659D01*
X50038000Y-80857659D01*
X50038001Y-80857659D01*
X50102681Y-80852000D01*
X50273408Y-80837063D01*
X50501663Y-80775903D01*
X50715830Y-80676035D01*
X50909401Y-80540495D01*
X51076495Y-80373401D01*
X51206425Y-80187842D01*
X51261002Y-80144217D01*
X51330500Y-80137023D01*
X51392855Y-80168546D01*
X51409575Y-80187842D01*
X51539500Y-80373395D01*
X51539505Y-80373401D01*
X51706599Y-80540495D01*
X51706601Y-80540496D01*
X51706603Y-80540498D01*
X51739036Y-80563208D01*
X51899624Y-80675653D01*
X51943248Y-80730228D01*
X51952500Y-80777226D01*
X51952500Y-80816255D01*
X51950775Y-80831872D01*
X51951061Y-80831899D01*
X51950326Y-80839665D01*
X51952439Y-80906872D01*
X51952500Y-80910767D01*
X51952500Y-80938357D01*
X51953003Y-80942335D01*
X51953918Y-80953967D01*
X51955290Y-80997624D01*
X51955291Y-80997627D01*
X51960880Y-81016867D01*
X51964824Y-81035911D01*
X51966046Y-81045580D01*
X51967336Y-81055792D01*
X51983414Y-81096403D01*
X51987197Y-81107452D01*
X51999381Y-81149388D01*
X52009580Y-81166634D01*
X52018138Y-81184103D01*
X52025514Y-81202732D01*
X52051181Y-81238060D01*
X52057593Y-81247821D01*
X52079828Y-81285417D01*
X52079833Y-81285424D01*
X52093990Y-81299580D01*
X52106628Y-81314376D01*
X52118405Y-81330586D01*
X52118406Y-81330587D01*
X52152057Y-81358425D01*
X52160698Y-81366288D01*
X53624112Y-82829702D01*
X53657597Y-82891025D01*
X53652613Y-82960717D01*
X53641970Y-82982479D01*
X53551189Y-83129659D01*
X53551186Y-83129666D01*
X53496001Y-83296203D01*
X53496001Y-83296204D01*
X53496000Y-83296204D01*
X53485500Y-83398983D01*
X53485500Y-84749001D01*
X53485501Y-84749018D01*
X53496000Y-84851796D01*
X53496001Y-84851799D01*
X53551185Y-85018331D01*
X53551186Y-85018334D01*
X53643288Y-85167656D01*
X53767344Y-85291712D01*
X53916666Y-85383814D01*
X53916668Y-85383815D01*
X53925363Y-85386696D01*
X53982809Y-85426467D01*
X54009634Y-85490982D01*
X54010300Y-85500484D01*
X54010438Y-85504848D01*
X54010500Y-85508767D01*
X54010500Y-85536357D01*
X54011003Y-85540335D01*
X54011918Y-85551967D01*
X54013290Y-85595624D01*
X54013291Y-85595627D01*
X54018880Y-85614867D01*
X54022824Y-85633911D01*
X54024584Y-85647837D01*
X54025336Y-85653792D01*
X54041414Y-85694403D01*
X54045197Y-85705452D01*
X54057381Y-85747388D01*
X54067580Y-85764634D01*
X54076138Y-85782103D01*
X54083514Y-85800732D01*
X54109181Y-85836060D01*
X54115593Y-85845821D01*
X54137828Y-85883417D01*
X54137833Y-85883424D01*
X54151990Y-85897580D01*
X54164628Y-85912376D01*
X54176405Y-85928586D01*
X54176406Y-85928587D01*
X54210057Y-85956425D01*
X54218698Y-85964288D01*
X56869909Y-88615500D01*
X56903394Y-88676823D01*
X56898410Y-88746515D01*
X56856538Y-88802448D01*
X56853351Y-88804756D01*
X56746597Y-88879505D01*
X56579505Y-89046597D01*
X56469575Y-89203595D01*
X56414998Y-89247220D01*
X56345500Y-89254414D01*
X56283145Y-89222891D01*
X56266425Y-89203595D01*
X56156494Y-89046597D01*
X55989402Y-88879506D01*
X55989395Y-88879501D01*
X55795834Y-88743967D01*
X55795831Y-88743965D01*
X55795830Y-88743965D01*
X55728297Y-88712474D01*
X55666970Y-88683876D01*
X55623001Y-88645161D01*
X55620955Y-88646749D01*
X55616172Y-88640583D01*
X55616170Y-88640580D01*
X55602006Y-88626416D01*
X55589367Y-88611617D01*
X55577595Y-88595414D01*
X55577594Y-88595412D01*
X55543940Y-88567572D01*
X55535299Y-88559709D01*
X52423660Y-85448069D01*
X52390175Y-85386746D01*
X52395159Y-85317054D01*
X52423656Y-85272711D01*
X52528712Y-85167656D01*
X52620814Y-85018334D01*
X52675999Y-84851797D01*
X52686500Y-84749009D01*
X52686499Y-83398992D01*
X52675999Y-83296203D01*
X52620814Y-83129666D01*
X52528712Y-82980344D01*
X52404656Y-82856288D01*
X52255334Y-82764186D01*
X52088797Y-82709001D01*
X52088795Y-82709000D01*
X51986010Y-82698500D01*
X51085998Y-82698500D01*
X51085980Y-82698501D01*
X50983203Y-82709000D01*
X50983200Y-82709001D01*
X50816668Y-82764185D01*
X50816663Y-82764187D01*
X50667342Y-82856289D01*
X50543289Y-82980342D01*
X50451187Y-83129663D01*
X50451186Y-83129666D01*
X50396001Y-83296203D01*
X50396001Y-83296204D01*
X50396000Y-83296204D01*
X50385500Y-83398983D01*
X50385500Y-84749001D01*
X50385501Y-84749018D01*
X50396000Y-84851796D01*
X50396001Y-84851799D01*
X50451185Y-85018331D01*
X50451186Y-85018334D01*
X50543288Y-85167656D01*
X50667344Y-85291712D01*
X50816666Y-85383814D01*
X50827016Y-85387243D01*
X50884460Y-85427013D01*
X50911285Y-85491528D01*
X50911952Y-85501052D01*
X50913290Y-85543624D01*
X50913291Y-85543627D01*
X50918880Y-85562867D01*
X50922824Y-85581911D01*
X50924557Y-85595624D01*
X50925336Y-85601792D01*
X50941414Y-85642403D01*
X50945197Y-85653452D01*
X50957382Y-85695390D01*
X50963332Y-85705452D01*
X50967580Y-85712634D01*
X50976138Y-85730103D01*
X50983514Y-85748732D01*
X51009181Y-85784060D01*
X51015593Y-85793821D01*
X51037828Y-85831417D01*
X51037833Y-85831424D01*
X51051990Y-85845580D01*
X51064627Y-85860375D01*
X51076406Y-85876587D01*
X51101782Y-85897580D01*
X51110057Y-85904425D01*
X51118698Y-85912288D01*
X54078574Y-88872165D01*
X54112059Y-88933488D01*
X54107075Y-89003180D01*
X54082245Y-89041828D01*
X54082986Y-89042449D01*
X54079512Y-89046589D01*
X53969269Y-89204032D01*
X53914692Y-89247656D01*
X53845193Y-89254849D01*
X53782839Y-89223327D01*
X53766119Y-89204031D01*
X53656113Y-89046926D01*
X53656108Y-89046920D01*
X53489082Y-88879894D01*
X53295578Y-88744399D01*
X53081492Y-88644570D01*
X53081483Y-88644566D01*
X52853326Y-88583432D01*
X52853315Y-88583430D01*
X52618002Y-88562843D01*
X52617998Y-88562843D01*
X52382684Y-88583430D01*
X52382673Y-88583432D01*
X52154516Y-88644566D01*
X52154507Y-88644570D01*
X51940423Y-88744399D01*
X51940421Y-88744400D01*
X51783106Y-88854553D01*
X51783105Y-88854553D01*
X52507548Y-89578995D01*
X52482801Y-89582554D01*
X52358555Y-89639295D01*
X52255327Y-89728742D01*
X52181481Y-89843649D01*
X52155064Y-89933616D01*
X51451594Y-89230146D01*
X51435436Y-89231560D01*
X51415303Y-89247655D01*
X51345805Y-89254849D01*
X51283450Y-89223327D01*
X51266729Y-89204030D01*
X51156494Y-89046597D01*
X50989402Y-88879506D01*
X50989395Y-88879501D01*
X50795834Y-88743967D01*
X50795830Y-88743965D01*
X50743500Y-88719563D01*
X50581663Y-88644097D01*
X50581659Y-88644096D01*
X50581655Y-88644094D01*
X50353413Y-88582938D01*
X50353403Y-88582936D01*
X50118001Y-88562341D01*
X50117999Y-88562341D01*
X49882596Y-88582936D01*
X49882586Y-88582938D01*
X49654344Y-88644094D01*
X49654335Y-88644098D01*
X49440171Y-88743964D01*
X49440169Y-88743965D01*
X49246597Y-88879505D01*
X49079505Y-89046597D01*
X48943965Y-89240169D01*
X48943964Y-89240171D01*
X48844098Y-89454335D01*
X48844094Y-89454344D01*
X48782938Y-89682586D01*
X48782936Y-89682596D01*
X48767500Y-89859032D01*
X48767500Y-90226967D01*
X48782936Y-90403403D01*
X48782938Y-90403413D01*
X48844094Y-90631655D01*
X48844096Y-90631659D01*
X48844097Y-90631663D01*
X48868000Y-90682922D01*
X48943964Y-90845828D01*
X48943965Y-90845830D01*
X49079505Y-91039402D01*
X49246597Y-91206493D01*
X49246599Y-91206495D01*
X49439624Y-91341653D01*
X49483248Y-91396228D01*
X49492500Y-91443226D01*
X49492500Y-93034546D01*
X49472815Y-93101585D01*
X49456181Y-93122227D01*
X47596208Y-94982199D01*
X47583951Y-94992020D01*
X47584134Y-94992241D01*
X47578122Y-94997214D01*
X47532098Y-95046223D01*
X47529391Y-95049016D01*
X47509889Y-95068517D01*
X47509875Y-95068534D01*
X47507407Y-95071715D01*
X47499843Y-95080570D01*
X47469937Y-95112418D01*
X47469936Y-95112420D01*
X47460284Y-95129976D01*
X47449610Y-95146226D01*
X47437329Y-95162061D01*
X47437324Y-95162068D01*
X47419975Y-95202158D01*
X47414838Y-95212644D01*
X47393803Y-95250906D01*
X47388822Y-95270307D01*
X47382521Y-95288710D01*
X47374562Y-95307102D01*
X47374561Y-95307105D01*
X47367728Y-95350243D01*
X47365360Y-95361674D01*
X47354501Y-95403971D01*
X47354500Y-95403982D01*
X47354500Y-95424016D01*
X47352973Y-95443415D01*
X47349840Y-95463194D01*
X47349840Y-95463195D01*
X47353950Y-95506674D01*
X47354500Y-95518343D01*
X47354500Y-95597551D01*
X47334815Y-95664590D01*
X47282011Y-95710345D01*
X47269507Y-95715256D01*
X47260667Y-95718185D01*
X47111342Y-95810289D01*
X46987289Y-95934342D01*
X46895187Y-96083663D01*
X46895186Y-96083666D01*
X46840001Y-96250203D01*
X46840001Y-96250204D01*
X46840000Y-96250204D01*
X46829500Y-96352983D01*
X46829500Y-97703001D01*
X46829501Y-97703018D01*
X46840000Y-97805796D01*
X46840001Y-97805799D01*
X46842022Y-97811897D01*
X46895186Y-97972334D01*
X46987288Y-98121656D01*
X47111344Y-98245712D01*
X47260666Y-98337814D01*
X47269498Y-98340740D01*
X47326944Y-98380508D01*
X47353771Y-98445022D01*
X47354500Y-98458448D01*
X47354500Y-98518551D01*
X47334815Y-98585590D01*
X47282011Y-98631345D01*
X47269507Y-98636256D01*
X47260667Y-98639185D01*
X47111342Y-98731289D01*
X46987289Y-98855342D01*
X46895187Y-99004663D01*
X46895185Y-99004668D01*
X46891037Y-99017186D01*
X46840001Y-99171203D01*
X46840001Y-99171204D01*
X46840000Y-99171204D01*
X46829500Y-99273983D01*
X46829500Y-100624001D01*
X46829501Y-100624018D01*
X46840000Y-100726796D01*
X46840001Y-100726799D01*
X46895185Y-100893331D01*
X46895187Y-100893336D01*
X46896328Y-100895186D01*
X46987288Y-101042656D01*
X47111344Y-101166712D01*
X47260666Y-101258814D01*
X47427203Y-101313999D01*
X47529991Y-101324500D01*
X48430008Y-101324499D01*
X48430016Y-101324498D01*
X48430019Y-101324498D01*
X48486302Y-101318748D01*
X48532797Y-101313999D01*
X48699334Y-101258814D01*
X48848656Y-101166712D01*
X48972712Y-101042656D01*
X49064814Y-100893334D01*
X49119999Y-100726797D01*
X49130500Y-100624009D01*
X49130499Y-99273992D01*
X49128151Y-99251011D01*
X49119999Y-99171203D01*
X49119998Y-99171200D01*
X49064814Y-99004666D01*
X48972712Y-98855344D01*
X48848656Y-98731288D01*
X48699334Y-98639186D01*
X48699333Y-98639185D01*
X48699332Y-98639185D01*
X48690493Y-98636256D01*
X48633049Y-98596482D01*
X48606228Y-98531965D01*
X48605500Y-98518551D01*
X48605500Y-98458448D01*
X48625185Y-98391409D01*
X48677989Y-98345654D01*
X48690488Y-98340744D01*
X48699334Y-98337814D01*
X48848656Y-98245712D01*
X48972712Y-98121656D01*
X49064814Y-97972334D01*
X49119999Y-97805797D01*
X49130500Y-97703009D01*
X49130500Y-97702971D01*
X49930000Y-97702971D01*
X49930001Y-97702989D01*
X49940493Y-97805695D01*
X49942548Y-97811896D01*
X49942549Y-97811897D01*
X50726447Y-97028000D01*
X51433553Y-97028000D01*
X52217449Y-97811897D01*
X52219505Y-97805697D01*
X52219505Y-97805695D01*
X52229999Y-97702985D01*
X52229999Y-97451971D01*
X52829000Y-97451971D01*
X52829001Y-97451987D01*
X52839494Y-97554697D01*
X52894641Y-97721119D01*
X52894643Y-97721124D01*
X52986684Y-97870345D01*
X52990643Y-97874304D01*
X53875447Y-96989500D01*
X54582553Y-96989500D01*
X55467357Y-97874304D01*
X55471315Y-97870345D01*
X55563356Y-97721124D01*
X55563358Y-97721119D01*
X55618505Y-97554697D01*
X55618506Y-97554690D01*
X55628999Y-97451986D01*
X55628999Y-96527028D01*
X55628998Y-96527012D01*
X55618505Y-96424302D01*
X55563358Y-96257880D01*
X55563356Y-96257875D01*
X55471315Y-96108654D01*
X55467357Y-96104696D01*
X54582553Y-96989500D01*
X53875447Y-96989500D01*
X52990643Y-96104696D01*
X52986684Y-96108654D01*
X52894643Y-96257875D01*
X52894641Y-96257880D01*
X52839494Y-96424302D01*
X52839493Y-96424309D01*
X52829000Y-96527013D01*
X52829000Y-97451971D01*
X52229999Y-97451971D01*
X52229999Y-96353028D01*
X52229998Y-96353010D01*
X52219506Y-96250304D01*
X52217450Y-96244101D01*
X52217449Y-96244101D01*
X51433553Y-97027999D01*
X51433553Y-97028000D01*
X50726447Y-97028000D01*
X49942549Y-96244102D01*
X49940493Y-96250305D01*
X49930000Y-96353013D01*
X49930000Y-97702971D01*
X49130500Y-97702971D01*
X49130499Y-96352992D01*
X49119999Y-96250203D01*
X49064814Y-96083666D01*
X48972712Y-95934344D01*
X48848656Y-95810288D01*
X48848655Y-95810287D01*
X48846463Y-95808935D01*
X50214488Y-95808935D01*
X51080000Y-96674447D01*
X51080001Y-96674447D01*
X51917345Y-95837100D01*
X53430153Y-95837100D01*
X54229000Y-96635946D01*
X54229001Y-96635946D01*
X55027845Y-95837099D01*
X54928981Y-95827000D01*
X53529028Y-95827000D01*
X53529010Y-95827001D01*
X53430154Y-95837099D01*
X53430153Y-95837100D01*
X51917345Y-95837100D01*
X51945510Y-95808935D01*
X51799124Y-95718643D01*
X51799119Y-95718641D01*
X51632697Y-95663494D01*
X51632690Y-95663493D01*
X51529980Y-95653000D01*
X50630028Y-95653000D01*
X50630012Y-95653001D01*
X50527302Y-95663494D01*
X50360880Y-95718641D01*
X50360871Y-95718645D01*
X50214488Y-95808934D01*
X50214488Y-95808935D01*
X48846463Y-95808935D01*
X48817278Y-95790934D01*
X48789556Y-95773835D01*
X48742832Y-95721889D01*
X48731609Y-95652926D01*
X48759452Y-95588844D01*
X48766961Y-95580627D01*
X50501786Y-93845802D01*
X50514048Y-93835980D01*
X50513865Y-93835759D01*
X50519868Y-93830791D01*
X50519877Y-93830786D01*
X50565934Y-93781739D01*
X50568582Y-93779006D01*
X50588120Y-93759470D01*
X50590570Y-93756310D01*
X50598154Y-93747429D01*
X50628062Y-93715582D01*
X50637714Y-93698023D01*
X50648389Y-93681772D01*
X50660674Y-93665936D01*
X50678030Y-93625825D01*
X50683161Y-93615354D01*
X50684657Y-93612634D01*
X50704197Y-93577092D01*
X50709180Y-93557680D01*
X50715477Y-93539291D01*
X50723438Y-93520895D01*
X50730270Y-93477748D01*
X50732639Y-93466316D01*
X50743499Y-93424022D01*
X50743500Y-93424017D01*
X50743500Y-93403983D01*
X50745027Y-93384582D01*
X50745064Y-93384350D01*
X50748160Y-93364804D01*
X50744050Y-93321324D01*
X50743500Y-93309655D01*
X50743500Y-91443225D01*
X50763185Y-91376186D01*
X50796373Y-91341653D01*
X50989401Y-91206495D01*
X51156495Y-91039401D01*
X51266732Y-90881965D01*
X51321306Y-90838342D01*
X51390805Y-90831148D01*
X51437178Y-90854591D01*
X51451594Y-90855852D01*
X52155064Y-90152382D01*
X52181481Y-90242351D01*
X52255327Y-90357258D01*
X52358555Y-90446705D01*
X52482801Y-90503446D01*
X52507548Y-90507004D01*
X51783105Y-91231445D01*
X51940423Y-91341601D01*
X52154507Y-91441429D01*
X52154516Y-91441433D01*
X52382673Y-91502567D01*
X52382684Y-91502569D01*
X52617998Y-91523157D01*
X52618002Y-91523157D01*
X52853315Y-91502569D01*
X52853326Y-91502567D01*
X53081483Y-91441433D01*
X53081492Y-91441429D01*
X53295575Y-91341601D01*
X53452893Y-91231445D01*
X52728451Y-90507004D01*
X52753199Y-90503446D01*
X52877445Y-90446705D01*
X52980673Y-90357258D01*
X53054519Y-90242351D01*
X53080935Y-90152383D01*
X53784404Y-90855852D01*
X53800551Y-90854440D01*
X53820698Y-90838338D01*
X53890197Y-90831147D01*
X53952550Y-90862672D01*
X53969267Y-90881965D01*
X54079505Y-91039402D01*
X54246597Y-91206493D01*
X54246599Y-91206495D01*
X54439624Y-91341653D01*
X54483248Y-91396228D01*
X54492500Y-91443226D01*
X54492500Y-93262255D01*
X54490775Y-93277872D01*
X54491061Y-93277899D01*
X54490326Y-93285665D01*
X54492439Y-93352872D01*
X54492500Y-93356767D01*
X54492500Y-93384357D01*
X54493003Y-93388335D01*
X54493918Y-93399967D01*
X54495290Y-93443624D01*
X54495291Y-93443627D01*
X54500880Y-93462867D01*
X54504824Y-93481911D01*
X54507336Y-93501792D01*
X54523414Y-93542403D01*
X54527197Y-93553452D01*
X54539381Y-93595388D01*
X54549580Y-93612634D01*
X54558138Y-93630103D01*
X54565514Y-93648732D01*
X54591181Y-93684060D01*
X54597593Y-93693821D01*
X54619828Y-93731417D01*
X54619833Y-93731424D01*
X54633990Y-93745580D01*
X54646628Y-93760376D01*
X54658405Y-93776586D01*
X54658406Y-93776587D01*
X54692057Y-93804425D01*
X54700698Y-93812288D01*
X59663181Y-98774771D01*
X59696666Y-98836094D01*
X59699500Y-98862452D01*
X59699500Y-100712934D01*
X59679815Y-100779973D01*
X59627011Y-100825728D01*
X59588104Y-100836292D01*
X59551802Y-100840001D01*
X59551800Y-100840001D01*
X59385268Y-100895185D01*
X59385263Y-100895187D01*
X59235942Y-100987289D01*
X59111889Y-101111342D01*
X59019787Y-101260663D01*
X59019785Y-101260668D01*
X59011956Y-101284294D01*
X58964601Y-101427203D01*
X58964601Y-101427204D01*
X58964600Y-101427204D01*
X58954100Y-101529983D01*
X58954100Y-102430001D01*
X58954101Y-102430019D01*
X58964600Y-102532796D01*
X58964601Y-102532799D01*
X58972307Y-102556053D01*
X59019786Y-102699334D01*
X59111888Y-102848656D01*
X59235944Y-102972712D01*
X59385266Y-103064814D01*
X59551803Y-103119999D01*
X59654591Y-103130500D01*
X59976833Y-103130499D01*
X60029630Y-103142301D01*
X60130171Y-103189613D01*
X60130174Y-103189614D01*
X60285412Y-103219227D01*
X60443138Y-103209304D01*
X60593441Y-103160467D01*
X60595636Y-103159073D01*
X60610247Y-103149802D01*
X60676688Y-103130499D01*
X61004602Y-103130499D01*
X61004608Y-103130499D01*
X61107397Y-103119999D01*
X61273934Y-103064814D01*
X61423256Y-102972712D01*
X61547312Y-102848656D01*
X61639414Y-102699334D01*
X61694599Y-102532797D01*
X61705100Y-102430009D01*
X61705099Y-101529992D01*
X61694599Y-101427203D01*
X61639414Y-101260666D01*
X61547312Y-101111344D01*
X61423256Y-100987288D01*
X61273934Y-100895186D01*
X61107397Y-100840001D01*
X61107395Y-100840000D01*
X61061896Y-100835352D01*
X60997205Y-100808955D01*
X60957054Y-100751774D01*
X60950500Y-100711994D01*
X60950500Y-98634742D01*
X60952224Y-98619122D01*
X60951939Y-98619096D01*
X60952671Y-98611340D01*
X60952673Y-98611333D01*
X60950561Y-98544126D01*
X60950500Y-98540231D01*
X60950500Y-98512654D01*
X60950500Y-98512650D01*
X60949996Y-98508665D01*
X60949080Y-98497021D01*
X60947709Y-98453373D01*
X60942122Y-98434144D01*
X60938174Y-98415084D01*
X60935663Y-98395204D01*
X60919588Y-98354604D01*
X60915804Y-98343552D01*
X60903618Y-98301609D01*
X60903616Y-98301606D01*
X60893423Y-98284371D01*
X60884861Y-98266894D01*
X60877487Y-98248269D01*
X60851816Y-98212937D01*
X60845405Y-98203177D01*
X60823170Y-98165580D01*
X60823168Y-98165578D01*
X60823165Y-98165574D01*
X60809006Y-98151415D01*
X60796368Y-98136619D01*
X60784594Y-98120413D01*
X60750940Y-98092572D01*
X60742299Y-98084709D01*
X55779819Y-93122228D01*
X55746334Y-93060905D01*
X55743500Y-93034547D01*
X55743500Y-91443225D01*
X55763185Y-91376186D01*
X55796373Y-91341653D01*
X55989401Y-91206495D01*
X56156495Y-91039401D01*
X56266426Y-90882401D01*
X56321001Y-90838778D01*
X56390500Y-90831584D01*
X56452855Y-90863106D01*
X56469571Y-90882398D01*
X56496457Y-90920795D01*
X56579506Y-91039403D01*
X56746597Y-91206493D01*
X56746599Y-91206495D01*
X56789675Y-91236657D01*
X56940165Y-91342032D01*
X56940167Y-91342033D01*
X56940170Y-91342035D01*
X57154337Y-91441903D01*
X57154343Y-91441904D01*
X57154344Y-91441905D01*
X57195050Y-91452812D01*
X57382592Y-91503063D01*
X57559034Y-91518500D01*
X57617999Y-91523659D01*
X57618000Y-91523659D01*
X57618001Y-91523659D01*
X57676966Y-91518500D01*
X57853408Y-91503063D01*
X58081663Y-91441903D01*
X58295829Y-91342035D01*
X58489401Y-91206495D01*
X58636602Y-91059293D01*
X58697924Y-91025810D01*
X58767615Y-91030794D01*
X58823549Y-91072665D01*
X58829821Y-91081879D01*
X58833186Y-91087334D01*
X58925288Y-91236656D01*
X59049344Y-91360712D01*
X59198666Y-91452814D01*
X59365203Y-91507999D01*
X59467991Y-91518500D01*
X60768008Y-91518499D01*
X60870797Y-91507999D01*
X61037334Y-91452814D01*
X61186656Y-91360712D01*
X61310712Y-91236656D01*
X61402814Y-91087334D01*
X61457999Y-90920797D01*
X61468500Y-90818009D01*
X61468499Y-89267992D01*
X61467156Y-89254849D01*
X61457999Y-89165203D01*
X61457998Y-89165200D01*
X61420104Y-89050845D01*
X61402814Y-88998666D01*
X61310712Y-88849344D01*
X61186656Y-88725288D01*
X61055784Y-88644566D01*
X61037336Y-88633187D01*
X61037331Y-88633185D01*
X61035862Y-88632698D01*
X60870797Y-88578001D01*
X60866965Y-88577609D01*
X60854894Y-88576376D01*
X60790203Y-88549978D01*
X60750053Y-88492796D01*
X60743500Y-88453018D01*
X60743500Y-88267738D01*
X60745224Y-88252124D01*
X60744938Y-88252097D01*
X60745672Y-88244334D01*
X60743561Y-88177144D01*
X60743500Y-88173250D01*
X60743500Y-88145651D01*
X60743500Y-88145650D01*
X60742997Y-88141670D01*
X60742080Y-88130021D01*
X60740709Y-88086373D01*
X60735122Y-88067144D01*
X60731174Y-88048084D01*
X60731089Y-88047411D01*
X60728664Y-88028208D01*
X60712585Y-87987597D01*
X60708804Y-87976552D01*
X60696619Y-87934612D01*
X60686418Y-87917363D01*
X60677860Y-87899894D01*
X60670486Y-87881268D01*
X60670483Y-87881264D01*
X60670483Y-87881263D01*
X60644816Y-87845935D01*
X60638403Y-87836172D01*
X60616172Y-87798583D01*
X60616170Y-87798579D01*
X60616166Y-87798575D01*
X60616163Y-87798571D01*
X60602005Y-87784413D01*
X60589370Y-87769620D01*
X60577593Y-87753412D01*
X60543945Y-87725576D01*
X60535304Y-87717713D01*
X58265660Y-85448069D01*
X58232175Y-85386746D01*
X58237159Y-85317054D01*
X58265656Y-85272711D01*
X58370712Y-85167656D01*
X58462814Y-85018334D01*
X58517999Y-84851797D01*
X58528500Y-84749009D01*
X58528499Y-83398992D01*
X58517999Y-83296203D01*
X58462814Y-83129666D01*
X58370712Y-82980344D01*
X58246656Y-82856288D01*
X58097334Y-82764186D01*
X58038736Y-82744768D01*
X57981292Y-82704996D01*
X57958665Y-82661657D01*
X57956618Y-82654610D01*
X57956616Y-82654606D01*
X57956615Y-82654603D01*
X57946423Y-82637371D01*
X57937861Y-82619894D01*
X57930487Y-82601269D01*
X57908192Y-82570583D01*
X57904811Y-82565930D01*
X57898405Y-82556177D01*
X57876170Y-82518580D01*
X57876168Y-82518578D01*
X57876165Y-82518574D01*
X57862006Y-82504415D01*
X57849368Y-82489619D01*
X57837594Y-82473413D01*
X57803940Y-82445572D01*
X57795299Y-82437709D01*
X56031424Y-80673833D01*
X55997939Y-80612510D01*
X56002923Y-80542818D01*
X56031420Y-80498475D01*
X56156495Y-80373401D01*
X56286425Y-80187842D01*
X56341002Y-80144217D01*
X56410500Y-80137023D01*
X56472855Y-80168546D01*
X56489575Y-80187842D01*
X56619500Y-80373395D01*
X56619505Y-80373401D01*
X56786599Y-80540495D01*
X56789917Y-80542818D01*
X56980165Y-80676032D01*
X56980167Y-80676033D01*
X56980170Y-80676035D01*
X57194337Y-80775903D01*
X57194343Y-80775904D01*
X57194344Y-80775905D01*
X57236506Y-80787202D01*
X57422592Y-80837063D01*
X57433386Y-80838007D01*
X57498456Y-80863457D01*
X57510264Y-80873854D01*
X59466112Y-82829703D01*
X59499597Y-82891026D01*
X59494613Y-82960718D01*
X59483970Y-82982480D01*
X59393189Y-83129659D01*
X59393186Y-83129666D01*
X59338001Y-83296203D01*
X59338001Y-83296204D01*
X59338000Y-83296204D01*
X59327500Y-83398983D01*
X59327500Y-84749001D01*
X59327501Y-84749018D01*
X59338000Y-84851796D01*
X59338001Y-84851799D01*
X59393185Y-85018331D01*
X59393186Y-85018334D01*
X59485288Y-85167656D01*
X59609344Y-85291712D01*
X59758666Y-85383814D01*
X59925203Y-85438999D01*
X60027991Y-85449500D01*
X60928008Y-85449499D01*
X60928016Y-85449498D01*
X60928019Y-85449498D01*
X60984302Y-85443748D01*
X61030797Y-85438999D01*
X61197334Y-85383814D01*
X61346656Y-85291712D01*
X61470712Y-85167656D01*
X61562814Y-85018334D01*
X61617999Y-84851797D01*
X61628500Y-84749009D01*
X61628499Y-83398992D01*
X61617999Y-83296203D01*
X61562814Y-83129666D01*
X61470712Y-82980344D01*
X61346656Y-82856288D01*
X61197334Y-82764186D01*
X61197333Y-82764185D01*
X61197325Y-82764182D01*
X61110806Y-82735512D01*
X61053361Y-82695739D01*
X61034518Y-82663453D01*
X61034517Y-82663451D01*
X61030486Y-82653268D01*
X61030484Y-82653265D01*
X61030483Y-82653263D01*
X61004816Y-82617935D01*
X60998403Y-82608172D01*
X60976172Y-82570583D01*
X60976170Y-82570579D01*
X60976165Y-82570574D01*
X60976163Y-82570571D01*
X60962005Y-82556413D01*
X60949370Y-82541620D01*
X60937593Y-82525412D01*
X60903945Y-82497576D01*
X60895304Y-82489713D01*
X59469272Y-81063681D01*
X59435787Y-81002358D01*
X59440771Y-80932666D01*
X59482643Y-80876733D01*
X59548107Y-80852316D01*
X59556953Y-80852000D01*
X61095828Y-80852000D01*
X61095844Y-80851999D01*
X61155375Y-80845598D01*
X61179170Y-80836723D01*
X61179170Y-80836722D01*
X60330534Y-79988086D01*
X60340315Y-79986680D01*
X60471100Y-79926952D01*
X60579761Y-79832798D01*
X60657493Y-79711844D01*
X60681076Y-79631524D01*
X61532722Y-80483170D01*
X61532723Y-80483170D01*
X61541598Y-80459375D01*
X61547999Y-80399844D01*
X61548000Y-80399827D01*
X61548000Y-78604172D01*
X61547999Y-78604155D01*
X61541598Y-78544627D01*
X61541597Y-78544623D01*
X61532722Y-78520829D01*
X60681076Y-79372475D01*
X60657493Y-79292156D01*
X60579761Y-79171202D01*
X60471100Y-79077048D01*
X60340315Y-79017320D01*
X60330533Y-79015913D01*
X61179170Y-78167276D01*
X61155373Y-78158401D01*
X61095844Y-78152000D01*
X60827500Y-78152000D01*
X60760461Y-78132315D01*
X60714706Y-78079511D01*
X60703500Y-78028000D01*
X60703500Y-69783010D01*
X60703500Y-69783000D01*
X60703498Y-69782990D01*
X60703322Y-69779694D01*
X60703500Y-69779684D01*
X60703500Y-69779679D01*
X60703601Y-69779679D01*
X60704421Y-69779634D01*
X60716004Y-69715336D01*
X60763601Y-69664186D01*
X60792308Y-69651735D01*
X60831705Y-69640288D01*
X60933398Y-69610744D01*
X60962307Y-69593647D01*
X61030028Y-69576464D01*
X61096291Y-69598623D01*
X61113108Y-69612698D01*
X61670830Y-70170420D01*
X62376082Y-70875672D01*
X62409566Y-70936994D01*
X62412400Y-70963352D01*
X62412400Y-71907000D01*
X62804950Y-71907000D01*
X62871989Y-71926685D01*
X62917744Y-71979489D01*
X62927688Y-72048647D01*
X62921132Y-72074333D01*
X62874403Y-72199619D01*
X62874401Y-72199627D01*
X62868000Y-72259155D01*
X62868000Y-72907000D01*
X63784314Y-72907000D01*
X63758507Y-72947156D01*
X63718000Y-73085111D01*
X63718000Y-73228889D01*
X63758507Y-73366844D01*
X63784314Y-73407000D01*
X62868000Y-73407000D01*
X62868000Y-74054844D01*
X62874401Y-74114372D01*
X62874403Y-74114379D01*
X62924645Y-74249086D01*
X62924649Y-74249093D01*
X63010809Y-74364187D01*
X63010812Y-74364190D01*
X63125906Y-74450350D01*
X63125913Y-74450354D01*
X63260620Y-74500596D01*
X63260627Y-74500598D01*
X63320155Y-74506999D01*
X63320172Y-74507000D01*
X63968000Y-74507000D01*
X63968000Y-73592501D01*
X64075685Y-73641680D01*
X64182237Y-73657000D01*
X64253763Y-73657000D01*
X64360315Y-73641680D01*
X64468000Y-73592501D01*
X64468000Y-74507000D01*
X65115828Y-74507000D01*
X65115844Y-74506999D01*
X65175372Y-74500598D01*
X65175379Y-74500596D01*
X65310086Y-74450354D01*
X65310093Y-74450350D01*
X65425187Y-74364190D01*
X65425190Y-74364187D01*
X65511350Y-74249093D01*
X65511354Y-74249086D01*
X65561596Y-74114379D01*
X65561598Y-74114372D01*
X65567999Y-74054844D01*
X65568000Y-74054827D01*
X65568000Y-73407000D01*
X64651686Y-73407000D01*
X64677493Y-73366844D01*
X64718000Y-73228889D01*
X64718000Y-73085111D01*
X64677493Y-72947156D01*
X64651686Y-72907000D01*
X65568000Y-72907000D01*
X65568000Y-72259172D01*
X65567999Y-72259155D01*
X65561598Y-72199627D01*
X65561596Y-72199619D01*
X65514868Y-72074333D01*
X65509884Y-72004641D01*
X65543369Y-71943318D01*
X65604693Y-71909834D01*
X65631050Y-71907000D01*
X66708000Y-71907000D01*
X66775039Y-71926685D01*
X66820794Y-71979489D01*
X66832000Y-72031000D01*
X66832000Y-103787000D01*
X66812315Y-103854039D01*
X66759511Y-103899794D01*
X66708000Y-103911000D01*
X56622947Y-103911000D01*
X56068000Y-103356053D01*
X55513053Y-103911000D01*
X55045501Y-103911000D01*
X54978462Y-103891315D01*
X54932707Y-103838511D01*
X54922763Y-103769353D01*
X54926425Y-103752405D01*
X54965597Y-103617573D01*
X54965598Y-103617567D01*
X54968499Y-103580701D01*
X54968500Y-103580694D01*
X54968500Y-102556052D01*
X55268000Y-102556052D01*
X55268000Y-103448947D01*
X55714447Y-103002500D01*
X56421553Y-103002500D01*
X56867999Y-103448947D01*
X56868000Y-103448946D01*
X56868000Y-102556053D01*
X56867999Y-102556052D01*
X56421553Y-103002499D01*
X56421553Y-103002500D01*
X55714447Y-103002500D01*
X55714447Y-103002499D01*
X55268000Y-102556052D01*
X54968500Y-102556052D01*
X54968500Y-102424306D01*
X54965598Y-102387431D01*
X54919744Y-102229602D01*
X54906185Y-102206675D01*
X54871768Y-102148477D01*
X54854500Y-102085357D01*
X54854500Y-102034854D01*
X55453907Y-102034854D01*
X56068000Y-102648947D01*
X56682093Y-102034854D01*
X56619557Y-101972318D01*
X56619552Y-101972314D01*
X56478196Y-101888717D01*
X56478193Y-101888716D01*
X56320495Y-101842900D01*
X56320489Y-101842899D01*
X56283649Y-101840000D01*
X55852350Y-101840000D01*
X55815510Y-101842899D01*
X55815504Y-101842900D01*
X55657806Y-101888716D01*
X55657803Y-101888717D01*
X55516447Y-101972314D01*
X55516442Y-101972318D01*
X55453907Y-102034854D01*
X54854500Y-102034854D01*
X54854500Y-101397088D01*
X54874185Y-101330049D01*
X54926989Y-101284294D01*
X54965897Y-101273730D01*
X55031797Y-101266999D01*
X55198334Y-101211814D01*
X55347656Y-101119712D01*
X55471712Y-100995656D01*
X55563814Y-100846334D01*
X55618999Y-100679797D01*
X55629500Y-100577009D01*
X55629499Y-99651992D01*
X55618999Y-99549203D01*
X55563814Y-99382666D01*
X55471712Y-99233344D01*
X55347656Y-99109288D01*
X55198334Y-99017186D01*
X55031797Y-98962001D01*
X55031795Y-98962000D01*
X54929010Y-98951500D01*
X53528998Y-98951500D01*
X53528981Y-98951501D01*
X53426203Y-98962000D01*
X53426200Y-98962001D01*
X53259668Y-99017185D01*
X53259663Y-99017187D01*
X53110342Y-99109289D01*
X52986290Y-99233341D01*
X52986288Y-99233343D01*
X52986288Y-99233344D01*
X52967010Y-99264598D01*
X52915064Y-99311322D01*
X52861473Y-99323500D01*
X52347535Y-99323500D01*
X52280496Y-99303815D01*
X52234741Y-99251011D01*
X52224177Y-99212102D01*
X52223663Y-99207071D01*
X52219999Y-99171203D01*
X52164814Y-99004666D01*
X52072712Y-98855344D01*
X51948656Y-98731288D01*
X51799334Y-98639186D01*
X51699010Y-98605942D01*
X51641567Y-98566170D01*
X51614744Y-98501655D01*
X51627059Y-98432879D01*
X51674602Y-98381679D01*
X51699012Y-98370531D01*
X51799119Y-98337358D01*
X51799124Y-98337356D01*
X51945510Y-98247064D01*
X51945510Y-98247062D01*
X51840347Y-98141899D01*
X53430153Y-98141899D01*
X53529019Y-98151999D01*
X54928972Y-98151999D01*
X54928987Y-98151998D01*
X55027845Y-98141899D01*
X54229001Y-97343053D01*
X54229000Y-97343053D01*
X53430153Y-98141899D01*
X51840347Y-98141899D01*
X51080000Y-97381553D01*
X50214488Y-98247063D01*
X50360875Y-98337356D01*
X50360880Y-98337358D01*
X50460987Y-98370530D01*
X50518432Y-98410302D01*
X50545255Y-98474818D01*
X50532940Y-98543594D01*
X50485397Y-98594794D01*
X50460988Y-98605942D01*
X50360666Y-98639186D01*
X50360663Y-98639187D01*
X50211342Y-98731289D01*
X50087289Y-98855342D01*
X49995187Y-99004663D01*
X49995185Y-99004668D01*
X49991037Y-99017186D01*
X49940001Y-99171203D01*
X49940001Y-99171204D01*
X49940000Y-99171204D01*
X49929500Y-99273983D01*
X49929500Y-100624001D01*
X49929501Y-100624018D01*
X49940000Y-100726796D01*
X49940001Y-100726799D01*
X49995185Y-100893331D01*
X49995187Y-100893336D01*
X49996328Y-100895186D01*
X50087288Y-101042656D01*
X50211344Y-101166712D01*
X50360666Y-101258814D01*
X50527203Y-101313999D01*
X50629991Y-101324500D01*
X51530008Y-101324499D01*
X51530016Y-101324498D01*
X51530019Y-101324498D01*
X51586302Y-101318748D01*
X51632797Y-101313999D01*
X51799334Y-101258814D01*
X51948656Y-101166712D01*
X52072712Y-101042656D01*
X52164814Y-100893334D01*
X52219999Y-100726797D01*
X52224177Y-100685896D01*
X52250573Y-100621207D01*
X52307753Y-100581055D01*
X52347535Y-100574500D01*
X52716266Y-100574500D01*
X52783305Y-100594185D01*
X52829060Y-100646989D01*
X52836255Y-100673465D01*
X52837585Y-100673181D01*
X52839001Y-100679799D01*
X52872196Y-100779973D01*
X52894186Y-100846334D01*
X52986288Y-100995656D01*
X53110344Y-101119712D01*
X53259666Y-101211814D01*
X53426203Y-101266999D01*
X53492103Y-101273731D01*
X53556794Y-101300127D01*
X53596945Y-101357307D01*
X53603500Y-101397089D01*
X53603500Y-101933191D01*
X53583815Y-102000230D01*
X53567181Y-102020872D01*
X53499923Y-102088129D01*
X53499917Y-102088137D01*
X53416255Y-102229603D01*
X53416254Y-102229606D01*
X53370402Y-102387426D01*
X53370401Y-102387432D01*
X53367500Y-102424298D01*
X53367500Y-103580701D01*
X53370401Y-103617567D01*
X53370402Y-103617573D01*
X53409575Y-103752405D01*
X53409376Y-103822275D01*
X53371434Y-103880945D01*
X53307795Y-103909788D01*
X53290499Y-103911000D01*
X43588000Y-103911000D01*
X43520961Y-103891315D01*
X43475206Y-103838511D01*
X43464000Y-103787000D01*
X43464000Y-74545000D01*
X52393001Y-74545000D01*
X52393001Y-74994986D01*
X52403494Y-75097697D01*
X52458641Y-75264119D01*
X52458643Y-75264124D01*
X52550684Y-75413345D01*
X52674654Y-75537315D01*
X52823875Y-75629356D01*
X52823880Y-75629358D01*
X52990302Y-75684505D01*
X52990309Y-75684506D01*
X53093019Y-75694999D01*
X53305499Y-75694999D01*
X53305500Y-75694998D01*
X53305500Y-74545000D01*
X52393001Y-74545000D01*
X43464000Y-74545000D01*
X43464000Y-72031000D01*
X43483685Y-71963961D01*
X43536489Y-71918206D01*
X43588000Y-71907000D01*
X44832802Y-71907000D01*
X44899841Y-71926685D01*
X44945596Y-71979489D01*
X44955540Y-72048647D01*
X44946404Y-72076100D01*
X44947746Y-72076601D01*
X44894403Y-72219620D01*
X44894401Y-72219627D01*
X44888000Y-72279155D01*
X44888000Y-72927000D01*
X45804314Y-72927000D01*
X45778507Y-72967156D01*
X45738000Y-73105111D01*
X45738000Y-73248889D01*
X45778507Y-73386844D01*
X45804314Y-73427000D01*
X44888000Y-73427000D01*
X44888000Y-74074844D01*
X44894401Y-74134372D01*
X44894403Y-74134379D01*
X44944645Y-74269086D01*
X44944649Y-74269093D01*
X45030809Y-74384187D01*
X45030812Y-74384190D01*
X45145906Y-74470350D01*
X45145913Y-74470354D01*
X45280620Y-74520596D01*
X45280627Y-74520598D01*
X45340155Y-74526999D01*
X45340172Y-74527000D01*
X45988000Y-74527000D01*
X45988000Y-73612501D01*
X46095685Y-73661680D01*
X46202237Y-73677000D01*
X46273763Y-73677000D01*
X46380315Y-73661680D01*
X46488000Y-73612501D01*
X46488000Y-74527000D01*
X47135828Y-74527000D01*
X47135844Y-74526999D01*
X47195372Y-74520598D01*
X47195379Y-74520596D01*
X47330086Y-74470354D01*
X47330093Y-74470350D01*
X47445187Y-74384190D01*
X47445190Y-74384187D01*
X47531350Y-74269093D01*
X47531354Y-74269086D01*
X47581596Y-74134379D01*
X47581598Y-74134372D01*
X47587999Y-74074844D01*
X47588000Y-74074827D01*
X47588000Y-74045000D01*
X52393000Y-74045000D01*
X53305500Y-74045000D01*
X53305500Y-72895000D01*
X53093029Y-72895000D01*
X53093012Y-72895001D01*
X52990302Y-72905494D01*
X52823880Y-72960641D01*
X52823875Y-72960643D01*
X52674654Y-73052684D01*
X52550684Y-73176654D01*
X52458643Y-73325875D01*
X52458641Y-73325880D01*
X52403494Y-73492302D01*
X52403493Y-73492309D01*
X52393000Y-73595013D01*
X52393000Y-74045000D01*
X47588000Y-74045000D01*
X47588000Y-73427000D01*
X46671686Y-73427000D01*
X46697493Y-73386844D01*
X46738000Y-73248889D01*
X46738000Y-73105111D01*
X46697493Y-72967156D01*
X46671686Y-72927000D01*
X47588000Y-72927000D01*
X47588000Y-72279172D01*
X47587999Y-72279155D01*
X47581598Y-72219627D01*
X47581596Y-72219620D01*
X47528254Y-72076601D01*
X47531122Y-72075531D01*
X47519515Y-72022136D01*
X47543942Y-71956675D01*
X47599881Y-71914812D01*
X47643198Y-71907000D01*
X47985200Y-71907000D01*
X47985200Y-69074701D01*
X48972500Y-69074701D01*
X48975401Y-69111567D01*
X48975402Y-69111573D01*
X49021254Y-69269393D01*
X49021255Y-69269396D01*
X49021256Y-69269398D01*
X49058681Y-69332681D01*
X49104917Y-69410862D01*
X49104923Y-69410870D01*
X49221129Y-69527076D01*
X49221133Y-69527079D01*
X49221135Y-69527081D01*
X49362602Y-69610744D01*
X49369328Y-69612698D01*
X49520426Y-69656597D01*
X49520429Y-69656597D01*
X49520431Y-69656598D01*
X49557306Y-69659500D01*
X49557314Y-69659500D01*
X51438686Y-69659500D01*
X51438694Y-69659500D01*
X51475569Y-69656598D01*
X51475571Y-69656597D01*
X51475573Y-69656597D01*
X51517191Y-69644505D01*
X51633398Y-69610744D01*
X51774865Y-69527081D01*
X51891081Y-69410865D01*
X51974744Y-69269398D01*
X52013647Y-69135495D01*
X52020597Y-69111573D01*
X52020598Y-69111567D01*
X52023499Y-69074701D01*
X52023500Y-69074694D01*
X52023500Y-68643306D01*
X52020598Y-68606431D01*
X52008410Y-68564481D01*
X51978966Y-68463134D01*
X51974744Y-68448602D01*
X51891081Y-68307135D01*
X51891078Y-68307132D01*
X51886298Y-68300969D01*
X51888635Y-68299155D01*
X51861798Y-68250050D01*
X51866756Y-68180356D01*
X51887554Y-68147998D01*
X51885903Y-68146717D01*
X51890686Y-68140550D01*
X51974281Y-67999198D01*
X52020100Y-67841486D01*
X52020295Y-67839001D01*
X52020295Y-67839000D01*
X48975705Y-67839000D01*
X48975704Y-67839001D01*
X48975899Y-67841486D01*
X49021718Y-67999198D01*
X49105314Y-68140552D01*
X49110100Y-68146722D01*
X49107640Y-68148629D01*
X49134210Y-68197288D01*
X49129226Y-68266980D01*
X49108162Y-68299781D01*
X49109699Y-68300974D01*
X49104915Y-68307140D01*
X49021255Y-68448603D01*
X49021254Y-68448606D01*
X48975402Y-68606426D01*
X48975401Y-68606432D01*
X48972500Y-68643298D01*
X48972500Y-69074701D01*
X47985200Y-69074701D01*
X47985200Y-67338998D01*
X48975704Y-67338998D01*
X48975705Y-67339000D01*
X50248000Y-67339000D01*
X50248000Y-66569000D01*
X50748000Y-66569000D01*
X50748000Y-67339000D01*
X52020295Y-67339000D01*
X52020295Y-67338998D01*
X52020100Y-67336513D01*
X51974281Y-67178801D01*
X51890685Y-67037447D01*
X51885900Y-67031278D01*
X51888252Y-67029453D01*
X51861445Y-66980405D01*
X51866402Y-66910712D01*
X51887465Y-66877936D01*
X51885900Y-66876722D01*
X51890685Y-66870552D01*
X51974281Y-66729198D01*
X52020100Y-66571486D01*
X52020295Y-66569001D01*
X52020295Y-66569000D01*
X50748000Y-66569000D01*
X50248000Y-66569000D01*
X48975705Y-66569000D01*
X48975704Y-66569001D01*
X48975899Y-66571486D01*
X49021718Y-66729198D01*
X49105314Y-66870552D01*
X49110100Y-66876722D01*
X49107753Y-66878542D01*
X49134564Y-66927642D01*
X49129580Y-66997334D01*
X49108541Y-67030069D01*
X49110100Y-67031278D01*
X49105314Y-67037447D01*
X49021718Y-67178801D01*
X48975899Y-67336513D01*
X48975704Y-67338998D01*
X47985200Y-67338998D01*
X47985200Y-65853751D01*
X48004885Y-65786712D01*
X48021519Y-65766070D01*
X48760819Y-65026770D01*
X48822142Y-64993285D01*
X48891834Y-64998269D01*
X48947767Y-65040141D01*
X48972184Y-65105605D01*
X48972500Y-65114451D01*
X48972500Y-65264701D01*
X48975401Y-65301567D01*
X48975402Y-65301573D01*
X49021254Y-65459393D01*
X49021255Y-65459396D01*
X49104917Y-65600862D01*
X49109702Y-65607031D01*
X49107369Y-65608840D01*
X49134210Y-65657995D01*
X49129226Y-65727687D01*
X49108470Y-65760021D01*
X49110097Y-65761283D01*
X49105313Y-65767449D01*
X49021718Y-65908801D01*
X48975899Y-66066513D01*
X48975704Y-66068998D01*
X48975705Y-66069000D01*
X52020295Y-66069000D01*
X52020295Y-66068998D01*
X52020100Y-66066513D01*
X51974281Y-65908801D01*
X51890685Y-65767447D01*
X51885900Y-65761278D01*
X51888366Y-65759364D01*
X51861802Y-65710776D01*
X51866749Y-65641082D01*
X51887856Y-65608232D01*
X51886301Y-65607026D01*
X51891077Y-65600868D01*
X51891081Y-65600865D01*
X51974744Y-65459398D01*
X52020598Y-65301569D01*
X52023500Y-65264694D01*
X52023500Y-64833306D01*
X52020598Y-64796431D01*
X51974744Y-64638602D01*
X51891081Y-64497135D01*
X51891078Y-64497132D01*
X51886298Y-64490969D01*
X51888750Y-64489066D01*
X51862155Y-64440421D01*
X51867104Y-64370726D01*
X51887940Y-64338304D01*
X51886298Y-64337031D01*
X51891075Y-64330870D01*
X51891081Y-64330865D01*
X51974744Y-64189398D01*
X52013647Y-64055495D01*
X52020597Y-64031573D01*
X52020598Y-64031567D01*
X52023499Y-63994701D01*
X52023500Y-63994694D01*
X52023500Y-63563306D01*
X52020598Y-63526431D01*
X52019679Y-63523269D01*
X51974745Y-63368606D01*
X51974744Y-63368603D01*
X51974744Y-63368602D01*
X51891081Y-63227135D01*
X51891078Y-63227132D01*
X51886298Y-63220969D01*
X51888750Y-63219066D01*
X51862155Y-63170421D01*
X51867104Y-63100726D01*
X51887940Y-63068304D01*
X51886298Y-63067031D01*
X51891075Y-63060870D01*
X51891081Y-63060865D01*
X51974744Y-62919398D01*
X52020598Y-62761569D01*
X52023500Y-62724694D01*
X52023500Y-62293306D01*
X52020598Y-62256431D01*
X51974744Y-62098602D01*
X51891081Y-61957135D01*
X51891078Y-61957132D01*
X51886298Y-61950969D01*
X51888750Y-61949066D01*
X51862155Y-61900421D01*
X51867104Y-61830726D01*
X51887940Y-61798304D01*
X51886298Y-61797031D01*
X51891075Y-61790870D01*
X51891081Y-61790865D01*
X51974744Y-61649398D01*
X52013647Y-61515495D01*
X52020597Y-61491573D01*
X52020598Y-61491567D01*
X52023499Y-61454701D01*
X52023500Y-61454694D01*
X52023500Y-61023306D01*
X52020598Y-60986431D01*
X51974744Y-60828602D01*
X51891081Y-60687135D01*
X51891078Y-60687132D01*
X51886298Y-60680969D01*
X51888750Y-60679066D01*
X51862155Y-60630421D01*
X51867104Y-60560726D01*
X51887940Y-60528304D01*
X51886298Y-60527031D01*
X51891075Y-60520870D01*
X51891081Y-60520865D01*
X51974744Y-60379398D01*
X52020598Y-60221569D01*
X52023500Y-60184694D01*
X52023500Y-59753306D01*
X52020598Y-59716431D01*
X52018003Y-59707500D01*
X51974745Y-59558606D01*
X51974744Y-59558603D01*
X51974744Y-59558602D01*
X51891081Y-59417135D01*
X51891078Y-59417132D01*
X51886298Y-59410969D01*
X51888750Y-59409066D01*
X51862155Y-59360421D01*
X51867104Y-59290726D01*
X51887940Y-59258304D01*
X51886298Y-59257031D01*
X51891075Y-59250870D01*
X51891081Y-59250865D01*
X51974744Y-59109398D01*
X52013647Y-58975495D01*
X52020597Y-58951573D01*
X52020598Y-58951567D01*
X52023499Y-58914701D01*
X52023500Y-58914694D01*
X52023500Y-58483306D01*
X52020598Y-58446431D01*
X51974744Y-58288602D01*
X51891081Y-58147135D01*
X51891078Y-58147132D01*
X51886298Y-58140969D01*
X51888750Y-58139066D01*
X51862155Y-58090421D01*
X51867104Y-58020726D01*
X51887940Y-57988304D01*
X51886298Y-57987031D01*
X51891075Y-57980870D01*
X51891081Y-57980865D01*
X51974744Y-57839398D01*
X52020598Y-57681569D01*
X52023500Y-57644694D01*
X52023500Y-57213306D01*
X52020598Y-57176431D01*
X51974744Y-57018602D01*
X51891081Y-56877135D01*
X51891078Y-56877132D01*
X51886298Y-56870969D01*
X51888750Y-56869066D01*
X51862155Y-56820421D01*
X51867104Y-56750726D01*
X51887940Y-56718304D01*
X51886298Y-56717031D01*
X51891075Y-56710870D01*
X51891081Y-56710865D01*
X51974744Y-56569398D01*
X52013647Y-56435495D01*
X52020597Y-56411573D01*
X52020598Y-56411567D01*
X52023499Y-56374701D01*
X52023500Y-56374694D01*
X52023500Y-55943306D01*
X52020598Y-55906431D01*
X51974744Y-55748602D01*
X51891081Y-55607135D01*
X51891078Y-55607132D01*
X51886298Y-55600969D01*
X51888635Y-55599155D01*
X51861798Y-55550050D01*
X51866756Y-55480356D01*
X51887554Y-55447998D01*
X51885903Y-55446717D01*
X51890686Y-55440550D01*
X51974281Y-55299198D01*
X52020100Y-55141486D01*
X52020295Y-55139001D01*
X52020295Y-55139000D01*
X50372000Y-55139000D01*
X50304961Y-55119315D01*
X50259206Y-55066511D01*
X50248000Y-55015000D01*
X50248000Y-54089000D01*
X50748000Y-54089000D01*
X50748000Y-54639000D01*
X52020295Y-54639000D01*
X52020295Y-54638998D01*
X52020100Y-54636513D01*
X51974281Y-54478801D01*
X51890685Y-54337447D01*
X51890678Y-54337438D01*
X51774561Y-54221321D01*
X51774552Y-54221314D01*
X51633196Y-54137717D01*
X51633193Y-54137716D01*
X51475495Y-54091900D01*
X51475489Y-54091899D01*
X51438649Y-54089000D01*
X50748000Y-54089000D01*
X50248000Y-54089000D01*
X49557349Y-54089000D01*
X49527228Y-54091371D01*
X49458851Y-54077006D01*
X49409094Y-54027954D01*
X49393500Y-53967753D01*
X49393500Y-53743000D01*
X49413185Y-53675961D01*
X49465989Y-53630206D01*
X49517500Y-53619000D01*
X61348047Y-53619000D01*
X61415086Y-53638685D01*
G37*
G04 #@! TD.AperFunction*
G04 #@! TA.AperFunction,NonConductor*
G36*
X53932855Y-80168546D02*
G01*
X53949575Y-80187842D01*
X54079500Y-80373395D01*
X54079505Y-80373401D01*
X54246599Y-80540495D01*
X54249917Y-80542818D01*
X54444604Y-80679140D01*
X54443877Y-80680177D01*
X54487847Y-80726287D01*
X54496709Y-80748511D01*
X54500877Y-80762854D01*
X54504824Y-80781911D01*
X54505493Y-80787202D01*
X54507336Y-80801792D01*
X54523414Y-80842403D01*
X54527197Y-80853452D01*
X54539381Y-80895388D01*
X54549580Y-80912634D01*
X54558138Y-80930103D01*
X54565514Y-80948732D01*
X54591181Y-80984060D01*
X54597593Y-80993821D01*
X54619828Y-81031417D01*
X54619833Y-81031424D01*
X54633990Y-81045580D01*
X54646627Y-81060375D01*
X54658406Y-81076587D01*
X54688928Y-81101837D01*
X54692057Y-81104425D01*
X54700698Y-81112288D01*
X56389340Y-82800930D01*
X56422825Y-82862253D01*
X56417841Y-82931945D01*
X56389340Y-82976292D01*
X56385289Y-82980342D01*
X56293187Y-83129663D01*
X56293186Y-83129666D01*
X56238001Y-83296203D01*
X56238001Y-83296204D01*
X56238000Y-83296204D01*
X56227500Y-83398983D01*
X56227500Y-84749001D01*
X56227501Y-84749018D01*
X56238000Y-84851796D01*
X56238001Y-84851799D01*
X56293185Y-85018331D01*
X56293186Y-85018334D01*
X56385288Y-85167656D01*
X56509344Y-85291712D01*
X56658666Y-85383814D01*
X56669016Y-85387243D01*
X56726460Y-85427013D01*
X56753285Y-85491528D01*
X56753952Y-85501052D01*
X56755290Y-85543624D01*
X56755291Y-85543627D01*
X56760880Y-85562867D01*
X56764824Y-85581911D01*
X56766557Y-85595624D01*
X56767336Y-85601792D01*
X56783414Y-85642403D01*
X56787197Y-85653452D01*
X56799382Y-85695390D01*
X56805332Y-85705452D01*
X56809580Y-85712634D01*
X56818138Y-85730103D01*
X56825514Y-85748732D01*
X56851181Y-85784060D01*
X56857593Y-85793821D01*
X56879828Y-85831417D01*
X56879833Y-85831424D01*
X56893990Y-85845580D01*
X56906627Y-85860375D01*
X56918406Y-85876587D01*
X56943782Y-85897580D01*
X56952057Y-85904425D01*
X56960698Y-85912288D01*
X59419245Y-88370835D01*
X59452730Y-88432158D01*
X59447746Y-88501850D01*
X59405874Y-88557783D01*
X59370569Y-88576222D01*
X59198666Y-88633186D01*
X59198663Y-88633187D01*
X59049342Y-88725289D01*
X58925289Y-88849342D01*
X58829821Y-89004121D01*
X58777873Y-89050845D01*
X58708910Y-89062068D01*
X58644828Y-89034224D01*
X58636601Y-89026705D01*
X58489402Y-88879506D01*
X58489401Y-88879505D01*
X58299472Y-88746515D01*
X58296376Y-88744347D01*
X58252751Y-88689770D01*
X58243500Y-88642772D01*
X58243500Y-88561742D01*
X58245224Y-88546122D01*
X58244939Y-88546096D01*
X58245671Y-88538340D01*
X58245673Y-88538333D01*
X58243561Y-88471126D01*
X58243500Y-88467231D01*
X58243500Y-88439654D01*
X58243500Y-88439650D01*
X58242996Y-88435665D01*
X58242080Y-88424021D01*
X58240709Y-88380373D01*
X58235122Y-88361144D01*
X58231174Y-88342084D01*
X58228663Y-88322204D01*
X58212588Y-88281604D01*
X58208804Y-88270552D01*
X58196618Y-88228609D01*
X58196616Y-88228606D01*
X58186423Y-88211371D01*
X58177861Y-88193894D01*
X58170487Y-88175269D01*
X58148966Y-88145649D01*
X58144811Y-88139930D01*
X58138405Y-88130177D01*
X58116170Y-88092580D01*
X58116168Y-88092578D01*
X58116165Y-88092574D01*
X58102006Y-88078415D01*
X58089368Y-88063619D01*
X58077594Y-88047413D01*
X58043940Y-88019572D01*
X58035299Y-88011709D01*
X55497439Y-85473848D01*
X55463954Y-85412525D01*
X55468938Y-85342833D01*
X55501232Y-85298502D01*
X55499549Y-85296819D01*
X55523662Y-85272706D01*
X55628712Y-85167656D01*
X55720814Y-85018334D01*
X55775999Y-84851797D01*
X55786500Y-84749009D01*
X55786499Y-83398992D01*
X55775999Y-83296203D01*
X55720814Y-83129666D01*
X55628712Y-82980344D01*
X55504656Y-82856288D01*
X55355334Y-82764186D01*
X55355333Y-82764185D01*
X55355325Y-82764182D01*
X55268806Y-82735512D01*
X55211361Y-82695739D01*
X55192518Y-82663453D01*
X55188486Y-82653268D01*
X55162805Y-82617921D01*
X55156409Y-82608182D01*
X55134171Y-82570580D01*
X55134169Y-82570578D01*
X55134166Y-82570574D01*
X55120005Y-82556413D01*
X55107370Y-82541620D01*
X55095593Y-82525412D01*
X55061945Y-82497576D01*
X55053304Y-82489713D01*
X53350793Y-80787202D01*
X53317308Y-80725879D01*
X53322292Y-80656187D01*
X53364164Y-80600254D01*
X53367294Y-80597986D01*
X53449401Y-80540495D01*
X53616495Y-80373401D01*
X53746425Y-80187842D01*
X53801002Y-80144217D01*
X53870500Y-80137023D01*
X53932855Y-80168546D01*
G37*
G04 #@! TD.AperFunction*
M02*
