G04 #@! TF.GenerationSoftware,KiCad,Pcbnew,8.0.2*
G04 #@! TF.CreationDate,2024-06-22T22:10:03+02:00*
G04 #@! TF.ProjectId,Alarm_lights,416c6172-6d5f-46c6-9967-6874732e6b69,0.4.x*
G04 #@! TF.SameCoordinates,Original*
G04 #@! TF.FileFunction,Soldermask,Bot*
G04 #@! TF.FilePolarity,Negative*
%FSLAX46Y46*%
G04 Gerber Fmt 4.6, Leading zero omitted, Abs format (unit mm)*
G04 Created by KiCad (PCBNEW 8.0.2) date 2024-06-22 22:10:03*
%MOMM*%
%LPD*%
G01*
G04 APERTURE LIST*
G04 Aperture macros list*
%AMRoundRect*
0 Rectangle with rounded corners*
0 $1 Rounding radius*
0 $2 $3 $4 $5 $6 $7 $8 $9 X,Y pos of 4 corners*
0 Add a 4 corners polygon primitive as box body*
4,1,4,$2,$3,$4,$5,$6,$7,$8,$9,$2,$3,0*
0 Add four circle primitives for the rounded corners*
1,1,$1+$1,$2,$3*
1,1,$1+$1,$4,$5*
1,1,$1+$1,$6,$7*
1,1,$1+$1,$8,$9*
0 Add four rect primitives between the rounded corners*
20,1,$1+$1,$2,$3,$4,$5,0*
20,1,$1+$1,$4,$5,$6,$7,0*
20,1,$1+$1,$6,$7,$8,$9,0*
20,1,$1+$1,$8,$9,$2,$3,0*%
G04 Aperture macros list end*
%ADD10RoundRect,0.250000X-0.400000X-0.625000X0.400000X-0.625000X0.400000X0.625000X-0.400000X0.625000X0*%
%ADD11RoundRect,0.150000X-0.875000X-0.150000X0.875000X-0.150000X0.875000X0.150000X-0.875000X0.150000X0*%
%ADD12R,1.700000X1.700000*%
%ADD13O,1.700000X1.700000*%
%ADD14RoundRect,0.150000X-0.150000X0.512500X-0.150000X-0.512500X0.150000X-0.512500X0.150000X0.512500X0*%
%ADD15RoundRect,0.250000X0.400000X0.625000X-0.400000X0.625000X-0.400000X-0.625000X0.400000X-0.625000X0*%
%ADD16RoundRect,0.250000X0.625000X-0.400000X0.625000X0.400000X-0.625000X0.400000X-0.625000X-0.400000X0*%
%ADD17RoundRect,0.250000X0.650000X-0.412500X0.650000X0.412500X-0.650000X0.412500X-0.650000X-0.412500X0*%
%ADD18RoundRect,0.250000X0.600000X0.725000X-0.600000X0.725000X-0.600000X-0.725000X0.600000X-0.725000X0*%
%ADD19O,1.700000X1.950000*%
%ADD20RoundRect,0.250000X0.412500X0.650000X-0.412500X0.650000X-0.412500X-0.650000X0.412500X-0.650000X0*%
G04 APERTURE END LIST*
D10*
X47980000Y-99949000D03*
X51080000Y-99949000D03*
D11*
X50498000Y-68859000D03*
X50498000Y-67589000D03*
X50498000Y-66319000D03*
X50498000Y-65049000D03*
X50498000Y-63779000D03*
X50498000Y-62509000D03*
X50498000Y-61239000D03*
X50498000Y-59969000D03*
X50498000Y-58699000D03*
X50498000Y-57429000D03*
X50498000Y-56159000D03*
X50498000Y-54889000D03*
X59798000Y-54889000D03*
X59798000Y-56159000D03*
X59798000Y-57429000D03*
X59798000Y-58699000D03*
X59798000Y-59969000D03*
X59798000Y-61239000D03*
X59798000Y-62509000D03*
X59798000Y-63779000D03*
X59798000Y-65049000D03*
X59798000Y-66319000D03*
X59798000Y-67589000D03*
X59798000Y-68859000D03*
D12*
X60198000Y-79502000D03*
D13*
X57658000Y-79502000D03*
X55118000Y-79502000D03*
X52578000Y-79502000D03*
X50038000Y-79502000D03*
D14*
X54168000Y-103002500D03*
X56068000Y-103002500D03*
X55118000Y-105277500D03*
D15*
X54636000Y-84074000D03*
X51536000Y-84074000D03*
D16*
X60329600Y-105080000D03*
X60329600Y-101980000D03*
D12*
X46238000Y-73177000D03*
D13*
X46238000Y-70637000D03*
X46238000Y-68097000D03*
X46238000Y-65557000D03*
X46238000Y-63017000D03*
X46238000Y-60477000D03*
X46238000Y-57937000D03*
X46238000Y-55397000D03*
X46238000Y-52857000D03*
X46238000Y-50317000D03*
D17*
X54229000Y-100114500D03*
X54229000Y-96989500D03*
D18*
X60118000Y-90043000D03*
D19*
X57618000Y-90043000D03*
X55118000Y-90043000D03*
X52618000Y-90043000D03*
X50118000Y-90043000D03*
D12*
X64218000Y-73157000D03*
D13*
X64218000Y-70617000D03*
X64218000Y-68077000D03*
X64218000Y-65537000D03*
X64218000Y-62997000D03*
X64218000Y-60457000D03*
X64218000Y-57917000D03*
X64218000Y-55377000D03*
X64218000Y-52837000D03*
X64218000Y-50297000D03*
D10*
X57378000Y-84074000D03*
X60478000Y-84074000D03*
D20*
X56680500Y-74295000D03*
X53555500Y-74295000D03*
D15*
X51080000Y-97028000D03*
X47980000Y-97028000D03*
M02*
