G04 #@! TF.GenerationSoftware,KiCad,Pcbnew,7.0.6*
G04 #@! TF.CreationDate,2024-03-01T09:38:34+01:00*
G04 #@! TF.ProjectId,Alarm_lights,416c6172-6d5f-46c6-9967-6874732e6b69,1.0.1*
G04 #@! TF.SameCoordinates,Original*
G04 #@! TF.FileFunction,Legend,Bot*
G04 #@! TF.FilePolarity,Positive*
%FSLAX46Y46*%
G04 Gerber Fmt 4.6, Leading zero omitted, Abs format (unit mm)*
G04 Created by KiCad (PCBNEW 7.0.6) date 2024-03-01 09:38:34*
%MOMM*%
%LPD*%
G01*
G04 APERTURE LIST*
G04 Aperture macros list*
%AMRoundRect*
0 Rectangle with rounded corners*
0 $1 Rounding radius*
0 $2 $3 $4 $5 $6 $7 $8 $9 X,Y pos of 4 corners*
0 Add a 4 corners polygon primitive as box body*
4,1,4,$2,$3,$4,$5,$6,$7,$8,$9,$2,$3,0*
0 Add four circle primitives for the rounded corners*
1,1,$1+$1,$2,$3*
1,1,$1+$1,$4,$5*
1,1,$1+$1,$6,$7*
1,1,$1+$1,$8,$9*
0 Add four rect primitives between the rounded corners*
20,1,$1+$1,$2,$3,$4,$5,0*
20,1,$1+$1,$4,$5,$6,$7,0*
20,1,$1+$1,$6,$7,$8,$9,0*
20,1,$1+$1,$8,$9,$2,$3,0*%
G04 Aperture macros list end*
%ADD10C,0.150000*%
%ADD11C,0.120000*%
%ADD12R,1.700000X1.700000*%
%ADD13O,1.700000X1.700000*%
%ADD14RoundRect,0.150000X-0.150000X0.512500X-0.150000X-0.512500X0.150000X-0.512500X0.150000X0.512500X0*%
%ADD15RoundRect,0.250000X0.600000X0.725000X-0.600000X0.725000X-0.600000X-0.725000X0.600000X-0.725000X0*%
%ADD16O,1.700000X1.950000*%
%ADD17RoundRect,0.250000X0.400000X0.625000X-0.400000X0.625000X-0.400000X-0.625000X0.400000X-0.625000X0*%
G04 APERTURE END LIST*
D10*
X44718000Y-48827000D02*
X65718000Y-48827000D01*
X65718000Y-81027000D01*
X44718000Y-81027000D01*
X44718000Y-48827000D01*
X64693173Y-31066819D02*
X64568173Y-30066819D01*
X64568173Y-30066819D02*
X64330077Y-30066819D01*
X64330077Y-30066819D02*
X64193173Y-30114438D01*
X64193173Y-30114438D02*
X64109839Y-30209676D01*
X64109839Y-30209676D02*
X64074125Y-30304914D01*
X64074125Y-30304914D02*
X64050316Y-30495390D01*
X64050316Y-30495390D02*
X64068173Y-30638247D01*
X64068173Y-30638247D02*
X64139601Y-30828723D01*
X64139601Y-30828723D02*
X64199125Y-30923961D01*
X64199125Y-30923961D02*
X64306268Y-31019200D01*
X64306268Y-31019200D02*
X64455077Y-31066819D01*
X64455077Y-31066819D02*
X64693173Y-31066819D01*
X63734839Y-31019200D02*
X63597935Y-31066819D01*
X63597935Y-31066819D02*
X63359839Y-31066819D01*
X63359839Y-31066819D02*
X63258649Y-31019200D01*
X63258649Y-31019200D02*
X63205077Y-30971580D01*
X63205077Y-30971580D02*
X63145554Y-30876342D01*
X63145554Y-30876342D02*
X63133649Y-30781104D01*
X63133649Y-30781104D02*
X63169363Y-30685866D01*
X63169363Y-30685866D02*
X63211030Y-30638247D01*
X63211030Y-30638247D02*
X63300316Y-30590628D01*
X63300316Y-30590628D02*
X63484839Y-30543009D01*
X63484839Y-30543009D02*
X63574125Y-30495390D01*
X63574125Y-30495390D02*
X63615792Y-30447771D01*
X63615792Y-30447771D02*
X63651506Y-30352533D01*
X63651506Y-30352533D02*
X63639601Y-30257295D01*
X63639601Y-30257295D02*
X63580077Y-30162057D01*
X63580077Y-30162057D02*
X63526506Y-30114438D01*
X63526506Y-30114438D02*
X63425316Y-30066819D01*
X63425316Y-30066819D02*
X63187220Y-30066819D01*
X63187220Y-30066819D02*
X63050316Y-30114438D01*
X62740792Y-31066819D02*
X62615792Y-30066819D01*
X62169363Y-31066819D02*
X62526506Y-30495390D01*
X62044363Y-30066819D02*
X62687220Y-30638247D01*
X61490792Y-30590628D02*
X61550315Y-31066819D01*
X61758649Y-30066819D02*
X61490792Y-30590628D01*
X61490792Y-30590628D02*
X61091982Y-30066819D01*
X59538410Y-30971580D02*
X59591982Y-31019200D01*
X59591982Y-31019200D02*
X59740791Y-31066819D01*
X59740791Y-31066819D02*
X59836029Y-31066819D01*
X59836029Y-31066819D02*
X59972934Y-31019200D01*
X59972934Y-31019200D02*
X60056267Y-30923961D01*
X60056267Y-30923961D02*
X60091982Y-30828723D01*
X60091982Y-30828723D02*
X60115791Y-30638247D01*
X60115791Y-30638247D02*
X60097934Y-30495390D01*
X60097934Y-30495390D02*
X60026506Y-30304914D01*
X60026506Y-30304914D02*
X59966982Y-30209676D01*
X59966982Y-30209676D02*
X59859839Y-30114438D01*
X59859839Y-30114438D02*
X59711029Y-30066819D01*
X59711029Y-30066819D02*
X59615791Y-30066819D01*
X59615791Y-30066819D02*
X59478887Y-30114438D01*
X59478887Y-30114438D02*
X59437220Y-30162057D01*
X59121744Y-31066819D02*
X59038410Y-30400152D01*
X59062220Y-30590628D02*
X59002696Y-30495390D01*
X59002696Y-30495390D02*
X58949125Y-30447771D01*
X58949125Y-30447771D02*
X58847934Y-30400152D01*
X58847934Y-30400152D02*
X58752696Y-30400152D01*
X58115791Y-31019200D02*
X58216981Y-31066819D01*
X58216981Y-31066819D02*
X58407458Y-31066819D01*
X58407458Y-31066819D02*
X58496743Y-31019200D01*
X58496743Y-31019200D02*
X58532458Y-30923961D01*
X58532458Y-30923961D02*
X58484839Y-30543009D01*
X58484839Y-30543009D02*
X58425315Y-30447771D01*
X58425315Y-30447771D02*
X58324124Y-30400152D01*
X58324124Y-30400152D02*
X58133648Y-30400152D01*
X58133648Y-30400152D02*
X58044362Y-30447771D01*
X58044362Y-30447771D02*
X58008648Y-30543009D01*
X58008648Y-30543009D02*
X58020553Y-30638247D01*
X58020553Y-30638247D02*
X58508648Y-30733485D01*
X57657457Y-30400152D02*
X57550315Y-31066819D01*
X57550315Y-31066819D02*
X57300315Y-30590628D01*
X57300315Y-30590628D02*
X57169362Y-31066819D01*
X57169362Y-31066819D02*
X56895553Y-30400152D01*
X64693173Y-32676819D02*
X64568173Y-31676819D01*
X64568173Y-31676819D02*
X64187220Y-31676819D01*
X64187220Y-31676819D02*
X64097935Y-31724438D01*
X64097935Y-31724438D02*
X64056268Y-31772057D01*
X64056268Y-31772057D02*
X64020554Y-31867295D01*
X64020554Y-31867295D02*
X64038411Y-32010152D01*
X64038411Y-32010152D02*
X64097935Y-32105390D01*
X64097935Y-32105390D02*
X64151506Y-32153009D01*
X64151506Y-32153009D02*
X64252696Y-32200628D01*
X64252696Y-32200628D02*
X64633649Y-32200628D01*
X63693173Y-32676819D02*
X63609839Y-32010152D01*
X63633649Y-32200628D02*
X63574125Y-32105390D01*
X63574125Y-32105390D02*
X63520554Y-32057771D01*
X63520554Y-32057771D02*
X63419363Y-32010152D01*
X63419363Y-32010152D02*
X63324125Y-32010152D01*
X62931268Y-32676819D02*
X63020553Y-32629200D01*
X63020553Y-32629200D02*
X63062220Y-32581580D01*
X63062220Y-32581580D02*
X63097934Y-32486342D01*
X63097934Y-32486342D02*
X63062220Y-32200628D01*
X63062220Y-32200628D02*
X63002696Y-32105390D01*
X63002696Y-32105390D02*
X62949125Y-32057771D01*
X62949125Y-32057771D02*
X62847934Y-32010152D01*
X62847934Y-32010152D02*
X62705077Y-32010152D01*
X62705077Y-32010152D02*
X62615791Y-32057771D01*
X62615791Y-32057771D02*
X62574125Y-32105390D01*
X62574125Y-32105390D02*
X62538410Y-32200628D01*
X62538410Y-32200628D02*
X62574125Y-32486342D01*
X62574125Y-32486342D02*
X62633648Y-32581580D01*
X62633648Y-32581580D02*
X62687220Y-32629200D01*
X62687220Y-32629200D02*
X62788410Y-32676819D01*
X62788410Y-32676819D02*
X62931268Y-32676819D01*
X62228886Y-32010152D02*
X61847934Y-32010152D01*
X62044363Y-31676819D02*
X62151506Y-32533961D01*
X62151506Y-32533961D02*
X62115791Y-32629200D01*
X62115791Y-32629200D02*
X62026506Y-32676819D01*
X62026506Y-32676819D02*
X61931267Y-32676819D01*
X61455077Y-32676819D02*
X61544362Y-32629200D01*
X61544362Y-32629200D02*
X61586029Y-32581580D01*
X61586029Y-32581580D02*
X61621743Y-32486342D01*
X61621743Y-32486342D02*
X61586029Y-32200628D01*
X61586029Y-32200628D02*
X61526505Y-32105390D01*
X61526505Y-32105390D02*
X61472934Y-32057771D01*
X61472934Y-32057771D02*
X61371743Y-32010152D01*
X61371743Y-32010152D02*
X61228886Y-32010152D01*
X61228886Y-32010152D02*
X61139600Y-32057771D01*
X61139600Y-32057771D02*
X61097934Y-32105390D01*
X61097934Y-32105390D02*
X61062219Y-32200628D01*
X61062219Y-32200628D02*
X61097934Y-32486342D01*
X61097934Y-32486342D02*
X61157457Y-32581580D01*
X61157457Y-32581580D02*
X61211029Y-32629200D01*
X61211029Y-32629200D02*
X61312219Y-32676819D01*
X61312219Y-32676819D02*
X61455077Y-32676819D01*
X60752695Y-32010152D02*
X60371743Y-32010152D01*
X60568172Y-31676819D02*
X60675315Y-32533961D01*
X60675315Y-32533961D02*
X60639600Y-32629200D01*
X60639600Y-32629200D02*
X60550315Y-32676819D01*
X60550315Y-32676819D02*
X60455076Y-32676819D01*
X60133647Y-32010152D02*
X59978886Y-32676819D01*
X59657457Y-32010152D02*
X59978886Y-32676819D01*
X59978886Y-32676819D02*
X60103886Y-32914914D01*
X60103886Y-32914914D02*
X60157457Y-32962533D01*
X60157457Y-32962533D02*
X60258647Y-33010152D01*
X59276504Y-32010152D02*
X59401504Y-33010152D01*
X59282457Y-32057771D02*
X59181266Y-32010152D01*
X59181266Y-32010152D02*
X58990790Y-32010152D01*
X58990790Y-32010152D02*
X58901504Y-32057771D01*
X58901504Y-32057771D02*
X58859838Y-32105390D01*
X58859838Y-32105390D02*
X58824123Y-32200628D01*
X58824123Y-32200628D02*
X58859838Y-32486342D01*
X58859838Y-32486342D02*
X58919361Y-32581580D01*
X58919361Y-32581580D02*
X58972933Y-32629200D01*
X58972933Y-32629200D02*
X59074123Y-32676819D01*
X59074123Y-32676819D02*
X59264600Y-32676819D01*
X59264600Y-32676819D02*
X59353885Y-32629200D01*
X58455076Y-32676819D02*
X58371742Y-32010152D01*
X58330076Y-31676819D02*
X58383647Y-31724438D01*
X58383647Y-31724438D02*
X58341980Y-31772057D01*
X58341980Y-31772057D02*
X58288409Y-31724438D01*
X58288409Y-31724438D02*
X58330076Y-31676819D01*
X58330076Y-31676819D02*
X58341980Y-31772057D01*
X57895552Y-32010152D02*
X57978886Y-32676819D01*
X57907457Y-32105390D02*
X57853886Y-32057771D01*
X57853886Y-32057771D02*
X57752695Y-32010152D01*
X57752695Y-32010152D02*
X57609838Y-32010152D01*
X57609838Y-32010152D02*
X57520552Y-32057771D01*
X57520552Y-32057771D02*
X57484838Y-32153009D01*
X57484838Y-32153009D02*
X57550314Y-32676819D01*
X56562219Y-32010152D02*
X56663409Y-32819676D01*
X56663409Y-32819676D02*
X56722933Y-32914914D01*
X56722933Y-32914914D02*
X56776505Y-32962533D01*
X56776505Y-32962533D02*
X56877695Y-33010152D01*
X56877695Y-33010152D02*
X57020552Y-33010152D01*
X57020552Y-33010152D02*
X57109838Y-32962533D01*
X56639600Y-32629200D02*
X56740790Y-32676819D01*
X56740790Y-32676819D02*
X56931267Y-32676819D01*
X56931267Y-32676819D02*
X57020552Y-32629200D01*
X57020552Y-32629200D02*
X57062219Y-32581580D01*
X57062219Y-32581580D02*
X57097933Y-32486342D01*
X57097933Y-32486342D02*
X57062219Y-32200628D01*
X57062219Y-32200628D02*
X57002695Y-32105390D01*
X57002695Y-32105390D02*
X56949124Y-32057771D01*
X56949124Y-32057771D02*
X56847933Y-32010152D01*
X56847933Y-32010152D02*
X56657457Y-32010152D01*
X56657457Y-32010152D02*
X56568171Y-32057771D01*
X55407457Y-32676819D02*
X55282457Y-31676819D01*
X55330076Y-32057771D02*
X55228885Y-32010152D01*
X55228885Y-32010152D02*
X55038409Y-32010152D01*
X55038409Y-32010152D02*
X54949123Y-32057771D01*
X54949123Y-32057771D02*
X54907457Y-32105390D01*
X54907457Y-32105390D02*
X54871742Y-32200628D01*
X54871742Y-32200628D02*
X54907457Y-32486342D01*
X54907457Y-32486342D02*
X54966980Y-32581580D01*
X54966980Y-32581580D02*
X55020552Y-32629200D01*
X55020552Y-32629200D02*
X55121742Y-32676819D01*
X55121742Y-32676819D02*
X55312219Y-32676819D01*
X55312219Y-32676819D02*
X55401504Y-32629200D01*
X54359838Y-32676819D02*
X54449123Y-32629200D01*
X54449123Y-32629200D02*
X54490790Y-32581580D01*
X54490790Y-32581580D02*
X54526504Y-32486342D01*
X54526504Y-32486342D02*
X54490790Y-32200628D01*
X54490790Y-32200628D02*
X54431266Y-32105390D01*
X54431266Y-32105390D02*
X54377695Y-32057771D01*
X54377695Y-32057771D02*
X54276504Y-32010152D01*
X54276504Y-32010152D02*
X54133647Y-32010152D01*
X54133647Y-32010152D02*
X54044361Y-32057771D01*
X54044361Y-32057771D02*
X54002695Y-32105390D01*
X54002695Y-32105390D02*
X53966980Y-32200628D01*
X53966980Y-32200628D02*
X54002695Y-32486342D01*
X54002695Y-32486342D02*
X54062218Y-32581580D01*
X54062218Y-32581580D02*
X54115790Y-32629200D01*
X54115790Y-32629200D02*
X54216980Y-32676819D01*
X54216980Y-32676819D02*
X54359838Y-32676819D01*
X53169361Y-32676819D02*
X53103885Y-32153009D01*
X53103885Y-32153009D02*
X53139599Y-32057771D01*
X53139599Y-32057771D02*
X53228885Y-32010152D01*
X53228885Y-32010152D02*
X53419361Y-32010152D01*
X53419361Y-32010152D02*
X53520552Y-32057771D01*
X53163409Y-32629200D02*
X53264599Y-32676819D01*
X53264599Y-32676819D02*
X53502695Y-32676819D01*
X53502695Y-32676819D02*
X53591980Y-32629200D01*
X53591980Y-32629200D02*
X53627695Y-32533961D01*
X53627695Y-32533961D02*
X53615790Y-32438723D01*
X53615790Y-32438723D02*
X53556266Y-32343485D01*
X53556266Y-32343485D02*
X53455076Y-32295866D01*
X53455076Y-32295866D02*
X53216980Y-32295866D01*
X53216980Y-32295866D02*
X53115790Y-32248247D01*
X52693171Y-32676819D02*
X52609837Y-32010152D01*
X52633647Y-32200628D02*
X52574123Y-32105390D01*
X52574123Y-32105390D02*
X52520552Y-32057771D01*
X52520552Y-32057771D02*
X52419361Y-32010152D01*
X52419361Y-32010152D02*
X52324123Y-32010152D01*
X51645551Y-32676819D02*
X51520551Y-31676819D01*
X51639599Y-32629200D02*
X51740789Y-32676819D01*
X51740789Y-32676819D02*
X51931266Y-32676819D01*
X51931266Y-32676819D02*
X52020551Y-32629200D01*
X52020551Y-32629200D02*
X52062218Y-32581580D01*
X52062218Y-32581580D02*
X52097932Y-32486342D01*
X52097932Y-32486342D02*
X52062218Y-32200628D01*
X52062218Y-32200628D02*
X52002694Y-32105390D01*
X52002694Y-32105390D02*
X51949123Y-32057771D01*
X51949123Y-32057771D02*
X51847932Y-32010152D01*
X51847932Y-32010152D02*
X51657456Y-32010152D01*
X51657456Y-32010152D02*
X51568170Y-32057771D01*
X51115789Y-32629200D02*
X51121742Y-32676819D01*
X51121742Y-32676819D02*
X51181265Y-32772057D01*
X51181265Y-32772057D02*
X51234837Y-32819676D01*
X49943170Y-32391104D02*
X49466980Y-32391104D01*
X50074123Y-32676819D02*
X49615789Y-31676819D01*
X49615789Y-31676819D02*
X49407456Y-32676819D01*
X48931266Y-32676819D02*
X49020551Y-32629200D01*
X49020551Y-32629200D02*
X49056266Y-32533961D01*
X49056266Y-32533961D02*
X48949123Y-31676819D01*
X48121741Y-32676819D02*
X48056265Y-32153009D01*
X48056265Y-32153009D02*
X48091979Y-32057771D01*
X48091979Y-32057771D02*
X48181265Y-32010152D01*
X48181265Y-32010152D02*
X48371741Y-32010152D01*
X48371741Y-32010152D02*
X48472932Y-32057771D01*
X48115789Y-32629200D02*
X48216979Y-32676819D01*
X48216979Y-32676819D02*
X48455075Y-32676819D01*
X48455075Y-32676819D02*
X48544360Y-32629200D01*
X48544360Y-32629200D02*
X48580075Y-32533961D01*
X48580075Y-32533961D02*
X48568170Y-32438723D01*
X48568170Y-32438723D02*
X48508646Y-32343485D01*
X48508646Y-32343485D02*
X48407456Y-32295866D01*
X48407456Y-32295866D02*
X48169360Y-32295866D01*
X48169360Y-32295866D02*
X48068170Y-32248247D01*
X47645551Y-32676819D02*
X47562217Y-32010152D01*
X47586027Y-32200628D02*
X47526503Y-32105390D01*
X47526503Y-32105390D02*
X47472932Y-32057771D01*
X47472932Y-32057771D02*
X47371741Y-32010152D01*
X47371741Y-32010152D02*
X47276503Y-32010152D01*
X47026503Y-32676819D02*
X46943169Y-32010152D01*
X46955074Y-32105390D02*
X46901503Y-32057771D01*
X46901503Y-32057771D02*
X46800312Y-32010152D01*
X46800312Y-32010152D02*
X46657455Y-32010152D01*
X46657455Y-32010152D02*
X46568169Y-32057771D01*
X46568169Y-32057771D02*
X46532455Y-32153009D01*
X46532455Y-32153009D02*
X46597931Y-32676819D01*
X46532455Y-32153009D02*
X46472931Y-32057771D01*
X46472931Y-32057771D02*
X46371741Y-32010152D01*
X46371741Y-32010152D02*
X46228884Y-32010152D01*
X46228884Y-32010152D02*
X46139598Y-32057771D01*
X46139598Y-32057771D02*
X46103884Y-32153009D01*
X46103884Y-32153009D02*
X46169360Y-32676819D01*
X44532455Y-32153009D02*
X44395550Y-32200628D01*
X44395550Y-32200628D02*
X44353884Y-32248247D01*
X44353884Y-32248247D02*
X44318169Y-32343485D01*
X44318169Y-32343485D02*
X44336027Y-32486342D01*
X44336027Y-32486342D02*
X44395550Y-32581580D01*
X44395550Y-32581580D02*
X44449122Y-32629200D01*
X44449122Y-32629200D02*
X44550312Y-32676819D01*
X44550312Y-32676819D02*
X44931265Y-32676819D01*
X44931265Y-32676819D02*
X44806265Y-31676819D01*
X44806265Y-31676819D02*
X44472931Y-31676819D01*
X44472931Y-31676819D02*
X44383646Y-31724438D01*
X44383646Y-31724438D02*
X44341979Y-31772057D01*
X44341979Y-31772057D02*
X44306265Y-31867295D01*
X44306265Y-31867295D02*
X44318169Y-31962533D01*
X44318169Y-31962533D02*
X44377693Y-32057771D01*
X44377693Y-32057771D02*
X44431265Y-32105390D01*
X44431265Y-32105390D02*
X44532455Y-32153009D01*
X44532455Y-32153009D02*
X44865788Y-32153009D01*
X43788408Y-32676819D02*
X43877693Y-32629200D01*
X43877693Y-32629200D02*
X43919360Y-32581580D01*
X43919360Y-32581580D02*
X43955074Y-32486342D01*
X43955074Y-32486342D02*
X43919360Y-32200628D01*
X43919360Y-32200628D02*
X43859836Y-32105390D01*
X43859836Y-32105390D02*
X43806265Y-32057771D01*
X43806265Y-32057771D02*
X43705074Y-32010152D01*
X43705074Y-32010152D02*
X43562217Y-32010152D01*
X43562217Y-32010152D02*
X43472931Y-32057771D01*
X43472931Y-32057771D02*
X43431265Y-32105390D01*
X43431265Y-32105390D02*
X43395550Y-32200628D01*
X43395550Y-32200628D02*
X43431265Y-32486342D01*
X43431265Y-32486342D02*
X43490788Y-32581580D01*
X43490788Y-32581580D02*
X43544360Y-32629200D01*
X43544360Y-32629200D02*
X43645550Y-32676819D01*
X43645550Y-32676819D02*
X43788408Y-32676819D01*
X42597931Y-32676819D02*
X42532455Y-32153009D01*
X42532455Y-32153009D02*
X42568169Y-32057771D01*
X42568169Y-32057771D02*
X42657455Y-32010152D01*
X42657455Y-32010152D02*
X42847931Y-32010152D01*
X42847931Y-32010152D02*
X42949122Y-32057771D01*
X42591979Y-32629200D02*
X42693169Y-32676819D01*
X42693169Y-32676819D02*
X42931265Y-32676819D01*
X42931265Y-32676819D02*
X43020550Y-32629200D01*
X43020550Y-32629200D02*
X43056265Y-32533961D01*
X43056265Y-32533961D02*
X43044360Y-32438723D01*
X43044360Y-32438723D02*
X42984836Y-32343485D01*
X42984836Y-32343485D02*
X42883646Y-32295866D01*
X42883646Y-32295866D02*
X42645550Y-32295866D01*
X42645550Y-32295866D02*
X42544360Y-32248247D01*
X42121741Y-32676819D02*
X42038407Y-32010152D01*
X42062217Y-32200628D02*
X42002693Y-32105390D01*
X42002693Y-32105390D02*
X41949122Y-32057771D01*
X41949122Y-32057771D02*
X41847931Y-32010152D01*
X41847931Y-32010152D02*
X41752693Y-32010152D01*
X41074121Y-32676819D02*
X40949121Y-31676819D01*
X41068169Y-32629200D02*
X41169359Y-32676819D01*
X41169359Y-32676819D02*
X41359836Y-32676819D01*
X41359836Y-32676819D02*
X41449121Y-32629200D01*
X41449121Y-32629200D02*
X41490788Y-32581580D01*
X41490788Y-32581580D02*
X41526502Y-32486342D01*
X41526502Y-32486342D02*
X41490788Y-32200628D01*
X41490788Y-32200628D02*
X41431264Y-32105390D01*
X41431264Y-32105390D02*
X41377693Y-32057771D01*
X41377693Y-32057771D02*
X41276502Y-32010152D01*
X41276502Y-32010152D02*
X41086026Y-32010152D01*
X41086026Y-32010152D02*
X40996740Y-32057771D01*
X64121744Y-34286819D02*
X64395554Y-33810628D01*
X64693173Y-34286819D02*
X64568173Y-33286819D01*
X64568173Y-33286819D02*
X64187220Y-33286819D01*
X64187220Y-33286819D02*
X64097935Y-33334438D01*
X64097935Y-33334438D02*
X64056268Y-33382057D01*
X64056268Y-33382057D02*
X64020554Y-33477295D01*
X64020554Y-33477295D02*
X64038411Y-33620152D01*
X64038411Y-33620152D02*
X64097935Y-33715390D01*
X64097935Y-33715390D02*
X64151506Y-33763009D01*
X64151506Y-33763009D02*
X64252696Y-33810628D01*
X64252696Y-33810628D02*
X64633649Y-33810628D01*
X63306268Y-34239200D02*
X63407458Y-34286819D01*
X63407458Y-34286819D02*
X63597935Y-34286819D01*
X63597935Y-34286819D02*
X63687220Y-34239200D01*
X63687220Y-34239200D02*
X63722935Y-34143961D01*
X63722935Y-34143961D02*
X63675316Y-33763009D01*
X63675316Y-33763009D02*
X63615792Y-33667771D01*
X63615792Y-33667771D02*
X63514601Y-33620152D01*
X63514601Y-33620152D02*
X63324125Y-33620152D01*
X63324125Y-33620152D02*
X63234839Y-33667771D01*
X63234839Y-33667771D02*
X63199125Y-33763009D01*
X63199125Y-33763009D02*
X63211030Y-33858247D01*
X63211030Y-33858247D02*
X63699125Y-33953485D01*
X62847934Y-33620152D02*
X62693173Y-34286819D01*
X62693173Y-34286819D02*
X62371744Y-33620152D01*
X62062220Y-34191580D02*
X62020553Y-34239200D01*
X62020553Y-34239200D02*
X62074125Y-34286819D01*
X62074125Y-34286819D02*
X62115791Y-34239200D01*
X62115791Y-34239200D02*
X62062220Y-34191580D01*
X62062220Y-34191580D02*
X62074125Y-34286819D01*
X60437220Y-33763009D02*
X60300315Y-33810628D01*
X60300315Y-33810628D02*
X60258649Y-33858247D01*
X60258649Y-33858247D02*
X60222934Y-33953485D01*
X60222934Y-33953485D02*
X60240792Y-34096342D01*
X60240792Y-34096342D02*
X60300315Y-34191580D01*
X60300315Y-34191580D02*
X60353887Y-34239200D01*
X60353887Y-34239200D02*
X60455077Y-34286819D01*
X60455077Y-34286819D02*
X60836030Y-34286819D01*
X60836030Y-34286819D02*
X60711030Y-33286819D01*
X60711030Y-33286819D02*
X60377696Y-33286819D01*
X60377696Y-33286819D02*
X60288411Y-33334438D01*
X60288411Y-33334438D02*
X60246744Y-33382057D01*
X60246744Y-33382057D02*
X60211030Y-33477295D01*
X60211030Y-33477295D02*
X60222934Y-33572533D01*
X60222934Y-33572533D02*
X60282458Y-33667771D01*
X60282458Y-33667771D02*
X60336030Y-33715390D01*
X60336030Y-33715390D02*
X60437220Y-33763009D01*
X60437220Y-33763009D02*
X60770553Y-33763009D01*
X63301333Y-78956819D02*
X63301333Y-79671104D01*
X63301333Y-79671104D02*
X63348952Y-79813961D01*
X63348952Y-79813961D02*
X63444190Y-79909200D01*
X63444190Y-79909200D02*
X63587047Y-79956819D01*
X63587047Y-79956819D02*
X63682285Y-79956819D01*
X62396571Y-79290152D02*
X62396571Y-79956819D01*
X62634666Y-78909200D02*
X62872761Y-79623485D01*
X62872761Y-79623485D02*
X62253714Y-79623485D01*
X55689428Y-107738057D02*
X55784666Y-107690438D01*
X55784666Y-107690438D02*
X55879904Y-107595200D01*
X55879904Y-107595200D02*
X56022761Y-107452342D01*
X56022761Y-107452342D02*
X56117999Y-107404723D01*
X56117999Y-107404723D02*
X56213237Y-107404723D01*
X56165618Y-107642819D02*
X56260856Y-107595200D01*
X56260856Y-107595200D02*
X56356094Y-107499961D01*
X56356094Y-107499961D02*
X56403713Y-107309485D01*
X56403713Y-107309485D02*
X56403713Y-106976152D01*
X56403713Y-106976152D02*
X56356094Y-106785676D01*
X56356094Y-106785676D02*
X56260856Y-106690438D01*
X56260856Y-106690438D02*
X56165618Y-106642819D01*
X56165618Y-106642819D02*
X55975142Y-106642819D01*
X55975142Y-106642819D02*
X55879904Y-106690438D01*
X55879904Y-106690438D02*
X55784666Y-106785676D01*
X55784666Y-106785676D02*
X55737047Y-106976152D01*
X55737047Y-106976152D02*
X55737047Y-107309485D01*
X55737047Y-107309485D02*
X55784666Y-107499961D01*
X55784666Y-107499961D02*
X55879904Y-107595200D01*
X55879904Y-107595200D02*
X55975142Y-107642819D01*
X55975142Y-107642819D02*
X56165618Y-107642819D01*
X54784666Y-107642819D02*
X55356094Y-107642819D01*
X55070380Y-107642819D02*
X55070380Y-106642819D01*
X55070380Y-106642819D02*
X55165618Y-106785676D01*
X55165618Y-106785676D02*
X55260856Y-106880914D01*
X55260856Y-106880914D02*
X55356094Y-106928533D01*
X53879904Y-106642819D02*
X54356094Y-106642819D01*
X54356094Y-106642819D02*
X54403713Y-107119009D01*
X54403713Y-107119009D02*
X54356094Y-107071390D01*
X54356094Y-107071390D02*
X54260856Y-107023771D01*
X54260856Y-107023771D02*
X54022761Y-107023771D01*
X54022761Y-107023771D02*
X53927523Y-107071390D01*
X53927523Y-107071390D02*
X53879904Y-107119009D01*
X53879904Y-107119009D02*
X53832285Y-107214247D01*
X53832285Y-107214247D02*
X53832285Y-107452342D01*
X53832285Y-107452342D02*
X53879904Y-107547580D01*
X53879904Y-107547580D02*
X53927523Y-107595200D01*
X53927523Y-107595200D02*
X54022761Y-107642819D01*
X54022761Y-107642819D02*
X54260856Y-107642819D01*
X54260856Y-107642819D02*
X54356094Y-107595200D01*
X54356094Y-107595200D02*
X54403713Y-107547580D01*
X46571333Y-75401819D02*
X46571333Y-76116104D01*
X46571333Y-76116104D02*
X46618952Y-76258961D01*
X46618952Y-76258961D02*
X46714190Y-76354200D01*
X46714190Y-76354200D02*
X46857047Y-76401819D01*
X46857047Y-76401819D02*
X46952285Y-76401819D01*
X46142761Y-75497057D02*
X46095142Y-75449438D01*
X46095142Y-75449438D02*
X45999904Y-75401819D01*
X45999904Y-75401819D02*
X45761809Y-75401819D01*
X45761809Y-75401819D02*
X45666571Y-75449438D01*
X45666571Y-75449438D02*
X45618952Y-75497057D01*
X45618952Y-75497057D02*
X45571333Y-75592295D01*
X45571333Y-75592295D02*
X45571333Y-75687533D01*
X45571333Y-75687533D02*
X45618952Y-75830390D01*
X45618952Y-75830390D02*
X46190380Y-76401819D01*
X46190380Y-76401819D02*
X45571333Y-76401819D01*
X55451333Y-85947819D02*
X55451333Y-86662104D01*
X55451333Y-86662104D02*
X55498952Y-86804961D01*
X55498952Y-86804961D02*
X55594190Y-86900200D01*
X55594190Y-86900200D02*
X55737047Y-86947819D01*
X55737047Y-86947819D02*
X55832285Y-86947819D01*
X55070380Y-85947819D02*
X54451333Y-85947819D01*
X54451333Y-85947819D02*
X54784666Y-86328771D01*
X54784666Y-86328771D02*
X54641809Y-86328771D01*
X54641809Y-86328771D02*
X54546571Y-86376390D01*
X54546571Y-86376390D02*
X54498952Y-86424009D01*
X54498952Y-86424009D02*
X54451333Y-86519247D01*
X54451333Y-86519247D02*
X54451333Y-86757342D01*
X54451333Y-86757342D02*
X54498952Y-86852580D01*
X54498952Y-86852580D02*
X54546571Y-86900200D01*
X54546571Y-86900200D02*
X54641809Y-86947819D01*
X54641809Y-86947819D02*
X54927523Y-86947819D01*
X54927523Y-86947819D02*
X55022761Y-86900200D01*
X55022761Y-86900200D02*
X55070380Y-86852580D01*
X64551333Y-75381819D02*
X64551333Y-76096104D01*
X64551333Y-76096104D02*
X64598952Y-76238961D01*
X64598952Y-76238961D02*
X64694190Y-76334200D01*
X64694190Y-76334200D02*
X64837047Y-76381819D01*
X64837047Y-76381819D02*
X64932285Y-76381819D01*
X63551333Y-76381819D02*
X64122761Y-76381819D01*
X63837047Y-76381819D02*
X63837047Y-75381819D01*
X63837047Y-75381819D02*
X63932285Y-75524676D01*
X63932285Y-75524676D02*
X64027523Y-75619914D01*
X64027523Y-75619914D02*
X64122761Y-75667533D01*
X55760857Y-97990819D02*
X56094190Y-97514628D01*
X56332285Y-97990819D02*
X56332285Y-96990819D01*
X56332285Y-96990819D02*
X55951333Y-96990819D01*
X55951333Y-96990819D02*
X55856095Y-97038438D01*
X55856095Y-97038438D02*
X55808476Y-97086057D01*
X55808476Y-97086057D02*
X55760857Y-97181295D01*
X55760857Y-97181295D02*
X55760857Y-97324152D01*
X55760857Y-97324152D02*
X55808476Y-97419390D01*
X55808476Y-97419390D02*
X55856095Y-97467009D01*
X55856095Y-97467009D02*
X55951333Y-97514628D01*
X55951333Y-97514628D02*
X56332285Y-97514628D01*
X55379904Y-97086057D02*
X55332285Y-97038438D01*
X55332285Y-97038438D02*
X55237047Y-96990819D01*
X55237047Y-96990819D02*
X54998952Y-96990819D01*
X54998952Y-96990819D02*
X54903714Y-97038438D01*
X54903714Y-97038438D02*
X54856095Y-97086057D01*
X54856095Y-97086057D02*
X54808476Y-97181295D01*
X54808476Y-97181295D02*
X54808476Y-97276533D01*
X54808476Y-97276533D02*
X54856095Y-97419390D01*
X54856095Y-97419390D02*
X55427523Y-97990819D01*
X55427523Y-97990819D02*
X54808476Y-97990819D01*
X54332285Y-97990819D02*
X54141809Y-97990819D01*
X54141809Y-97990819D02*
X54046571Y-97943200D01*
X54046571Y-97943200D02*
X53998952Y-97895580D01*
X53998952Y-97895580D02*
X53903714Y-97752723D01*
X53903714Y-97752723D02*
X53856095Y-97562247D01*
X53856095Y-97562247D02*
X53856095Y-97181295D01*
X53856095Y-97181295D02*
X53903714Y-97086057D01*
X53903714Y-97086057D02*
X53951333Y-97038438D01*
X53951333Y-97038438D02*
X54046571Y-96990819D01*
X54046571Y-96990819D02*
X54237047Y-96990819D01*
X54237047Y-96990819D02*
X54332285Y-97038438D01*
X54332285Y-97038438D02*
X54379904Y-97086057D01*
X54379904Y-97086057D02*
X54427523Y-97181295D01*
X54427523Y-97181295D02*
X54427523Y-97419390D01*
X54427523Y-97419390D02*
X54379904Y-97514628D01*
X54379904Y-97514628D02*
X54332285Y-97562247D01*
X54332285Y-97562247D02*
X54237047Y-97609866D01*
X54237047Y-97609866D02*
X54046571Y-97609866D01*
X54046571Y-97609866D02*
X53951333Y-97562247D01*
X53951333Y-97562247D02*
X53903714Y-97514628D01*
X53903714Y-97514628D02*
X53856095Y-97419390D01*
D11*
X48708000Y-80832000D02*
X48708000Y-78172000D01*
X58928000Y-80832000D02*
X48708000Y-80832000D01*
X58928000Y-80832000D02*
X58928000Y-78172000D01*
X61528000Y-79502000D02*
X61528000Y-78172000D01*
X58928000Y-78172000D02*
X48708000Y-78172000D01*
X61528000Y-78172000D02*
X60198000Y-78172000D01*
X56678000Y-104140000D02*
X56678000Y-103340000D01*
X56678000Y-104140000D02*
X56678000Y-104940000D01*
X53558000Y-104140000D02*
X53558000Y-102340000D01*
X53558000Y-104140000D02*
X53558000Y-104940000D01*
X44908000Y-48987000D02*
X47568000Y-48987000D01*
X44908000Y-71907000D02*
X44908000Y-48987000D01*
X44908000Y-71907000D02*
X47568000Y-71907000D01*
X46238000Y-74507000D02*
X47568000Y-74507000D01*
X47568000Y-71907000D02*
X47568000Y-48987000D01*
X47568000Y-74507000D02*
X47568000Y-73177000D01*
X62968000Y-87293000D02*
X62968000Y-88543000D01*
X62678000Y-93553000D02*
X47558000Y-93553000D01*
X62678000Y-87583000D02*
X62678000Y-93553000D01*
X62668000Y-89843000D02*
X61918000Y-89843000D01*
X62668000Y-88343000D02*
X60868000Y-88343000D01*
X62668000Y-87593000D02*
X62668000Y-88343000D01*
X61918000Y-92793000D02*
X55118000Y-92793000D01*
X61918000Y-89843000D02*
X61918000Y-92793000D01*
X61718000Y-87293000D02*
X62968000Y-87293000D01*
X60868000Y-88343000D02*
X60868000Y-87593000D01*
X60868000Y-87593000D02*
X62668000Y-87593000D01*
X59368000Y-88343000D02*
X50868000Y-88343000D01*
X59368000Y-87593000D02*
X59368000Y-88343000D01*
X50868000Y-88343000D02*
X50868000Y-87593000D01*
X50868000Y-87593000D02*
X59368000Y-87593000D01*
X49368000Y-88343000D02*
X47568000Y-88343000D01*
X49368000Y-87593000D02*
X49368000Y-88343000D01*
X48318000Y-92793000D02*
X55118000Y-92793000D01*
X48318000Y-89843000D02*
X48318000Y-92793000D01*
X47568000Y-89843000D02*
X48318000Y-89843000D01*
X47568000Y-88343000D02*
X47568000Y-87593000D01*
X47568000Y-87593000D02*
X49368000Y-87593000D01*
X47558000Y-93553000D02*
X47558000Y-87583000D01*
X47558000Y-87583000D02*
X62678000Y-87583000D01*
X62888000Y-48967000D02*
X65548000Y-48967000D01*
X62888000Y-71887000D02*
X62888000Y-48967000D01*
X62888000Y-71887000D02*
X65548000Y-71887000D01*
X64218000Y-74487000D02*
X65548000Y-74487000D01*
X65548000Y-71887000D02*
X65548000Y-48967000D01*
X65548000Y-74487000D02*
X65548000Y-73157000D01*
X55845064Y-100605000D02*
X54390936Y-100605000D01*
X55845064Y-98785000D02*
X54390936Y-98785000D01*
%LPC*%
D12*
X60198000Y-79502000D03*
D13*
X57658000Y-79502000D03*
X55118000Y-79502000D03*
X52578000Y-79502000D03*
X50038000Y-79502000D03*
D14*
X54168000Y-103002500D03*
X56068000Y-103002500D03*
X55118000Y-105277500D03*
D12*
X46238000Y-73177000D03*
D13*
X46238000Y-70637000D03*
X46238000Y-68097000D03*
X46238000Y-65557000D03*
X46238000Y-63017000D03*
X46238000Y-60477000D03*
X46238000Y-57937000D03*
X46238000Y-55397000D03*
X46238000Y-52857000D03*
X46238000Y-50317000D03*
D15*
X60118000Y-90043000D03*
D16*
X57618000Y-90043000D03*
X55118000Y-90043000D03*
X52618000Y-90043000D03*
X50118000Y-90043000D03*
D12*
X64218000Y-73157000D03*
D13*
X64218000Y-70617000D03*
X64218000Y-68077000D03*
X64218000Y-65537000D03*
X64218000Y-62997000D03*
X64218000Y-60457000D03*
X64218000Y-57917000D03*
X64218000Y-55377000D03*
X64218000Y-52837000D03*
X64218000Y-50297000D03*
D17*
X56668000Y-99695000D03*
X53568000Y-99695000D03*
%LPD*%
M02*
