G04 #@! TF.GenerationSoftware,KiCad,Pcbnew,7.0.6*
G04 #@! TF.CreationDate,2024-03-02T19:51:46+01:00*
G04 #@! TF.ProjectId,Alarm_lights,416c6172-6d5f-46c6-9967-6874732e6b69,1.0.1*
G04 #@! TF.SameCoordinates,Original*
G04 #@! TF.FileFunction,Soldermask,Top*
G04 #@! TF.FilePolarity,Negative*
%FSLAX46Y46*%
G04 Gerber Fmt 4.6, Leading zero omitted, Abs format (unit mm)*
G04 Created by KiCad (PCBNEW 7.0.6) date 2024-03-02 19:51:46*
%MOMM*%
%LPD*%
G01*
G04 APERTURE LIST*
G04 Aperture macros list*
%AMRoundRect*
0 Rectangle with rounded corners*
0 $1 Rounding radius*
0 $2 $3 $4 $5 $6 $7 $8 $9 X,Y pos of 4 corners*
0 Add a 4 corners polygon primitive as box body*
4,1,4,$2,$3,$4,$5,$6,$7,$8,$9,$2,$3,0*
0 Add four circle primitives for the rounded corners*
1,1,$1+$1,$2,$3*
1,1,$1+$1,$4,$5*
1,1,$1+$1,$6,$7*
1,1,$1+$1,$8,$9*
0 Add four rect primitives between the rounded corners*
20,1,$1+$1,$2,$3,$4,$5,0*
20,1,$1+$1,$4,$5,$6,$7,0*
20,1,$1+$1,$6,$7,$8,$9,0*
20,1,$1+$1,$8,$9,$2,$3,0*%
G04 Aperture macros list end*
%ADD10RoundRect,0.150000X0.150000X-0.512500X0.150000X0.512500X-0.150000X0.512500X-0.150000X-0.512500X0*%
%ADD11RoundRect,0.250001X0.462499X0.624999X-0.462499X0.624999X-0.462499X-0.624999X0.462499X-0.624999X0*%
%ADD12RoundRect,0.250000X0.400000X0.625000X-0.400000X0.625000X-0.400000X-0.625000X0.400000X-0.625000X0*%
%ADD13RoundRect,0.250000X-0.400000X-0.625000X0.400000X-0.625000X0.400000X0.625000X-0.400000X0.625000X0*%
%ADD14RoundRect,0.250001X-0.462499X-0.624999X0.462499X-0.624999X0.462499X0.624999X-0.462499X0.624999X0*%
%ADD15R,1.700000X1.700000*%
%ADD16O,1.700000X1.700000*%
%ADD17RoundRect,0.250000X0.600000X0.725000X-0.600000X0.725000X-0.600000X-0.725000X0.600000X-0.725000X0*%
%ADD18O,1.700000X1.950000*%
G04 APERTURE END LIST*
D10*
X29530000Y-75686500D03*
X31430000Y-75686500D03*
X30480000Y-73411500D03*
D11*
X72353500Y-77470000D03*
X69378500Y-77470000D03*
D10*
X29530000Y-30347500D03*
X31430000Y-30347500D03*
X30480000Y-28072500D03*
X78806000Y-90799500D03*
X80706000Y-90799500D03*
X79756000Y-88524500D03*
X78806000Y-105912500D03*
X80706000Y-105912500D03*
X79756000Y-103637500D03*
D12*
X40920000Y-73660000D03*
X37820000Y-73660000D03*
D10*
X78806000Y-45460500D03*
X80706000Y-45460500D03*
X79756000Y-43185500D03*
D11*
X72353500Y-92583000D03*
X69378500Y-92583000D03*
D12*
X32030000Y-65278000D03*
X28930000Y-65278000D03*
D13*
X69316000Y-88773000D03*
X72416000Y-88773000D03*
D12*
X81306000Y-125730000D03*
X78206000Y-125730000D03*
D14*
X37882500Y-122809000D03*
X40857500Y-122809000D03*
D12*
X81306000Y-35052000D03*
X78206000Y-35052000D03*
D14*
X37882500Y-47244000D03*
X40857500Y-47244000D03*
X37882500Y-32131000D03*
X40857500Y-32131000D03*
D11*
X72353500Y-32131000D03*
X69378500Y-32131000D03*
D13*
X69316000Y-28321000D03*
X72416000Y-28321000D03*
D12*
X40920000Y-58547000D03*
X37820000Y-58547000D03*
D13*
X69316000Y-103886000D03*
X72416000Y-103886000D03*
D10*
X29530000Y-45460500D03*
X31430000Y-45460500D03*
X30480000Y-43185500D03*
D12*
X81306000Y-80391000D03*
X78206000Y-80391000D03*
D11*
X72353500Y-107696000D03*
X69378500Y-107696000D03*
D10*
X29530000Y-121025500D03*
X31430000Y-121025500D03*
X30480000Y-118750500D03*
D13*
X69316000Y-58547000D03*
X72416000Y-58547000D03*
D12*
X81306000Y-65278000D03*
X78206000Y-65278000D03*
X32030000Y-95504000D03*
X28930000Y-95504000D03*
D14*
X37882500Y-107696000D03*
X40857500Y-107696000D03*
D10*
X78806000Y-30347500D03*
X80706000Y-30347500D03*
X79756000Y-28072500D03*
D13*
X69316000Y-73660000D03*
X72416000Y-73660000D03*
D12*
X40920000Y-43434000D03*
X37820000Y-43434000D03*
X81306000Y-50165000D03*
X78206000Y-50165000D03*
D10*
X78806000Y-60573500D03*
X80706000Y-60573500D03*
X79756000Y-58298500D03*
X29530000Y-90799500D03*
X31430000Y-90799500D03*
X30480000Y-88524500D03*
D12*
X81306000Y-95504000D03*
X78206000Y-95504000D03*
D13*
X69316000Y-118999000D03*
X72416000Y-118999000D03*
D11*
X72353500Y-47244000D03*
X69378500Y-47244000D03*
D12*
X40920000Y-28321000D03*
X37820000Y-28321000D03*
D14*
X37882500Y-92583000D03*
X40857500Y-92583000D03*
D10*
X78806000Y-121025500D03*
X80706000Y-121025500D03*
X79756000Y-118750500D03*
D12*
X40920000Y-88773000D03*
X37820000Y-88773000D03*
D13*
X69316000Y-43434000D03*
X72416000Y-43434000D03*
D12*
X32030000Y-50165000D03*
X28930000Y-50165000D03*
D14*
X37882500Y-77470000D03*
X40857500Y-77470000D03*
D12*
X32030000Y-35052000D03*
X28930000Y-35052000D03*
X32030000Y-125730000D03*
X28930000Y-125730000D03*
D10*
X78806000Y-75686500D03*
X80706000Y-75686500D03*
X79756000Y-73411500D03*
D12*
X32030000Y-110617000D03*
X28930000Y-110617000D03*
X40920000Y-118999000D03*
X37820000Y-118999000D03*
D11*
X72353500Y-62357000D03*
X69378500Y-62357000D03*
D12*
X40920000Y-103886000D03*
X37820000Y-103886000D03*
D10*
X29530000Y-60573500D03*
X31430000Y-60573500D03*
X30480000Y-58298500D03*
D12*
X32030000Y-80391000D03*
X28930000Y-80391000D03*
D11*
X72353500Y-122809000D03*
X69378500Y-122809000D03*
D14*
X37882500Y-62357000D03*
X40857500Y-62357000D03*
D10*
X29530000Y-105912500D03*
X31430000Y-105912500D03*
X30480000Y-103637500D03*
D12*
X81306000Y-110617000D03*
X78206000Y-110617000D03*
D15*
X60198000Y-79502000D03*
D16*
X57658000Y-79502000D03*
X55118000Y-79502000D03*
X52578000Y-79502000D03*
X50038000Y-79502000D03*
D15*
X46238000Y-73177000D03*
D16*
X46238000Y-70637000D03*
X46238000Y-68097000D03*
X46238000Y-65557000D03*
X46238000Y-63017000D03*
X46238000Y-60477000D03*
X46238000Y-57937000D03*
X46238000Y-55397000D03*
X46238000Y-52857000D03*
X46238000Y-50317000D03*
D17*
X60118000Y-90043000D03*
D18*
X57618000Y-90043000D03*
X55118000Y-90043000D03*
X52618000Y-90043000D03*
X50118000Y-90043000D03*
D15*
X64218000Y-73157000D03*
D16*
X64218000Y-70617000D03*
X64218000Y-68077000D03*
X64218000Y-65537000D03*
X64218000Y-62997000D03*
X64218000Y-60457000D03*
X64218000Y-57917000D03*
X64218000Y-55377000D03*
X64218000Y-52837000D03*
X64218000Y-50297000D03*
M02*
