G04 #@! TF.GenerationSoftware,KiCad,Pcbnew,7.0.10*
G04 #@! TF.CreationDate,2024-03-07T05:48:27-05:00*
G04 #@! TF.ProjectId,Alarm_lights,416c6172-6d5f-46c6-9967-6874732e6b69,1.0.1*
G04 #@! TF.SameCoordinates,Original*
G04 #@! TF.FileFunction,Legend,Top*
G04 #@! TF.FilePolarity,Positive*
%FSLAX46Y46*%
G04 Gerber Fmt 4.6, Leading zero omitted, Abs format (unit mm)*
G04 Created by KiCad (PCBNEW 7.0.10) date 2024-03-07 05:48:27*
%MOMM*%
%LPD*%
G01*
G04 APERTURE LIST*
G04 Aperture macros list*
%AMRoundRect*
0 Rectangle with rounded corners*
0 $1 Rounding radius*
0 $2 $3 $4 $5 $6 $7 $8 $9 X,Y pos of 4 corners*
0 Add a 4 corners polygon primitive as box body*
4,1,4,$2,$3,$4,$5,$6,$7,$8,$9,$2,$3,0*
0 Add four circle primitives for the rounded corners*
1,1,$1+$1,$2,$3*
1,1,$1+$1,$4,$5*
1,1,$1+$1,$6,$7*
1,1,$1+$1,$8,$9*
0 Add four rect primitives between the rounded corners*
20,1,$1+$1,$2,$3,$4,$5,0*
20,1,$1+$1,$4,$5,$6,$7,0*
20,1,$1+$1,$6,$7,$8,$9,0*
20,1,$1+$1,$8,$9,$2,$3,0*%
G04 Aperture macros list end*
%ADD10C,0.150000*%
%ADD11C,0.200000*%
%ADD12C,0.120000*%
%ADD13RoundRect,0.150000X0.150000X-0.512500X0.150000X0.512500X-0.150000X0.512500X-0.150000X-0.512500X0*%
%ADD14RoundRect,0.250001X0.462499X0.624999X-0.462499X0.624999X-0.462499X-0.624999X0.462499X-0.624999X0*%
%ADD15RoundRect,0.250000X0.400000X0.625000X-0.400000X0.625000X-0.400000X-0.625000X0.400000X-0.625000X0*%
%ADD16RoundRect,0.250000X-0.400000X-0.625000X0.400000X-0.625000X0.400000X0.625000X-0.400000X0.625000X0*%
%ADD17RoundRect,0.250001X-0.462499X-0.624999X0.462499X-0.624999X0.462499X0.624999X-0.462499X0.624999X0*%
%ADD18R,1.700000X1.700000*%
%ADD19O,1.700000X1.700000*%
%ADD20RoundRect,0.250000X0.600000X0.725000X-0.600000X0.725000X-0.600000X-0.725000X0.600000X-0.725000X0*%
%ADD21O,1.700000X1.950000*%
G04 APERTURE END LIST*
D10*
X25400000Y-25400000D02*
X53340000Y-25400000D01*
X53340000Y-38862000D01*
X25400000Y-38862000D01*
X25400000Y-25400000D01*
X56896000Y-100965000D02*
X84836000Y-100965000D01*
X84836000Y-114427000D01*
X56896000Y-114427000D01*
X56896000Y-100965000D01*
X25400000Y-55626000D02*
X53340000Y-55626000D01*
X53340000Y-69088000D01*
X25400000Y-69088000D01*
X25400000Y-55626000D01*
X25400000Y-116078000D02*
X53340000Y-116078000D01*
X53340000Y-129540000D01*
X25400000Y-129540000D01*
X25400000Y-116078000D01*
X25400000Y-100965000D02*
X53340000Y-100965000D01*
X53340000Y-114427000D01*
X25400000Y-114427000D01*
X25400000Y-100965000D01*
X56896000Y-70739000D02*
X84836000Y-70739000D01*
X84836000Y-84201000D01*
X56896000Y-84201000D01*
X56896000Y-70739000D01*
X25400000Y-40513000D02*
X53340000Y-40513000D01*
X53340000Y-53975000D01*
X25400000Y-53975000D01*
X25400000Y-40513000D01*
X56896000Y-40513000D02*
X84836000Y-40513000D01*
X84836000Y-53975000D01*
X56896000Y-53975000D01*
X56896000Y-40513000D01*
X56896000Y-55626000D02*
X84836000Y-55626000D01*
X84836000Y-69088000D01*
X56896000Y-69088000D01*
X56896000Y-55626000D01*
X56896000Y-25400000D02*
X84836000Y-25400000D01*
X84836000Y-38862000D01*
X56896000Y-38862000D01*
X56896000Y-25400000D01*
X25400000Y-70739000D02*
X53340000Y-70739000D01*
X53340000Y-84201000D01*
X25400000Y-84201000D01*
X25400000Y-70739000D01*
X56896000Y-85852000D02*
X84836000Y-85852000D01*
X84836000Y-99314000D01*
X56896000Y-99314000D01*
X56896000Y-85852000D01*
X25400000Y-85852000D02*
X53340000Y-85852000D01*
X53340000Y-99314000D01*
X25400000Y-99314000D01*
X25400000Y-85852000D01*
X56896000Y-116078000D02*
X84836000Y-116078000D01*
X84836000Y-129540000D01*
X56896000Y-129540000D01*
X56896000Y-116078000D01*
X30384761Y-72178057D02*
X30289523Y-72130438D01*
X30289523Y-72130438D02*
X30194285Y-72035200D01*
X30194285Y-72035200D02*
X30051428Y-71892342D01*
X30051428Y-71892342D02*
X29956190Y-71844723D01*
X29956190Y-71844723D02*
X29860952Y-71844723D01*
X29908571Y-72082819D02*
X29813333Y-72035200D01*
X29813333Y-72035200D02*
X29718095Y-71939961D01*
X29718095Y-71939961D02*
X29670476Y-71749485D01*
X29670476Y-71749485D02*
X29670476Y-71416152D01*
X29670476Y-71416152D02*
X29718095Y-71225676D01*
X29718095Y-71225676D02*
X29813333Y-71130438D01*
X29813333Y-71130438D02*
X29908571Y-71082819D01*
X29908571Y-71082819D02*
X30099047Y-71082819D01*
X30099047Y-71082819D02*
X30194285Y-71130438D01*
X30194285Y-71130438D02*
X30289523Y-71225676D01*
X30289523Y-71225676D02*
X30337142Y-71416152D01*
X30337142Y-71416152D02*
X30337142Y-71749485D01*
X30337142Y-71749485D02*
X30289523Y-71939961D01*
X30289523Y-71939961D02*
X30194285Y-72035200D01*
X30194285Y-72035200D02*
X30099047Y-72082819D01*
X30099047Y-72082819D02*
X29908571Y-72082819D01*
X31194285Y-71416152D02*
X31194285Y-72082819D01*
X30956190Y-71035200D02*
X30718095Y-71749485D01*
X30718095Y-71749485D02*
X31337142Y-71749485D01*
X65460714Y-77924819D02*
X65460714Y-76924819D01*
X65460714Y-76924819D02*
X65698809Y-76924819D01*
X65698809Y-76924819D02*
X65841666Y-76972438D01*
X65841666Y-76972438D02*
X65936904Y-77067676D01*
X65936904Y-77067676D02*
X65984523Y-77162914D01*
X65984523Y-77162914D02*
X66032142Y-77353390D01*
X66032142Y-77353390D02*
X66032142Y-77496247D01*
X66032142Y-77496247D02*
X65984523Y-77686723D01*
X65984523Y-77686723D02*
X65936904Y-77781961D01*
X65936904Y-77781961D02*
X65841666Y-77877200D01*
X65841666Y-77877200D02*
X65698809Y-77924819D01*
X65698809Y-77924819D02*
X65460714Y-77924819D01*
X66984523Y-77924819D02*
X66413095Y-77924819D01*
X66698809Y-77924819D02*
X66698809Y-76924819D01*
X66698809Y-76924819D02*
X66603571Y-77067676D01*
X66603571Y-77067676D02*
X66508333Y-77162914D01*
X66508333Y-77162914D02*
X66413095Y-77210533D01*
X67936904Y-77924819D02*
X67365476Y-77924819D01*
X67651190Y-77924819D02*
X67651190Y-76924819D01*
X67651190Y-76924819D02*
X67555952Y-77067676D01*
X67555952Y-77067676D02*
X67460714Y-77162914D01*
X67460714Y-77162914D02*
X67365476Y-77210533D01*
D11*
X68550523Y-81732219D02*
X68276713Y-81256028D01*
X67979094Y-81732219D02*
X68104094Y-80732219D01*
X68104094Y-80732219D02*
X68485047Y-80732219D01*
X68485047Y-80732219D02*
X68574332Y-80779838D01*
X68574332Y-80779838D02*
X68615999Y-80827457D01*
X68615999Y-80827457D02*
X68651713Y-80922695D01*
X68651713Y-80922695D02*
X68633856Y-81065552D01*
X68633856Y-81065552D02*
X68574332Y-81160790D01*
X68574332Y-81160790D02*
X68520761Y-81208409D01*
X68520761Y-81208409D02*
X68419571Y-81256028D01*
X68419571Y-81256028D02*
X68038618Y-81256028D01*
X69044571Y-81208409D02*
X69377904Y-81208409D01*
X69455285Y-81732219D02*
X68979094Y-81732219D01*
X68979094Y-81732219D02*
X69104094Y-80732219D01*
X69104094Y-80732219D02*
X69580285Y-80732219D01*
X69842190Y-81684600D02*
X69979094Y-81732219D01*
X69979094Y-81732219D02*
X70217190Y-81732219D01*
X70217190Y-81732219D02*
X70318380Y-81684600D01*
X70318380Y-81684600D02*
X70371952Y-81636980D01*
X70371952Y-81636980D02*
X70431475Y-81541742D01*
X70431475Y-81541742D02*
X70443380Y-81446504D01*
X70443380Y-81446504D02*
X70407666Y-81351266D01*
X70407666Y-81351266D02*
X70365999Y-81303647D01*
X70365999Y-81303647D02*
X70276714Y-81256028D01*
X70276714Y-81256028D02*
X70092190Y-81208409D01*
X70092190Y-81208409D02*
X70002904Y-81160790D01*
X70002904Y-81160790D02*
X69961237Y-81113171D01*
X69961237Y-81113171D02*
X69925523Y-81017933D01*
X69925523Y-81017933D02*
X69937428Y-80922695D01*
X69937428Y-80922695D02*
X69996952Y-80827457D01*
X69996952Y-80827457D02*
X70050523Y-80779838D01*
X70050523Y-80779838D02*
X70151714Y-80732219D01*
X70151714Y-80732219D02*
X70389809Y-80732219D01*
X70389809Y-80732219D02*
X70526714Y-80779838D01*
X70818380Y-80732219D02*
X71389809Y-80732219D01*
X70979095Y-81732219D02*
X71104095Y-80732219D01*
X71586238Y-81446504D02*
X72062428Y-81446504D01*
X71455285Y-81732219D02*
X71913619Y-80732219D01*
X71913619Y-80732219D02*
X72121952Y-81732219D01*
X73026714Y-81732219D02*
X72752904Y-81256028D01*
X72455285Y-81732219D02*
X72580285Y-80732219D01*
X72580285Y-80732219D02*
X72961238Y-80732219D01*
X72961238Y-80732219D02*
X73050523Y-80779838D01*
X73050523Y-80779838D02*
X73092190Y-80827457D01*
X73092190Y-80827457D02*
X73127904Y-80922695D01*
X73127904Y-80922695D02*
X73110047Y-81065552D01*
X73110047Y-81065552D02*
X73050523Y-81160790D01*
X73050523Y-81160790D02*
X72996952Y-81208409D01*
X72996952Y-81208409D02*
X72895762Y-81256028D01*
X72895762Y-81256028D02*
X72514809Y-81256028D01*
X73437428Y-80732219D02*
X74008857Y-80732219D01*
X73598143Y-81732219D02*
X73723143Y-80732219D01*
D10*
X30384761Y-26839057D02*
X30289523Y-26791438D01*
X30289523Y-26791438D02*
X30194285Y-26696200D01*
X30194285Y-26696200D02*
X30051428Y-26553342D01*
X30051428Y-26553342D02*
X29956190Y-26505723D01*
X29956190Y-26505723D02*
X29860952Y-26505723D01*
X29908571Y-26743819D02*
X29813333Y-26696200D01*
X29813333Y-26696200D02*
X29718095Y-26600961D01*
X29718095Y-26600961D02*
X29670476Y-26410485D01*
X29670476Y-26410485D02*
X29670476Y-26077152D01*
X29670476Y-26077152D02*
X29718095Y-25886676D01*
X29718095Y-25886676D02*
X29813333Y-25791438D01*
X29813333Y-25791438D02*
X29908571Y-25743819D01*
X29908571Y-25743819D02*
X30099047Y-25743819D01*
X30099047Y-25743819D02*
X30194285Y-25791438D01*
X30194285Y-25791438D02*
X30289523Y-25886676D01*
X30289523Y-25886676D02*
X30337142Y-26077152D01*
X30337142Y-26077152D02*
X30337142Y-26410485D01*
X30337142Y-26410485D02*
X30289523Y-26600961D01*
X30289523Y-26600961D02*
X30194285Y-26696200D01*
X30194285Y-26696200D02*
X30099047Y-26743819D01*
X30099047Y-26743819D02*
X29908571Y-26743819D01*
X31289523Y-26743819D02*
X30718095Y-26743819D01*
X31003809Y-26743819D02*
X31003809Y-25743819D01*
X31003809Y-25743819D02*
X30908571Y-25886676D01*
X30908571Y-25886676D02*
X30813333Y-25981914D01*
X30813333Y-25981914D02*
X30718095Y-26029533D01*
X79184571Y-87291057D02*
X79089333Y-87243438D01*
X79089333Y-87243438D02*
X78994095Y-87148200D01*
X78994095Y-87148200D02*
X78851238Y-87005342D01*
X78851238Y-87005342D02*
X78756000Y-86957723D01*
X78756000Y-86957723D02*
X78660762Y-86957723D01*
X78708381Y-87195819D02*
X78613143Y-87148200D01*
X78613143Y-87148200D02*
X78517905Y-87052961D01*
X78517905Y-87052961D02*
X78470286Y-86862485D01*
X78470286Y-86862485D02*
X78470286Y-86529152D01*
X78470286Y-86529152D02*
X78517905Y-86338676D01*
X78517905Y-86338676D02*
X78613143Y-86243438D01*
X78613143Y-86243438D02*
X78708381Y-86195819D01*
X78708381Y-86195819D02*
X78898857Y-86195819D01*
X78898857Y-86195819D02*
X78994095Y-86243438D01*
X78994095Y-86243438D02*
X79089333Y-86338676D01*
X79089333Y-86338676D02*
X79136952Y-86529152D01*
X79136952Y-86529152D02*
X79136952Y-86862485D01*
X79136952Y-86862485D02*
X79089333Y-87052961D01*
X79089333Y-87052961D02*
X78994095Y-87148200D01*
X78994095Y-87148200D02*
X78898857Y-87195819D01*
X78898857Y-87195819D02*
X78708381Y-87195819D01*
X80089333Y-87195819D02*
X79517905Y-87195819D01*
X79803619Y-87195819D02*
X79803619Y-86195819D01*
X79803619Y-86195819D02*
X79708381Y-86338676D01*
X79708381Y-86338676D02*
X79613143Y-86433914D01*
X79613143Y-86433914D02*
X79517905Y-86481533D01*
X80470286Y-86291057D02*
X80517905Y-86243438D01*
X80517905Y-86243438D02*
X80613143Y-86195819D01*
X80613143Y-86195819D02*
X80851238Y-86195819D01*
X80851238Y-86195819D02*
X80946476Y-86243438D01*
X80946476Y-86243438D02*
X80994095Y-86291057D01*
X80994095Y-86291057D02*
X81041714Y-86386295D01*
X81041714Y-86386295D02*
X81041714Y-86481533D01*
X81041714Y-86481533D02*
X80994095Y-86624390D01*
X80994095Y-86624390D02*
X80422667Y-87195819D01*
X80422667Y-87195819D02*
X81041714Y-87195819D01*
X79184571Y-102404057D02*
X79089333Y-102356438D01*
X79089333Y-102356438D02*
X78994095Y-102261200D01*
X78994095Y-102261200D02*
X78851238Y-102118342D01*
X78851238Y-102118342D02*
X78756000Y-102070723D01*
X78756000Y-102070723D02*
X78660762Y-102070723D01*
X78708381Y-102308819D02*
X78613143Y-102261200D01*
X78613143Y-102261200D02*
X78517905Y-102165961D01*
X78517905Y-102165961D02*
X78470286Y-101975485D01*
X78470286Y-101975485D02*
X78470286Y-101642152D01*
X78470286Y-101642152D02*
X78517905Y-101451676D01*
X78517905Y-101451676D02*
X78613143Y-101356438D01*
X78613143Y-101356438D02*
X78708381Y-101308819D01*
X78708381Y-101308819D02*
X78898857Y-101308819D01*
X78898857Y-101308819D02*
X78994095Y-101356438D01*
X78994095Y-101356438D02*
X79089333Y-101451676D01*
X79089333Y-101451676D02*
X79136952Y-101642152D01*
X79136952Y-101642152D02*
X79136952Y-101975485D01*
X79136952Y-101975485D02*
X79089333Y-102165961D01*
X79089333Y-102165961D02*
X78994095Y-102261200D01*
X78994095Y-102261200D02*
X78898857Y-102308819D01*
X78898857Y-102308819D02*
X78708381Y-102308819D01*
X80089333Y-102308819D02*
X79517905Y-102308819D01*
X79803619Y-102308819D02*
X79803619Y-101308819D01*
X79803619Y-101308819D02*
X79708381Y-101451676D01*
X79708381Y-101451676D02*
X79613143Y-101546914D01*
X79613143Y-101546914D02*
X79517905Y-101594533D01*
X80422667Y-101308819D02*
X81041714Y-101308819D01*
X81041714Y-101308819D02*
X80708381Y-101689771D01*
X80708381Y-101689771D02*
X80851238Y-101689771D01*
X80851238Y-101689771D02*
X80946476Y-101737390D01*
X80946476Y-101737390D02*
X80994095Y-101785009D01*
X80994095Y-101785009D02*
X81041714Y-101880247D01*
X81041714Y-101880247D02*
X81041714Y-102118342D01*
X81041714Y-102118342D02*
X80994095Y-102213580D01*
X80994095Y-102213580D02*
X80946476Y-102261200D01*
X80946476Y-102261200D02*
X80851238Y-102308819D01*
X80851238Y-102308819D02*
X80565524Y-102308819D01*
X80565524Y-102308819D02*
X80470286Y-102261200D01*
X80470286Y-102261200D02*
X80422667Y-102213580D01*
X43394333Y-74114819D02*
X43061000Y-73638628D01*
X42822905Y-74114819D02*
X42822905Y-73114819D01*
X42822905Y-73114819D02*
X43203857Y-73114819D01*
X43203857Y-73114819D02*
X43299095Y-73162438D01*
X43299095Y-73162438D02*
X43346714Y-73210057D01*
X43346714Y-73210057D02*
X43394333Y-73305295D01*
X43394333Y-73305295D02*
X43394333Y-73448152D01*
X43394333Y-73448152D02*
X43346714Y-73543390D01*
X43346714Y-73543390D02*
X43299095Y-73591009D01*
X43299095Y-73591009D02*
X43203857Y-73638628D01*
X43203857Y-73638628D02*
X42822905Y-73638628D01*
X44251476Y-73448152D02*
X44251476Y-74114819D01*
X44013381Y-73067200D02*
X43775286Y-73781485D01*
X43775286Y-73781485D02*
X44394333Y-73781485D01*
X79660761Y-41952057D02*
X79565523Y-41904438D01*
X79565523Y-41904438D02*
X79470285Y-41809200D01*
X79470285Y-41809200D02*
X79327428Y-41666342D01*
X79327428Y-41666342D02*
X79232190Y-41618723D01*
X79232190Y-41618723D02*
X79136952Y-41618723D01*
X79184571Y-41856819D02*
X79089333Y-41809200D01*
X79089333Y-41809200D02*
X78994095Y-41713961D01*
X78994095Y-41713961D02*
X78946476Y-41523485D01*
X78946476Y-41523485D02*
X78946476Y-41190152D01*
X78946476Y-41190152D02*
X78994095Y-40999676D01*
X78994095Y-40999676D02*
X79089333Y-40904438D01*
X79089333Y-40904438D02*
X79184571Y-40856819D01*
X79184571Y-40856819D02*
X79375047Y-40856819D01*
X79375047Y-40856819D02*
X79470285Y-40904438D01*
X79470285Y-40904438D02*
X79565523Y-40999676D01*
X79565523Y-40999676D02*
X79613142Y-41190152D01*
X79613142Y-41190152D02*
X79613142Y-41523485D01*
X79613142Y-41523485D02*
X79565523Y-41713961D01*
X79565523Y-41713961D02*
X79470285Y-41809200D01*
X79470285Y-41809200D02*
X79375047Y-41856819D01*
X79375047Y-41856819D02*
X79184571Y-41856819D01*
X80089333Y-41856819D02*
X80279809Y-41856819D01*
X80279809Y-41856819D02*
X80375047Y-41809200D01*
X80375047Y-41809200D02*
X80422666Y-41761580D01*
X80422666Y-41761580D02*
X80517904Y-41618723D01*
X80517904Y-41618723D02*
X80565523Y-41428247D01*
X80565523Y-41428247D02*
X80565523Y-41047295D01*
X80565523Y-41047295D02*
X80517904Y-40952057D01*
X80517904Y-40952057D02*
X80470285Y-40904438D01*
X80470285Y-40904438D02*
X80375047Y-40856819D01*
X80375047Y-40856819D02*
X80184571Y-40856819D01*
X80184571Y-40856819D02*
X80089333Y-40904438D01*
X80089333Y-40904438D02*
X80041714Y-40952057D01*
X80041714Y-40952057D02*
X79994095Y-41047295D01*
X79994095Y-41047295D02*
X79994095Y-41285390D01*
X79994095Y-41285390D02*
X80041714Y-41380628D01*
X80041714Y-41380628D02*
X80089333Y-41428247D01*
X80089333Y-41428247D02*
X80184571Y-41475866D01*
X80184571Y-41475866D02*
X80375047Y-41475866D01*
X80375047Y-41475866D02*
X80470285Y-41428247D01*
X80470285Y-41428247D02*
X80517904Y-41380628D01*
X80517904Y-41380628D02*
X80565523Y-41285390D01*
X65460714Y-93037819D02*
X65460714Y-92037819D01*
X65460714Y-92037819D02*
X65698809Y-92037819D01*
X65698809Y-92037819D02*
X65841666Y-92085438D01*
X65841666Y-92085438D02*
X65936904Y-92180676D01*
X65936904Y-92180676D02*
X65984523Y-92275914D01*
X65984523Y-92275914D02*
X66032142Y-92466390D01*
X66032142Y-92466390D02*
X66032142Y-92609247D01*
X66032142Y-92609247D02*
X65984523Y-92799723D01*
X65984523Y-92799723D02*
X65936904Y-92894961D01*
X65936904Y-92894961D02*
X65841666Y-92990200D01*
X65841666Y-92990200D02*
X65698809Y-93037819D01*
X65698809Y-93037819D02*
X65460714Y-93037819D01*
X66984523Y-93037819D02*
X66413095Y-93037819D01*
X66698809Y-93037819D02*
X66698809Y-92037819D01*
X66698809Y-92037819D02*
X66603571Y-92180676D01*
X66603571Y-92180676D02*
X66508333Y-92275914D01*
X66508333Y-92275914D02*
X66413095Y-92323533D01*
X67365476Y-92133057D02*
X67413095Y-92085438D01*
X67413095Y-92085438D02*
X67508333Y-92037819D01*
X67508333Y-92037819D02*
X67746428Y-92037819D01*
X67746428Y-92037819D02*
X67841666Y-92085438D01*
X67841666Y-92085438D02*
X67889285Y-92133057D01*
X67889285Y-92133057D02*
X67936904Y-92228295D01*
X67936904Y-92228295D02*
X67936904Y-92323533D01*
X67936904Y-92323533D02*
X67889285Y-92466390D01*
X67889285Y-92466390D02*
X67317857Y-93037819D01*
X67317857Y-93037819D02*
X67936904Y-93037819D01*
D11*
X67818380Y-95845219D02*
X68389809Y-95845219D01*
X67979095Y-96845219D02*
X68104095Y-95845219D01*
X69169571Y-96845219D02*
X68895761Y-96369028D01*
X68598142Y-96845219D02*
X68723142Y-95845219D01*
X68723142Y-95845219D02*
X69104095Y-95845219D01*
X69104095Y-95845219D02*
X69193380Y-95892838D01*
X69193380Y-95892838D02*
X69235047Y-95940457D01*
X69235047Y-95940457D02*
X69270761Y-96035695D01*
X69270761Y-96035695D02*
X69252904Y-96178552D01*
X69252904Y-96178552D02*
X69193380Y-96273790D01*
X69193380Y-96273790D02*
X69139809Y-96321409D01*
X69139809Y-96321409D02*
X69038619Y-96369028D01*
X69038619Y-96369028D02*
X68657666Y-96369028D01*
X69586238Y-96559504D02*
X70062428Y-96559504D01*
X69455285Y-96845219D02*
X69913619Y-95845219D01*
X69913619Y-95845219D02*
X70121952Y-96845219D01*
X71038619Y-96749980D02*
X70985047Y-96797600D01*
X70985047Y-96797600D02*
X70836238Y-96845219D01*
X70836238Y-96845219D02*
X70741000Y-96845219D01*
X70741000Y-96845219D02*
X70604095Y-96797600D01*
X70604095Y-96797600D02*
X70520762Y-96702361D01*
X70520762Y-96702361D02*
X70485047Y-96607123D01*
X70485047Y-96607123D02*
X70461238Y-96416647D01*
X70461238Y-96416647D02*
X70479095Y-96273790D01*
X70479095Y-96273790D02*
X70550523Y-96083314D01*
X70550523Y-96083314D02*
X70610047Y-95988076D01*
X70610047Y-95988076D02*
X70717190Y-95892838D01*
X70717190Y-95892838D02*
X70866000Y-95845219D01*
X70866000Y-95845219D02*
X70961238Y-95845219D01*
X70961238Y-95845219D02*
X71098143Y-95892838D01*
X71098143Y-95892838D02*
X71139809Y-95940457D01*
X71455285Y-96845219D02*
X71580285Y-95845219D01*
X72026714Y-96845219D02*
X71669571Y-96273790D01*
X72151714Y-95845219D02*
X71508857Y-96416647D01*
X72520762Y-96321409D02*
X72854095Y-96321409D01*
X72931476Y-96845219D02*
X72455285Y-96845219D01*
X72455285Y-96845219D02*
X72580285Y-95845219D01*
X72580285Y-95845219D02*
X73056476Y-95845219D01*
X73931476Y-96845219D02*
X73657666Y-96369028D01*
X73360047Y-96845219D02*
X73485047Y-95845219D01*
X73485047Y-95845219D02*
X73866000Y-95845219D01*
X73866000Y-95845219D02*
X73955285Y-95892838D01*
X73955285Y-95892838D02*
X73996952Y-95940457D01*
X73996952Y-95940457D02*
X74032666Y-96035695D01*
X74032666Y-96035695D02*
X74014809Y-96178552D01*
X74014809Y-96178552D02*
X73955285Y-96273790D01*
X73955285Y-96273790D02*
X73901714Y-96321409D01*
X73901714Y-96321409D02*
X73800524Y-96369028D01*
X73800524Y-96369028D02*
X73419571Y-96369028D01*
D10*
X66032142Y-89227819D02*
X65698809Y-88751628D01*
X65460714Y-89227819D02*
X65460714Y-88227819D01*
X65460714Y-88227819D02*
X65841666Y-88227819D01*
X65841666Y-88227819D02*
X65936904Y-88275438D01*
X65936904Y-88275438D02*
X65984523Y-88323057D01*
X65984523Y-88323057D02*
X66032142Y-88418295D01*
X66032142Y-88418295D02*
X66032142Y-88561152D01*
X66032142Y-88561152D02*
X65984523Y-88656390D01*
X65984523Y-88656390D02*
X65936904Y-88704009D01*
X65936904Y-88704009D02*
X65841666Y-88751628D01*
X65841666Y-88751628D02*
X65460714Y-88751628D01*
X66984523Y-89227819D02*
X66413095Y-89227819D01*
X66698809Y-89227819D02*
X66698809Y-88227819D01*
X66698809Y-88227819D02*
X66603571Y-88370676D01*
X66603571Y-88370676D02*
X66508333Y-88465914D01*
X66508333Y-88465914D02*
X66413095Y-88513533D01*
X67365476Y-88323057D02*
X67413095Y-88275438D01*
X67413095Y-88275438D02*
X67508333Y-88227819D01*
X67508333Y-88227819D02*
X67746428Y-88227819D01*
X67746428Y-88227819D02*
X67841666Y-88275438D01*
X67841666Y-88275438D02*
X67889285Y-88323057D01*
X67889285Y-88323057D02*
X67936904Y-88418295D01*
X67936904Y-88418295D02*
X67936904Y-88513533D01*
X67936904Y-88513533D02*
X67889285Y-88656390D01*
X67889285Y-88656390D02*
X67317857Y-89227819D01*
X67317857Y-89227819D02*
X67936904Y-89227819D01*
X42822905Y-123263819D02*
X42822905Y-122263819D01*
X42822905Y-122263819D02*
X43061000Y-122263819D01*
X43061000Y-122263819D02*
X43203857Y-122311438D01*
X43203857Y-122311438D02*
X43299095Y-122406676D01*
X43299095Y-122406676D02*
X43346714Y-122501914D01*
X43346714Y-122501914D02*
X43394333Y-122692390D01*
X43394333Y-122692390D02*
X43394333Y-122835247D01*
X43394333Y-122835247D02*
X43346714Y-123025723D01*
X43346714Y-123025723D02*
X43299095Y-123120961D01*
X43299095Y-123120961D02*
X43203857Y-123216200D01*
X43203857Y-123216200D02*
X43061000Y-123263819D01*
X43061000Y-123263819D02*
X42822905Y-123263819D01*
X43727667Y-122263819D02*
X44394333Y-122263819D01*
X44394333Y-122263819D02*
X43965762Y-123263819D01*
D11*
X35745000Y-127071219D02*
X35870000Y-126071219D01*
X35870000Y-126071219D02*
X36250953Y-126071219D01*
X36250953Y-126071219D02*
X36340238Y-126118838D01*
X36340238Y-126118838D02*
X36381905Y-126166457D01*
X36381905Y-126166457D02*
X36417619Y-126261695D01*
X36417619Y-126261695D02*
X36399762Y-126404552D01*
X36399762Y-126404552D02*
X36340238Y-126499790D01*
X36340238Y-126499790D02*
X36286667Y-126547409D01*
X36286667Y-126547409D02*
X36185477Y-126595028D01*
X36185477Y-126595028D02*
X35804524Y-126595028D01*
X37316429Y-127071219D02*
X37042619Y-126595028D01*
X36745000Y-127071219D02*
X36870000Y-126071219D01*
X36870000Y-126071219D02*
X37250953Y-126071219D01*
X37250953Y-126071219D02*
X37340238Y-126118838D01*
X37340238Y-126118838D02*
X37381905Y-126166457D01*
X37381905Y-126166457D02*
X37417619Y-126261695D01*
X37417619Y-126261695D02*
X37399762Y-126404552D01*
X37399762Y-126404552D02*
X37340238Y-126499790D01*
X37340238Y-126499790D02*
X37286667Y-126547409D01*
X37286667Y-126547409D02*
X37185477Y-126595028D01*
X37185477Y-126595028D02*
X36804524Y-126595028D01*
X37745000Y-127071219D02*
X37870000Y-126071219D01*
X38536667Y-126071219D02*
X38727143Y-126071219D01*
X38727143Y-126071219D02*
X38816428Y-126118838D01*
X38816428Y-126118838D02*
X38899762Y-126214076D01*
X38899762Y-126214076D02*
X38923571Y-126404552D01*
X38923571Y-126404552D02*
X38881905Y-126737885D01*
X38881905Y-126737885D02*
X38810476Y-126928361D01*
X38810476Y-126928361D02*
X38703333Y-127023600D01*
X38703333Y-127023600D02*
X38602143Y-127071219D01*
X38602143Y-127071219D02*
X38411667Y-127071219D01*
X38411667Y-127071219D02*
X38322381Y-127023600D01*
X38322381Y-127023600D02*
X38239048Y-126928361D01*
X38239048Y-126928361D02*
X38215238Y-126737885D01*
X38215238Y-126737885D02*
X38256905Y-126404552D01*
X38256905Y-126404552D02*
X38328333Y-126214076D01*
X38328333Y-126214076D02*
X38435476Y-126118838D01*
X38435476Y-126118838D02*
X38536667Y-126071219D01*
X40030714Y-127071219D02*
X40155714Y-126071219D01*
X40155714Y-126071219D02*
X40393810Y-126071219D01*
X40393810Y-126071219D02*
X40530714Y-126118838D01*
X40530714Y-126118838D02*
X40614048Y-126214076D01*
X40614048Y-126214076D02*
X40649762Y-126309314D01*
X40649762Y-126309314D02*
X40673572Y-126499790D01*
X40673572Y-126499790D02*
X40655714Y-126642647D01*
X40655714Y-126642647D02*
X40584286Y-126833123D01*
X40584286Y-126833123D02*
X40524762Y-126928361D01*
X40524762Y-126928361D02*
X40417619Y-127023600D01*
X40417619Y-127023600D02*
X40268810Y-127071219D01*
X40268810Y-127071219D02*
X40030714Y-127071219D01*
X41030714Y-127071219D02*
X41155714Y-126071219D01*
X41465238Y-127023600D02*
X41602142Y-127071219D01*
X41602142Y-127071219D02*
X41840238Y-127071219D01*
X41840238Y-127071219D02*
X41941428Y-127023600D01*
X41941428Y-127023600D02*
X41995000Y-126975980D01*
X41995000Y-126975980D02*
X42054523Y-126880742D01*
X42054523Y-126880742D02*
X42066428Y-126785504D01*
X42066428Y-126785504D02*
X42030714Y-126690266D01*
X42030714Y-126690266D02*
X41989047Y-126642647D01*
X41989047Y-126642647D02*
X41899762Y-126595028D01*
X41899762Y-126595028D02*
X41715238Y-126547409D01*
X41715238Y-126547409D02*
X41625952Y-126499790D01*
X41625952Y-126499790D02*
X41584285Y-126452171D01*
X41584285Y-126452171D02*
X41548571Y-126356933D01*
X41548571Y-126356933D02*
X41560476Y-126261695D01*
X41560476Y-126261695D02*
X41620000Y-126166457D01*
X41620000Y-126166457D02*
X41673571Y-126118838D01*
X41673571Y-126118838D02*
X41774762Y-126071219D01*
X41774762Y-126071219D02*
X42012857Y-126071219D01*
X42012857Y-126071219D02*
X42149762Y-126118838D01*
X42459285Y-127071219D02*
X42584285Y-126071219D01*
X42584285Y-126071219D02*
X42965238Y-126071219D01*
X42965238Y-126071219D02*
X43054523Y-126118838D01*
X43054523Y-126118838D02*
X43096190Y-126166457D01*
X43096190Y-126166457D02*
X43131904Y-126261695D01*
X43131904Y-126261695D02*
X43114047Y-126404552D01*
X43114047Y-126404552D02*
X43054523Y-126499790D01*
X43054523Y-126499790D02*
X43000952Y-126547409D01*
X43000952Y-126547409D02*
X42899762Y-126595028D01*
X42899762Y-126595028D02*
X42518809Y-126595028D01*
D10*
X42822905Y-47698819D02*
X42822905Y-46698819D01*
X42822905Y-46698819D02*
X43061000Y-46698819D01*
X43061000Y-46698819D02*
X43203857Y-46746438D01*
X43203857Y-46746438D02*
X43299095Y-46841676D01*
X43299095Y-46841676D02*
X43346714Y-46936914D01*
X43346714Y-46936914D02*
X43394333Y-47127390D01*
X43394333Y-47127390D02*
X43394333Y-47270247D01*
X43394333Y-47270247D02*
X43346714Y-47460723D01*
X43346714Y-47460723D02*
X43299095Y-47555961D01*
X43299095Y-47555961D02*
X43203857Y-47651200D01*
X43203857Y-47651200D02*
X43061000Y-47698819D01*
X43061000Y-47698819D02*
X42822905Y-47698819D01*
X43775286Y-46794057D02*
X43822905Y-46746438D01*
X43822905Y-46746438D02*
X43918143Y-46698819D01*
X43918143Y-46698819D02*
X44156238Y-46698819D01*
X44156238Y-46698819D02*
X44251476Y-46746438D01*
X44251476Y-46746438D02*
X44299095Y-46794057D01*
X44299095Y-46794057D02*
X44346714Y-46889295D01*
X44346714Y-46889295D02*
X44346714Y-46984533D01*
X44346714Y-46984533D02*
X44299095Y-47127390D01*
X44299095Y-47127390D02*
X43727667Y-47698819D01*
X43727667Y-47698819D02*
X44346714Y-47698819D01*
D11*
X36983094Y-51506219D02*
X37108094Y-50506219D01*
X37108094Y-50506219D02*
X37554523Y-51506219D01*
X37554523Y-51506219D02*
X37679523Y-50506219D01*
X38346190Y-50506219D02*
X38536666Y-50506219D01*
X38536666Y-50506219D02*
X38625951Y-50553838D01*
X38625951Y-50553838D02*
X38709285Y-50649076D01*
X38709285Y-50649076D02*
X38733094Y-50839552D01*
X38733094Y-50839552D02*
X38691428Y-51172885D01*
X38691428Y-51172885D02*
X38619999Y-51363361D01*
X38619999Y-51363361D02*
X38512856Y-51458600D01*
X38512856Y-51458600D02*
X38411666Y-51506219D01*
X38411666Y-51506219D02*
X38221190Y-51506219D01*
X38221190Y-51506219D02*
X38131904Y-51458600D01*
X38131904Y-51458600D02*
X38048571Y-51363361D01*
X38048571Y-51363361D02*
X38024761Y-51172885D01*
X38024761Y-51172885D02*
X38066428Y-50839552D01*
X38066428Y-50839552D02*
X38137856Y-50649076D01*
X38137856Y-50649076D02*
X38244999Y-50553838D01*
X38244999Y-50553838D02*
X38346190Y-50506219D01*
X39828333Y-51220504D02*
X40304523Y-51220504D01*
X39697380Y-51506219D02*
X40155714Y-50506219D01*
X40155714Y-50506219D02*
X40364047Y-51506219D01*
X40679523Y-50506219D02*
X41250952Y-50506219D01*
X40840238Y-51506219D02*
X40965238Y-50506219D01*
X41441428Y-50506219D02*
X42012857Y-50506219D01*
X41602143Y-51506219D02*
X41727143Y-50506219D01*
D10*
X42822905Y-32585819D02*
X42822905Y-31585819D01*
X42822905Y-31585819D02*
X43061000Y-31585819D01*
X43061000Y-31585819D02*
X43203857Y-31633438D01*
X43203857Y-31633438D02*
X43299095Y-31728676D01*
X43299095Y-31728676D02*
X43346714Y-31823914D01*
X43346714Y-31823914D02*
X43394333Y-32014390D01*
X43394333Y-32014390D02*
X43394333Y-32157247D01*
X43394333Y-32157247D02*
X43346714Y-32347723D01*
X43346714Y-32347723D02*
X43299095Y-32442961D01*
X43299095Y-32442961D02*
X43203857Y-32538200D01*
X43203857Y-32538200D02*
X43061000Y-32585819D01*
X43061000Y-32585819D02*
X42822905Y-32585819D01*
X44346714Y-32585819D02*
X43775286Y-32585819D01*
X44061000Y-32585819D02*
X44061000Y-31585819D01*
X44061000Y-31585819D02*
X43965762Y-31728676D01*
X43965762Y-31728676D02*
X43870524Y-31823914D01*
X43870524Y-31823914D02*
X43775286Y-31871533D01*
D11*
X34917618Y-35393219D02*
X34816428Y-36202742D01*
X34816428Y-36202742D02*
X34852142Y-36297980D01*
X34852142Y-36297980D02*
X34893809Y-36345600D01*
X34893809Y-36345600D02*
X34983095Y-36393219D01*
X34983095Y-36393219D02*
X35173571Y-36393219D01*
X35173571Y-36393219D02*
X35274761Y-36345600D01*
X35274761Y-36345600D02*
X35328333Y-36297980D01*
X35328333Y-36297980D02*
X35387856Y-36202742D01*
X35387856Y-36202742D02*
X35489047Y-35393219D01*
X35840237Y-36393219D02*
X35965237Y-35393219D01*
X35965237Y-35393219D02*
X36346190Y-35393219D01*
X36346190Y-35393219D02*
X36435475Y-35440838D01*
X36435475Y-35440838D02*
X36477142Y-35488457D01*
X36477142Y-35488457D02*
X36512856Y-35583695D01*
X36512856Y-35583695D02*
X36494999Y-35726552D01*
X36494999Y-35726552D02*
X36435475Y-35821790D01*
X36435475Y-35821790D02*
X36381904Y-35869409D01*
X36381904Y-35869409D02*
X36280714Y-35917028D01*
X36280714Y-35917028D02*
X35899761Y-35917028D01*
X37316428Y-36393219D02*
X36840237Y-36393219D01*
X36840237Y-36393219D02*
X36965237Y-35393219D01*
X37649761Y-36393219D02*
X37774761Y-35393219D01*
X38125951Y-36393219D02*
X38250951Y-35393219D01*
X38250951Y-35393219D02*
X38697380Y-36393219D01*
X38697380Y-36393219D02*
X38822380Y-35393219D01*
X39173570Y-36393219D02*
X39298570Y-35393219D01*
X39744999Y-36393219D02*
X39387856Y-35821790D01*
X39869999Y-35393219D02*
X39227142Y-35964647D01*
X40923571Y-36107504D02*
X41399761Y-36107504D01*
X40792618Y-36393219D02*
X41250952Y-35393219D01*
X41250952Y-35393219D02*
X41459285Y-36393219D01*
X42375952Y-36297980D02*
X42322380Y-36345600D01*
X42322380Y-36345600D02*
X42173571Y-36393219D01*
X42173571Y-36393219D02*
X42078333Y-36393219D01*
X42078333Y-36393219D02*
X41941428Y-36345600D01*
X41941428Y-36345600D02*
X41858095Y-36250361D01*
X41858095Y-36250361D02*
X41822380Y-36155123D01*
X41822380Y-36155123D02*
X41798571Y-35964647D01*
X41798571Y-35964647D02*
X41816428Y-35821790D01*
X41816428Y-35821790D02*
X41887856Y-35631314D01*
X41887856Y-35631314D02*
X41947380Y-35536076D01*
X41947380Y-35536076D02*
X42054523Y-35440838D01*
X42054523Y-35440838D02*
X42203333Y-35393219D01*
X42203333Y-35393219D02*
X42298571Y-35393219D01*
X42298571Y-35393219D02*
X42435476Y-35440838D01*
X42435476Y-35440838D02*
X42477142Y-35488457D01*
X42774761Y-35393219D02*
X43346190Y-35393219D01*
X42935476Y-36393219D02*
X43060476Y-35393219D01*
X43804523Y-35917028D02*
X43745000Y-36393219D01*
X43536666Y-35393219D02*
X43804523Y-35917028D01*
X43804523Y-35917028D02*
X44203333Y-35393219D01*
D10*
X65936905Y-32585819D02*
X65936905Y-31585819D01*
X65936905Y-31585819D02*
X66175000Y-31585819D01*
X66175000Y-31585819D02*
X66317857Y-31633438D01*
X66317857Y-31633438D02*
X66413095Y-31728676D01*
X66413095Y-31728676D02*
X66460714Y-31823914D01*
X66460714Y-31823914D02*
X66508333Y-32014390D01*
X66508333Y-32014390D02*
X66508333Y-32157247D01*
X66508333Y-32157247D02*
X66460714Y-32347723D01*
X66460714Y-32347723D02*
X66413095Y-32442961D01*
X66413095Y-32442961D02*
X66317857Y-32538200D01*
X66317857Y-32538200D02*
X66175000Y-32585819D01*
X66175000Y-32585819D02*
X65936905Y-32585819D01*
X67079762Y-32014390D02*
X66984524Y-31966771D01*
X66984524Y-31966771D02*
X66936905Y-31919152D01*
X66936905Y-31919152D02*
X66889286Y-31823914D01*
X66889286Y-31823914D02*
X66889286Y-31776295D01*
X66889286Y-31776295D02*
X66936905Y-31681057D01*
X66936905Y-31681057D02*
X66984524Y-31633438D01*
X66984524Y-31633438D02*
X67079762Y-31585819D01*
X67079762Y-31585819D02*
X67270238Y-31585819D01*
X67270238Y-31585819D02*
X67365476Y-31633438D01*
X67365476Y-31633438D02*
X67413095Y-31681057D01*
X67413095Y-31681057D02*
X67460714Y-31776295D01*
X67460714Y-31776295D02*
X67460714Y-31823914D01*
X67460714Y-31823914D02*
X67413095Y-31919152D01*
X67413095Y-31919152D02*
X67365476Y-31966771D01*
X67365476Y-31966771D02*
X67270238Y-32014390D01*
X67270238Y-32014390D02*
X67079762Y-32014390D01*
X67079762Y-32014390D02*
X66984524Y-32062009D01*
X66984524Y-32062009D02*
X66936905Y-32109628D01*
X66936905Y-32109628D02*
X66889286Y-32204866D01*
X66889286Y-32204866D02*
X66889286Y-32395342D01*
X66889286Y-32395342D02*
X66936905Y-32490580D01*
X66936905Y-32490580D02*
X66984524Y-32538200D01*
X66984524Y-32538200D02*
X67079762Y-32585819D01*
X67079762Y-32585819D02*
X67270238Y-32585819D01*
X67270238Y-32585819D02*
X67365476Y-32538200D01*
X67365476Y-32538200D02*
X67413095Y-32490580D01*
X67413095Y-32490580D02*
X67460714Y-32395342D01*
X67460714Y-32395342D02*
X67460714Y-32204866D01*
X67460714Y-32204866D02*
X67413095Y-32109628D01*
X67413095Y-32109628D02*
X67365476Y-32062009D01*
X67365476Y-32062009D02*
X67270238Y-32014390D01*
D11*
X69175523Y-35393219D02*
X69746952Y-35393219D01*
X69336238Y-36393219D02*
X69461238Y-35393219D01*
X70020762Y-35869409D02*
X70354095Y-35869409D01*
X70431476Y-36393219D02*
X69955285Y-36393219D01*
X69955285Y-36393219D02*
X70080285Y-35393219D01*
X70080285Y-35393219D02*
X70556476Y-35393219D01*
X70860047Y-36393219D02*
X70985047Y-35393219D01*
X70985047Y-35393219D02*
X71229095Y-36107504D01*
X71229095Y-36107504D02*
X71651714Y-35393219D01*
X71651714Y-35393219D02*
X71526714Y-36393219D01*
X72002904Y-36393219D02*
X72127904Y-35393219D01*
X72127904Y-35393219D02*
X72508857Y-35393219D01*
X72508857Y-35393219D02*
X72598142Y-35440838D01*
X72598142Y-35440838D02*
X72639809Y-35488457D01*
X72639809Y-35488457D02*
X72675523Y-35583695D01*
X72675523Y-35583695D02*
X72657666Y-35726552D01*
X72657666Y-35726552D02*
X72598142Y-35821790D01*
X72598142Y-35821790D02*
X72544571Y-35869409D01*
X72544571Y-35869409D02*
X72443381Y-35917028D01*
X72443381Y-35917028D02*
X72062428Y-35917028D01*
D10*
X66508333Y-28775819D02*
X66175000Y-28299628D01*
X65936905Y-28775819D02*
X65936905Y-27775819D01*
X65936905Y-27775819D02*
X66317857Y-27775819D01*
X66317857Y-27775819D02*
X66413095Y-27823438D01*
X66413095Y-27823438D02*
X66460714Y-27871057D01*
X66460714Y-27871057D02*
X66508333Y-27966295D01*
X66508333Y-27966295D02*
X66508333Y-28109152D01*
X66508333Y-28109152D02*
X66460714Y-28204390D01*
X66460714Y-28204390D02*
X66413095Y-28252009D01*
X66413095Y-28252009D02*
X66317857Y-28299628D01*
X66317857Y-28299628D02*
X65936905Y-28299628D01*
X67079762Y-28204390D02*
X66984524Y-28156771D01*
X66984524Y-28156771D02*
X66936905Y-28109152D01*
X66936905Y-28109152D02*
X66889286Y-28013914D01*
X66889286Y-28013914D02*
X66889286Y-27966295D01*
X66889286Y-27966295D02*
X66936905Y-27871057D01*
X66936905Y-27871057D02*
X66984524Y-27823438D01*
X66984524Y-27823438D02*
X67079762Y-27775819D01*
X67079762Y-27775819D02*
X67270238Y-27775819D01*
X67270238Y-27775819D02*
X67365476Y-27823438D01*
X67365476Y-27823438D02*
X67413095Y-27871057D01*
X67413095Y-27871057D02*
X67460714Y-27966295D01*
X67460714Y-27966295D02*
X67460714Y-28013914D01*
X67460714Y-28013914D02*
X67413095Y-28109152D01*
X67413095Y-28109152D02*
X67365476Y-28156771D01*
X67365476Y-28156771D02*
X67270238Y-28204390D01*
X67270238Y-28204390D02*
X67079762Y-28204390D01*
X67079762Y-28204390D02*
X66984524Y-28252009D01*
X66984524Y-28252009D02*
X66936905Y-28299628D01*
X66936905Y-28299628D02*
X66889286Y-28394866D01*
X66889286Y-28394866D02*
X66889286Y-28585342D01*
X66889286Y-28585342D02*
X66936905Y-28680580D01*
X66936905Y-28680580D02*
X66984524Y-28728200D01*
X66984524Y-28728200D02*
X67079762Y-28775819D01*
X67079762Y-28775819D02*
X67270238Y-28775819D01*
X67270238Y-28775819D02*
X67365476Y-28728200D01*
X67365476Y-28728200D02*
X67413095Y-28680580D01*
X67413095Y-28680580D02*
X67460714Y-28585342D01*
X67460714Y-28585342D02*
X67460714Y-28394866D01*
X67460714Y-28394866D02*
X67413095Y-28299628D01*
X67413095Y-28299628D02*
X67365476Y-28252009D01*
X67365476Y-28252009D02*
X67270238Y-28204390D01*
X43394333Y-59001819D02*
X43061000Y-58525628D01*
X42822905Y-59001819D02*
X42822905Y-58001819D01*
X42822905Y-58001819D02*
X43203857Y-58001819D01*
X43203857Y-58001819D02*
X43299095Y-58049438D01*
X43299095Y-58049438D02*
X43346714Y-58097057D01*
X43346714Y-58097057D02*
X43394333Y-58192295D01*
X43394333Y-58192295D02*
X43394333Y-58335152D01*
X43394333Y-58335152D02*
X43346714Y-58430390D01*
X43346714Y-58430390D02*
X43299095Y-58478009D01*
X43299095Y-58478009D02*
X43203857Y-58525628D01*
X43203857Y-58525628D02*
X42822905Y-58525628D01*
X43727667Y-58001819D02*
X44346714Y-58001819D01*
X44346714Y-58001819D02*
X44013381Y-58382771D01*
X44013381Y-58382771D02*
X44156238Y-58382771D01*
X44156238Y-58382771D02*
X44251476Y-58430390D01*
X44251476Y-58430390D02*
X44299095Y-58478009D01*
X44299095Y-58478009D02*
X44346714Y-58573247D01*
X44346714Y-58573247D02*
X44346714Y-58811342D01*
X44346714Y-58811342D02*
X44299095Y-58906580D01*
X44299095Y-58906580D02*
X44251476Y-58954200D01*
X44251476Y-58954200D02*
X44156238Y-59001819D01*
X44156238Y-59001819D02*
X43870524Y-59001819D01*
X43870524Y-59001819D02*
X43775286Y-58954200D01*
X43775286Y-58954200D02*
X43727667Y-58906580D01*
X66032142Y-104340819D02*
X65698809Y-103864628D01*
X65460714Y-104340819D02*
X65460714Y-103340819D01*
X65460714Y-103340819D02*
X65841666Y-103340819D01*
X65841666Y-103340819D02*
X65936904Y-103388438D01*
X65936904Y-103388438D02*
X65984523Y-103436057D01*
X65984523Y-103436057D02*
X66032142Y-103531295D01*
X66032142Y-103531295D02*
X66032142Y-103674152D01*
X66032142Y-103674152D02*
X65984523Y-103769390D01*
X65984523Y-103769390D02*
X65936904Y-103817009D01*
X65936904Y-103817009D02*
X65841666Y-103864628D01*
X65841666Y-103864628D02*
X65460714Y-103864628D01*
X66984523Y-104340819D02*
X66413095Y-104340819D01*
X66698809Y-104340819D02*
X66698809Y-103340819D01*
X66698809Y-103340819D02*
X66603571Y-103483676D01*
X66603571Y-103483676D02*
X66508333Y-103578914D01*
X66508333Y-103578914D02*
X66413095Y-103626533D01*
X67317857Y-103340819D02*
X67936904Y-103340819D01*
X67936904Y-103340819D02*
X67603571Y-103721771D01*
X67603571Y-103721771D02*
X67746428Y-103721771D01*
X67746428Y-103721771D02*
X67841666Y-103769390D01*
X67841666Y-103769390D02*
X67889285Y-103817009D01*
X67889285Y-103817009D02*
X67936904Y-103912247D01*
X67936904Y-103912247D02*
X67936904Y-104150342D01*
X67936904Y-104150342D02*
X67889285Y-104245580D01*
X67889285Y-104245580D02*
X67841666Y-104293200D01*
X67841666Y-104293200D02*
X67746428Y-104340819D01*
X67746428Y-104340819D02*
X67460714Y-104340819D01*
X67460714Y-104340819D02*
X67365476Y-104293200D01*
X67365476Y-104293200D02*
X67317857Y-104245580D01*
X30384761Y-41952057D02*
X30289523Y-41904438D01*
X30289523Y-41904438D02*
X30194285Y-41809200D01*
X30194285Y-41809200D02*
X30051428Y-41666342D01*
X30051428Y-41666342D02*
X29956190Y-41618723D01*
X29956190Y-41618723D02*
X29860952Y-41618723D01*
X29908571Y-41856819D02*
X29813333Y-41809200D01*
X29813333Y-41809200D02*
X29718095Y-41713961D01*
X29718095Y-41713961D02*
X29670476Y-41523485D01*
X29670476Y-41523485D02*
X29670476Y-41190152D01*
X29670476Y-41190152D02*
X29718095Y-40999676D01*
X29718095Y-40999676D02*
X29813333Y-40904438D01*
X29813333Y-40904438D02*
X29908571Y-40856819D01*
X29908571Y-40856819D02*
X30099047Y-40856819D01*
X30099047Y-40856819D02*
X30194285Y-40904438D01*
X30194285Y-40904438D02*
X30289523Y-40999676D01*
X30289523Y-40999676D02*
X30337142Y-41190152D01*
X30337142Y-41190152D02*
X30337142Y-41523485D01*
X30337142Y-41523485D02*
X30289523Y-41713961D01*
X30289523Y-41713961D02*
X30194285Y-41809200D01*
X30194285Y-41809200D02*
X30099047Y-41856819D01*
X30099047Y-41856819D02*
X29908571Y-41856819D01*
X30718095Y-40952057D02*
X30765714Y-40904438D01*
X30765714Y-40904438D02*
X30860952Y-40856819D01*
X30860952Y-40856819D02*
X31099047Y-40856819D01*
X31099047Y-40856819D02*
X31194285Y-40904438D01*
X31194285Y-40904438D02*
X31241904Y-40952057D01*
X31241904Y-40952057D02*
X31289523Y-41047295D01*
X31289523Y-41047295D02*
X31289523Y-41142533D01*
X31289523Y-41142533D02*
X31241904Y-41285390D01*
X31241904Y-41285390D02*
X30670476Y-41856819D01*
X30670476Y-41856819D02*
X31289523Y-41856819D01*
X65460714Y-108150819D02*
X65460714Y-107150819D01*
X65460714Y-107150819D02*
X65698809Y-107150819D01*
X65698809Y-107150819D02*
X65841666Y-107198438D01*
X65841666Y-107198438D02*
X65936904Y-107293676D01*
X65936904Y-107293676D02*
X65984523Y-107388914D01*
X65984523Y-107388914D02*
X66032142Y-107579390D01*
X66032142Y-107579390D02*
X66032142Y-107722247D01*
X66032142Y-107722247D02*
X65984523Y-107912723D01*
X65984523Y-107912723D02*
X65936904Y-108007961D01*
X65936904Y-108007961D02*
X65841666Y-108103200D01*
X65841666Y-108103200D02*
X65698809Y-108150819D01*
X65698809Y-108150819D02*
X65460714Y-108150819D01*
X66984523Y-108150819D02*
X66413095Y-108150819D01*
X66698809Y-108150819D02*
X66698809Y-107150819D01*
X66698809Y-107150819D02*
X66603571Y-107293676D01*
X66603571Y-107293676D02*
X66508333Y-107388914D01*
X66508333Y-107388914D02*
X66413095Y-107436533D01*
X67317857Y-107150819D02*
X67936904Y-107150819D01*
X67936904Y-107150819D02*
X67603571Y-107531771D01*
X67603571Y-107531771D02*
X67746428Y-107531771D01*
X67746428Y-107531771D02*
X67841666Y-107579390D01*
X67841666Y-107579390D02*
X67889285Y-107627009D01*
X67889285Y-107627009D02*
X67936904Y-107722247D01*
X67936904Y-107722247D02*
X67936904Y-107960342D01*
X67936904Y-107960342D02*
X67889285Y-108055580D01*
X67889285Y-108055580D02*
X67841666Y-108103200D01*
X67841666Y-108103200D02*
X67746428Y-108150819D01*
X67746428Y-108150819D02*
X67460714Y-108150819D01*
X67460714Y-108150819D02*
X67365476Y-108103200D01*
X67365476Y-108103200D02*
X67317857Y-108055580D01*
D11*
X69871952Y-111672504D02*
X70348142Y-111672504D01*
X69740999Y-111958219D02*
X70199333Y-110958219D01*
X70199333Y-110958219D02*
X70407666Y-111958219D01*
X71217190Y-111958219D02*
X70740999Y-111958219D01*
X70740999Y-111958219D02*
X70865999Y-110958219D01*
X71532666Y-110958219D02*
X72104095Y-110958219D01*
X71693381Y-111958219D02*
X71818381Y-110958219D01*
D10*
X30384761Y-117517057D02*
X30289523Y-117469438D01*
X30289523Y-117469438D02*
X30194285Y-117374200D01*
X30194285Y-117374200D02*
X30051428Y-117231342D01*
X30051428Y-117231342D02*
X29956190Y-117183723D01*
X29956190Y-117183723D02*
X29860952Y-117183723D01*
X29908571Y-117421819D02*
X29813333Y-117374200D01*
X29813333Y-117374200D02*
X29718095Y-117278961D01*
X29718095Y-117278961D02*
X29670476Y-117088485D01*
X29670476Y-117088485D02*
X29670476Y-116755152D01*
X29670476Y-116755152D02*
X29718095Y-116564676D01*
X29718095Y-116564676D02*
X29813333Y-116469438D01*
X29813333Y-116469438D02*
X29908571Y-116421819D01*
X29908571Y-116421819D02*
X30099047Y-116421819D01*
X30099047Y-116421819D02*
X30194285Y-116469438D01*
X30194285Y-116469438D02*
X30289523Y-116564676D01*
X30289523Y-116564676D02*
X30337142Y-116755152D01*
X30337142Y-116755152D02*
X30337142Y-117088485D01*
X30337142Y-117088485D02*
X30289523Y-117278961D01*
X30289523Y-117278961D02*
X30194285Y-117374200D01*
X30194285Y-117374200D02*
X30099047Y-117421819D01*
X30099047Y-117421819D02*
X29908571Y-117421819D01*
X30670476Y-116421819D02*
X31337142Y-116421819D01*
X31337142Y-116421819D02*
X30908571Y-117421819D01*
X66032142Y-59001819D02*
X65698809Y-58525628D01*
X65460714Y-59001819D02*
X65460714Y-58001819D01*
X65460714Y-58001819D02*
X65841666Y-58001819D01*
X65841666Y-58001819D02*
X65936904Y-58049438D01*
X65936904Y-58049438D02*
X65984523Y-58097057D01*
X65984523Y-58097057D02*
X66032142Y-58192295D01*
X66032142Y-58192295D02*
X66032142Y-58335152D01*
X66032142Y-58335152D02*
X65984523Y-58430390D01*
X65984523Y-58430390D02*
X65936904Y-58478009D01*
X65936904Y-58478009D02*
X65841666Y-58525628D01*
X65841666Y-58525628D02*
X65460714Y-58525628D01*
X66984523Y-59001819D02*
X66413095Y-59001819D01*
X66698809Y-59001819D02*
X66698809Y-58001819D01*
X66698809Y-58001819D02*
X66603571Y-58144676D01*
X66603571Y-58144676D02*
X66508333Y-58239914D01*
X66508333Y-58239914D02*
X66413095Y-58287533D01*
X67603571Y-58001819D02*
X67698809Y-58001819D01*
X67698809Y-58001819D02*
X67794047Y-58049438D01*
X67794047Y-58049438D02*
X67841666Y-58097057D01*
X67841666Y-58097057D02*
X67889285Y-58192295D01*
X67889285Y-58192295D02*
X67936904Y-58382771D01*
X67936904Y-58382771D02*
X67936904Y-58620866D01*
X67936904Y-58620866D02*
X67889285Y-58811342D01*
X67889285Y-58811342D02*
X67841666Y-58906580D01*
X67841666Y-58906580D02*
X67794047Y-58954200D01*
X67794047Y-58954200D02*
X67698809Y-59001819D01*
X67698809Y-59001819D02*
X67603571Y-59001819D01*
X67603571Y-59001819D02*
X67508333Y-58954200D01*
X67508333Y-58954200D02*
X67460714Y-58906580D01*
X67460714Y-58906580D02*
X67413095Y-58811342D01*
X67413095Y-58811342D02*
X67365476Y-58620866D01*
X67365476Y-58620866D02*
X67365476Y-58382771D01*
X67365476Y-58382771D02*
X67413095Y-58192295D01*
X67413095Y-58192295D02*
X67460714Y-58097057D01*
X67460714Y-58097057D02*
X67508333Y-58049438D01*
X67508333Y-58049438D02*
X67603571Y-58001819D01*
X42822905Y-108150819D02*
X42822905Y-107150819D01*
X42822905Y-107150819D02*
X43061000Y-107150819D01*
X43061000Y-107150819D02*
X43203857Y-107198438D01*
X43203857Y-107198438D02*
X43299095Y-107293676D01*
X43299095Y-107293676D02*
X43346714Y-107388914D01*
X43346714Y-107388914D02*
X43394333Y-107579390D01*
X43394333Y-107579390D02*
X43394333Y-107722247D01*
X43394333Y-107722247D02*
X43346714Y-107912723D01*
X43346714Y-107912723D02*
X43299095Y-108007961D01*
X43299095Y-108007961D02*
X43203857Y-108103200D01*
X43203857Y-108103200D02*
X43061000Y-108150819D01*
X43061000Y-108150819D02*
X42822905Y-108150819D01*
X44251476Y-107150819D02*
X44061000Y-107150819D01*
X44061000Y-107150819D02*
X43965762Y-107198438D01*
X43965762Y-107198438D02*
X43918143Y-107246057D01*
X43918143Y-107246057D02*
X43822905Y-107388914D01*
X43822905Y-107388914D02*
X43775286Y-107579390D01*
X43775286Y-107579390D02*
X43775286Y-107960342D01*
X43775286Y-107960342D02*
X43822905Y-108055580D01*
X43822905Y-108055580D02*
X43870524Y-108103200D01*
X43870524Y-108103200D02*
X43965762Y-108150819D01*
X43965762Y-108150819D02*
X44156238Y-108150819D01*
X44156238Y-108150819D02*
X44251476Y-108103200D01*
X44251476Y-108103200D02*
X44299095Y-108055580D01*
X44299095Y-108055580D02*
X44346714Y-107960342D01*
X44346714Y-107960342D02*
X44346714Y-107722247D01*
X44346714Y-107722247D02*
X44299095Y-107627009D01*
X44299095Y-107627009D02*
X44251476Y-107579390D01*
X44251476Y-107579390D02*
X44156238Y-107531771D01*
X44156238Y-107531771D02*
X43965762Y-107531771D01*
X43965762Y-107531771D02*
X43870524Y-107579390D01*
X43870524Y-107579390D02*
X43822905Y-107627009D01*
X43822905Y-107627009D02*
X43775286Y-107722247D01*
D11*
X36744999Y-111958219D02*
X36869999Y-110958219D01*
X36869999Y-110958219D02*
X37316428Y-111958219D01*
X37316428Y-111958219D02*
X37441428Y-110958219D01*
X38108095Y-110958219D02*
X38298571Y-110958219D01*
X38298571Y-110958219D02*
X38387856Y-111005838D01*
X38387856Y-111005838D02*
X38471190Y-111101076D01*
X38471190Y-111101076D02*
X38494999Y-111291552D01*
X38494999Y-111291552D02*
X38453333Y-111624885D01*
X38453333Y-111624885D02*
X38381904Y-111815361D01*
X38381904Y-111815361D02*
X38274761Y-111910600D01*
X38274761Y-111910600D02*
X38173571Y-111958219D01*
X38173571Y-111958219D02*
X37983095Y-111958219D01*
X37983095Y-111958219D02*
X37893809Y-111910600D01*
X37893809Y-111910600D02*
X37810476Y-111815361D01*
X37810476Y-111815361D02*
X37786666Y-111624885D01*
X37786666Y-111624885D02*
X37828333Y-111291552D01*
X37828333Y-111291552D02*
X37899761Y-111101076D01*
X37899761Y-111101076D02*
X38006904Y-111005838D01*
X38006904Y-111005838D02*
X38108095Y-110958219D01*
X39602142Y-111958219D02*
X39727142Y-110958219D01*
X39727142Y-110958219D02*
X39965238Y-110958219D01*
X39965238Y-110958219D02*
X40102142Y-111005838D01*
X40102142Y-111005838D02*
X40185476Y-111101076D01*
X40185476Y-111101076D02*
X40221190Y-111196314D01*
X40221190Y-111196314D02*
X40245000Y-111386790D01*
X40245000Y-111386790D02*
X40227142Y-111529647D01*
X40227142Y-111529647D02*
X40155714Y-111720123D01*
X40155714Y-111720123D02*
X40096190Y-111815361D01*
X40096190Y-111815361D02*
X39989047Y-111910600D01*
X39989047Y-111910600D02*
X39840238Y-111958219D01*
X39840238Y-111958219D02*
X39602142Y-111958219D01*
X40590238Y-111672504D02*
X41066428Y-111672504D01*
X40459285Y-111958219D02*
X40917619Y-110958219D01*
X40917619Y-110958219D02*
X41125952Y-111958219D01*
X41459285Y-111958219D02*
X41584285Y-110958219D01*
X41584285Y-110958219D02*
X41965238Y-110958219D01*
X41965238Y-110958219D02*
X42054523Y-111005838D01*
X42054523Y-111005838D02*
X42096190Y-111053457D01*
X42096190Y-111053457D02*
X42131904Y-111148695D01*
X42131904Y-111148695D02*
X42114047Y-111291552D01*
X42114047Y-111291552D02*
X42054523Y-111386790D01*
X42054523Y-111386790D02*
X42000952Y-111434409D01*
X42000952Y-111434409D02*
X41899762Y-111482028D01*
X41899762Y-111482028D02*
X41518809Y-111482028D01*
D10*
X79660761Y-26839057D02*
X79565523Y-26791438D01*
X79565523Y-26791438D02*
X79470285Y-26696200D01*
X79470285Y-26696200D02*
X79327428Y-26553342D01*
X79327428Y-26553342D02*
X79232190Y-26505723D01*
X79232190Y-26505723D02*
X79136952Y-26505723D01*
X79184571Y-26743819D02*
X79089333Y-26696200D01*
X79089333Y-26696200D02*
X78994095Y-26600961D01*
X78994095Y-26600961D02*
X78946476Y-26410485D01*
X78946476Y-26410485D02*
X78946476Y-26077152D01*
X78946476Y-26077152D02*
X78994095Y-25886676D01*
X78994095Y-25886676D02*
X79089333Y-25791438D01*
X79089333Y-25791438D02*
X79184571Y-25743819D01*
X79184571Y-25743819D02*
X79375047Y-25743819D01*
X79375047Y-25743819D02*
X79470285Y-25791438D01*
X79470285Y-25791438D02*
X79565523Y-25886676D01*
X79565523Y-25886676D02*
X79613142Y-26077152D01*
X79613142Y-26077152D02*
X79613142Y-26410485D01*
X79613142Y-26410485D02*
X79565523Y-26600961D01*
X79565523Y-26600961D02*
X79470285Y-26696200D01*
X79470285Y-26696200D02*
X79375047Y-26743819D01*
X79375047Y-26743819D02*
X79184571Y-26743819D01*
X80184571Y-26172390D02*
X80089333Y-26124771D01*
X80089333Y-26124771D02*
X80041714Y-26077152D01*
X80041714Y-26077152D02*
X79994095Y-25981914D01*
X79994095Y-25981914D02*
X79994095Y-25934295D01*
X79994095Y-25934295D02*
X80041714Y-25839057D01*
X80041714Y-25839057D02*
X80089333Y-25791438D01*
X80089333Y-25791438D02*
X80184571Y-25743819D01*
X80184571Y-25743819D02*
X80375047Y-25743819D01*
X80375047Y-25743819D02*
X80470285Y-25791438D01*
X80470285Y-25791438D02*
X80517904Y-25839057D01*
X80517904Y-25839057D02*
X80565523Y-25934295D01*
X80565523Y-25934295D02*
X80565523Y-25981914D01*
X80565523Y-25981914D02*
X80517904Y-26077152D01*
X80517904Y-26077152D02*
X80470285Y-26124771D01*
X80470285Y-26124771D02*
X80375047Y-26172390D01*
X80375047Y-26172390D02*
X80184571Y-26172390D01*
X80184571Y-26172390D02*
X80089333Y-26220009D01*
X80089333Y-26220009D02*
X80041714Y-26267628D01*
X80041714Y-26267628D02*
X79994095Y-26362866D01*
X79994095Y-26362866D02*
X79994095Y-26553342D01*
X79994095Y-26553342D02*
X80041714Y-26648580D01*
X80041714Y-26648580D02*
X80089333Y-26696200D01*
X80089333Y-26696200D02*
X80184571Y-26743819D01*
X80184571Y-26743819D02*
X80375047Y-26743819D01*
X80375047Y-26743819D02*
X80470285Y-26696200D01*
X80470285Y-26696200D02*
X80517904Y-26648580D01*
X80517904Y-26648580D02*
X80565523Y-26553342D01*
X80565523Y-26553342D02*
X80565523Y-26362866D01*
X80565523Y-26362866D02*
X80517904Y-26267628D01*
X80517904Y-26267628D02*
X80470285Y-26220009D01*
X80470285Y-26220009D02*
X80375047Y-26172390D01*
X66032142Y-74114819D02*
X65698809Y-73638628D01*
X65460714Y-74114819D02*
X65460714Y-73114819D01*
X65460714Y-73114819D02*
X65841666Y-73114819D01*
X65841666Y-73114819D02*
X65936904Y-73162438D01*
X65936904Y-73162438D02*
X65984523Y-73210057D01*
X65984523Y-73210057D02*
X66032142Y-73305295D01*
X66032142Y-73305295D02*
X66032142Y-73448152D01*
X66032142Y-73448152D02*
X65984523Y-73543390D01*
X65984523Y-73543390D02*
X65936904Y-73591009D01*
X65936904Y-73591009D02*
X65841666Y-73638628D01*
X65841666Y-73638628D02*
X65460714Y-73638628D01*
X66984523Y-74114819D02*
X66413095Y-74114819D01*
X66698809Y-74114819D02*
X66698809Y-73114819D01*
X66698809Y-73114819D02*
X66603571Y-73257676D01*
X66603571Y-73257676D02*
X66508333Y-73352914D01*
X66508333Y-73352914D02*
X66413095Y-73400533D01*
X67936904Y-74114819D02*
X67365476Y-74114819D01*
X67651190Y-74114819D02*
X67651190Y-73114819D01*
X67651190Y-73114819D02*
X67555952Y-73257676D01*
X67555952Y-73257676D02*
X67460714Y-73352914D01*
X67460714Y-73352914D02*
X67365476Y-73400533D01*
X43394333Y-43888819D02*
X43061000Y-43412628D01*
X42822905Y-43888819D02*
X42822905Y-42888819D01*
X42822905Y-42888819D02*
X43203857Y-42888819D01*
X43203857Y-42888819D02*
X43299095Y-42936438D01*
X43299095Y-42936438D02*
X43346714Y-42984057D01*
X43346714Y-42984057D02*
X43394333Y-43079295D01*
X43394333Y-43079295D02*
X43394333Y-43222152D01*
X43394333Y-43222152D02*
X43346714Y-43317390D01*
X43346714Y-43317390D02*
X43299095Y-43365009D01*
X43299095Y-43365009D02*
X43203857Y-43412628D01*
X43203857Y-43412628D02*
X42822905Y-43412628D01*
X43775286Y-42984057D02*
X43822905Y-42936438D01*
X43822905Y-42936438D02*
X43918143Y-42888819D01*
X43918143Y-42888819D02*
X44156238Y-42888819D01*
X44156238Y-42888819D02*
X44251476Y-42936438D01*
X44251476Y-42936438D02*
X44299095Y-42984057D01*
X44299095Y-42984057D02*
X44346714Y-43079295D01*
X44346714Y-43079295D02*
X44346714Y-43174533D01*
X44346714Y-43174533D02*
X44299095Y-43317390D01*
X44299095Y-43317390D02*
X43727667Y-43888819D01*
X43727667Y-43888819D02*
X44346714Y-43888819D01*
X79184571Y-57065057D02*
X79089333Y-57017438D01*
X79089333Y-57017438D02*
X78994095Y-56922200D01*
X78994095Y-56922200D02*
X78851238Y-56779342D01*
X78851238Y-56779342D02*
X78756000Y-56731723D01*
X78756000Y-56731723D02*
X78660762Y-56731723D01*
X78708381Y-56969819D02*
X78613143Y-56922200D01*
X78613143Y-56922200D02*
X78517905Y-56826961D01*
X78517905Y-56826961D02*
X78470286Y-56636485D01*
X78470286Y-56636485D02*
X78470286Y-56303152D01*
X78470286Y-56303152D02*
X78517905Y-56112676D01*
X78517905Y-56112676D02*
X78613143Y-56017438D01*
X78613143Y-56017438D02*
X78708381Y-55969819D01*
X78708381Y-55969819D02*
X78898857Y-55969819D01*
X78898857Y-55969819D02*
X78994095Y-56017438D01*
X78994095Y-56017438D02*
X79089333Y-56112676D01*
X79089333Y-56112676D02*
X79136952Y-56303152D01*
X79136952Y-56303152D02*
X79136952Y-56636485D01*
X79136952Y-56636485D02*
X79089333Y-56826961D01*
X79089333Y-56826961D02*
X78994095Y-56922200D01*
X78994095Y-56922200D02*
X78898857Y-56969819D01*
X78898857Y-56969819D02*
X78708381Y-56969819D01*
X80089333Y-56969819D02*
X79517905Y-56969819D01*
X79803619Y-56969819D02*
X79803619Y-55969819D01*
X79803619Y-55969819D02*
X79708381Y-56112676D01*
X79708381Y-56112676D02*
X79613143Y-56207914D01*
X79613143Y-56207914D02*
X79517905Y-56255533D01*
X80708381Y-55969819D02*
X80803619Y-55969819D01*
X80803619Y-55969819D02*
X80898857Y-56017438D01*
X80898857Y-56017438D02*
X80946476Y-56065057D01*
X80946476Y-56065057D02*
X80994095Y-56160295D01*
X80994095Y-56160295D02*
X81041714Y-56350771D01*
X81041714Y-56350771D02*
X81041714Y-56588866D01*
X81041714Y-56588866D02*
X80994095Y-56779342D01*
X80994095Y-56779342D02*
X80946476Y-56874580D01*
X80946476Y-56874580D02*
X80898857Y-56922200D01*
X80898857Y-56922200D02*
X80803619Y-56969819D01*
X80803619Y-56969819D02*
X80708381Y-56969819D01*
X80708381Y-56969819D02*
X80613143Y-56922200D01*
X80613143Y-56922200D02*
X80565524Y-56874580D01*
X80565524Y-56874580D02*
X80517905Y-56779342D01*
X80517905Y-56779342D02*
X80470286Y-56588866D01*
X80470286Y-56588866D02*
X80470286Y-56350771D01*
X80470286Y-56350771D02*
X80517905Y-56160295D01*
X80517905Y-56160295D02*
X80565524Y-56065057D01*
X80565524Y-56065057D02*
X80613143Y-56017438D01*
X80613143Y-56017438D02*
X80708381Y-55969819D01*
X30384761Y-87291057D02*
X30289523Y-87243438D01*
X30289523Y-87243438D02*
X30194285Y-87148200D01*
X30194285Y-87148200D02*
X30051428Y-87005342D01*
X30051428Y-87005342D02*
X29956190Y-86957723D01*
X29956190Y-86957723D02*
X29860952Y-86957723D01*
X29908571Y-87195819D02*
X29813333Y-87148200D01*
X29813333Y-87148200D02*
X29718095Y-87052961D01*
X29718095Y-87052961D02*
X29670476Y-86862485D01*
X29670476Y-86862485D02*
X29670476Y-86529152D01*
X29670476Y-86529152D02*
X29718095Y-86338676D01*
X29718095Y-86338676D02*
X29813333Y-86243438D01*
X29813333Y-86243438D02*
X29908571Y-86195819D01*
X29908571Y-86195819D02*
X30099047Y-86195819D01*
X30099047Y-86195819D02*
X30194285Y-86243438D01*
X30194285Y-86243438D02*
X30289523Y-86338676D01*
X30289523Y-86338676D02*
X30337142Y-86529152D01*
X30337142Y-86529152D02*
X30337142Y-86862485D01*
X30337142Y-86862485D02*
X30289523Y-87052961D01*
X30289523Y-87052961D02*
X30194285Y-87148200D01*
X30194285Y-87148200D02*
X30099047Y-87195819D01*
X30099047Y-87195819D02*
X29908571Y-87195819D01*
X31241904Y-86195819D02*
X30765714Y-86195819D01*
X30765714Y-86195819D02*
X30718095Y-86672009D01*
X30718095Y-86672009D02*
X30765714Y-86624390D01*
X30765714Y-86624390D02*
X30860952Y-86576771D01*
X30860952Y-86576771D02*
X31099047Y-86576771D01*
X31099047Y-86576771D02*
X31194285Y-86624390D01*
X31194285Y-86624390D02*
X31241904Y-86672009D01*
X31241904Y-86672009D02*
X31289523Y-86767247D01*
X31289523Y-86767247D02*
X31289523Y-87005342D01*
X31289523Y-87005342D02*
X31241904Y-87100580D01*
X31241904Y-87100580D02*
X31194285Y-87148200D01*
X31194285Y-87148200D02*
X31099047Y-87195819D01*
X31099047Y-87195819D02*
X30860952Y-87195819D01*
X30860952Y-87195819D02*
X30765714Y-87148200D01*
X30765714Y-87148200D02*
X30718095Y-87100580D01*
X66032142Y-119453819D02*
X65698809Y-118977628D01*
X65460714Y-119453819D02*
X65460714Y-118453819D01*
X65460714Y-118453819D02*
X65841666Y-118453819D01*
X65841666Y-118453819D02*
X65936904Y-118501438D01*
X65936904Y-118501438D02*
X65984523Y-118549057D01*
X65984523Y-118549057D02*
X66032142Y-118644295D01*
X66032142Y-118644295D02*
X66032142Y-118787152D01*
X66032142Y-118787152D02*
X65984523Y-118882390D01*
X65984523Y-118882390D02*
X65936904Y-118930009D01*
X65936904Y-118930009D02*
X65841666Y-118977628D01*
X65841666Y-118977628D02*
X65460714Y-118977628D01*
X66984523Y-119453819D02*
X66413095Y-119453819D01*
X66698809Y-119453819D02*
X66698809Y-118453819D01*
X66698809Y-118453819D02*
X66603571Y-118596676D01*
X66603571Y-118596676D02*
X66508333Y-118691914D01*
X66508333Y-118691914D02*
X66413095Y-118739533D01*
X67841666Y-118787152D02*
X67841666Y-119453819D01*
X67603571Y-118406200D02*
X67365476Y-119120485D01*
X67365476Y-119120485D02*
X67984523Y-119120485D01*
X65936905Y-47698819D02*
X65936905Y-46698819D01*
X65936905Y-46698819D02*
X66175000Y-46698819D01*
X66175000Y-46698819D02*
X66317857Y-46746438D01*
X66317857Y-46746438D02*
X66413095Y-46841676D01*
X66413095Y-46841676D02*
X66460714Y-46936914D01*
X66460714Y-46936914D02*
X66508333Y-47127390D01*
X66508333Y-47127390D02*
X66508333Y-47270247D01*
X66508333Y-47270247D02*
X66460714Y-47460723D01*
X66460714Y-47460723D02*
X66413095Y-47555961D01*
X66413095Y-47555961D02*
X66317857Y-47651200D01*
X66317857Y-47651200D02*
X66175000Y-47698819D01*
X66175000Y-47698819D02*
X65936905Y-47698819D01*
X66984524Y-47698819D02*
X67175000Y-47698819D01*
X67175000Y-47698819D02*
X67270238Y-47651200D01*
X67270238Y-47651200D02*
X67317857Y-47603580D01*
X67317857Y-47603580D02*
X67413095Y-47460723D01*
X67413095Y-47460723D02*
X67460714Y-47270247D01*
X67460714Y-47270247D02*
X67460714Y-46889295D01*
X67460714Y-46889295D02*
X67413095Y-46794057D01*
X67413095Y-46794057D02*
X67365476Y-46746438D01*
X67365476Y-46746438D02*
X67270238Y-46698819D01*
X67270238Y-46698819D02*
X67079762Y-46698819D01*
X67079762Y-46698819D02*
X66984524Y-46746438D01*
X66984524Y-46746438D02*
X66936905Y-46794057D01*
X66936905Y-46794057D02*
X66889286Y-46889295D01*
X66889286Y-46889295D02*
X66889286Y-47127390D01*
X66889286Y-47127390D02*
X66936905Y-47222628D01*
X66936905Y-47222628D02*
X66984524Y-47270247D01*
X66984524Y-47270247D02*
X67079762Y-47317866D01*
X67079762Y-47317866D02*
X67270238Y-47317866D01*
X67270238Y-47317866D02*
X67365476Y-47270247D01*
X67365476Y-47270247D02*
X67413095Y-47222628D01*
X67413095Y-47222628D02*
X67460714Y-47127390D01*
D11*
X66788619Y-50553838D02*
X66699333Y-50506219D01*
X66699333Y-50506219D02*
X66556476Y-50506219D01*
X66556476Y-50506219D02*
X66407666Y-50553838D01*
X66407666Y-50553838D02*
X66300523Y-50649076D01*
X66300523Y-50649076D02*
X66240999Y-50744314D01*
X66240999Y-50744314D02*
X66169571Y-50934790D01*
X66169571Y-50934790D02*
X66151714Y-51077647D01*
X66151714Y-51077647D02*
X66175523Y-51268123D01*
X66175523Y-51268123D02*
X66211238Y-51363361D01*
X66211238Y-51363361D02*
X66294571Y-51458600D01*
X66294571Y-51458600D02*
X66431476Y-51506219D01*
X66431476Y-51506219D02*
X66526714Y-51506219D01*
X66526714Y-51506219D02*
X66675523Y-51458600D01*
X66675523Y-51458600D02*
X66729095Y-51410980D01*
X66729095Y-51410980D02*
X66770761Y-51077647D01*
X66770761Y-51077647D02*
X66580285Y-51077647D01*
X67145761Y-51506219D02*
X67270761Y-50506219D01*
X67621951Y-51506219D02*
X67746951Y-50506219D01*
X67746951Y-50506219D02*
X67990999Y-51220504D01*
X67990999Y-51220504D02*
X68413618Y-50506219D01*
X68413618Y-50506219D02*
X68288618Y-51506219D01*
X69163618Y-50982409D02*
X69300523Y-51030028D01*
X69300523Y-51030028D02*
X69342189Y-51077647D01*
X69342189Y-51077647D02*
X69377904Y-51172885D01*
X69377904Y-51172885D02*
X69360046Y-51315742D01*
X69360046Y-51315742D02*
X69300523Y-51410980D01*
X69300523Y-51410980D02*
X69246951Y-51458600D01*
X69246951Y-51458600D02*
X69145761Y-51506219D01*
X69145761Y-51506219D02*
X68764808Y-51506219D01*
X68764808Y-51506219D02*
X68889808Y-50506219D01*
X68889808Y-50506219D02*
X69223142Y-50506219D01*
X69223142Y-50506219D02*
X69312427Y-50553838D01*
X69312427Y-50553838D02*
X69354094Y-50601457D01*
X69354094Y-50601457D02*
X69389808Y-50696695D01*
X69389808Y-50696695D02*
X69377904Y-50791933D01*
X69377904Y-50791933D02*
X69318380Y-50887171D01*
X69318380Y-50887171D02*
X69264808Y-50934790D01*
X69264808Y-50934790D02*
X69163618Y-50982409D01*
X69163618Y-50982409D02*
X68830285Y-50982409D01*
X69752904Y-51220504D02*
X70229094Y-51220504D01*
X69621951Y-51506219D02*
X70080285Y-50506219D01*
X70080285Y-50506219D02*
X70288618Y-51506219D01*
X71098142Y-51506219D02*
X70621951Y-51506219D01*
X70621951Y-51506219D02*
X70746951Y-50506219D01*
X72669571Y-51506219D02*
X72193380Y-51506219D01*
X72193380Y-51506219D02*
X72318380Y-50506219D01*
X73318381Y-50506219D02*
X73508857Y-50506219D01*
X73508857Y-50506219D02*
X73598142Y-50553838D01*
X73598142Y-50553838D02*
X73681476Y-50649076D01*
X73681476Y-50649076D02*
X73705285Y-50839552D01*
X73705285Y-50839552D02*
X73663619Y-51172885D01*
X73663619Y-51172885D02*
X73592190Y-51363361D01*
X73592190Y-51363361D02*
X73485047Y-51458600D01*
X73485047Y-51458600D02*
X73383857Y-51506219D01*
X73383857Y-51506219D02*
X73193381Y-51506219D01*
X73193381Y-51506219D02*
X73104095Y-51458600D01*
X73104095Y-51458600D02*
X73020762Y-51363361D01*
X73020762Y-51363361D02*
X72996952Y-51172885D01*
X72996952Y-51172885D02*
X73038619Y-50839552D01*
X73038619Y-50839552D02*
X73110047Y-50649076D01*
X73110047Y-50649076D02*
X73217190Y-50553838D01*
X73217190Y-50553838D02*
X73318381Y-50506219D01*
X74633857Y-51410980D02*
X74580285Y-51458600D01*
X74580285Y-51458600D02*
X74431476Y-51506219D01*
X74431476Y-51506219D02*
X74336238Y-51506219D01*
X74336238Y-51506219D02*
X74199333Y-51458600D01*
X74199333Y-51458600D02*
X74116000Y-51363361D01*
X74116000Y-51363361D02*
X74080285Y-51268123D01*
X74080285Y-51268123D02*
X74056476Y-51077647D01*
X74056476Y-51077647D02*
X74074333Y-50934790D01*
X74074333Y-50934790D02*
X74145761Y-50744314D01*
X74145761Y-50744314D02*
X74205285Y-50649076D01*
X74205285Y-50649076D02*
X74312428Y-50553838D01*
X74312428Y-50553838D02*
X74461238Y-50506219D01*
X74461238Y-50506219D02*
X74556476Y-50506219D01*
X74556476Y-50506219D02*
X74693381Y-50553838D01*
X74693381Y-50553838D02*
X74735047Y-50601457D01*
X75050523Y-51506219D02*
X75175523Y-50506219D01*
X75621952Y-51506219D02*
X75264809Y-50934790D01*
X75746952Y-50506219D02*
X75104095Y-51077647D01*
D10*
X43394333Y-28775819D02*
X43061000Y-28299628D01*
X42822905Y-28775819D02*
X42822905Y-27775819D01*
X42822905Y-27775819D02*
X43203857Y-27775819D01*
X43203857Y-27775819D02*
X43299095Y-27823438D01*
X43299095Y-27823438D02*
X43346714Y-27871057D01*
X43346714Y-27871057D02*
X43394333Y-27966295D01*
X43394333Y-27966295D02*
X43394333Y-28109152D01*
X43394333Y-28109152D02*
X43346714Y-28204390D01*
X43346714Y-28204390D02*
X43299095Y-28252009D01*
X43299095Y-28252009D02*
X43203857Y-28299628D01*
X43203857Y-28299628D02*
X42822905Y-28299628D01*
X44346714Y-28775819D02*
X43775286Y-28775819D01*
X44061000Y-28775819D02*
X44061000Y-27775819D01*
X44061000Y-27775819D02*
X43965762Y-27918676D01*
X43965762Y-27918676D02*
X43870524Y-28013914D01*
X43870524Y-28013914D02*
X43775286Y-28061533D01*
X42822905Y-93037819D02*
X42822905Y-92037819D01*
X42822905Y-92037819D02*
X43061000Y-92037819D01*
X43061000Y-92037819D02*
X43203857Y-92085438D01*
X43203857Y-92085438D02*
X43299095Y-92180676D01*
X43299095Y-92180676D02*
X43346714Y-92275914D01*
X43346714Y-92275914D02*
X43394333Y-92466390D01*
X43394333Y-92466390D02*
X43394333Y-92609247D01*
X43394333Y-92609247D02*
X43346714Y-92799723D01*
X43346714Y-92799723D02*
X43299095Y-92894961D01*
X43299095Y-92894961D02*
X43203857Y-92990200D01*
X43203857Y-92990200D02*
X43061000Y-93037819D01*
X43061000Y-93037819D02*
X42822905Y-93037819D01*
X44299095Y-92037819D02*
X43822905Y-92037819D01*
X43822905Y-92037819D02*
X43775286Y-92514009D01*
X43775286Y-92514009D02*
X43822905Y-92466390D01*
X43822905Y-92466390D02*
X43918143Y-92418771D01*
X43918143Y-92418771D02*
X44156238Y-92418771D01*
X44156238Y-92418771D02*
X44251476Y-92466390D01*
X44251476Y-92466390D02*
X44299095Y-92514009D01*
X44299095Y-92514009D02*
X44346714Y-92609247D01*
X44346714Y-92609247D02*
X44346714Y-92847342D01*
X44346714Y-92847342D02*
X44299095Y-92942580D01*
X44299095Y-92942580D02*
X44251476Y-92990200D01*
X44251476Y-92990200D02*
X44156238Y-93037819D01*
X44156238Y-93037819D02*
X43918143Y-93037819D01*
X43918143Y-93037819D02*
X43822905Y-92990200D01*
X43822905Y-92990200D02*
X43775286Y-92942580D01*
D11*
X36560476Y-95845219D02*
X36750952Y-95845219D01*
X36750952Y-95845219D02*
X36840237Y-95892838D01*
X36840237Y-95892838D02*
X36923571Y-95988076D01*
X36923571Y-95988076D02*
X36947380Y-96178552D01*
X36947380Y-96178552D02*
X36905714Y-96511885D01*
X36905714Y-96511885D02*
X36834285Y-96702361D01*
X36834285Y-96702361D02*
X36727142Y-96797600D01*
X36727142Y-96797600D02*
X36625952Y-96845219D01*
X36625952Y-96845219D02*
X36435476Y-96845219D01*
X36435476Y-96845219D02*
X36346190Y-96797600D01*
X36346190Y-96797600D02*
X36262857Y-96702361D01*
X36262857Y-96702361D02*
X36239047Y-96511885D01*
X36239047Y-96511885D02*
X36280714Y-96178552D01*
X36280714Y-96178552D02*
X36352142Y-95988076D01*
X36352142Y-95988076D02*
X36459285Y-95892838D01*
X36459285Y-95892838D02*
X36560476Y-95845219D01*
X37292618Y-96845219D02*
X37417618Y-95845219D01*
X37417618Y-95845219D02*
X37798571Y-95845219D01*
X37798571Y-95845219D02*
X37887856Y-95892838D01*
X37887856Y-95892838D02*
X37929523Y-95940457D01*
X37929523Y-95940457D02*
X37965237Y-96035695D01*
X37965237Y-96035695D02*
X37947380Y-96178552D01*
X37947380Y-96178552D02*
X37887856Y-96273790D01*
X37887856Y-96273790D02*
X37834285Y-96321409D01*
X37834285Y-96321409D02*
X37733095Y-96369028D01*
X37733095Y-96369028D02*
X37352142Y-96369028D01*
X38864047Y-96845219D02*
X38590237Y-96369028D01*
X38292618Y-96845219D02*
X38417618Y-95845219D01*
X38417618Y-95845219D02*
X38798571Y-95845219D01*
X38798571Y-95845219D02*
X38887856Y-95892838D01*
X38887856Y-95892838D02*
X38929523Y-95940457D01*
X38929523Y-95940457D02*
X38965237Y-96035695D01*
X38965237Y-96035695D02*
X38947380Y-96178552D01*
X38947380Y-96178552D02*
X38887856Y-96273790D01*
X38887856Y-96273790D02*
X38834285Y-96321409D01*
X38834285Y-96321409D02*
X38733095Y-96369028D01*
X38733095Y-96369028D02*
X38352142Y-96369028D01*
X40120000Y-96321409D02*
X40453333Y-96321409D01*
X40530714Y-96845219D02*
X40054523Y-96845219D01*
X40054523Y-96845219D02*
X40179523Y-95845219D01*
X40179523Y-95845219D02*
X40655714Y-95845219D01*
X41530714Y-96845219D02*
X41256904Y-96369028D01*
X40959285Y-96845219D02*
X41084285Y-95845219D01*
X41084285Y-95845219D02*
X41465238Y-95845219D01*
X41465238Y-95845219D02*
X41554523Y-95892838D01*
X41554523Y-95892838D02*
X41596190Y-95940457D01*
X41596190Y-95940457D02*
X41631904Y-96035695D01*
X41631904Y-96035695D02*
X41614047Y-96178552D01*
X41614047Y-96178552D02*
X41554523Y-96273790D01*
X41554523Y-96273790D02*
X41500952Y-96321409D01*
X41500952Y-96321409D02*
X41399762Y-96369028D01*
X41399762Y-96369028D02*
X41018809Y-96369028D01*
X42530714Y-96845219D02*
X42256904Y-96369028D01*
X41959285Y-96845219D02*
X42084285Y-95845219D01*
X42084285Y-95845219D02*
X42465238Y-95845219D01*
X42465238Y-95845219D02*
X42554523Y-95892838D01*
X42554523Y-95892838D02*
X42596190Y-95940457D01*
X42596190Y-95940457D02*
X42631904Y-96035695D01*
X42631904Y-96035695D02*
X42614047Y-96178552D01*
X42614047Y-96178552D02*
X42554523Y-96273790D01*
X42554523Y-96273790D02*
X42500952Y-96321409D01*
X42500952Y-96321409D02*
X42399762Y-96369028D01*
X42399762Y-96369028D02*
X42018809Y-96369028D01*
D10*
X79184571Y-117517057D02*
X79089333Y-117469438D01*
X79089333Y-117469438D02*
X78994095Y-117374200D01*
X78994095Y-117374200D02*
X78851238Y-117231342D01*
X78851238Y-117231342D02*
X78756000Y-117183723D01*
X78756000Y-117183723D02*
X78660762Y-117183723D01*
X78708381Y-117421819D02*
X78613143Y-117374200D01*
X78613143Y-117374200D02*
X78517905Y-117278961D01*
X78517905Y-117278961D02*
X78470286Y-117088485D01*
X78470286Y-117088485D02*
X78470286Y-116755152D01*
X78470286Y-116755152D02*
X78517905Y-116564676D01*
X78517905Y-116564676D02*
X78613143Y-116469438D01*
X78613143Y-116469438D02*
X78708381Y-116421819D01*
X78708381Y-116421819D02*
X78898857Y-116421819D01*
X78898857Y-116421819D02*
X78994095Y-116469438D01*
X78994095Y-116469438D02*
X79089333Y-116564676D01*
X79089333Y-116564676D02*
X79136952Y-116755152D01*
X79136952Y-116755152D02*
X79136952Y-117088485D01*
X79136952Y-117088485D02*
X79089333Y-117278961D01*
X79089333Y-117278961D02*
X78994095Y-117374200D01*
X78994095Y-117374200D02*
X78898857Y-117421819D01*
X78898857Y-117421819D02*
X78708381Y-117421819D01*
X80089333Y-117421819D02*
X79517905Y-117421819D01*
X79803619Y-117421819D02*
X79803619Y-116421819D01*
X79803619Y-116421819D02*
X79708381Y-116564676D01*
X79708381Y-116564676D02*
X79613143Y-116659914D01*
X79613143Y-116659914D02*
X79517905Y-116707533D01*
X80946476Y-116755152D02*
X80946476Y-117421819D01*
X80708381Y-116374200D02*
X80470286Y-117088485D01*
X80470286Y-117088485D02*
X81089333Y-117088485D01*
X43394333Y-89227819D02*
X43061000Y-88751628D01*
X42822905Y-89227819D02*
X42822905Y-88227819D01*
X42822905Y-88227819D02*
X43203857Y-88227819D01*
X43203857Y-88227819D02*
X43299095Y-88275438D01*
X43299095Y-88275438D02*
X43346714Y-88323057D01*
X43346714Y-88323057D02*
X43394333Y-88418295D01*
X43394333Y-88418295D02*
X43394333Y-88561152D01*
X43394333Y-88561152D02*
X43346714Y-88656390D01*
X43346714Y-88656390D02*
X43299095Y-88704009D01*
X43299095Y-88704009D02*
X43203857Y-88751628D01*
X43203857Y-88751628D02*
X42822905Y-88751628D01*
X44299095Y-88227819D02*
X43822905Y-88227819D01*
X43822905Y-88227819D02*
X43775286Y-88704009D01*
X43775286Y-88704009D02*
X43822905Y-88656390D01*
X43822905Y-88656390D02*
X43918143Y-88608771D01*
X43918143Y-88608771D02*
X44156238Y-88608771D01*
X44156238Y-88608771D02*
X44251476Y-88656390D01*
X44251476Y-88656390D02*
X44299095Y-88704009D01*
X44299095Y-88704009D02*
X44346714Y-88799247D01*
X44346714Y-88799247D02*
X44346714Y-89037342D01*
X44346714Y-89037342D02*
X44299095Y-89132580D01*
X44299095Y-89132580D02*
X44251476Y-89180200D01*
X44251476Y-89180200D02*
X44156238Y-89227819D01*
X44156238Y-89227819D02*
X43918143Y-89227819D01*
X43918143Y-89227819D02*
X43822905Y-89180200D01*
X43822905Y-89180200D02*
X43775286Y-89132580D01*
X66508333Y-43888819D02*
X66175000Y-43412628D01*
X65936905Y-43888819D02*
X65936905Y-42888819D01*
X65936905Y-42888819D02*
X66317857Y-42888819D01*
X66317857Y-42888819D02*
X66413095Y-42936438D01*
X66413095Y-42936438D02*
X66460714Y-42984057D01*
X66460714Y-42984057D02*
X66508333Y-43079295D01*
X66508333Y-43079295D02*
X66508333Y-43222152D01*
X66508333Y-43222152D02*
X66460714Y-43317390D01*
X66460714Y-43317390D02*
X66413095Y-43365009D01*
X66413095Y-43365009D02*
X66317857Y-43412628D01*
X66317857Y-43412628D02*
X65936905Y-43412628D01*
X66984524Y-43888819D02*
X67175000Y-43888819D01*
X67175000Y-43888819D02*
X67270238Y-43841200D01*
X67270238Y-43841200D02*
X67317857Y-43793580D01*
X67317857Y-43793580D02*
X67413095Y-43650723D01*
X67413095Y-43650723D02*
X67460714Y-43460247D01*
X67460714Y-43460247D02*
X67460714Y-43079295D01*
X67460714Y-43079295D02*
X67413095Y-42984057D01*
X67413095Y-42984057D02*
X67365476Y-42936438D01*
X67365476Y-42936438D02*
X67270238Y-42888819D01*
X67270238Y-42888819D02*
X67079762Y-42888819D01*
X67079762Y-42888819D02*
X66984524Y-42936438D01*
X66984524Y-42936438D02*
X66936905Y-42984057D01*
X66936905Y-42984057D02*
X66889286Y-43079295D01*
X66889286Y-43079295D02*
X66889286Y-43317390D01*
X66889286Y-43317390D02*
X66936905Y-43412628D01*
X66936905Y-43412628D02*
X66984524Y-43460247D01*
X66984524Y-43460247D02*
X67079762Y-43507866D01*
X67079762Y-43507866D02*
X67270238Y-43507866D01*
X67270238Y-43507866D02*
X67365476Y-43460247D01*
X67365476Y-43460247D02*
X67413095Y-43412628D01*
X67413095Y-43412628D02*
X67460714Y-43317390D01*
X42822905Y-77924819D02*
X42822905Y-76924819D01*
X42822905Y-76924819D02*
X43061000Y-76924819D01*
X43061000Y-76924819D02*
X43203857Y-76972438D01*
X43203857Y-76972438D02*
X43299095Y-77067676D01*
X43299095Y-77067676D02*
X43346714Y-77162914D01*
X43346714Y-77162914D02*
X43394333Y-77353390D01*
X43394333Y-77353390D02*
X43394333Y-77496247D01*
X43394333Y-77496247D02*
X43346714Y-77686723D01*
X43346714Y-77686723D02*
X43299095Y-77781961D01*
X43299095Y-77781961D02*
X43203857Y-77877200D01*
X43203857Y-77877200D02*
X43061000Y-77924819D01*
X43061000Y-77924819D02*
X42822905Y-77924819D01*
X44251476Y-77258152D02*
X44251476Y-77924819D01*
X44013381Y-76877200D02*
X43775286Y-77591485D01*
X43775286Y-77591485D02*
X44394333Y-77591485D01*
D11*
X36483094Y-81732219D02*
X36608094Y-80732219D01*
X37054523Y-81732219D02*
X36697380Y-81160790D01*
X37179523Y-80732219D02*
X36536666Y-81303647D01*
X37548571Y-81208409D02*
X37881904Y-81208409D01*
X37959285Y-81732219D02*
X37483094Y-81732219D01*
X37483094Y-81732219D02*
X37608094Y-80732219D01*
X37608094Y-80732219D02*
X38084285Y-80732219D01*
X38637856Y-81256028D02*
X38578333Y-81732219D01*
X38369999Y-80732219D02*
X38637856Y-81256028D01*
X38637856Y-81256028D02*
X39036666Y-80732219D01*
X40578333Y-81732219D02*
X40304523Y-81256028D01*
X40006904Y-81732219D02*
X40131904Y-80732219D01*
X40131904Y-80732219D02*
X40512857Y-80732219D01*
X40512857Y-80732219D02*
X40602142Y-80779838D01*
X40602142Y-80779838D02*
X40643809Y-80827457D01*
X40643809Y-80827457D02*
X40679523Y-80922695D01*
X40679523Y-80922695D02*
X40661666Y-81065552D01*
X40661666Y-81065552D02*
X40602142Y-81160790D01*
X40602142Y-81160790D02*
X40548571Y-81208409D01*
X40548571Y-81208409D02*
X40447381Y-81256028D01*
X40447381Y-81256028D02*
X40066428Y-81256028D01*
X41072381Y-81208409D02*
X41405714Y-81208409D01*
X41483095Y-81732219D02*
X41006904Y-81732219D01*
X41006904Y-81732219D02*
X41131904Y-80732219D01*
X41131904Y-80732219D02*
X41608095Y-80732219D01*
X42387857Y-81732219D02*
X41911666Y-81732219D01*
X41911666Y-81732219D02*
X42036666Y-80732219D01*
D10*
X79184571Y-72178057D02*
X79089333Y-72130438D01*
X79089333Y-72130438D02*
X78994095Y-72035200D01*
X78994095Y-72035200D02*
X78851238Y-71892342D01*
X78851238Y-71892342D02*
X78756000Y-71844723D01*
X78756000Y-71844723D02*
X78660762Y-71844723D01*
X78708381Y-72082819D02*
X78613143Y-72035200D01*
X78613143Y-72035200D02*
X78517905Y-71939961D01*
X78517905Y-71939961D02*
X78470286Y-71749485D01*
X78470286Y-71749485D02*
X78470286Y-71416152D01*
X78470286Y-71416152D02*
X78517905Y-71225676D01*
X78517905Y-71225676D02*
X78613143Y-71130438D01*
X78613143Y-71130438D02*
X78708381Y-71082819D01*
X78708381Y-71082819D02*
X78898857Y-71082819D01*
X78898857Y-71082819D02*
X78994095Y-71130438D01*
X78994095Y-71130438D02*
X79089333Y-71225676D01*
X79089333Y-71225676D02*
X79136952Y-71416152D01*
X79136952Y-71416152D02*
X79136952Y-71749485D01*
X79136952Y-71749485D02*
X79089333Y-71939961D01*
X79089333Y-71939961D02*
X78994095Y-72035200D01*
X78994095Y-72035200D02*
X78898857Y-72082819D01*
X78898857Y-72082819D02*
X78708381Y-72082819D01*
X80089333Y-72082819D02*
X79517905Y-72082819D01*
X79803619Y-72082819D02*
X79803619Y-71082819D01*
X79803619Y-71082819D02*
X79708381Y-71225676D01*
X79708381Y-71225676D02*
X79613143Y-71320914D01*
X79613143Y-71320914D02*
X79517905Y-71368533D01*
X81041714Y-72082819D02*
X80470286Y-72082819D01*
X80756000Y-72082819D02*
X80756000Y-71082819D01*
X80756000Y-71082819D02*
X80660762Y-71225676D01*
X80660762Y-71225676D02*
X80565524Y-71320914D01*
X80565524Y-71320914D02*
X80470286Y-71368533D01*
X43394333Y-119453819D02*
X43061000Y-118977628D01*
X42822905Y-119453819D02*
X42822905Y-118453819D01*
X42822905Y-118453819D02*
X43203857Y-118453819D01*
X43203857Y-118453819D02*
X43299095Y-118501438D01*
X43299095Y-118501438D02*
X43346714Y-118549057D01*
X43346714Y-118549057D02*
X43394333Y-118644295D01*
X43394333Y-118644295D02*
X43394333Y-118787152D01*
X43394333Y-118787152D02*
X43346714Y-118882390D01*
X43346714Y-118882390D02*
X43299095Y-118930009D01*
X43299095Y-118930009D02*
X43203857Y-118977628D01*
X43203857Y-118977628D02*
X42822905Y-118977628D01*
X43727667Y-118453819D02*
X44394333Y-118453819D01*
X44394333Y-118453819D02*
X43965762Y-119453819D01*
X65460714Y-62811819D02*
X65460714Y-61811819D01*
X65460714Y-61811819D02*
X65698809Y-61811819D01*
X65698809Y-61811819D02*
X65841666Y-61859438D01*
X65841666Y-61859438D02*
X65936904Y-61954676D01*
X65936904Y-61954676D02*
X65984523Y-62049914D01*
X65984523Y-62049914D02*
X66032142Y-62240390D01*
X66032142Y-62240390D02*
X66032142Y-62383247D01*
X66032142Y-62383247D02*
X65984523Y-62573723D01*
X65984523Y-62573723D02*
X65936904Y-62668961D01*
X65936904Y-62668961D02*
X65841666Y-62764200D01*
X65841666Y-62764200D02*
X65698809Y-62811819D01*
X65698809Y-62811819D02*
X65460714Y-62811819D01*
X66984523Y-62811819D02*
X66413095Y-62811819D01*
X66698809Y-62811819D02*
X66698809Y-61811819D01*
X66698809Y-61811819D02*
X66603571Y-61954676D01*
X66603571Y-61954676D02*
X66508333Y-62049914D01*
X66508333Y-62049914D02*
X66413095Y-62097533D01*
X67603571Y-61811819D02*
X67698809Y-61811819D01*
X67698809Y-61811819D02*
X67794047Y-61859438D01*
X67794047Y-61859438D02*
X67841666Y-61907057D01*
X67841666Y-61907057D02*
X67889285Y-62002295D01*
X67889285Y-62002295D02*
X67936904Y-62192771D01*
X67936904Y-62192771D02*
X67936904Y-62430866D01*
X67936904Y-62430866D02*
X67889285Y-62621342D01*
X67889285Y-62621342D02*
X67841666Y-62716580D01*
X67841666Y-62716580D02*
X67794047Y-62764200D01*
X67794047Y-62764200D02*
X67698809Y-62811819D01*
X67698809Y-62811819D02*
X67603571Y-62811819D01*
X67603571Y-62811819D02*
X67508333Y-62764200D01*
X67508333Y-62764200D02*
X67460714Y-62716580D01*
X67460714Y-62716580D02*
X67413095Y-62621342D01*
X67413095Y-62621342D02*
X67365476Y-62430866D01*
X67365476Y-62430866D02*
X67365476Y-62192771D01*
X67365476Y-62192771D02*
X67413095Y-62002295D01*
X67413095Y-62002295D02*
X67460714Y-61907057D01*
X67460714Y-61907057D02*
X67508333Y-61859438D01*
X67508333Y-61859438D02*
X67603571Y-61811819D01*
D11*
X69074333Y-66619219D02*
X69199333Y-65619219D01*
X69199333Y-65619219D02*
X69580286Y-65619219D01*
X69580286Y-65619219D02*
X69669571Y-65666838D01*
X69669571Y-65666838D02*
X69711238Y-65714457D01*
X69711238Y-65714457D02*
X69746952Y-65809695D01*
X69746952Y-65809695D02*
X69729095Y-65952552D01*
X69729095Y-65952552D02*
X69669571Y-66047790D01*
X69669571Y-66047790D02*
X69616000Y-66095409D01*
X69616000Y-66095409D02*
X69514810Y-66143028D01*
X69514810Y-66143028D02*
X69133857Y-66143028D01*
X70645762Y-66619219D02*
X70371952Y-66143028D01*
X70074333Y-66619219D02*
X70199333Y-65619219D01*
X70199333Y-65619219D02*
X70580286Y-65619219D01*
X70580286Y-65619219D02*
X70669571Y-65666838D01*
X70669571Y-65666838D02*
X70711238Y-65714457D01*
X70711238Y-65714457D02*
X70746952Y-65809695D01*
X70746952Y-65809695D02*
X70729095Y-65952552D01*
X70729095Y-65952552D02*
X70669571Y-66047790D01*
X70669571Y-66047790D02*
X70616000Y-66095409D01*
X70616000Y-66095409D02*
X70514810Y-66143028D01*
X70514810Y-66143028D02*
X70133857Y-66143028D01*
X71389810Y-65619219D02*
X71580286Y-65619219D01*
X71580286Y-65619219D02*
X71669571Y-65666838D01*
X71669571Y-65666838D02*
X71752905Y-65762076D01*
X71752905Y-65762076D02*
X71776714Y-65952552D01*
X71776714Y-65952552D02*
X71735048Y-66285885D01*
X71735048Y-66285885D02*
X71663619Y-66476361D01*
X71663619Y-66476361D02*
X71556476Y-66571600D01*
X71556476Y-66571600D02*
X71455286Y-66619219D01*
X71455286Y-66619219D02*
X71264810Y-66619219D01*
X71264810Y-66619219D02*
X71175524Y-66571600D01*
X71175524Y-66571600D02*
X71092191Y-66476361D01*
X71092191Y-66476361D02*
X71068381Y-66285885D01*
X71068381Y-66285885D02*
X71110048Y-65952552D01*
X71110048Y-65952552D02*
X71181476Y-65762076D01*
X71181476Y-65762076D02*
X71288619Y-65666838D01*
X71288619Y-65666838D02*
X71389810Y-65619219D01*
X72764810Y-65666838D02*
X72675524Y-65619219D01*
X72675524Y-65619219D02*
X72532667Y-65619219D01*
X72532667Y-65619219D02*
X72383857Y-65666838D01*
X72383857Y-65666838D02*
X72276714Y-65762076D01*
X72276714Y-65762076D02*
X72217190Y-65857314D01*
X72217190Y-65857314D02*
X72145762Y-66047790D01*
X72145762Y-66047790D02*
X72127905Y-66190647D01*
X72127905Y-66190647D02*
X72151714Y-66381123D01*
X72151714Y-66381123D02*
X72187429Y-66476361D01*
X72187429Y-66476361D02*
X72270762Y-66571600D01*
X72270762Y-66571600D02*
X72407667Y-66619219D01*
X72407667Y-66619219D02*
X72502905Y-66619219D01*
X72502905Y-66619219D02*
X72651714Y-66571600D01*
X72651714Y-66571600D02*
X72705286Y-66523980D01*
X72705286Y-66523980D02*
X72746952Y-66190647D01*
X72746952Y-66190647D02*
X72556476Y-66190647D01*
D10*
X43394333Y-104340819D02*
X43061000Y-103864628D01*
X42822905Y-104340819D02*
X42822905Y-103340819D01*
X42822905Y-103340819D02*
X43203857Y-103340819D01*
X43203857Y-103340819D02*
X43299095Y-103388438D01*
X43299095Y-103388438D02*
X43346714Y-103436057D01*
X43346714Y-103436057D02*
X43394333Y-103531295D01*
X43394333Y-103531295D02*
X43394333Y-103674152D01*
X43394333Y-103674152D02*
X43346714Y-103769390D01*
X43346714Y-103769390D02*
X43299095Y-103817009D01*
X43299095Y-103817009D02*
X43203857Y-103864628D01*
X43203857Y-103864628D02*
X42822905Y-103864628D01*
X44251476Y-103340819D02*
X44061000Y-103340819D01*
X44061000Y-103340819D02*
X43965762Y-103388438D01*
X43965762Y-103388438D02*
X43918143Y-103436057D01*
X43918143Y-103436057D02*
X43822905Y-103578914D01*
X43822905Y-103578914D02*
X43775286Y-103769390D01*
X43775286Y-103769390D02*
X43775286Y-104150342D01*
X43775286Y-104150342D02*
X43822905Y-104245580D01*
X43822905Y-104245580D02*
X43870524Y-104293200D01*
X43870524Y-104293200D02*
X43965762Y-104340819D01*
X43965762Y-104340819D02*
X44156238Y-104340819D01*
X44156238Y-104340819D02*
X44251476Y-104293200D01*
X44251476Y-104293200D02*
X44299095Y-104245580D01*
X44299095Y-104245580D02*
X44346714Y-104150342D01*
X44346714Y-104150342D02*
X44346714Y-103912247D01*
X44346714Y-103912247D02*
X44299095Y-103817009D01*
X44299095Y-103817009D02*
X44251476Y-103769390D01*
X44251476Y-103769390D02*
X44156238Y-103721771D01*
X44156238Y-103721771D02*
X43965762Y-103721771D01*
X43965762Y-103721771D02*
X43870524Y-103769390D01*
X43870524Y-103769390D02*
X43822905Y-103817009D01*
X43822905Y-103817009D02*
X43775286Y-103912247D01*
X30384761Y-57070557D02*
X30289523Y-57022938D01*
X30289523Y-57022938D02*
X30194285Y-56927700D01*
X30194285Y-56927700D02*
X30051428Y-56784842D01*
X30051428Y-56784842D02*
X29956190Y-56737223D01*
X29956190Y-56737223D02*
X29860952Y-56737223D01*
X29908571Y-56975319D02*
X29813333Y-56927700D01*
X29813333Y-56927700D02*
X29718095Y-56832461D01*
X29718095Y-56832461D02*
X29670476Y-56641985D01*
X29670476Y-56641985D02*
X29670476Y-56308652D01*
X29670476Y-56308652D02*
X29718095Y-56118176D01*
X29718095Y-56118176D02*
X29813333Y-56022938D01*
X29813333Y-56022938D02*
X29908571Y-55975319D01*
X29908571Y-55975319D02*
X30099047Y-55975319D01*
X30099047Y-55975319D02*
X30194285Y-56022938D01*
X30194285Y-56022938D02*
X30289523Y-56118176D01*
X30289523Y-56118176D02*
X30337142Y-56308652D01*
X30337142Y-56308652D02*
X30337142Y-56641985D01*
X30337142Y-56641985D02*
X30289523Y-56832461D01*
X30289523Y-56832461D02*
X30194285Y-56927700D01*
X30194285Y-56927700D02*
X30099047Y-56975319D01*
X30099047Y-56975319D02*
X29908571Y-56975319D01*
X30670476Y-55975319D02*
X31289523Y-55975319D01*
X31289523Y-55975319D02*
X30956190Y-56356271D01*
X30956190Y-56356271D02*
X31099047Y-56356271D01*
X31099047Y-56356271D02*
X31194285Y-56403890D01*
X31194285Y-56403890D02*
X31241904Y-56451509D01*
X31241904Y-56451509D02*
X31289523Y-56546747D01*
X31289523Y-56546747D02*
X31289523Y-56784842D01*
X31289523Y-56784842D02*
X31241904Y-56880080D01*
X31241904Y-56880080D02*
X31194285Y-56927700D01*
X31194285Y-56927700D02*
X31099047Y-56975319D01*
X31099047Y-56975319D02*
X30813333Y-56975319D01*
X30813333Y-56975319D02*
X30718095Y-56927700D01*
X30718095Y-56927700D02*
X30670476Y-56880080D01*
X65460714Y-123263819D02*
X65460714Y-122263819D01*
X65460714Y-122263819D02*
X65698809Y-122263819D01*
X65698809Y-122263819D02*
X65841666Y-122311438D01*
X65841666Y-122311438D02*
X65936904Y-122406676D01*
X65936904Y-122406676D02*
X65984523Y-122501914D01*
X65984523Y-122501914D02*
X66032142Y-122692390D01*
X66032142Y-122692390D02*
X66032142Y-122835247D01*
X66032142Y-122835247D02*
X65984523Y-123025723D01*
X65984523Y-123025723D02*
X65936904Y-123120961D01*
X65936904Y-123120961D02*
X65841666Y-123216200D01*
X65841666Y-123216200D02*
X65698809Y-123263819D01*
X65698809Y-123263819D02*
X65460714Y-123263819D01*
X66984523Y-123263819D02*
X66413095Y-123263819D01*
X66698809Y-123263819D02*
X66698809Y-122263819D01*
X66698809Y-122263819D02*
X66603571Y-122406676D01*
X66603571Y-122406676D02*
X66508333Y-122501914D01*
X66508333Y-122501914D02*
X66413095Y-122549533D01*
X67841666Y-122597152D02*
X67841666Y-123263819D01*
X67603571Y-122216200D02*
X67365476Y-122930485D01*
X67365476Y-122930485D02*
X67984523Y-122930485D01*
D11*
X69794571Y-126071219D02*
X70002905Y-127071219D01*
X70002905Y-127071219D02*
X70461238Y-126071219D01*
X70735048Y-126547409D02*
X71068381Y-126547409D01*
X71145762Y-127071219D02*
X70669571Y-127071219D01*
X70669571Y-127071219D02*
X70794571Y-126071219D01*
X70794571Y-126071219D02*
X71270762Y-126071219D01*
X72050524Y-127071219D02*
X71574333Y-127071219D01*
X71574333Y-127071219D02*
X71699333Y-126071219D01*
D10*
X42822905Y-62811819D02*
X42822905Y-61811819D01*
X42822905Y-61811819D02*
X43061000Y-61811819D01*
X43061000Y-61811819D02*
X43203857Y-61859438D01*
X43203857Y-61859438D02*
X43299095Y-61954676D01*
X43299095Y-61954676D02*
X43346714Y-62049914D01*
X43346714Y-62049914D02*
X43394333Y-62240390D01*
X43394333Y-62240390D02*
X43394333Y-62383247D01*
X43394333Y-62383247D02*
X43346714Y-62573723D01*
X43346714Y-62573723D02*
X43299095Y-62668961D01*
X43299095Y-62668961D02*
X43203857Y-62764200D01*
X43203857Y-62764200D02*
X43061000Y-62811819D01*
X43061000Y-62811819D02*
X42822905Y-62811819D01*
X43727667Y-61811819D02*
X44346714Y-61811819D01*
X44346714Y-61811819D02*
X44013381Y-62192771D01*
X44013381Y-62192771D02*
X44156238Y-62192771D01*
X44156238Y-62192771D02*
X44251476Y-62240390D01*
X44251476Y-62240390D02*
X44299095Y-62288009D01*
X44299095Y-62288009D02*
X44346714Y-62383247D01*
X44346714Y-62383247D02*
X44346714Y-62621342D01*
X44346714Y-62621342D02*
X44299095Y-62716580D01*
X44299095Y-62716580D02*
X44251476Y-62764200D01*
X44251476Y-62764200D02*
X44156238Y-62811819D01*
X44156238Y-62811819D02*
X43870524Y-62811819D01*
X43870524Y-62811819D02*
X43775286Y-62764200D01*
X43775286Y-62764200D02*
X43727667Y-62716580D01*
D11*
X37774762Y-66571600D02*
X37911666Y-66619219D01*
X37911666Y-66619219D02*
X38149762Y-66619219D01*
X38149762Y-66619219D02*
X38250952Y-66571600D01*
X38250952Y-66571600D02*
X38304524Y-66523980D01*
X38304524Y-66523980D02*
X38364047Y-66428742D01*
X38364047Y-66428742D02*
X38375952Y-66333504D01*
X38375952Y-66333504D02*
X38340238Y-66238266D01*
X38340238Y-66238266D02*
X38298571Y-66190647D01*
X38298571Y-66190647D02*
X38209286Y-66143028D01*
X38209286Y-66143028D02*
X38024762Y-66095409D01*
X38024762Y-66095409D02*
X37935476Y-66047790D01*
X37935476Y-66047790D02*
X37893809Y-66000171D01*
X37893809Y-66000171D02*
X37858095Y-65904933D01*
X37858095Y-65904933D02*
X37870000Y-65809695D01*
X37870000Y-65809695D02*
X37929524Y-65714457D01*
X37929524Y-65714457D02*
X37983095Y-65666838D01*
X37983095Y-65666838D02*
X38084286Y-65619219D01*
X38084286Y-65619219D02*
X38322381Y-65619219D01*
X38322381Y-65619219D02*
X38459286Y-65666838D01*
X38750952Y-65619219D02*
X39322381Y-65619219D01*
X38911667Y-66619219D02*
X39036667Y-65619219D01*
X39929524Y-66095409D02*
X40066429Y-66143028D01*
X40066429Y-66143028D02*
X40108095Y-66190647D01*
X40108095Y-66190647D02*
X40143810Y-66285885D01*
X40143810Y-66285885D02*
X40125952Y-66428742D01*
X40125952Y-66428742D02*
X40066429Y-66523980D01*
X40066429Y-66523980D02*
X40012857Y-66571600D01*
X40012857Y-66571600D02*
X39911667Y-66619219D01*
X39911667Y-66619219D02*
X39530714Y-66619219D01*
X39530714Y-66619219D02*
X39655714Y-65619219D01*
X39655714Y-65619219D02*
X39989048Y-65619219D01*
X39989048Y-65619219D02*
X40078333Y-65666838D01*
X40078333Y-65666838D02*
X40120000Y-65714457D01*
X40120000Y-65714457D02*
X40155714Y-65809695D01*
X40155714Y-65809695D02*
X40143810Y-65904933D01*
X40143810Y-65904933D02*
X40084286Y-66000171D01*
X40084286Y-66000171D02*
X40030714Y-66047790D01*
X40030714Y-66047790D02*
X39929524Y-66095409D01*
X39929524Y-66095409D02*
X39596191Y-66095409D01*
X40780714Y-66143028D02*
X40721191Y-66619219D01*
X40512857Y-65619219D02*
X40780714Y-66143028D01*
X40780714Y-66143028D02*
X41179524Y-65619219D01*
D10*
X30384761Y-102409557D02*
X30289523Y-102361938D01*
X30289523Y-102361938D02*
X30194285Y-102266700D01*
X30194285Y-102266700D02*
X30051428Y-102123842D01*
X30051428Y-102123842D02*
X29956190Y-102076223D01*
X29956190Y-102076223D02*
X29860952Y-102076223D01*
X29908571Y-102314319D02*
X29813333Y-102266700D01*
X29813333Y-102266700D02*
X29718095Y-102171461D01*
X29718095Y-102171461D02*
X29670476Y-101980985D01*
X29670476Y-101980985D02*
X29670476Y-101647652D01*
X29670476Y-101647652D02*
X29718095Y-101457176D01*
X29718095Y-101457176D02*
X29813333Y-101361938D01*
X29813333Y-101361938D02*
X29908571Y-101314319D01*
X29908571Y-101314319D02*
X30099047Y-101314319D01*
X30099047Y-101314319D02*
X30194285Y-101361938D01*
X30194285Y-101361938D02*
X30289523Y-101457176D01*
X30289523Y-101457176D02*
X30337142Y-101647652D01*
X30337142Y-101647652D02*
X30337142Y-101980985D01*
X30337142Y-101980985D02*
X30289523Y-102171461D01*
X30289523Y-102171461D02*
X30194285Y-102266700D01*
X30194285Y-102266700D02*
X30099047Y-102314319D01*
X30099047Y-102314319D02*
X29908571Y-102314319D01*
X31194285Y-101314319D02*
X31003809Y-101314319D01*
X31003809Y-101314319D02*
X30908571Y-101361938D01*
X30908571Y-101361938D02*
X30860952Y-101409557D01*
X30860952Y-101409557D02*
X30765714Y-101552414D01*
X30765714Y-101552414D02*
X30718095Y-101742890D01*
X30718095Y-101742890D02*
X30718095Y-102123842D01*
X30718095Y-102123842D02*
X30765714Y-102219080D01*
X30765714Y-102219080D02*
X30813333Y-102266700D01*
X30813333Y-102266700D02*
X30908571Y-102314319D01*
X30908571Y-102314319D02*
X31099047Y-102314319D01*
X31099047Y-102314319D02*
X31194285Y-102266700D01*
X31194285Y-102266700D02*
X31241904Y-102219080D01*
X31241904Y-102219080D02*
X31289523Y-102123842D01*
X31289523Y-102123842D02*
X31289523Y-101885747D01*
X31289523Y-101885747D02*
X31241904Y-101790509D01*
X31241904Y-101790509D02*
X31194285Y-101742890D01*
X31194285Y-101742890D02*
X31099047Y-101695271D01*
X31099047Y-101695271D02*
X30908571Y-101695271D01*
X30908571Y-101695271D02*
X30813333Y-101742890D01*
X30813333Y-101742890D02*
X30765714Y-101790509D01*
X30765714Y-101790509D02*
X30718095Y-101885747D01*
D12*
X28920000Y-74549000D02*
X28920000Y-76349000D01*
X28920000Y-74549000D02*
X28920000Y-73749000D01*
X32040000Y-74549000D02*
X32040000Y-75349000D01*
X32040000Y-74549000D02*
X32040000Y-73749000D01*
X73326000Y-78605000D02*
X73326000Y-76335000D01*
X73326000Y-76335000D02*
X69266000Y-76335000D01*
X69266000Y-78605000D02*
X73326000Y-78605000D01*
X28920000Y-29210000D02*
X28920000Y-31010000D01*
X28920000Y-29210000D02*
X28920000Y-28410000D01*
X32040000Y-29210000D02*
X32040000Y-30010000D01*
X32040000Y-29210000D02*
X32040000Y-28410000D01*
X78196000Y-89662000D02*
X78196000Y-91462000D01*
X78196000Y-89662000D02*
X78196000Y-88862000D01*
X81316000Y-89662000D02*
X81316000Y-90462000D01*
X81316000Y-89662000D02*
X81316000Y-88862000D01*
X78196000Y-104775000D02*
X78196000Y-106575000D01*
X78196000Y-104775000D02*
X78196000Y-103975000D01*
X81316000Y-104775000D02*
X81316000Y-105575000D01*
X81316000Y-104775000D02*
X81316000Y-103975000D01*
X40097064Y-74570000D02*
X38642936Y-74570000D01*
X40097064Y-72750000D02*
X38642936Y-72750000D01*
X78196000Y-44323000D02*
X78196000Y-46123000D01*
X78196000Y-44323000D02*
X78196000Y-43523000D01*
X81316000Y-44323000D02*
X81316000Y-45123000D01*
X81316000Y-44323000D02*
X81316000Y-43523000D01*
X73326000Y-93718000D02*
X73326000Y-91448000D01*
X73326000Y-91448000D02*
X69266000Y-91448000D01*
X69266000Y-93718000D02*
X73326000Y-93718000D01*
X70138936Y-87863000D02*
X71593064Y-87863000D01*
X70138936Y-89683000D02*
X71593064Y-89683000D01*
X36910000Y-121674000D02*
X36910000Y-123944000D01*
X36910000Y-123944000D02*
X40970000Y-123944000D01*
X40970000Y-121674000D02*
X36910000Y-121674000D01*
X36910000Y-46109000D02*
X36910000Y-48379000D01*
X36910000Y-48379000D02*
X40970000Y-48379000D01*
X40970000Y-46109000D02*
X36910000Y-46109000D01*
X36910000Y-30996000D02*
X36910000Y-33266000D01*
X36910000Y-33266000D02*
X40970000Y-33266000D01*
X40970000Y-30996000D02*
X36910000Y-30996000D01*
X73326000Y-33266000D02*
X73326000Y-30996000D01*
X73326000Y-30996000D02*
X69266000Y-30996000D01*
X69266000Y-33266000D02*
X73326000Y-33266000D01*
X70138936Y-27411000D02*
X71593064Y-27411000D01*
X70138936Y-29231000D02*
X71593064Y-29231000D01*
X40097064Y-59457000D02*
X38642936Y-59457000D01*
X40097064Y-57637000D02*
X38642936Y-57637000D01*
X70138936Y-102976000D02*
X71593064Y-102976000D01*
X70138936Y-104796000D02*
X71593064Y-104796000D01*
X28920000Y-44323000D02*
X28920000Y-46123000D01*
X28920000Y-44323000D02*
X28920000Y-43523000D01*
X32040000Y-44323000D02*
X32040000Y-45123000D01*
X32040000Y-44323000D02*
X32040000Y-43523000D01*
X73326000Y-108831000D02*
X73326000Y-106561000D01*
X73326000Y-106561000D02*
X69266000Y-106561000D01*
X69266000Y-108831000D02*
X73326000Y-108831000D01*
X28920000Y-119888000D02*
X28920000Y-121688000D01*
X28920000Y-119888000D02*
X28920000Y-119088000D01*
X32040000Y-119888000D02*
X32040000Y-120688000D01*
X32040000Y-119888000D02*
X32040000Y-119088000D01*
X70138936Y-57637000D02*
X71593064Y-57637000D01*
X70138936Y-59457000D02*
X71593064Y-59457000D01*
X36910000Y-106561000D02*
X36910000Y-108831000D01*
X36910000Y-108831000D02*
X40970000Y-108831000D01*
X40970000Y-106561000D02*
X36910000Y-106561000D01*
X78196000Y-29210000D02*
X78196000Y-31010000D01*
X78196000Y-29210000D02*
X78196000Y-28410000D01*
X81316000Y-29210000D02*
X81316000Y-30010000D01*
X81316000Y-29210000D02*
X81316000Y-28410000D01*
X70138936Y-72750000D02*
X71593064Y-72750000D01*
X70138936Y-74570000D02*
X71593064Y-74570000D01*
X40097064Y-44344000D02*
X38642936Y-44344000D01*
X40097064Y-42524000D02*
X38642936Y-42524000D01*
X78196000Y-59436000D02*
X78196000Y-61236000D01*
X78196000Y-59436000D02*
X78196000Y-58636000D01*
X81316000Y-59436000D02*
X81316000Y-60236000D01*
X81316000Y-59436000D02*
X81316000Y-58636000D01*
X28920000Y-89662000D02*
X28920000Y-91462000D01*
X28920000Y-89662000D02*
X28920000Y-88862000D01*
X32040000Y-89662000D02*
X32040000Y-90462000D01*
X32040000Y-89662000D02*
X32040000Y-88862000D01*
X70138936Y-118089000D02*
X71593064Y-118089000D01*
X70138936Y-119909000D02*
X71593064Y-119909000D01*
X73326000Y-48379000D02*
X73326000Y-46109000D01*
X73326000Y-46109000D02*
X69266000Y-46109000D01*
X69266000Y-48379000D02*
X73326000Y-48379000D01*
X40097064Y-29231000D02*
X38642936Y-29231000D01*
X40097064Y-27411000D02*
X38642936Y-27411000D01*
X36910000Y-91448000D02*
X36910000Y-93718000D01*
X36910000Y-93718000D02*
X40970000Y-93718000D01*
X40970000Y-91448000D02*
X36910000Y-91448000D01*
X78196000Y-119888000D02*
X78196000Y-121688000D01*
X78196000Y-119888000D02*
X78196000Y-119088000D01*
X81316000Y-119888000D02*
X81316000Y-120688000D01*
X81316000Y-119888000D02*
X81316000Y-119088000D01*
X40097064Y-89683000D02*
X38642936Y-89683000D01*
X40097064Y-87863000D02*
X38642936Y-87863000D01*
X70138936Y-42524000D02*
X71593064Y-42524000D01*
X70138936Y-44344000D02*
X71593064Y-44344000D01*
X36910000Y-76335000D02*
X36910000Y-78605000D01*
X36910000Y-78605000D02*
X40970000Y-78605000D01*
X40970000Y-76335000D02*
X36910000Y-76335000D01*
X78196000Y-74549000D02*
X78196000Y-76349000D01*
X78196000Y-74549000D02*
X78196000Y-73749000D01*
X81316000Y-74549000D02*
X81316000Y-75349000D01*
X81316000Y-74549000D02*
X81316000Y-73749000D01*
X40097064Y-119909000D02*
X38642936Y-119909000D01*
X40097064Y-118089000D02*
X38642936Y-118089000D01*
X73326000Y-63492000D02*
X73326000Y-61222000D01*
X73326000Y-61222000D02*
X69266000Y-61222000D01*
X69266000Y-63492000D02*
X73326000Y-63492000D01*
X40097064Y-104796000D02*
X38642936Y-104796000D01*
X40097064Y-102976000D02*
X38642936Y-102976000D01*
X28920000Y-59436000D02*
X28920000Y-61236000D01*
X28920000Y-59436000D02*
X28920000Y-58636000D01*
X32040000Y-59436000D02*
X32040000Y-60236000D01*
X32040000Y-59436000D02*
X32040000Y-58636000D01*
X73326000Y-123944000D02*
X73326000Y-121674000D01*
X73326000Y-121674000D02*
X69266000Y-121674000D01*
X69266000Y-123944000D02*
X73326000Y-123944000D01*
X36910000Y-61222000D02*
X36910000Y-63492000D01*
X36910000Y-63492000D02*
X40970000Y-63492000D01*
X40970000Y-61222000D02*
X36910000Y-61222000D01*
X28920000Y-104775000D02*
X28920000Y-106575000D01*
X28920000Y-104775000D02*
X28920000Y-103975000D01*
X32040000Y-104775000D02*
X32040000Y-105575000D01*
X32040000Y-104775000D02*
X32040000Y-103975000D01*
%LPC*%
D13*
X29530000Y-75686500D03*
X31430000Y-75686500D03*
X30480000Y-73411500D03*
D14*
X72353500Y-77470000D03*
X69378500Y-77470000D03*
D13*
X29530000Y-30347500D03*
X31430000Y-30347500D03*
X30480000Y-28072500D03*
X78806000Y-90799500D03*
X80706000Y-90799500D03*
X79756000Y-88524500D03*
X78806000Y-105912500D03*
X80706000Y-105912500D03*
X79756000Y-103637500D03*
D15*
X40920000Y-73660000D03*
X37820000Y-73660000D03*
D13*
X78806000Y-45460500D03*
X80706000Y-45460500D03*
X79756000Y-43185500D03*
D14*
X72353500Y-92583000D03*
X69378500Y-92583000D03*
D16*
X69316000Y-88773000D03*
X72416000Y-88773000D03*
D17*
X37882500Y-122809000D03*
X40857500Y-122809000D03*
X37882500Y-47244000D03*
X40857500Y-47244000D03*
X37882500Y-32131000D03*
X40857500Y-32131000D03*
D14*
X72353500Y-32131000D03*
X69378500Y-32131000D03*
D16*
X69316000Y-28321000D03*
X72416000Y-28321000D03*
D15*
X40920000Y-58547000D03*
X37820000Y-58547000D03*
D16*
X69316000Y-103886000D03*
X72416000Y-103886000D03*
D13*
X29530000Y-45460500D03*
X31430000Y-45460500D03*
X30480000Y-43185500D03*
D14*
X72353500Y-107696000D03*
X69378500Y-107696000D03*
D13*
X29530000Y-121025500D03*
X31430000Y-121025500D03*
X30480000Y-118750500D03*
D16*
X69316000Y-58547000D03*
X72416000Y-58547000D03*
D17*
X37882500Y-107696000D03*
X40857500Y-107696000D03*
D13*
X78806000Y-30347500D03*
X80706000Y-30347500D03*
X79756000Y-28072500D03*
D16*
X69316000Y-73660000D03*
X72416000Y-73660000D03*
D15*
X40920000Y-43434000D03*
X37820000Y-43434000D03*
D13*
X78806000Y-60573500D03*
X80706000Y-60573500D03*
X79756000Y-58298500D03*
X29530000Y-90799500D03*
X31430000Y-90799500D03*
X30480000Y-88524500D03*
D16*
X69316000Y-118999000D03*
X72416000Y-118999000D03*
D14*
X72353500Y-47244000D03*
X69378500Y-47244000D03*
D15*
X40920000Y-28321000D03*
X37820000Y-28321000D03*
D17*
X37882500Y-92583000D03*
X40857500Y-92583000D03*
D13*
X78806000Y-121025500D03*
X80706000Y-121025500D03*
X79756000Y-118750500D03*
D15*
X40920000Y-88773000D03*
X37820000Y-88773000D03*
D16*
X69316000Y-43434000D03*
X72416000Y-43434000D03*
D17*
X37882500Y-77470000D03*
X40857500Y-77470000D03*
D13*
X78806000Y-75686500D03*
X80706000Y-75686500D03*
X79756000Y-73411500D03*
D15*
X40920000Y-118999000D03*
X37820000Y-118999000D03*
D14*
X72353500Y-62357000D03*
X69378500Y-62357000D03*
D15*
X40920000Y-103886000D03*
X37820000Y-103886000D03*
D13*
X29530000Y-60573500D03*
X31430000Y-60573500D03*
X30480000Y-58298500D03*
D14*
X72353500Y-122809000D03*
X69378500Y-122809000D03*
D17*
X37882500Y-62357000D03*
X40857500Y-62357000D03*
D13*
X29530000Y-105912500D03*
X31430000Y-105912500D03*
X30480000Y-103637500D03*
D18*
X60198000Y-79502000D03*
D19*
X57658000Y-79502000D03*
X55118000Y-79502000D03*
X52578000Y-79502000D03*
X50038000Y-79502000D03*
D18*
X46238000Y-73177000D03*
D19*
X46238000Y-70637000D03*
X46238000Y-68097000D03*
X46238000Y-65557000D03*
X46238000Y-63017000D03*
X46238000Y-60477000D03*
X46238000Y-57937000D03*
X46238000Y-55397000D03*
X46238000Y-52857000D03*
X46238000Y-50317000D03*
D20*
X60118000Y-90043000D03*
D21*
X57618000Y-90043000D03*
X55118000Y-90043000D03*
X52618000Y-90043000D03*
X50118000Y-90043000D03*
D18*
X64218000Y-73157000D03*
D19*
X64218000Y-70617000D03*
X64218000Y-68077000D03*
X64218000Y-65537000D03*
X64218000Y-62997000D03*
X64218000Y-60457000D03*
X64218000Y-57917000D03*
X64218000Y-55377000D03*
X64218000Y-52837000D03*
X64218000Y-50297000D03*
%LPD*%
M02*
