M48
; DRILL file {KiCad 7.0.10} date Thu Mar  7 18:12:58 2024
; FORMAT={-:-/ absolute / metric / decimal}
; #@! TF.CreationDate,2024-03-07T18:12:58-05:00
; #@! TF.GenerationSoftware,Kicad,Pcbnew,7.0.10
; #@! TF.FileFunction,Plated,1,2,PTH
FMAT,2
METRIC
; #@! TA.AperFunction,Plated,PTH,ViaDrill
T1C0.400
; #@! TA.AperFunction,Plated,PTH,ComponentDrill
T2C0.950
; #@! TA.AperFunction,Plated,PTH,ComponentDrill
T3C1.000
%
G90
G05
T1
X26.924Y-37.338
X26.924Y-52.451
X26.924Y-67.564
X30.48Y-32.893
X30.48Y-48.006
X30.48Y-63.119
X30.48Y-78.232
X30.48Y-93.345
X30.48Y-108.458
X30.48Y-123.571
X36.957Y-82.677
X36.957Y-97.79
X36.957Y-112.903
X36.957Y-128.016
X73.279Y-82.677
X73.279Y-97.79
X73.279Y-112.903
X73.279Y-128.016
X79.756Y-32.893
X79.756Y-48.006
X79.756Y-63.119
X79.756Y-78.232
X79.756Y-93.345
X79.756Y-108.458
X79.756Y-123.571
X83.312Y-37.338
X83.312Y-52.451
X83.312Y-67.564
T2
X50.118Y-90.043
X52.618Y-90.043
X55.118Y-90.043
X57.618Y-90.043
X60.118Y-90.043
T3
X46.238Y-50.317
X46.238Y-52.857
X46.238Y-55.397
X46.238Y-57.937
X46.238Y-60.477
X46.238Y-63.017
X46.238Y-65.557
X46.238Y-68.097
X46.238Y-70.637
X46.238Y-73.177
X50.038Y-79.502
X52.578Y-79.502
X55.118Y-79.502
X57.658Y-79.502
X60.198Y-79.502
X64.218Y-50.297
X64.218Y-52.837
X64.218Y-55.377
X64.218Y-57.917
X64.218Y-60.457
X64.218Y-62.997
X64.218Y-65.537
X64.218Y-68.077
X64.218Y-70.617
X64.218Y-73.157
M30
