<?xml version="1.0" encoding="UTF-8" standalone="no"?>
<!-- Created with Inkscape (http://www.inkscape.org/) -->

<svg
   version="1.1"
   id="svg1"
   width="1902.1664"
   height="3206.3594"
   viewBox="0 0 1902.1664 3206.3594"
   sodipodi:docname="alarms_mask.svg"
   inkscape:version="1.3.2 (091e20e, 2023-11-25, custom)"
   xmlns:inkscape="http://www.inkscape.org/namespaces/inkscape"
   xmlns:sodipodi="http://sodipodi.sourceforge.net/DTD/sodipodi-0.dtd"
   xmlns="http://www.w3.org/2000/svg"
   xmlns:svg="http://www.w3.org/2000/svg">
  <defs
     id="defs1" />
  <sodipodi:namedview
     id="namedview1"
     pagecolor="#505050"
     bordercolor="#eeeeee"
     borderopacity="1"
     inkscape:showpageshadow="0"
     inkscape:pageopacity="0"
     inkscape:pagecheckerboard="0"
     inkscape:deskcolor="#505050"
     inkscape:zoom="0.22045898"
     inkscape:cx="-827.8184"
     inkscape:cy="1993.5681"
     inkscape:window-width="3200"
     inkscape:window-height="1261"
     inkscape:window-x="2391"
     inkscape:window-y="-9"
     inkscape:window-maximized="1"
     inkscape:current-layer="g1" />
  <g
     inkscape:groupmode="layer"
     inkscape:label="Image"
     id="g1"
     transform="translate(-403.09451,-295.12874)">
    <path
       style="fill:#747474;fill-opacity:1"
       d="m 2303.7244,3445.3085 c -4.2593,28.1236 -25.5828,49.8738 -53.4936,54.564 -12.8197,2.1543 -1779.18027,2.1543 -1791.99997,0 -28.4407,-4.7793 -49.3193,-26.4336 -53.5737,-55.564 -2.0835,-14.2665 -2.0835,-3077.73363 0,-3092.00003 4.2465,-29.0769 25.1853,-50.7936 53.5737,-55.564 12.8197,-2.1543 1779.18027,-2.1543 1791.99997,0 28.4407,4.7792 49.3193,26.4335 53.5737,55.564 1.9941,13.6539 1.9146,3079.82853 -0.08,3093.00003 z m -102.1001,-436.5831 c -0.8835,-1.862 -3.246,-4.405 -5.25,-5.6512 l -3.6435,-2.2657 h -388.5 c -386.7044,0 -388.5157,0.01 -391.8869,2 -1.8628,1.1 -4.2253,3.5679 -5.25,5.4844 -1.7978,3.3623 -1.8631,9.8464 -1.8631,185.1021 v 181.6177 l 2.2699,3.3979 c 1.2485,1.8688 3.836,4.1856 5.75,5.1484 3.2995,1.6597 23.6468,1.7376 392.1568,1.5 l 388.6767,-0.2505 2.8233,-2.0711 c 1.5528,-1.1391 3.6101,-3.6141 4.5717,-5.5 1.6455,-3.227 1.7486,-14.0779 1.75,-184.2778 0,-164.0117 -0.148,-181.1641 -1.6049,-184.2342 z m 0.1424,-431.3475 c -0.8052,-1.5572 -2.8648,-4.0099 -4.5767,-5.4504 l -3.1127,-2.6191 h -389.5552 c -388.8253,0 -389.5613,0 -392.8168,2.0158 -6.9934,4.3221 -6.4749,-10.9141 -6.4708,190.1353 0,179.1938 0.027,181.3877 1.9909,184.6081 1.0929,1.7925 3.4537,4.1533 5.2463,5.2463 3.2373,1.9738 5.8584,1.9871 391.7591,1.9871 385.9007,0 388.5218,-0.013 391.7591,-1.9871 1.7926,-1.093 4.1534,-3.4538 5.2463,-5.2463 1.9635,-3.2204 1.9872,-5.4142 1.9909,-184.5589 0,-157.2277 -0.1907,-181.6755 -1.4604,-184.1308 z m -0.5305,-432.8286 c -1.0929,-1.7926 -3.4537,-4.1534 -5.2463,-5.2463 -3.2373,-1.9738 -5.8584,-1.9871 -391.7591,-1.9871 -385.9007,0 -388.5218,0.013 -391.7591,1.9871 -1.7926,1.0929 -4.1554,3.4537 -5.2509,5.2463 -1.9722,3.2272 -1.9892,5.0453 -1.7408,185.7591 0.2484,180.7272 0.2702,182.5264 2.2508,185.2169 1.1,1.4943 3.4216,3.4085 5.1591,4.2538 2.8281,1.3758 43.9802,1.5103 392.6451,1.2831 387.8889,-0.2528 389.4951,-0.262 391.734,-2.2538 1.2365,-1.1 3.082,-3.35 4.1012,-5 1.7863,-2.8919 1.8531,-9.5425 1.8531,-184.5 0,-179.3478 -0.023,-181.5386 -1.9871,-184.7591 z m -0.2753,-432.343 c -1.2485,-1.8689 -3.836,-4.1847 -5.75,-5.1463 -3.2953,-1.6557 -24.0787,-1.7484 -391.4801,-1.7463 -385.3998,0 -388.0218,0.015 -391.2591,1.9893 -1.7926,1.0929 -4.1534,3.4537 -5.2463,5.2463 -1.9635,3.2204 -1.9872,5.4143 -1.9909,184.608 0,201.958 -0.5872,185.7587 6.8528,190.3853 l 3.6435,2.2658 h 387.5 c 213.125,0 388.667,-0.3284 390.0934,-0.7297 2.9279,-0.8239 7.7357,-5.2596 8.9639,-8.2703 0.4488,-1.1 0.8445,-83.721 0.8793,-183.6021 l 0.063,-181.6021 z m 0.4459,-430.9134 c -1.1347,-2.1676 -3.4861,-4.3366 -6.2221,-5.7395 l -4.3982,-2.255 -388.0279,0.255 -388.0278,0.2551 -3.2651,2.3288 c -6.7364,4.8048 -6.2353,-10.4645 -6.2312,189.8715 0,180.5447 0.018,181.8225 2.0207,185.1078 1.1645,1.91 3.8043,4.1195 6.2463,5.228 4.1468,1.8824 11.7651,1.9203 390.7674,1.9418 l 386.5381,0.022 4.3879,-2.25 c 2.7262,-1.3979 5.0787,-3.5695 6.2119,-5.7343 1.7458,-3.335 1.824,-11.2475 1.824,-184.5156 0,-173.2681 -0.078,-181.1806 -1.824,-184.5156 z m 0.2175,-431.56753 c -0.8835,-1.862 -3.246,-4.405 -5.25,-5.6511 l -3.6435,-2.2658 h -388.5 c -386.7044,0 -388.5157,0.01 -391.8869,2 -1.8628,1.1 -4.2253,3.568 -5.25,5.4844 -1.7978,3.3623 -1.8631,9.8464 -1.8631,185.10213 v 181.6177 l 2.2699,3.3979 c 1.2485,1.8689 3.836,4.1847 5.75,5.1463 3.2953,1.6556 24.0573,1.7485 390.9801,1.7485 366.9228,0 387.6848,-0.093 390.9801,-1.7485 1.914,-0.9616 4.5015,-3.2774 5.75,-5.1463 l 2.2699,-3.3979 v -181.451 c 0,-164.56263 -0.1495,-181.76603 -1.6065,-184.83633 z m 0.2015,-431.2166 c -0.7727,-1.4851 -2.609,-3.8253 -4.0805,-5.2003 l -2.6756,-2.5 -389.6694,-0.2927 c -355.2088,-0.2667 -389.9348,-0.1515 -392.6695,1.3032 -1.65,0.8778 -3.9,2.8094 -5,4.2927 -1.9807,2.6707 -2.0024,4.462 -2.2508,185.1968 -0.2484,180.7138 -0.2314,182.5319 1.7408,185.7591 1.0955,1.7926 3.4583,4.1534 5.2509,5.2463 3.2373,1.9738 5.8584,1.9871 391.7591,1.9871 385.9007,0 388.5218,-0.013 391.7591,-1.9871 1.7926,-1.0929 4.1534,-3.4537 5.2463,-5.2463 1.9635,-3.2204 1.9872,-5.4142 1.9909,-184.5588 0,-153.7633 -0.2097,-181.7098 -1.4013,-184 z M 1301.3677,3008.2929 c -1.0247,-1.9165 -3.3872,-4.3844 -5.25,-5.4844 -3.3712,-1.9908 -5.1825,-2 -391.88687,-2 h -388.5 l -3.6435,2.2657 c -7.4698,4.6452 -6.902,-11.7562 -6.6145,191.079 l 0.258,182.0088 2.0711,2.8232 c 1.1391,1.5528 3.6141,3.6101 5.5,4.5717 3.247,1.6557 23.9866,1.7485 390.9289,1.7485 366.92277,0 387.68477,-0.093 390.98007,-1.7485 1.914,-0.9616 4.5015,-3.2775 5.75,-5.1463 l 2.2699,-3.3979 V 3193.395 c 0,-175.2557 -0.065,-181.7398 -1.8631,-185.1021 z m -0.6369,-433.1813 c -1.1,-1.4833 -3.35,-3.4149 -5,-4.2927 -2.7347,-1.4547 -37.4607,-1.5699 -392.66937,-1.3032 l -389.6695,0.2927 -2.6756,2.5 c -5.8715,5.4863 -5.4858,-7.8263 -5.4817,189.2003 0,179.1447 0.027,181.3385 1.9908,184.5589 1.0929,1.7925 3.4537,4.1533 5.2463,5.2463 3.2373,1.9738 5.8585,1.9871 391.7591,1.9871 385.90067,0 388.52177,-0.013 391.75907,-1.9871 1.7926,-1.093 4.1554,-3.4538 5.2509,-5.2463 1.9722,-3.2272 1.9892,-5.0453 1.7408,-185.7592 -0.2484,-180.7348 -0.2701,-182.5261 -2.2508,-185.1968 z m 1.095,-429.6029 c -0.7727,-1.4851 -2.609,-3.8253 -4.0805,-5.2003 l -2.6756,-2.5 -389.66937,-0.2484 c -387.4339,-0.2471 -389.6882,-0.2371 -392.9286,1.7408 -1.7926,1.0941 -4.1534,3.4559 -5.2463,5.2485 -1.9635,3.2204 -1.9872,5.4142 -1.9908,184.5588 0,197.0266 -0.3898,183.714 5.4817,189.2003 l 2.6756,2.5 388.1695,0.2836 c 213.49307,0.156 389.58147,0.033 391.30727,-0.2743 3.2951,-0.5858 8.0352,-4.6163 9.4194,-8.0093 0.4488,-1.1 0.8445,-83.5848 0.8793,-183.2997 0.054,-153.8472 -0.1493,-181.7085 -1.3416,-184 z m -0.5896,-432.9594 c -1.0929,-1.7926 -3.4537,-4.1534 -5.2463,-5.2463 -3.2373,-1.9738 -5.8593,-1.9871 -391.25907,-1.9893 -367.4014,0 -388.1847,0.091 -391.4801,1.7463 -1.914,0.9616 -4.5015,3.2774 -5.75,5.1463 l -2.2699,3.3979 v 181.451 c 0,202.0706 -0.5834,185.8609 6.8565,190.4874 l 3.6435,2.2658 h 388.5 388.49997 l 3.6281,-2.2562 c 7.4134,-4.6102 6.8242,11.7647 6.8454,-190.2438 0.019,-179.365 0,-181.5383 -1.9681,-184.7591 z m -0.2554,-432.2413 c -1.2375,-1.813 -3.818,-4.1295 -5.7344,-5.1479 -3.374,-1.7929 -15.7452,-1.8516 -390.53807,-1.8516 h -387.0537 l -4.3879,2.25 c -2.7262,1.3979 -5.0786,3.5695 -6.2119,5.7344 -1.7458,3.335 -1.824,11.2475 -1.824,184.5156 0,173.2681 0.078,181.1806 1.824,184.5156 1.1333,2.1648 3.4857,4.3364 6.2119,5.7343 l 4.3879,2.25 386.5381,-0.022 c 379.00227,-0.022 386.62057,-0.059 390.76737,-1.9418 2.442,-1.1085 5.0818,-3.318 6.2463,-5.228 2.003,-3.2853 2.0169,-4.5623 2.0207,-185.4102 v -182.1021 z m 0.3869,-431.01513 c -1.0247,-1.9164 -3.3872,-4.3844 -5.25,-5.4844 -3.3712,-1.9908 -5.1825,-2 -391.88687,-2 h -388.5 l -3.6435,2.2658 c -7.4698,4.6451 -6.902,-11.7563 -6.6145,191.07903 l 0.258,182.0087 2.0711,2.8233 c 1.1391,1.5527 3.6141,3.61 5.5,4.5716 3.247,1.6557 23.9866,1.7485 390.9289,1.7485 366.92277,0 387.68477,-0.093 390.98007,-1.7485 1.914,-0.9616 4.5015,-3.2774 5.75,-5.1463 l 2.2699,-3.3979 V 1034.395 c 0,-175.25573 -0.065,-181.73983 -1.8631,-185.10213 z m -0.6369,-433.1812 c -1.1,-1.4833 -3.35,-3.4149 -5,-4.2927 -2.7347,-1.4547 -37.4607,-1.5699 -392.66937,-1.3032 l -389.6695,0.2927 -2.6756,2.5 c -5.8715,5.4863 -5.4858,-7.8263 -5.4817,189.2003 0,179.1446 0.027,181.3384 1.9908,184.5588 1.0929,1.7926 3.4537,4.1534 5.2463,5.2463 3.2373,1.9738 5.8585,1.9871 391.7591,1.9871 385.90067,0 388.52177,-0.013 391.75907,-1.9871 1.7926,-1.0929 4.1554,-3.4537 5.2509,-5.2463 1.9722,-3.2272 1.9892,-5.0453 1.7408,-185.7591 -0.2484,-180.7348 -0.2701,-182.5261 -2.2508,-185.1968 z"
       id="path1" />
    <g
       id="text5"
       style="font-weight:800;font-stretch:condensed;font-size:122.296px;line-height:164.208px;font-family:Gorton;-inkscape-font-specification:'Gorton Ultra-Bold Condensed';text-align:center;letter-spacing:-14.4824px;text-anchor:middle;fill:#050505;stroke-width:4.82745"
       aria-label="UPLINK&#10;ACTY">
      <path
         style="letter-spacing:0.15094px"
         d="m 697.7992,482.8433 c 0,-4.03577 -3.302,-7.46006 -7.33776,-7.46006 -3.91348,0 -7.33776,3.42429 -7.33776,7.33776 l -0.36689,72.03234 c 0.48918,19.20048 15.40929,33.14222 32.28614,33.14222 16.63226,0 33.01992,-13.45256 32.77533,-33.26451 V 482.721 c 0,-3.91347 -3.30199,-7.33776 -7.33776,-7.33776 -3.91347,0 -7.33776,3.42429 -7.33776,7.33776 v 72.03234 c 0.12229,11.00664 -9.0499,18.4667 -18.09981,18.4667 -8.43842,0 -17.24373,-7.21546 -17.61062,-18.58899 z m 88.08177,45.12722 v -37.91176 h 17.97751 c 9.0499,0 14.55322,6.84858 14.55322,19.56736 0,11.49583 -7.70464,18.3444 -14.55322,18.3444 z m 0,14.67552 h 17.97751 c 16.63226,0 29.22874,-15.04241 29.22874,-33.01992 0,-16.99914 -9.29449,-34.24288 -29.22874,-34.24288 h -25.31527 c -3.1797,0 -7.33776,2.93511 -7.33776,7.33776 v 52.58728 45.24952 c 0,4.03577 3.30199,7.33776 7.33776,7.33776 3.91347,0 7.33776,-3.30199 7.33776,-7.33776 z m 77.93109,-67.2628 c -4.03577,0 -7.33776,3.42429 -7.33776,7.33776 v 97.8368 c 0,4.52495 4.15807,7.33776 7.33776,7.33776 h 50.75284 c 4.03577,0 7.33776,-3.30199 7.33776,-7.33776 0,-3.91347 -3.30199,-7.33776 -7.33776,-7.33776 H 871.14982 V 482.721 c 0,-3.91347 -3.42429,-7.33776 -7.33776,-7.33776 z m 88.8156,0 c -4.03577,0 -7.33776,3.42429 -7.33776,7.33776 v 97.8368 c 0,4.03577 3.30199,7.33776 7.33776,7.33776 3.91347,0 7.33776,-3.30199 7.33776,-7.33776 V 482.721 c 0,-3.91347 -3.42429,-7.33776 -7.33776,-7.33776 z m 38.06262,112.51232 c 3.91347,0 7.33776,-3.30199 7.33776,-7.33776 v -71.42086 l 32.40846,74.35596 c 1.2229,2.81281 4.158,4.40266 6.7263,4.40266 h 1.7121 1.5899 c 4.4026,0 7.3377,-4.15806 7.3377,-7.33776 l -0.1223,-98.08139 c -0.1223,-3.91347 -3.4243,-7.33776 -7.3377,-7.33776 -4.0358,0.1223 -7.4601,3.42429 -7.3378,7.46006 l 0.1223,70.32019 -31.9193,-73.01071 c -0.9783,-2.44592 -3.66884,-4.52495 -6.72624,-4.52495 h -2.07903 -1.71215 c -3.17969,0 -7.33776,2.93511 -7.33776,7.33776 v 97.8368 c 0,4.03577 3.30199,7.33776 7.33776,7.33776 z m 87.83732,-112.51232 c -4.0358,0 -7.3378,3.42429 -7.3378,7.33776 v 62.86014 c 0,0.36689 -0.1223,0.73378 0,1.10067 v 33.87599 c 0,4.03577 3.302,7.33776 7.3378,7.33776 3.9134,0 7.3377,-3.30199 7.3377,-7.33776 v -32.04155 l 9.4168,-12.3519 26.0491,47.94003 c 1.2229,2.44592 3.7911,3.79118 6.4816,3.79118 1.1007,0 2.3237,-0.24459 3.4243,-0.85607 2.446,-1.34526 3.7912,-3.91347 3.7912,-6.48169 0,-1.22296 -0.2446,-2.32362 -0.8561,-3.42429 l -29.1064,-53.68794 27.7612,-36.19962 c 0.9784,-1.34525 1.4675,-2.9351 1.4675,-4.40265 0,-2.20133 -0.9783,-4.40266 -2.8128,-5.87021 -1.3452,-0.97837 -2.9351,-1.46755 -4.5249,-1.46755 -2.2014,0 -4.4027,0.97837 -5.8702,2.81281 l -35.2213,46.10559 V 482.721 c 0,-3.91347 -3.4243,-7.33776 -7.3377,-7.33776 z"
         id="path2" />
      <path
         d="m 761.55621,751.85896 c 0.61148,0.24459 1.22296,0.24459 1.83444,0.24459 3.302,0 6.2371,-2.07903 7.09317,-5.38103 l 7.58235,-28.12807 h 27.27201 l 7.58235,28.12807 c 0.85608,3.302 3.91348,5.38103 7.09317,5.38103 0.61148,0 1.22296,0 1.83444,-0.24459 3.30199,-0.85608 5.50332,-3.79118 5.50332,-7.09317 0,-0.61148 -0.12229,-1.22296 -0.24459,-1.83444 l -26.29364,-97.8368 c -0.73378,-2.69051 -3.66888,-5.50332 -7.09317,-5.50332 h -1.95673 -1.95674 c -2.81281,0 -6.2371,2.07903 -7.09317,5.50332 l -26.29364,97.8368 c -0.24459,0.61148 -0.24459,1.22296 -0.24459,1.83444 0,3.30199 2.07903,6.23709 5.38102,7.09317 z m 39.8685,-47.94003 h -19.44506 l 9.78368,-35.95503 z m 94.60555,-22.01328 c 3.79118,-0.36689 6.60398,-3.54659 6.60398,-7.33776 0,-0.1223 0,-0.36689 0,-0.61148 -1.71214,-18.83359 -13.33026,-34.12059 -30.81859,-34.12059 -26.53823,0 -35.71043,32.65303 -35.71043,56.01157 0,23.60313 9.04991,56.25616 35.71043,56.25616 18.4667,0 29.84023,-16.02078 31.79696,-36.44421 0,-0.24459 0,-0.48918 0,-0.61148 0,-3.79117 -2.81281,-6.97087 -6.60398,-7.33776 -0.24459,0 -0.48919,0 -0.73378,0 -3.66888,0 -6.97087,2.81281 -7.21546,6.60399 -1.58985,16.75455 -9.04991,23.11394 -17.24374,23.11394 -11.25123,0 -21.03491,-17.85522 -21.03491,-41.58064 0,-23.48083 9.90598,-41.33605 21.03491,-41.33605 7.46006,0 14.79782,6.35939 16.26537,20.79032 0.24459,3.79118 3.54658,6.60399 7.21546,6.60399 0.2446,0 0.48919,0 0.73378,0 z m 16.33626,-34.97666 c 0,4.03577 3.30199,7.33776 7.33776,7.33776 h 21.76869 v 90.49904 c 0,4.03577 3.30199,7.33776 7.33776,7.33776 3.91347,0 7.33776,-3.30199 7.33776,-7.33776 v -90.49904 h 21.52409 c 4.03577,0 7.33776,-3.30199 7.33776,-7.33776 0,-3.91347 -3.30199,-7.33776 -7.33776,-7.33776 h -57.9683 c -4.03577,0 -7.33776,3.42429 -7.33776,7.33776 z m 85.06659,-6.35939 c -2.32363,1.34525 -3.66888,3.91347 -3.66888,6.48169 0,1.22296 0.24459,2.44592 0.85607,3.54658 l 25.8045,46.71707 -0.1223,47.45085 c -0.1223,4.03577 3.3019,7.33776 7.3377,7.33776 3.9135,0 7.2155,-3.30199 7.3378,-7.21547 l 0.1223,-47.57314 25.8044,-46.83937 c 0.6115,-1.10066 0.8561,-2.20132 0.8561,-3.42428 0,-2.56822 -1.3453,-5.13644 -3.6689,-6.48169 -1.1006,-0.61148 -2.3236,-0.85607 -3.5466,-0.85607 -2.5682,0 -5.1364,1.34525 -6.4817,3.79117 l -20.3011,36.6888 -20.3011,-36.81109 c -1.3453,-2.32363 -3.9135,-3.66888 -6.4817,-3.66888 -1.22297,0 -2.44593,0.24459 -3.54659,0.85607 z"
         id="path3" />
    </g>
    <g
       id="text5-1"
       style="font-weight:800;font-stretch:condensed;font-size:122.296px;line-height:164.208px;font-family:Gorton;-inkscape-font-specification:'Gorton Ultra-Bold Condensed';text-align:center;letter-spacing:-14.4824px;text-anchor:middle;fill:#050505;stroke-width:4.82745"
       aria-label="GIMBAL&#10;LOCK">
      <path
         style="letter-spacing:2.56598px"
         d="m 1615.2844,944.21684 c 3.7911,-0.24459 6.8485,-3.54659 6.8485,-7.33776 0,-16.50996 -14.4309,-32.04155 -30.6962,-32.04155 -26.5383,0 -34.1206,33.75369 -33.9983,56.37845 -0.1223,23.11395 8.5607,56.13382 35.0989,56.13382 12.7188,0 23.114,-6.3593 28.9842,-21.15716 0.3669,-0.85607 0.6114,-1.95674 0.6114,-2.81281 v -23.97002 c 0,-4.40265 -4.2803,-7.33776 -7.3377,-7.33776 h -19.5674 c -4.0357,0 -7.3377,3.42429 -7.3377,7.33776 0,4.03577 3.302,7.33776 7.3377,7.33776 h 12.2296 v 15.16471 c -4.0357,9.29452 -7.5823,10.76202 -14.9201,10.76202 -10.8843,0 -20.5457,-17.97749 -20.4234,-41.58061 -0.1223,-23.60313 8.9276,-41.58064 19.3228,-41.58064 7.0931,0 15.287,7.82694 16.0207,17.97751 0.2446,3.79117 3.5466,6.72628 7.3378,6.72628 0.1223,0 0.3669,0 0.4892,0 z m 39.9885,-39.37931 c -4.0358,0 -7.3377,3.42428 -7.3377,7.33776 v 97.83681 c 0,4.0358 3.3019,7.3377 7.3377,7.3377 3.9135,0 7.3378,-3.3019 7.3378,-7.3377 v -97.83681 c 0,-3.91348 -3.4243,-7.33776 -7.3378,-7.33776 z m 40.4777,112.51227 c 3.9135,0 7.3377,-3.3019 7.3377,-7.3377 v -57.35684 l 15.0424,55.88924 c 0.8561,3.4243 4.2804,5.3811 7.0932,5.3811 h 2.9351 c 3.1797,0 6.1148,-2.2014 7.0932,-5.3811 l 15.0424,-54.91087 v 56.37847 c 0,4.0358 3.4243,7.3377 7.3378,7.3377 4.0357,0 7.3377,-3.3019 7.3377,-7.3377 v -97.83681 c 0,-3.0574 -2.8128,-7.33776 -7.3377,-7.33776 h -1.8345 -1.5898 c -3.302,0 -6.2371,2.32362 -7.0932,5.50332 l -20.4234,73.74448 -19.812,-73.74448 c -0.7338,-2.69052 -3.6689,-5.50332 -7.0931,-5.50332 h -1.9568 -2.079 c -3.1797,0 -7.3378,2.9351 -7.3378,7.33776 v 97.83681 c 0,4.0358 3.302,7.3377 7.3378,7.3377 z m 109.6973,-67.01816 v -30.81859 h 21.0349 c 6.9708,0 12.1073,5.13643 12.1073,15.1647 0,7.09317 -4.2804,12.59649 -8.8053,14.79782 -1.223,0.61148 -2.446,0.85607 -3.4243,0.85607 z m 38.7678,6.48169 c 5.2587,-5.38103 9.0499,-13.20797 9.0499,-22.13558 0,-15.77618 -10.1506,-29.84022 -26.7828,-29.84022 h -28.3727 c -4.525,0 -7.3378,4.28036 -7.3378,7.33776 v 45.49411 52.3427 c 0,4.5249 4.1581,7.3377 7.3378,7.3377 h 30.9409 c 18.8336,0 26.9051,-17.61058 26.9051,-33.26447 0,-10.88434 -4.2804,-20.91261 -11.7404,-27.272 z m -38.7678,8.19383 h 20.9126 c 0.1223,0.12229 0.1223,0.12229 0.2446,0 0,0 0.1223,0 0.1223,0 7.3377,0 14.5532,7.09317 14.5532,19.07817 0,12.3519 -5.2587,18.58897 -12.2296,18.58897 h -23.6031 z m 81.6914,52.09814 c 0.6115,0.2445 1.223,0.2445 1.8344,0.2445 3.302,0 6.2371,-2.079 7.0932,-5.381 l 7.5824,-28.12806 h 27.272 l 7.5823,28.12806 c 0.8561,3.302 3.9135,5.381 7.0932,5.381 0.6115,0 1.223,0 1.8344,-0.2445 3.302,-0.8561 5.5034,-3.7912 5.5034,-7.0932 0,-0.6115 -0.1223,-1.223 -0.2446,-1.8345 l -26.2937,-97.83675 c -0.7338,-2.69052 -3.6689,-5.50332 -7.0931,-5.50332 h -1.9568 -1.9567 c -2.8128,0 -6.2371,2.07903 -7.0932,5.50332 l -26.2936,97.83675 c -0.2446,0.6115 -0.2446,1.223 -0.2446,1.8345 0,3.302 2.079,6.2371 5.381,7.0932 z m 39.8685,-47.94008 h -19.4451 l 9.7837,-35.95502 z m 59.0666,-64.32769 c -4.0357,0 -7.3377,3.42428 -7.3377,7.33776 v 97.83681 c 0,4.5249 4.158,7.3377 7.3377,7.3377 h 50.7529 c 4.0357,0 7.3377,-3.3019 7.3377,-7.3377 0,-3.9135 -3.302,-7.3378 -7.3377,-7.3378 h -43.4151 v -90.49901 c 0,-3.91348 -3.4243,-7.33776 -7.3378,-7.33776 z"
         id="path4" />
      <path
         style="letter-spacing:-5.96213px"
         d="m 1649.536,1069.0455 c -4.0357,0 -7.3377,3.4243 -7.3377,7.3378 v 97.8368 c 0,4.5249 4.158,7.3377 7.3377,7.3377 h 50.7529 c 4.0357,0 7.3377,-3.302 7.3377,-7.3377 0,-3.9135 -3.302,-7.3378 -7.3377,-7.3378 h -43.4151 v -90.499 c 0,-3.9135 -3.4243,-7.3378 -7.3378,-7.3378 z m 111.0752,-0.1223 c -26.5382,0 -35.7104,32.8976 -35.7104,56.3785 0,23.6031 9.0499,56.2561 35.7104,56.2561 26.5383,0 35.4659,-32.7753 35.4659,-56.2561 0,-23.2363 -8.8054,-56.3785 -35.4659,-56.3785 z m 0,14.6755 c 11.0067,0 20.7903,18.0998 20.7903,41.703 0,23.6031 -9.7836,41.5806 -20.7903,41.5806 -11.2512,0 -21.0349,-17.8552 -21.0349,-41.5806 0,-23.6032 9.906,-41.703 21.0349,-41.703 z m 112.6649,27.7612 c 3.7912,-0.3669 6.604,-3.5466 6.604,-7.3377 0,-0.1223 0,-0.3669 0,-0.6115 -1.7121,-18.8336 -13.3303,-34.1206 -30.8186,-34.1206 -26.5382,0 -35.7104,32.653 -35.7104,56.0116 0,23.6031 9.0499,56.2561 35.7104,56.2561 18.4667,0 29.8402,-16.0207 31.797,-36.4442 0,-0.2446 0,-0.4892 0,-0.6115 0,-3.7911 -2.8128,-6.9708 -6.604,-7.3377 -0.2446,0 -0.4892,0 -0.7338,0 -3.6689,0 -6.9709,2.8128 -7.2154,6.604 -1.5899,16.7545 -9.0499,23.1139 -17.2438,23.1139 -11.2512,0 -21.0349,-17.8552 -21.0349,-41.5806 0,-23.4809 9.906,-41.3361 21.0349,-41.3361 7.4601,0 14.7978,6.3594 16.2654,20.7903 0.2446,3.7912 3.5466,6.604 7.2155,6.604 0.2445,0 0.4891,0 0.7337,0 z m 32.1943,-42.3144 c -4.0357,0 -7.3377,3.4243 -7.3377,7.3378 v 62.8601 c 0,0.3669 -0.1223,0.7338 0,1.1007 v 33.876 c 0,4.0357 3.302,7.3377 7.3377,7.3377 3.9135,0 7.3378,-3.302 7.3378,-7.3377 v -32.0416 l 9.4168,-12.3519 26.049,47.9401 c 1.223,2.4459 3.7912,3.7911 6.4817,3.7911 1.1007,0 2.3236,-0.2446 3.4243,-0.856 2.4459,-1.3453 3.7912,-3.9135 3.7912,-6.4817 0,-1.223 -0.2446,-2.3237 -0.8561,-3.4243 l -29.1064,-53.688 27.7611,-36.1996 c 0.9784,-1.3452 1.4676,-2.9351 1.4676,-4.4026 0,-2.2014 -0.9784,-4.4027 -2.8128,-5.8702 -1.3453,-0.9784 -2.9351,-1.4676 -4.525,-1.4676 -2.2013,0 -4.4026,0.9784 -5.8702,2.8128 l -35.2212,46.1056 v -41.7029 c 0,-3.9135 -3.4243,-7.3378 -7.3378,-7.3378 z"
         id="path5" />
    </g>
    <path
       d="m 1628.6783,562.30604 c 0,4.01814 3.2875,7.30572 7.3057,7.30572 h 21.6736 v 90.10388 c 0,4.01814 3.2876,7.30572 7.3057,7.30572 3.8964,0 7.3058,-3.28758 7.3058,-7.30572 v -90.10388 h 21.4301 c 4.0181,0 7.3057,-3.28758 7.3057,-7.30572 0,-3.89639 -3.2876,-7.30572 -7.3057,-7.30572 h -57.7152 c -4.0182,0 -7.3057,3.40933 -7.3057,7.30572 z m 157.6562,0 c 0,-3.89639 -3.4094,-7.30572 -7.3057,-7.30572 h -47.4872 c -4.5052,0 -7.3057,4.26167 -7.3057,7.30572 v 97.4096 c 0,4.50519 4.1399,7.30572 7.3057,7.30572 h 50.4094 c 3.8964,0 7.3058,-3.28758 7.3058,-7.30572 0,-3.89639 -3.4094,-7.30572 -7.3058,-7.30572 h -43.1037 v -36.5286 h 26.3006 c 4.0181,0 7.3057,-3.28758 7.3057,-7.30572 0,-3.89639 -3.2876,-7.30572 -7.3057,-7.30572 h -26.3006 v -31.65812 h 40.1815 c 3.8963,0 7.3057,-3.28758 7.3057,-7.30572 z m 33.459,104.71532 c 3.8964,0 7.3057,-3.28758 7.3057,-7.30572 v -57.10638 l 14.9767,55.64523 c 0.8524,3.40934 4.2617,5.35753 7.0622,5.35753 h 2.9223 c 3.1658,0 6.0881,-2.19171 7.0622,-5.35753 l 14.9768,-54.67114 v 56.13229 c 0,4.01814 3.4093,7.30572 7.3057,7.30572 4.0181,0 7.3057,-3.28758 7.3057,-7.30572 v -97.4096 c 0,-3.04405 -2.8005,-7.30572 -7.3057,-7.30572 h -1.8265 -1.5829 c -3.2875,0 -6.2098,2.31347 -7.0622,5.47929 l -20.3342,73.42248 -19.7255,-73.42248 c -0.7305,-2.67877 -3.6528,-5.47929 -7.0622,-5.47929 h -1.9481 -2.07 c -3.1658,0 -7.3057,2.92228 -7.3057,7.30572 v 97.4096 c 0,4.01814 3.2876,7.30572 7.3057,7.30572 z m 106.7596,-59.66338 v -37.74622 h 17.8991 c 9.0103,0 14.4896,6.81867 14.4896,19.48192 0,11.44562 -7.671,18.2643 -14.4896,18.2643 z m 0,14.61144 h 17.8991 c 16.5596,0 29.1011,-14.97673 29.1011,-32.87574 0,-16.92492 -9.2539,-34.09336 -29.1011,-34.09336 h -25.2048 c -3.1658,0 -7.3057,2.92228 -7.3057,7.30572 v 52.35766 45.05194 c 0,4.01814 3.2876,7.30572 7.3057,7.30572 3.8964,0 7.3057,-3.28758 7.3057,-7.30572 z"
       id="text7"
       style="font-weight:800;font-stretch:condensed;font-size:121.762px;line-height:163.492px;font-family:Gorton;-inkscape-font-specification:'Gorton Ultra-Bold Condensed';text-align:center;letter-spacing:0.0961265px;text-anchor:middle;fill:#050505;stroke-width:4.80633"
       aria-label="TEMP" />
    <path
       d="m 805.61976,1453.2264 c 3.28757,-0.7306 5.60105,-3.8964 5.60105,-7.1839 0,-0.4871 0,-1.0959 -0.12176,-1.5829 -4.5052,-19.1167 -16.07259,-28.1271 -31.17107,-28.1271 -15.22025,0 -31.17108,11.5674 -31.17108,30.9276 0,20.2125 17.04668,29.4664 31.65812,29.9534 10.83682,0.4871 19.96897,6.4534 19.96897,17.5338 0,12.0544 -9.13215,18.9948 -18.38606,18.9948 -10.71506,0 -17.65549,-2.6787 -20.45602,-20.3342 -0.60881,-3.5311 -3.77462,-6.0881 -7.30572,-6.0881 -0.36528,0 -0.73057,0 -1.09585,0 -3.5311,0.6088 -6.0881,3.7746 -6.0881,7.3057 0,0.3653 0,0.7306 0,1.0959 3.77462,23.7435 18.38606,32.6322 34.94569,32.6322 16.68139,0 32.9975,-13.1503 32.9975,-33.6063 0,-21.4302 -18.62958,-31.5364 -33.9716,-32.0234 -10.228,-0.4871 -17.65549,-5.6011 -17.65549,-15.4638 0,-10.228 8.0363,-16.3161 16.55964,-16.3161 8.40157,0 13.51558,2.3134 16.92491,16.8031 0.73058,3.4094 3.77463,5.6011 7.0622,5.6011 0.60881,0 1.09586,0 1.70467,-0.1218 z m 24.8879,-29.5881 c 0,4.0181 3.28757,7.3057 7.30572,7.3057 h 21.67363 v 90.1039 c 0,4.0181 3.28758,7.3057 7.30572,7.3057 3.89639,0 7.30572,-3.2876 7.30572,-7.3057 v -90.1039 h 21.43012 c 4.01814,0 7.30572,-3.2876 7.30572,-7.3057 0,-3.8964 -3.28758,-7.3058 -7.30572,-7.3058 h -57.71519 c -4.01815,0 -7.30572,3.4094 -7.30572,7.3058 z m 102.45043,37.9897 v -30.684 h 20.94307 c 6.94043,0 12.05444,5.114 12.05444,15.0985 0,7.0622 -4.26167,12.5414 -8.76687,14.7332 -1.21762,0.6088 -2.43524,0.8523 -3.40933,0.8523 z m 38.59856,6.4534 c 5.23576,-5.3575 9.01039,-13.1503 9.01039,-22.0389 0,-15.7073 -10.10625,-29.71 -26.66588,-29.71 h -28.24879 c -4.50519,0 -7.30572,4.2617 -7.30572,7.3058 v 45.2954 52.1142 c 0,4.5051 4.13991,7.3057 7.30572,7.3057 h 30.80579 c 18.75135,0 26.78764,-17.5338 26.78764,-33.1193 0,-10.8368 -4.26167,-20.8213 -11.68915,-27.1529 z m -38.59856,8.158 h 20.82131 c 0.12176,0.1218 0.12176,0.1218 0.24352,0 0,0 0.12176,0 0.12176,0 7.30572,0 14.48968,7.0622 14.48968,18.9949 0,12.298 -5.23577,18.5078 -12.1762,18.5078 h -23.50007 z m 69.45281,-58.9328 c -2.3135,1.3394 -3.65284,3.8964 -3.65284,6.4534 0,1.2176 0.24353,2.4353 0.85234,3.5311 l 25.6918,46.5131 -0.1218,47.2437 c -0.1217,4.0181 3.2876,7.3057 7.3057,7.3057 3.8964,0 7.184,-3.2876 7.3058,-7.184 l 0.1217,-47.3654 25.6918,-46.6349 c 0.6088,-1.0958 0.8523,-2.1917 0.8523,-3.4093 0,-2.557 -1.3393,-5.114 -3.6528,-6.4534 -1.0959,-0.6088 -2.3135,-0.8523 -3.5311,-0.8523 -2.557,0 -5.114,1.3394 -6.4534,3.7746 l -20.2125,36.5286 -20.2125,-36.6503 c -1.3394,-2.3135 -3.8964,-3.6529 -6.4534,-3.6529 -1.2176,0 -2.4352,0.2435 -3.5311,0.8523 z"
       id="text7-8"
       style="font-weight:800;font-stretch:condensed;font-size:121.762px;line-height:163.492px;font-family:Gorton;-inkscape-font-specification:'Gorton Ultra-Bold Condensed';text-align:center;letter-spacing:-7.62246px;text-anchor:middle;fill:#050505;stroke-width:4.80633"
       aria-label="STBY" />
    <path
       d="m 1688.9176,2810.2372 c 0.6088,0.2436 1.2176,0.2436 1.8264,0.2436 3.2876,0 6.2098,-2.07 7.0622,-5.3576 l 7.5492,-28.0052 h 27.1529 l 7.5493,28.0052 c 0.8523,3.2876 3.8964,5.3576 7.0622,5.3576 0.6088,0 1.2176,0 1.8264,-0.2436 3.2876,-0.8523 5.4793,-3.7746 5.4793,-7.0622 0,-0.6088 -0.1218,-1.2176 -0.2435,-1.8264 l -26.1788,-97.4096 c -0.7306,-2.6787 -3.6529,-5.4793 -7.0622,-5.4793 h -1.9482 -1.9482 c -2.8006,0 -6.2099,2.07 -7.0622,5.4793 l -26.1789,97.4096 c -0.2435,0.6088 -0.2435,1.2176 -0.2435,1.8264 0,3.2876 2.07,6.2099 5.3576,7.0622 z m 39.6944,-47.7307 h -19.3602 l 9.741,-35.798 z m 48.6315,-64.0468 c -4.0182,0 -7.3058,3.4094 -7.3058,7.3057 v 97.4096 c 0,4.5052 4.14,7.3058 7.3058,7.3058 h 50.5312 c 4.0181,0 7.3057,-3.2876 7.3057,-7.3058 0,-3.8963 -3.2876,-7.3057 -7.3057,-7.3057 h -43.2255 v -90.1039 c 0,-3.8963 -3.4093,-7.3057 -7.3057,-7.3057 z m 73.3493,7.3057 c 0,4.0182 3.2876,7.3058 7.3057,7.3058 h 21.6736 v 90.1038 c 0,4.0182 3.2876,7.3058 7.3058,7.3058 3.8963,0 7.3057,-3.2876 7.3057,-7.3058 v -90.1038 h 21.4301 c 4.0181,0 7.3057,-3.2876 7.3057,-7.3058 0,-3.8963 -3.2876,-7.3057 -7.3057,-7.3057 h -57.7152 c -4.0181,0 -7.3057,3.4094 -7.3057,7.3057 z"
       id="text7-8-9"
       style="font-weight:800;font-stretch:condensed;font-size:121.762px;line-height:163.492px;font-family:Gorton;-inkscape-font-specification:'Gorton Ultra-Bold Condensed';text-align:center;letter-spacing:-7.62246px;text-anchor:middle;fill:#050505;stroke-width:4.80633"
       aria-label="ALT" />
    <path
       d="m 1694.1373,3128.4218 c -3.1658,0.8523 -5.3575,3.8963 -5.3575,7.1839 0,0.6088 0,1.2176 0.1217,1.7047 l 25.083,97.4096 c 0.8523,3.4093 4.2617,5.4793 7.0622,5.4793 h 2.07 2.0699 c 3.5311,0 6.3316,-2.6788 7.0622,-5.3576 l 26.5441,-97.4096 c 0.2436,-0.6088 0.2436,-1.2176 0.2436,-1.8264 0,-3.1658 -2.07,-6.2098 -5.3576,-7.0622 -0.6088,-0.2435 -1.2176,-0.2435 -1.8264,-0.2435 -3.2876,0 -6.2099,2.0699 -7.0622,5.3575 l -21.5519,78.5365 -20.0907,-78.4147 c -0.8523,-3.2876 -3.8964,-5.4793 -7.184,-5.4793 -0.6088,0 -1.2176,0 -1.8264,0.1218 z m 142.5101,7.0622 c 0,-3.8964 -3.4093,-7.3058 -7.3057,-7.3058 h -47.4872 c -4.5052,0 -7.3057,4.2617 -7.3057,7.3058 v 97.4096 c 0,4.5051 4.1399,7.3057 7.3057,7.3057 h 50.4095 c 3.8964,0 7.3057,-3.2876 7.3057,-7.3057 0,-3.8964 -3.4093,-7.3058 -7.3057,-7.3058 h -43.1038 v -36.5286 h 26.3006 c 4.0182,0 7.3058,-3.2875 7.3058,-7.3057 0,-3.8964 -3.2876,-7.3057 -7.3058,-7.3057 h -26.3006 v -31.6581 h 40.1815 c 3.8964,0 7.3057,-3.2876 7.3057,-7.3057 z m 25.7405,-7.3058 c -4.0182,0 -7.3058,3.4094 -7.3058,7.3058 v 97.4096 c 0,4.5051 4.1399,7.3057 7.3058,7.3057 h 50.5312 c 4.0181,0 7.3057,-3.2876 7.3057,-7.3057 0,-3.8964 -3.2876,-7.3058 -7.3057,-7.3058 h -43.2255 v -90.1038 c 0,-3.8964 -3.4094,-7.3058 -7.3057,-7.3058 z"
       id="text7-8-9-9"
       style="font-weight:800;font-stretch:condensed;font-size:121.762px;line-height:163.492px;font-family:Gorton;-inkscape-font-specification:'Gorton Ultra-Bold Condensed';text-align:center;letter-spacing:-7.62246px;text-anchor:middle;fill:#050505;stroke-width:4.80633"
       aria-label="VEL" />
    <path
       d="m 1656.6794,1467.9624 v -37.7462 h 17.8991 c 9.0104,0 14.4896,6.8187 14.4896,19.4819 0,11.4456 -7.671,18.2643 -14.4896,18.2643 z m 0,14.6114 h 17.8991 c 16.5596,0 29.1011,-14.9767 29.1011,-32.8757 0,-16.9249 -9.2539,-34.0934 -29.1011,-34.0934 h -25.2048 c -3.1658,0 -7.3057,2.9223 -7.3057,7.3058 v 52.3576 45.052 c 0,4.0181 3.2876,7.3057 7.3057,7.3057 3.8964,0 7.3057,-3.2876 7.3057,-7.3057 z m 81.0483,-20.456 v -31.9016 h 22.4042 c 8.0363,0 13.8808,5.601 13.8808,16.0726 0,9.6192 -8.5233,15.829 -13.8808,15.829 z m 0,14.6115 h 19.1166 l 17.0467,46.1478 c 1.0958,2.9223 4.0181,4.7487 6.9404,4.7487 0.8524,0 1.7047,-0.1218 2.4353,-0.3653 2.9222,-1.0959 4.7487,-4.0181 4.7487,-6.9404 0,-0.8524 -0.1218,-1.7047 -0.3653,-2.4353 l -16.1944,-43.8343 c 9.4975,-4.6269 17.1685,-14.7332 17.1685,-27.7617 0,-16.9249 -11.5674,-30.6841 -28.4923,-30.6841 h -29.71 c -3.1658,0 -7.3057,2.9223 -7.3057,7.3058 v 46.5131 50.8965 c 0,4.0181 3.2876,7.3057 7.3057,7.3057 3.8964,0 7.3058,-3.2876 7.3058,-7.3057 z m 105.8878,-61.2463 c -26.4223,0 -35.5545,32.754 -35.5545,56.1323 0,23.5 9.0104,56.0105 35.5545,56.0105 26.4224,0 35.311,-32.6322 35.311,-56.0105 0,-23.1348 -8.7669,-56.1323 -35.311,-56.1323 z m 0,14.6114 c 10.9586,0 20.6996,18.0208 20.6996,41.5209 0,23.5 -9.741,41.399 -20.6996,41.399 -11.2021,0 -20.9431,-17.7772 -20.9431,-41.399 0,-23.5001 9.8628,-41.5209 20.9431,-41.5209 z m 112.3411,24.7177 c 3.7746,-0.2435 6.8187,-3.5311 6.8187,-7.3057 0,-16.4379 -14.3679,-31.9017 -30.5623,-31.9017 -26.4223,0 -33.9716,33.6064 -33.8498,56.1323 -0.1218,23.013 8.5233,55.8888 34.9457,55.8888 12.6632,0 23.013,-6.3316 28.8576,-21.0648 0.3653,-0.8524 0.6088,-1.9482 0.6088,-2.8006 v -23.8653 c 0,-4.3834 -4.2617,-7.3057 -7.3057,-7.3057 h -19.482 c -4.0181,0 -7.3057,3.4093 -7.3057,7.3057 0,4.0181 3.2876,7.3057 7.3057,7.3057 h 12.1762 v 15.0985 c -4.0181,9.2539 -7.5492,10.715 -14.8549,10.715 -10.8368,0 -20.456,-17.899 -20.3343,-41.399 -0.1217,-23.5001 8.8886,-41.3991 19.2384,-41.3991 7.0622,0 15.2203,7.7928 15.9508,17.899 0.2436,3.7746 3.5311,6.6969 7.3058,6.6969 0.1217,0 0.3652,0 0.487,0 z"
       id="text7-8-1"
       style="font-weight:800;font-stretch:condensed;font-size:121.762px;line-height:163.492px;font-family:Gorton;-inkscape-font-specification:'Gorton Ultra-Bold Condensed';text-align:center;letter-spacing:-3.69803px;text-anchor:middle;fill:#050505;stroke-width:4.80633"
       aria-label="PROG" />
    <path
       d="m 1527.9648,1890.4561 v -31.9017 h 22.4042 c 8.0363,0 13.8809,5.6011 13.8809,16.0726 0,9.6192 -8.5234,15.8291 -13.8809,15.8291 z m 0,14.6114 h 19.1166 l 17.0467,46.1478 c 1.0959,2.9223 4.0182,4.7487 6.9405,4.7487 0.8523,0 1.7046,-0.1217 2.4352,-0.3652 2.9223,-1.0959 4.7487,-4.0182 4.7487,-6.9405 0,-0.8523 -0.1218,-1.7046 -0.3653,-2.4352 l -16.1943,-43.8343 c 9.4974,-4.627 17.1684,-14.7332 17.1684,-27.7618 0,-16.9249 -11.5674,-30.684 -28.4923,-30.684 h -29.7099 c -3.1658,0 -7.3057,2.9223 -7.3057,7.3057 v 46.5131 50.8965 c 0,4.0182 3.2875,7.3057 7.3057,7.3057 3.8964,0 7.3057,-3.2875 7.3057,-7.3057 z m 128.8849,-53.8188 c 0,-3.8964 -3.4093,-7.3057 -7.3057,-7.3057 h -47.4872 c -4.5052,0 -7.3057,4.2617 -7.3057,7.3057 v 97.4096 c 0,4.5052 4.1399,7.3057 7.3057,7.3057 h 50.4095 c 3.8963,0 7.3057,-3.2875 7.3057,-7.3057 0,-3.8964 -3.4094,-7.3057 -7.3057,-7.3057 h -43.1038 v -36.5286 h 26.3006 c 4.0181,0 7.3057,-3.2876 7.3057,-7.3057 0,-3.8964 -3.2876,-7.3057 -7.3057,-7.3057 h -26.3006 v -31.6582 h 40.1815 c 3.8964,0 7.3057,-3.2875 7.3057,-7.3057 z m 77.3796,29.5882 c 3.2876,-0.7306 5.601,-3.8964 5.601,-7.184 0,-0.487 0,-1.0958 -0.1217,-1.5829 -4.5052,-19.1166 -16.0726,-28.127 -31.1711,-28.127 -15.2202,0 -31.1711,11.5674 -31.1711,30.9276 0,20.2124 17.0467,29.4664 31.6581,29.9534 10.8369,0.4871 19.969,6.4534 19.969,17.5337 0,12.0545 -9.1321,18.9949 -18.386,18.9949 -10.7151,0 -17.6555,-2.6788 -20.4561,-20.3342 -0.6088,-3.5311 -3.7746,-6.0881 -7.3057,-6.0881 -0.3653,0 -0.7306,0 -1.0958,0 -3.5311,0.6088 -6.0881,3.7746 -6.0881,7.3057 0,0.3653 0,0.7305 0,1.0958 3.7746,23.7436 18.386,32.6322 34.9457,32.6322 16.6813,0 32.9975,-13.1503 32.9975,-33.6063 0,-21.4301 -18.6296,-31.5363 -33.9716,-32.0234 -10.228,-0.487 -17.6555,-5.601 -17.6555,-15.4637 0,-10.2281 8.0363,-16.3162 16.5596,-16.3162 8.4016,0 13.5156,2.3135 16.9249,16.8032 0.7306,3.4093 3.7746,5.6011 7.0622,5.6011 0.6088,0 1.0959,0 1.7047,-0.1218 z m 25.2652,-29.5882 c 0,4.0182 3.2876,7.3057 7.3057,7.3057 h 21.6737 v 90.1039 c 0,4.0182 3.2876,7.3057 7.3057,7.3057 3.8964,0 7.3057,-3.2875 7.3057,-7.3057 v -90.1039 h 21.4301 c 4.0182,0 7.3058,-3.2875 7.3058,-7.3057 0,-3.8964 -3.2876,-7.3057 -7.3058,-7.3057 h -57.7152 c -4.0181,0 -7.3057,3.4093 -7.3057,7.3057 z m 93.5739,104.4718 c 0.6088,0.2435 1.2176,0.2435 1.8264,0.2435 3.2876,0 6.2099,-2.0699 7.0622,-5.3575 l 7.5493,-28.0052 h 27.1529 l 7.5492,28.0052 c 0.8524,3.2876 3.8964,5.3575 7.0622,5.3575 0.6089,0 1.2177,0 1.8265,-0.2435 3.2875,-0.8523 5.4793,-3.7746 5.4793,-7.0622 0,-0.6088 -0.1218,-1.2176 -0.2436,-1.8264 l -26.1788,-97.4096 c -0.7306,-2.6788 -3.6529,-5.4793 -7.0622,-5.4793 h -1.9482 -1.9482 c -2.8005,0 -6.2098,2.07 -7.0622,5.4793 l -26.1788,97.4096 c -0.2435,0.6088 -0.2435,1.2176 -0.2435,1.8264 0,3.2876 2.0699,6.2099 5.3575,7.0622 z m 39.6944,-47.7307 h -19.3601 l 9.7409,-35.798 z m 56.3146,-17.5337 v -31.9017 h 22.4042 c 8.0363,0 13.8809,5.6011 13.8809,16.0726 0,9.6192 -8.5234,15.8291 -13.8809,15.8291 z m 0,14.6114 h 19.1166 l 17.0467,46.1478 c 1.0959,2.9223 4.0181,4.7487 6.9404,4.7487 0.8524,0 1.7047,-0.1217 2.4353,-0.3652 2.9223,-1.0959 4.7487,-4.0182 4.7487,-6.9405 0,-0.8523 -0.1218,-1.7046 -0.3653,-2.4352 l -16.1943,-43.8343 c 9.4974,-4.627 17.1684,-14.7332 17.1684,-27.7618 0,-16.9249 -11.5674,-30.684 -28.4923,-30.684 h -29.7099 c -3.1658,0 -7.3058,2.9223 -7.3058,7.3057 v 46.5131 50.8965 c 0,4.0182 3.2876,7.3057 7.3058,7.3057 3.8963,0 7.3057,-3.2875 7.3057,-7.3057 z m 66.7862,-53.8188 c 0,4.0182 3.2876,7.3057 7.3058,7.3057 h 21.6736 v 90.1039 c 0,4.0182 3.2876,7.3057 7.3057,7.3057 3.8964,0 7.3057,-3.2875 7.3057,-7.3057 v -90.1039 h 21.4302 c 4.0181,0 7.3057,-3.2875 7.3057,-7.3057 0,-3.8964 -3.2876,-7.3057 -7.3057,-7.3057 h -57.7152 c -4.0182,0 -7.3058,3.4093 -7.3058,7.3057 z"
       id="text7-8-1-8"
       style="font-weight:800;font-stretch:condensed;font-size:121.762px;line-height:163.492px;font-family:Gorton;-inkscape-font-specification:'Gorton Ultra-Bold Condensed';text-align:center;letter-spacing:-7.24511px;word-spacing:-6.33946px;text-anchor:middle;fill:#050505;stroke-width:4.80633"
       aria-label="RESTART" />
    <path
       d="m 1505.144,2279.6048 c 0,4.0181 3.2876,7.3057 7.3057,7.3057 h 21.6737 v 90.1039 c 0,4.0182 3.2875,7.3057 7.3057,7.3057 3.8964,0 7.3057,-3.2875 7.3057,-7.3057 v -90.1039 h 21.4301 c 4.0182,0 7.3057,-3.2876 7.3057,-7.3057 0,-3.8964 -3.2875,-7.3057 -7.3057,-7.3057 h -57.7152 c -4.0181,0 -7.3057,3.4093 -7.3057,7.3057 z m 107.5824,39.2074 v -31.9017 h 22.4042 c 8.0363,0 13.8809,5.6011 13.8809,16.0726 0,9.6192 -8.5234,15.8291 -13.8809,15.8291 z m 0,14.6114 h 19.1166 l 17.0467,46.1478 c 1.0959,2.9223 4.0182,4.7487 6.9405,4.7487 0.8523,0 1.7046,-0.1217 2.4352,-0.3653 2.9223,-1.0958 4.7487,-4.0181 4.7487,-6.9404 0,-0.8523 -0.1218,-1.7047 -0.3653,-2.4352 l -16.1943,-43.8344 c 9.4974,-4.6269 17.1684,-14.7332 17.1684,-27.7617 0,-16.9249 -11.5674,-30.684 -28.4923,-30.684 h -29.7099 c -3.1658,0 -7.3057,2.9223 -7.3057,7.3057 v 46.5131 50.8965 c 0,4.0182 3.2875,7.3057 7.3057,7.3057 3.8964,0 7.3057,-3.2875 7.3057,-7.3057 z m 76.8984,50.653 c 0.6088,0.2435 1.2176,0.2435 1.8264,0.2435 3.2876,0 6.2099,-2.0699 7.0622,-5.3575 l 7.5493,-28.0053 h 27.1529 l 7.5492,28.0053 c 0.8524,3.2876 3.8964,5.3575 7.0622,5.3575 0.6088,0 1.2176,0 1.8265,-0.2435 3.2875,-0.8523 5.4792,-3.7746 5.4792,-7.0622 0,-0.6088 -0.1217,-1.2176 -0.2435,-1.8264 l -26.1788,-97.4096 c -0.7306,-2.6788 -3.6529,-5.4793 -7.0622,-5.4793 h -1.9482 -1.9482 c -2.8005,0 -6.2099,2.0699 -7.0622,5.4793 l -26.1788,97.4096 c -0.2435,0.6088 -0.2435,1.2176 -0.2435,1.8264 0,3.2876 2.0699,6.2099 5.3575,7.0622 z m 39.6944,-47.7307 h -19.3602 l 9.741,-35.798 z m 106.1211,-21.9172 c 3.7747,-0.3653 6.5752,-3.5311 6.5752,-7.3057 0,-0.1217 0,-0.3653 0,-0.6088 -1.7047,-18.7513 -13.2721,-33.9716 -30.684,-33.9716 -26.4224,0 -35.5545,32.5105 -35.5545,55.767 0,23.5001 9.0103,56.0105 35.5545,56.0105 18.386,0 29.7099,-15.9508 31.6581,-36.2851 0,-0.2435 0,-0.487 0,-0.6088 0,-3.7746 -2.8006,-6.9404 -6.5752,-7.3057 -0.2435,0 -0.487,0 -0.7305,0 -3.6529,0 -6.9405,2.8005 -7.184,6.5752 -1.5829,16.6814 -9.0104,23.013 -17.1684,23.013 -11.2021,0 -20.9431,-17.7773 -20.9431,-41.3991 0,-23.3783 9.8627,-41.1556 20.9431,-41.1556 7.4274,0 14.7332,6.3317 16.1943,20.6996 0.2435,3.7746 3.5311,6.5751 7.184,6.5751 0.2435,0 0.487,0 0.7305,0 z m 35.4993,-42.1296 c -4.0181,0 -7.3057,3.4093 -7.3057,7.3057 v 62.5857 c 0,0.3653 -0.1217,0.7305 0,1.0958 v 33.7281 c 0,4.0182 3.2876,7.3057 7.3057,7.3057 3.8964,0 7.3058,-3.2875 7.3058,-7.3057 v -31.9016 l 9.3756,-12.298 25.9353,47.7307 c 1.2177,2.4352 3.7747,3.7746 6.4534,3.7746 1.0959,0 2.3135,-0.2435 3.4094,-0.8523 2.4352,-1.3394 3.7746,-3.8964 3.7746,-6.4534 0,-1.2176 -0.2435,-2.3135 -0.8524,-3.4093 l -28.9793,-53.4536 27.64,-36.0415 c 0.9741,-1.3394 1.4611,-2.9223 1.4611,-4.3834 0,-2.1918 -0.9741,-4.3835 -2.8005,-5.8446 -1.3394,-0.9741 -2.9223,-1.4612 -4.5052,-1.4612 -2.1917,0 -4.3834,0.9741 -5.8446,2.8006 l -35.0674,45.9042 v -41.5208 c 0,-3.8964 -3.4094,-7.3057 -7.3058,-7.3057 z m 138.9969,7.3057 c 0,-3.8964 -3.4093,-7.3057 -7.3057,-7.3057 h -47.4872 c -4.5051,0 -7.3057,4.2617 -7.3057,7.3057 v 97.4096 c 0,4.5052 4.1399,7.3057 7.3057,7.3057 h 50.4095 c 3.8964,0 7.3057,-3.2875 7.3057,-7.3057 0,-3.8964 -3.4093,-7.3057 -7.3057,-7.3057 h -43.1037 v -36.5286 h 26.3006 c 4.0181,0 7.3057,-3.2876 7.3057,-7.3057 0,-3.8964 -3.2876,-7.3058 -7.3057,-7.3058 h -26.3006 v -31.6581 h 40.1814 c 3.8964,0 7.3057,-3.2876 7.3057,-7.3057 z m 38.1781,39.2074 v -31.9017 h 22.4043 c 8.0362,0 13.8808,5.6011 13.8808,16.0726 0,9.6192 -8.5233,15.8291 -13.8808,15.8291 z m 0,14.6114 h 19.1167 l 17.0467,46.1478 c 1.0958,2.9223 4.0181,4.7487 6.9404,4.7487 0.8523,0 1.7047,-0.1217 2.4352,-0.3653 2.9223,-1.0958 4.7488,-4.0181 4.7488,-6.9404 0,-0.8523 -0.1218,-1.7047 -0.3653,-2.4352 l -16.1944,-43.8344 c 9.4975,-4.6269 17.1685,-14.7332 17.1685,-27.7617 0,-16.9249 -11.5674,-30.684 -28.4923,-30.684 h -29.71 c -3.1658,0 -7.3057,2.9223 -7.3057,7.3057 v 46.5131 50.8965 c 0,4.0182 3.2876,7.3057 7.3057,7.3057 3.8964,0 7.3057,-3.2875 7.3057,-7.3057 z"
       id="text7-8-1-8-3"
       style="font-weight:800;font-stretch:condensed;font-size:121.762px;line-height:163.492px;font-family:Gorton;-inkscape-font-specification:'Gorton Ultra-Bold Condensed';text-align:center;letter-spacing:-2.49051px;word-spacing:-6.33946px;text-anchor:middle;fill:#050505;stroke-width:4.80633"
       aria-label="TRACKER" />
    <g
       id="text7-0"
       style="font-weight:800;font-stretch:condensed;font-size:121.762px;line-height:163.492px;font-family:Gorton;-inkscape-font-specification:'Gorton Ultra-Bold Condensed';text-align:center;letter-spacing:0.0961265px;word-spacing:7.62246px;text-anchor:middle;fill:#050505;stroke-width:4.80633"
       aria-label="NO ATT">
      <path
         d="m 670.57864,1098.6238 c 3.89638,0 7.30572,-3.2875 7.30572,-7.3057 v -71.109 l 32.26693,74.0313 c 1.21762,2.8005 4.1399,4.3834 6.69691,4.3834 h 1.70466 1.58291 c 4.38343,0 7.30572,-4.1399 7.30572,-7.3057 l -0.12176,-97.65311 c -0.12176,-3.89638 -3.40934,-7.30572 -7.30572,-7.30572 -4.01815,0.12176 -7.42748,3.40934 -7.30572,7.42748 l 0.12176,70.01315 -31.77988,-72.69191 c -0.9741,-2.43524 -3.65286,-4.5052 -6.69691,-4.5052 h -2.06996 -1.70466 c -3.16582,0 -7.30573,2.92229 -7.30573,7.30572 v 97.40959 c 0,4.0182 3.28758,7.3057 7.30573,7.3057 z M 786.22702,986.48103 c -26.42236,0 -35.55451,32.75397 -35.55451,56.13227 0,23.5001 9.01039,56.0105 35.55451,56.0105 26.42235,0 35.31098,-32.6322 35.31098,-56.0105 0,-23.1348 -8.76687,-56.13227 -35.31098,-56.13227 z m 0,14.61147 c 10.95858,0 20.69954,18.0207 20.69954,41.5208 0,23.5001 -9.74096,41.3991 -20.69954,41.3991 -11.20211,0 -20.94307,-17.7773 -20.94307,-41.3991 0,-23.5001 9.86272,-41.5208 20.94307,-41.5208 z"
         id="path6" />
      <path
         style="letter-spacing:-5.88665px"
         d="m 906.54969,1098.3803 c 0.60881,0.2435 1.21762,0.2435 1.82643,0.2435 3.28758,0 6.20987,-2.0699 7.0622,-5.3575 l 7.54924,-28.0053 h 27.15293 l 7.54924,28.0053 c 0.85234,3.2876 3.89639,5.3575 7.0622,5.3575 0.60881,0 1.21762,0 1.82643,-0.2435 3.28757,-0.8523 5.47929,-3.7746 5.47929,-7.0622 0,-0.6088 -0.12176,-1.2176 -0.24352,-1.8264 L 945.6353,992.08208 c -0.73058,-2.67876 -3.65286,-5.47929 -7.0622,-5.47929 h -1.94819 -1.94819 c -2.80053,0 -6.20987,2.06996 -7.0622,5.47929 l -26.17883,97.40962 c -0.24352,0.6088 -0.24352,1.2176 -0.24352,1.8264 0,3.2876 2.06995,6.2099 5.35752,7.0622 z m 39.69442,-47.7307 h -19.36016 l 9.74096,-35.798 z m 43.06158,-56.74109 c 0,4.01815 3.28757,7.30569 7.30572,7.30569 h 21.67359 v 90.1039 c 0,4.0182 3.2876,7.3057 7.3058,7.3057 3.8964,0 7.3057,-3.2875 7.3057,-7.3057 v -90.1039 h 21.4301 c 4.0181,0 7.3057,-3.28754 7.3057,-7.30569 0,-3.89638 -3.2876,-7.30572 -7.3057,-7.30572 h -57.71519 c -4.01815,0 -7.30572,3.40934 -7.30572,7.30572 z m 89.57481,0 c 0,4.01815 3.2876,7.30569 7.3057,7.30569 h 21.6737 v 90.1039 c 0,4.0182 3.2876,7.3057 7.3057,7.3057 3.8964,0 7.3057,-3.2875 7.3057,-7.3057 v -90.1039 h 21.4301 c 4.0182,0 7.3057,-3.28754 7.3057,-7.30569 0,-3.89638 -3.2875,-7.30572 -7.3057,-7.30572 h -57.7152 c -4.0181,0 -7.3057,3.40934 -7.3057,7.30572 z"
         id="path7" />
    </g>
    <path
       d="m 674.65734,2811.4058 c 3.89638,0 7.30572,-3.2876 7.30572,-7.3057 v -71.109 l 32.26693,74.0313 c 1.21762,2.8005 4.13991,4.3834 6.69691,4.3834 h 1.70467 1.5829 c 4.38344,0 7.30572,-4.1399 7.30572,-7.3057 l -0.12176,-97.6531 c -0.12176,-3.8964 -3.40933,-7.3057 -7.30572,-7.3057 -4.01814,0.1217 -7.42748,3.4093 -7.30572,7.4274 l 0.12176,70.0132 -31.77988,-72.6919 c -0.97409,-2.4353 -3.65286,-4.5052 -6.69691,-4.5052 h -2.06995 -1.70467 c -3.16581,0 -7.30572,2.9223 -7.30572,7.3057 v 97.4096 c 0,4.0181 3.28757,7.3057 7.30572,7.3057 z M 790.30572,2699.263 c -26.42235,0 -35.5545,32.754 -35.5545,56.1323 0,23.5001 9.01038,56.0105 35.5545,56.0105 26.42236,0 35.31098,-32.6322 35.31098,-56.0105 0,-23.1348 -8.76686,-56.1323 -35.31098,-56.1323 z m 0,14.6115 c 10.95858,0 20.69954,18.0207 20.69954,41.5208 0,23.5001 -9.74096,41.3991 -20.69954,41.3991 -11.2021,0 -20.94306,-17.7773 -20.94306,-41.3991 0,-23.5001 9.86272,-41.5208 20.94306,-41.5208 z m 122.27087,-14.4897 c -3.16581,0 -7.30572,2.9223 -7.30572,7.3057 v 97.4096 c 0,3.1658 2.80053,7.3057 7.30572,7.3057 h 17.89901 c 32.51046,0 40.30323,-30.8058 40.30323,-56.0105 0,-25.3265 -10.10625,-56.0105 -40.18146,-56.0105 z m 7.30572,14.6114 h 10.71506 c 16.68139,0 25.57002,17.1685 25.57002,41.3991 0,24.8394 -6.57515,41.3991 -25.69179,41.3991 h -10.59329 z m 79.48504,97.1661 c 0.60881,0.2435 1.21765,0.2435 1.82645,0.2435 3.2876,0 6.2098,-2.0699 7.0622,-5.3575 l 7.5492,-28.0053 h 27.1529 l 7.5493,28.0053 c 0.8523,3.2876 3.8964,5.3575 7.0622,5.3575 0.6088,0 1.2176,0 1.8264,-0.2435 3.2876,-0.8523 5.4793,-3.7746 5.4793,-7.0622 0,-0.6088 -0.1218,-1.2176 -0.2435,-1.8264 l -26.1788,-97.4096 c -0.7306,-2.6788 -3.6529,-5.4793 -7.0622,-5.4793 h -1.9482 -1.9482 c -2.8006,0 -6.2099,2.0699 -7.0622,5.4793 l -26.17885,97.4096 c -0.24353,0.6088 -0.24353,1.2176 -0.24353,1.8264 0,3.2876 2.06996,6.2099 5.35753,7.0622 z m 39.69445,-47.7307 h -19.3602 l 9.741,-35.798 z m 63.6558,-11.6892 v -37.7462 h 17.899 c 9.0104,0 14.4897,6.8187 14.4897,19.4819 0,11.4457 -7.671,18.2643 -14.4897,18.2643 z m 0,14.6115 h 17.899 c 16.5596,0 29.1011,-14.9767 29.1011,-32.8758 0,-16.9249 -9.2539,-34.0933 -29.1011,-34.0933 h -25.2047 c -3.1659,0 -7.3058,2.9223 -7.3058,7.3057 v 52.3577 45.0519 c 0,4.0181 3.2876,7.3057 7.3058,7.3057 3.8963,0 7.3057,-3.2876 7.3057,-7.3057 z"
       id="text7-0-5"
       style="font-weight:800;font-stretch:condensed;font-size:121.762px;line-height:163.492px;font-family:Gorton;-inkscape-font-specification:'Gorton Ultra-Bold Condensed';text-align:center;letter-spacing:0.0961265px;word-spacing:7.62246px;text-anchor:middle;fill:#050505;stroke-width:4.80633"
       aria-label="NO DAP" />
    <path
       d="m 601.91685,3180.8843 v -37.7462 h 17.89902 c 9.01039,0 14.48968,6.8186 14.48968,19.4819 0,11.4456 -7.67101,18.2643 -14.48968,18.2643 z m 0,14.6114 h 17.89902 c 16.55963,0 29.10112,-14.9767 29.10112,-32.8757 0,-16.9249 -9.25392,-34.0934 -29.10112,-34.0934 h -25.20474 c -3.16581,0 -7.30572,2.9223 -7.30572,7.3057 v 52.3577 45.0519 c 0,4.0182 3.28758,7.3058 7.30572,7.3058 3.89639,0 7.30572,-3.2876 7.30572,-7.3058 z m 84.84237,-20.456 v -31.9016 h 22.40421 c 8.03629,0 13.88087,5.601 13.88087,16.0725 0,9.6192 -8.52334,15.8291 -13.88087,15.8291 z m 0,14.6114 h 19.11664 l 17.04668,46.1478 c 1.09586,2.9223 4.01814,4.7488 6.94043,4.7488 0.85234,0 1.70467,-0.1218 2.43524,-0.3653 2.92229,-1.0959 4.74872,-4.0182 4.74872,-6.9405 0,-0.8523 -0.12176,-1.7046 -0.36529,-2.4352 l -16.19434,-43.8343 c 9.49743,-4.627 17.16844,-14.7332 17.16844,-27.7618 0,-16.9249 -11.56739,-30.684 -28.49231,-30.684 H 679.4535 c -3.16581,0 -7.30572,2.9223 -7.30572,7.3057 v 46.5131 50.8965 c 0,4.0182 3.28758,7.3058 7.30572,7.3058 3.89639,0 7.30572,-3.2876 7.30572,-7.3058 z m 81.43323,-61.1245 c -4.01815,0 -7.30572,3.4094 -7.30572,7.3057 v 97.4096 c 0,4.0182 3.28757,7.3058 7.30572,7.3058 3.89638,0 7.30572,-3.2876 7.30572,-7.3058 v -97.4096 c 0,-3.8963 -3.40934,-7.3057 -7.30572,-7.3057 z m 66.09107,-0.1217 c -26.42236,0 -35.55451,32.7539 -35.55451,56.1322 0,23.5001 9.01039,56.0106 35.55451,56.0106 26.42235,0 35.31098,-32.6323 35.31098,-56.0106 0,-23.1347 -8.76687,-56.1322 -35.31098,-56.1322 z m 0,14.6114 c 10.95858,0 20.69954,18.0208 20.69954,41.5208 0,23.5001 -9.74096,41.3991 -20.69954,41.3991 -11.20211,0 -20.94307,-17.7772 -20.94307,-41.3991 0,-23.5 9.86273,-41.5208 20.94307,-41.5208 z m 122.27085,-14.4897 c -3.16581,0 -7.30572,2.9223 -7.30572,7.3057 v 97.4096 c 0,3.1659 2.80053,7.3058 7.30572,7.3058 h 17.89902 c 32.51041,0 40.30321,-30.8058 40.30321,-56.0106 0,-25.3265 -10.1062,-56.0105 -40.18145,-56.0105 z m 7.30572,14.6115 h 10.71506 c 16.68139,0 25.57005,17.1684 25.57005,41.399 0,24.8395 -6.57518,41.3991 -25.69181,41.3991 h -10.5933 z m 81.43321,-14.6115 c -4.0181,0 -7.3057,3.4094 -7.3057,7.3057 v 97.4096 c 0,4.0182 3.2876,7.3058 7.3057,7.3058 3.8964,0 7.3057,-3.2876 7.3057,-7.3058 v -97.4096 c 0,-3.8963 -3.4093,-7.3057 -7.3057,-7.3057 z m 89.1041,36.8939 c 3.2876,-0.7306 5.6011,-3.8964 5.6011,-7.1839 0,-0.4871 0,-1.0959 -0.1218,-1.583 -4.5052,-19.1166 -16.0726,-28.127 -31.1711,-28.127 -15.2202,0 -31.171,11.5674 -31.171,30.9276 0,20.2125 17.0466,29.4664 31.6581,29.9534 10.8368,0.4871 19.9689,6.4534 19.9689,17.5338 0,12.0544 -9.1321,18.9948 -18.386,18.9948 -10.7151,0 -17.6555,-2.6787 -20.456,-20.3342 -0.6088,-3.5311 -3.7747,-6.0881 -7.3058,-6.0881 -0.3652,0 -0.7305,0 -1.0958,0 -3.5311,0.6088 -6.0881,3.7746 -6.0881,7.3057 0,0.3653 0,0.7306 0,1.0958 3.7746,23.7436 18.3861,32.6323 34.9457,32.6323 16.6814,0 32.9975,-13.1503 32.9975,-33.6063 0,-21.4302 -18.6296,-31.5364 -33.9716,-32.0235 -10.228,-0.487 -17.6555,-5.601 -17.6555,-15.4637 0,-10.228 8.0363,-16.3161 16.5596,-16.3161 8.4016,0 13.5156,2.3134 16.9249,16.8031 0.7306,3.4094 3.7747,5.6011 7.0622,5.6011 0.6089,0 1.0959,0 1.7047,-0.1218 z m 47.2179,15.4638 v -37.7462 h 17.8991 c 9.0103,0 14.4896,6.8186 14.4896,19.4819 0,11.4456 -7.671,18.2643 -14.4896,18.2643 z m 0,14.6114 h 17.8991 c 16.5596,0 29.1011,-14.9767 29.1011,-32.8757 0,-16.9249 -9.2539,-34.0934 -29.1011,-34.0934 h -25.2048 c -3.1658,0 -7.3057,2.9223 -7.3057,7.3057 v 52.3577 45.0519 c 0,4.0182 3.2876,7.3058 7.3057,7.3058 3.8964,0 7.3057,-3.2876 7.3057,-7.3058 z"
       id="text7-0-5-9"
       style="font-weight:800;font-stretch:condensed;font-size:121.762px;line-height:163.492px;font-family:Gorton;-inkscape-font-specification:'Gorton Ultra-Bold Condensed';text-align:center;letter-spacing:0.0961265px;word-spacing:7.62246px;text-anchor:middle;fill:#050505;stroke-width:4.80633"
       aria-label="PRIO DISP" />
    <path
       d="m 626.96779,1845.7645 c -4.01815,0 -7.30572,3.4094 -7.30572,7.3058 v 62.5856 c 0,0.3653 -0.12176,0.7306 0,1.0959 v 33.7281 c 0,4.0181 3.28757,7.3057 7.30572,7.3057 3.89638,0 7.30572,-3.2876 7.30572,-7.3057 v -31.9017 l 9.37567,-12.2979 25.93531,47.7307 c 1.21762,2.4352 3.77462,3.7746 6.45338,3.7746 1.09586,0 2.31348,-0.2435 3.40934,-0.8524 2.43524,-1.3393 3.77462,-3.8963 3.77462,-6.4533 0,-1.2177 -0.24352,-2.3135 -0.85233,-3.4094 l -28.97936,-53.4535 27.63998,-36.0415 c 0.97409,-1.3394 1.46114,-2.9223 1.46114,-4.3835 0,-2.1917 -0.9741,-4.3834 -2.80053,-5.8446 -1.33938,-0.9741 -2.92228,-1.4611 -4.50519,-1.4611 -2.19172,0 -4.38343,0.9741 -5.84458,2.8005 l -35.06745,45.9043 v -41.5208 c 0,-3.8964 -3.40934,-7.3058 -7.30572,-7.3058 z m 141.58356,7.3058 c 0,-3.8964 -3.40934,-7.3058 -7.30572,-7.3058 h -47.48719 c -4.50519,0 -7.30572,4.2617 -7.30572,7.3058 v 97.4096 c 0,4.5052 4.13991,7.3057 7.30572,7.3057 h 50.40947 c 3.89639,0 7.30572,-3.2876 7.30572,-7.3057 0,-3.8964 -3.40933,-7.3058 -7.30572,-7.3058 h -43.10375 v -36.5286 h 26.3006 c 4.01814,0 7.30572,-3.2875 7.30572,-7.3057 0,-3.8964 -3.28758,-7.3057 -7.30572,-7.3057 h -26.3006 v -31.6581 h 40.18147 c 3.89638,0 7.30572,-3.2876 7.30572,-7.3057 z m 29.80616,-6.3317 c -2.31347,1.3394 -3.65286,3.8964 -3.65286,6.4534 0,1.2176 0.24353,2.4353 0.85234,3.5311 l 25.69178,46.5131 -0.12176,47.2437 c -0.12176,4.0181 3.28757,7.3057 7.30572,7.3057 3.89638,0 7.18396,-3.2876 7.30572,-7.184 l 0.12176,-47.3654 25.69178,-46.6348 c 0.60881,-1.0959 0.85234,-2.1918 0.85234,-3.4094 0,-2.557 -1.33938,-5.114 -3.65286,-6.4534 -1.09586,-0.6088 -2.31348,-0.8523 -3.5311,-0.8523 -2.557,0 -5.114,1.3394 -6.45339,3.7746 l -20.21249,36.5286 -20.21249,-36.6503 c -1.33938,-2.3135 -3.89639,-3.6529 -6.45339,-3.6529 -1.21762,0 -2.43524,0.2435 -3.5311,0.8523 z m 167.82167,45.539 v -31.9016 h 22.40421 c 8.03629,0 13.88091,5.601 13.88091,16.0726 0,9.6192 -8.52339,15.829 -13.88091,15.829 z m 0,14.6115 h 19.11663 l 17.04669,46.1478 c 1.0959,2.9222 4.0181,4.7487 6.9404,4.7487 0.8524,0 1.7047,-0.1218 2.4353,-0.3653 2.9223,-1.0959 4.7487,-4.0182 4.7487,-6.9404 0,-0.8524 -0.1218,-1.7047 -0.3653,-2.4353 l -16.19435,-43.8343 c 9.49745,-4.627 17.16845,-14.7332 17.16845,-27.7617 0,-16.925 -11.5674,-30.6841 -28.49231,-30.6841 h -29.70993 c -3.16581,0 -7.30572,2.9223 -7.30572,7.3058 v 46.513 50.8966 c 0,4.0181 3.28757,7.3057 7.30572,7.3057 3.89638,0 7.30572,-3.2876 7.30572,-7.3057 z m 136.22612,-53.8188 c 0,-3.8964 -3.4093,-7.3058 -7.3057,-7.3058 h -47.4872 c -4.5052,0 -7.3057,4.2617 -7.3057,7.3058 v 97.4096 c 0,4.5052 4.1399,7.3057 7.3057,7.3057 h 50.4095 c 3.8964,0 7.3057,-3.2876 7.3057,-7.3057 0,-3.8964 -3.4093,-7.3058 -7.3057,-7.3058 h -43.1038 v -36.5286 h 26.3006 c 4.0182,0 7.3057,-3.2875 7.3057,-7.3057 0,-3.8964 -3.2875,-7.3057 -7.3057,-7.3057 h -26.3006 v -31.6581 h 40.1815 c 3.8964,0 7.3057,-3.2876 7.3057,-7.3057 z m 33.459,-7.3058 c -4.0181,0 -7.3057,3.4094 -7.3057,7.3058 v 97.4096 c 0,4.5052 4.1399,7.3057 7.3057,7.3057 h 50.5313 c 4.0181,0 7.3057,-3.2876 7.3057,-7.3057 0,-3.8964 -3.2876,-7.3058 -7.3057,-7.3058 h -43.2255 v -90.1038 c 0,-3.8964 -3.4094,-7.3058 -7.3058,-7.3058 z"
       id="text7-0-4"
       style="font-weight:800;font-stretch:condensed;font-size:121.762px;line-height:163.492px;font-family:Gorton;-inkscape-font-specification:'Gorton Ultra-Bold Condensed';text-align:center;letter-spacing:0.0961265px;word-spacing:17.1316px;text-anchor:middle;fill:#050505;stroke-width:4.80633"
       aria-label="KEY REL" />
    <path
       d="m 656.0346,2274.1893 c -26.42235,0 -35.5545,32.754 -35.5545,56.1323 0,23.5 9.01039,56.0105 35.5545,56.0105 26.42236,0 35.31098,-32.6322 35.31098,-56.0105 0,-23.1348 -8.76686,-56.1323 -35.31098,-56.1323 z m 0,14.6114 c 10.95858,0 20.69954,18.0208 20.69954,41.5209 0,23.5 -9.74096,41.399 -20.69954,41.399 -11.2021,0 -20.94306,-17.7772 -20.94306,-41.399 0,-23.5001 9.86272,-41.5209 20.94306,-41.5209 z m 73.15325,37.868 v -37.7462 h 17.89901 c 9.01039,0 14.48968,6.8187 14.48968,19.4819 0,11.4456 -7.67101,18.2643 -14.48968,18.2643 z m 0,14.6114 h 17.89901 c 16.55963,0 29.10112,-14.9767 29.10112,-32.8757 0,-16.9249 -9.25391,-34.0934 -29.10112,-34.0934 h -25.20473 c -3.16582,0 -7.30572,2.9223 -7.30572,7.3058 v 52.3576 45.052 c 0,4.0181 3.28757,7.3057 7.30572,7.3057 3.89638,0 7.30572,-3.2876 7.30572,-7.3057 z m 84.84236,-20.456 v -31.9016 h 22.40421 c 8.0363,0 13.88087,5.601 13.88087,16.0726 0,9.6192 -8.52334,15.829 -13.88087,15.829 z m 0,14.6115 h 19.11664 l 17.04668,46.1478 c 1.09586,2.9223 4.01815,4.7487 6.94043,4.7487 0.85234,0 1.70467,-0.1218 2.43524,-0.3653 2.92229,-1.0959 4.74872,-4.0181 4.74872,-6.9404 0,-0.8524 -0.12176,-1.7047 -0.36528,-2.4353 l -16.19435,-43.8343 c 9.49744,-4.6269 17.16844,-14.7332 17.16844,-27.7617 0,-16.9249 -11.56739,-30.6841 -28.49231,-30.6841 h -29.70993 c -3.16581,0 -7.30572,2.9223 -7.30572,7.3058 v 46.5131 50.8965 c 0,4.0181 3.28758,7.3057 7.30572,7.3057 3.89639,0 7.30572,-3.2876 7.30572,-7.3057 z m 202.15859,-53.8188 c 0,-3.8964 -3.4093,-7.3058 -7.3057,-7.3058 h -47.48717 c -4.5052,0 -7.30572,4.2617 -7.30572,7.3058 v 97.4096 c 0,4.5052 4.13991,7.3057 7.30572,7.3057 h 50.40947 c 3.8964,0 7.3057,-3.2876 7.3057,-7.3057 0,-3.8964 -3.4093,-7.3058 -7.3057,-7.3058 h -43.10375 v -36.5286 h 26.30059 c 4.01815,0 7.30576,-3.2875 7.30576,-7.3057 0,-3.8964 -3.28761,-7.3057 -7.30576,-7.3057 h -26.30059 v -31.6581 h 40.18145 c 3.8964,0 7.3057,-3.2876 7.3057,-7.3057 z m 40.7648,39.2073 v -31.9016 h 22.4042 c 8.0363,0 13.8808,5.601 13.8808,16.0726 0,9.6192 -8.5233,15.829 -13.8808,15.829 z m 0,14.6115 h 19.1166 l 17.0467,46.1478 c 1.0958,2.9223 4.0181,4.7487 6.9404,4.7487 0.8524,0 1.7047,-0.1218 2.4353,-0.3653 2.9222,-1.0959 4.7487,-4.0181 4.7487,-6.9404 0,-0.8524 -0.1218,-1.7047 -0.3653,-2.4353 l -16.1944,-43.8343 c 9.4975,-4.6269 17.1685,-14.7332 17.1685,-27.7617 0,-16.9249 -11.5674,-30.6841 -28.4923,-30.6841 h -29.71 c -3.1658,0 -7.3057,2.9223 -7.3057,7.3058 v 46.5131 50.8965 c 0,4.0181 3.2876,7.3057 7.3057,7.3057 3.8964,0 7.3058,-3.2876 7.3058,-7.3057 z m 88.7389,-14.6115 v -31.9016 h 22.4042 c 8.0363,0 13.8809,5.601 13.8809,16.0726 0,9.6192 -8.5233,15.829 -13.8809,15.829 z m 0,14.6115 h 19.1167 l 17.0466,46.1478 c 1.0959,2.9223 4.0182,4.7487 6.9405,4.7487 0.8523,0 1.7046,-0.1218 2.4352,-0.3653 2.9223,-1.0959 4.7487,-4.0181 4.7487,-6.9404 0,-0.8524 -0.1217,-1.7047 -0.3653,-2.4353 l -16.1943,-43.8343 c 9.4974,-4.6269 17.1684,-14.7332 17.1684,-27.7617 0,-16.9249 -11.5674,-30.6841 -28.4923,-30.6841 h -29.7099 c -3.1658,0 -7.3057,2.9223 -7.3057,7.3058 v 46.5131 50.8965 c 0,4.0181 3.2876,7.3057 7.3057,7.3057 3.8964,0 7.3057,-3.2876 7.3057,-7.3057 z"
       id="text7-0-4-5"
       style="font-weight:800;font-stretch:condensed;font-size:121.762px;line-height:163.492px;font-family:Gorton;-inkscape-font-specification:'Gorton Ultra-Bold Condensed';text-align:center;letter-spacing:0.0961265px;word-spacing:17.1316px;text-anchor:middle;fill:#050505;stroke-width:4.80633"
       aria-label="OPR ERR" />
  </g>
</svg>
