<?xml version="1.0" encoding="UTF-8" standalone="no"?>
<!-- Created with Inkscape (http://www.inkscape.org/) -->

<svg
   version="1.1"
   id="svg1"
   width="1902.1664"
   height="3206.3594"
   viewBox="0 0 1902.1664 3206.3594"
   sodipodi:docname="alarms_mask.svg"
   inkscape:version="1.3.2 (091e20e, 2023-11-25, custom)"
   xmlns:inkscape="http://www.inkscape.org/namespaces/inkscape"
   xmlns:sodipodi="http://sodipodi.sourceforge.net/DTD/sodipodi-0.dtd"
   xmlns="http://www.w3.org/2000/svg"
   xmlns:svg="http://www.w3.org/2000/svg">
  <defs
     id="defs1" />
  <sodipodi:namedview
     id="namedview1"
     pagecolor="#505050"
     bordercolor="#eeeeee"
     borderopacity="1"
     inkscape:showpageshadow="0"
     inkscape:pageopacity="0"
     inkscape:pagecheckerboard="0"
     inkscape:deskcolor="#505050"
     inkscape:zoom="0.22045898"
     inkscape:cx="-827.81838"
     inkscape:cy="1998.1041"
     inkscape:window-width="2560"
     inkscape:window-height="1361"
     inkscape:window-x="-9"
     inkscape:window-y="-9"
     inkscape:window-maximized="1"
     inkscape:current-layer="g1" />
  <g
     inkscape:groupmode="layer"
     inkscape:label="Image"
     id="g1"
     transform="translate(-403.09451,-295.12874)">
    <path
       style="fill:#747474;fill-opacity:1"
       d="m 2303.7244,3445.3085 c -4.2593,28.1236 -25.5828,49.8738 -53.4936,54.564 -12.8197,2.1543 -1779.18027,2.1543 -1791.99997,0 -28.4407,-4.7793 -49.3193,-26.4336 -53.5737,-55.564 -2.0835,-14.2665 -2.0835,-3077.73363 0,-3092.00003 4.2465,-29.0769 25.1853,-50.7936 53.5737,-55.564 12.8197,-2.1543 1779.18027,-2.1543 1791.99997,0 28.4407,4.7792 49.3193,26.4335 53.5737,55.564 1.9941,13.6539 1.9146,3079.82853 -0.08,3093.00003 z m -102.1001,-436.5831 c -0.8835,-1.862 -3.246,-4.405 -5.25,-5.6512 l -3.6435,-2.2657 h -388.5 c -386.7044,0 -388.5157,0.01 -391.8869,2 -1.8628,1.1 -4.2253,3.5679 -5.25,5.4844 -1.7978,3.3623 -1.8631,9.8464 -1.8631,185.1021 v 181.6177 l 2.2699,3.3979 c 1.2485,1.8688 3.836,4.1856 5.75,5.1484 3.2995,1.6597 23.6468,1.7376 392.1568,1.5 l 388.6767,-0.2505 2.8233,-2.0711 c 1.5528,-1.1391 3.6101,-3.6141 4.5717,-5.5 1.6455,-3.227 1.7486,-14.0779 1.75,-184.2778 0,-164.0117 -0.148,-181.1641 -1.6049,-184.2342 z m 0.1424,-431.3475 c -0.8052,-1.5572 -2.8648,-4.0099 -4.5767,-5.4504 l -3.1127,-2.6191 h -389.5552 c -388.8253,0 -389.5613,0 -392.8168,2.0158 -6.9934,4.3221 -6.4749,-10.9141 -6.4708,190.1353 0,179.1938 0.027,181.3877 1.9909,184.6081 1.0929,1.7925 3.4537,4.1533 5.2463,5.2463 3.2373,1.9738 5.8584,1.9871 391.7591,1.9871 385.9007,0 388.5218,-0.013 391.7591,-1.9871 1.7926,-1.093 4.1534,-3.4538 5.2463,-5.2463 1.9635,-3.2204 1.9872,-5.4142 1.9909,-184.5589 0,-157.2277 -0.1907,-181.6755 -1.4604,-184.1308 z m -0.5305,-432.8286 c -1.0929,-1.7926 -3.4537,-4.1534 -5.2463,-5.2463 -3.2373,-1.9738 -5.8584,-1.9871 -391.7591,-1.9871 -385.9007,0 -388.5218,0.013 -391.7591,1.9871 -1.7926,1.0929 -4.1554,3.4537 -5.2509,5.2463 -1.9722,3.2272 -1.9892,5.0453 -1.7408,185.7591 0.2484,180.7272 0.2702,182.5264 2.2508,185.2169 1.1,1.4943 3.4216,3.4085 5.1591,4.2538 2.8281,1.3758 43.9802,1.5103 392.6451,1.2831 387.8889,-0.2528 389.4951,-0.262 391.734,-2.2538 1.2365,-1.1 3.082,-3.35 4.1012,-5 1.7863,-2.8919 1.8531,-9.5425 1.8531,-184.5 0,-179.3478 -0.023,-181.5386 -1.9871,-184.7591 z m -0.2753,-432.343 c -1.2485,-1.8689 -3.836,-4.1847 -5.75,-5.1463 -3.2953,-1.6557 -24.0787,-1.7484 -391.4801,-1.7463 -385.3998,0 -388.0218,0.015 -391.2591,1.9893 -1.7926,1.0929 -4.1534,3.4537 -5.2463,5.2463 -1.9635,3.2204 -1.9872,5.4143 -1.9909,184.608 0,201.958 -0.5872,185.7587 6.8528,190.3853 l 3.6435,2.2658 h 387.5 c 213.125,0 388.667,-0.3284 390.0934,-0.7297 2.9279,-0.8239 7.7357,-5.2596 8.9639,-8.2703 0.4488,-1.1 0.8445,-83.721 0.8793,-183.6021 l 0.063,-181.6021 z m 0.4459,-430.9134 c -1.1347,-2.1676 -3.4861,-4.3366 -6.2221,-5.7395 l -4.3982,-2.255 -388.0279,0.255 -388.0278,0.2551 -3.2651,2.3288 c -6.7364,4.8048 -6.2353,-10.4645 -6.2312,189.8715 0,180.5447 0.018,181.8225 2.0207,185.1078 1.1645,1.91 3.8043,4.1195 6.2463,5.228 4.1468,1.8824 11.7651,1.9203 390.7674,1.9418 l 386.5381,0.022 4.3879,-2.25 c 2.7262,-1.3979 5.0787,-3.5695 6.2119,-5.7343 1.7458,-3.335 1.824,-11.2475 1.824,-184.5156 0,-173.2681 -0.078,-181.1806 -1.824,-184.5156 z m 0.2175,-431.56753 c -0.8835,-1.862 -3.246,-4.405 -5.25,-5.6511 l -3.6435,-2.2658 h -388.5 c -386.7044,0 -388.5157,0.01 -391.8869,2 -1.8628,1.1 -4.2253,3.568 -5.25,5.4844 -1.7978,3.3623 -1.8631,9.8464 -1.8631,185.10213 v 181.6177 l 2.2699,3.3979 c 1.2485,1.8689 3.836,4.1847 5.75,5.1463 3.2953,1.6556 24.0573,1.7485 390.9801,1.7485 366.9228,0 387.6848,-0.093 390.9801,-1.7485 1.914,-0.9616 4.5015,-3.2774 5.75,-5.1463 l 2.2699,-3.3979 v -181.451 c 0,-164.56263 -0.1495,-181.76603 -1.6065,-184.83633 z m 0.2015,-431.2166 c -0.7727,-1.4851 -2.609,-3.8253 -4.0805,-5.2003 l -2.6756,-2.5 -389.6694,-0.2927 c -355.2088,-0.2667 -389.9348,-0.1515 -392.6695,1.3032 -1.65,0.8778 -3.9,2.8094 -5,4.2927 -1.9807,2.6707 -2.0024,4.462 -2.2508,185.1968 -0.2484,180.7138 -0.2314,182.5319 1.7408,185.7591 1.0955,1.7926 3.4583,4.1534 5.2509,5.2463 3.2373,1.9738 5.8584,1.9871 391.7591,1.9871 385.9007,0 388.5218,-0.013 391.7591,-1.9871 1.7926,-1.0929 4.1534,-3.4537 5.2463,-5.2463 1.9635,-3.2204 1.9872,-5.4142 1.9909,-184.5588 0,-153.7633 -0.2097,-181.7098 -1.4013,-184 z M 1301.3677,3008.2929 c -1.0247,-1.9165 -3.3872,-4.3844 -5.25,-5.4844 -3.3712,-1.9908 -5.1825,-2 -391.88687,-2 h -388.5 l -3.6435,2.2657 c -7.4698,4.6452 -6.902,-11.7562 -6.6145,191.079 l 0.258,182.0088 2.0711,2.8232 c 1.1391,1.5528 3.6141,3.6101 5.5,4.5717 3.247,1.6557 23.9866,1.7485 390.9289,1.7485 366.92277,0 387.68477,-0.093 390.98007,-1.7485 1.914,-0.9616 4.5015,-3.2775 5.75,-5.1463 l 2.2699,-3.3979 V 3193.395 c 0,-175.2557 -0.065,-181.7398 -1.8631,-185.1021 z m -0.6369,-433.1813 c -1.1,-1.4833 -3.35,-3.4149 -5,-4.2927 -2.7347,-1.4547 -37.4607,-1.5699 -392.66937,-1.3032 l -389.6695,0.2927 -2.6756,2.5 c -5.8715,5.4863 -5.4858,-7.8263 -5.4817,189.2003 0,179.1447 0.027,181.3385 1.9908,184.5589 1.0929,1.7925 3.4537,4.1533 5.2463,5.2463 3.2373,1.9738 5.8585,1.9871 391.7591,1.9871 385.90067,0 388.52177,-0.013 391.75907,-1.9871 1.7926,-1.093 4.1554,-3.4538 5.2509,-5.2463 1.9722,-3.2272 1.9892,-5.0453 1.7408,-185.7592 -0.2484,-180.7348 -0.2701,-182.5261 -2.2508,-185.1968 z m 1.095,-429.6029 c -0.7727,-1.4851 -2.609,-3.8253 -4.0805,-5.2003 l -2.6756,-2.5 -389.66937,-0.2484 c -387.4339,-0.2471 -389.6882,-0.2371 -392.9286,1.7408 -1.7926,1.0941 -4.1534,3.4559 -5.2463,5.2485 -1.9635,3.2204 -1.9872,5.4142 -1.9908,184.5588 0,197.0266 -0.3898,183.714 5.4817,189.2003 l 2.6756,2.5 388.1695,0.2836 c 213.49307,0.156 389.58147,0.033 391.30727,-0.2743 3.2951,-0.5858 8.0352,-4.6163 9.4194,-8.0093 0.4488,-1.1 0.8445,-83.5848 0.8793,-183.2997 0.054,-153.8472 -0.1493,-181.7085 -1.3416,-184 z m -0.5896,-432.9594 c -1.0929,-1.7926 -3.4537,-4.1534 -5.2463,-5.2463 -3.2373,-1.9738 -5.8593,-1.9871 -391.25907,-1.9893 -367.4014,0 -388.1847,0.091 -391.4801,1.7463 -1.914,0.9616 -4.5015,3.2774 -5.75,5.1463 l -2.2699,3.3979 v 181.451 c 0,202.0706 -0.5834,185.8609 6.8565,190.4874 l 3.6435,2.2658 h 388.5 388.49997 l 3.6281,-2.2562 c 7.4134,-4.6102 6.8242,11.7647 6.8454,-190.2438 0.019,-179.365 0,-181.5383 -1.9681,-184.7591 z m -0.2554,-432.2413 c -1.2375,-1.813 -3.818,-4.1295 -5.7344,-5.1479 -3.374,-1.7929 -15.7452,-1.8516 -390.53807,-1.8516 h -387.0537 l -4.3879,2.25 c -2.7262,1.3979 -5.0786,3.5695 -6.2119,5.7344 -1.7458,3.335 -1.824,11.2475 -1.824,184.5156 0,173.2681 0.078,181.1806 1.824,184.5156 1.1333,2.1648 3.4857,4.3364 6.2119,5.7343 l 4.3879,2.25 386.5381,-0.022 c 379.00227,-0.022 386.62057,-0.059 390.76737,-1.9418 2.442,-1.1085 5.0818,-3.318 6.2463,-5.228 2.003,-3.2853 2.0169,-4.5623 2.0207,-185.4102 v -182.1021 z m 0.3869,-431.01513 c -1.0247,-1.9164 -3.3872,-4.3844 -5.25,-5.4844 -3.3712,-1.9908 -5.1825,-2 -391.88687,-2 h -388.5 l -3.6435,2.2658 c -7.4698,4.6451 -6.902,-11.7563 -6.6145,191.07903 l 0.258,182.0087 2.0711,2.8233 c 1.1391,1.5527 3.6141,3.61 5.5,4.5716 3.247,1.6557 23.9866,1.7485 390.9289,1.7485 366.92277,0 387.68477,-0.093 390.98007,-1.7485 1.914,-0.9616 4.5015,-3.2774 5.75,-5.1463 l 2.2699,-3.3979 V 1034.395 c 0,-175.25573 -0.065,-181.73983 -1.8631,-185.10213 z m -0.6369,-433.1812 c -1.1,-1.4833 -3.35,-3.4149 -5,-4.2927 -2.7347,-1.4547 -37.4607,-1.5699 -392.66937,-1.3032 l -389.6695,0.2927 -2.6756,2.5 c -5.8715,5.4863 -5.4858,-7.8263 -5.4817,189.2003 0,179.1446 0.027,181.3384 1.9908,184.5588 1.0929,1.7926 3.4537,4.1534 5.2463,5.2463 3.2373,1.9738 5.8585,1.9871 391.7591,1.9871 385.90067,0 388.52177,-0.013 391.75907,-1.9871 1.7926,-1.0929 4.1554,-3.4537 5.2509,-5.2463 1.9722,-3.2272 1.9892,-5.0453 1.7408,-185.7591 -0.2484,-180.7348 -0.2701,-182.5261 -2.2508,-185.1968 z"
       id="path1" />
    <text
       xml:space="preserve"
       style="font-style:normal;font-variant:normal;font-weight:800;font-stretch:condensed;font-size:122.296px;line-height:164.208px;font-family:Gorton;-inkscape-font-specification:'Gorton Ultra-Bold Condensed';text-align:center;letter-spacing:-14.4824px;text-anchor:middle;fill:#050505;fill-opacity:1;stroke-width:4.82745"
       x="908.96802"
       y="580.5578"
       id="text5"><tspan
         sodipodi:role="line"
         id="tspan5"
         style="letter-spacing:0.15094px;stroke-width:4.82745"
         x="908.96802"
         y="580.5578">UPLINK</tspan><tspan
         sodipodi:role="line"
         style="stroke-width:4.82745"
         x="901.72681"
         y="744.76581"
         id="tspan6">ACTY</tspan></text>
    <text
       xml:space="preserve"
       style="font-style:normal;font-variant:normal;font-weight:800;font-stretch:condensed;font-size:122.296px;line-height:164.208px;font-family:Gorton;-inkscape-font-specification:'Gorton Ultra-Bold Condensed';text-align:center;letter-spacing:-14.4824px;text-anchor:middle;fill:#050505;fill-opacity:1;stroke-width:4.82745"
       x="1802.0847"
       y="1010.0121"
       id="text5-1"><tspan
         sodipodi:role="line"
         id="tspan5-1"
         style="letter-spacing:2.56598px;stroke-width:4.82745"
         x="1802.0847"
         y="1010.0121">GIMBAL</tspan><tspan
         sodipodi:role="line"
         style="letter-spacing:-5.96213px;stroke-width:4.82745"
         x="1799.1036"
         y="1174.2201"
         id="tspan6-2">LOCK</tspan></text>
    <text
       xml:space="preserve"
       style="font-style:normal;font-variant:normal;font-weight:800;font-stretch:condensed;font-size:121.762px;line-height:163.492px;font-family:Gorton;-inkscape-font-specification:'Gorton Ultra-Bold Condensed';text-align:center;letter-spacing:0.0961265px;text-anchor:middle;fill:#050505;fill-opacity:1;stroke-width:4.80633"
       x="1801.1157"
       y="659.71564"
       id="text7"><tspan
         sodipodi:role="line"
         id="tspan7"
         style="stroke-width:4.80633"
         x="1801.1638"
         y="659.71564">TEMP</tspan></text>
    <text
       xml:space="preserve"
       style="font-style:normal;font-variant:normal;font-weight:800;font-stretch:condensed;font-size:121.762px;line-height:163.492px;font-family:Gorton;-inkscape-font-specification:'Gorton Ultra-Bold Condensed';text-align:center;letter-spacing:-7.62246px;text-anchor:middle;fill:#050505;fill-opacity:1;stroke-width:4.80633"
       x="906.755"
       y="1521.0479"
       id="text7-8"><tspan
         sodipodi:role="line"
         id="tspan7-8"
         style="letter-spacing:-7.62246px;stroke-width:4.80633"
         x="902.94379"
         y="1521.0479">STBY</tspan></text>
    <text
       xml:space="preserve"
       style="font-style:normal;font-variant:normal;font-weight:800;font-stretch:condensed;font-size:121.762px;line-height:163.492px;font-family:Gorton;-inkscape-font-specification:'Gorton Ultra-Bold Condensed';text-align:center;letter-spacing:-7.62246px;text-anchor:middle;fill:#050505;fill-opacity:1;stroke-width:4.80633"
       x="1803.2397"
       y="2803.175"
       id="text7-8-9"><tspan
         sodipodi:role="line"
         id="tspan7-8-03"
         style="letter-spacing:-7.62246px;stroke-width:4.80633"
         x="1799.4285"
         y="2803.175">ALT</tspan></text>
    <text
       xml:space="preserve"
       style="font-style:normal;font-variant:normal;font-weight:800;font-stretch:condensed;font-size:121.762px;line-height:163.492px;font-family:Gorton;-inkscape-font-specification:'Gorton Ultra-Bold Condensed';text-align:center;letter-spacing:-7.62246px;text-anchor:middle;fill:#050505;fill-opacity:1;stroke-width:4.80633"
       x="1804.5023"
       y="3232.8936"
       id="text7-8-9-9"><tspan
         sodipodi:role="line"
         id="tspan7-8-03-6"
         style="letter-spacing:-7.62246px;stroke-width:4.80633"
         x="1800.691"
         y="3232.8936">VEL</tspan></text>
    <text
       xml:space="preserve"
       style="font-style:normal;font-variant:normal;font-weight:800;font-stretch:condensed;font-size:121.762px;line-height:163.492px;font-family:Gorton;-inkscape-font-specification:'Gorton Ultra-Bold Condensed';text-align:center;letter-spacing:-3.69803px;text-anchor:middle;fill:#050505;fill-opacity:1;stroke-width:4.80633"
       x="1802.4216"
       y="1520.3201"
       id="text7-8-1"><tspan
         sodipodi:role="line"
         id="tspan7-8-0"
         style="letter-spacing:-3.69803px;stroke-width:4.80633"
         x="1800.5726"
         y="1520.3201">PROG</tspan></text>
    <text
       xml:space="preserve"
       style="font-style:normal;font-variant:normal;font-weight:800;font-stretch:condensed;font-size:121.762px;line-height:163.492px;font-family:Gorton;-inkscape-font-specification:'Gorton Ultra-Bold Condensed';text-align:center;letter-spacing:-7.24511px;word-spacing:-6.33946px;text-anchor:middle;fill:#050505;fill-opacity:1;stroke-width:4.80633"
       x="1800.7719"
       y="1948.6583"
       id="text7-8-1-8"><tspan
         sodipodi:role="line"
         id="tspan7-8-0-7"
         style="letter-spacing:-7.24511px;word-spacing:-6.33946px;stroke-width:4.80633"
         x="1797.1493"
         y="1948.6583">RESTART</tspan></text>
    <text
       xml:space="preserve"
       style="font-style:normal;font-variant:normal;font-weight:800;font-stretch:condensed;font-size:121.762px;line-height:163.492px;font-family:Gorton;-inkscape-font-specification:'Gorton Ultra-Bold Condensed';text-align:center;letter-spacing:-2.49051px;word-spacing:-6.33946px;text-anchor:middle;fill:#050505;fill-opacity:1;stroke-width:4.80633"
       x="1802.0776"
       y="2377.0144"
       id="text7-8-1-8-3"><tspan
         sodipodi:role="line"
         id="tspan7-8-0-7-4"
         style="letter-spacing:-2.49051px;word-spacing:-6.33946px;stroke-width:4.80633"
         x="1800.8324"
         y="2377.0144">TRACKER</tspan></text>
    <text
       xml:space="preserve"
       style="font-style:normal;font-variant:normal;font-weight:800;font-stretch:condensed;font-size:121.762px;line-height:163.492px;font-family:Gorton;-inkscape-font-specification:'Gorton Ultra-Bold Condensed';text-align:center;letter-spacing:0.0961265px;word-spacing:7.62246px;text-anchor:middle;fill:#050505;fill-opacity:1;stroke-width:4.80633"
       x="907.24005"
       y="1091.3181"
       id="text7-0"><tspan
         sodipodi:role="line"
         id="tspan7-6"
         style="word-spacing:7.62246px;stroke-width:4.80633"
         x="904.29675"
         y="1091.3181">NO <tspan
   style="letter-spacing:-5.88665px;word-spacing:7.62246px;stroke-width:4.80633"
   id="tspan8">ATT</tspan></tspan></text>
    <text
       xml:space="preserve"
       style="font-style:normal;font-variant:normal;font-weight:800;font-stretch:condensed;font-size:121.762px;line-height:163.492px;font-family:Gorton;-inkscape-font-specification:'Gorton Ultra-Bold Condensed';text-align:center;letter-spacing:0.0961265px;word-spacing:7.62246px;text-anchor:middle;fill:#050505;fill-opacity:1;stroke-width:4.80633"
       x="908.53461"
       y="2804.1001"
       id="text7-0-5"><tspan
         sodipodi:role="line"
         id="tspan7-6-8"
         style="word-spacing:7.62246px;stroke-width:4.80633"
         x="908.58264"
         y="2804.1001">NO DAP<tspan
   style="letter-spacing:-5.88665px;word-spacing:7.62246px;stroke-width:4.80633"
   id="tspan8-5" /></tspan></text>
    <text
       xml:space="preserve"
       style="font-style:normal;font-variant:normal;font-weight:800;font-stretch:condensed;font-size:121.762px;line-height:163.492px;font-family:Gorton;-inkscape-font-specification:'Gorton Ultra-Bold Condensed';text-align:center;letter-spacing:0.0961265px;word-spacing:7.62246px;text-anchor:middle;fill:#050505;fill-opacity:1;stroke-width:4.80633"
       x="907.96039"
       y="3233.2419"
       id="text7-0-5-9"><tspan
         sodipodi:role="line"
         id="tspan7-6-8-4"
         style="word-spacing:7.62246px;stroke-width:4.80633"
         x="908.00842"
         y="3233.2419">PRIO DISP</tspan></text>
    <text
       xml:space="preserve"
       style="font-style:normal;font-variant:normal;font-weight:800;font-stretch:condensed;font-size:121.762px;line-height:163.492px;font-family:Gorton;-inkscape-font-specification:'Gorton Ultra-Bold Condensed';text-align:center;letter-spacing:0.0961265px;word-spacing:17.1316px;text-anchor:middle;fill:#050505;fill-opacity:1;stroke-width:4.80633"
       x="906.6817"
       y="1950.4799"
       id="text7-0-4"><tspan
         sodipodi:role="line"
         id="tspan7-6-5"
         style="word-spacing:17.1316px;stroke-width:4.80633"
         x="906.72974"
         y="1950.4799">KEY REL</tspan></text>
    <text
       xml:space="preserve"
       style="font-style:normal;font-variant:normal;font-weight:800;font-stretch:condensed;font-size:121.762px;line-height:163.492px;font-family:Gorton;-inkscape-font-specification:'Gorton Ultra-Bold Condensed';text-align:center;letter-spacing:0.0961265px;word-spacing:17.1316px;text-anchor:middle;fill:#050505;fill-opacity:1;stroke-width:4.80633"
       x="908.53461"
       y="2379.0264"
       id="text7-0-4-5"><tspan
         sodipodi:role="line"
         id="tspan7-6-5-5"
         style="word-spacing:17.1316px;stroke-width:4.80633"
         x="908.58264"
         y="2379.0264">OPR ERR</tspan></text>
  </g>
</svg>
