<?xml version="1.0" encoding="UTF-8" standalone="no"?>
<svg
   width="800px"
   height="800px"
   viewBox="0 0 24 24"
   version="1.1"
   id="svg1"
   sodipodi:docname="keyboard-show.svg"
   inkscape:version="1.3.2 (091e20e, 2023-11-25, custom)"
   xmlns:inkscape="http://www.inkscape.org/namespaces/inkscape"
   xmlns:sodipodi="http://sodipodi.sourceforge.net/DTD/sodipodi-0.dtd"
   xmlns="http://www.w3.org/2000/svg"
   xmlns:svg="http://www.w3.org/2000/svg"
   xmlns:rdf="http://www.w3.org/1999/02/22-rdf-syntax-ns#"
   xmlns:cc="http://creativecommons.org/ns#"
   xmlns:dc="http://purl.org/dc/elements/1.1/">
  <defs
     id="defs1" />
  <sodipodi:namedview
     id="namedview1"
     pagecolor="#505050"
     bordercolor="#eeeeee"
     borderopacity="1"
     inkscape:showpageshadow="0"
     inkscape:pageopacity="0"
     inkscape:pagecheckerboard="0"
     inkscape:deskcolor="#505050"
     inkscape:zoom="0.716875"
     inkscape:cx="139.49433"
     inkscape:cy="575.41412"
     inkscape:window-width="2560"
     inkscape:window-height="1361"
     inkscape:window-x="-9"
     inkscape:window-y="-9"
     inkscape:window-maximized="1"
     inkscape:current-layer="ðŸ”-Product-Icons" />
  <!-- Uploaded to: SVG Repo, www.svgrepo.com, Generator: SVG Repo Mixer Tools -->
  <title
     id="title1">ic_fluent_keyboard_dock_24_regular</title>
  <desc
     id="desc1">Created with Sketch.</desc>
  <g
     id="ðŸ”-Product-Icons"
     stroke="none"
     stroke-width="1"
     fill="none"
     fill-rule="evenodd">
    <g
       id="ic_fluent_keyboard_dock_24_regular"
       fill="#212121"
       fill-rule="nonzero"
       transform="translate(0,5.34)">
      <path
         d="m 19.747682,2.5 c 1.242641,0 2.25,1.0073593 2.25,2.25 v 9.504591 c 0,1.242641 -1.007359,2.25 -2.25,2.25 H 4.2523179 c -1.2426407,0 -2.25,-1.007359 -2.25,-2.25 V 4.75 c 0,-1.2426407 1.0073593,-2.25 2.25,-2.25 z m 0,1.5 H 4.2523179 c -0.4142135,0 -0.75,0.3357864 -0.75,0.75 v 9.504591 c 0,0.414214 0.3357865,0.75 0.75,0.75 H 19.747682 c 0.414214,0 0.75,-0.335786 0.75,-0.75 V 4.75 c 0,-0.4142136 -0.335786,-0.75 -0.75,-0.75 z M 6.7523179,12 H 17.252318 c 0.414214,0 0.75,0.335786 0.75,0.75 0,0.379696 -0.282154,0.693491 -0.64823,0.743153 L 17.252318,13.5 H 6.7523179 c -0.4142135,0 -0.75,-0.335786 -0.75,-0.75 0,-0.379696 0.2821539,-0.693491 0.6482295,-0.743153 z M 16.502318,8.5 c 0.552285,0 1,0.4477153 1,1 0,0.552285 -0.447715,1 -1,1 -0.552285,0 -1,-0.447715 -1,-1 0,-0.5522847 0.447715,-1 1,-1 z m -5.995125,0 c 0.552285,0 1,0.4477153 1,1 0,0.552285 -0.447715,1 -1,1 -0.5522846,0 -0.9999999,-0.447715 -0.9999999,-1 0,-0.5522847 0.4477153,-1 0.9999999,-1 z m -2.9999999,0 c 0.5522848,0 1,0.4477153 1,1 0,0.552285 -0.4477152,1 -1,1 -0.5522847,0 -1,-0.447715 -1,-1 0,-0.5522847 0.4477153,-1 1,-1 z m 5.9999999,0 c 0.552285,0 1,0.4477153 1,1 0,0.552285 -0.447715,1 -1,1 -0.552285,0 -1,-0.447715 -1,-1 0,-0.5522847 0.447715,-1 1,-1 z m -7.5048751,-3 c 0.5522848,0 1,0.4477152 1,1 0,0.5522847 -0.4477152,1 -1,1 -0.5522847,0 -1,-0.4477153 -1,-1 0,-0.5522848 0.4477153,-1 1,-1 z m 2.9951248,0 c 0.5522848,0 1,0.4477152 1,1 0,0.5522847 -0.4477152,1 -1,1 -0.5522847,0 -1,-0.4477153 -1,-1 0,-0.5522848 0.4477153,-1 1,-1 z m 3.0000003,0 c 0.552284,0 1,0.4477152 1,1 0,0.5522847 -0.447716,1 -1,1 -0.552285,0 -1,-0.4477153 -1,-1 0,-0.5522848 0.447715,-1 1,-1 z m 3,0 c 0.552284,0 1,0.4477152 1,1 0,0.5522847 -0.447716,1 -1,1 -0.552285,0 -1,-0.4477153 -1,-1 0,-0.5522848 0.447715,-1 1,-1 z m 3,0 c 0.552284,0 1,0.4477152 1,1 0,0.5522847 -0.447716,1 -1,1 -0.552285,0 -1,-0.4477153 -1,-1 0,-0.5522848 0.447715,-1 1,-1 z"
         id="ðŸŽ¨-Color"
         sodipodi:nodetypes="sssssssssssssssssscssccssccsssssssssssssssssssssssssssssssssssssssssssss" />
    </g>
    <path
       d="m 12.100012,2.1245229 c 0.13932,0.00968 0.276453,0.058095 0.393898,0.1452363 l 0.08412,0.072618 2.121321,2.1213204 c 0.292893,0.292893 0.292893,0.767767 0,1.06066 -0.266267,0.266267 -0.682931,0.290473 -0.976542,0.07262 l -0.08412,-0.07262 -0.84131,-0.840835 3.21e-4,3.189185 c 0,0.379696 -0.282154,0.69349 -0.648229,0.743153 l -0.101771,0.0069 c -0.414214,0 -0.75,-0.335787 -0.75,-0.75 l -3.2e-4,-3.189185 -0.84067,0.840835 C 10.190443,5.7906277 9.7737803,5.8148337 9.4801683,5.5969787 l -0.08412,-0.07262 c -0.266269,-0.266266 -0.290475,-0.68293 -0.072622,-0.976541 l 0.07262,-0.084116 2.1213197,-2.1213208 c 0.106507,-0.1065072 0.237077,-0.1742841 0.37421,-0.2033314 l 0.103807,-0.014524 z"
       id="path1"
       inkscape:label="path1"
       style="fill:#212121;fill-opacity:1" />
  </g>
  <metadata
     id="metadata1">
    <rdf:RDF>
      <cc:Work
         rdf:about="">
        <dc:title>ic_fluent_keyboard_dock_24_regular</dc:title>
      </cc:Work>
    </rdf:RDF>
  </metadata>
</svg>
