<?xml version="1.0" encoding="UTF-8" standalone="no"?>
<!-- Created with Inkscape (http://www.inkscape.org/) -->

<svg
   width="135.75858mm"
   height="126.00201mm"
   viewBox="0 0 135.75857 126.002"
   version="1.1"
   id="svg1"
   sodipodi:docname="comp_acty.svg"
   inkscape:version="1.3.2 (091e20e, 2023-11-25, custom)"
   xmlns:inkscape="http://www.inkscape.org/namespaces/inkscape"
   xmlns:sodipodi="http://sodipodi.sourceforge.net/DTD/sodipodi-0.dtd"
   xmlns="http://www.w3.org/2000/svg"
   xmlns:svg="http://www.w3.org/2000/svg">
  <sodipodi:namedview
     id="namedview1"
     pagecolor="#ffffff"
     bordercolor="#000000"
     borderopacity="0.25"
     inkscape:showpageshadow="2"
     inkscape:pageopacity="0.0"
     inkscape:pagecheckerboard="0"
     inkscape:deskcolor="#d1d1d1"
     inkscape:document-units="mm"
     inkscape:zoom="1.359385"
     inkscape:cx="153.37818"
     inkscape:cy="257.83718"
     inkscape:window-width="2560"
     inkscape:window-height="1279"
     inkscape:window-x="-9"
     inkscape:window-y="-9"
     inkscape:window-maximized="1"
     inkscape:current-layer="layer1" />
  <defs
     id="defs1">
    <linearGradient
       id="linearGradient1"
       inkscape:swatch="gradient">
      <stop
         style="stop-color:#100d09;stop-opacity:1;"
         offset="0"
         id="stop1" />
      <stop
         style="stop-color:#000000;stop-opacity:1;"
         offset="1"
         id="stop2" />
    </linearGradient>
  </defs>
  <g
     inkscape:label="Capa 1"
     inkscape:groupmode="layer"
     id="layer1"
     transform="translate(-11.717381,-16.261358)">
    <rect
       style="fill:#00ad81;fill-opacity:1;stroke:none;stroke-width:0.590227"
       id="rect1-2"
       width="135.75858"
       height="126.00201"
       x="11.717381"
       y="16.261358" />
    <g
       id="g45"
       inkscape:label="COMP ACTY"
       transform="matrix(0.38327372,0,0,0.41856061,13.380524,19.894693)">
      <path
         style="fill:#000000"
         d="m 181.62285,179.12663 0.25,13.625 c 0,0 -1,8.375 3.625,8 4.625,-0.375 6.76562,-1.25 5.89062,-10 -0.64652,-6.46522 0.0427,-20.76182 0.13341,-22.2443 0.0421,-0.68742 0.48353,-2.31365 1.49159,-2.4469 0.71372,-0.0943 5.03,-0.91879 7.27053,-1.59778 1.50678,-0.45663 1.50267,-2.55858 1.46385,-3.83602 -0.12916,-4.24988 0.25,-6.25 -10.625,-6 -10.875,0.25 -20.5,-0.5 -20.25,5.75 0.25,6.25 0.99969,7.50861 4.375,7.625 3.79837,0.13098 6.51346,-0.6481 6.51229,1.14344 -0.001,2.02822 -0.1968,5.16118 -0.13729,9.98156 z"
         id="path44"
         sodipodi:nodetypes="ccssssssssssc"
         inkscape:label="T" />
      <path
         style="display:inline;opacity:1;fill:#000000"
         d="m 93.003836,120.57416 c 5.788174,0.71056 6.601392,-0.57951 6.601392,2.77925 0,3.35876 -0.441935,7.513 -7.336226,7.15945 -6.894292,-0.35355 -17.548344,-2.34824 -22.107812,-8.38615 -7.155237,-9.47537 -5.725698,-17.23925 -4.839912,-20.89704 0.868718,-3.58731 4.185815,-10.184373 10.486043,-12.464595 6.710134,-2.428578 21.709928,-3.415622 21.85337,0.912375 0.07026,2.119989 0.261031,3.983006 -0.799617,4.811794 -1.65781,1.295409 -7.387916,1.015667 -10.690869,1.431605 -7.309584,0.92049 -9.476398,6.061431 -9.91834,10.746011 -0.456666,4.84067 2.649217,9.49997 5.145369,10.58776 4.610068,2.00901 5.81843,2.60898 11.606602,3.31954 z"
         id="path38"
         sodipodi:nodetypes="zssssssssssz"
         inkscape:label="C" />
      <path
         id="path39"
         style="display:inline;opacity:1;fill:#000000"
         d="m 134.47287,85.642242 c -10.96791,-0.07561 -24.26194,4.140789 -24.13664,23.038758 0.1253,18.89797 15.78662,21.82062 26.03661,21.82062 10.24999,0 20.65015,-6.52349 21,-21.27037 0.37496,-15.805117 -6.98864,-23.479323 -22.89997,-23.589008 z m -0.69435,10.229512 c 3.89011,-0.118186 14.91248,1.785912 14.84432,12.379866 -0.0704,10.94326 -10.31926,11.72193 -14.50628,11.83211 -4.18702,0.11017 -14.25444,-0.75262 -14.43122,-12.33211 -0.14527,-9.515548 8.33935,-11.705059 14.09318,-11.879866 z"
         sodipodi:nodetypes="szssssszss"
         inkscape:label="O" />
      <path
         style="display:inline;opacity:1;fill:#000000"
         d="m 169.74785,127.37663 5.375,-38.625 c 0,0 3.5,-10.875 9,-1.625 5.5,9.25 7.22473,13.00352 8,15 0.77527,1.99648 3.875,12 8.25,0.875 7.32466,-18.625569 7,-17.875 10.375,-17.625 3.375,0.25 3.875,-0.125 5.625,12.5 1.75,12.625 3.47511,30.58676 1.77275,30.85742 -1.28484,0.20428 -2.98917,0.21629 -3.81082,0.0795 -2.216,-0.36901 -3.37998,-10.76568 -3.96193,-12.81188 -1.20083,-4.22227 -1.27973,-8.65994 -3.875,-3.875 -3.66223,6.75211 -6.63383,15.16651 -9.72985,15.16919 -3.0166,0.003 -7.38116,-7.93686 -10.27015,-12.91919 -2.48447,-4.2847 -4.25,-9.125 -5.625,-2.25 -1.375,6.875 -3,16.875 -5.75,17 -2.75,0.125 -5.75,1.375 -5.375,-1.75 z"
         id="path40"
         sodipodi:nodetypes="ccszssssssssssscc"
         inkscape:label="M" />
      <path
         id="path41"
         style="display:inline;opacity:1;fill:#000000"
         d="m 241.9998,85.435211 c -10.69498,-0.26516 -8.3086,8.75 -8.3086,8.75 l -0.4424,24.924859 c -0.0884,6.98268 2.38585,8.22121 6.00976,8.13281 3.62393,-0.0884 3.80029,-1.8559 4.06546,-7.51275 0.13194,-2.8147 -0.0919,-5.50226 2.03703,-5.64706 2.0912,-0.14224 9.07427,0.42688 12.54836,-1.20285 2.34903,-1.10195 6.14926,-3.25709 6.86945,-6.24036 0.72298,-2.99484 0.85025,-7.333582 0.82055,-9.802305 -0.0226,-1.879287 -0.36821,-6.432228 -4.03584,-8.521428 -4.71936,-2.688298 -13.5457,-2.73171 -19.56377,-2.880916 z m 12.39372,14.053037 c 0.15257,4.435642 -3.91094,4.659312 -6.11944,4.774092 -2.95406,0.15353 -3.90943,0.14725 -5.03795,-1.14939 -1.12852,-1.29664 -1.36099,-4.79463 -0.57403,-6.143884 0.78695,-1.349254 3.62121,-1.776991 6.30134,-1.776962 2.47003,2.7e-5 5.30508,0.66197 5.43008,4.296144 z"
         sodipodi:nodetypes="sccsssssssssszzss"
         inkscape:label="P" />
      <path
         id="path42"
         style="display:inline;opacity:1;fill:#000000"
         d="m 100.658,159.36685 c -0.44238,-0.0159 -0.910157,-0.006 -1.410156,0.01 -3.999996,0.125 -7.375,8.625 -7.375,8.625 0,0 -8.213407,12.84688 -13,23.875 -1.231805,2.83803 -2.384627,9.46495 -1.076569,9.81961 1.6111,0.43683 5.184004,1.15652 5.849317,1.1362 1.085247,-0.0332 1.102254,0.91919 3.352252,-4.58081 0.767434,-1.87595 1.90899,-4.70471 3.175072,-5.37646 1.065233,-0.56519 5.260959,-0.12645 10.449924,-0.37354 3.88254,-0.18488 7.40567,-0.30725 8.40422,0.23967 0.9814,0.53754 1.64346,3.54753 2.72078,5.38533 0.96868,1.65246 1.35825,2.88525 2.75096,2.84703 1.66248,-0.0456 3.93198,-0.99395 5.93654,-2.72203 1.8125,-1.5625 -6.81249,-17.25001 -11.0625,-28 -3.71874,-9.40624 -5.61817,-10.77368 -8.71484,-10.88477 z m -0.39258,14.00391 c 1.52265,-0.0559 2.83203,3.14649 4.04492,6.38086 1.6875,4.49999 -4.562496,3.875 -4.562496,3.875 -6.749989,0.3125 -3.749998,-4.18751 -1.375,-8.5 0.667966,-1.21289 1.296761,-1.73398 1.892576,-1.75586 z"
         sodipodi:nodetypes="cccsssssssssssccsscss"
         inkscape:label="A" />
      <path
         style="opacity:1;fill:#000000"
         d="m 159.62285,164.68729 c 0,0 1.52319,-7.31971 -3.27881,-7.18566 -4.1961,0.11714 -14.34702,0.0785 -18.73433,2.06725 -6.52905,2.95962 -10.9121,9.68319 -10.98686,17.68275 -0.125,13.375 7.125,22.75 16.75,23.25 9.625,0.5 19.25,-2 20.375,-6.125 1.125,-4.125 -3.5,-7.125 -10.25,-4.75 -6.75,2.375 -14.625,-1 -15.375,-7.125 -0.75,-6.125 1.96626,-12.7882 8.15273,-13.80806 6.25,-1.03033 13.22227,-2.13388 13.34727,-4.00628 z"
         id="path43"
         sodipodi:nodetypes="cssssssssc"
         inkscape:label="C" />
      <path
         style="display:inline;opacity:1;fill:#000000"
         d="m 231.93535,201.93914 c -1.06559,-0.026 -3.15162,0.26836 -4.0338,-1.47851 -1.23926,-2.45397 -1.22437,-7.28774 -1.2162,-8.334 0.0518,-6.63329 0.3832,-15.46892 0.0985,-16.39425 -0.55468,-1.80295 -2.34033,-2.79165 -4.03602,-4.54325 -5.6875,-5.875 -9.68339,-11.5096 -7.90625,-12.25 1.8958,-0.78984 6.79559,-0.95884 8.56442,-0.72981 0.58063,0.0752 3.38956,2.79076 5.15433,4.72981 1.52678,1.67756 2.94169,2.21931 3.38365,2.21186 1.30514,-0.022 4.72711,-3.73031 5.50652,-4.32928 2.26607,-1.74146 5.65678,-5.27007 7.04559,-5.17651 2.0638,0.13904 6.9915,1.72214 6.53337,2.82778 -1.52309,3.67579 -4.27292,7.77474 -5.59413,9.21615 -1.53429,1.67388 -4.93335,5.31044 -7.06857,7.06817 -0.52807,0.43471 -0.76769,6.46545 -0.90018,8.74433 -0.33829,5.81856 -0.53695,16.72776 -1.82125,17.43666 -1.41224,0.77952 -2.67919,1.02599 -3.71,1.00085 z"
         id="path45"
         sodipodi:nodetypes="ssssssssssssssssss"
         inkscape:label="Y" />
    </g>
  </g>
</svg>
