%TF.GenerationSoftware,KiCad,Pcbnew,7.0.6*%
%TF.CreationDate,2024-03-01T12:47:37+01:00*%
%TF.ProjectId,Main_board,4d61696e-5f62-46f6-9172-642e6b696361,1.0.1*%
%TF.SameCoordinates,Original*%
%TF.FileFunction,Legend,Bot*%
%TF.FilePolarity,Positive*%
%FSLAX46Y46*%
G04 Gerber Fmt 4.6, Leading zero omitted, Abs format (unit mm)*
G04 Created by KiCad (PCBNEW 7.0.6) date 2024-03-01 12:47:37*
%MOMM*%
%LPD*%
G01*
G04 APERTURE LIST*
G04 Aperture macros list*
%AMRoundRect*
0 Rectangle with rounded corners*
0 $1 Rounding radius*
0 $2 $3 $4 $5 $6 $7 $8 $9 X,Y pos of 4 corners*
0 Add a 4 corners polygon primitive as box body*
4,1,4,$2,$3,$4,$5,$6,$7,$8,$9,$2,$3,0*
0 Add four circle primitives for the rounded corners*
1,1,$1+$1,$2,$3*
1,1,$1+$1,$4,$5*
1,1,$1+$1,$6,$7*
1,1,$1+$1,$8,$9*
0 Add four rect primitives between the rounded corners*
20,1,$1+$1,$2,$3,$4,$5,0*
20,1,$1+$1,$4,$5,$6,$7,0*
20,1,$1+$1,$6,$7,$8,$9,0*
20,1,$1+$1,$8,$9,$2,$3,0*%
G04 Aperture macros list end*
%ADD10C,0.150000*%
%ADD11C,0.120000*%
%ADD12C,4.000000*%
%ADD13C,2.200000*%
%ADD14RoundRect,0.250000X0.650000X-1.500000X0.650000X1.500000X-0.650000X1.500000X-0.650000X-1.500000X0*%
%ADD15R,1.700000X1.700000*%
%ADD16O,1.700000X1.700000*%
%ADD17RoundRect,0.250000X0.600000X0.725000X-0.600000X0.725000X-0.600000X-0.725000X0.600000X-0.725000X0*%
%ADD18O,1.700000X1.950000*%
%ADD19RoundRect,0.250000X1.500000X0.650000X-1.500000X0.650000X-1.500000X-0.650000X1.500000X-0.650000X0*%
G04 APERTURE END LIST*
D10*
X226627220Y-171716819D02*
X226627220Y-172526342D01*
X226627220Y-172526342D02*
X226579601Y-172621580D01*
X226579601Y-172621580D02*
X226531982Y-172669200D01*
X226531982Y-172669200D02*
X226436744Y-172716819D01*
X226436744Y-172716819D02*
X226246268Y-172716819D01*
X226246268Y-172716819D02*
X226151030Y-172669200D01*
X226151030Y-172669200D02*
X226103411Y-172621580D01*
X226103411Y-172621580D02*
X226055792Y-172526342D01*
X226055792Y-172526342D02*
X226055792Y-171716819D01*
X225579601Y-172716819D02*
X225579601Y-171716819D01*
X225579601Y-171716819D02*
X225008173Y-172716819D01*
X225008173Y-172716819D02*
X225008173Y-171716819D01*
X224341506Y-171716819D02*
X224151030Y-171716819D01*
X224151030Y-171716819D02*
X224055792Y-171764438D01*
X224055792Y-171764438D02*
X223960554Y-171859676D01*
X223960554Y-171859676D02*
X223912935Y-172050152D01*
X223912935Y-172050152D02*
X223912935Y-172383485D01*
X223912935Y-172383485D02*
X223960554Y-172573961D01*
X223960554Y-172573961D02*
X224055792Y-172669200D01*
X224055792Y-172669200D02*
X224151030Y-172716819D01*
X224151030Y-172716819D02*
X224341506Y-172716819D01*
X224341506Y-172716819D02*
X224436744Y-172669200D01*
X224436744Y-172669200D02*
X224531982Y-172573961D01*
X224531982Y-172573961D02*
X224579601Y-172383485D01*
X224579601Y-172383485D02*
X224579601Y-172050152D01*
X224579601Y-172050152D02*
X224531982Y-171859676D01*
X224531982Y-171859676D02*
X224436744Y-171764438D01*
X224436744Y-171764438D02*
X224341506Y-171716819D01*
X205011819Y-115339905D02*
X204011819Y-115339905D01*
X204011819Y-115339905D02*
X204011819Y-115578000D01*
X204011819Y-115578000D02*
X204059438Y-115720857D01*
X204059438Y-115720857D02*
X204154676Y-115816095D01*
X204154676Y-115816095D02*
X204249914Y-115863714D01*
X204249914Y-115863714D02*
X204440390Y-115911333D01*
X204440390Y-115911333D02*
X204583247Y-115911333D01*
X204583247Y-115911333D02*
X204773723Y-115863714D01*
X204773723Y-115863714D02*
X204868961Y-115816095D01*
X204868961Y-115816095D02*
X204964200Y-115720857D01*
X204964200Y-115720857D02*
X205011819Y-115578000D01*
X205011819Y-115578000D02*
X205011819Y-115339905D01*
X204011819Y-116816095D02*
X204011819Y-116339905D01*
X204011819Y-116339905D02*
X204488009Y-116292286D01*
X204488009Y-116292286D02*
X204440390Y-116339905D01*
X204440390Y-116339905D02*
X204392771Y-116435143D01*
X204392771Y-116435143D02*
X204392771Y-116673238D01*
X204392771Y-116673238D02*
X204440390Y-116768476D01*
X204440390Y-116768476D02*
X204488009Y-116816095D01*
X204488009Y-116816095D02*
X204583247Y-116863714D01*
X204583247Y-116863714D02*
X204821342Y-116863714D01*
X204821342Y-116863714D02*
X204916580Y-116816095D01*
X204916580Y-116816095D02*
X204964200Y-116768476D01*
X204964200Y-116768476D02*
X205011819Y-116673238D01*
X205011819Y-116673238D02*
X205011819Y-116435143D01*
X205011819Y-116435143D02*
X204964200Y-116339905D01*
X204964200Y-116339905D02*
X204916580Y-116292286D01*
X254287819Y-164139714D02*
X253287819Y-164139714D01*
X253287819Y-164139714D02*
X253287819Y-164377809D01*
X253287819Y-164377809D02*
X253335438Y-164520666D01*
X253335438Y-164520666D02*
X253430676Y-164615904D01*
X253430676Y-164615904D02*
X253525914Y-164663523D01*
X253525914Y-164663523D02*
X253716390Y-164711142D01*
X253716390Y-164711142D02*
X253859247Y-164711142D01*
X253859247Y-164711142D02*
X254049723Y-164663523D01*
X254049723Y-164663523D02*
X254144961Y-164615904D01*
X254144961Y-164615904D02*
X254240200Y-164520666D01*
X254240200Y-164520666D02*
X254287819Y-164377809D01*
X254287819Y-164377809D02*
X254287819Y-164139714D01*
X254287819Y-165663523D02*
X254287819Y-165092095D01*
X254287819Y-165377809D02*
X253287819Y-165377809D01*
X253287819Y-165377809D02*
X253430676Y-165282571D01*
X253430676Y-165282571D02*
X253525914Y-165187333D01*
X253525914Y-165187333D02*
X253573533Y-165092095D01*
X253621152Y-166520666D02*
X254287819Y-166520666D01*
X253240200Y-166282571D02*
X253954485Y-166044476D01*
X253954485Y-166044476D02*
X253954485Y-166663523D01*
X278925819Y-139501714D02*
X277925819Y-139501714D01*
X277925819Y-139501714D02*
X277925819Y-139739809D01*
X277925819Y-139739809D02*
X277973438Y-139882666D01*
X277973438Y-139882666D02*
X278068676Y-139977904D01*
X278068676Y-139977904D02*
X278163914Y-140025523D01*
X278163914Y-140025523D02*
X278354390Y-140073142D01*
X278354390Y-140073142D02*
X278497247Y-140073142D01*
X278497247Y-140073142D02*
X278687723Y-140025523D01*
X278687723Y-140025523D02*
X278782961Y-139977904D01*
X278782961Y-139977904D02*
X278878200Y-139882666D01*
X278878200Y-139882666D02*
X278925819Y-139739809D01*
X278925819Y-139739809D02*
X278925819Y-139501714D01*
X278925819Y-141025523D02*
X278925819Y-140454095D01*
X278925819Y-140739809D02*
X277925819Y-140739809D01*
X277925819Y-140739809D02*
X278068676Y-140644571D01*
X278068676Y-140644571D02*
X278163914Y-140549333D01*
X278163914Y-140549333D02*
X278211533Y-140454095D01*
X277925819Y-141358857D02*
X277925819Y-142025523D01*
X277925819Y-142025523D02*
X278925819Y-141596952D01*
X229649819Y-164139714D02*
X228649819Y-164139714D01*
X228649819Y-164139714D02*
X228649819Y-164377809D01*
X228649819Y-164377809D02*
X228697438Y-164520666D01*
X228697438Y-164520666D02*
X228792676Y-164615904D01*
X228792676Y-164615904D02*
X228887914Y-164663523D01*
X228887914Y-164663523D02*
X229078390Y-164711142D01*
X229078390Y-164711142D02*
X229221247Y-164711142D01*
X229221247Y-164711142D02*
X229411723Y-164663523D01*
X229411723Y-164663523D02*
X229506961Y-164615904D01*
X229506961Y-164615904D02*
X229602200Y-164520666D01*
X229602200Y-164520666D02*
X229649819Y-164377809D01*
X229649819Y-164377809D02*
X229649819Y-164139714D01*
X229649819Y-165663523D02*
X229649819Y-165092095D01*
X229649819Y-165377809D02*
X228649819Y-165377809D01*
X228649819Y-165377809D02*
X228792676Y-165282571D01*
X228792676Y-165282571D02*
X228887914Y-165187333D01*
X228887914Y-165187333D02*
X228935533Y-165092095D01*
X229649819Y-166615904D02*
X229649819Y-166044476D01*
X229649819Y-166330190D02*
X228649819Y-166330190D01*
X228649819Y-166330190D02*
X228792676Y-166234952D01*
X228792676Y-166234952D02*
X228887914Y-166139714D01*
X228887914Y-166139714D02*
X228935533Y-166044476D01*
X205238819Y-126412666D02*
X205953104Y-126412666D01*
X205953104Y-126412666D02*
X206095961Y-126365047D01*
X206095961Y-126365047D02*
X206191200Y-126269809D01*
X206191200Y-126269809D02*
X206238819Y-126126952D01*
X206238819Y-126126952D02*
X206238819Y-126031714D01*
X205238819Y-126793619D02*
X205238819Y-127412666D01*
X205238819Y-127412666D02*
X205619771Y-127079333D01*
X205619771Y-127079333D02*
X205619771Y-127222190D01*
X205619771Y-127222190D02*
X205667390Y-127317428D01*
X205667390Y-127317428D02*
X205715009Y-127365047D01*
X205715009Y-127365047D02*
X205810247Y-127412666D01*
X205810247Y-127412666D02*
X206048342Y-127412666D01*
X206048342Y-127412666D02*
X206143580Y-127365047D01*
X206143580Y-127365047D02*
X206191200Y-127317428D01*
X206191200Y-127317428D02*
X206238819Y-127222190D01*
X206238819Y-127222190D02*
X206238819Y-126936476D01*
X206238819Y-126936476D02*
X206191200Y-126841238D01*
X206191200Y-126841238D02*
X206143580Y-126793619D01*
X228098819Y-126412666D02*
X228813104Y-126412666D01*
X228813104Y-126412666D02*
X228955961Y-126365047D01*
X228955961Y-126365047D02*
X229051200Y-126269809D01*
X229051200Y-126269809D02*
X229098819Y-126126952D01*
X229098819Y-126126952D02*
X229098819Y-126031714D01*
X228194057Y-126841238D02*
X228146438Y-126888857D01*
X228146438Y-126888857D02*
X228098819Y-126984095D01*
X228098819Y-126984095D02*
X228098819Y-127222190D01*
X228098819Y-127222190D02*
X228146438Y-127317428D01*
X228146438Y-127317428D02*
X228194057Y-127365047D01*
X228194057Y-127365047D02*
X228289295Y-127412666D01*
X228289295Y-127412666D02*
X228384533Y-127412666D01*
X228384533Y-127412666D02*
X228527390Y-127365047D01*
X228527390Y-127365047D02*
X229098819Y-126793619D01*
X229098819Y-126793619D02*
X229098819Y-127412666D01*
X205011819Y-164615905D02*
X204011819Y-164615905D01*
X204011819Y-164615905D02*
X204011819Y-164854000D01*
X204011819Y-164854000D02*
X204059438Y-164996857D01*
X204059438Y-164996857D02*
X204154676Y-165092095D01*
X204154676Y-165092095D02*
X204249914Y-165139714D01*
X204249914Y-165139714D02*
X204440390Y-165187333D01*
X204440390Y-165187333D02*
X204583247Y-165187333D01*
X204583247Y-165187333D02*
X204773723Y-165139714D01*
X204773723Y-165139714D02*
X204868961Y-165092095D01*
X204868961Y-165092095D02*
X204964200Y-164996857D01*
X204964200Y-164996857D02*
X205011819Y-164854000D01*
X205011819Y-164854000D02*
X205011819Y-164615905D01*
X204011819Y-165520667D02*
X204011819Y-166187333D01*
X204011819Y-166187333D02*
X205011819Y-165758762D01*
X276931285Y-121104819D02*
X276931285Y-120104819D01*
X276931285Y-120104819D02*
X276693190Y-120104819D01*
X276693190Y-120104819D02*
X276550333Y-120152438D01*
X276550333Y-120152438D02*
X276455095Y-120247676D01*
X276455095Y-120247676D02*
X276407476Y-120342914D01*
X276407476Y-120342914D02*
X276359857Y-120533390D01*
X276359857Y-120533390D02*
X276359857Y-120676247D01*
X276359857Y-120676247D02*
X276407476Y-120866723D01*
X276407476Y-120866723D02*
X276455095Y-120961961D01*
X276455095Y-120961961D02*
X276550333Y-121057200D01*
X276550333Y-121057200D02*
X276693190Y-121104819D01*
X276693190Y-121104819D02*
X276931285Y-121104819D01*
X275407476Y-121104819D02*
X275978904Y-121104819D01*
X275693190Y-121104819D02*
X275693190Y-120104819D01*
X275693190Y-120104819D02*
X275788428Y-120247676D01*
X275788428Y-120247676D02*
X275883666Y-120342914D01*
X275883666Y-120342914D02*
X275978904Y-120390533D01*
X274550333Y-120104819D02*
X274740809Y-120104819D01*
X274740809Y-120104819D02*
X274836047Y-120152438D01*
X274836047Y-120152438D02*
X274883666Y-120200057D01*
X274883666Y-120200057D02*
X274978904Y-120342914D01*
X274978904Y-120342914D02*
X275026523Y-120533390D01*
X275026523Y-120533390D02*
X275026523Y-120914342D01*
X275026523Y-120914342D02*
X274978904Y-121009580D01*
X274978904Y-121009580D02*
X274931285Y-121057200D01*
X274931285Y-121057200D02*
X274836047Y-121104819D01*
X274836047Y-121104819D02*
X274645571Y-121104819D01*
X274645571Y-121104819D02*
X274550333Y-121057200D01*
X274550333Y-121057200D02*
X274502714Y-121009580D01*
X274502714Y-121009580D02*
X274455095Y-120914342D01*
X274455095Y-120914342D02*
X274455095Y-120676247D01*
X274455095Y-120676247D02*
X274502714Y-120581009D01*
X274502714Y-120581009D02*
X274550333Y-120533390D01*
X274550333Y-120533390D02*
X274645571Y-120485771D01*
X274645571Y-120485771D02*
X274836047Y-120485771D01*
X274836047Y-120485771D02*
X274931285Y-120533390D01*
X274931285Y-120533390D02*
X274978904Y-120581009D01*
X274978904Y-120581009D02*
X275026523Y-120676247D01*
X229649819Y-139501714D02*
X228649819Y-139501714D01*
X228649819Y-139501714D02*
X228649819Y-139739809D01*
X228649819Y-139739809D02*
X228697438Y-139882666D01*
X228697438Y-139882666D02*
X228792676Y-139977904D01*
X228792676Y-139977904D02*
X228887914Y-140025523D01*
X228887914Y-140025523D02*
X229078390Y-140073142D01*
X229078390Y-140073142D02*
X229221247Y-140073142D01*
X229221247Y-140073142D02*
X229411723Y-140025523D01*
X229411723Y-140025523D02*
X229506961Y-139977904D01*
X229506961Y-139977904D02*
X229602200Y-139882666D01*
X229602200Y-139882666D02*
X229649819Y-139739809D01*
X229649819Y-139739809D02*
X229649819Y-139501714D01*
X229649819Y-141025523D02*
X229649819Y-140454095D01*
X229649819Y-140739809D02*
X228649819Y-140739809D01*
X228649819Y-140739809D02*
X228792676Y-140644571D01*
X228792676Y-140644571D02*
X228887914Y-140549333D01*
X228887914Y-140549333D02*
X228935533Y-140454095D01*
X228649819Y-141644571D02*
X228649819Y-141739809D01*
X228649819Y-141739809D02*
X228697438Y-141835047D01*
X228697438Y-141835047D02*
X228745057Y-141882666D01*
X228745057Y-141882666D02*
X228840295Y-141930285D01*
X228840295Y-141930285D02*
X229030771Y-141977904D01*
X229030771Y-141977904D02*
X229268866Y-141977904D01*
X229268866Y-141977904D02*
X229459342Y-141930285D01*
X229459342Y-141930285D02*
X229554580Y-141882666D01*
X229554580Y-141882666D02*
X229602200Y-141835047D01*
X229602200Y-141835047D02*
X229649819Y-141739809D01*
X229649819Y-141739809D02*
X229649819Y-141644571D01*
X229649819Y-141644571D02*
X229602200Y-141549333D01*
X229602200Y-141549333D02*
X229554580Y-141501714D01*
X229554580Y-141501714D02*
X229459342Y-141454095D01*
X229459342Y-141454095D02*
X229268866Y-141406476D01*
X229268866Y-141406476D02*
X229030771Y-141406476D01*
X229030771Y-141406476D02*
X228840295Y-141454095D01*
X228840295Y-141454095D02*
X228745057Y-141501714D01*
X228745057Y-141501714D02*
X228697438Y-141549333D01*
X228697438Y-141549333D02*
X228649819Y-141644571D01*
X180373819Y-164615905D02*
X179373819Y-164615905D01*
X179373819Y-164615905D02*
X179373819Y-164854000D01*
X179373819Y-164854000D02*
X179421438Y-164996857D01*
X179421438Y-164996857D02*
X179516676Y-165092095D01*
X179516676Y-165092095D02*
X179611914Y-165139714D01*
X179611914Y-165139714D02*
X179802390Y-165187333D01*
X179802390Y-165187333D02*
X179945247Y-165187333D01*
X179945247Y-165187333D02*
X180135723Y-165139714D01*
X180135723Y-165139714D02*
X180230961Y-165092095D01*
X180230961Y-165092095D02*
X180326200Y-164996857D01*
X180326200Y-164996857D02*
X180373819Y-164854000D01*
X180373819Y-164854000D02*
X180373819Y-164615905D01*
X179373819Y-165520667D02*
X179373819Y-166139714D01*
X179373819Y-166139714D02*
X179754771Y-165806381D01*
X179754771Y-165806381D02*
X179754771Y-165949238D01*
X179754771Y-165949238D02*
X179802390Y-166044476D01*
X179802390Y-166044476D02*
X179850009Y-166092095D01*
X179850009Y-166092095D02*
X179945247Y-166139714D01*
X179945247Y-166139714D02*
X180183342Y-166139714D01*
X180183342Y-166139714D02*
X180278580Y-166092095D01*
X180278580Y-166092095D02*
X180326200Y-166044476D01*
X180326200Y-166044476D02*
X180373819Y-165949238D01*
X180373819Y-165949238D02*
X180373819Y-165663524D01*
X180373819Y-165663524D02*
X180326200Y-165568286D01*
X180326200Y-165568286D02*
X180278580Y-165520667D01*
X210318819Y-174672666D02*
X211033104Y-174672666D01*
X211033104Y-174672666D02*
X211175961Y-174625047D01*
X211175961Y-174625047D02*
X211271200Y-174529809D01*
X211271200Y-174529809D02*
X211318819Y-174386952D01*
X211318819Y-174386952D02*
X211318819Y-174291714D01*
X210318819Y-175625047D02*
X210318819Y-175148857D01*
X210318819Y-175148857D02*
X210795009Y-175101238D01*
X210795009Y-175101238D02*
X210747390Y-175148857D01*
X210747390Y-175148857D02*
X210699771Y-175244095D01*
X210699771Y-175244095D02*
X210699771Y-175482190D01*
X210699771Y-175482190D02*
X210747390Y-175577428D01*
X210747390Y-175577428D02*
X210795009Y-175625047D01*
X210795009Y-175625047D02*
X210890247Y-175672666D01*
X210890247Y-175672666D02*
X211128342Y-175672666D01*
X211128342Y-175672666D02*
X211223580Y-175625047D01*
X211223580Y-175625047D02*
X211271200Y-175577428D01*
X211271200Y-175577428D02*
X211318819Y-175482190D01*
X211318819Y-175482190D02*
X211318819Y-175244095D01*
X211318819Y-175244095D02*
X211271200Y-175148857D01*
X211271200Y-175148857D02*
X211223580Y-175101238D01*
X254287819Y-114863714D02*
X253287819Y-114863714D01*
X253287819Y-114863714D02*
X253287819Y-115101809D01*
X253287819Y-115101809D02*
X253335438Y-115244666D01*
X253335438Y-115244666D02*
X253430676Y-115339904D01*
X253430676Y-115339904D02*
X253525914Y-115387523D01*
X253525914Y-115387523D02*
X253716390Y-115435142D01*
X253716390Y-115435142D02*
X253859247Y-115435142D01*
X253859247Y-115435142D02*
X254049723Y-115387523D01*
X254049723Y-115387523D02*
X254144961Y-115339904D01*
X254144961Y-115339904D02*
X254240200Y-115244666D01*
X254240200Y-115244666D02*
X254287819Y-115101809D01*
X254287819Y-115101809D02*
X254287819Y-114863714D01*
X254287819Y-116387523D02*
X254287819Y-115816095D01*
X254287819Y-116101809D02*
X253287819Y-116101809D01*
X253287819Y-116101809D02*
X253430676Y-116006571D01*
X253430676Y-116006571D02*
X253525914Y-115911333D01*
X253525914Y-115911333D02*
X253573533Y-115816095D01*
X253383057Y-116768476D02*
X253335438Y-116816095D01*
X253335438Y-116816095D02*
X253287819Y-116911333D01*
X253287819Y-116911333D02*
X253287819Y-117149428D01*
X253287819Y-117149428D02*
X253335438Y-117244666D01*
X253335438Y-117244666D02*
X253383057Y-117292285D01*
X253383057Y-117292285D02*
X253478295Y-117339904D01*
X253478295Y-117339904D02*
X253573533Y-117339904D01*
X253573533Y-117339904D02*
X253716390Y-117292285D01*
X253716390Y-117292285D02*
X254287819Y-116720857D01*
X254287819Y-116720857D02*
X254287819Y-117339904D01*
X237848819Y-174672666D02*
X238563104Y-174672666D01*
X238563104Y-174672666D02*
X238705961Y-174625047D01*
X238705961Y-174625047D02*
X238801200Y-174529809D01*
X238801200Y-174529809D02*
X238848819Y-174386952D01*
X238848819Y-174386952D02*
X238848819Y-174291714D01*
X238182152Y-175577428D02*
X238848819Y-175577428D01*
X237801200Y-175339333D02*
X238515485Y-175101238D01*
X238515485Y-175101238D02*
X238515485Y-175720285D01*
X229649819Y-115339905D02*
X228649819Y-115339905D01*
X228649819Y-115339905D02*
X228649819Y-115578000D01*
X228649819Y-115578000D02*
X228697438Y-115720857D01*
X228697438Y-115720857D02*
X228792676Y-115816095D01*
X228792676Y-115816095D02*
X228887914Y-115863714D01*
X228887914Y-115863714D02*
X229078390Y-115911333D01*
X229078390Y-115911333D02*
X229221247Y-115911333D01*
X229221247Y-115911333D02*
X229411723Y-115863714D01*
X229411723Y-115863714D02*
X229506961Y-115816095D01*
X229506961Y-115816095D02*
X229602200Y-115720857D01*
X229602200Y-115720857D02*
X229649819Y-115578000D01*
X229649819Y-115578000D02*
X229649819Y-115339905D01*
X229649819Y-116387524D02*
X229649819Y-116578000D01*
X229649819Y-116578000D02*
X229602200Y-116673238D01*
X229602200Y-116673238D02*
X229554580Y-116720857D01*
X229554580Y-116720857D02*
X229411723Y-116816095D01*
X229411723Y-116816095D02*
X229221247Y-116863714D01*
X229221247Y-116863714D02*
X228840295Y-116863714D01*
X228840295Y-116863714D02*
X228745057Y-116816095D01*
X228745057Y-116816095D02*
X228697438Y-116768476D01*
X228697438Y-116768476D02*
X228649819Y-116673238D01*
X228649819Y-116673238D02*
X228649819Y-116482762D01*
X228649819Y-116482762D02*
X228697438Y-116387524D01*
X228697438Y-116387524D02*
X228745057Y-116339905D01*
X228745057Y-116339905D02*
X228840295Y-116292286D01*
X228840295Y-116292286D02*
X229078390Y-116292286D01*
X229078390Y-116292286D02*
X229173628Y-116339905D01*
X229173628Y-116339905D02*
X229221247Y-116387524D01*
X229221247Y-116387524D02*
X229268866Y-116482762D01*
X229268866Y-116482762D02*
X229268866Y-116673238D01*
X229268866Y-116673238D02*
X229221247Y-116768476D01*
X229221247Y-116768476D02*
X229173628Y-116816095D01*
X229173628Y-116816095D02*
X229078390Y-116863714D01*
X254287819Y-139501714D02*
X253287819Y-139501714D01*
X253287819Y-139501714D02*
X253287819Y-139739809D01*
X253287819Y-139739809D02*
X253335438Y-139882666D01*
X253335438Y-139882666D02*
X253430676Y-139977904D01*
X253430676Y-139977904D02*
X253525914Y-140025523D01*
X253525914Y-140025523D02*
X253716390Y-140073142D01*
X253716390Y-140073142D02*
X253859247Y-140073142D01*
X253859247Y-140073142D02*
X254049723Y-140025523D01*
X254049723Y-140025523D02*
X254144961Y-139977904D01*
X254144961Y-139977904D02*
X254240200Y-139882666D01*
X254240200Y-139882666D02*
X254287819Y-139739809D01*
X254287819Y-139739809D02*
X254287819Y-139501714D01*
X254287819Y-141025523D02*
X254287819Y-140454095D01*
X254287819Y-140739809D02*
X253287819Y-140739809D01*
X253287819Y-140739809D02*
X253430676Y-140644571D01*
X253430676Y-140644571D02*
X253525914Y-140549333D01*
X253525914Y-140549333D02*
X253573533Y-140454095D01*
X253287819Y-141358857D02*
X253287819Y-141977904D01*
X253287819Y-141977904D02*
X253668771Y-141644571D01*
X253668771Y-141644571D02*
X253668771Y-141787428D01*
X253668771Y-141787428D02*
X253716390Y-141882666D01*
X253716390Y-141882666D02*
X253764009Y-141930285D01*
X253764009Y-141930285D02*
X253859247Y-141977904D01*
X253859247Y-141977904D02*
X254097342Y-141977904D01*
X254097342Y-141977904D02*
X254192580Y-141930285D01*
X254192580Y-141930285D02*
X254240200Y-141882666D01*
X254240200Y-141882666D02*
X254287819Y-141787428D01*
X254287819Y-141787428D02*
X254287819Y-141501714D01*
X254287819Y-141501714D02*
X254240200Y-141406476D01*
X254240200Y-141406476D02*
X254192580Y-141358857D01*
X173006333Y-126714819D02*
X173006333Y-127429104D01*
X173006333Y-127429104D02*
X173053952Y-127571961D01*
X173053952Y-127571961D02*
X173149190Y-127667200D01*
X173149190Y-127667200D02*
X173292047Y-127714819D01*
X173292047Y-127714819D02*
X173387285Y-127714819D01*
X172006333Y-127714819D02*
X172577761Y-127714819D01*
X172292047Y-127714819D02*
X172292047Y-126714819D01*
X172292047Y-126714819D02*
X172387285Y-126857676D01*
X172387285Y-126857676D02*
X172482523Y-126952914D01*
X172482523Y-126952914D02*
X172577761Y-127000533D01*
X205011819Y-139977905D02*
X204011819Y-139977905D01*
X204011819Y-139977905D02*
X204011819Y-140216000D01*
X204011819Y-140216000D02*
X204059438Y-140358857D01*
X204059438Y-140358857D02*
X204154676Y-140454095D01*
X204154676Y-140454095D02*
X204249914Y-140501714D01*
X204249914Y-140501714D02*
X204440390Y-140549333D01*
X204440390Y-140549333D02*
X204583247Y-140549333D01*
X204583247Y-140549333D02*
X204773723Y-140501714D01*
X204773723Y-140501714D02*
X204868961Y-140454095D01*
X204868961Y-140454095D02*
X204964200Y-140358857D01*
X204964200Y-140358857D02*
X205011819Y-140216000D01*
X205011819Y-140216000D02*
X205011819Y-139977905D01*
X204011819Y-141406476D02*
X204011819Y-141216000D01*
X204011819Y-141216000D02*
X204059438Y-141120762D01*
X204059438Y-141120762D02*
X204107057Y-141073143D01*
X204107057Y-141073143D02*
X204249914Y-140977905D01*
X204249914Y-140977905D02*
X204440390Y-140930286D01*
X204440390Y-140930286D02*
X204821342Y-140930286D01*
X204821342Y-140930286D02*
X204916580Y-140977905D01*
X204916580Y-140977905D02*
X204964200Y-141025524D01*
X204964200Y-141025524D02*
X205011819Y-141120762D01*
X205011819Y-141120762D02*
X205011819Y-141311238D01*
X205011819Y-141311238D02*
X204964200Y-141406476D01*
X204964200Y-141406476D02*
X204916580Y-141454095D01*
X204916580Y-141454095D02*
X204821342Y-141501714D01*
X204821342Y-141501714D02*
X204583247Y-141501714D01*
X204583247Y-141501714D02*
X204488009Y-141454095D01*
X204488009Y-141454095D02*
X204440390Y-141406476D01*
X204440390Y-141406476D02*
X204392771Y-141311238D01*
X204392771Y-141311238D02*
X204392771Y-141120762D01*
X204392771Y-141120762D02*
X204440390Y-141025524D01*
X204440390Y-141025524D02*
X204488009Y-140977905D01*
X204488009Y-140977905D02*
X204583247Y-140930286D01*
X296616285Y-169872819D02*
X296616285Y-168872819D01*
X296616285Y-168872819D02*
X296378190Y-168872819D01*
X296378190Y-168872819D02*
X296235333Y-168920438D01*
X296235333Y-168920438D02*
X296140095Y-169015676D01*
X296140095Y-169015676D02*
X296092476Y-169110914D01*
X296092476Y-169110914D02*
X296044857Y-169301390D01*
X296044857Y-169301390D02*
X296044857Y-169444247D01*
X296044857Y-169444247D02*
X296092476Y-169634723D01*
X296092476Y-169634723D02*
X296140095Y-169729961D01*
X296140095Y-169729961D02*
X296235333Y-169825200D01*
X296235333Y-169825200D02*
X296378190Y-169872819D01*
X296378190Y-169872819D02*
X296616285Y-169872819D01*
X295092476Y-169872819D02*
X295663904Y-169872819D01*
X295378190Y-169872819D02*
X295378190Y-168872819D01*
X295378190Y-168872819D02*
X295473428Y-169015676D01*
X295473428Y-169015676D02*
X295568666Y-169110914D01*
X295568666Y-169110914D02*
X295663904Y-169158533D01*
X294187714Y-168872819D02*
X294663904Y-168872819D01*
X294663904Y-168872819D02*
X294711523Y-169349009D01*
X294711523Y-169349009D02*
X294663904Y-169301390D01*
X294663904Y-169301390D02*
X294568666Y-169253771D01*
X294568666Y-169253771D02*
X294330571Y-169253771D01*
X294330571Y-169253771D02*
X294235333Y-169301390D01*
X294235333Y-169301390D02*
X294187714Y-169349009D01*
X294187714Y-169349009D02*
X294140095Y-169444247D01*
X294140095Y-169444247D02*
X294140095Y-169682342D01*
X294140095Y-169682342D02*
X294187714Y-169777580D01*
X294187714Y-169777580D02*
X294235333Y-169825200D01*
X294235333Y-169825200D02*
X294330571Y-169872819D01*
X294330571Y-169872819D02*
X294568666Y-169872819D01*
X294568666Y-169872819D02*
X294663904Y-169825200D01*
X294663904Y-169825200D02*
X294711523Y-169777580D01*
X147296094Y-145107819D02*
X147296094Y-144107819D01*
X147296094Y-144107819D02*
X147057999Y-144107819D01*
X147057999Y-144107819D02*
X146915142Y-144155438D01*
X146915142Y-144155438D02*
X146819904Y-144250676D01*
X146819904Y-144250676D02*
X146772285Y-144345914D01*
X146772285Y-144345914D02*
X146724666Y-144536390D01*
X146724666Y-144536390D02*
X146724666Y-144679247D01*
X146724666Y-144679247D02*
X146772285Y-144869723D01*
X146772285Y-144869723D02*
X146819904Y-144964961D01*
X146819904Y-144964961D02*
X146915142Y-145060200D01*
X146915142Y-145060200D02*
X147057999Y-145107819D01*
X147057999Y-145107819D02*
X147296094Y-145107819D01*
X145867523Y-144441152D02*
X145867523Y-145107819D01*
X146105618Y-144060200D02*
X146343713Y-144774485D01*
X146343713Y-144774485D02*
X145724666Y-144774485D01*
X180373819Y-139977905D02*
X179373819Y-139977905D01*
X179373819Y-139977905D02*
X179373819Y-140216000D01*
X179373819Y-140216000D02*
X179421438Y-140358857D01*
X179421438Y-140358857D02*
X179516676Y-140454095D01*
X179516676Y-140454095D02*
X179611914Y-140501714D01*
X179611914Y-140501714D02*
X179802390Y-140549333D01*
X179802390Y-140549333D02*
X179945247Y-140549333D01*
X179945247Y-140549333D02*
X180135723Y-140501714D01*
X180135723Y-140501714D02*
X180230961Y-140454095D01*
X180230961Y-140454095D02*
X180326200Y-140358857D01*
X180326200Y-140358857D02*
X180373819Y-140216000D01*
X180373819Y-140216000D02*
X180373819Y-139977905D01*
X179469057Y-140930286D02*
X179421438Y-140977905D01*
X179421438Y-140977905D02*
X179373819Y-141073143D01*
X179373819Y-141073143D02*
X179373819Y-141311238D01*
X179373819Y-141311238D02*
X179421438Y-141406476D01*
X179421438Y-141406476D02*
X179469057Y-141454095D01*
X179469057Y-141454095D02*
X179564295Y-141501714D01*
X179564295Y-141501714D02*
X179659533Y-141501714D01*
X179659533Y-141501714D02*
X179802390Y-141454095D01*
X179802390Y-141454095D02*
X180373819Y-140882667D01*
X180373819Y-140882667D02*
X180373819Y-141501714D01*
X147296094Y-169745819D02*
X147296094Y-168745819D01*
X147296094Y-168745819D02*
X147057999Y-168745819D01*
X147057999Y-168745819D02*
X146915142Y-168793438D01*
X146915142Y-168793438D02*
X146819904Y-168888676D01*
X146819904Y-168888676D02*
X146772285Y-168983914D01*
X146772285Y-168983914D02*
X146724666Y-169174390D01*
X146724666Y-169174390D02*
X146724666Y-169317247D01*
X146724666Y-169317247D02*
X146772285Y-169507723D01*
X146772285Y-169507723D02*
X146819904Y-169602961D01*
X146819904Y-169602961D02*
X146915142Y-169698200D01*
X146915142Y-169698200D02*
X147057999Y-169745819D01*
X147057999Y-169745819D02*
X147296094Y-169745819D01*
X146153237Y-169174390D02*
X146248475Y-169126771D01*
X146248475Y-169126771D02*
X146296094Y-169079152D01*
X146296094Y-169079152D02*
X146343713Y-168983914D01*
X146343713Y-168983914D02*
X146343713Y-168936295D01*
X146343713Y-168936295D02*
X146296094Y-168841057D01*
X146296094Y-168841057D02*
X146248475Y-168793438D01*
X146248475Y-168793438D02*
X146153237Y-168745819D01*
X146153237Y-168745819D02*
X145962761Y-168745819D01*
X145962761Y-168745819D02*
X145867523Y-168793438D01*
X145867523Y-168793438D02*
X145819904Y-168841057D01*
X145819904Y-168841057D02*
X145772285Y-168936295D01*
X145772285Y-168936295D02*
X145772285Y-168983914D01*
X145772285Y-168983914D02*
X145819904Y-169079152D01*
X145819904Y-169079152D02*
X145867523Y-169126771D01*
X145867523Y-169126771D02*
X145962761Y-169174390D01*
X145962761Y-169174390D02*
X146153237Y-169174390D01*
X146153237Y-169174390D02*
X146248475Y-169222009D01*
X146248475Y-169222009D02*
X146296094Y-169269628D01*
X146296094Y-169269628D02*
X146343713Y-169364866D01*
X146343713Y-169364866D02*
X146343713Y-169555342D01*
X146343713Y-169555342D02*
X146296094Y-169650580D01*
X146296094Y-169650580D02*
X146248475Y-169698200D01*
X146248475Y-169698200D02*
X146153237Y-169745819D01*
X146153237Y-169745819D02*
X145962761Y-169745819D01*
X145962761Y-169745819D02*
X145867523Y-169698200D01*
X145867523Y-169698200D02*
X145819904Y-169650580D01*
X145819904Y-169650580D02*
X145772285Y-169555342D01*
X145772285Y-169555342D02*
X145772285Y-169364866D01*
X145772285Y-169364866D02*
X145819904Y-169269628D01*
X145819904Y-169269628D02*
X145867523Y-169222009D01*
X145867523Y-169222009D02*
X145962761Y-169174390D01*
X296743285Y-145234819D02*
X296743285Y-144234819D01*
X296743285Y-144234819D02*
X296505190Y-144234819D01*
X296505190Y-144234819D02*
X296362333Y-144282438D01*
X296362333Y-144282438D02*
X296267095Y-144377676D01*
X296267095Y-144377676D02*
X296219476Y-144472914D01*
X296219476Y-144472914D02*
X296171857Y-144663390D01*
X296171857Y-144663390D02*
X296171857Y-144806247D01*
X296171857Y-144806247D02*
X296219476Y-144996723D01*
X296219476Y-144996723D02*
X296267095Y-145091961D01*
X296267095Y-145091961D02*
X296362333Y-145187200D01*
X296362333Y-145187200D02*
X296505190Y-145234819D01*
X296505190Y-145234819D02*
X296743285Y-145234819D01*
X295219476Y-145234819D02*
X295790904Y-145234819D01*
X295505190Y-145234819D02*
X295505190Y-144234819D01*
X295505190Y-144234819D02*
X295600428Y-144377676D01*
X295600428Y-144377676D02*
X295695666Y-144472914D01*
X295695666Y-144472914D02*
X295790904Y-144520533D01*
X294743285Y-145234819D02*
X294552809Y-145234819D01*
X294552809Y-145234819D02*
X294457571Y-145187200D01*
X294457571Y-145187200D02*
X294409952Y-145139580D01*
X294409952Y-145139580D02*
X294314714Y-144996723D01*
X294314714Y-144996723D02*
X294267095Y-144806247D01*
X294267095Y-144806247D02*
X294267095Y-144425295D01*
X294267095Y-144425295D02*
X294314714Y-144330057D01*
X294314714Y-144330057D02*
X294362333Y-144282438D01*
X294362333Y-144282438D02*
X294457571Y-144234819D01*
X294457571Y-144234819D02*
X294648047Y-144234819D01*
X294648047Y-144234819D02*
X294743285Y-144282438D01*
X294743285Y-144282438D02*
X294790904Y-144330057D01*
X294790904Y-144330057D02*
X294838523Y-144425295D01*
X294838523Y-144425295D02*
X294838523Y-144663390D01*
X294838523Y-144663390D02*
X294790904Y-144758628D01*
X294790904Y-144758628D02*
X294743285Y-144806247D01*
X294743285Y-144806247D02*
X294648047Y-144853866D01*
X294648047Y-144853866D02*
X294457571Y-144853866D01*
X294457571Y-144853866D02*
X294362333Y-144806247D01*
X294362333Y-144806247D02*
X294314714Y-144758628D01*
X294314714Y-144758628D02*
X294267095Y-144663390D01*
X180373819Y-115339905D02*
X179373819Y-115339905D01*
X179373819Y-115339905D02*
X179373819Y-115578000D01*
X179373819Y-115578000D02*
X179421438Y-115720857D01*
X179421438Y-115720857D02*
X179516676Y-115816095D01*
X179516676Y-115816095D02*
X179611914Y-115863714D01*
X179611914Y-115863714D02*
X179802390Y-115911333D01*
X179802390Y-115911333D02*
X179945247Y-115911333D01*
X179945247Y-115911333D02*
X180135723Y-115863714D01*
X180135723Y-115863714D02*
X180230961Y-115816095D01*
X180230961Y-115816095D02*
X180326200Y-115720857D01*
X180326200Y-115720857D02*
X180373819Y-115578000D01*
X180373819Y-115578000D02*
X180373819Y-115339905D01*
X180373819Y-116863714D02*
X180373819Y-116292286D01*
X180373819Y-116578000D02*
X179373819Y-116578000D01*
X179373819Y-116578000D02*
X179516676Y-116482762D01*
X179516676Y-116482762D02*
X179611914Y-116387524D01*
X179611914Y-116387524D02*
X179659533Y-116292286D01*
X278925819Y-164012714D02*
X277925819Y-164012714D01*
X277925819Y-164012714D02*
X277925819Y-164250809D01*
X277925819Y-164250809D02*
X277973438Y-164393666D01*
X277973438Y-164393666D02*
X278068676Y-164488904D01*
X278068676Y-164488904D02*
X278163914Y-164536523D01*
X278163914Y-164536523D02*
X278354390Y-164584142D01*
X278354390Y-164584142D02*
X278497247Y-164584142D01*
X278497247Y-164584142D02*
X278687723Y-164536523D01*
X278687723Y-164536523D02*
X278782961Y-164488904D01*
X278782961Y-164488904D02*
X278878200Y-164393666D01*
X278878200Y-164393666D02*
X278925819Y-164250809D01*
X278925819Y-164250809D02*
X278925819Y-164012714D01*
X278925819Y-165536523D02*
X278925819Y-164965095D01*
X278925819Y-165250809D02*
X277925819Y-165250809D01*
X277925819Y-165250809D02*
X278068676Y-165155571D01*
X278068676Y-165155571D02*
X278163914Y-165060333D01*
X278163914Y-165060333D02*
X278211533Y-164965095D01*
X278354390Y-166107952D02*
X278306771Y-166012714D01*
X278306771Y-166012714D02*
X278259152Y-165965095D01*
X278259152Y-165965095D02*
X278163914Y-165917476D01*
X278163914Y-165917476D02*
X278116295Y-165917476D01*
X278116295Y-165917476D02*
X278021057Y-165965095D01*
X278021057Y-165965095D02*
X277973438Y-166012714D01*
X277973438Y-166012714D02*
X277925819Y-166107952D01*
X277925819Y-166107952D02*
X277925819Y-166298428D01*
X277925819Y-166298428D02*
X277973438Y-166393666D01*
X277973438Y-166393666D02*
X278021057Y-166441285D01*
X278021057Y-166441285D02*
X278116295Y-166488904D01*
X278116295Y-166488904D02*
X278163914Y-166488904D01*
X278163914Y-166488904D02*
X278259152Y-166441285D01*
X278259152Y-166441285D02*
X278306771Y-166393666D01*
X278306771Y-166393666D02*
X278354390Y-166298428D01*
X278354390Y-166298428D02*
X278354390Y-166107952D01*
X278354390Y-166107952D02*
X278402009Y-166012714D01*
X278402009Y-166012714D02*
X278449628Y-165965095D01*
X278449628Y-165965095D02*
X278544866Y-165917476D01*
X278544866Y-165917476D02*
X278735342Y-165917476D01*
X278735342Y-165917476D02*
X278830580Y-165965095D01*
X278830580Y-165965095D02*
X278878200Y-166012714D01*
X278878200Y-166012714D02*
X278925819Y-166107952D01*
X278925819Y-166107952D02*
X278925819Y-166298428D01*
X278925819Y-166298428D02*
X278878200Y-166393666D01*
X278878200Y-166393666D02*
X278830580Y-166441285D01*
X278830580Y-166441285D02*
X278735342Y-166488904D01*
X278735342Y-166488904D02*
X278544866Y-166488904D01*
X278544866Y-166488904D02*
X278449628Y-166441285D01*
X278449628Y-166441285D02*
X278402009Y-166393666D01*
X278402009Y-166393666D02*
X278354390Y-166298428D01*
D11*
%TO.C,D5*%
X200407000Y-120588000D02*
X200407000Y-113578000D01*
X203707000Y-120588000D02*
X200407000Y-120588000D01*
X203707000Y-120588000D02*
X203707000Y-113578000D01*
%TO.C,D14*%
X249683000Y-169864000D02*
X249683000Y-162854000D01*
X252983000Y-169864000D02*
X249683000Y-169864000D01*
X252983000Y-169864000D02*
X252983000Y-162854000D01*
%TO.C,D17*%
X274321000Y-145226000D02*
X274321000Y-138216000D01*
X277621000Y-145226000D02*
X274321000Y-145226000D01*
X277621000Y-145226000D02*
X277621000Y-138216000D01*
%TO.C,D11*%
X225045000Y-169864000D02*
X225045000Y-162854000D01*
X228345000Y-169864000D02*
X225045000Y-169864000D01*
X228345000Y-169864000D02*
X228345000Y-162854000D01*
%TO.C,J3*%
X189424000Y-128076000D02*
X189424000Y-125416000D01*
X202184000Y-128076000D02*
X189424000Y-128076000D01*
X202184000Y-128076000D02*
X202184000Y-125416000D01*
X203454000Y-128076000D02*
X204784000Y-128076000D01*
X204784000Y-128076000D02*
X204784000Y-126746000D01*
X202184000Y-125416000D02*
X189424000Y-125416000D01*
%TO.C,J2*%
X207204000Y-128076000D02*
X207204000Y-125416000D01*
X225044000Y-128076000D02*
X207204000Y-128076000D01*
X225044000Y-128076000D02*
X225044000Y-125416000D01*
X226314000Y-128076000D02*
X227644000Y-128076000D01*
X227644000Y-128076000D02*
X227644000Y-126746000D01*
X225044000Y-125416000D02*
X207204000Y-125416000D01*
%TO.C,D7*%
X200407000Y-169864000D02*
X200407000Y-162854000D01*
X203707000Y-169864000D02*
X200407000Y-169864000D01*
X203707000Y-169864000D02*
X203707000Y-162854000D01*
%TO.C,D16*%
X274194000Y-130621000D02*
X274194000Y-123611000D01*
X277494000Y-130621000D02*
X274194000Y-130621000D01*
X277494000Y-130621000D02*
X277494000Y-123611000D01*
%TO.C,D10*%
X225045000Y-145226000D02*
X225045000Y-138216000D01*
X228345000Y-145226000D02*
X225045000Y-145226000D01*
X228345000Y-145226000D02*
X228345000Y-138216000D01*
%TO.C,D3*%
X175769000Y-169864000D02*
X175769000Y-162854000D01*
X179069000Y-169864000D02*
X175769000Y-169864000D01*
X179069000Y-169864000D02*
X179069000Y-162854000D01*
%TO.C,J5*%
X189424000Y-176336000D02*
X189424000Y-173676000D01*
X207264000Y-176336000D02*
X189424000Y-176336000D01*
X207264000Y-176336000D02*
X207264000Y-173676000D01*
X208534000Y-176336000D02*
X209864000Y-176336000D01*
X209864000Y-176336000D02*
X209864000Y-175006000D01*
X207264000Y-173676000D02*
X189424000Y-173676000D01*
%TO.C,D12*%
X249683000Y-120588000D02*
X249683000Y-113578000D01*
X252983000Y-120588000D02*
X249683000Y-120588000D01*
X252983000Y-120588000D02*
X252983000Y-113578000D01*
%TO.C,J4*%
X211268000Y-176336000D02*
X211268000Y-173676000D01*
X234188000Y-176336000D02*
X211268000Y-176336000D01*
X234188000Y-176336000D02*
X234188000Y-173676000D01*
X235458000Y-176336000D02*
X236788000Y-176336000D01*
X236788000Y-176336000D02*
X236788000Y-175006000D01*
X234188000Y-173676000D02*
X211268000Y-173676000D01*
%TO.C,D9*%
X225045000Y-120588000D02*
X225045000Y-113578000D01*
X228345000Y-120588000D02*
X225045000Y-120588000D01*
X228345000Y-120588000D02*
X228345000Y-113578000D01*
%TO.C,D13*%
X249683000Y-145226000D02*
X249683000Y-138216000D01*
X252983000Y-145226000D02*
X249683000Y-145226000D01*
X252983000Y-145226000D02*
X252983000Y-138216000D01*
%TO.C,J1*%
X180523000Y-128060000D02*
X180523000Y-129310000D01*
X180233000Y-134320000D02*
X165113000Y-134320000D01*
X180233000Y-128350000D02*
X180233000Y-134320000D01*
X180223000Y-130610000D02*
X179473000Y-130610000D01*
X180223000Y-129110000D02*
X178423000Y-129110000D01*
X180223000Y-128360000D02*
X180223000Y-129110000D01*
X179473000Y-133560000D02*
X172673000Y-133560000D01*
X179473000Y-130610000D02*
X179473000Y-133560000D01*
X179273000Y-128060000D02*
X180523000Y-128060000D01*
X178423000Y-129110000D02*
X178423000Y-128360000D01*
X178423000Y-128360000D02*
X180223000Y-128360000D01*
X176923000Y-129110000D02*
X168423000Y-129110000D01*
X176923000Y-128360000D02*
X176923000Y-129110000D01*
X168423000Y-129110000D02*
X168423000Y-128360000D01*
X168423000Y-128360000D02*
X176923000Y-128360000D01*
X166923000Y-129110000D02*
X165123000Y-129110000D01*
X166923000Y-128360000D02*
X166923000Y-129110000D01*
X165873000Y-133560000D02*
X172673000Y-133560000D01*
X165873000Y-130610000D02*
X165873000Y-133560000D01*
X165123000Y-130610000D02*
X165873000Y-130610000D01*
X165123000Y-129110000D02*
X165123000Y-128360000D01*
X165123000Y-128360000D02*
X166923000Y-128360000D01*
X165113000Y-134320000D02*
X165113000Y-128350000D01*
X165113000Y-128350000D02*
X180233000Y-128350000D01*
%TO.C,D6*%
X200407000Y-145226000D02*
X200407000Y-138216000D01*
X203707000Y-145226000D02*
X200407000Y-145226000D01*
X203707000Y-145226000D02*
X203707000Y-138216000D01*
%TO.C,D15*%
X293522000Y-171068000D02*
X286512000Y-171068000D01*
X293522000Y-167768000D02*
X293522000Y-171068000D01*
X293522000Y-167768000D02*
X286512000Y-167768000D01*
%TO.C,D4*%
X144972000Y-146303000D02*
X137962000Y-146303000D01*
X144972000Y-143003000D02*
X144972000Y-146303000D01*
X144972000Y-143003000D02*
X137962000Y-143003000D01*
%TO.C,D2*%
X175769000Y-145226000D02*
X175769000Y-138216000D01*
X179069000Y-145226000D02*
X175769000Y-145226000D01*
X179069000Y-145226000D02*
X179069000Y-138216000D01*
%TO.C,D8*%
X144972000Y-170941000D02*
X137962000Y-170941000D01*
X144972000Y-167641000D02*
X144972000Y-170941000D01*
X144972000Y-167641000D02*
X137962000Y-167641000D01*
%TO.C,D19*%
X293562000Y-146557000D02*
X286552000Y-146557000D01*
X293562000Y-143257000D02*
X293562000Y-146557000D01*
X293562000Y-143257000D02*
X286552000Y-143257000D01*
%TO.C,D1*%
X175769000Y-120588000D02*
X175769000Y-113578000D01*
X179069000Y-120588000D02*
X175769000Y-120588000D01*
X179069000Y-120588000D02*
X179069000Y-113578000D01*
%TO.C,D18*%
X274321000Y-169737000D02*
X274321000Y-162727000D01*
X277621000Y-169737000D02*
X274321000Y-169737000D01*
X277621000Y-169737000D02*
X277621000Y-162727000D01*
%TD*%
%LPC*%
D12*
%TO.C,SW13*%
X239268000Y-145669000D03*
D13*
X241808000Y-140589000D03*
X235458000Y-143129000D03*
%TD*%
D12*
%TO.C,SW8*%
X140716000Y-157988000D03*
D13*
X143256000Y-152908000D03*
X136906000Y-155448000D03*
%TD*%
D12*
%TO.C,SW4*%
X140716000Y-133350000D03*
D13*
X143256000Y-128270000D03*
X136906000Y-130810000D03*
%TD*%
D12*
%TO.C,SW9*%
X214630000Y-121031000D03*
D13*
X217170000Y-115951000D03*
X210820000Y-118491000D03*
%TD*%
D12*
%TO.C,SW2*%
X165354000Y-145669000D03*
D13*
X167894000Y-140589000D03*
X161544000Y-143129000D03*
%TD*%
D12*
%TO.C,SW17*%
X263906000Y-145669000D03*
D13*
X266446000Y-140589000D03*
X260096000Y-143129000D03*
%TD*%
D12*
%TO.C,SW6*%
X189992000Y-145669000D03*
D13*
X192532000Y-140589000D03*
X186182000Y-143129000D03*
%TD*%
D12*
%TO.C,SW16*%
X263906000Y-121031000D03*
D13*
X266446000Y-115951000D03*
X260096000Y-118491000D03*
%TD*%
D12*
%TO.C,SW18*%
X263906000Y-170307000D03*
D13*
X266446000Y-165227000D03*
X260096000Y-167767000D03*
%TD*%
D12*
%TO.C,SW10*%
X214630000Y-145669000D03*
D13*
X217170000Y-140589000D03*
X210820000Y-143129000D03*
%TD*%
D12*
%TO.C,SW12*%
X239268000Y-121031000D03*
D13*
X241808000Y-115951000D03*
X235458000Y-118491000D03*
%TD*%
D12*
%TO.C,SW11*%
X214630000Y-170307000D03*
D13*
X217170000Y-165227000D03*
X210820000Y-167767000D03*
%TD*%
D12*
%TO.C,SW5*%
X189992000Y-121031000D03*
D13*
X192532000Y-115951000D03*
X186182000Y-118491000D03*
%TD*%
D12*
%TO.C,SW7*%
X189992000Y-170307000D03*
D13*
X192532000Y-165227000D03*
X186182000Y-167767000D03*
%TD*%
D12*
%TO.C,SW15*%
X288544000Y-157988000D03*
D13*
X291084000Y-152908000D03*
X284734000Y-155448000D03*
%TD*%
D12*
%TO.C,SW1*%
X165354000Y-121031000D03*
D13*
X167894000Y-115951000D03*
X161544000Y-118491000D03*
%TD*%
D12*
%TO.C,SW3*%
X165354000Y-170307000D03*
D13*
X167894000Y-165227000D03*
X161544000Y-167767000D03*
%TD*%
D12*
%TO.C,SW19*%
X288544000Y-133350000D03*
D13*
X291084000Y-128270000D03*
X284734000Y-130810000D03*
%TD*%
D12*
%TO.C,SW14*%
X239268000Y-170307000D03*
D13*
X241808000Y-165227000D03*
X235458000Y-167767000D03*
%TD*%
D14*
%TO.C,D5*%
X202057000Y-118578000D03*
X202057000Y-113578000D03*
%TD*%
%TO.C,D14*%
X251333000Y-167854000D03*
X251333000Y-162854000D03*
%TD*%
%TO.C,D17*%
X275971000Y-143216000D03*
X275971000Y-138216000D03*
%TD*%
%TO.C,D11*%
X226695000Y-167854000D03*
X226695000Y-162854000D03*
%TD*%
D15*
%TO.C,J3*%
X203454000Y-126746000D03*
D16*
X200914000Y-126746000D03*
X198374000Y-126746000D03*
X195834000Y-126746000D03*
X193294000Y-126746000D03*
X190754000Y-126746000D03*
%TD*%
D15*
%TO.C,J2*%
X226314000Y-126746000D03*
D16*
X223774000Y-126746000D03*
X221234000Y-126746000D03*
X218694000Y-126746000D03*
X216154000Y-126746000D03*
X213614000Y-126746000D03*
X211074000Y-126746000D03*
X208534000Y-126746000D03*
%TD*%
D14*
%TO.C,D7*%
X202057000Y-167854000D03*
X202057000Y-162854000D03*
%TD*%
%TO.C,D16*%
X275844000Y-128611000D03*
X275844000Y-123611000D03*
%TD*%
%TO.C,D10*%
X226695000Y-143216000D03*
X226695000Y-138216000D03*
%TD*%
%TO.C,D3*%
X177419000Y-167854000D03*
X177419000Y-162854000D03*
%TD*%
D15*
%TO.C,J5*%
X208534000Y-175006000D03*
D16*
X205994000Y-175006000D03*
X203454000Y-175006000D03*
X200914000Y-175006000D03*
X198374000Y-175006000D03*
X195834000Y-175006000D03*
X193294000Y-175006000D03*
X190754000Y-175006000D03*
%TD*%
D14*
%TO.C,D12*%
X251333000Y-118578000D03*
X251333000Y-113578000D03*
%TD*%
D15*
%TO.C,J4*%
X235458000Y-175006000D03*
D16*
X232918000Y-175006000D03*
X230378000Y-175006000D03*
X227838000Y-175006000D03*
X225298000Y-175006000D03*
X222758000Y-175006000D03*
X220218000Y-175006000D03*
X217678000Y-175006000D03*
X215138000Y-175006000D03*
X212598000Y-175006000D03*
%TD*%
D14*
%TO.C,D9*%
X226695000Y-118578000D03*
X226695000Y-113578000D03*
%TD*%
%TO.C,D13*%
X251333000Y-143216000D03*
X251333000Y-138216000D03*
%TD*%
D17*
%TO.C,J1*%
X177673000Y-130810000D03*
D18*
X175173000Y-130810000D03*
X172673000Y-130810000D03*
X170173000Y-130810000D03*
X167673000Y-130810000D03*
%TD*%
D14*
%TO.C,D6*%
X202057000Y-143216000D03*
X202057000Y-138216000D03*
%TD*%
D19*
%TO.C,D15*%
X291512000Y-169418000D03*
X286512000Y-169418000D03*
%TD*%
%TO.C,D4*%
X142962000Y-144653000D03*
X137962000Y-144653000D03*
%TD*%
D14*
%TO.C,D2*%
X177419000Y-143216000D03*
X177419000Y-138216000D03*
%TD*%
D19*
%TO.C,D8*%
X142962000Y-169291000D03*
X137962000Y-169291000D03*
%TD*%
%TO.C,D19*%
X291552000Y-144907000D03*
X286552000Y-144907000D03*
%TD*%
D14*
%TO.C,D1*%
X177419000Y-118578000D03*
X177419000Y-113578000D03*
%TD*%
%TO.C,D18*%
X275971000Y-167727000D03*
X275971000Y-162727000D03*
%TD*%
%LPD*%
M02*
