G04 #@! TF.GenerationSoftware,KiCad,Pcbnew,8.0.2*
G04 #@! TF.CreationDate,2024-06-02T23:08:20+02:00*
G04 #@! TF.ProjectId,Main_board,4d61696e-5f62-46f6-9172-642e6b696361,1.0.2*
G04 #@! TF.SameCoordinates,Original*
G04 #@! TF.FileFunction,Soldermask,Bot*
G04 #@! TF.FilePolarity,Negative*
%FSLAX46Y46*%
G04 Gerber Fmt 4.6, Leading zero omitted, Abs format (unit mm)*
G04 Created by KiCad (PCBNEW 8.0.2) date 2024-06-02 23:08:20*
%MOMM*%
%LPD*%
G01*
G04 APERTURE LIST*
G04 Aperture macros list*
%AMRoundRect*
0 Rectangle with rounded corners*
0 $1 Rounding radius*
0 $2 $3 $4 $5 $6 $7 $8 $9 X,Y pos of 4 corners*
0 Add a 4 corners polygon primitive as box body*
4,1,4,$2,$3,$4,$5,$6,$7,$8,$9,$2,$3,0*
0 Add four circle primitives for the rounded corners*
1,1,$1+$1,$2,$3*
1,1,$1+$1,$4,$5*
1,1,$1+$1,$6,$7*
1,1,$1+$1,$8,$9*
0 Add four rect primitives between the rounded corners*
20,1,$1+$1,$2,$3,$4,$5,0*
20,1,$1+$1,$4,$5,$6,$7,0*
20,1,$1+$1,$6,$7,$8,$9,0*
20,1,$1+$1,$8,$9,$2,$3,0*%
G04 Aperture macros list end*
%ADD10C,1.905000*%
%ADD11R,1.905000X1.905000*%
%ADD12C,4.000000*%
%ADD13C,2.200000*%
%ADD14RoundRect,0.250000X-0.625000X0.312500X-0.625000X-0.312500X0.625000X-0.312500X0.625000X0.312500X0*%
%ADD15RoundRect,0.250000X0.625000X-0.312500X0.625000X0.312500X-0.625000X0.312500X-0.625000X-0.312500X0*%
%ADD16C,1.727200*%
%ADD17R,1.727200X1.727200*%
%ADD18RoundRect,0.250000X0.600000X0.725000X-0.600000X0.725000X-0.600000X-0.725000X0.600000X-0.725000X0*%
%ADD19O,1.700000X1.950000*%
%ADD20RoundRect,0.250000X-0.600000X-0.725000X0.600000X-0.725000X0.600000X0.725000X-0.600000X0.725000X0*%
G04 APERTURE END LIST*
D10*
X166624000Y-126140700D03*
D11*
X164084000Y-126140700D03*
D10*
X289814000Y-138459700D03*
D11*
X287274000Y-138459700D03*
D12*
X239268000Y-145669000D03*
D13*
X241808000Y-140589000D03*
X235458000Y-143129000D03*
D12*
X140716000Y-157988000D03*
D13*
X143256000Y-152908000D03*
X136906000Y-155448000D03*
D10*
X240538000Y-150749000D03*
D11*
X237998000Y-150749000D03*
D12*
X140716000Y-133350000D03*
D13*
X143256000Y-128270000D03*
X136906000Y-130810000D03*
D12*
X214630000Y-121031000D03*
D13*
X217170000Y-115951000D03*
X210820000Y-118491000D03*
D10*
X215900000Y-126111000D03*
D11*
X213360000Y-126111000D03*
D12*
X165354000Y-145669000D03*
D13*
X167894000Y-140589000D03*
X161544000Y-143129000D03*
D10*
X265176000Y-175416700D03*
D11*
X262636000Y-175416700D03*
D10*
X191262000Y-126111000D03*
D11*
X188722000Y-126111000D03*
D10*
X191262000Y-150749000D03*
D11*
X188722000Y-150749000D03*
D10*
X265176000Y-126140700D03*
D11*
X262636000Y-126140700D03*
D12*
X263906000Y-145669000D03*
D13*
X266446000Y-140589000D03*
X260096000Y-143129000D03*
D12*
X189992000Y-145669000D03*
D13*
X192532000Y-140589000D03*
X186182000Y-143129000D03*
D12*
X263906000Y-121031000D03*
D13*
X266446000Y-115951000D03*
X260096000Y-118491000D03*
D10*
X215900000Y-175387000D03*
D11*
X213360000Y-175387000D03*
D12*
X263906000Y-170307000D03*
D13*
X266446000Y-165227000D03*
X260096000Y-167767000D03*
D12*
X214630000Y-145669000D03*
D13*
X217170000Y-140589000D03*
X210820000Y-143129000D03*
D10*
X141986000Y-163068000D03*
D11*
X139446000Y-163068000D03*
D12*
X239268000Y-121031000D03*
D13*
X241808000Y-115951000D03*
X235458000Y-118491000D03*
D10*
X289814000Y-163068000D03*
D11*
X287274000Y-163068000D03*
D12*
X214630000Y-170307000D03*
D13*
X217170000Y-165227000D03*
X210820000Y-167767000D03*
D12*
X189992000Y-121031000D03*
D13*
X192532000Y-115951000D03*
X186182000Y-118491000D03*
D10*
X240538000Y-175416700D03*
D11*
X237998000Y-175416700D03*
D10*
X265176000Y-150778700D03*
D11*
X262636000Y-150778700D03*
D10*
X240538000Y-126111000D03*
D11*
X237998000Y-126111000D03*
D10*
X166624000Y-150749000D03*
D11*
X164084000Y-150749000D03*
D10*
X191262000Y-175416700D03*
D11*
X188722000Y-175416700D03*
D12*
X189992000Y-170307000D03*
D13*
X192532000Y-165227000D03*
X186182000Y-167767000D03*
D12*
X288544000Y-157988000D03*
D13*
X291084000Y-152908000D03*
X284734000Y-155448000D03*
D12*
X165354000Y-121031000D03*
D13*
X167894000Y-115951000D03*
X161544000Y-118491000D03*
D10*
X215900000Y-150749000D03*
D11*
X213360000Y-150749000D03*
D12*
X165354000Y-170307000D03*
D13*
X167894000Y-165227000D03*
X161544000Y-167767000D03*
D10*
X166624000Y-175387000D03*
D11*
X164084000Y-175387000D03*
D10*
X141986000Y-138430000D03*
D11*
X139446000Y-138430000D03*
D12*
X288544000Y-133350000D03*
D13*
X291084000Y-128270000D03*
X284734000Y-130810000D03*
D12*
X239268000Y-170307000D03*
D13*
X241808000Y-165227000D03*
X235458000Y-167767000D03*
D14*
X244348000Y-172781500D03*
X244348000Y-175706500D03*
X293497000Y-135697500D03*
X293497000Y-138622500D03*
X194945000Y-172654500D03*
X194945000Y-175579500D03*
X219583000Y-172654500D03*
X219583000Y-175579500D03*
D15*
X170307000Y-150941500D03*
X170307000Y-148016500D03*
X145796000Y-138749500D03*
X145796000Y-135824500D03*
X195072000Y-126430500D03*
X195072000Y-123505500D03*
D16*
X199390000Y-138049000D03*
X224790000Y-138049000D03*
X204470000Y-138049000D03*
X207010000Y-138049000D03*
X209550000Y-138049000D03*
X212090000Y-138049000D03*
X214630000Y-138049000D03*
X217170000Y-138049000D03*
X219710000Y-138049000D03*
X222250000Y-138049000D03*
X201930000Y-138049000D03*
X229870000Y-153289000D03*
X232410000Y-153289000D03*
X222250000Y-153289000D03*
X219710000Y-153289000D03*
X217170000Y-153289000D03*
X214630000Y-153289000D03*
X212090000Y-153289000D03*
X209550000Y-153289000D03*
X207010000Y-153289000D03*
X204470000Y-153289000D03*
X201930000Y-153289000D03*
X199390000Y-153289000D03*
X196850000Y-153289000D03*
X196850000Y-138049000D03*
D17*
X224790000Y-153289000D03*
X229870000Y-138049000D03*
D16*
X227330000Y-153289000D03*
X227330000Y-138049000D03*
X232410000Y-138049000D03*
D14*
X170307000Y-172654500D03*
X170307000Y-175579500D03*
X293497000Y-160335500D03*
X293497000Y-163260500D03*
X268986000Y-172781500D03*
X268986000Y-175706500D03*
D15*
X268859000Y-126303500D03*
X268859000Y-123378500D03*
X219583000Y-126430500D03*
X219583000Y-123505500D03*
X268986000Y-151068500D03*
X268986000Y-148143500D03*
X244221000Y-150941500D03*
X244221000Y-148016500D03*
X194945000Y-150941500D03*
X194945000Y-148016500D03*
X244221000Y-126303500D03*
X244221000Y-123378500D03*
D18*
X177673000Y-132444000D03*
D19*
X175173000Y-132444000D03*
X172673000Y-132444000D03*
X170173000Y-132444000D03*
X167673000Y-132444000D03*
D14*
X145669000Y-160335500D03*
X145669000Y-163260500D03*
D15*
X219583000Y-150941500D03*
X219583000Y-148016500D03*
D20*
X247837000Y-133875000D03*
D19*
X250337000Y-133875000D03*
X252837000Y-133875000D03*
X255337000Y-133875000D03*
D15*
X170307000Y-126303500D03*
X170307000Y-123378500D03*
D20*
X247837000Y-158513000D03*
D19*
X250337000Y-158513000D03*
X252837000Y-158513000D03*
X255337000Y-158513000D03*
M02*
