M48
; DRILL file {KiCad 7.0.6} date Sat Mar  2 18:22:29 2024
; FORMAT={-:-/ absolute / inch / decimal}
; #@! TF.CreationDate,2024-03-02T18:22:29+01:00
; #@! TF.GenerationSoftware,Kicad,Pcbnew,7.0.6
; #@! TF.FileFunction,Plated,1,2,PTH
FMAT,2
INCH
; #@! TA.AperFunction,Plated,PTH,ViaDrill
T1C0.0157
; #@! TA.AperFunction,Plated,PTH,ComponentDrill
T2C0.0374
; #@! TA.AperFunction,Plated,PTH,ComponentDrill
T3C0.0400
; #@! TA.AperFunction,Plated,PTH,ComponentDrill
T4C0.0591
%
G90
G05
T1
X6.2253Y-6.0819
X8.8208Y-5.8626
T2
X6.6013Y-5.2143
X6.6997Y-5.2143
X6.7981Y-5.2143
X6.8966Y-5.2143
X6.995Y-5.2143
T3
X7.75Y-5.435
X7.75Y-6.035
X7.85Y-5.435
X7.85Y-6.035
X7.95Y-5.435
X7.95Y-6.035
X8.05Y-5.435
X8.05Y-6.035
X8.15Y-5.435
X8.15Y-6.035
X8.25Y-5.435
X8.25Y-6.035
X8.35Y-5.435
X8.35Y-6.035
X8.45Y-5.435
X8.45Y-6.035
X8.55Y-5.435
X8.55Y-6.035
X8.65Y-5.435
X8.65Y-6.035
X8.75Y-5.435
X8.75Y-6.035
X8.85Y-5.435
X8.85Y-6.035
X8.95Y-5.435
X8.95Y-6.035
X9.05Y-5.435
X9.05Y-6.035
X9.15Y-5.435
X9.15Y-6.035
T4
X5.39Y-5.15
X5.39Y-6.12
X5.64Y-5.05
X5.64Y-6.02
X6.36Y-4.665
X6.36Y-5.635
X6.36Y-6.605
X6.61Y-4.565
X6.61Y-5.535
X6.61Y-6.505
X7.33Y-4.665
X7.33Y-5.635
X7.33Y-6.605
X7.58Y-4.565
X7.58Y-5.535
X7.58Y-6.505
X8.3Y-4.665
X8.3Y-5.635
X8.3Y-6.605
X8.55Y-4.565
X8.55Y-5.535
X8.55Y-6.505
X9.27Y-4.665
X9.27Y-5.635
X9.27Y-6.605
X9.52Y-4.565
X9.52Y-5.535
X9.52Y-6.505
X10.24Y-4.665
X10.24Y-5.635
X10.24Y-6.605
X10.49Y-4.565
X10.49Y-5.535
X10.49Y-6.505
X11.21Y-5.15
X11.21Y-6.12
X11.46Y-5.05
X11.46Y-6.02
T0
M30
