M48
; DRILL file {KiCad 7.0.6} date Fri Mar  1 12:47:36 2024
; FORMAT={-:-/ absolute / inch / decimal}
; #@! TF.CreationDate,2024-03-01T12:47:36+01:00
; #@! TF.GenerationSoftware,Kicad,Pcbnew,7.0.6
; #@! TF.FileFunction,Plated,1,2,PTH
FMAT,2
INCH
; #@! TA.AperFunction,Plated,PTH,ComponentDrill
T1C0.0374
; #@! TA.AperFunction,Plated,PTH,ComponentDrill
T2C0.0394
; #@! TA.AperFunction,Plated,PTH,ComponentDrill
T3C0.0591
%
G90
G05
T1
X6.6013Y-5.15
X6.6997Y-5.15
X6.7981Y-5.15
X6.8966Y-5.15
X6.995Y-5.15
T2
X7.51Y-4.99
X7.51Y-6.89
X7.61Y-4.99
X7.61Y-6.89
X7.71Y-4.99
X7.71Y-6.89
X7.81Y-4.99
X7.81Y-6.89
X7.91Y-4.99
X7.91Y-6.89
X8.01Y-4.99
X8.01Y-6.89
X8.11Y-6.89
X8.21Y-4.99
X8.21Y-6.89
X8.31Y-4.99
X8.37Y-6.89
X8.41Y-4.99
X8.47Y-6.89
X8.51Y-4.99
X8.57Y-6.89
X8.61Y-4.99
X8.67Y-6.89
X8.71Y-4.99
X8.77Y-6.89
X8.81Y-4.99
X8.87Y-6.89
X8.91Y-4.99
X8.97Y-6.89
X9.07Y-6.89
X9.17Y-6.89
X9.27Y-6.89
T3
X5.39Y-5.15
X5.39Y-6.12
X5.64Y-5.05
X5.64Y-6.02
X6.36Y-4.665
X6.36Y-5.635
X6.36Y-6.605
X6.61Y-4.565
X6.61Y-5.535
X6.61Y-6.505
X7.33Y-4.665
X7.33Y-5.635
X7.33Y-6.605
X7.58Y-4.565
X7.58Y-5.535
X7.58Y-6.505
X8.3Y-4.665
X8.3Y-5.635
X8.3Y-6.605
X8.55Y-4.565
X8.55Y-5.535
X8.55Y-6.505
X9.27Y-4.665
X9.27Y-5.635
X9.27Y-6.605
X9.52Y-4.565
X9.52Y-5.535
X9.52Y-6.505
X10.24Y-4.665
X10.24Y-5.635
X10.24Y-6.605
X10.49Y-4.565
X10.49Y-5.535
X10.49Y-6.505
X11.21Y-5.15
X11.21Y-6.12
X11.46Y-5.05
X11.46Y-6.02
T0
M30
