%TF.GenerationSoftware,KiCad,Pcbnew,7.0.6*%
%TF.CreationDate,2024-03-01T12:47:37+01:00*%
%TF.ProjectId,Main_board,4d61696e-5f62-46f6-9172-642e6b696361,1.0.1*%
%TF.SameCoordinates,Original*%
%TF.FileFunction,Copper,L1,Top*%
%TF.FilePolarity,Positive*%
%FSLAX46Y46*%
G04 Gerber Fmt 4.6, Leading zero omitted, Abs format (unit mm)*
G04 Created by KiCad (PCBNEW 7.0.6) date 2024-03-01 12:47:37*
%MOMM*%
%LPD*%
G01*
G04 APERTURE LIST*
G04 Aperture macros list*
%AMRoundRect*
0 Rectangle with rounded corners*
0 $1 Rounding radius*
0 $2 $3 $4 $5 $6 $7 $8 $9 X,Y pos of 4 corners*
0 Add a 4 corners polygon primitive as box body*
4,1,4,$2,$3,$4,$5,$6,$7,$8,$9,$2,$3,0*
0 Add four circle primitives for the rounded corners*
1,1,$1+$1,$2,$3*
1,1,$1+$1,$4,$5*
1,1,$1+$1,$6,$7*
1,1,$1+$1,$8,$9*
0 Add four rect primitives between the rounded corners*
20,1,$1+$1,$2,$3,$4,$5,0*
20,1,$1+$1,$4,$5,$6,$7,0*
20,1,$1+$1,$6,$7,$8,$9,0*
20,1,$1+$1,$8,$9,$2,$3,0*%
G04 Aperture macros list end*
%TA.AperFunction,ComponentPad*%
%ADD10C,2.200000*%
%TD*%
%TA.AperFunction,SMDPad,CuDef*%
%ADD11RoundRect,0.250000X-0.312500X-0.625000X0.312500X-0.625000X0.312500X0.625000X-0.312500X0.625000X0*%
%TD*%
%TA.AperFunction,ComponentPad*%
%ADD12R,1.700000X1.700000*%
%TD*%
%TA.AperFunction,ComponentPad*%
%ADD13O,1.700000X1.700000*%
%TD*%
%TA.AperFunction,ComponentPad*%
%ADD14RoundRect,0.250000X0.600000X0.725000X-0.600000X0.725000X-0.600000X-0.725000X0.600000X-0.725000X0*%
%TD*%
%TA.AperFunction,ComponentPad*%
%ADD15O,1.700000X1.950000*%
%TD*%
G04 APERTURE END LIST*
D10*
%TO.P,SW13,1,1*%
%TO.N,Net-(D13-A)*%
X241808000Y-140589000D03*
%TO.P,SW13,2,2*%
%TO.N,X3*%
X235458000Y-143129000D03*
%TD*%
D11*
%TO.P,R1,1*%
%TO.N,+5V*%
X163764500Y-157734000D03*
%TO.P,R1,2*%
%TO.N,X0*%
X166689500Y-157734000D03*
%TD*%
D10*
%TO.P,SW8,1,1*%
%TO.N,Net-(D8-A)*%
X143256000Y-152908000D03*
%TO.P,SW8,2,2*%
%TO.N,X1*%
X136906000Y-155448000D03*
%TD*%
D11*
%TO.P,R3,1*%
%TO.N,+5V*%
X213040500Y-157734000D03*
%TO.P,R3,2*%
%TO.N,X2*%
X215965500Y-157734000D03*
%TD*%
%TO.P,R5,1*%
%TO.N,+5V*%
X262316500Y-157734000D03*
%TO.P,R5,2*%
%TO.N,X4*%
X265241500Y-157734000D03*
%TD*%
D10*
%TO.P,SW4,1,1*%
%TO.N,Net-(D4-A)*%
X143256000Y-128270000D03*
%TO.P,SW4,2,2*%
%TO.N,X0*%
X136906000Y-130810000D03*
%TD*%
%TO.P,SW9,1,1*%
%TO.N,Net-(D9-A)*%
X217170000Y-115951000D03*
%TO.P,SW9,2,2*%
%TO.N,X2*%
X210820000Y-118491000D03*
%TD*%
%TO.P,SW2,1,1*%
%TO.N,Net-(D2-A)*%
X167894000Y-140589000D03*
%TO.P,SW2,2,2*%
%TO.N,X0*%
X161544000Y-143129000D03*
%TD*%
%TO.P,SW17,1,1*%
%TO.N,Net-(D17-A)*%
X266446000Y-140589000D03*
%TO.P,SW17,2,2*%
%TO.N,X4*%
X260096000Y-143129000D03*
%TD*%
%TO.P,SW6,1,1*%
%TO.N,Net-(D6-A)*%
X192532000Y-140589000D03*
%TO.P,SW6,2,2*%
%TO.N,X1*%
X186182000Y-143129000D03*
%TD*%
%TO.P,SW16,1,1*%
%TO.N,Net-(D16-A)*%
X266446000Y-115951000D03*
%TO.P,SW16,2,2*%
%TO.N,X4*%
X260096000Y-118491000D03*
%TD*%
%TO.P,SW18,1,1*%
%TO.N,Net-(D18-A)*%
X266446000Y-165227000D03*
%TO.P,SW18,2,2*%
%TO.N,X4*%
X260096000Y-167767000D03*
%TD*%
%TO.P,SW10,1,1*%
%TO.N,Net-(D10-A)*%
X217170000Y-140589000D03*
%TO.P,SW10,2,2*%
%TO.N,X2*%
X210820000Y-143129000D03*
%TD*%
%TO.P,SW12,1,1*%
%TO.N,Net-(D12-A)*%
X241808000Y-115951000D03*
%TO.P,SW12,2,2*%
%TO.N,X3*%
X235458000Y-118491000D03*
%TD*%
D11*
%TO.P,R4,1*%
%TO.N,+5V*%
X237678500Y-157734000D03*
%TO.P,R4,2*%
%TO.N,X3*%
X240603500Y-157734000D03*
%TD*%
D10*
%TO.P,SW11,1,1*%
%TO.N,Net-(D11-A)*%
X217170000Y-165227000D03*
%TO.P,SW11,2,2*%
%TO.N,X2*%
X210820000Y-167767000D03*
%TD*%
%TO.P,SW5,1,1*%
%TO.N,Net-(D5-A)*%
X192532000Y-115951000D03*
%TO.P,SW5,2,2*%
%TO.N,X1*%
X186182000Y-118491000D03*
%TD*%
%TO.P,SW7,1,1*%
%TO.N,Net-(D7-A)*%
X192532000Y-165227000D03*
%TO.P,SW7,2,2*%
%TO.N,X1*%
X186182000Y-167767000D03*
%TD*%
%TO.P,SW15,1,1*%
%TO.N,Net-(D15-A)*%
X291084000Y-152908000D03*
%TO.P,SW15,2,2*%
%TO.N,X3*%
X284734000Y-155448000D03*
%TD*%
%TO.P,SW1,1,1*%
%TO.N,Net-(D1-A)*%
X167894000Y-115951000D03*
%TO.P,SW1,2,2*%
%TO.N,X0*%
X161544000Y-118491000D03*
%TD*%
%TO.P,SW3,1,1*%
%TO.N,Net-(D3-A)*%
X167894000Y-165227000D03*
%TO.P,SW3,2,2*%
%TO.N,X0*%
X161544000Y-167767000D03*
%TD*%
D11*
%TO.P,R2,1*%
%TO.N,+5V*%
X188402500Y-157734000D03*
%TO.P,R2,2*%
%TO.N,X1*%
X191327500Y-157734000D03*
%TD*%
D10*
%TO.P,SW19,1,1*%
%TO.N,Net-(D19-A)*%
X291084000Y-128270000D03*
%TO.P,SW19,2,2*%
%TO.N,X4*%
X284734000Y-130810000D03*
%TD*%
%TO.P,SW14,1,1*%
%TO.N,Net-(D14-A)*%
X241808000Y-165227000D03*
%TO.P,SW14,2,2*%
%TO.N,X3*%
X235458000Y-167767000D03*
%TD*%
D12*
%TO.P,J3,1,Pin_1*%
%TO.N,/Arduino UNO Breakout/A0*%
X203454000Y-126746000D03*
D13*
%TO.P,J3,2,Pin_2*%
%TO.N,/Arduino UNO Breakout/A1*%
X200914000Y-126746000D03*
%TO.P,J3,3,Pin_3*%
%TO.N,/Arduino UNO Breakout/A2*%
X198374000Y-126746000D03*
%TO.P,J3,4,Pin_4*%
%TO.N,/Arduino UNO Breakout/A3*%
X195834000Y-126746000D03*
%TO.P,J3,5,Pin_5*%
%TO.N,/Arduino UNO Breakout/A4*%
X193294000Y-126746000D03*
%TO.P,J3,6,Pin_6*%
%TO.N,/Arduino UNO Breakout/A5*%
X190754000Y-126746000D03*
%TD*%
D12*
%TO.P,J2,1,Pin_1*%
%TO.N,unconnected-(J2-Pin_1-Pad1)*%
X226314000Y-126746000D03*
D13*
%TO.P,J2,2,Pin_2*%
%TO.N,/Arduino UNO Breakout/IOREF*%
X223774000Y-126746000D03*
%TO.P,J2,3,Pin_3*%
%TO.N,/Arduino UNO Breakout/RESET*%
X221234000Y-126746000D03*
%TO.P,J2,4,Pin_4*%
%TO.N,+3.3V*%
X218694000Y-126746000D03*
%TO.P,J2,5,Pin_5*%
%TO.N,+5V*%
X216154000Y-126746000D03*
%TO.P,J2,6,Pin_6*%
%TO.N,GND*%
X213614000Y-126746000D03*
%TO.P,J2,7,Pin_7*%
X211074000Y-126746000D03*
%TO.P,J2,8,Pin_8*%
%TO.N,/Arduino UNO Breakout/VIN_PLUG*%
X208534000Y-126746000D03*
%TD*%
D12*
%TO.P,J5,1,Pin_1*%
%TO.N,Y1*%
X208534000Y-175006000D03*
D13*
%TO.P,J5,2,Pin_2*%
%TO.N,Y2*%
X205994000Y-175006000D03*
%TO.P,J5,3,Pin_3*%
%TO.N,Y3*%
X203454000Y-175006000D03*
%TO.P,J5,4,Pin_4*%
%TO.N,X4*%
X200914000Y-175006000D03*
%TO.P,J5,5,Pin_5*%
%TO.N,X3*%
X198374000Y-175006000D03*
%TO.P,J5,6,Pin_6*%
%TO.N,X2*%
X195834000Y-175006000D03*
%TO.P,J5,7,Pin_7*%
%TO.N,X1*%
X193294000Y-175006000D03*
%TO.P,J5,8,Pin_8*%
%TO.N,X0*%
X190754000Y-175006000D03*
%TD*%
D12*
%TO.P,J4,1,Pin_1*%
%TO.N,SDA*%
X235458000Y-175006000D03*
D13*
%TO.P,J4,2,Pin_2*%
%TO.N,SCK*%
X232918000Y-175006000D03*
%TO.P,J4,3,Pin_3*%
%TO.N,/Arduino UNO Breakout/AREF*%
X230378000Y-175006000D03*
%TO.P,J4,4,Pin_4*%
%TO.N,GND*%
X227838000Y-175006000D03*
%TO.P,J4,5,Pin_5*%
%TO.N,/Arduino UNO Breakout/D13*%
X225298000Y-175006000D03*
%TO.P,J4,6,Pin_6*%
%TO.N,/Arduino UNO Breakout/D12*%
X222758000Y-175006000D03*
%TO.P,J4,7,Pin_7*%
%TO.N,/Arduino UNO Breakout/D11*%
X220218000Y-175006000D03*
%TO.P,J4,8,Pin_8*%
%TO.N,PWM*%
X217678000Y-175006000D03*
%TO.P,J4,9,Pin_9*%
%TO.N,/Arduino UNO Breakout/D9*%
X215138000Y-175006000D03*
%TO.P,J4,10,Pin_10*%
%TO.N,Y0*%
X212598000Y-175006000D03*
%TD*%
D14*
%TO.P,J1,1,Pin_1*%
%TO.N,SDA*%
X177673000Y-130810000D03*
D15*
%TO.P,J1,2,Pin_2*%
%TO.N,SCK*%
X175173000Y-130810000D03*
%TO.P,J1,3,Pin_3*%
%TO.N,+5V*%
X172673000Y-130810000D03*
%TO.P,J1,4,Pin_4*%
%TO.N,GND*%
X170173000Y-130810000D03*
%TO.P,J1,5,Pin_5*%
%TO.N,PWM*%
X167673000Y-130810000D03*
%TD*%
M02*
