M48
; DRILL file {KiCad 8.0.2} date 2024-06-02T22:43:05+0200
; FORMAT={-:-/ absolute / inch / decimal}
; #@! TF.CreationDate,2024-06-02T22:43:05+02:00
; #@! TF.GenerationSoftware,Kicad,Pcbnew,8.0.2
; #@! TF.FileFunction,Plated,1,2,PTH
FMAT,2
INCH
; #@! TA.AperFunction,Plated,PTH,ViaDrill
T1C0.0157
; #@! TA.AperFunction,Plated,PTH,ComponentDrill
T2C0.0374
; #@! TA.AperFunction,Plated,PTH,ComponentDrill
T3C0.0400
; #@! TA.AperFunction,Plated,PTH,ComponentDrill
T4C0.0409
; #@! TA.AperFunction,Plated,PTH,ComponentDrill
T5C0.0591
%
G90
G05
T1
X5.7382Y-6.1811
X5.8661Y-5.4921
X5.935Y-5.3051
X6.122Y-6.2205
X6.3287Y-6.0925
X6.705Y-6.6437
X6.7126Y-6.0827
X6.7126Y-6.25
X7.1654Y-5.9426
X7.3034Y-5.5301
X7.6476Y-6.0138
X7.675Y-6.6535
X7.7854Y-4.8622
X7.9626Y-5.2362
X8.645Y-6.6634
X8.7795Y-5.6988
X8.8976Y-5.1969
X9.62Y-6.6634
X9.6949Y-5.9547
X9.7441Y-4.813
X10.59Y-6.8602
X10.6398Y-5.0886
X10.6791Y-6.0433
X11.5551Y-5.3937
X11.5846Y-6.1614
T2
X6.6013Y-5.2143
X6.6997Y-5.2143
X6.7981Y-5.2143
X6.8966Y-5.2143
X6.995Y-5.2143
X9.7574Y-5.2707
X9.7574Y-6.2407
X9.8558Y-5.2707
X9.8558Y-6.2407
X9.9542Y-5.2707
X9.9542Y-6.2407
X10.0526Y-5.2707
X10.0526Y-6.2407
T3
X7.75Y-5.435
X7.75Y-6.035
X7.85Y-5.435
X7.85Y-6.035
X7.95Y-5.435
X7.95Y-6.035
X8.05Y-5.435
X8.05Y-6.035
X8.15Y-5.435
X8.15Y-6.035
X8.25Y-5.435
X8.25Y-6.035
X8.35Y-5.435
X8.35Y-6.035
X8.45Y-5.435
X8.45Y-6.035
X8.55Y-5.435
X8.55Y-6.035
X8.65Y-5.435
X8.65Y-6.035
X8.75Y-5.435
X8.75Y-6.035
X8.85Y-5.435
X8.85Y-6.035
X8.95Y-5.435
X8.95Y-6.035
X9.05Y-5.435
X9.05Y-6.035
X9.15Y-5.435
X9.15Y-6.035
T4
X5.49Y-5.45
X5.49Y-6.42
X5.59Y-5.45
X5.59Y-6.42
X6.46Y-4.9662
X6.46Y-5.935
X6.46Y-6.905
X6.56Y-4.9662
X6.56Y-5.935
X6.56Y-6.905
X7.43Y-4.965
X7.43Y-5.935
X7.43Y-6.9062
X7.53Y-4.965
X7.53Y-5.935
X7.53Y-6.9062
X8.4Y-4.965
X8.4Y-5.935
X8.4Y-6.905
X8.5Y-4.965
X8.5Y-5.935
X8.5Y-6.905
X9.37Y-4.965
X9.37Y-5.935
X9.37Y-6.9062
X9.47Y-4.965
X9.47Y-5.935
X9.47Y-6.9062
X10.34Y-4.9662
X10.34Y-5.9362
X10.34Y-6.9062
X10.44Y-4.9662
X10.44Y-5.9362
X10.44Y-6.9062
X11.31Y-5.4512
X11.31Y-6.42
X11.41Y-5.4512
X11.41Y-6.42
T5
X5.39Y-5.15
X5.39Y-6.12
X5.64Y-5.05
X5.64Y-6.02
X6.36Y-4.665
X6.36Y-5.635
X6.36Y-6.605
X6.61Y-4.565
X6.61Y-5.535
X6.61Y-6.505
X7.33Y-4.665
X7.33Y-5.635
X7.33Y-6.605
X7.58Y-4.565
X7.58Y-5.535
X7.58Y-6.505
X8.3Y-4.665
X8.3Y-5.635
X8.3Y-6.605
X8.55Y-4.565
X8.55Y-5.535
X8.55Y-6.505
X9.27Y-4.665
X9.27Y-5.635
X9.27Y-6.605
X9.52Y-4.565
X9.52Y-5.535
X9.52Y-6.505
X10.24Y-4.665
X10.24Y-5.635
X10.24Y-6.605
X10.49Y-4.565
X10.49Y-5.535
X10.49Y-6.505
X11.21Y-5.15
X11.21Y-6.12
X11.46Y-5.05
X11.46Y-6.02
M30
