%TF.GenerationSoftware,KiCad,Pcbnew,7.0.6*%
%TF.CreationDate,2024-03-01T12:47:37+01:00*%
%TF.ProjectId,Main_board,4d61696e-5f62-46f6-9172-642e6b696361,1.0.1*%
%TF.SameCoordinates,Original*%
%TF.FileFunction,Legend,Top*%
%TF.FilePolarity,Positive*%
%FSLAX46Y46*%
G04 Gerber Fmt 4.6, Leading zero omitted, Abs format (unit mm)*
G04 Created by KiCad (PCBNEW 7.0.6) date 2024-03-01 12:47:37*
%MOMM*%
%LPD*%
G01*
G04 APERTURE LIST*
G04 Aperture macros list*
%AMRoundRect*
0 Rectangle with rounded corners*
0 $1 Rounding radius*
0 $2 $3 $4 $5 $6 $7 $8 $9 X,Y pos of 4 corners*
0 Add a 4 corners polygon primitive as box body*
4,1,4,$2,$3,$4,$5,$6,$7,$8,$9,$2,$3,0*
0 Add four circle primitives for the rounded corners*
1,1,$1+$1,$2,$3*
1,1,$1+$1,$4,$5*
1,1,$1+$1,$6,$7*
1,1,$1+$1,$8,$9*
0 Add four rect primitives between the rounded corners*
20,1,$1+$1,$2,$3,$4,$5,0*
20,1,$1+$1,$4,$5,$6,$7,0*
20,1,$1+$1,$6,$7,$8,$9,0*
20,1,$1+$1,$8,$9,$2,$3,0*%
G04 Aperture macros list end*
%ADD10C,0.150000*%
%ADD11C,0.120000*%
%ADD12C,4.000000*%
%ADD13C,2.200000*%
%ADD14RoundRect,0.250000X-0.312500X-0.625000X0.312500X-0.625000X0.312500X0.625000X-0.312500X0.625000X0*%
%ADD15R,1.700000X1.700000*%
%ADD16O,1.700000X1.700000*%
%ADD17RoundRect,0.250000X0.600000X0.725000X-0.600000X0.725000X-0.600000X-0.725000X0.600000X-0.725000X0*%
%ADD18O,1.700000X1.950000*%
G04 APERTURE END LIST*
D10*
X237458476Y-138202200D02*
X237601333Y-138249819D01*
X237601333Y-138249819D02*
X237839428Y-138249819D01*
X237839428Y-138249819D02*
X237934666Y-138202200D01*
X237934666Y-138202200D02*
X237982285Y-138154580D01*
X237982285Y-138154580D02*
X238029904Y-138059342D01*
X238029904Y-138059342D02*
X238029904Y-137964104D01*
X238029904Y-137964104D02*
X237982285Y-137868866D01*
X237982285Y-137868866D02*
X237934666Y-137821247D01*
X237934666Y-137821247D02*
X237839428Y-137773628D01*
X237839428Y-137773628D02*
X237648952Y-137726009D01*
X237648952Y-137726009D02*
X237553714Y-137678390D01*
X237553714Y-137678390D02*
X237506095Y-137630771D01*
X237506095Y-137630771D02*
X237458476Y-137535533D01*
X237458476Y-137535533D02*
X237458476Y-137440295D01*
X237458476Y-137440295D02*
X237506095Y-137345057D01*
X237506095Y-137345057D02*
X237553714Y-137297438D01*
X237553714Y-137297438D02*
X237648952Y-137249819D01*
X237648952Y-137249819D02*
X237887047Y-137249819D01*
X237887047Y-137249819D02*
X238029904Y-137297438D01*
X238363238Y-137249819D02*
X238601333Y-138249819D01*
X238601333Y-138249819D02*
X238791809Y-137535533D01*
X238791809Y-137535533D02*
X238982285Y-138249819D01*
X238982285Y-138249819D02*
X239220381Y-137249819D01*
X240125142Y-138249819D02*
X239553714Y-138249819D01*
X239839428Y-138249819D02*
X239839428Y-137249819D01*
X239839428Y-137249819D02*
X239744190Y-137392676D01*
X239744190Y-137392676D02*
X239648952Y-137487914D01*
X239648952Y-137487914D02*
X239553714Y-137535533D01*
X240458476Y-137249819D02*
X241077523Y-137249819D01*
X241077523Y-137249819D02*
X240744190Y-137630771D01*
X240744190Y-137630771D02*
X240887047Y-137630771D01*
X240887047Y-137630771D02*
X240982285Y-137678390D01*
X240982285Y-137678390D02*
X241029904Y-137726009D01*
X241029904Y-137726009D02*
X241077523Y-137821247D01*
X241077523Y-137821247D02*
X241077523Y-138059342D01*
X241077523Y-138059342D02*
X241029904Y-138154580D01*
X241029904Y-138154580D02*
X240982285Y-138202200D01*
X240982285Y-138202200D02*
X240887047Y-138249819D01*
X240887047Y-138249819D02*
X240601333Y-138249819D01*
X240601333Y-138249819D02*
X240506095Y-138202200D01*
X240506095Y-138202200D02*
X240458476Y-138154580D01*
X239458476Y-152997819D02*
X239268000Y-152997819D01*
X239268000Y-152997819D02*
X239172762Y-153045438D01*
X239172762Y-153045438D02*
X239125143Y-153093057D01*
X239125143Y-153093057D02*
X239029905Y-153235914D01*
X239029905Y-153235914D02*
X238982286Y-153426390D01*
X238982286Y-153426390D02*
X238982286Y-153807342D01*
X238982286Y-153807342D02*
X239029905Y-153902580D01*
X239029905Y-153902580D02*
X239077524Y-153950200D01*
X239077524Y-153950200D02*
X239172762Y-153997819D01*
X239172762Y-153997819D02*
X239363238Y-153997819D01*
X239363238Y-153997819D02*
X239458476Y-153950200D01*
X239458476Y-153950200D02*
X239506095Y-153902580D01*
X239506095Y-153902580D02*
X239553714Y-153807342D01*
X239553714Y-153807342D02*
X239553714Y-153569247D01*
X239553714Y-153569247D02*
X239506095Y-153474009D01*
X239506095Y-153474009D02*
X239458476Y-153426390D01*
X239458476Y-153426390D02*
X239363238Y-153378771D01*
X239363238Y-153378771D02*
X239172762Y-153378771D01*
X239172762Y-153378771D02*
X239077524Y-153426390D01*
X239077524Y-153426390D02*
X239029905Y-153474009D01*
X239029905Y-153474009D02*
X238982286Y-153569247D01*
X165060333Y-156368819D02*
X164727000Y-155892628D01*
X164488905Y-156368819D02*
X164488905Y-155368819D01*
X164488905Y-155368819D02*
X164869857Y-155368819D01*
X164869857Y-155368819D02*
X164965095Y-155416438D01*
X164965095Y-155416438D02*
X165012714Y-155464057D01*
X165012714Y-155464057D02*
X165060333Y-155559295D01*
X165060333Y-155559295D02*
X165060333Y-155702152D01*
X165060333Y-155702152D02*
X165012714Y-155797390D01*
X165012714Y-155797390D02*
X164965095Y-155845009D01*
X164965095Y-155845009D02*
X164869857Y-155892628D01*
X164869857Y-155892628D02*
X164488905Y-155892628D01*
X166012714Y-156368819D02*
X165441286Y-156368819D01*
X165727000Y-156368819D02*
X165727000Y-155368819D01*
X165727000Y-155368819D02*
X165631762Y-155511676D01*
X165631762Y-155511676D02*
X165536524Y-155606914D01*
X165536524Y-155606914D02*
X165441286Y-155654533D01*
X139382667Y-150521200D02*
X139525524Y-150568819D01*
X139525524Y-150568819D02*
X139763619Y-150568819D01*
X139763619Y-150568819D02*
X139858857Y-150521200D01*
X139858857Y-150521200D02*
X139906476Y-150473580D01*
X139906476Y-150473580D02*
X139954095Y-150378342D01*
X139954095Y-150378342D02*
X139954095Y-150283104D01*
X139954095Y-150283104D02*
X139906476Y-150187866D01*
X139906476Y-150187866D02*
X139858857Y-150140247D01*
X139858857Y-150140247D02*
X139763619Y-150092628D01*
X139763619Y-150092628D02*
X139573143Y-150045009D01*
X139573143Y-150045009D02*
X139477905Y-149997390D01*
X139477905Y-149997390D02*
X139430286Y-149949771D01*
X139430286Y-149949771D02*
X139382667Y-149854533D01*
X139382667Y-149854533D02*
X139382667Y-149759295D01*
X139382667Y-149759295D02*
X139430286Y-149664057D01*
X139430286Y-149664057D02*
X139477905Y-149616438D01*
X139477905Y-149616438D02*
X139573143Y-149568819D01*
X139573143Y-149568819D02*
X139811238Y-149568819D01*
X139811238Y-149568819D02*
X139954095Y-149616438D01*
X140287429Y-149568819D02*
X140525524Y-150568819D01*
X140525524Y-150568819D02*
X140716000Y-149854533D01*
X140716000Y-149854533D02*
X140906476Y-150568819D01*
X140906476Y-150568819D02*
X141144572Y-149568819D01*
X141668381Y-149997390D02*
X141573143Y-149949771D01*
X141573143Y-149949771D02*
X141525524Y-149902152D01*
X141525524Y-149902152D02*
X141477905Y-149806914D01*
X141477905Y-149806914D02*
X141477905Y-149759295D01*
X141477905Y-149759295D02*
X141525524Y-149664057D01*
X141525524Y-149664057D02*
X141573143Y-149616438D01*
X141573143Y-149616438D02*
X141668381Y-149568819D01*
X141668381Y-149568819D02*
X141858857Y-149568819D01*
X141858857Y-149568819D02*
X141954095Y-149616438D01*
X141954095Y-149616438D02*
X142001714Y-149664057D01*
X142001714Y-149664057D02*
X142049333Y-149759295D01*
X142049333Y-149759295D02*
X142049333Y-149806914D01*
X142049333Y-149806914D02*
X142001714Y-149902152D01*
X142001714Y-149902152D02*
X141954095Y-149949771D01*
X141954095Y-149949771D02*
X141858857Y-149997390D01*
X141858857Y-149997390D02*
X141668381Y-149997390D01*
X141668381Y-149997390D02*
X141573143Y-150045009D01*
X141573143Y-150045009D02*
X141525524Y-150092628D01*
X141525524Y-150092628D02*
X141477905Y-150187866D01*
X141477905Y-150187866D02*
X141477905Y-150378342D01*
X141477905Y-150378342D02*
X141525524Y-150473580D01*
X141525524Y-150473580D02*
X141573143Y-150521200D01*
X141573143Y-150521200D02*
X141668381Y-150568819D01*
X141668381Y-150568819D02*
X141858857Y-150568819D01*
X141858857Y-150568819D02*
X141954095Y-150521200D01*
X141954095Y-150521200D02*
X142001714Y-150473580D01*
X142001714Y-150473580D02*
X142049333Y-150378342D01*
X142049333Y-150378342D02*
X142049333Y-150187866D01*
X142049333Y-150187866D02*
X142001714Y-150092628D01*
X142001714Y-150092628D02*
X141954095Y-150045009D01*
X141954095Y-150045009D02*
X141858857Y-149997390D01*
X138858857Y-166316819D02*
X138858857Y-165316819D01*
X138858857Y-165316819D02*
X139430285Y-166316819D01*
X139430285Y-166316819D02*
X139430285Y-165316819D01*
X140096952Y-165316819D02*
X140287428Y-165316819D01*
X140287428Y-165316819D02*
X140382666Y-165364438D01*
X140382666Y-165364438D02*
X140477904Y-165459676D01*
X140477904Y-165459676D02*
X140525523Y-165650152D01*
X140525523Y-165650152D02*
X140525523Y-165983485D01*
X140525523Y-165983485D02*
X140477904Y-166173961D01*
X140477904Y-166173961D02*
X140382666Y-166269200D01*
X140382666Y-166269200D02*
X140287428Y-166316819D01*
X140287428Y-166316819D02*
X140096952Y-166316819D01*
X140096952Y-166316819D02*
X140001714Y-166269200D01*
X140001714Y-166269200D02*
X139906476Y-166173961D01*
X139906476Y-166173961D02*
X139858857Y-165983485D01*
X139858857Y-165983485D02*
X139858857Y-165650152D01*
X139858857Y-165650152D02*
X139906476Y-165459676D01*
X139906476Y-165459676D02*
X140001714Y-165364438D01*
X140001714Y-165364438D02*
X140096952Y-165316819D01*
X140954095Y-165316819D02*
X140954095Y-166126342D01*
X140954095Y-166126342D02*
X141001714Y-166221580D01*
X141001714Y-166221580D02*
X141049333Y-166269200D01*
X141049333Y-166269200D02*
X141144571Y-166316819D01*
X141144571Y-166316819D02*
X141335047Y-166316819D01*
X141335047Y-166316819D02*
X141430285Y-166269200D01*
X141430285Y-166269200D02*
X141477904Y-166221580D01*
X141477904Y-166221580D02*
X141525523Y-166126342D01*
X141525523Y-166126342D02*
X141525523Y-165316819D01*
X142001714Y-166316819D02*
X142001714Y-165316819D01*
X142001714Y-165316819D02*
X142573142Y-166316819D01*
X142573142Y-166316819D02*
X142573142Y-165316819D01*
X214336333Y-156368819D02*
X214003000Y-155892628D01*
X213764905Y-156368819D02*
X213764905Y-155368819D01*
X213764905Y-155368819D02*
X214145857Y-155368819D01*
X214145857Y-155368819D02*
X214241095Y-155416438D01*
X214241095Y-155416438D02*
X214288714Y-155464057D01*
X214288714Y-155464057D02*
X214336333Y-155559295D01*
X214336333Y-155559295D02*
X214336333Y-155702152D01*
X214336333Y-155702152D02*
X214288714Y-155797390D01*
X214288714Y-155797390D02*
X214241095Y-155845009D01*
X214241095Y-155845009D02*
X214145857Y-155892628D01*
X214145857Y-155892628D02*
X213764905Y-155892628D01*
X214669667Y-155368819D02*
X215288714Y-155368819D01*
X215288714Y-155368819D02*
X214955381Y-155749771D01*
X214955381Y-155749771D02*
X215098238Y-155749771D01*
X215098238Y-155749771D02*
X215193476Y-155797390D01*
X215193476Y-155797390D02*
X215241095Y-155845009D01*
X215241095Y-155845009D02*
X215288714Y-155940247D01*
X215288714Y-155940247D02*
X215288714Y-156178342D01*
X215288714Y-156178342D02*
X215241095Y-156273580D01*
X215241095Y-156273580D02*
X215193476Y-156321200D01*
X215193476Y-156321200D02*
X215098238Y-156368819D01*
X215098238Y-156368819D02*
X214812524Y-156368819D01*
X214812524Y-156368819D02*
X214717286Y-156321200D01*
X214717286Y-156321200D02*
X214669667Y-156273580D01*
X263612333Y-156368819D02*
X263279000Y-155892628D01*
X263040905Y-156368819D02*
X263040905Y-155368819D01*
X263040905Y-155368819D02*
X263421857Y-155368819D01*
X263421857Y-155368819D02*
X263517095Y-155416438D01*
X263517095Y-155416438D02*
X263564714Y-155464057D01*
X263564714Y-155464057D02*
X263612333Y-155559295D01*
X263612333Y-155559295D02*
X263612333Y-155702152D01*
X263612333Y-155702152D02*
X263564714Y-155797390D01*
X263564714Y-155797390D02*
X263517095Y-155845009D01*
X263517095Y-155845009D02*
X263421857Y-155892628D01*
X263421857Y-155892628D02*
X263040905Y-155892628D01*
X264517095Y-155368819D02*
X264040905Y-155368819D01*
X264040905Y-155368819D02*
X263993286Y-155845009D01*
X263993286Y-155845009D02*
X264040905Y-155797390D01*
X264040905Y-155797390D02*
X264136143Y-155749771D01*
X264136143Y-155749771D02*
X264374238Y-155749771D01*
X264374238Y-155749771D02*
X264469476Y-155797390D01*
X264469476Y-155797390D02*
X264517095Y-155845009D01*
X264517095Y-155845009D02*
X264564714Y-155940247D01*
X264564714Y-155940247D02*
X264564714Y-156178342D01*
X264564714Y-156178342D02*
X264517095Y-156273580D01*
X264517095Y-156273580D02*
X264469476Y-156321200D01*
X264469476Y-156321200D02*
X264374238Y-156368819D01*
X264374238Y-156368819D02*
X264136143Y-156368819D01*
X264136143Y-156368819D02*
X264040905Y-156321200D01*
X264040905Y-156321200D02*
X263993286Y-156273580D01*
X139382667Y-125883200D02*
X139525524Y-125930819D01*
X139525524Y-125930819D02*
X139763619Y-125930819D01*
X139763619Y-125930819D02*
X139858857Y-125883200D01*
X139858857Y-125883200D02*
X139906476Y-125835580D01*
X139906476Y-125835580D02*
X139954095Y-125740342D01*
X139954095Y-125740342D02*
X139954095Y-125645104D01*
X139954095Y-125645104D02*
X139906476Y-125549866D01*
X139906476Y-125549866D02*
X139858857Y-125502247D01*
X139858857Y-125502247D02*
X139763619Y-125454628D01*
X139763619Y-125454628D02*
X139573143Y-125407009D01*
X139573143Y-125407009D02*
X139477905Y-125359390D01*
X139477905Y-125359390D02*
X139430286Y-125311771D01*
X139430286Y-125311771D02*
X139382667Y-125216533D01*
X139382667Y-125216533D02*
X139382667Y-125121295D01*
X139382667Y-125121295D02*
X139430286Y-125026057D01*
X139430286Y-125026057D02*
X139477905Y-124978438D01*
X139477905Y-124978438D02*
X139573143Y-124930819D01*
X139573143Y-124930819D02*
X139811238Y-124930819D01*
X139811238Y-124930819D02*
X139954095Y-124978438D01*
X140287429Y-124930819D02*
X140525524Y-125930819D01*
X140525524Y-125930819D02*
X140716000Y-125216533D01*
X140716000Y-125216533D02*
X140906476Y-125930819D01*
X140906476Y-125930819D02*
X141144572Y-124930819D01*
X141954095Y-125264152D02*
X141954095Y-125930819D01*
X141716000Y-124883200D02*
X141477905Y-125597485D01*
X141477905Y-125597485D02*
X142096952Y-125597485D01*
X138930286Y-140678819D02*
X139263619Y-141678819D01*
X139263619Y-141678819D02*
X139596952Y-140678819D01*
X139930286Y-141155009D02*
X140263619Y-141155009D01*
X140406476Y-141678819D02*
X139930286Y-141678819D01*
X139930286Y-141678819D02*
X139930286Y-140678819D01*
X139930286Y-140678819D02*
X140406476Y-140678819D01*
X141406476Y-141678819D02*
X141073143Y-141202628D01*
X140835048Y-141678819D02*
X140835048Y-140678819D01*
X140835048Y-140678819D02*
X141216000Y-140678819D01*
X141216000Y-140678819D02*
X141311238Y-140726438D01*
X141311238Y-140726438D02*
X141358857Y-140774057D01*
X141358857Y-140774057D02*
X141406476Y-140869295D01*
X141406476Y-140869295D02*
X141406476Y-141012152D01*
X141406476Y-141012152D02*
X141358857Y-141107390D01*
X141358857Y-141107390D02*
X141311238Y-141155009D01*
X141311238Y-141155009D02*
X141216000Y-141202628D01*
X141216000Y-141202628D02*
X140835048Y-141202628D01*
X142168381Y-141155009D02*
X142311238Y-141202628D01*
X142311238Y-141202628D02*
X142358857Y-141250247D01*
X142358857Y-141250247D02*
X142406476Y-141345485D01*
X142406476Y-141345485D02*
X142406476Y-141488342D01*
X142406476Y-141488342D02*
X142358857Y-141583580D01*
X142358857Y-141583580D02*
X142311238Y-141631200D01*
X142311238Y-141631200D02*
X142216000Y-141678819D01*
X142216000Y-141678819D02*
X141835048Y-141678819D01*
X141835048Y-141678819D02*
X141835048Y-140678819D01*
X141835048Y-140678819D02*
X142168381Y-140678819D01*
X142168381Y-140678819D02*
X142263619Y-140726438D01*
X142263619Y-140726438D02*
X142311238Y-140774057D01*
X142311238Y-140774057D02*
X142358857Y-140869295D01*
X142358857Y-140869295D02*
X142358857Y-140964533D01*
X142358857Y-140964533D02*
X142311238Y-141059771D01*
X142311238Y-141059771D02*
X142263619Y-141107390D01*
X142263619Y-141107390D02*
X142168381Y-141155009D01*
X142168381Y-141155009D02*
X141835048Y-141155009D01*
X213296667Y-113564200D02*
X213439524Y-113611819D01*
X213439524Y-113611819D02*
X213677619Y-113611819D01*
X213677619Y-113611819D02*
X213772857Y-113564200D01*
X213772857Y-113564200D02*
X213820476Y-113516580D01*
X213820476Y-113516580D02*
X213868095Y-113421342D01*
X213868095Y-113421342D02*
X213868095Y-113326104D01*
X213868095Y-113326104D02*
X213820476Y-113230866D01*
X213820476Y-113230866D02*
X213772857Y-113183247D01*
X213772857Y-113183247D02*
X213677619Y-113135628D01*
X213677619Y-113135628D02*
X213487143Y-113088009D01*
X213487143Y-113088009D02*
X213391905Y-113040390D01*
X213391905Y-113040390D02*
X213344286Y-112992771D01*
X213344286Y-112992771D02*
X213296667Y-112897533D01*
X213296667Y-112897533D02*
X213296667Y-112802295D01*
X213296667Y-112802295D02*
X213344286Y-112707057D01*
X213344286Y-112707057D02*
X213391905Y-112659438D01*
X213391905Y-112659438D02*
X213487143Y-112611819D01*
X213487143Y-112611819D02*
X213725238Y-112611819D01*
X213725238Y-112611819D02*
X213868095Y-112659438D01*
X214201429Y-112611819D02*
X214439524Y-113611819D01*
X214439524Y-113611819D02*
X214630000Y-112897533D01*
X214630000Y-112897533D02*
X214820476Y-113611819D01*
X214820476Y-113611819D02*
X215058572Y-112611819D01*
X215487143Y-113611819D02*
X215677619Y-113611819D01*
X215677619Y-113611819D02*
X215772857Y-113564200D01*
X215772857Y-113564200D02*
X215820476Y-113516580D01*
X215820476Y-113516580D02*
X215915714Y-113373723D01*
X215915714Y-113373723D02*
X215963333Y-113183247D01*
X215963333Y-113183247D02*
X215963333Y-112802295D01*
X215963333Y-112802295D02*
X215915714Y-112707057D01*
X215915714Y-112707057D02*
X215868095Y-112659438D01*
X215868095Y-112659438D02*
X215772857Y-112611819D01*
X215772857Y-112611819D02*
X215582381Y-112611819D01*
X215582381Y-112611819D02*
X215487143Y-112659438D01*
X215487143Y-112659438D02*
X215439524Y-112707057D01*
X215439524Y-112707057D02*
X215391905Y-112802295D01*
X215391905Y-112802295D02*
X215391905Y-113040390D01*
X215391905Y-113040390D02*
X215439524Y-113135628D01*
X215439524Y-113135628D02*
X215487143Y-113183247D01*
X215487143Y-113183247D02*
X215582381Y-113230866D01*
X215582381Y-113230866D02*
X215772857Y-113230866D01*
X215772857Y-113230866D02*
X215868095Y-113183247D01*
X215868095Y-113183247D02*
X215915714Y-113135628D01*
X215915714Y-113135628D02*
X215963333Y-113040390D01*
X214534762Y-128788390D02*
X214439524Y-128740771D01*
X214439524Y-128740771D02*
X214391905Y-128693152D01*
X214391905Y-128693152D02*
X214344286Y-128597914D01*
X214344286Y-128597914D02*
X214344286Y-128550295D01*
X214344286Y-128550295D02*
X214391905Y-128455057D01*
X214391905Y-128455057D02*
X214439524Y-128407438D01*
X214439524Y-128407438D02*
X214534762Y-128359819D01*
X214534762Y-128359819D02*
X214725238Y-128359819D01*
X214725238Y-128359819D02*
X214820476Y-128407438D01*
X214820476Y-128407438D02*
X214868095Y-128455057D01*
X214868095Y-128455057D02*
X214915714Y-128550295D01*
X214915714Y-128550295D02*
X214915714Y-128597914D01*
X214915714Y-128597914D02*
X214868095Y-128693152D01*
X214868095Y-128693152D02*
X214820476Y-128740771D01*
X214820476Y-128740771D02*
X214725238Y-128788390D01*
X214725238Y-128788390D02*
X214534762Y-128788390D01*
X214534762Y-128788390D02*
X214439524Y-128836009D01*
X214439524Y-128836009D02*
X214391905Y-128883628D01*
X214391905Y-128883628D02*
X214344286Y-128978866D01*
X214344286Y-128978866D02*
X214344286Y-129169342D01*
X214344286Y-129169342D02*
X214391905Y-129264580D01*
X214391905Y-129264580D02*
X214439524Y-129312200D01*
X214439524Y-129312200D02*
X214534762Y-129359819D01*
X214534762Y-129359819D02*
X214725238Y-129359819D01*
X214725238Y-129359819D02*
X214820476Y-129312200D01*
X214820476Y-129312200D02*
X214868095Y-129264580D01*
X214868095Y-129264580D02*
X214915714Y-129169342D01*
X214915714Y-129169342D02*
X214915714Y-128978866D01*
X214915714Y-128978866D02*
X214868095Y-128883628D01*
X214868095Y-128883628D02*
X214820476Y-128836009D01*
X214820476Y-128836009D02*
X214725238Y-128788390D01*
X164020667Y-138202200D02*
X164163524Y-138249819D01*
X164163524Y-138249819D02*
X164401619Y-138249819D01*
X164401619Y-138249819D02*
X164496857Y-138202200D01*
X164496857Y-138202200D02*
X164544476Y-138154580D01*
X164544476Y-138154580D02*
X164592095Y-138059342D01*
X164592095Y-138059342D02*
X164592095Y-137964104D01*
X164592095Y-137964104D02*
X164544476Y-137868866D01*
X164544476Y-137868866D02*
X164496857Y-137821247D01*
X164496857Y-137821247D02*
X164401619Y-137773628D01*
X164401619Y-137773628D02*
X164211143Y-137726009D01*
X164211143Y-137726009D02*
X164115905Y-137678390D01*
X164115905Y-137678390D02*
X164068286Y-137630771D01*
X164068286Y-137630771D02*
X164020667Y-137535533D01*
X164020667Y-137535533D02*
X164020667Y-137440295D01*
X164020667Y-137440295D02*
X164068286Y-137345057D01*
X164068286Y-137345057D02*
X164115905Y-137297438D01*
X164115905Y-137297438D02*
X164211143Y-137249819D01*
X164211143Y-137249819D02*
X164449238Y-137249819D01*
X164449238Y-137249819D02*
X164592095Y-137297438D01*
X164925429Y-137249819D02*
X165163524Y-138249819D01*
X165163524Y-138249819D02*
X165354000Y-137535533D01*
X165354000Y-137535533D02*
X165544476Y-138249819D01*
X165544476Y-138249819D02*
X165782572Y-137249819D01*
X166115905Y-137345057D02*
X166163524Y-137297438D01*
X166163524Y-137297438D02*
X166258762Y-137249819D01*
X166258762Y-137249819D02*
X166496857Y-137249819D01*
X166496857Y-137249819D02*
X166592095Y-137297438D01*
X166592095Y-137297438D02*
X166639714Y-137345057D01*
X166639714Y-137345057D02*
X166687333Y-137440295D01*
X166687333Y-137440295D02*
X166687333Y-137535533D01*
X166687333Y-137535533D02*
X166639714Y-137678390D01*
X166639714Y-137678390D02*
X166068286Y-138249819D01*
X166068286Y-138249819D02*
X166687333Y-138249819D01*
X164973048Y-153616866D02*
X165734953Y-153616866D01*
X262096476Y-138202200D02*
X262239333Y-138249819D01*
X262239333Y-138249819D02*
X262477428Y-138249819D01*
X262477428Y-138249819D02*
X262572666Y-138202200D01*
X262572666Y-138202200D02*
X262620285Y-138154580D01*
X262620285Y-138154580D02*
X262667904Y-138059342D01*
X262667904Y-138059342D02*
X262667904Y-137964104D01*
X262667904Y-137964104D02*
X262620285Y-137868866D01*
X262620285Y-137868866D02*
X262572666Y-137821247D01*
X262572666Y-137821247D02*
X262477428Y-137773628D01*
X262477428Y-137773628D02*
X262286952Y-137726009D01*
X262286952Y-137726009D02*
X262191714Y-137678390D01*
X262191714Y-137678390D02*
X262144095Y-137630771D01*
X262144095Y-137630771D02*
X262096476Y-137535533D01*
X262096476Y-137535533D02*
X262096476Y-137440295D01*
X262096476Y-137440295D02*
X262144095Y-137345057D01*
X262144095Y-137345057D02*
X262191714Y-137297438D01*
X262191714Y-137297438D02*
X262286952Y-137249819D01*
X262286952Y-137249819D02*
X262525047Y-137249819D01*
X262525047Y-137249819D02*
X262667904Y-137297438D01*
X263001238Y-137249819D02*
X263239333Y-138249819D01*
X263239333Y-138249819D02*
X263429809Y-137535533D01*
X263429809Y-137535533D02*
X263620285Y-138249819D01*
X263620285Y-138249819D02*
X263858381Y-137249819D01*
X264763142Y-138249819D02*
X264191714Y-138249819D01*
X264477428Y-138249819D02*
X264477428Y-137249819D01*
X264477428Y-137249819D02*
X264382190Y-137392676D01*
X264382190Y-137392676D02*
X264286952Y-137487914D01*
X264286952Y-137487914D02*
X264191714Y-137535533D01*
X265096476Y-137249819D02*
X265763142Y-137249819D01*
X265763142Y-137249819D02*
X265334571Y-138249819D01*
X262620286Y-153997819D02*
X262620286Y-152997819D01*
X262620286Y-152997819D02*
X263001238Y-152997819D01*
X263001238Y-152997819D02*
X263096476Y-153045438D01*
X263096476Y-153045438D02*
X263144095Y-153093057D01*
X263144095Y-153093057D02*
X263191714Y-153188295D01*
X263191714Y-153188295D02*
X263191714Y-153331152D01*
X263191714Y-153331152D02*
X263144095Y-153426390D01*
X263144095Y-153426390D02*
X263096476Y-153474009D01*
X263096476Y-153474009D02*
X263001238Y-153521628D01*
X263001238Y-153521628D02*
X262620286Y-153521628D01*
X264191714Y-153997819D02*
X263858381Y-153521628D01*
X263620286Y-153997819D02*
X263620286Y-152997819D01*
X263620286Y-152997819D02*
X264001238Y-152997819D01*
X264001238Y-152997819D02*
X264096476Y-153045438D01*
X264096476Y-153045438D02*
X264144095Y-153093057D01*
X264144095Y-153093057D02*
X264191714Y-153188295D01*
X264191714Y-153188295D02*
X264191714Y-153331152D01*
X264191714Y-153331152D02*
X264144095Y-153426390D01*
X264144095Y-153426390D02*
X264096476Y-153474009D01*
X264096476Y-153474009D02*
X264001238Y-153521628D01*
X264001238Y-153521628D02*
X263620286Y-153521628D01*
X264810762Y-152997819D02*
X265001238Y-152997819D01*
X265001238Y-152997819D02*
X265096476Y-153045438D01*
X265096476Y-153045438D02*
X265191714Y-153140676D01*
X265191714Y-153140676D02*
X265239333Y-153331152D01*
X265239333Y-153331152D02*
X265239333Y-153664485D01*
X265239333Y-153664485D02*
X265191714Y-153854961D01*
X265191714Y-153854961D02*
X265096476Y-153950200D01*
X265096476Y-153950200D02*
X265001238Y-153997819D01*
X265001238Y-153997819D02*
X264810762Y-153997819D01*
X264810762Y-153997819D02*
X264715524Y-153950200D01*
X264715524Y-153950200D02*
X264620286Y-153854961D01*
X264620286Y-153854961D02*
X264572667Y-153664485D01*
X264572667Y-153664485D02*
X264572667Y-153331152D01*
X264572667Y-153331152D02*
X264620286Y-153140676D01*
X264620286Y-153140676D02*
X264715524Y-153045438D01*
X264715524Y-153045438D02*
X264810762Y-152997819D01*
X188658667Y-138202200D02*
X188801524Y-138249819D01*
X188801524Y-138249819D02*
X189039619Y-138249819D01*
X189039619Y-138249819D02*
X189134857Y-138202200D01*
X189134857Y-138202200D02*
X189182476Y-138154580D01*
X189182476Y-138154580D02*
X189230095Y-138059342D01*
X189230095Y-138059342D02*
X189230095Y-137964104D01*
X189230095Y-137964104D02*
X189182476Y-137868866D01*
X189182476Y-137868866D02*
X189134857Y-137821247D01*
X189134857Y-137821247D02*
X189039619Y-137773628D01*
X189039619Y-137773628D02*
X188849143Y-137726009D01*
X188849143Y-137726009D02*
X188753905Y-137678390D01*
X188753905Y-137678390D02*
X188706286Y-137630771D01*
X188706286Y-137630771D02*
X188658667Y-137535533D01*
X188658667Y-137535533D02*
X188658667Y-137440295D01*
X188658667Y-137440295D02*
X188706286Y-137345057D01*
X188706286Y-137345057D02*
X188753905Y-137297438D01*
X188753905Y-137297438D02*
X188849143Y-137249819D01*
X188849143Y-137249819D02*
X189087238Y-137249819D01*
X189087238Y-137249819D02*
X189230095Y-137297438D01*
X189563429Y-137249819D02*
X189801524Y-138249819D01*
X189801524Y-138249819D02*
X189992000Y-137535533D01*
X189992000Y-137535533D02*
X190182476Y-138249819D01*
X190182476Y-138249819D02*
X190420572Y-137249819D01*
X191230095Y-137249819D02*
X191039619Y-137249819D01*
X191039619Y-137249819D02*
X190944381Y-137297438D01*
X190944381Y-137297438D02*
X190896762Y-137345057D01*
X190896762Y-137345057D02*
X190801524Y-137487914D01*
X190801524Y-137487914D02*
X190753905Y-137678390D01*
X190753905Y-137678390D02*
X190753905Y-138059342D01*
X190753905Y-138059342D02*
X190801524Y-138154580D01*
X190801524Y-138154580D02*
X190849143Y-138202200D01*
X190849143Y-138202200D02*
X190944381Y-138249819D01*
X190944381Y-138249819D02*
X191134857Y-138249819D01*
X191134857Y-138249819D02*
X191230095Y-138202200D01*
X191230095Y-138202200D02*
X191277714Y-138154580D01*
X191277714Y-138154580D02*
X191325333Y-138059342D01*
X191325333Y-138059342D02*
X191325333Y-137821247D01*
X191325333Y-137821247D02*
X191277714Y-137726009D01*
X191277714Y-137726009D02*
X191230095Y-137678390D01*
X191230095Y-137678390D02*
X191134857Y-137630771D01*
X191134857Y-137630771D02*
X190944381Y-137630771D01*
X190944381Y-137630771D02*
X190849143Y-137678390D01*
X190849143Y-137678390D02*
X190801524Y-137726009D01*
X190801524Y-137726009D02*
X190753905Y-137821247D01*
X190182476Y-153331152D02*
X190182476Y-153997819D01*
X189944381Y-152950200D02*
X189706286Y-153664485D01*
X189706286Y-153664485D02*
X190325333Y-153664485D01*
X262096476Y-113564200D02*
X262239333Y-113611819D01*
X262239333Y-113611819D02*
X262477428Y-113611819D01*
X262477428Y-113611819D02*
X262572666Y-113564200D01*
X262572666Y-113564200D02*
X262620285Y-113516580D01*
X262620285Y-113516580D02*
X262667904Y-113421342D01*
X262667904Y-113421342D02*
X262667904Y-113326104D01*
X262667904Y-113326104D02*
X262620285Y-113230866D01*
X262620285Y-113230866D02*
X262572666Y-113183247D01*
X262572666Y-113183247D02*
X262477428Y-113135628D01*
X262477428Y-113135628D02*
X262286952Y-113088009D01*
X262286952Y-113088009D02*
X262191714Y-113040390D01*
X262191714Y-113040390D02*
X262144095Y-112992771D01*
X262144095Y-112992771D02*
X262096476Y-112897533D01*
X262096476Y-112897533D02*
X262096476Y-112802295D01*
X262096476Y-112802295D02*
X262144095Y-112707057D01*
X262144095Y-112707057D02*
X262191714Y-112659438D01*
X262191714Y-112659438D02*
X262286952Y-112611819D01*
X262286952Y-112611819D02*
X262525047Y-112611819D01*
X262525047Y-112611819D02*
X262667904Y-112659438D01*
X263001238Y-112611819D02*
X263239333Y-113611819D01*
X263239333Y-113611819D02*
X263429809Y-112897533D01*
X263429809Y-112897533D02*
X263620285Y-113611819D01*
X263620285Y-113611819D02*
X263858381Y-112611819D01*
X264763142Y-113611819D02*
X264191714Y-113611819D01*
X264477428Y-113611819D02*
X264477428Y-112611819D01*
X264477428Y-112611819D02*
X264382190Y-112754676D01*
X264382190Y-112754676D02*
X264286952Y-112849914D01*
X264286952Y-112849914D02*
X264191714Y-112897533D01*
X265620285Y-112611819D02*
X265429809Y-112611819D01*
X265429809Y-112611819D02*
X265334571Y-112659438D01*
X265334571Y-112659438D02*
X265286952Y-112707057D01*
X265286952Y-112707057D02*
X265191714Y-112849914D01*
X265191714Y-112849914D02*
X265144095Y-113040390D01*
X265144095Y-113040390D02*
X265144095Y-113421342D01*
X265144095Y-113421342D02*
X265191714Y-113516580D01*
X265191714Y-113516580D02*
X265239333Y-113564200D01*
X265239333Y-113564200D02*
X265334571Y-113611819D01*
X265334571Y-113611819D02*
X265525047Y-113611819D01*
X265525047Y-113611819D02*
X265620285Y-113564200D01*
X265620285Y-113564200D02*
X265667904Y-113516580D01*
X265667904Y-113516580D02*
X265715523Y-113421342D01*
X265715523Y-113421342D02*
X265715523Y-113183247D01*
X265715523Y-113183247D02*
X265667904Y-113088009D01*
X265667904Y-113088009D02*
X265620285Y-113040390D01*
X265620285Y-113040390D02*
X265525047Y-112992771D01*
X265525047Y-112992771D02*
X265334571Y-112992771D01*
X265334571Y-112992771D02*
X265239333Y-113040390D01*
X265239333Y-113040390D02*
X265191714Y-113088009D01*
X265191714Y-113088009D02*
X265144095Y-113183247D01*
X263310761Y-129264580D02*
X263263142Y-129312200D01*
X263263142Y-129312200D02*
X263120285Y-129359819D01*
X263120285Y-129359819D02*
X263025047Y-129359819D01*
X263025047Y-129359819D02*
X262882190Y-129312200D01*
X262882190Y-129312200D02*
X262786952Y-129216961D01*
X262786952Y-129216961D02*
X262739333Y-129121723D01*
X262739333Y-129121723D02*
X262691714Y-128931247D01*
X262691714Y-128931247D02*
X262691714Y-128788390D01*
X262691714Y-128788390D02*
X262739333Y-128597914D01*
X262739333Y-128597914D02*
X262786952Y-128502676D01*
X262786952Y-128502676D02*
X262882190Y-128407438D01*
X262882190Y-128407438D02*
X263025047Y-128359819D01*
X263025047Y-128359819D02*
X263120285Y-128359819D01*
X263120285Y-128359819D02*
X263263142Y-128407438D01*
X263263142Y-128407438D02*
X263310761Y-128455057D01*
X264215523Y-129359819D02*
X263739333Y-129359819D01*
X263739333Y-129359819D02*
X263739333Y-128359819D01*
X265120285Y-129359819D02*
X264786952Y-128883628D01*
X264548857Y-129359819D02*
X264548857Y-128359819D01*
X264548857Y-128359819D02*
X264929809Y-128359819D01*
X264929809Y-128359819D02*
X265025047Y-128407438D01*
X265025047Y-128407438D02*
X265072666Y-128455057D01*
X265072666Y-128455057D02*
X265120285Y-128550295D01*
X265120285Y-128550295D02*
X265120285Y-128693152D01*
X265120285Y-128693152D02*
X265072666Y-128788390D01*
X265072666Y-128788390D02*
X265025047Y-128836009D01*
X265025047Y-128836009D02*
X264929809Y-128883628D01*
X264929809Y-128883628D02*
X264548857Y-128883628D01*
X262096476Y-162840200D02*
X262239333Y-162887819D01*
X262239333Y-162887819D02*
X262477428Y-162887819D01*
X262477428Y-162887819D02*
X262572666Y-162840200D01*
X262572666Y-162840200D02*
X262620285Y-162792580D01*
X262620285Y-162792580D02*
X262667904Y-162697342D01*
X262667904Y-162697342D02*
X262667904Y-162602104D01*
X262667904Y-162602104D02*
X262620285Y-162506866D01*
X262620285Y-162506866D02*
X262572666Y-162459247D01*
X262572666Y-162459247D02*
X262477428Y-162411628D01*
X262477428Y-162411628D02*
X262286952Y-162364009D01*
X262286952Y-162364009D02*
X262191714Y-162316390D01*
X262191714Y-162316390D02*
X262144095Y-162268771D01*
X262144095Y-162268771D02*
X262096476Y-162173533D01*
X262096476Y-162173533D02*
X262096476Y-162078295D01*
X262096476Y-162078295D02*
X262144095Y-161983057D01*
X262144095Y-161983057D02*
X262191714Y-161935438D01*
X262191714Y-161935438D02*
X262286952Y-161887819D01*
X262286952Y-161887819D02*
X262525047Y-161887819D01*
X262525047Y-161887819D02*
X262667904Y-161935438D01*
X263001238Y-161887819D02*
X263239333Y-162887819D01*
X263239333Y-162887819D02*
X263429809Y-162173533D01*
X263429809Y-162173533D02*
X263620285Y-162887819D01*
X263620285Y-162887819D02*
X263858381Y-161887819D01*
X264763142Y-162887819D02*
X264191714Y-162887819D01*
X264477428Y-162887819D02*
X264477428Y-161887819D01*
X264477428Y-161887819D02*
X264382190Y-162030676D01*
X264382190Y-162030676D02*
X264286952Y-162125914D01*
X264286952Y-162125914D02*
X264191714Y-162173533D01*
X265334571Y-162316390D02*
X265239333Y-162268771D01*
X265239333Y-162268771D02*
X265191714Y-162221152D01*
X265191714Y-162221152D02*
X265144095Y-162125914D01*
X265144095Y-162125914D02*
X265144095Y-162078295D01*
X265144095Y-162078295D02*
X265191714Y-161983057D01*
X265191714Y-161983057D02*
X265239333Y-161935438D01*
X265239333Y-161935438D02*
X265334571Y-161887819D01*
X265334571Y-161887819D02*
X265525047Y-161887819D01*
X265525047Y-161887819D02*
X265620285Y-161935438D01*
X265620285Y-161935438D02*
X265667904Y-161983057D01*
X265667904Y-161983057D02*
X265715523Y-162078295D01*
X265715523Y-162078295D02*
X265715523Y-162125914D01*
X265715523Y-162125914D02*
X265667904Y-162221152D01*
X265667904Y-162221152D02*
X265620285Y-162268771D01*
X265620285Y-162268771D02*
X265525047Y-162316390D01*
X265525047Y-162316390D02*
X265334571Y-162316390D01*
X265334571Y-162316390D02*
X265239333Y-162364009D01*
X265239333Y-162364009D02*
X265191714Y-162411628D01*
X265191714Y-162411628D02*
X265144095Y-162506866D01*
X265144095Y-162506866D02*
X265144095Y-162697342D01*
X265144095Y-162697342D02*
X265191714Y-162792580D01*
X265191714Y-162792580D02*
X265239333Y-162840200D01*
X265239333Y-162840200D02*
X265334571Y-162887819D01*
X265334571Y-162887819D02*
X265525047Y-162887819D01*
X265525047Y-162887819D02*
X265620285Y-162840200D01*
X265620285Y-162840200D02*
X265667904Y-162792580D01*
X265667904Y-162792580D02*
X265715523Y-162697342D01*
X265715523Y-162697342D02*
X265715523Y-162506866D01*
X265715523Y-162506866D02*
X265667904Y-162411628D01*
X265667904Y-162411628D02*
X265620285Y-162364009D01*
X265620285Y-162364009D02*
X265525047Y-162316390D01*
X261406000Y-178635819D02*
X261406000Y-177635819D01*
X261977428Y-178635819D02*
X261548857Y-178064390D01*
X261977428Y-177635819D02*
X261406000Y-178207247D01*
X262406000Y-178112009D02*
X262739333Y-178112009D01*
X262882190Y-178635819D02*
X262406000Y-178635819D01*
X262406000Y-178635819D02*
X262406000Y-177635819D01*
X262406000Y-177635819D02*
X262882190Y-177635819D01*
X263501238Y-178159628D02*
X263501238Y-178635819D01*
X263167905Y-177635819D02*
X263501238Y-178159628D01*
X263501238Y-178159628D02*
X263834571Y-177635819D01*
X264739333Y-178635819D02*
X264406000Y-178159628D01*
X264167905Y-178635819D02*
X264167905Y-177635819D01*
X264167905Y-177635819D02*
X264548857Y-177635819D01*
X264548857Y-177635819D02*
X264644095Y-177683438D01*
X264644095Y-177683438D02*
X264691714Y-177731057D01*
X264691714Y-177731057D02*
X264739333Y-177826295D01*
X264739333Y-177826295D02*
X264739333Y-177969152D01*
X264739333Y-177969152D02*
X264691714Y-178064390D01*
X264691714Y-178064390D02*
X264644095Y-178112009D01*
X264644095Y-178112009D02*
X264548857Y-178159628D01*
X264548857Y-178159628D02*
X264167905Y-178159628D01*
X265167905Y-178112009D02*
X265501238Y-178112009D01*
X265644095Y-178635819D02*
X265167905Y-178635819D01*
X265167905Y-178635819D02*
X265167905Y-177635819D01*
X265167905Y-177635819D02*
X265644095Y-177635819D01*
X266548857Y-178635819D02*
X266072667Y-178635819D01*
X266072667Y-178635819D02*
X266072667Y-177635819D01*
X212820476Y-138202200D02*
X212963333Y-138249819D01*
X212963333Y-138249819D02*
X213201428Y-138249819D01*
X213201428Y-138249819D02*
X213296666Y-138202200D01*
X213296666Y-138202200D02*
X213344285Y-138154580D01*
X213344285Y-138154580D02*
X213391904Y-138059342D01*
X213391904Y-138059342D02*
X213391904Y-137964104D01*
X213391904Y-137964104D02*
X213344285Y-137868866D01*
X213344285Y-137868866D02*
X213296666Y-137821247D01*
X213296666Y-137821247D02*
X213201428Y-137773628D01*
X213201428Y-137773628D02*
X213010952Y-137726009D01*
X213010952Y-137726009D02*
X212915714Y-137678390D01*
X212915714Y-137678390D02*
X212868095Y-137630771D01*
X212868095Y-137630771D02*
X212820476Y-137535533D01*
X212820476Y-137535533D02*
X212820476Y-137440295D01*
X212820476Y-137440295D02*
X212868095Y-137345057D01*
X212868095Y-137345057D02*
X212915714Y-137297438D01*
X212915714Y-137297438D02*
X213010952Y-137249819D01*
X213010952Y-137249819D02*
X213249047Y-137249819D01*
X213249047Y-137249819D02*
X213391904Y-137297438D01*
X213725238Y-137249819D02*
X213963333Y-138249819D01*
X213963333Y-138249819D02*
X214153809Y-137535533D01*
X214153809Y-137535533D02*
X214344285Y-138249819D01*
X214344285Y-138249819D02*
X214582381Y-137249819D01*
X215487142Y-138249819D02*
X214915714Y-138249819D01*
X215201428Y-138249819D02*
X215201428Y-137249819D01*
X215201428Y-137249819D02*
X215106190Y-137392676D01*
X215106190Y-137392676D02*
X215010952Y-137487914D01*
X215010952Y-137487914D02*
X214915714Y-137535533D01*
X216106190Y-137249819D02*
X216201428Y-137249819D01*
X216201428Y-137249819D02*
X216296666Y-137297438D01*
X216296666Y-137297438D02*
X216344285Y-137345057D01*
X216344285Y-137345057D02*
X216391904Y-137440295D01*
X216391904Y-137440295D02*
X216439523Y-137630771D01*
X216439523Y-137630771D02*
X216439523Y-137868866D01*
X216439523Y-137868866D02*
X216391904Y-138059342D01*
X216391904Y-138059342D02*
X216344285Y-138154580D01*
X216344285Y-138154580D02*
X216296666Y-138202200D01*
X216296666Y-138202200D02*
X216201428Y-138249819D01*
X216201428Y-138249819D02*
X216106190Y-138249819D01*
X216106190Y-138249819D02*
X216010952Y-138202200D01*
X216010952Y-138202200D02*
X215963333Y-138154580D01*
X215963333Y-138154580D02*
X215915714Y-138059342D01*
X215915714Y-138059342D02*
X215868095Y-137868866D01*
X215868095Y-137868866D02*
X215868095Y-137630771D01*
X215868095Y-137630771D02*
X215915714Y-137440295D01*
X215915714Y-137440295D02*
X215963333Y-137345057D01*
X215963333Y-137345057D02*
X216010952Y-137297438D01*
X216010952Y-137297438D02*
X216106190Y-137249819D01*
X214868095Y-152997819D02*
X214391905Y-152997819D01*
X214391905Y-152997819D02*
X214344286Y-153474009D01*
X214344286Y-153474009D02*
X214391905Y-153426390D01*
X214391905Y-153426390D02*
X214487143Y-153378771D01*
X214487143Y-153378771D02*
X214725238Y-153378771D01*
X214725238Y-153378771D02*
X214820476Y-153426390D01*
X214820476Y-153426390D02*
X214868095Y-153474009D01*
X214868095Y-153474009D02*
X214915714Y-153569247D01*
X214915714Y-153569247D02*
X214915714Y-153807342D01*
X214915714Y-153807342D02*
X214868095Y-153902580D01*
X214868095Y-153902580D02*
X214820476Y-153950200D01*
X214820476Y-153950200D02*
X214725238Y-153997819D01*
X214725238Y-153997819D02*
X214487143Y-153997819D01*
X214487143Y-153997819D02*
X214391905Y-153950200D01*
X214391905Y-153950200D02*
X214344286Y-153902580D01*
X237458476Y-113564200D02*
X237601333Y-113611819D01*
X237601333Y-113611819D02*
X237839428Y-113611819D01*
X237839428Y-113611819D02*
X237934666Y-113564200D01*
X237934666Y-113564200D02*
X237982285Y-113516580D01*
X237982285Y-113516580D02*
X238029904Y-113421342D01*
X238029904Y-113421342D02*
X238029904Y-113326104D01*
X238029904Y-113326104D02*
X237982285Y-113230866D01*
X237982285Y-113230866D02*
X237934666Y-113183247D01*
X237934666Y-113183247D02*
X237839428Y-113135628D01*
X237839428Y-113135628D02*
X237648952Y-113088009D01*
X237648952Y-113088009D02*
X237553714Y-113040390D01*
X237553714Y-113040390D02*
X237506095Y-112992771D01*
X237506095Y-112992771D02*
X237458476Y-112897533D01*
X237458476Y-112897533D02*
X237458476Y-112802295D01*
X237458476Y-112802295D02*
X237506095Y-112707057D01*
X237506095Y-112707057D02*
X237553714Y-112659438D01*
X237553714Y-112659438D02*
X237648952Y-112611819D01*
X237648952Y-112611819D02*
X237887047Y-112611819D01*
X237887047Y-112611819D02*
X238029904Y-112659438D01*
X238363238Y-112611819D02*
X238601333Y-113611819D01*
X238601333Y-113611819D02*
X238791809Y-112897533D01*
X238791809Y-112897533D02*
X238982285Y-113611819D01*
X238982285Y-113611819D02*
X239220381Y-112611819D01*
X240125142Y-113611819D02*
X239553714Y-113611819D01*
X239839428Y-113611819D02*
X239839428Y-112611819D01*
X239839428Y-112611819D02*
X239744190Y-112754676D01*
X239744190Y-112754676D02*
X239648952Y-112849914D01*
X239648952Y-112849914D02*
X239553714Y-112897533D01*
X240506095Y-112707057D02*
X240553714Y-112659438D01*
X240553714Y-112659438D02*
X240648952Y-112611819D01*
X240648952Y-112611819D02*
X240887047Y-112611819D01*
X240887047Y-112611819D02*
X240982285Y-112659438D01*
X240982285Y-112659438D02*
X241029904Y-112707057D01*
X241029904Y-112707057D02*
X241077523Y-112802295D01*
X241077523Y-112802295D02*
X241077523Y-112897533D01*
X241077523Y-112897533D02*
X241029904Y-113040390D01*
X241029904Y-113040390D02*
X240458476Y-113611819D01*
X240458476Y-113611819D02*
X241077523Y-113611819D01*
X239077524Y-129359819D02*
X239268000Y-129359819D01*
X239268000Y-129359819D02*
X239363238Y-129312200D01*
X239363238Y-129312200D02*
X239410857Y-129264580D01*
X239410857Y-129264580D02*
X239506095Y-129121723D01*
X239506095Y-129121723D02*
X239553714Y-128931247D01*
X239553714Y-128931247D02*
X239553714Y-128550295D01*
X239553714Y-128550295D02*
X239506095Y-128455057D01*
X239506095Y-128455057D02*
X239458476Y-128407438D01*
X239458476Y-128407438D02*
X239363238Y-128359819D01*
X239363238Y-128359819D02*
X239172762Y-128359819D01*
X239172762Y-128359819D02*
X239077524Y-128407438D01*
X239077524Y-128407438D02*
X239029905Y-128455057D01*
X239029905Y-128455057D02*
X238982286Y-128550295D01*
X238982286Y-128550295D02*
X238982286Y-128788390D01*
X238982286Y-128788390D02*
X239029905Y-128883628D01*
X239029905Y-128883628D02*
X239077524Y-128931247D01*
X239077524Y-128931247D02*
X239172762Y-128978866D01*
X239172762Y-128978866D02*
X239363238Y-128978866D01*
X239363238Y-128978866D02*
X239458476Y-128931247D01*
X239458476Y-128931247D02*
X239506095Y-128883628D01*
X239506095Y-128883628D02*
X239553714Y-128788390D01*
X238974333Y-156368819D02*
X238641000Y-155892628D01*
X238402905Y-156368819D02*
X238402905Y-155368819D01*
X238402905Y-155368819D02*
X238783857Y-155368819D01*
X238783857Y-155368819D02*
X238879095Y-155416438D01*
X238879095Y-155416438D02*
X238926714Y-155464057D01*
X238926714Y-155464057D02*
X238974333Y-155559295D01*
X238974333Y-155559295D02*
X238974333Y-155702152D01*
X238974333Y-155702152D02*
X238926714Y-155797390D01*
X238926714Y-155797390D02*
X238879095Y-155845009D01*
X238879095Y-155845009D02*
X238783857Y-155892628D01*
X238783857Y-155892628D02*
X238402905Y-155892628D01*
X239831476Y-155702152D02*
X239831476Y-156368819D01*
X239593381Y-155321200D02*
X239355286Y-156035485D01*
X239355286Y-156035485D02*
X239974333Y-156035485D01*
X212820476Y-162840200D02*
X212963333Y-162887819D01*
X212963333Y-162887819D02*
X213201428Y-162887819D01*
X213201428Y-162887819D02*
X213296666Y-162840200D01*
X213296666Y-162840200D02*
X213344285Y-162792580D01*
X213344285Y-162792580D02*
X213391904Y-162697342D01*
X213391904Y-162697342D02*
X213391904Y-162602104D01*
X213391904Y-162602104D02*
X213344285Y-162506866D01*
X213344285Y-162506866D02*
X213296666Y-162459247D01*
X213296666Y-162459247D02*
X213201428Y-162411628D01*
X213201428Y-162411628D02*
X213010952Y-162364009D01*
X213010952Y-162364009D02*
X212915714Y-162316390D01*
X212915714Y-162316390D02*
X212868095Y-162268771D01*
X212868095Y-162268771D02*
X212820476Y-162173533D01*
X212820476Y-162173533D02*
X212820476Y-162078295D01*
X212820476Y-162078295D02*
X212868095Y-161983057D01*
X212868095Y-161983057D02*
X212915714Y-161935438D01*
X212915714Y-161935438D02*
X213010952Y-161887819D01*
X213010952Y-161887819D02*
X213249047Y-161887819D01*
X213249047Y-161887819D02*
X213391904Y-161935438D01*
X213725238Y-161887819D02*
X213963333Y-162887819D01*
X213963333Y-162887819D02*
X214153809Y-162173533D01*
X214153809Y-162173533D02*
X214344285Y-162887819D01*
X214344285Y-162887819D02*
X214582381Y-161887819D01*
X215487142Y-162887819D02*
X214915714Y-162887819D01*
X215201428Y-162887819D02*
X215201428Y-161887819D01*
X215201428Y-161887819D02*
X215106190Y-162030676D01*
X215106190Y-162030676D02*
X215010952Y-162125914D01*
X215010952Y-162125914D02*
X214915714Y-162173533D01*
X216439523Y-162887819D02*
X215868095Y-162887819D01*
X216153809Y-162887819D02*
X216153809Y-161887819D01*
X216153809Y-161887819D02*
X216058571Y-162030676D01*
X216058571Y-162030676D02*
X215963333Y-162125914D01*
X215963333Y-162125914D02*
X215868095Y-162173533D01*
X214344286Y-177731057D02*
X214391905Y-177683438D01*
X214391905Y-177683438D02*
X214487143Y-177635819D01*
X214487143Y-177635819D02*
X214725238Y-177635819D01*
X214725238Y-177635819D02*
X214820476Y-177683438D01*
X214820476Y-177683438D02*
X214868095Y-177731057D01*
X214868095Y-177731057D02*
X214915714Y-177826295D01*
X214915714Y-177826295D02*
X214915714Y-177921533D01*
X214915714Y-177921533D02*
X214868095Y-178064390D01*
X214868095Y-178064390D02*
X214296667Y-178635819D01*
X214296667Y-178635819D02*
X214915714Y-178635819D01*
X188658667Y-113564200D02*
X188801524Y-113611819D01*
X188801524Y-113611819D02*
X189039619Y-113611819D01*
X189039619Y-113611819D02*
X189134857Y-113564200D01*
X189134857Y-113564200D02*
X189182476Y-113516580D01*
X189182476Y-113516580D02*
X189230095Y-113421342D01*
X189230095Y-113421342D02*
X189230095Y-113326104D01*
X189230095Y-113326104D02*
X189182476Y-113230866D01*
X189182476Y-113230866D02*
X189134857Y-113183247D01*
X189134857Y-113183247D02*
X189039619Y-113135628D01*
X189039619Y-113135628D02*
X188849143Y-113088009D01*
X188849143Y-113088009D02*
X188753905Y-113040390D01*
X188753905Y-113040390D02*
X188706286Y-112992771D01*
X188706286Y-112992771D02*
X188658667Y-112897533D01*
X188658667Y-112897533D02*
X188658667Y-112802295D01*
X188658667Y-112802295D02*
X188706286Y-112707057D01*
X188706286Y-112707057D02*
X188753905Y-112659438D01*
X188753905Y-112659438D02*
X188849143Y-112611819D01*
X188849143Y-112611819D02*
X189087238Y-112611819D01*
X189087238Y-112611819D02*
X189230095Y-112659438D01*
X189563429Y-112611819D02*
X189801524Y-113611819D01*
X189801524Y-113611819D02*
X189992000Y-112897533D01*
X189992000Y-112897533D02*
X190182476Y-113611819D01*
X190182476Y-113611819D02*
X190420572Y-112611819D01*
X191277714Y-112611819D02*
X190801524Y-112611819D01*
X190801524Y-112611819D02*
X190753905Y-113088009D01*
X190753905Y-113088009D02*
X190801524Y-113040390D01*
X190801524Y-113040390D02*
X190896762Y-112992771D01*
X190896762Y-112992771D02*
X191134857Y-112992771D01*
X191134857Y-112992771D02*
X191230095Y-113040390D01*
X191230095Y-113040390D02*
X191277714Y-113088009D01*
X191277714Y-113088009D02*
X191325333Y-113183247D01*
X191325333Y-113183247D02*
X191325333Y-113421342D01*
X191325333Y-113421342D02*
X191277714Y-113516580D01*
X191277714Y-113516580D02*
X191230095Y-113564200D01*
X191230095Y-113564200D02*
X191134857Y-113611819D01*
X191134857Y-113611819D02*
X190896762Y-113611819D01*
X190896762Y-113611819D02*
X190801524Y-113564200D01*
X190801524Y-113564200D02*
X190753905Y-113516580D01*
X189658667Y-128359819D02*
X190325333Y-128359819D01*
X190325333Y-128359819D02*
X189896762Y-129359819D01*
X188658667Y-162840200D02*
X188801524Y-162887819D01*
X188801524Y-162887819D02*
X189039619Y-162887819D01*
X189039619Y-162887819D02*
X189134857Y-162840200D01*
X189134857Y-162840200D02*
X189182476Y-162792580D01*
X189182476Y-162792580D02*
X189230095Y-162697342D01*
X189230095Y-162697342D02*
X189230095Y-162602104D01*
X189230095Y-162602104D02*
X189182476Y-162506866D01*
X189182476Y-162506866D02*
X189134857Y-162459247D01*
X189134857Y-162459247D02*
X189039619Y-162411628D01*
X189039619Y-162411628D02*
X188849143Y-162364009D01*
X188849143Y-162364009D02*
X188753905Y-162316390D01*
X188753905Y-162316390D02*
X188706286Y-162268771D01*
X188706286Y-162268771D02*
X188658667Y-162173533D01*
X188658667Y-162173533D02*
X188658667Y-162078295D01*
X188658667Y-162078295D02*
X188706286Y-161983057D01*
X188706286Y-161983057D02*
X188753905Y-161935438D01*
X188753905Y-161935438D02*
X188849143Y-161887819D01*
X188849143Y-161887819D02*
X189087238Y-161887819D01*
X189087238Y-161887819D02*
X189230095Y-161935438D01*
X189563429Y-161887819D02*
X189801524Y-162887819D01*
X189801524Y-162887819D02*
X189992000Y-162173533D01*
X189992000Y-162173533D02*
X190182476Y-162887819D01*
X190182476Y-162887819D02*
X190420572Y-161887819D01*
X190706286Y-161887819D02*
X191372952Y-161887819D01*
X191372952Y-161887819D02*
X190944381Y-162887819D01*
X190277714Y-178635819D02*
X189706286Y-178635819D01*
X189992000Y-178635819D02*
X189992000Y-177635819D01*
X189992000Y-177635819D02*
X189896762Y-177778676D01*
X189896762Y-177778676D02*
X189801524Y-177873914D01*
X189801524Y-177873914D02*
X189706286Y-177921533D01*
X286734476Y-150521200D02*
X286877333Y-150568819D01*
X286877333Y-150568819D02*
X287115428Y-150568819D01*
X287115428Y-150568819D02*
X287210666Y-150521200D01*
X287210666Y-150521200D02*
X287258285Y-150473580D01*
X287258285Y-150473580D02*
X287305904Y-150378342D01*
X287305904Y-150378342D02*
X287305904Y-150283104D01*
X287305904Y-150283104D02*
X287258285Y-150187866D01*
X287258285Y-150187866D02*
X287210666Y-150140247D01*
X287210666Y-150140247D02*
X287115428Y-150092628D01*
X287115428Y-150092628D02*
X286924952Y-150045009D01*
X286924952Y-150045009D02*
X286829714Y-149997390D01*
X286829714Y-149997390D02*
X286782095Y-149949771D01*
X286782095Y-149949771D02*
X286734476Y-149854533D01*
X286734476Y-149854533D02*
X286734476Y-149759295D01*
X286734476Y-149759295D02*
X286782095Y-149664057D01*
X286782095Y-149664057D02*
X286829714Y-149616438D01*
X286829714Y-149616438D02*
X286924952Y-149568819D01*
X286924952Y-149568819D02*
X287163047Y-149568819D01*
X287163047Y-149568819D02*
X287305904Y-149616438D01*
X287639238Y-149568819D02*
X287877333Y-150568819D01*
X287877333Y-150568819D02*
X288067809Y-149854533D01*
X288067809Y-149854533D02*
X288258285Y-150568819D01*
X288258285Y-150568819D02*
X288496381Y-149568819D01*
X289401142Y-150568819D02*
X288829714Y-150568819D01*
X289115428Y-150568819D02*
X289115428Y-149568819D01*
X289115428Y-149568819D02*
X289020190Y-149711676D01*
X289020190Y-149711676D02*
X288924952Y-149806914D01*
X288924952Y-149806914D02*
X288829714Y-149854533D01*
X290305904Y-149568819D02*
X289829714Y-149568819D01*
X289829714Y-149568819D02*
X289782095Y-150045009D01*
X289782095Y-150045009D02*
X289829714Y-149997390D01*
X289829714Y-149997390D02*
X289924952Y-149949771D01*
X289924952Y-149949771D02*
X290163047Y-149949771D01*
X290163047Y-149949771D02*
X290258285Y-149997390D01*
X290258285Y-149997390D02*
X290305904Y-150045009D01*
X290305904Y-150045009D02*
X290353523Y-150140247D01*
X290353523Y-150140247D02*
X290353523Y-150378342D01*
X290353523Y-150378342D02*
X290305904Y-150473580D01*
X290305904Y-150473580D02*
X290258285Y-150521200D01*
X290258285Y-150521200D02*
X290163047Y-150568819D01*
X290163047Y-150568819D02*
X289924952Y-150568819D01*
X289924952Y-150568819D02*
X289829714Y-150521200D01*
X289829714Y-150521200D02*
X289782095Y-150473580D01*
X287543999Y-166316819D02*
X287210666Y-165840628D01*
X286972571Y-166316819D02*
X286972571Y-165316819D01*
X286972571Y-165316819D02*
X287353523Y-165316819D01*
X287353523Y-165316819D02*
X287448761Y-165364438D01*
X287448761Y-165364438D02*
X287496380Y-165412057D01*
X287496380Y-165412057D02*
X287543999Y-165507295D01*
X287543999Y-165507295D02*
X287543999Y-165650152D01*
X287543999Y-165650152D02*
X287496380Y-165745390D01*
X287496380Y-165745390D02*
X287448761Y-165793009D01*
X287448761Y-165793009D02*
X287353523Y-165840628D01*
X287353523Y-165840628D02*
X286972571Y-165840628D01*
X287924952Y-166269200D02*
X288067809Y-166316819D01*
X288067809Y-166316819D02*
X288305904Y-166316819D01*
X288305904Y-166316819D02*
X288401142Y-166269200D01*
X288401142Y-166269200D02*
X288448761Y-166221580D01*
X288448761Y-166221580D02*
X288496380Y-166126342D01*
X288496380Y-166126342D02*
X288496380Y-166031104D01*
X288496380Y-166031104D02*
X288448761Y-165935866D01*
X288448761Y-165935866D02*
X288401142Y-165888247D01*
X288401142Y-165888247D02*
X288305904Y-165840628D01*
X288305904Y-165840628D02*
X288115428Y-165793009D01*
X288115428Y-165793009D02*
X288020190Y-165745390D01*
X288020190Y-165745390D02*
X287972571Y-165697771D01*
X287972571Y-165697771D02*
X287924952Y-165602533D01*
X287924952Y-165602533D02*
X287924952Y-165507295D01*
X287924952Y-165507295D02*
X287972571Y-165412057D01*
X287972571Y-165412057D02*
X288020190Y-165364438D01*
X288020190Y-165364438D02*
X288115428Y-165316819D01*
X288115428Y-165316819D02*
X288353523Y-165316819D01*
X288353523Y-165316819D02*
X288496380Y-165364438D01*
X288924952Y-165793009D02*
X289258285Y-165793009D01*
X289401142Y-166316819D02*
X288924952Y-166316819D01*
X288924952Y-166316819D02*
X288924952Y-165316819D01*
X288924952Y-165316819D02*
X289401142Y-165316819D01*
X289686857Y-165316819D02*
X290258285Y-165316819D01*
X289972571Y-166316819D02*
X289972571Y-165316819D01*
X164020667Y-113564200D02*
X164163524Y-113611819D01*
X164163524Y-113611819D02*
X164401619Y-113611819D01*
X164401619Y-113611819D02*
X164496857Y-113564200D01*
X164496857Y-113564200D02*
X164544476Y-113516580D01*
X164544476Y-113516580D02*
X164592095Y-113421342D01*
X164592095Y-113421342D02*
X164592095Y-113326104D01*
X164592095Y-113326104D02*
X164544476Y-113230866D01*
X164544476Y-113230866D02*
X164496857Y-113183247D01*
X164496857Y-113183247D02*
X164401619Y-113135628D01*
X164401619Y-113135628D02*
X164211143Y-113088009D01*
X164211143Y-113088009D02*
X164115905Y-113040390D01*
X164115905Y-113040390D02*
X164068286Y-112992771D01*
X164068286Y-112992771D02*
X164020667Y-112897533D01*
X164020667Y-112897533D02*
X164020667Y-112802295D01*
X164020667Y-112802295D02*
X164068286Y-112707057D01*
X164068286Y-112707057D02*
X164115905Y-112659438D01*
X164115905Y-112659438D02*
X164211143Y-112611819D01*
X164211143Y-112611819D02*
X164449238Y-112611819D01*
X164449238Y-112611819D02*
X164592095Y-112659438D01*
X164925429Y-112611819D02*
X165163524Y-113611819D01*
X165163524Y-113611819D02*
X165354000Y-112897533D01*
X165354000Y-112897533D02*
X165544476Y-113611819D01*
X165544476Y-113611819D02*
X165782572Y-112611819D01*
X166687333Y-113611819D02*
X166115905Y-113611819D01*
X166401619Y-113611819D02*
X166401619Y-112611819D01*
X166401619Y-112611819D02*
X166306381Y-112754676D01*
X166306381Y-112754676D02*
X166211143Y-112849914D01*
X166211143Y-112849914D02*
X166115905Y-112897533D01*
X164973048Y-128978866D02*
X165734953Y-128978866D01*
X165354000Y-129359819D02*
X165354000Y-128597914D01*
X164020667Y-162840200D02*
X164163524Y-162887819D01*
X164163524Y-162887819D02*
X164401619Y-162887819D01*
X164401619Y-162887819D02*
X164496857Y-162840200D01*
X164496857Y-162840200D02*
X164544476Y-162792580D01*
X164544476Y-162792580D02*
X164592095Y-162697342D01*
X164592095Y-162697342D02*
X164592095Y-162602104D01*
X164592095Y-162602104D02*
X164544476Y-162506866D01*
X164544476Y-162506866D02*
X164496857Y-162459247D01*
X164496857Y-162459247D02*
X164401619Y-162411628D01*
X164401619Y-162411628D02*
X164211143Y-162364009D01*
X164211143Y-162364009D02*
X164115905Y-162316390D01*
X164115905Y-162316390D02*
X164068286Y-162268771D01*
X164068286Y-162268771D02*
X164020667Y-162173533D01*
X164020667Y-162173533D02*
X164020667Y-162078295D01*
X164020667Y-162078295D02*
X164068286Y-161983057D01*
X164068286Y-161983057D02*
X164115905Y-161935438D01*
X164115905Y-161935438D02*
X164211143Y-161887819D01*
X164211143Y-161887819D02*
X164449238Y-161887819D01*
X164449238Y-161887819D02*
X164592095Y-161935438D01*
X164925429Y-161887819D02*
X165163524Y-162887819D01*
X165163524Y-162887819D02*
X165354000Y-162173533D01*
X165354000Y-162173533D02*
X165544476Y-162887819D01*
X165544476Y-162887819D02*
X165782572Y-161887819D01*
X166068286Y-161887819D02*
X166687333Y-161887819D01*
X166687333Y-161887819D02*
X166354000Y-162268771D01*
X166354000Y-162268771D02*
X166496857Y-162268771D01*
X166496857Y-162268771D02*
X166592095Y-162316390D01*
X166592095Y-162316390D02*
X166639714Y-162364009D01*
X166639714Y-162364009D02*
X166687333Y-162459247D01*
X166687333Y-162459247D02*
X166687333Y-162697342D01*
X166687333Y-162697342D02*
X166639714Y-162792580D01*
X166639714Y-162792580D02*
X166592095Y-162840200D01*
X166592095Y-162840200D02*
X166496857Y-162887819D01*
X166496857Y-162887819D02*
X166211143Y-162887819D01*
X166211143Y-162887819D02*
X166115905Y-162840200D01*
X166115905Y-162840200D02*
X166068286Y-162792580D01*
X165306381Y-177635819D02*
X165401619Y-177635819D01*
X165401619Y-177635819D02*
X165496857Y-177683438D01*
X165496857Y-177683438D02*
X165544476Y-177731057D01*
X165544476Y-177731057D02*
X165592095Y-177826295D01*
X165592095Y-177826295D02*
X165639714Y-178016771D01*
X165639714Y-178016771D02*
X165639714Y-178254866D01*
X165639714Y-178254866D02*
X165592095Y-178445342D01*
X165592095Y-178445342D02*
X165544476Y-178540580D01*
X165544476Y-178540580D02*
X165496857Y-178588200D01*
X165496857Y-178588200D02*
X165401619Y-178635819D01*
X165401619Y-178635819D02*
X165306381Y-178635819D01*
X165306381Y-178635819D02*
X165211143Y-178588200D01*
X165211143Y-178588200D02*
X165163524Y-178540580D01*
X165163524Y-178540580D02*
X165115905Y-178445342D01*
X165115905Y-178445342D02*
X165068286Y-178254866D01*
X165068286Y-178254866D02*
X165068286Y-178016771D01*
X165068286Y-178016771D02*
X165115905Y-177826295D01*
X165115905Y-177826295D02*
X165163524Y-177731057D01*
X165163524Y-177731057D02*
X165211143Y-177683438D01*
X165211143Y-177683438D02*
X165306381Y-177635819D01*
X189698333Y-156368819D02*
X189365000Y-155892628D01*
X189126905Y-156368819D02*
X189126905Y-155368819D01*
X189126905Y-155368819D02*
X189507857Y-155368819D01*
X189507857Y-155368819D02*
X189603095Y-155416438D01*
X189603095Y-155416438D02*
X189650714Y-155464057D01*
X189650714Y-155464057D02*
X189698333Y-155559295D01*
X189698333Y-155559295D02*
X189698333Y-155702152D01*
X189698333Y-155702152D02*
X189650714Y-155797390D01*
X189650714Y-155797390D02*
X189603095Y-155845009D01*
X189603095Y-155845009D02*
X189507857Y-155892628D01*
X189507857Y-155892628D02*
X189126905Y-155892628D01*
X190079286Y-155464057D02*
X190126905Y-155416438D01*
X190126905Y-155416438D02*
X190222143Y-155368819D01*
X190222143Y-155368819D02*
X190460238Y-155368819D01*
X190460238Y-155368819D02*
X190555476Y-155416438D01*
X190555476Y-155416438D02*
X190603095Y-155464057D01*
X190603095Y-155464057D02*
X190650714Y-155559295D01*
X190650714Y-155559295D02*
X190650714Y-155654533D01*
X190650714Y-155654533D02*
X190603095Y-155797390D01*
X190603095Y-155797390D02*
X190031667Y-156368819D01*
X190031667Y-156368819D02*
X190650714Y-156368819D01*
X286734476Y-125883200D02*
X286877333Y-125930819D01*
X286877333Y-125930819D02*
X287115428Y-125930819D01*
X287115428Y-125930819D02*
X287210666Y-125883200D01*
X287210666Y-125883200D02*
X287258285Y-125835580D01*
X287258285Y-125835580D02*
X287305904Y-125740342D01*
X287305904Y-125740342D02*
X287305904Y-125645104D01*
X287305904Y-125645104D02*
X287258285Y-125549866D01*
X287258285Y-125549866D02*
X287210666Y-125502247D01*
X287210666Y-125502247D02*
X287115428Y-125454628D01*
X287115428Y-125454628D02*
X286924952Y-125407009D01*
X286924952Y-125407009D02*
X286829714Y-125359390D01*
X286829714Y-125359390D02*
X286782095Y-125311771D01*
X286782095Y-125311771D02*
X286734476Y-125216533D01*
X286734476Y-125216533D02*
X286734476Y-125121295D01*
X286734476Y-125121295D02*
X286782095Y-125026057D01*
X286782095Y-125026057D02*
X286829714Y-124978438D01*
X286829714Y-124978438D02*
X286924952Y-124930819D01*
X286924952Y-124930819D02*
X287163047Y-124930819D01*
X287163047Y-124930819D02*
X287305904Y-124978438D01*
X287639238Y-124930819D02*
X287877333Y-125930819D01*
X287877333Y-125930819D02*
X288067809Y-125216533D01*
X288067809Y-125216533D02*
X288258285Y-125930819D01*
X288258285Y-125930819D02*
X288496381Y-124930819D01*
X289401142Y-125930819D02*
X288829714Y-125930819D01*
X289115428Y-125930819D02*
X289115428Y-124930819D01*
X289115428Y-124930819D02*
X289020190Y-125073676D01*
X289020190Y-125073676D02*
X288924952Y-125168914D01*
X288924952Y-125168914D02*
X288829714Y-125216533D01*
X289877333Y-125930819D02*
X290067809Y-125930819D01*
X290067809Y-125930819D02*
X290163047Y-125883200D01*
X290163047Y-125883200D02*
X290210666Y-125835580D01*
X290210666Y-125835580D02*
X290305904Y-125692723D01*
X290305904Y-125692723D02*
X290353523Y-125502247D01*
X290353523Y-125502247D02*
X290353523Y-125121295D01*
X290353523Y-125121295D02*
X290305904Y-125026057D01*
X290305904Y-125026057D02*
X290258285Y-124978438D01*
X290258285Y-124978438D02*
X290163047Y-124930819D01*
X290163047Y-124930819D02*
X289972571Y-124930819D01*
X289972571Y-124930819D02*
X289877333Y-124978438D01*
X289877333Y-124978438D02*
X289829714Y-125026057D01*
X289829714Y-125026057D02*
X289782095Y-125121295D01*
X289782095Y-125121295D02*
X289782095Y-125359390D01*
X289782095Y-125359390D02*
X289829714Y-125454628D01*
X289829714Y-125454628D02*
X289877333Y-125502247D01*
X289877333Y-125502247D02*
X289972571Y-125549866D01*
X289972571Y-125549866D02*
X290163047Y-125549866D01*
X290163047Y-125549866D02*
X290258285Y-125502247D01*
X290258285Y-125502247D02*
X290305904Y-125454628D01*
X290305904Y-125454628D02*
X290353523Y-125359390D01*
X286924952Y-141155009D02*
X287258285Y-141155009D01*
X287401142Y-141678819D02*
X286924952Y-141678819D01*
X286924952Y-141678819D02*
X286924952Y-140678819D01*
X286924952Y-140678819D02*
X287401142Y-140678819D01*
X287829714Y-141678819D02*
X287829714Y-140678819D01*
X287829714Y-140678819D02*
X288401142Y-141678819D01*
X288401142Y-141678819D02*
X288401142Y-140678819D01*
X288734476Y-140678819D02*
X289305904Y-140678819D01*
X289020190Y-141678819D02*
X289020190Y-140678819D01*
X290210666Y-141678819D02*
X289877333Y-141202628D01*
X289639238Y-141678819D02*
X289639238Y-140678819D01*
X289639238Y-140678819D02*
X290020190Y-140678819D01*
X290020190Y-140678819D02*
X290115428Y-140726438D01*
X290115428Y-140726438D02*
X290163047Y-140774057D01*
X290163047Y-140774057D02*
X290210666Y-140869295D01*
X290210666Y-140869295D02*
X290210666Y-141012152D01*
X290210666Y-141012152D02*
X290163047Y-141107390D01*
X290163047Y-141107390D02*
X290115428Y-141155009D01*
X290115428Y-141155009D02*
X290020190Y-141202628D01*
X290020190Y-141202628D02*
X289639238Y-141202628D01*
X237458476Y-162840200D02*
X237601333Y-162887819D01*
X237601333Y-162887819D02*
X237839428Y-162887819D01*
X237839428Y-162887819D02*
X237934666Y-162840200D01*
X237934666Y-162840200D02*
X237982285Y-162792580D01*
X237982285Y-162792580D02*
X238029904Y-162697342D01*
X238029904Y-162697342D02*
X238029904Y-162602104D01*
X238029904Y-162602104D02*
X237982285Y-162506866D01*
X237982285Y-162506866D02*
X237934666Y-162459247D01*
X237934666Y-162459247D02*
X237839428Y-162411628D01*
X237839428Y-162411628D02*
X237648952Y-162364009D01*
X237648952Y-162364009D02*
X237553714Y-162316390D01*
X237553714Y-162316390D02*
X237506095Y-162268771D01*
X237506095Y-162268771D02*
X237458476Y-162173533D01*
X237458476Y-162173533D02*
X237458476Y-162078295D01*
X237458476Y-162078295D02*
X237506095Y-161983057D01*
X237506095Y-161983057D02*
X237553714Y-161935438D01*
X237553714Y-161935438D02*
X237648952Y-161887819D01*
X237648952Y-161887819D02*
X237887047Y-161887819D01*
X237887047Y-161887819D02*
X238029904Y-161935438D01*
X238363238Y-161887819D02*
X238601333Y-162887819D01*
X238601333Y-162887819D02*
X238791809Y-162173533D01*
X238791809Y-162173533D02*
X238982285Y-162887819D01*
X238982285Y-162887819D02*
X239220381Y-161887819D01*
X240125142Y-162887819D02*
X239553714Y-162887819D01*
X239839428Y-162887819D02*
X239839428Y-161887819D01*
X239839428Y-161887819D02*
X239744190Y-162030676D01*
X239744190Y-162030676D02*
X239648952Y-162125914D01*
X239648952Y-162125914D02*
X239553714Y-162173533D01*
X240982285Y-162221152D02*
X240982285Y-162887819D01*
X240744190Y-161840200D02*
X240506095Y-162554485D01*
X240506095Y-162554485D02*
X241125142Y-162554485D01*
X238934667Y-177635819D02*
X239553714Y-177635819D01*
X239553714Y-177635819D02*
X239220381Y-178016771D01*
X239220381Y-178016771D02*
X239363238Y-178016771D01*
X239363238Y-178016771D02*
X239458476Y-178064390D01*
X239458476Y-178064390D02*
X239506095Y-178112009D01*
X239506095Y-178112009D02*
X239553714Y-178207247D01*
X239553714Y-178207247D02*
X239553714Y-178445342D01*
X239553714Y-178445342D02*
X239506095Y-178540580D01*
X239506095Y-178540580D02*
X239458476Y-178588200D01*
X239458476Y-178588200D02*
X239363238Y-178635819D01*
X239363238Y-178635819D02*
X239077524Y-178635819D01*
X239077524Y-178635819D02*
X238982286Y-178588200D01*
X238982286Y-178588200D02*
X238934667Y-178540580D01*
D11*
%TO.C,SW13*%
X232283000Y-138684000D02*
X246253000Y-138684000D01*
X232283000Y-152654000D02*
X232283000Y-138684000D01*
X246253000Y-138684000D02*
X246253000Y-152654000D01*
X246253000Y-152654000D02*
X232283000Y-152654000D01*
%TO.C,R1*%
X164499936Y-156824000D02*
X165954064Y-156824000D01*
X164499936Y-158644000D02*
X165954064Y-158644000D01*
%TO.C,SW8*%
X133731000Y-151003000D02*
X147701000Y-151003000D01*
X133731000Y-164973000D02*
X133731000Y-151003000D01*
X147701000Y-151003000D02*
X147701000Y-164973000D01*
X147701000Y-164973000D02*
X133731000Y-164973000D01*
%TO.C,R3*%
X213775936Y-156824000D02*
X215230064Y-156824000D01*
X213775936Y-158644000D02*
X215230064Y-158644000D01*
%TO.C,R5*%
X263051936Y-156824000D02*
X264506064Y-156824000D01*
X263051936Y-158644000D02*
X264506064Y-158644000D01*
%TO.C,SW4*%
X133731000Y-126365000D02*
X147701000Y-126365000D01*
X133731000Y-140335000D02*
X133731000Y-126365000D01*
X147701000Y-126365000D02*
X147701000Y-140335000D01*
X147701000Y-140335000D02*
X133731000Y-140335000D01*
%TO.C,SW9*%
X207645000Y-114046000D02*
X221615000Y-114046000D01*
X207645000Y-128016000D02*
X207645000Y-114046000D01*
X221615000Y-114046000D02*
X221615000Y-128016000D01*
X221615000Y-128016000D02*
X207645000Y-128016000D01*
%TO.C,SW2*%
X158369000Y-138684000D02*
X172339000Y-138684000D01*
X158369000Y-152654000D02*
X158369000Y-138684000D01*
X172339000Y-138684000D02*
X172339000Y-152654000D01*
X172339000Y-152654000D02*
X158369000Y-152654000D01*
%TO.C,SW17*%
X256921000Y-138684000D02*
X270891000Y-138684000D01*
X256921000Y-152654000D02*
X256921000Y-138684000D01*
X270891000Y-138684000D02*
X270891000Y-152654000D01*
X270891000Y-152654000D02*
X256921000Y-152654000D01*
%TO.C,SW6*%
X183007000Y-138684000D02*
X196977000Y-138684000D01*
X183007000Y-152654000D02*
X183007000Y-138684000D01*
X196977000Y-138684000D02*
X196977000Y-152654000D01*
X196977000Y-152654000D02*
X183007000Y-152654000D01*
%TO.C,SW16*%
X256921000Y-114046000D02*
X270891000Y-114046000D01*
X256921000Y-128016000D02*
X256921000Y-114046000D01*
X270891000Y-114046000D02*
X270891000Y-128016000D01*
X270891000Y-128016000D02*
X256921000Y-128016000D01*
%TO.C,SW18*%
X256921000Y-163322000D02*
X270891000Y-163322000D01*
X256921000Y-177292000D02*
X256921000Y-163322000D01*
X270891000Y-163322000D02*
X270891000Y-177292000D01*
X270891000Y-177292000D02*
X256921000Y-177292000D01*
%TO.C,SW10*%
X207645000Y-138684000D02*
X221615000Y-138684000D01*
X207645000Y-152654000D02*
X207645000Y-138684000D01*
X221615000Y-138684000D02*
X221615000Y-152654000D01*
X221615000Y-152654000D02*
X207645000Y-152654000D01*
%TO.C,SW12*%
X232283000Y-114046000D02*
X246253000Y-114046000D01*
X232283000Y-128016000D02*
X232283000Y-114046000D01*
X246253000Y-114046000D02*
X246253000Y-128016000D01*
X246253000Y-128016000D02*
X232283000Y-128016000D01*
%TO.C,R4*%
X238413936Y-156824000D02*
X239868064Y-156824000D01*
X238413936Y-158644000D02*
X239868064Y-158644000D01*
%TO.C,SW11*%
X207645000Y-163322000D02*
X221615000Y-163322000D01*
X207645000Y-177292000D02*
X207645000Y-163322000D01*
X221615000Y-163322000D02*
X221615000Y-177292000D01*
X221615000Y-177292000D02*
X207645000Y-177292000D01*
%TO.C,SW5*%
X183007000Y-114046000D02*
X196977000Y-114046000D01*
X183007000Y-128016000D02*
X183007000Y-114046000D01*
X196977000Y-114046000D02*
X196977000Y-128016000D01*
X196977000Y-128016000D02*
X183007000Y-128016000D01*
%TO.C,SW7*%
X183007000Y-163322000D02*
X196977000Y-163322000D01*
X183007000Y-177292000D02*
X183007000Y-163322000D01*
X196977000Y-163322000D02*
X196977000Y-177292000D01*
X196977000Y-177292000D02*
X183007000Y-177292000D01*
%TO.C,SW15*%
X281559000Y-151003000D02*
X295529000Y-151003000D01*
X281559000Y-164973000D02*
X281559000Y-151003000D01*
X295529000Y-151003000D02*
X295529000Y-164973000D01*
X295529000Y-164973000D02*
X281559000Y-164973000D01*
%TO.C,SW1*%
X158369000Y-114046000D02*
X172339000Y-114046000D01*
X158369000Y-128016000D02*
X158369000Y-114046000D01*
X172339000Y-114046000D02*
X172339000Y-128016000D01*
X172339000Y-128016000D02*
X158369000Y-128016000D01*
%TO.C,SW3*%
X158369000Y-163322000D02*
X172339000Y-163322000D01*
X158369000Y-177292000D02*
X158369000Y-163322000D01*
X172339000Y-163322000D02*
X172339000Y-177292000D01*
X172339000Y-177292000D02*
X158369000Y-177292000D01*
%TO.C,R2*%
X189137936Y-156824000D02*
X190592064Y-156824000D01*
X189137936Y-158644000D02*
X190592064Y-158644000D01*
%TO.C,SW19*%
X281559000Y-126365000D02*
X295529000Y-126365000D01*
X281559000Y-140335000D02*
X281559000Y-126365000D01*
X295529000Y-126365000D02*
X295529000Y-140335000D01*
X295529000Y-140335000D02*
X281559000Y-140335000D01*
%TO.C,SW14*%
X232283000Y-163322000D02*
X246253000Y-163322000D01*
X232283000Y-177292000D02*
X232283000Y-163322000D01*
X246253000Y-163322000D02*
X246253000Y-177292000D01*
X246253000Y-177292000D02*
X232283000Y-177292000D01*
%TD*%
%LPC*%
D12*
%TO.C,SW13*%
X239268000Y-145669000D03*
D13*
X241808000Y-140589000D03*
X235458000Y-143129000D03*
%TD*%
D14*
%TO.C,R1*%
X163764500Y-157734000D03*
X166689500Y-157734000D03*
%TD*%
D12*
%TO.C,SW8*%
X140716000Y-157988000D03*
D13*
X143256000Y-152908000D03*
X136906000Y-155448000D03*
%TD*%
D14*
%TO.C,R3*%
X213040500Y-157734000D03*
X215965500Y-157734000D03*
%TD*%
%TO.C,R5*%
X262316500Y-157734000D03*
X265241500Y-157734000D03*
%TD*%
D12*
%TO.C,SW4*%
X140716000Y-133350000D03*
D13*
X143256000Y-128270000D03*
X136906000Y-130810000D03*
%TD*%
D12*
%TO.C,SW9*%
X214630000Y-121031000D03*
D13*
X217170000Y-115951000D03*
X210820000Y-118491000D03*
%TD*%
D12*
%TO.C,SW2*%
X165354000Y-145669000D03*
D13*
X167894000Y-140589000D03*
X161544000Y-143129000D03*
%TD*%
D12*
%TO.C,SW17*%
X263906000Y-145669000D03*
D13*
X266446000Y-140589000D03*
X260096000Y-143129000D03*
%TD*%
D12*
%TO.C,SW6*%
X189992000Y-145669000D03*
D13*
X192532000Y-140589000D03*
X186182000Y-143129000D03*
%TD*%
D12*
%TO.C,SW16*%
X263906000Y-121031000D03*
D13*
X266446000Y-115951000D03*
X260096000Y-118491000D03*
%TD*%
D12*
%TO.C,SW18*%
X263906000Y-170307000D03*
D13*
X266446000Y-165227000D03*
X260096000Y-167767000D03*
%TD*%
D12*
%TO.C,SW10*%
X214630000Y-145669000D03*
D13*
X217170000Y-140589000D03*
X210820000Y-143129000D03*
%TD*%
D12*
%TO.C,SW12*%
X239268000Y-121031000D03*
D13*
X241808000Y-115951000D03*
X235458000Y-118491000D03*
%TD*%
D14*
%TO.C,R4*%
X237678500Y-157734000D03*
X240603500Y-157734000D03*
%TD*%
D12*
%TO.C,SW11*%
X214630000Y-170307000D03*
D13*
X217170000Y-165227000D03*
X210820000Y-167767000D03*
%TD*%
D12*
%TO.C,SW5*%
X189992000Y-121031000D03*
D13*
X192532000Y-115951000D03*
X186182000Y-118491000D03*
%TD*%
D12*
%TO.C,SW7*%
X189992000Y-170307000D03*
D13*
X192532000Y-165227000D03*
X186182000Y-167767000D03*
%TD*%
D12*
%TO.C,SW15*%
X288544000Y-157988000D03*
D13*
X291084000Y-152908000D03*
X284734000Y-155448000D03*
%TD*%
D12*
%TO.C,SW1*%
X165354000Y-121031000D03*
D13*
X167894000Y-115951000D03*
X161544000Y-118491000D03*
%TD*%
D12*
%TO.C,SW3*%
X165354000Y-170307000D03*
D13*
X167894000Y-165227000D03*
X161544000Y-167767000D03*
%TD*%
D14*
%TO.C,R2*%
X188402500Y-157734000D03*
X191327500Y-157734000D03*
%TD*%
D12*
%TO.C,SW19*%
X288544000Y-133350000D03*
D13*
X291084000Y-128270000D03*
X284734000Y-130810000D03*
%TD*%
D12*
%TO.C,SW14*%
X239268000Y-170307000D03*
D13*
X241808000Y-165227000D03*
X235458000Y-167767000D03*
%TD*%
D15*
%TO.C,J3*%
X203454000Y-126746000D03*
D16*
X200914000Y-126746000D03*
X198374000Y-126746000D03*
X195834000Y-126746000D03*
X193294000Y-126746000D03*
X190754000Y-126746000D03*
%TD*%
D15*
%TO.C,J2*%
X226314000Y-126746000D03*
D16*
X223774000Y-126746000D03*
X221234000Y-126746000D03*
X218694000Y-126746000D03*
X216154000Y-126746000D03*
X213614000Y-126746000D03*
X211074000Y-126746000D03*
X208534000Y-126746000D03*
%TD*%
D15*
%TO.C,J5*%
X208534000Y-175006000D03*
D16*
X205994000Y-175006000D03*
X203454000Y-175006000D03*
X200914000Y-175006000D03*
X198374000Y-175006000D03*
X195834000Y-175006000D03*
X193294000Y-175006000D03*
X190754000Y-175006000D03*
%TD*%
D15*
%TO.C,J4*%
X235458000Y-175006000D03*
D16*
X232918000Y-175006000D03*
X230378000Y-175006000D03*
X227838000Y-175006000D03*
X225298000Y-175006000D03*
X222758000Y-175006000D03*
X220218000Y-175006000D03*
X217678000Y-175006000D03*
X215138000Y-175006000D03*
X212598000Y-175006000D03*
%TD*%
D17*
%TO.C,J1*%
X177673000Y-130810000D03*
D18*
X175173000Y-130810000D03*
X172673000Y-130810000D03*
X170173000Y-130810000D03*
X167673000Y-130810000D03*
%TD*%
%LPD*%
M02*
