M48
; DRILL file {KiCad 8.0.2} date 2024-06-24T20:47:32+0200
; FORMAT={-:-/ absolute / inch / decimal}
; #@! TF.CreationDate,2024-06-24T20:47:32+02:00
; #@! TF.GenerationSoftware,Kicad,Pcbnew,8.0.2
; #@! TF.FileFunction,NonPlated,1,2,NPTH
FMAT,2
INCH
; #@! TA.AperFunction,NonPlated,NPTH,ComponentDrill
T1C0.0669
; #@! TA.AperFunction,NonPlated,NPTH,ComponentDrill
T2C0.1575
%
G90
G05
T1
X5.34Y-5.25
X5.34Y-6.22
X5.74Y-5.25
X5.74Y-6.22
X6.31Y-4.765
X6.31Y-5.735
X6.31Y-6.705
X6.71Y-4.765
X6.71Y-5.735
X6.71Y-6.705
X7.28Y-4.765
X7.28Y-5.735
X7.28Y-6.705
X7.68Y-4.765
X7.68Y-5.735
X7.68Y-6.705
X8.25Y-4.765
X8.25Y-5.735
X8.25Y-6.705
X8.65Y-4.765
X8.65Y-5.735
X8.65Y-6.705
X9.22Y-4.765
X9.22Y-5.735
X9.22Y-6.705
X9.62Y-4.765
X9.62Y-5.735
X9.62Y-6.705
X10.19Y-4.765
X10.19Y-5.735
X10.19Y-6.705
X10.59Y-4.765
X10.59Y-5.735
X10.59Y-6.705
X11.16Y-5.25
X11.16Y-6.22
X11.56Y-5.25
X11.56Y-6.22
T2
X5.54Y-5.25
X5.54Y-6.22
X6.51Y-4.765
X6.51Y-5.735
X6.51Y-6.705
X7.48Y-4.765
X7.48Y-5.735
X7.48Y-6.705
X8.45Y-4.765
X8.45Y-5.735
X8.45Y-6.705
X9.42Y-4.765
X9.42Y-5.735
X9.42Y-6.705
X10.39Y-4.765
X10.39Y-5.735
X10.39Y-6.705
X11.36Y-5.25
X11.36Y-6.22
M30
