%TF.GenerationSoftware,KiCad,Pcbnew,7.0.6*%
%TF.CreationDate,2024-03-02T19:58:00+01:00*%
%TF.ProjectId,Main_board,4d61696e-5f62-46f6-9172-642e6b696361,1.0.2*%
%TF.SameCoordinates,Original*%
%TF.FileFunction,Soldermask,Bot*%
%TF.FilePolarity,Negative*%
%FSLAX46Y46*%
G04 Gerber Fmt 4.6, Leading zero omitted, Abs format (unit mm)*
G04 Created by KiCad (PCBNEW 7.0.6) date 2024-03-02 19:58:00*
%MOMM*%
%LPD*%
G01*
G04 APERTURE LIST*
G04 Aperture macros list*
%AMRoundRect*
0 Rectangle with rounded corners*
0 $1 Rounding radius*
0 $2 $3 $4 $5 $6 $7 $8 $9 X,Y pos of 4 corners*
0 Add a 4 corners polygon primitive as box body*
4,1,4,$2,$3,$4,$5,$6,$7,$8,$9,$2,$3,0*
0 Add four circle primitives for the rounded corners*
1,1,$1+$1,$2,$3*
1,1,$1+$1,$4,$5*
1,1,$1+$1,$6,$7*
1,1,$1+$1,$8,$9*
0 Add four rect primitives between the rounded corners*
20,1,$1+$1,$2,$3,$4,$5,0*
20,1,$1+$1,$4,$5,$6,$7,0*
20,1,$1+$1,$6,$7,$8,$9,0*
20,1,$1+$1,$8,$9,$2,$3,0*%
G04 Aperture macros list end*
%ADD10C,4.000000*%
%ADD11C,2.200000*%
%ADD12RoundRect,0.250000X0.650000X-1.500000X0.650000X1.500000X-0.650000X1.500000X-0.650000X-1.500000X0*%
%ADD13RoundRect,0.250000X-0.650000X1.500000X-0.650000X-1.500000X0.650000X-1.500000X0.650000X1.500000X0*%
%ADD14C,1.727200*%
%ADD15R,1.727200X1.727200*%
%ADD16RoundRect,0.250000X0.600000X0.725000X-0.600000X0.725000X-0.600000X-0.725000X0.600000X-0.725000X0*%
%ADD17O,1.700000X1.950000*%
%ADD18RoundRect,0.250000X-1.500000X-0.650000X1.500000X-0.650000X1.500000X0.650000X-1.500000X0.650000X0*%
%ADD19RoundRect,0.250000X1.500000X0.650000X-1.500000X0.650000X-1.500000X-0.650000X1.500000X-0.650000X0*%
G04 APERTURE END LIST*
D10*
%TO.C,SW13*%
X239268000Y-145669000D03*
D11*
X241808000Y-140589000D03*
X235458000Y-143129000D03*
%TD*%
D10*
%TO.C,SW8*%
X140716000Y-157988000D03*
D11*
X143256000Y-152908000D03*
X136906000Y-155448000D03*
%TD*%
D10*
%TO.C,SW4*%
X140716000Y-133350000D03*
D11*
X143256000Y-128270000D03*
X136906000Y-130810000D03*
%TD*%
D10*
%TO.C,SW9*%
X214630000Y-121031000D03*
D11*
X217170000Y-115951000D03*
X210820000Y-118491000D03*
%TD*%
D10*
%TO.C,SW2*%
X165354000Y-145669000D03*
D11*
X167894000Y-140589000D03*
X161544000Y-143129000D03*
%TD*%
D10*
%TO.C,SW17*%
X263906000Y-145669000D03*
D11*
X266446000Y-140589000D03*
X260096000Y-143129000D03*
%TD*%
D10*
%TO.C,SW6*%
X189992000Y-145669000D03*
D11*
X192532000Y-140589000D03*
X186182000Y-143129000D03*
%TD*%
D10*
%TO.C,SW16*%
X263906000Y-121031000D03*
D11*
X266446000Y-115951000D03*
X260096000Y-118491000D03*
%TD*%
D10*
%TO.C,SW18*%
X263906000Y-170307000D03*
D11*
X266446000Y-165227000D03*
X260096000Y-167767000D03*
%TD*%
D10*
%TO.C,SW10*%
X214630000Y-145669000D03*
D11*
X217170000Y-140589000D03*
X210820000Y-143129000D03*
%TD*%
D10*
%TO.C,SW12*%
X239268000Y-121031000D03*
D11*
X241808000Y-115951000D03*
X235458000Y-118491000D03*
%TD*%
D10*
%TO.C,SW11*%
X214630000Y-170307000D03*
D11*
X217170000Y-165227000D03*
X210820000Y-167767000D03*
%TD*%
D10*
%TO.C,SW5*%
X189992000Y-121031000D03*
D11*
X192532000Y-115951000D03*
X186182000Y-118491000D03*
%TD*%
D10*
%TO.C,SW7*%
X189992000Y-170307000D03*
D11*
X192532000Y-165227000D03*
X186182000Y-167767000D03*
%TD*%
D10*
%TO.C,SW15*%
X288544000Y-157988000D03*
D11*
X291084000Y-152908000D03*
X284734000Y-155448000D03*
%TD*%
D10*
%TO.C,SW1*%
X165354000Y-121031000D03*
D11*
X167894000Y-115951000D03*
X161544000Y-118491000D03*
%TD*%
D10*
%TO.C,SW3*%
X165354000Y-170307000D03*
D11*
X167894000Y-165227000D03*
X161544000Y-167767000D03*
%TD*%
D10*
%TO.C,SW19*%
X288544000Y-133350000D03*
D11*
X291084000Y-128270000D03*
X284734000Y-130810000D03*
%TD*%
D10*
%TO.C,SW14*%
X239268000Y-170307000D03*
D11*
X241808000Y-165227000D03*
X235458000Y-167767000D03*
%TD*%
D12*
%TO.C,D5*%
X202311000Y-128738000D03*
X202311000Y-123738000D03*
%TD*%
D13*
%TO.C,D14*%
X251333000Y-162854000D03*
X251333000Y-167854000D03*
%TD*%
D12*
%TO.C,D17*%
X275844000Y-148082000D03*
X275844000Y-143082000D03*
%TD*%
D13*
%TO.C,D11*%
X226695000Y-162854000D03*
X226695000Y-167854000D03*
%TD*%
D14*
%TO.C,A1*%
X199390000Y-138049000D03*
X224790000Y-138049000D03*
X204470000Y-138049000D03*
X207010000Y-138049000D03*
X209550000Y-138049000D03*
X212090000Y-138049000D03*
X214630000Y-138049000D03*
X217170000Y-138049000D03*
X219710000Y-138049000D03*
X222250000Y-138049000D03*
X201930000Y-138049000D03*
X229870000Y-153289000D03*
X232410000Y-153289000D03*
X222250000Y-153289000D03*
X219710000Y-153289000D03*
X217170000Y-153289000D03*
X214630000Y-153289000D03*
X212090000Y-153289000D03*
X209550000Y-153289000D03*
X207010000Y-153289000D03*
X204470000Y-153289000D03*
X201930000Y-153289000D03*
X199390000Y-153289000D03*
X196850000Y-153289000D03*
X196850000Y-138049000D03*
D15*
X224790000Y-153289000D03*
X229870000Y-138049000D03*
D14*
X227330000Y-153289000D03*
X227330000Y-138049000D03*
X232410000Y-138049000D03*
%TD*%
D13*
%TO.C,D7*%
X202057000Y-162854000D03*
X202057000Y-167854000D03*
%TD*%
D12*
%TO.C,D16*%
X275844000Y-128611000D03*
X275844000Y-123611000D03*
%TD*%
%TO.C,D10*%
X226568000Y-148082000D03*
X226568000Y-143082000D03*
%TD*%
D13*
%TO.C,D3*%
X177419000Y-162854000D03*
X177419000Y-167854000D03*
%TD*%
D12*
%TO.C,D12*%
X251587000Y-128738000D03*
X251587000Y-123738000D03*
%TD*%
%TO.C,D9*%
X226949000Y-128738000D03*
X226949000Y-123738000D03*
%TD*%
%TO.C,D13*%
X251206000Y-148082000D03*
X251206000Y-143082000D03*
%TD*%
D16*
%TO.C,J1*%
X177673000Y-132444000D03*
D17*
X175173000Y-132444000D03*
X172673000Y-132444000D03*
X170173000Y-132444000D03*
X167673000Y-132444000D03*
%TD*%
D12*
%TO.C,D6*%
X201930000Y-148082000D03*
X201930000Y-143082000D03*
%TD*%
D18*
%TO.C,D15*%
X282361000Y-169418000D03*
X287361000Y-169418000D03*
%TD*%
D19*
%TO.C,D4*%
X148296000Y-144653000D03*
X143296000Y-144653000D03*
%TD*%
D12*
%TO.C,D2*%
X177292000Y-148082000D03*
X177292000Y-143082000D03*
%TD*%
D19*
%TO.C,D8*%
X148209000Y-169164000D03*
X143209000Y-169164000D03*
%TD*%
D18*
%TO.C,D19*%
X282361000Y-144780000D03*
X287361000Y-144780000D03*
%TD*%
D12*
%TO.C,D1*%
X177673000Y-124714000D03*
X177673000Y-119714000D03*
%TD*%
D13*
%TO.C,D18*%
X275971000Y-162727000D03*
X275971000Y-167727000D03*
%TD*%
M02*
