M48
; DRILL file {KiCad 7.0.10} date Tue Mar 12 21:04:45 2024
; FORMAT={-:-/ absolute / metric / decimal}
; #@! TF.CreationDate,2024-03-12T21:04:45-04:00
; #@! TF.GenerationSoftware,Kicad,Pcbnew,7.0.10
; #@! TF.FileFunction,Plated,1,2,PTH
FMAT,2
METRIC
; #@! TA.AperFunction,Plated,PTH,ViaDrill
T1C0.400
; #@! TA.AperFunction,Plated,PTH,ComponentDrill
T2C0.950
; #@! TA.AperFunction,Plated,PTH,ComponentDrill
T3C1.016
; #@! TA.AperFunction,Plated,PTH,ComponentDrill
T4C1.500
%
G90
G05
T1
X153.162Y-146.812
X153.162Y-149.352
X153.162Y-151.892
X154.813Y-146.812
X154.813Y-149.352
X154.813Y-151.892
X180.467Y-135.382
X180.467Y-138.43
X180.467Y-146.812
X180.467Y-149.352
X180.467Y-151.892
X182.118Y-135.382
X182.118Y-138.43
X182.118Y-146.812
X182.118Y-149.352
X182.118Y-151.892
X184.658Y-124.714
X184.658Y-126.365
X187.706Y-124.714
X187.706Y-126.365
X192.786Y-133.731
X192.786Y-135.382
X193.929Y-144.685
X195.834Y-133.731
X195.834Y-135.382
X200.533Y-157.099
X200.533Y-158.75
X201.016Y-133.858
X201.041Y-132.334
X202.946Y-135.382
X203.581Y-157.099
X203.581Y-158.75
X205.994Y-135.382
X206.756Y-123.444
X206.756Y-126.492
X208.407Y-123.444
X208.407Y-126.492
X219.329Y-127.381
X219.329Y-129.921
X220.98Y-127.381
X220.98Y-129.921
X233.934Y-133.35
X233.934Y-149.352
X236.982Y-133.35
X236.982Y-149.352
X243.84Y-149.352
X243.84Y-151.892
X243.967Y-127.381
X243.967Y-129.921
X245.491Y-149.352
X245.491Y-151.892
X245.618Y-127.381
X245.618Y-129.921
X256.032Y-161.544
X256.032Y-164.084
X257.683Y-161.544
X257.683Y-164.084
X268.478Y-146.812
X268.478Y-149.352
X268.478Y-151.892
X268.605Y-127.381
X268.605Y-129.921
X270.129Y-146.812
X270.129Y-149.352
X270.129Y-151.892
X270.256Y-127.381
X270.256Y-129.921
T2
X167.673Y-132.444
X170.173Y-132.444
X172.673Y-132.444
X175.173Y-132.444
X177.673Y-132.444
T3
X196.85Y-138.049
X196.85Y-153.289
X199.39Y-138.049
X199.39Y-153.289
X201.93Y-138.049
X201.93Y-153.289
X204.47Y-138.049
X204.47Y-153.289
X207.01Y-138.049
X207.01Y-153.289
X209.55Y-138.049
X209.55Y-153.289
X212.09Y-138.049
X212.09Y-153.289
X214.63Y-138.049
X214.63Y-153.289
X217.17Y-138.049
X217.17Y-153.289
X219.71Y-138.049
X219.71Y-153.289
X222.25Y-138.049
X222.25Y-153.289
X224.79Y-138.049
X224.79Y-153.289
X227.33Y-138.049
X227.33Y-153.289
X229.87Y-138.049
X229.87Y-153.289
X232.41Y-138.049
X232.41Y-153.289
T4
X136.906Y-130.81
X136.906Y-155.448
X143.256Y-128.27
X143.256Y-152.908
X161.544Y-118.491
X161.544Y-143.129
X161.544Y-167.767
X167.894Y-115.951
X167.894Y-140.589
X167.894Y-165.227
X186.182Y-118.491
X186.182Y-143.129
X186.182Y-167.767
X192.532Y-115.951
X192.532Y-140.589
X192.532Y-165.227
X210.82Y-118.491
X210.82Y-143.129
X210.82Y-167.767
X217.17Y-115.951
X217.17Y-140.589
X217.17Y-165.227
X235.458Y-118.491
X235.458Y-143.129
X235.458Y-167.767
X241.808Y-115.951
X241.808Y-140.589
X241.808Y-165.227
X260.096Y-118.491
X260.096Y-143.129
X260.096Y-167.767
X266.446Y-115.951
X266.446Y-140.589
X266.446Y-165.227
X284.734Y-130.81
X284.734Y-155.448
X291.084Y-128.27
X291.084Y-152.908
M30
