G04 #@! TF.GenerationSoftware,KiCad,Pcbnew,8.0.2*
G04 #@! TF.CreationDate,2024-06-02T23:33:51+02:00*
G04 #@! TF.ProjectId,Main_board,4d61696e-5f62-46f6-9172-642e6b696361,1.0.2*
G04 #@! TF.SameCoordinates,Original*
G04 #@! TF.FileFunction,Legend,Bot*
G04 #@! TF.FilePolarity,Positive*
%FSLAX46Y46*%
G04 Gerber Fmt 4.6, Leading zero omitted, Abs format (unit mm)*
G04 Created by KiCad (PCBNEW 8.0.2) date 2024-06-02 23:33:51*
%MOMM*%
%LPD*%
G01*
G04 APERTURE LIST*
G04 Aperture macros list*
%AMRoundRect*
0 Rectangle with rounded corners*
0 $1 Rounding radius*
0 $2 $3 $4 $5 $6 $7 $8 $9 X,Y pos of 4 corners*
0 Add a 4 corners polygon primitive as box body*
4,1,4,$2,$3,$4,$5,$6,$7,$8,$9,$2,$3,0*
0 Add four circle primitives for the rounded corners*
1,1,$1+$1,$2,$3*
1,1,$1+$1,$4,$5*
1,1,$1+$1,$6,$7*
1,1,$1+$1,$8,$9*
0 Add four rect primitives between the rounded corners*
20,1,$1+$1,$2,$3,$4,$5,0*
20,1,$1+$1,$4,$5,$6,$7,0*
20,1,$1+$1,$6,$7,$8,$9,0*
20,1,$1+$1,$8,$9,$2,$3,0*%
G04 Aperture macros list end*
%ADD10C,0.150000*%
%ADD11C,0.200000*%
%ADD12C,0.120000*%
%ADD13C,1.905000*%
%ADD14R,1.905000X1.905000*%
%ADD15C,4.000000*%
%ADD16C,2.200000*%
%ADD17RoundRect,0.250000X-0.625000X0.312500X-0.625000X-0.312500X0.625000X-0.312500X0.625000X0.312500X0*%
%ADD18RoundRect,0.250000X0.625000X-0.312500X0.625000X0.312500X-0.625000X0.312500X-0.625000X-0.312500X0*%
%ADD19C,1.727200*%
%ADD20R,1.727200X1.727200*%
%ADD21RoundRect,0.250000X0.600000X0.725000X-0.600000X0.725000X-0.600000X-0.725000X0.600000X-0.725000X0*%
%ADD22O,1.700000X1.950000*%
%ADD23RoundRect,0.250000X-0.600000X-0.725000X0.600000X-0.725000X0.600000X0.725000X-0.600000X0.725000X0*%
G04 APERTURE END LIST*
D10*
X181070958Y-155550225D02*
X180356673Y-155550225D01*
X181267387Y-155978796D02*
X180579887Y-154478796D01*
X180579887Y-154478796D02*
X180267387Y-155978796D01*
X179829887Y-155907368D02*
X179624530Y-155978796D01*
X179624530Y-155978796D02*
X179267387Y-155978796D01*
X179267387Y-155978796D02*
X179115602Y-155907368D01*
X179115602Y-155907368D02*
X179035244Y-155835939D01*
X179035244Y-155835939D02*
X178945959Y-155693082D01*
X178945959Y-155693082D02*
X178928102Y-155550225D01*
X178928102Y-155550225D02*
X178981673Y-155407368D01*
X178981673Y-155407368D02*
X179044173Y-155335939D01*
X179044173Y-155335939D02*
X179178102Y-155264510D01*
X179178102Y-155264510D02*
X179454887Y-155193082D01*
X179454887Y-155193082D02*
X179588816Y-155121653D01*
X179588816Y-155121653D02*
X179651316Y-155050225D01*
X179651316Y-155050225D02*
X179704887Y-154907368D01*
X179704887Y-154907368D02*
X179687030Y-154764510D01*
X179687030Y-154764510D02*
X179597744Y-154621653D01*
X179597744Y-154621653D02*
X179517387Y-154550225D01*
X179517387Y-154550225D02*
X179365602Y-154478796D01*
X179365602Y-154478796D02*
X179008459Y-154478796D01*
X179008459Y-154478796D02*
X178803102Y-154550225D01*
X178338816Y-155978796D02*
X178151316Y-154478796D01*
X178151316Y-154478796D02*
X177579888Y-154478796D01*
X177579888Y-154478796D02*
X177445959Y-154550225D01*
X177445959Y-154550225D02*
X177383459Y-154621653D01*
X177383459Y-154621653D02*
X177329888Y-154764510D01*
X177329888Y-154764510D02*
X177356673Y-154978796D01*
X177356673Y-154978796D02*
X177445959Y-155121653D01*
X177445959Y-155121653D02*
X177526316Y-155193082D01*
X177526316Y-155193082D02*
X177678102Y-155264510D01*
X177678102Y-155264510D02*
X178249531Y-155264510D01*
X176624531Y-155978796D02*
X176758459Y-155907368D01*
X176758459Y-155907368D02*
X176812031Y-155764510D01*
X176812031Y-155764510D02*
X176651316Y-154478796D01*
X175410245Y-155978796D02*
X175312031Y-155193082D01*
X175312031Y-155193082D02*
X175365602Y-155050225D01*
X175365602Y-155050225D02*
X175499531Y-154978796D01*
X175499531Y-154978796D02*
X175785245Y-154978796D01*
X175785245Y-154978796D02*
X175937031Y-155050225D01*
X175401317Y-155907368D02*
X175553102Y-155978796D01*
X175553102Y-155978796D02*
X175910245Y-155978796D01*
X175910245Y-155978796D02*
X176044174Y-155907368D01*
X176044174Y-155907368D02*
X176097745Y-155764510D01*
X176097745Y-155764510D02*
X176079888Y-155621653D01*
X176079888Y-155621653D02*
X175990602Y-155478796D01*
X175990602Y-155478796D02*
X175838817Y-155407368D01*
X175838817Y-155407368D02*
X175481674Y-155407368D01*
X175481674Y-155407368D02*
X175329888Y-155335939D01*
X174695959Y-155978796D02*
X174508459Y-154478796D01*
X174579888Y-155050225D02*
X174428102Y-154978796D01*
X174428102Y-154978796D02*
X174142388Y-154978796D01*
X174142388Y-154978796D02*
X174008459Y-155050225D01*
X174008459Y-155050225D02*
X173945959Y-155121653D01*
X173945959Y-155121653D02*
X173892388Y-155264510D01*
X173892388Y-155264510D02*
X173945959Y-155693082D01*
X173945959Y-155693082D02*
X174035245Y-155835939D01*
X174035245Y-155835939D02*
X174115602Y-155907368D01*
X174115602Y-155907368D02*
X174267388Y-155978796D01*
X174267388Y-155978796D02*
X174553102Y-155978796D01*
X174553102Y-155978796D02*
X174687031Y-155907368D01*
X180687030Y-158893712D02*
X181044173Y-158893712D01*
X181044173Y-158893712D02*
X180776316Y-156750855D01*
X180776316Y-156750855D02*
X180419173Y-156750855D01*
X180053101Y-158393712D02*
X179865601Y-156893712D01*
X179865601Y-156893712D02*
X179508458Y-156893712D01*
X179508458Y-156893712D02*
X179303101Y-156965141D01*
X179303101Y-156965141D02*
X179178101Y-157107998D01*
X179178101Y-157107998D02*
X179124530Y-157250855D01*
X179124530Y-157250855D02*
X179088816Y-157536569D01*
X179088816Y-157536569D02*
X179115601Y-157750855D01*
X179115601Y-157750855D02*
X179222744Y-158036569D01*
X179222744Y-158036569D02*
X179312030Y-158179426D01*
X179312030Y-158179426D02*
X179472744Y-158322284D01*
X179472744Y-158322284D02*
X179695958Y-158393712D01*
X179695958Y-158393712D02*
X180053101Y-158393712D01*
X178615601Y-158322284D02*
X178410244Y-158393712D01*
X178410244Y-158393712D02*
X178053101Y-158393712D01*
X178053101Y-158393712D02*
X177901316Y-158322284D01*
X177901316Y-158322284D02*
X177820958Y-158250855D01*
X177820958Y-158250855D02*
X177731673Y-158107998D01*
X177731673Y-158107998D02*
X177713816Y-157965141D01*
X177713816Y-157965141D02*
X177767387Y-157822284D01*
X177767387Y-157822284D02*
X177829887Y-157750855D01*
X177829887Y-157750855D02*
X177963816Y-157679426D01*
X177963816Y-157679426D02*
X178240601Y-157607998D01*
X178240601Y-157607998D02*
X178374530Y-157536569D01*
X178374530Y-157536569D02*
X178437030Y-157465141D01*
X178437030Y-157465141D02*
X178490601Y-157322284D01*
X178490601Y-157322284D02*
X178472744Y-157179426D01*
X178472744Y-157179426D02*
X178383458Y-157036569D01*
X178383458Y-157036569D02*
X178303101Y-156965141D01*
X178303101Y-156965141D02*
X178151316Y-156893712D01*
X178151316Y-156893712D02*
X177794173Y-156893712D01*
X177794173Y-156893712D02*
X177588816Y-156965141D01*
X177124530Y-158393712D02*
X176937030Y-156893712D01*
X176267387Y-158393712D02*
X176803102Y-157536569D01*
X176079887Y-156893712D02*
X177044173Y-157750855D01*
X175249530Y-157679426D02*
X175338816Y-158393712D01*
X175651316Y-156893712D02*
X175249530Y-157679426D01*
X175249530Y-157679426D02*
X174651316Y-156893712D01*
X174544173Y-158893712D02*
X174187031Y-158893712D01*
X174187031Y-158893712D02*
X173919173Y-156750855D01*
X173919173Y-156750855D02*
X174276316Y-156750855D01*
X172195959Y-158393712D02*
X172008459Y-156893712D01*
X172008459Y-156893712D02*
X171642388Y-157965141D01*
X171642388Y-157965141D02*
X171008459Y-156893712D01*
X171008459Y-156893712D02*
X171195959Y-158393712D01*
X169838816Y-158393712D02*
X169740602Y-157607998D01*
X169740602Y-157607998D02*
X169794173Y-157465141D01*
X169794173Y-157465141D02*
X169928102Y-157393712D01*
X169928102Y-157393712D02*
X170213816Y-157393712D01*
X170213816Y-157393712D02*
X170365602Y-157465141D01*
X169829888Y-158322284D02*
X169981673Y-158393712D01*
X169981673Y-158393712D02*
X170338816Y-158393712D01*
X170338816Y-158393712D02*
X170472745Y-158322284D01*
X170472745Y-158322284D02*
X170526316Y-158179426D01*
X170526316Y-158179426D02*
X170508459Y-158036569D01*
X170508459Y-158036569D02*
X170419173Y-157893712D01*
X170419173Y-157893712D02*
X170267388Y-157822284D01*
X170267388Y-157822284D02*
X169910245Y-157822284D01*
X169910245Y-157822284D02*
X169758459Y-157750855D01*
X169124530Y-158393712D02*
X168999530Y-157393712D01*
X168937030Y-156893712D02*
X169017387Y-156965141D01*
X169017387Y-156965141D02*
X168954887Y-157036569D01*
X168954887Y-157036569D02*
X168874530Y-156965141D01*
X168874530Y-156965141D02*
X168937030Y-156893712D01*
X168937030Y-156893712D02*
X168954887Y-157036569D01*
X168285244Y-157393712D02*
X168410244Y-158393712D01*
X168303101Y-157536569D02*
X168222744Y-157465141D01*
X168222744Y-157465141D02*
X168070959Y-157393712D01*
X168070959Y-157393712D02*
X167856673Y-157393712D01*
X167856673Y-157393712D02*
X167722744Y-157465141D01*
X167722744Y-157465141D02*
X167669173Y-157607998D01*
X167669173Y-157607998D02*
X167767387Y-158393712D01*
X165312030Y-157607998D02*
X165106673Y-157679426D01*
X165106673Y-157679426D02*
X165044173Y-157750855D01*
X165044173Y-157750855D02*
X164990601Y-157893712D01*
X164990601Y-157893712D02*
X165017387Y-158107998D01*
X165017387Y-158107998D02*
X165106673Y-158250855D01*
X165106673Y-158250855D02*
X165187030Y-158322284D01*
X165187030Y-158322284D02*
X165338816Y-158393712D01*
X165338816Y-158393712D02*
X165910244Y-158393712D01*
X165910244Y-158393712D02*
X165722744Y-156893712D01*
X165722744Y-156893712D02*
X165222744Y-156893712D01*
X165222744Y-156893712D02*
X165088816Y-156965141D01*
X165088816Y-156965141D02*
X165026316Y-157036569D01*
X165026316Y-157036569D02*
X164972744Y-157179426D01*
X164972744Y-157179426D02*
X164990601Y-157322284D01*
X164990601Y-157322284D02*
X165079887Y-157465141D01*
X165079887Y-157465141D02*
X165160244Y-157536569D01*
X165160244Y-157536569D02*
X165312030Y-157607998D01*
X165312030Y-157607998D02*
X165812030Y-157607998D01*
X164195959Y-158393712D02*
X164329887Y-158322284D01*
X164329887Y-158322284D02*
X164392387Y-158250855D01*
X164392387Y-158250855D02*
X164445959Y-158107998D01*
X164445959Y-158107998D02*
X164392387Y-157679426D01*
X164392387Y-157679426D02*
X164303101Y-157536569D01*
X164303101Y-157536569D02*
X164222744Y-157465141D01*
X164222744Y-157465141D02*
X164070959Y-157393712D01*
X164070959Y-157393712D02*
X163856673Y-157393712D01*
X163856673Y-157393712D02*
X163722744Y-157465141D01*
X163722744Y-157465141D02*
X163660244Y-157536569D01*
X163660244Y-157536569D02*
X163606673Y-157679426D01*
X163606673Y-157679426D02*
X163660244Y-158107998D01*
X163660244Y-158107998D02*
X163749530Y-158250855D01*
X163749530Y-158250855D02*
X163829887Y-158322284D01*
X163829887Y-158322284D02*
X163981673Y-158393712D01*
X163981673Y-158393712D02*
X164195959Y-158393712D01*
X162410244Y-158393712D02*
X162312030Y-157607998D01*
X162312030Y-157607998D02*
X162365601Y-157465141D01*
X162365601Y-157465141D02*
X162499530Y-157393712D01*
X162499530Y-157393712D02*
X162785244Y-157393712D01*
X162785244Y-157393712D02*
X162937030Y-157465141D01*
X162401316Y-158322284D02*
X162553101Y-158393712D01*
X162553101Y-158393712D02*
X162910244Y-158393712D01*
X162910244Y-158393712D02*
X163044173Y-158322284D01*
X163044173Y-158322284D02*
X163097744Y-158179426D01*
X163097744Y-158179426D02*
X163079887Y-158036569D01*
X163079887Y-158036569D02*
X162990601Y-157893712D01*
X162990601Y-157893712D02*
X162838816Y-157822284D01*
X162838816Y-157822284D02*
X162481673Y-157822284D01*
X162481673Y-157822284D02*
X162329887Y-157750855D01*
X161695958Y-158393712D02*
X161570958Y-157393712D01*
X161606673Y-157679426D02*
X161517387Y-157536569D01*
X161517387Y-157536569D02*
X161437030Y-157465141D01*
X161437030Y-157465141D02*
X161285244Y-157393712D01*
X161285244Y-157393712D02*
X161142387Y-157393712D01*
X160124530Y-158393712D02*
X159937030Y-156893712D01*
X160115602Y-158322284D02*
X160267387Y-158393712D01*
X160267387Y-158393712D02*
X160553102Y-158393712D01*
X160553102Y-158393712D02*
X160687030Y-158322284D01*
X160687030Y-158322284D02*
X160749530Y-158250855D01*
X160749530Y-158250855D02*
X160803102Y-158107998D01*
X160803102Y-158107998D02*
X160749530Y-157679426D01*
X160749530Y-157679426D02*
X160660244Y-157536569D01*
X160660244Y-157536569D02*
X160579887Y-157465141D01*
X160579887Y-157465141D02*
X160428102Y-157393712D01*
X160428102Y-157393712D02*
X160142387Y-157393712D01*
X160142387Y-157393712D02*
X160008459Y-157465141D01*
X180195958Y-160808628D02*
X180606673Y-160094342D01*
X181053101Y-160808628D02*
X180865601Y-159308628D01*
X180865601Y-159308628D02*
X180294173Y-159308628D01*
X180294173Y-159308628D02*
X180160244Y-159380057D01*
X180160244Y-159380057D02*
X180097744Y-159451485D01*
X180097744Y-159451485D02*
X180044173Y-159594342D01*
X180044173Y-159594342D02*
X180070958Y-159808628D01*
X180070958Y-159808628D02*
X180160244Y-159951485D01*
X180160244Y-159951485D02*
X180240601Y-160022914D01*
X180240601Y-160022914D02*
X180392387Y-160094342D01*
X180392387Y-160094342D02*
X180963816Y-160094342D01*
X178972744Y-160737200D02*
X179124530Y-160808628D01*
X179124530Y-160808628D02*
X179410244Y-160808628D01*
X179410244Y-160808628D02*
X179544173Y-160737200D01*
X179544173Y-160737200D02*
X179597744Y-160594342D01*
X179597744Y-160594342D02*
X179526316Y-160022914D01*
X179526316Y-160022914D02*
X179437030Y-159880057D01*
X179437030Y-159880057D02*
X179285244Y-159808628D01*
X179285244Y-159808628D02*
X178999530Y-159808628D01*
X178999530Y-159808628D02*
X178865601Y-159880057D01*
X178865601Y-159880057D02*
X178812030Y-160022914D01*
X178812030Y-160022914D02*
X178829887Y-160165771D01*
X178829887Y-160165771D02*
X179562030Y-160308628D01*
X178285244Y-159808628D02*
X178053102Y-160808628D01*
X178053102Y-160808628D02*
X177570959Y-159808628D01*
X177106673Y-160665771D02*
X177044173Y-160737200D01*
X177044173Y-160737200D02*
X177124530Y-160808628D01*
X177124530Y-160808628D02*
X177187030Y-160737200D01*
X177187030Y-160737200D02*
X177106673Y-160665771D01*
X177106673Y-160665771D02*
X177124530Y-160808628D01*
X174794173Y-159308628D02*
X174651316Y-159308628D01*
X174651316Y-159308628D02*
X174517387Y-159380057D01*
X174517387Y-159380057D02*
X174454887Y-159451485D01*
X174454887Y-159451485D02*
X174401316Y-159594342D01*
X174401316Y-159594342D02*
X174365602Y-159880057D01*
X174365602Y-159880057D02*
X174410244Y-160237200D01*
X174410244Y-160237200D02*
X174517387Y-160522914D01*
X174517387Y-160522914D02*
X174606673Y-160665771D01*
X174606673Y-160665771D02*
X174687030Y-160737200D01*
X174687030Y-160737200D02*
X174838816Y-160808628D01*
X174838816Y-160808628D02*
X174981673Y-160808628D01*
X174981673Y-160808628D02*
X175115602Y-160737200D01*
X175115602Y-160737200D02*
X175178102Y-160665771D01*
X175178102Y-160665771D02*
X175231673Y-160522914D01*
X175231673Y-160522914D02*
X175267387Y-160237200D01*
X175267387Y-160237200D02*
X175222744Y-159880057D01*
X175222744Y-159880057D02*
X175115602Y-159594342D01*
X175115602Y-159594342D02*
X175026316Y-159451485D01*
X175026316Y-159451485D02*
X174945959Y-159380057D01*
X174945959Y-159380057D02*
X174794173Y-159308628D01*
X173820959Y-160665771D02*
X173758459Y-160737200D01*
X173758459Y-160737200D02*
X173838816Y-160808628D01*
X173838816Y-160808628D02*
X173901316Y-160737200D01*
X173901316Y-160737200D02*
X173820959Y-160665771D01*
X173820959Y-160665771D02*
X173838816Y-160808628D01*
X172356673Y-159808628D02*
X172481673Y-160808628D01*
X172642387Y-159237200D02*
X173133459Y-160308628D01*
X173133459Y-160308628D02*
X172204887Y-160308628D01*
X171678102Y-160665771D02*
X171615602Y-160737200D01*
X171615602Y-160737200D02*
X171695959Y-160808628D01*
X171695959Y-160808628D02*
X171758459Y-160737200D01*
X171758459Y-160737200D02*
X171678102Y-160665771D01*
X171678102Y-160665771D02*
X171695959Y-160808628D01*
X171124530Y-160808628D02*
X170213816Y-159808628D01*
X170999530Y-159808628D02*
X170338816Y-160808628D01*
X244892857Y-171704819D02*
X245226190Y-171228628D01*
X245464285Y-171704819D02*
X245464285Y-170704819D01*
X245464285Y-170704819D02*
X245083333Y-170704819D01*
X245083333Y-170704819D02*
X244988095Y-170752438D01*
X244988095Y-170752438D02*
X244940476Y-170800057D01*
X244940476Y-170800057D02*
X244892857Y-170895295D01*
X244892857Y-170895295D02*
X244892857Y-171038152D01*
X244892857Y-171038152D02*
X244940476Y-171133390D01*
X244940476Y-171133390D02*
X244988095Y-171181009D01*
X244988095Y-171181009D02*
X245083333Y-171228628D01*
X245083333Y-171228628D02*
X245464285Y-171228628D01*
X244511904Y-170800057D02*
X244464285Y-170752438D01*
X244464285Y-170752438D02*
X244369047Y-170704819D01*
X244369047Y-170704819D02*
X244130952Y-170704819D01*
X244130952Y-170704819D02*
X244035714Y-170752438D01*
X244035714Y-170752438D02*
X243988095Y-170800057D01*
X243988095Y-170800057D02*
X243940476Y-170895295D01*
X243940476Y-170895295D02*
X243940476Y-170990533D01*
X243940476Y-170990533D02*
X243988095Y-171133390D01*
X243988095Y-171133390D02*
X244559523Y-171704819D01*
X244559523Y-171704819D02*
X243940476Y-171704819D01*
X243559523Y-170800057D02*
X243511904Y-170752438D01*
X243511904Y-170752438D02*
X243416666Y-170704819D01*
X243416666Y-170704819D02*
X243178571Y-170704819D01*
X243178571Y-170704819D02*
X243083333Y-170752438D01*
X243083333Y-170752438D02*
X243035714Y-170800057D01*
X243035714Y-170800057D02*
X242988095Y-170895295D01*
X242988095Y-170895295D02*
X242988095Y-170990533D01*
X242988095Y-170990533D02*
X243035714Y-171133390D01*
X243035714Y-171133390D02*
X243607142Y-171704819D01*
X243607142Y-171704819D02*
X242988095Y-171704819D01*
X294142857Y-134704819D02*
X294476190Y-134228628D01*
X294714285Y-134704819D02*
X294714285Y-133704819D01*
X294714285Y-133704819D02*
X294333333Y-133704819D01*
X294333333Y-133704819D02*
X294238095Y-133752438D01*
X294238095Y-133752438D02*
X294190476Y-133800057D01*
X294190476Y-133800057D02*
X294142857Y-133895295D01*
X294142857Y-133895295D02*
X294142857Y-134038152D01*
X294142857Y-134038152D02*
X294190476Y-134133390D01*
X294190476Y-134133390D02*
X294238095Y-134181009D01*
X294238095Y-134181009D02*
X294333333Y-134228628D01*
X294333333Y-134228628D02*
X294714285Y-134228628D01*
X293761904Y-133800057D02*
X293714285Y-133752438D01*
X293714285Y-133752438D02*
X293619047Y-133704819D01*
X293619047Y-133704819D02*
X293380952Y-133704819D01*
X293380952Y-133704819D02*
X293285714Y-133752438D01*
X293285714Y-133752438D02*
X293238095Y-133800057D01*
X293238095Y-133800057D02*
X293190476Y-133895295D01*
X293190476Y-133895295D02*
X293190476Y-133990533D01*
X293190476Y-133990533D02*
X293238095Y-134133390D01*
X293238095Y-134133390D02*
X293809523Y-134704819D01*
X293809523Y-134704819D02*
X293190476Y-134704819D01*
X292333333Y-133704819D02*
X292523809Y-133704819D01*
X292523809Y-133704819D02*
X292619047Y-133752438D01*
X292619047Y-133752438D02*
X292666666Y-133800057D01*
X292666666Y-133800057D02*
X292761904Y-133942914D01*
X292761904Y-133942914D02*
X292809523Y-134133390D01*
X292809523Y-134133390D02*
X292809523Y-134514342D01*
X292809523Y-134514342D02*
X292761904Y-134609580D01*
X292761904Y-134609580D02*
X292714285Y-134657200D01*
X292714285Y-134657200D02*
X292619047Y-134704819D01*
X292619047Y-134704819D02*
X292428571Y-134704819D01*
X292428571Y-134704819D02*
X292333333Y-134657200D01*
X292333333Y-134657200D02*
X292285714Y-134609580D01*
X292285714Y-134609580D02*
X292238095Y-134514342D01*
X292238095Y-134514342D02*
X292238095Y-134276247D01*
X292238095Y-134276247D02*
X292285714Y-134181009D01*
X292285714Y-134181009D02*
X292333333Y-134133390D01*
X292333333Y-134133390D02*
X292428571Y-134085771D01*
X292428571Y-134085771D02*
X292619047Y-134085771D01*
X292619047Y-134085771D02*
X292714285Y-134133390D01*
X292714285Y-134133390D02*
X292761904Y-134181009D01*
X292761904Y-134181009D02*
X292809523Y-134276247D01*
X195392857Y-171454819D02*
X195726190Y-170978628D01*
X195964285Y-171454819D02*
X195964285Y-170454819D01*
X195964285Y-170454819D02*
X195583333Y-170454819D01*
X195583333Y-170454819D02*
X195488095Y-170502438D01*
X195488095Y-170502438D02*
X195440476Y-170550057D01*
X195440476Y-170550057D02*
X195392857Y-170645295D01*
X195392857Y-170645295D02*
X195392857Y-170788152D01*
X195392857Y-170788152D02*
X195440476Y-170883390D01*
X195440476Y-170883390D02*
X195488095Y-170931009D01*
X195488095Y-170931009D02*
X195583333Y-170978628D01*
X195583333Y-170978628D02*
X195964285Y-170978628D01*
X194440476Y-171454819D02*
X195011904Y-171454819D01*
X194726190Y-171454819D02*
X194726190Y-170454819D01*
X194726190Y-170454819D02*
X194821428Y-170597676D01*
X194821428Y-170597676D02*
X194916666Y-170692914D01*
X194916666Y-170692914D02*
X195011904Y-170740533D01*
X193583333Y-170454819D02*
X193773809Y-170454819D01*
X193773809Y-170454819D02*
X193869047Y-170502438D01*
X193869047Y-170502438D02*
X193916666Y-170550057D01*
X193916666Y-170550057D02*
X194011904Y-170692914D01*
X194011904Y-170692914D02*
X194059523Y-170883390D01*
X194059523Y-170883390D02*
X194059523Y-171264342D01*
X194059523Y-171264342D02*
X194011904Y-171359580D01*
X194011904Y-171359580D02*
X193964285Y-171407200D01*
X193964285Y-171407200D02*
X193869047Y-171454819D01*
X193869047Y-171454819D02*
X193678571Y-171454819D01*
X193678571Y-171454819D02*
X193583333Y-171407200D01*
X193583333Y-171407200D02*
X193535714Y-171359580D01*
X193535714Y-171359580D02*
X193488095Y-171264342D01*
X193488095Y-171264342D02*
X193488095Y-171026247D01*
X193488095Y-171026247D02*
X193535714Y-170931009D01*
X193535714Y-170931009D02*
X193583333Y-170883390D01*
X193583333Y-170883390D02*
X193678571Y-170835771D01*
X193678571Y-170835771D02*
X193869047Y-170835771D01*
X193869047Y-170835771D02*
X193964285Y-170883390D01*
X193964285Y-170883390D02*
X194011904Y-170931009D01*
X194011904Y-170931009D02*
X194059523Y-171026247D01*
X220142857Y-171454819D02*
X220476190Y-170978628D01*
X220714285Y-171454819D02*
X220714285Y-170454819D01*
X220714285Y-170454819D02*
X220333333Y-170454819D01*
X220333333Y-170454819D02*
X220238095Y-170502438D01*
X220238095Y-170502438D02*
X220190476Y-170550057D01*
X220190476Y-170550057D02*
X220142857Y-170645295D01*
X220142857Y-170645295D02*
X220142857Y-170788152D01*
X220142857Y-170788152D02*
X220190476Y-170883390D01*
X220190476Y-170883390D02*
X220238095Y-170931009D01*
X220238095Y-170931009D02*
X220333333Y-170978628D01*
X220333333Y-170978628D02*
X220714285Y-170978628D01*
X219190476Y-171454819D02*
X219761904Y-171454819D01*
X219476190Y-171454819D02*
X219476190Y-170454819D01*
X219476190Y-170454819D02*
X219571428Y-170597676D01*
X219571428Y-170597676D02*
X219666666Y-170692914D01*
X219666666Y-170692914D02*
X219761904Y-170740533D01*
X218714285Y-171454819D02*
X218523809Y-171454819D01*
X218523809Y-171454819D02*
X218428571Y-171407200D01*
X218428571Y-171407200D02*
X218380952Y-171359580D01*
X218380952Y-171359580D02*
X218285714Y-171216723D01*
X218285714Y-171216723D02*
X218238095Y-171026247D01*
X218238095Y-171026247D02*
X218238095Y-170645295D01*
X218238095Y-170645295D02*
X218285714Y-170550057D01*
X218285714Y-170550057D02*
X218333333Y-170502438D01*
X218333333Y-170502438D02*
X218428571Y-170454819D01*
X218428571Y-170454819D02*
X218619047Y-170454819D01*
X218619047Y-170454819D02*
X218714285Y-170502438D01*
X218714285Y-170502438D02*
X218761904Y-170550057D01*
X218761904Y-170550057D02*
X218809523Y-170645295D01*
X218809523Y-170645295D02*
X218809523Y-170883390D01*
X218809523Y-170883390D02*
X218761904Y-170978628D01*
X218761904Y-170978628D02*
X218714285Y-171026247D01*
X218714285Y-171026247D02*
X218619047Y-171073866D01*
X218619047Y-171073866D02*
X218428571Y-171073866D01*
X218428571Y-171073866D02*
X218333333Y-171026247D01*
X218333333Y-171026247D02*
X218285714Y-170978628D01*
X218285714Y-170978628D02*
X218238095Y-170883390D01*
X170642857Y-146954819D02*
X170976190Y-146478628D01*
X171214285Y-146954819D02*
X171214285Y-145954819D01*
X171214285Y-145954819D02*
X170833333Y-145954819D01*
X170833333Y-145954819D02*
X170738095Y-146002438D01*
X170738095Y-146002438D02*
X170690476Y-146050057D01*
X170690476Y-146050057D02*
X170642857Y-146145295D01*
X170642857Y-146145295D02*
X170642857Y-146288152D01*
X170642857Y-146288152D02*
X170690476Y-146383390D01*
X170690476Y-146383390D02*
X170738095Y-146431009D01*
X170738095Y-146431009D02*
X170833333Y-146478628D01*
X170833333Y-146478628D02*
X171214285Y-146478628D01*
X169690476Y-146954819D02*
X170261904Y-146954819D01*
X169976190Y-146954819D02*
X169976190Y-145954819D01*
X169976190Y-145954819D02*
X170071428Y-146097676D01*
X170071428Y-146097676D02*
X170166666Y-146192914D01*
X170166666Y-146192914D02*
X170261904Y-146240533D01*
X169309523Y-146050057D02*
X169261904Y-146002438D01*
X169261904Y-146002438D02*
X169166666Y-145954819D01*
X169166666Y-145954819D02*
X168928571Y-145954819D01*
X168928571Y-145954819D02*
X168833333Y-146002438D01*
X168833333Y-146002438D02*
X168785714Y-146050057D01*
X168785714Y-146050057D02*
X168738095Y-146145295D01*
X168738095Y-146145295D02*
X168738095Y-146240533D01*
X168738095Y-146240533D02*
X168785714Y-146383390D01*
X168785714Y-146383390D02*
X169357142Y-146954819D01*
X169357142Y-146954819D02*
X168738095Y-146954819D01*
X146166666Y-134704819D02*
X146499999Y-134228628D01*
X146738094Y-134704819D02*
X146738094Y-133704819D01*
X146738094Y-133704819D02*
X146357142Y-133704819D01*
X146357142Y-133704819D02*
X146261904Y-133752438D01*
X146261904Y-133752438D02*
X146214285Y-133800057D01*
X146214285Y-133800057D02*
X146166666Y-133895295D01*
X146166666Y-133895295D02*
X146166666Y-134038152D01*
X146166666Y-134038152D02*
X146214285Y-134133390D01*
X146214285Y-134133390D02*
X146261904Y-134181009D01*
X146261904Y-134181009D02*
X146357142Y-134228628D01*
X146357142Y-134228628D02*
X146738094Y-134228628D01*
X145690475Y-134704819D02*
X145499999Y-134704819D01*
X145499999Y-134704819D02*
X145404761Y-134657200D01*
X145404761Y-134657200D02*
X145357142Y-134609580D01*
X145357142Y-134609580D02*
X145261904Y-134466723D01*
X145261904Y-134466723D02*
X145214285Y-134276247D01*
X145214285Y-134276247D02*
X145214285Y-133895295D01*
X145214285Y-133895295D02*
X145261904Y-133800057D01*
X145261904Y-133800057D02*
X145309523Y-133752438D01*
X145309523Y-133752438D02*
X145404761Y-133704819D01*
X145404761Y-133704819D02*
X145595237Y-133704819D01*
X145595237Y-133704819D02*
X145690475Y-133752438D01*
X145690475Y-133752438D02*
X145738094Y-133800057D01*
X145738094Y-133800057D02*
X145785713Y-133895295D01*
X145785713Y-133895295D02*
X145785713Y-134133390D01*
X145785713Y-134133390D02*
X145738094Y-134228628D01*
X145738094Y-134228628D02*
X145690475Y-134276247D01*
X145690475Y-134276247D02*
X145595237Y-134323866D01*
X145595237Y-134323866D02*
X145404761Y-134323866D01*
X145404761Y-134323866D02*
X145309523Y-134276247D01*
X145309523Y-134276247D02*
X145261904Y-134228628D01*
X145261904Y-134228628D02*
X145214285Y-134133390D01*
X195642857Y-122454819D02*
X195976190Y-121978628D01*
X196214285Y-122454819D02*
X196214285Y-121454819D01*
X196214285Y-121454819D02*
X195833333Y-121454819D01*
X195833333Y-121454819D02*
X195738095Y-121502438D01*
X195738095Y-121502438D02*
X195690476Y-121550057D01*
X195690476Y-121550057D02*
X195642857Y-121645295D01*
X195642857Y-121645295D02*
X195642857Y-121788152D01*
X195642857Y-121788152D02*
X195690476Y-121883390D01*
X195690476Y-121883390D02*
X195738095Y-121931009D01*
X195738095Y-121931009D02*
X195833333Y-121978628D01*
X195833333Y-121978628D02*
X196214285Y-121978628D01*
X194690476Y-122454819D02*
X195261904Y-122454819D01*
X194976190Y-122454819D02*
X194976190Y-121454819D01*
X194976190Y-121454819D02*
X195071428Y-121597676D01*
X195071428Y-121597676D02*
X195166666Y-121692914D01*
X195166666Y-121692914D02*
X195261904Y-121740533D01*
X193833333Y-121788152D02*
X193833333Y-122454819D01*
X194071428Y-121407200D02*
X194309523Y-122121485D01*
X194309523Y-122121485D02*
X193690476Y-122121485D01*
X235794285Y-138128104D02*
X235318095Y-138128104D01*
X235889523Y-138413819D02*
X235556190Y-137413819D01*
X235556190Y-137413819D02*
X235222857Y-138413819D01*
X234365714Y-138413819D02*
X234937142Y-138413819D01*
X234651428Y-138413819D02*
X234651428Y-137413819D01*
X234651428Y-137413819D02*
X234746666Y-137556676D01*
X234746666Y-137556676D02*
X234841904Y-137651914D01*
X234841904Y-137651914D02*
X234937142Y-137699533D01*
X170642857Y-171454819D02*
X170976190Y-170978628D01*
X171214285Y-171454819D02*
X171214285Y-170454819D01*
X171214285Y-170454819D02*
X170833333Y-170454819D01*
X170833333Y-170454819D02*
X170738095Y-170502438D01*
X170738095Y-170502438D02*
X170690476Y-170550057D01*
X170690476Y-170550057D02*
X170642857Y-170645295D01*
X170642857Y-170645295D02*
X170642857Y-170788152D01*
X170642857Y-170788152D02*
X170690476Y-170883390D01*
X170690476Y-170883390D02*
X170738095Y-170931009D01*
X170738095Y-170931009D02*
X170833333Y-170978628D01*
X170833333Y-170978628D02*
X171214285Y-170978628D01*
X169690476Y-171454819D02*
X170261904Y-171454819D01*
X169976190Y-171454819D02*
X169976190Y-170454819D01*
X169976190Y-170454819D02*
X170071428Y-170597676D01*
X170071428Y-170597676D02*
X170166666Y-170692914D01*
X170166666Y-170692914D02*
X170261904Y-170740533D01*
X169357142Y-170454819D02*
X168738095Y-170454819D01*
X168738095Y-170454819D02*
X169071428Y-170835771D01*
X169071428Y-170835771D02*
X168928571Y-170835771D01*
X168928571Y-170835771D02*
X168833333Y-170883390D01*
X168833333Y-170883390D02*
X168785714Y-170931009D01*
X168785714Y-170931009D02*
X168738095Y-171026247D01*
X168738095Y-171026247D02*
X168738095Y-171264342D01*
X168738095Y-171264342D02*
X168785714Y-171359580D01*
X168785714Y-171359580D02*
X168833333Y-171407200D01*
X168833333Y-171407200D02*
X168928571Y-171454819D01*
X168928571Y-171454819D02*
X169214285Y-171454819D01*
X169214285Y-171454819D02*
X169309523Y-171407200D01*
X169309523Y-171407200D02*
X169357142Y-171359580D01*
X293892857Y-159204819D02*
X294226190Y-158728628D01*
X294464285Y-159204819D02*
X294464285Y-158204819D01*
X294464285Y-158204819D02*
X294083333Y-158204819D01*
X294083333Y-158204819D02*
X293988095Y-158252438D01*
X293988095Y-158252438D02*
X293940476Y-158300057D01*
X293940476Y-158300057D02*
X293892857Y-158395295D01*
X293892857Y-158395295D02*
X293892857Y-158538152D01*
X293892857Y-158538152D02*
X293940476Y-158633390D01*
X293940476Y-158633390D02*
X293988095Y-158681009D01*
X293988095Y-158681009D02*
X294083333Y-158728628D01*
X294083333Y-158728628D02*
X294464285Y-158728628D01*
X293511904Y-158300057D02*
X293464285Y-158252438D01*
X293464285Y-158252438D02*
X293369047Y-158204819D01*
X293369047Y-158204819D02*
X293130952Y-158204819D01*
X293130952Y-158204819D02*
X293035714Y-158252438D01*
X293035714Y-158252438D02*
X292988095Y-158300057D01*
X292988095Y-158300057D02*
X292940476Y-158395295D01*
X292940476Y-158395295D02*
X292940476Y-158490533D01*
X292940476Y-158490533D02*
X292988095Y-158633390D01*
X292988095Y-158633390D02*
X293559523Y-159204819D01*
X293559523Y-159204819D02*
X292940476Y-159204819D01*
X292607142Y-158204819D02*
X291940476Y-158204819D01*
X291940476Y-158204819D02*
X292369047Y-159204819D01*
X269392857Y-171704819D02*
X269726190Y-171228628D01*
X269964285Y-171704819D02*
X269964285Y-170704819D01*
X269964285Y-170704819D02*
X269583333Y-170704819D01*
X269583333Y-170704819D02*
X269488095Y-170752438D01*
X269488095Y-170752438D02*
X269440476Y-170800057D01*
X269440476Y-170800057D02*
X269392857Y-170895295D01*
X269392857Y-170895295D02*
X269392857Y-171038152D01*
X269392857Y-171038152D02*
X269440476Y-171133390D01*
X269440476Y-171133390D02*
X269488095Y-171181009D01*
X269488095Y-171181009D02*
X269583333Y-171228628D01*
X269583333Y-171228628D02*
X269964285Y-171228628D01*
X269011904Y-170800057D02*
X268964285Y-170752438D01*
X268964285Y-170752438D02*
X268869047Y-170704819D01*
X268869047Y-170704819D02*
X268630952Y-170704819D01*
X268630952Y-170704819D02*
X268535714Y-170752438D01*
X268535714Y-170752438D02*
X268488095Y-170800057D01*
X268488095Y-170800057D02*
X268440476Y-170895295D01*
X268440476Y-170895295D02*
X268440476Y-170990533D01*
X268440476Y-170990533D02*
X268488095Y-171133390D01*
X268488095Y-171133390D02*
X269059523Y-171704819D01*
X269059523Y-171704819D02*
X268440476Y-171704819D01*
X267535714Y-170704819D02*
X268011904Y-170704819D01*
X268011904Y-170704819D02*
X268059523Y-171181009D01*
X268059523Y-171181009D02*
X268011904Y-171133390D01*
X268011904Y-171133390D02*
X267916666Y-171085771D01*
X267916666Y-171085771D02*
X267678571Y-171085771D01*
X267678571Y-171085771D02*
X267583333Y-171133390D01*
X267583333Y-171133390D02*
X267535714Y-171181009D01*
X267535714Y-171181009D02*
X267488095Y-171276247D01*
X267488095Y-171276247D02*
X267488095Y-171514342D01*
X267488095Y-171514342D02*
X267535714Y-171609580D01*
X267535714Y-171609580D02*
X267583333Y-171657200D01*
X267583333Y-171657200D02*
X267678571Y-171704819D01*
X267678571Y-171704819D02*
X267916666Y-171704819D01*
X267916666Y-171704819D02*
X268011904Y-171657200D01*
X268011904Y-171657200D02*
X268059523Y-171609580D01*
X269392857Y-122204819D02*
X269726190Y-121728628D01*
X269964285Y-122204819D02*
X269964285Y-121204819D01*
X269964285Y-121204819D02*
X269583333Y-121204819D01*
X269583333Y-121204819D02*
X269488095Y-121252438D01*
X269488095Y-121252438D02*
X269440476Y-121300057D01*
X269440476Y-121300057D02*
X269392857Y-121395295D01*
X269392857Y-121395295D02*
X269392857Y-121538152D01*
X269392857Y-121538152D02*
X269440476Y-121633390D01*
X269440476Y-121633390D02*
X269488095Y-121681009D01*
X269488095Y-121681009D02*
X269583333Y-121728628D01*
X269583333Y-121728628D02*
X269964285Y-121728628D01*
X269011904Y-121300057D02*
X268964285Y-121252438D01*
X268964285Y-121252438D02*
X268869047Y-121204819D01*
X268869047Y-121204819D02*
X268630952Y-121204819D01*
X268630952Y-121204819D02*
X268535714Y-121252438D01*
X268535714Y-121252438D02*
X268488095Y-121300057D01*
X268488095Y-121300057D02*
X268440476Y-121395295D01*
X268440476Y-121395295D02*
X268440476Y-121490533D01*
X268440476Y-121490533D02*
X268488095Y-121633390D01*
X268488095Y-121633390D02*
X269059523Y-122204819D01*
X269059523Y-122204819D02*
X268440476Y-122204819D01*
X268107142Y-121204819D02*
X267488095Y-121204819D01*
X267488095Y-121204819D02*
X267821428Y-121585771D01*
X267821428Y-121585771D02*
X267678571Y-121585771D01*
X267678571Y-121585771D02*
X267583333Y-121633390D01*
X267583333Y-121633390D02*
X267535714Y-121681009D01*
X267535714Y-121681009D02*
X267488095Y-121776247D01*
X267488095Y-121776247D02*
X267488095Y-122014342D01*
X267488095Y-122014342D02*
X267535714Y-122109580D01*
X267535714Y-122109580D02*
X267583333Y-122157200D01*
X267583333Y-122157200D02*
X267678571Y-122204819D01*
X267678571Y-122204819D02*
X267964285Y-122204819D01*
X267964285Y-122204819D02*
X268059523Y-122157200D01*
X268059523Y-122157200D02*
X268107142Y-122109580D01*
X220142857Y-122454819D02*
X220476190Y-121978628D01*
X220714285Y-122454819D02*
X220714285Y-121454819D01*
X220714285Y-121454819D02*
X220333333Y-121454819D01*
X220333333Y-121454819D02*
X220238095Y-121502438D01*
X220238095Y-121502438D02*
X220190476Y-121550057D01*
X220190476Y-121550057D02*
X220142857Y-121645295D01*
X220142857Y-121645295D02*
X220142857Y-121788152D01*
X220142857Y-121788152D02*
X220190476Y-121883390D01*
X220190476Y-121883390D02*
X220238095Y-121931009D01*
X220238095Y-121931009D02*
X220333333Y-121978628D01*
X220333333Y-121978628D02*
X220714285Y-121978628D01*
X219190476Y-122454819D02*
X219761904Y-122454819D01*
X219476190Y-122454819D02*
X219476190Y-121454819D01*
X219476190Y-121454819D02*
X219571428Y-121597676D01*
X219571428Y-121597676D02*
X219666666Y-121692914D01*
X219666666Y-121692914D02*
X219761904Y-121740533D01*
X218857142Y-121454819D02*
X218190476Y-121454819D01*
X218190476Y-121454819D02*
X218619047Y-122454819D01*
X269392857Y-146954819D02*
X269726190Y-146478628D01*
X269964285Y-146954819D02*
X269964285Y-145954819D01*
X269964285Y-145954819D02*
X269583333Y-145954819D01*
X269583333Y-145954819D02*
X269488095Y-146002438D01*
X269488095Y-146002438D02*
X269440476Y-146050057D01*
X269440476Y-146050057D02*
X269392857Y-146145295D01*
X269392857Y-146145295D02*
X269392857Y-146288152D01*
X269392857Y-146288152D02*
X269440476Y-146383390D01*
X269440476Y-146383390D02*
X269488095Y-146431009D01*
X269488095Y-146431009D02*
X269583333Y-146478628D01*
X269583333Y-146478628D02*
X269964285Y-146478628D01*
X269011904Y-146050057D02*
X268964285Y-146002438D01*
X268964285Y-146002438D02*
X268869047Y-145954819D01*
X268869047Y-145954819D02*
X268630952Y-145954819D01*
X268630952Y-145954819D02*
X268535714Y-146002438D01*
X268535714Y-146002438D02*
X268488095Y-146050057D01*
X268488095Y-146050057D02*
X268440476Y-146145295D01*
X268440476Y-146145295D02*
X268440476Y-146240533D01*
X268440476Y-146240533D02*
X268488095Y-146383390D01*
X268488095Y-146383390D02*
X269059523Y-146954819D01*
X269059523Y-146954819D02*
X268440476Y-146954819D01*
X267583333Y-146288152D02*
X267583333Y-146954819D01*
X267821428Y-145907200D02*
X268059523Y-146621485D01*
X268059523Y-146621485D02*
X267440476Y-146621485D01*
X244642857Y-146954819D02*
X244976190Y-146478628D01*
X245214285Y-146954819D02*
X245214285Y-145954819D01*
X245214285Y-145954819D02*
X244833333Y-145954819D01*
X244833333Y-145954819D02*
X244738095Y-146002438D01*
X244738095Y-146002438D02*
X244690476Y-146050057D01*
X244690476Y-146050057D02*
X244642857Y-146145295D01*
X244642857Y-146145295D02*
X244642857Y-146288152D01*
X244642857Y-146288152D02*
X244690476Y-146383390D01*
X244690476Y-146383390D02*
X244738095Y-146431009D01*
X244738095Y-146431009D02*
X244833333Y-146478628D01*
X244833333Y-146478628D02*
X245214285Y-146478628D01*
X244261904Y-146050057D02*
X244214285Y-146002438D01*
X244214285Y-146002438D02*
X244119047Y-145954819D01*
X244119047Y-145954819D02*
X243880952Y-145954819D01*
X243880952Y-145954819D02*
X243785714Y-146002438D01*
X243785714Y-146002438D02*
X243738095Y-146050057D01*
X243738095Y-146050057D02*
X243690476Y-146145295D01*
X243690476Y-146145295D02*
X243690476Y-146240533D01*
X243690476Y-146240533D02*
X243738095Y-146383390D01*
X243738095Y-146383390D02*
X244309523Y-146954819D01*
X244309523Y-146954819D02*
X243690476Y-146954819D01*
X242738095Y-146954819D02*
X243309523Y-146954819D01*
X243023809Y-146954819D02*
X243023809Y-145954819D01*
X243023809Y-145954819D02*
X243119047Y-146097676D01*
X243119047Y-146097676D02*
X243214285Y-146192914D01*
X243214285Y-146192914D02*
X243309523Y-146240533D01*
X195392857Y-146954819D02*
X195726190Y-146478628D01*
X195964285Y-146954819D02*
X195964285Y-145954819D01*
X195964285Y-145954819D02*
X195583333Y-145954819D01*
X195583333Y-145954819D02*
X195488095Y-146002438D01*
X195488095Y-146002438D02*
X195440476Y-146050057D01*
X195440476Y-146050057D02*
X195392857Y-146145295D01*
X195392857Y-146145295D02*
X195392857Y-146288152D01*
X195392857Y-146288152D02*
X195440476Y-146383390D01*
X195440476Y-146383390D02*
X195488095Y-146431009D01*
X195488095Y-146431009D02*
X195583333Y-146478628D01*
X195583333Y-146478628D02*
X195964285Y-146478628D01*
X194440476Y-146954819D02*
X195011904Y-146954819D01*
X194726190Y-146954819D02*
X194726190Y-145954819D01*
X194726190Y-145954819D02*
X194821428Y-146097676D01*
X194821428Y-146097676D02*
X194916666Y-146192914D01*
X194916666Y-146192914D02*
X195011904Y-146240533D01*
X193535714Y-145954819D02*
X194011904Y-145954819D01*
X194011904Y-145954819D02*
X194059523Y-146431009D01*
X194059523Y-146431009D02*
X194011904Y-146383390D01*
X194011904Y-146383390D02*
X193916666Y-146335771D01*
X193916666Y-146335771D02*
X193678571Y-146335771D01*
X193678571Y-146335771D02*
X193583333Y-146383390D01*
X193583333Y-146383390D02*
X193535714Y-146431009D01*
X193535714Y-146431009D02*
X193488095Y-146526247D01*
X193488095Y-146526247D02*
X193488095Y-146764342D01*
X193488095Y-146764342D02*
X193535714Y-146859580D01*
X193535714Y-146859580D02*
X193583333Y-146907200D01*
X193583333Y-146907200D02*
X193678571Y-146954819D01*
X193678571Y-146954819D02*
X193916666Y-146954819D01*
X193916666Y-146954819D02*
X194011904Y-146907200D01*
X194011904Y-146907200D02*
X194059523Y-146859580D01*
X244642857Y-122204819D02*
X244976190Y-121728628D01*
X245214285Y-122204819D02*
X245214285Y-121204819D01*
X245214285Y-121204819D02*
X244833333Y-121204819D01*
X244833333Y-121204819D02*
X244738095Y-121252438D01*
X244738095Y-121252438D02*
X244690476Y-121300057D01*
X244690476Y-121300057D02*
X244642857Y-121395295D01*
X244642857Y-121395295D02*
X244642857Y-121538152D01*
X244642857Y-121538152D02*
X244690476Y-121633390D01*
X244690476Y-121633390D02*
X244738095Y-121681009D01*
X244738095Y-121681009D02*
X244833333Y-121728628D01*
X244833333Y-121728628D02*
X245214285Y-121728628D01*
X244261904Y-121300057D02*
X244214285Y-121252438D01*
X244214285Y-121252438D02*
X244119047Y-121204819D01*
X244119047Y-121204819D02*
X243880952Y-121204819D01*
X243880952Y-121204819D02*
X243785714Y-121252438D01*
X243785714Y-121252438D02*
X243738095Y-121300057D01*
X243738095Y-121300057D02*
X243690476Y-121395295D01*
X243690476Y-121395295D02*
X243690476Y-121490533D01*
X243690476Y-121490533D02*
X243738095Y-121633390D01*
X243738095Y-121633390D02*
X244309523Y-122204819D01*
X244309523Y-122204819D02*
X243690476Y-122204819D01*
X243071428Y-121204819D02*
X242976190Y-121204819D01*
X242976190Y-121204819D02*
X242880952Y-121252438D01*
X242880952Y-121252438D02*
X242833333Y-121300057D01*
X242833333Y-121300057D02*
X242785714Y-121395295D01*
X242785714Y-121395295D02*
X242738095Y-121585771D01*
X242738095Y-121585771D02*
X242738095Y-121823866D01*
X242738095Y-121823866D02*
X242785714Y-122014342D01*
X242785714Y-122014342D02*
X242833333Y-122109580D01*
X242833333Y-122109580D02*
X242880952Y-122157200D01*
X242880952Y-122157200D02*
X242976190Y-122204819D01*
X242976190Y-122204819D02*
X243071428Y-122204819D01*
X243071428Y-122204819D02*
X243166666Y-122157200D01*
X243166666Y-122157200D02*
X243214285Y-122109580D01*
X243214285Y-122109580D02*
X243261904Y-122014342D01*
X243261904Y-122014342D02*
X243309523Y-121823866D01*
X243309523Y-121823866D02*
X243309523Y-121585771D01*
X243309523Y-121585771D02*
X243261904Y-121395295D01*
X243261904Y-121395295D02*
X243214285Y-121300057D01*
X243214285Y-121300057D02*
X243166666Y-121252438D01*
X243166666Y-121252438D02*
X243071428Y-121204819D01*
X173006333Y-128348819D02*
X173006333Y-129063104D01*
X173006333Y-129063104D02*
X173053952Y-129205961D01*
X173053952Y-129205961D02*
X173149190Y-129301200D01*
X173149190Y-129301200D02*
X173292047Y-129348819D01*
X173292047Y-129348819D02*
X173387285Y-129348819D01*
X172006333Y-129348819D02*
X172577761Y-129348819D01*
X172292047Y-129348819D02*
X172292047Y-128348819D01*
X172292047Y-128348819D02*
X172387285Y-128491676D01*
X172387285Y-128491676D02*
X172482523Y-128586914D01*
X172482523Y-128586914D02*
X172577761Y-128634533D01*
D11*
X164063494Y-132610504D02*
X163587304Y-132610504D01*
X164194447Y-132896219D02*
X163736113Y-131896219D01*
X163736113Y-131896219D02*
X163527780Y-132896219D01*
X162718256Y-132896219D02*
X163194447Y-132896219D01*
X163194447Y-132896219D02*
X163069447Y-131896219D01*
X162396827Y-132610504D02*
X161920637Y-132610504D01*
X162527780Y-132896219D02*
X162069446Y-131896219D01*
X162069446Y-131896219D02*
X161861113Y-132896219D01*
X160956351Y-132896219D02*
X161230161Y-132420028D01*
X161527780Y-132896219D02*
X161402780Y-131896219D01*
X161402780Y-131896219D02*
X161021827Y-131896219D01*
X161021827Y-131896219D02*
X160932542Y-131943838D01*
X160932542Y-131943838D02*
X160890875Y-131991457D01*
X160890875Y-131991457D02*
X160855161Y-132086695D01*
X160855161Y-132086695D02*
X160873018Y-132229552D01*
X160873018Y-132229552D02*
X160932542Y-132324790D01*
X160932542Y-132324790D02*
X160986113Y-132372409D01*
X160986113Y-132372409D02*
X161087303Y-132420028D01*
X161087303Y-132420028D02*
X161468256Y-132420028D01*
X160527780Y-132896219D02*
X160402780Y-131896219D01*
X160402780Y-131896219D02*
X160158732Y-132610504D01*
X160158732Y-132610504D02*
X159736113Y-131896219D01*
X159736113Y-131896219D02*
X159861113Y-132896219D01*
D10*
X146142857Y-159204819D02*
X146476190Y-158728628D01*
X146714285Y-159204819D02*
X146714285Y-158204819D01*
X146714285Y-158204819D02*
X146333333Y-158204819D01*
X146333333Y-158204819D02*
X146238095Y-158252438D01*
X146238095Y-158252438D02*
X146190476Y-158300057D01*
X146190476Y-158300057D02*
X146142857Y-158395295D01*
X146142857Y-158395295D02*
X146142857Y-158538152D01*
X146142857Y-158538152D02*
X146190476Y-158633390D01*
X146190476Y-158633390D02*
X146238095Y-158681009D01*
X146238095Y-158681009D02*
X146333333Y-158728628D01*
X146333333Y-158728628D02*
X146714285Y-158728628D01*
X145190476Y-159204819D02*
X145761904Y-159204819D01*
X145476190Y-159204819D02*
X145476190Y-158204819D01*
X145476190Y-158204819D02*
X145571428Y-158347676D01*
X145571428Y-158347676D02*
X145666666Y-158442914D01*
X145666666Y-158442914D02*
X145761904Y-158490533D01*
X144571428Y-158204819D02*
X144476190Y-158204819D01*
X144476190Y-158204819D02*
X144380952Y-158252438D01*
X144380952Y-158252438D02*
X144333333Y-158300057D01*
X144333333Y-158300057D02*
X144285714Y-158395295D01*
X144285714Y-158395295D02*
X144238095Y-158585771D01*
X144238095Y-158585771D02*
X144238095Y-158823866D01*
X144238095Y-158823866D02*
X144285714Y-159014342D01*
X144285714Y-159014342D02*
X144333333Y-159109580D01*
X144333333Y-159109580D02*
X144380952Y-159157200D01*
X144380952Y-159157200D02*
X144476190Y-159204819D01*
X144476190Y-159204819D02*
X144571428Y-159204819D01*
X144571428Y-159204819D02*
X144666666Y-159157200D01*
X144666666Y-159157200D02*
X144714285Y-159109580D01*
X144714285Y-159109580D02*
X144761904Y-159014342D01*
X144761904Y-159014342D02*
X144809523Y-158823866D01*
X144809523Y-158823866D02*
X144809523Y-158585771D01*
X144809523Y-158585771D02*
X144761904Y-158395295D01*
X144761904Y-158395295D02*
X144714285Y-158300057D01*
X144714285Y-158300057D02*
X144666666Y-158252438D01*
X144666666Y-158252438D02*
X144571428Y-158204819D01*
X220142857Y-146704819D02*
X220476190Y-146228628D01*
X220714285Y-146704819D02*
X220714285Y-145704819D01*
X220714285Y-145704819D02*
X220333333Y-145704819D01*
X220333333Y-145704819D02*
X220238095Y-145752438D01*
X220238095Y-145752438D02*
X220190476Y-145800057D01*
X220190476Y-145800057D02*
X220142857Y-145895295D01*
X220142857Y-145895295D02*
X220142857Y-146038152D01*
X220142857Y-146038152D02*
X220190476Y-146133390D01*
X220190476Y-146133390D02*
X220238095Y-146181009D01*
X220238095Y-146181009D02*
X220333333Y-146228628D01*
X220333333Y-146228628D02*
X220714285Y-146228628D01*
X219190476Y-146704819D02*
X219761904Y-146704819D01*
X219476190Y-146704819D02*
X219476190Y-145704819D01*
X219476190Y-145704819D02*
X219571428Y-145847676D01*
X219571428Y-145847676D02*
X219666666Y-145942914D01*
X219666666Y-145942914D02*
X219761904Y-145990533D01*
X218619047Y-146133390D02*
X218714285Y-146085771D01*
X218714285Y-146085771D02*
X218761904Y-146038152D01*
X218761904Y-146038152D02*
X218809523Y-145942914D01*
X218809523Y-145942914D02*
X218809523Y-145895295D01*
X218809523Y-145895295D02*
X218761904Y-145800057D01*
X218761904Y-145800057D02*
X218714285Y-145752438D01*
X218714285Y-145752438D02*
X218619047Y-145704819D01*
X218619047Y-145704819D02*
X218428571Y-145704819D01*
X218428571Y-145704819D02*
X218333333Y-145752438D01*
X218333333Y-145752438D02*
X218285714Y-145800057D01*
X218285714Y-145800057D02*
X218238095Y-145895295D01*
X218238095Y-145895295D02*
X218238095Y-145942914D01*
X218238095Y-145942914D02*
X218285714Y-146038152D01*
X218285714Y-146038152D02*
X218333333Y-146085771D01*
X218333333Y-146085771D02*
X218428571Y-146133390D01*
X218428571Y-146133390D02*
X218619047Y-146133390D01*
X218619047Y-146133390D02*
X218714285Y-146181009D01*
X218714285Y-146181009D02*
X218761904Y-146228628D01*
X218761904Y-146228628D02*
X218809523Y-146323866D01*
X218809523Y-146323866D02*
X218809523Y-146514342D01*
X218809523Y-146514342D02*
X218761904Y-146609580D01*
X218761904Y-146609580D02*
X218714285Y-146657200D01*
X218714285Y-146657200D02*
X218619047Y-146704819D01*
X218619047Y-146704819D02*
X218428571Y-146704819D01*
X218428571Y-146704819D02*
X218333333Y-146657200D01*
X218333333Y-146657200D02*
X218285714Y-146609580D01*
X218285714Y-146609580D02*
X218238095Y-146514342D01*
X218238095Y-146514342D02*
X218238095Y-146323866D01*
X218238095Y-146323866D02*
X218285714Y-146228628D01*
X218285714Y-146228628D02*
X218333333Y-146181009D01*
X218333333Y-146181009D02*
X218428571Y-146133390D01*
X251920333Y-136879819D02*
X251920333Y-137594104D01*
X251920333Y-137594104D02*
X251967952Y-137736961D01*
X251967952Y-137736961D02*
X252063190Y-137832200D01*
X252063190Y-137832200D02*
X252206047Y-137879819D01*
X252206047Y-137879819D02*
X252301285Y-137879819D01*
X251491761Y-136975057D02*
X251444142Y-136927438D01*
X251444142Y-136927438D02*
X251348904Y-136879819D01*
X251348904Y-136879819D02*
X251110809Y-136879819D01*
X251110809Y-136879819D02*
X251015571Y-136927438D01*
X251015571Y-136927438D02*
X250967952Y-136975057D01*
X250967952Y-136975057D02*
X250920333Y-137070295D01*
X250920333Y-137070295D02*
X250920333Y-137165533D01*
X250920333Y-137165533D02*
X250967952Y-137308390D01*
X250967952Y-137308390D02*
X251539380Y-137879819D01*
X251539380Y-137879819D02*
X250920333Y-137879819D01*
D11*
X264537485Y-134279600D02*
X264400581Y-134327219D01*
X264400581Y-134327219D02*
X264162485Y-134327219D01*
X264162485Y-134327219D02*
X264061295Y-134279600D01*
X264061295Y-134279600D02*
X264007723Y-134231980D01*
X264007723Y-134231980D02*
X263948200Y-134136742D01*
X263948200Y-134136742D02*
X263936295Y-134041504D01*
X263936295Y-134041504D02*
X263972009Y-133946266D01*
X263972009Y-133946266D02*
X264013676Y-133898647D01*
X264013676Y-133898647D02*
X264102962Y-133851028D01*
X264102962Y-133851028D02*
X264287485Y-133803409D01*
X264287485Y-133803409D02*
X264376771Y-133755790D01*
X264376771Y-133755790D02*
X264418438Y-133708171D01*
X264418438Y-133708171D02*
X264454152Y-133612933D01*
X264454152Y-133612933D02*
X264442247Y-133517695D01*
X264442247Y-133517695D02*
X264382723Y-133422457D01*
X264382723Y-133422457D02*
X264329152Y-133374838D01*
X264329152Y-133374838D02*
X264227962Y-133327219D01*
X264227962Y-133327219D02*
X263989866Y-133327219D01*
X263989866Y-133327219D02*
X263852962Y-133374838D01*
X262960104Y-134231980D02*
X263013676Y-134279600D01*
X263013676Y-134279600D02*
X263162485Y-134327219D01*
X263162485Y-134327219D02*
X263257723Y-134327219D01*
X263257723Y-134327219D02*
X263394628Y-134279600D01*
X263394628Y-134279600D02*
X263477961Y-134184361D01*
X263477961Y-134184361D02*
X263513676Y-134089123D01*
X263513676Y-134089123D02*
X263537485Y-133898647D01*
X263537485Y-133898647D02*
X263519628Y-133755790D01*
X263519628Y-133755790D02*
X263448200Y-133565314D01*
X263448200Y-133565314D02*
X263388676Y-133470076D01*
X263388676Y-133470076D02*
X263281533Y-133374838D01*
X263281533Y-133374838D02*
X263132723Y-133327219D01*
X263132723Y-133327219D02*
X263037485Y-133327219D01*
X263037485Y-133327219D02*
X262900581Y-133374838D01*
X262900581Y-133374838D02*
X262858914Y-133422457D01*
X261972009Y-134327219D02*
X262245819Y-133851028D01*
X262543438Y-134327219D02*
X262418438Y-133327219D01*
X262418438Y-133327219D02*
X262037485Y-133327219D01*
X262037485Y-133327219D02*
X261948200Y-133374838D01*
X261948200Y-133374838D02*
X261906533Y-133422457D01*
X261906533Y-133422457D02*
X261870819Y-133517695D01*
X261870819Y-133517695D02*
X261888676Y-133660552D01*
X261888676Y-133660552D02*
X261948200Y-133755790D01*
X261948200Y-133755790D02*
X262001771Y-133803409D01*
X262001771Y-133803409D02*
X262102961Y-133851028D01*
X262102961Y-133851028D02*
X262483914Y-133851028D01*
X261477961Y-133803409D02*
X261144628Y-133803409D01*
X261067247Y-134327219D02*
X261543438Y-134327219D01*
X261543438Y-134327219D02*
X261418438Y-133327219D01*
X261418438Y-133327219D02*
X260942247Y-133327219D01*
X260573199Y-133803409D02*
X260239866Y-133803409D01*
X260162485Y-134327219D02*
X260638676Y-134327219D01*
X260638676Y-134327219D02*
X260513676Y-133327219D01*
X260513676Y-133327219D02*
X260037485Y-133327219D01*
X259733914Y-134327219D02*
X259608914Y-133327219D01*
X259608914Y-133327219D02*
X259162485Y-134327219D01*
X259162485Y-134327219D02*
X259037485Y-133327219D01*
D10*
X170892857Y-122204819D02*
X171226190Y-121728628D01*
X171464285Y-122204819D02*
X171464285Y-121204819D01*
X171464285Y-121204819D02*
X171083333Y-121204819D01*
X171083333Y-121204819D02*
X170988095Y-121252438D01*
X170988095Y-121252438D02*
X170940476Y-121300057D01*
X170940476Y-121300057D02*
X170892857Y-121395295D01*
X170892857Y-121395295D02*
X170892857Y-121538152D01*
X170892857Y-121538152D02*
X170940476Y-121633390D01*
X170940476Y-121633390D02*
X170988095Y-121681009D01*
X170988095Y-121681009D02*
X171083333Y-121728628D01*
X171083333Y-121728628D02*
X171464285Y-121728628D01*
X169940476Y-122204819D02*
X170511904Y-122204819D01*
X170226190Y-122204819D02*
X170226190Y-121204819D01*
X170226190Y-121204819D02*
X170321428Y-121347676D01*
X170321428Y-121347676D02*
X170416666Y-121442914D01*
X170416666Y-121442914D02*
X170511904Y-121490533D01*
X168988095Y-122204819D02*
X169559523Y-122204819D01*
X169273809Y-122204819D02*
X169273809Y-121204819D01*
X169273809Y-121204819D02*
X169369047Y-121347676D01*
X169369047Y-121347676D02*
X169464285Y-121442914D01*
X169464285Y-121442914D02*
X169559523Y-121490533D01*
X251920333Y-161517819D02*
X251920333Y-162232104D01*
X251920333Y-162232104D02*
X251967952Y-162374961D01*
X251967952Y-162374961D02*
X252063190Y-162470200D01*
X252063190Y-162470200D02*
X252206047Y-162517819D01*
X252206047Y-162517819D02*
X252301285Y-162517819D01*
X251539380Y-161517819D02*
X250920333Y-161517819D01*
X250920333Y-161517819D02*
X251253666Y-161898771D01*
X251253666Y-161898771D02*
X251110809Y-161898771D01*
X251110809Y-161898771D02*
X251015571Y-161946390D01*
X251015571Y-161946390D02*
X250967952Y-161994009D01*
X250967952Y-161994009D02*
X250920333Y-162089247D01*
X250920333Y-162089247D02*
X250920333Y-162327342D01*
X250920333Y-162327342D02*
X250967952Y-162422580D01*
X250967952Y-162422580D02*
X251015571Y-162470200D01*
X251015571Y-162470200D02*
X251110809Y-162517819D01*
X251110809Y-162517819D02*
X251396523Y-162517819D01*
X251396523Y-162517819D02*
X251491761Y-162470200D01*
X251491761Y-162470200D02*
X251539380Y-162422580D01*
D11*
X263989866Y-158900600D02*
X263852962Y-158948219D01*
X263852962Y-158948219D02*
X263614866Y-158948219D01*
X263614866Y-158948219D02*
X263513676Y-158900600D01*
X263513676Y-158900600D02*
X263460104Y-158852980D01*
X263460104Y-158852980D02*
X263400581Y-158757742D01*
X263400581Y-158757742D02*
X263388676Y-158662504D01*
X263388676Y-158662504D02*
X263424390Y-158567266D01*
X263424390Y-158567266D02*
X263466057Y-158519647D01*
X263466057Y-158519647D02*
X263555343Y-158472028D01*
X263555343Y-158472028D02*
X263739866Y-158424409D01*
X263739866Y-158424409D02*
X263829152Y-158376790D01*
X263829152Y-158376790D02*
X263870819Y-158329171D01*
X263870819Y-158329171D02*
X263906533Y-158233933D01*
X263906533Y-158233933D02*
X263894628Y-158138695D01*
X263894628Y-158138695D02*
X263835104Y-158043457D01*
X263835104Y-158043457D02*
X263781533Y-157995838D01*
X263781533Y-157995838D02*
X263680343Y-157948219D01*
X263680343Y-157948219D02*
X263442247Y-157948219D01*
X263442247Y-157948219D02*
X263305343Y-157995838D01*
X262995819Y-158948219D02*
X262870819Y-157948219D01*
X262870819Y-157948219D02*
X262489866Y-157948219D01*
X262489866Y-157948219D02*
X262400581Y-157995838D01*
X262400581Y-157995838D02*
X262358914Y-158043457D01*
X262358914Y-158043457D02*
X262323200Y-158138695D01*
X262323200Y-158138695D02*
X262341057Y-158281552D01*
X262341057Y-158281552D02*
X262400581Y-158376790D01*
X262400581Y-158376790D02*
X262454152Y-158424409D01*
X262454152Y-158424409D02*
X262555342Y-158472028D01*
X262555342Y-158472028D02*
X262936295Y-158472028D01*
X262007723Y-158662504D02*
X261531533Y-158662504D01*
X262138676Y-158948219D02*
X261680342Y-157948219D01*
X261680342Y-157948219D02*
X261472009Y-158948219D01*
X260567247Y-158948219D02*
X260841057Y-158472028D01*
X261138676Y-158948219D02*
X261013676Y-157948219D01*
X261013676Y-157948219D02*
X260632723Y-157948219D01*
X260632723Y-157948219D02*
X260543438Y-157995838D01*
X260543438Y-157995838D02*
X260501771Y-158043457D01*
X260501771Y-158043457D02*
X260466057Y-158138695D01*
X260466057Y-158138695D02*
X260483914Y-158281552D01*
X260483914Y-158281552D02*
X260543438Y-158376790D01*
X260543438Y-158376790D02*
X260597009Y-158424409D01*
X260597009Y-158424409D02*
X260698199Y-158472028D01*
X260698199Y-158472028D02*
X261079152Y-158472028D01*
X260073199Y-158424409D02*
X259739866Y-158424409D01*
X259662485Y-158948219D02*
X260138676Y-158948219D01*
X260138676Y-158948219D02*
X260013676Y-157948219D01*
X260013676Y-157948219D02*
X259537485Y-157948219D01*
D12*
X163576000Y-124235700D02*
X164592000Y-124235700D01*
X164084000Y-124743700D02*
X164084000Y-123727700D01*
X286766000Y-136554700D02*
X287782000Y-136554700D01*
X287274000Y-137062700D02*
X287274000Y-136046700D01*
X237490000Y-148844000D02*
X238506000Y-148844000D01*
X237998000Y-149352000D02*
X237998000Y-148336000D01*
X212852000Y-124206000D02*
X213868000Y-124206000D01*
X213360000Y-124714000D02*
X213360000Y-123698000D01*
X262128000Y-173511700D02*
X263144000Y-173511700D01*
X262636000Y-174019700D02*
X262636000Y-173003700D01*
X188214000Y-124206000D02*
X189230000Y-124206000D01*
X188722000Y-124714000D02*
X188722000Y-123698000D01*
X188214000Y-148844000D02*
X189230000Y-148844000D01*
X188722000Y-149352000D02*
X188722000Y-148336000D01*
X262128000Y-124235700D02*
X263144000Y-124235700D01*
X262636000Y-124743700D02*
X262636000Y-123727700D01*
X212852000Y-173482000D02*
X213868000Y-173482000D01*
X213360000Y-173990000D02*
X213360000Y-172974000D01*
X138938000Y-161163000D02*
X139954000Y-161163000D01*
X139446000Y-161671000D02*
X139446000Y-160655000D01*
X286766000Y-161163000D02*
X287782000Y-161163000D01*
X287274000Y-161671000D02*
X287274000Y-160655000D01*
X237490000Y-173511700D02*
X238506000Y-173511700D01*
X237998000Y-174019700D02*
X237998000Y-173003700D01*
X262128000Y-148873700D02*
X263144000Y-148873700D01*
X262636000Y-149381700D02*
X262636000Y-148365700D01*
X237490000Y-124206000D02*
X238506000Y-124206000D01*
X237998000Y-124714000D02*
X237998000Y-123698000D01*
X163576000Y-148844000D02*
X164592000Y-148844000D01*
X164084000Y-149352000D02*
X164084000Y-148336000D01*
X188214000Y-173511700D02*
X189230000Y-173511700D01*
X188722000Y-174019700D02*
X188722000Y-173003700D01*
X212852000Y-148844000D02*
X213868000Y-148844000D01*
X213360000Y-149352000D02*
X213360000Y-148336000D01*
X163576000Y-173482000D02*
X164592000Y-173482000D01*
X164084000Y-173990000D02*
X164084000Y-172974000D01*
X138938000Y-136525000D02*
X139954000Y-136525000D01*
X139446000Y-137033000D02*
X139446000Y-136017000D01*
X243438000Y-174971064D02*
X243438000Y-173516936D01*
X245258000Y-174971064D02*
X245258000Y-173516936D01*
X292587000Y-137887064D02*
X292587000Y-136432936D01*
X294407000Y-137887064D02*
X294407000Y-136432936D01*
X194035000Y-174844064D02*
X194035000Y-173389936D01*
X195855000Y-174844064D02*
X195855000Y-173389936D01*
X218673000Y-174844064D02*
X218673000Y-173389936D01*
X220493000Y-174844064D02*
X220493000Y-173389936D01*
X169397000Y-148751936D02*
X169397000Y-150206064D01*
X171217000Y-148751936D02*
X171217000Y-150206064D01*
X144886000Y-136559936D02*
X144886000Y-138014064D01*
X146706000Y-136559936D02*
X146706000Y-138014064D01*
X194162000Y-124240936D02*
X194162000Y-125695064D01*
X195982000Y-124240936D02*
X195982000Y-125695064D01*
X169397000Y-174844064D02*
X169397000Y-173389936D01*
X171217000Y-174844064D02*
X171217000Y-173389936D01*
X292587000Y-162525064D02*
X292587000Y-161070936D01*
X294407000Y-162525064D02*
X294407000Y-161070936D01*
X268076000Y-174971064D02*
X268076000Y-173516936D01*
X269896000Y-174971064D02*
X269896000Y-173516936D01*
X267949000Y-124113936D02*
X267949000Y-125568064D01*
X269769000Y-124113936D02*
X269769000Y-125568064D01*
X218673000Y-124240936D02*
X218673000Y-125695064D01*
X220493000Y-124240936D02*
X220493000Y-125695064D01*
X268076000Y-148878936D02*
X268076000Y-150333064D01*
X269896000Y-148878936D02*
X269896000Y-150333064D01*
X243311000Y-148751936D02*
X243311000Y-150206064D01*
X245131000Y-148751936D02*
X245131000Y-150206064D01*
X194035000Y-148751936D02*
X194035000Y-150206064D01*
X195855000Y-148751936D02*
X195855000Y-150206064D01*
X243311000Y-124113936D02*
X243311000Y-125568064D01*
X245131000Y-124113936D02*
X245131000Y-125568064D01*
X165113000Y-129984000D02*
X180233000Y-129984000D01*
X165113000Y-135954000D02*
X165113000Y-129984000D01*
X165123000Y-129994000D02*
X166923000Y-129994000D01*
X165123000Y-130744000D02*
X165123000Y-129994000D01*
X165123000Y-132244000D02*
X165873000Y-132244000D01*
X165873000Y-132244000D02*
X165873000Y-135194000D01*
X165873000Y-135194000D02*
X172673000Y-135194000D01*
X166923000Y-129994000D02*
X166923000Y-130744000D01*
X166923000Y-130744000D02*
X165123000Y-130744000D01*
X168423000Y-129994000D02*
X176923000Y-129994000D01*
X168423000Y-130744000D02*
X168423000Y-129994000D01*
X176923000Y-129994000D02*
X176923000Y-130744000D01*
X176923000Y-130744000D02*
X168423000Y-130744000D01*
X178423000Y-129994000D02*
X180223000Y-129994000D01*
X178423000Y-130744000D02*
X178423000Y-129994000D01*
X179273000Y-129694000D02*
X180523000Y-129694000D01*
X179473000Y-132244000D02*
X179473000Y-135194000D01*
X179473000Y-135194000D02*
X172673000Y-135194000D01*
X180223000Y-129994000D02*
X180223000Y-130744000D01*
X180223000Y-130744000D02*
X178423000Y-130744000D01*
X180223000Y-132244000D02*
X179473000Y-132244000D01*
X180233000Y-129984000D02*
X180233000Y-135954000D01*
X180233000Y-135954000D02*
X165113000Y-135954000D01*
X180523000Y-129694000D02*
X180523000Y-130944000D01*
X144759000Y-162525064D02*
X144759000Y-161070936D01*
X146579000Y-162525064D02*
X146579000Y-161070936D01*
X218673000Y-148751936D02*
X218673000Y-150206064D01*
X220493000Y-148751936D02*
X220493000Y-150206064D01*
X244987000Y-136625000D02*
X244987000Y-135375000D01*
X245277000Y-130365000D02*
X257897000Y-130365000D01*
X245277000Y-136335000D02*
X245277000Y-130365000D01*
X245287000Y-134075000D02*
X246037000Y-134075000D01*
X245287000Y-135575000D02*
X247087000Y-135575000D01*
X245287000Y-136325000D02*
X245287000Y-135575000D01*
X246037000Y-131125000D02*
X251587000Y-131125000D01*
X246037000Y-134075000D02*
X246037000Y-131125000D01*
X246237000Y-136625000D02*
X244987000Y-136625000D01*
X247087000Y-135575000D02*
X247087000Y-136325000D01*
X247087000Y-136325000D02*
X245287000Y-136325000D01*
X248587000Y-135575000D02*
X254587000Y-135575000D01*
X248587000Y-136325000D02*
X248587000Y-135575000D01*
X254587000Y-135575000D02*
X254587000Y-136325000D01*
X254587000Y-136325000D02*
X248587000Y-136325000D01*
X256087000Y-135575000D02*
X257887000Y-135575000D01*
X256087000Y-136325000D02*
X256087000Y-135575000D01*
X257137000Y-131125000D02*
X251587000Y-131125000D01*
X257137000Y-134075000D02*
X257137000Y-131125000D01*
X257887000Y-134075000D02*
X257137000Y-134075000D01*
X257887000Y-135575000D02*
X257887000Y-136325000D01*
X257887000Y-136325000D02*
X256087000Y-136325000D01*
X257897000Y-130365000D02*
X257897000Y-136335000D01*
X257897000Y-136335000D02*
X245277000Y-136335000D01*
X169397000Y-124113936D02*
X169397000Y-125568064D01*
X171217000Y-124113936D02*
X171217000Y-125568064D01*
X244987000Y-161263000D02*
X244987000Y-160013000D01*
X245277000Y-155003000D02*
X257897000Y-155003000D01*
X245277000Y-160973000D02*
X245277000Y-155003000D01*
X245287000Y-158713000D02*
X246037000Y-158713000D01*
X245287000Y-160213000D02*
X247087000Y-160213000D01*
X245287000Y-160963000D02*
X245287000Y-160213000D01*
X246037000Y-155763000D02*
X251587000Y-155763000D01*
X246037000Y-158713000D02*
X246037000Y-155763000D01*
X246237000Y-161263000D02*
X244987000Y-161263000D01*
X247087000Y-160213000D02*
X247087000Y-160963000D01*
X247087000Y-160963000D02*
X245287000Y-160963000D01*
X248587000Y-160213000D02*
X254587000Y-160213000D01*
X248587000Y-160963000D02*
X248587000Y-160213000D01*
X254587000Y-160213000D02*
X254587000Y-160963000D01*
X254587000Y-160963000D02*
X248587000Y-160963000D01*
X256087000Y-160213000D02*
X257887000Y-160213000D01*
X256087000Y-160963000D02*
X256087000Y-160213000D01*
X257137000Y-155763000D02*
X251587000Y-155763000D01*
X257137000Y-158713000D02*
X257137000Y-155763000D01*
X257887000Y-158713000D02*
X257137000Y-158713000D01*
X257887000Y-160213000D02*
X257887000Y-160963000D01*
X257887000Y-160963000D02*
X256087000Y-160963000D01*
X257897000Y-155003000D02*
X257897000Y-160973000D01*
X257897000Y-160973000D02*
X245277000Y-160973000D01*
%LPC*%
D13*
X166624000Y-126140700D03*
D14*
X164084000Y-126140700D03*
D13*
X289814000Y-138459700D03*
D14*
X287274000Y-138459700D03*
D15*
X239268000Y-145669000D03*
D16*
X241808000Y-140589000D03*
X235458000Y-143129000D03*
D15*
X140716000Y-157988000D03*
D16*
X143256000Y-152908000D03*
X136906000Y-155448000D03*
D13*
X240538000Y-150749000D03*
D14*
X237998000Y-150749000D03*
D15*
X140716000Y-133350000D03*
D16*
X143256000Y-128270000D03*
X136906000Y-130810000D03*
D15*
X214630000Y-121031000D03*
D16*
X217170000Y-115951000D03*
X210820000Y-118491000D03*
D13*
X215900000Y-126111000D03*
D14*
X213360000Y-126111000D03*
D15*
X165354000Y-145669000D03*
D16*
X167894000Y-140589000D03*
X161544000Y-143129000D03*
D13*
X265176000Y-175416700D03*
D14*
X262636000Y-175416700D03*
D13*
X191262000Y-126111000D03*
D14*
X188722000Y-126111000D03*
D13*
X191262000Y-150749000D03*
D14*
X188722000Y-150749000D03*
D13*
X265176000Y-126140700D03*
D14*
X262636000Y-126140700D03*
D15*
X263906000Y-145669000D03*
D16*
X266446000Y-140589000D03*
X260096000Y-143129000D03*
D15*
X189992000Y-145669000D03*
D16*
X192532000Y-140589000D03*
X186182000Y-143129000D03*
D15*
X263906000Y-121031000D03*
D16*
X266446000Y-115951000D03*
X260096000Y-118491000D03*
D13*
X215900000Y-175387000D03*
D14*
X213360000Y-175387000D03*
D15*
X263906000Y-170307000D03*
D16*
X266446000Y-165227000D03*
X260096000Y-167767000D03*
D15*
X214630000Y-145669000D03*
D16*
X217170000Y-140589000D03*
X210820000Y-143129000D03*
D13*
X141986000Y-163068000D03*
D14*
X139446000Y-163068000D03*
D15*
X239268000Y-121031000D03*
D16*
X241808000Y-115951000D03*
X235458000Y-118491000D03*
D13*
X289814000Y-163068000D03*
D14*
X287274000Y-163068000D03*
D15*
X214630000Y-170307000D03*
D16*
X217170000Y-165227000D03*
X210820000Y-167767000D03*
D15*
X189992000Y-121031000D03*
D16*
X192532000Y-115951000D03*
X186182000Y-118491000D03*
D13*
X240538000Y-175416700D03*
D14*
X237998000Y-175416700D03*
D13*
X265176000Y-150778700D03*
D14*
X262636000Y-150778700D03*
D13*
X240538000Y-126111000D03*
D14*
X237998000Y-126111000D03*
D13*
X166624000Y-150749000D03*
D14*
X164084000Y-150749000D03*
D13*
X191262000Y-175416700D03*
D14*
X188722000Y-175416700D03*
D15*
X189992000Y-170307000D03*
D16*
X192532000Y-165227000D03*
X186182000Y-167767000D03*
D15*
X288544000Y-157988000D03*
D16*
X291084000Y-152908000D03*
X284734000Y-155448000D03*
D15*
X165354000Y-121031000D03*
D16*
X167894000Y-115951000D03*
X161544000Y-118491000D03*
D13*
X215900000Y-150749000D03*
D14*
X213360000Y-150749000D03*
D15*
X165354000Y-170307000D03*
D16*
X167894000Y-165227000D03*
X161544000Y-167767000D03*
D13*
X166624000Y-175387000D03*
D14*
X164084000Y-175387000D03*
D13*
X141986000Y-138430000D03*
D14*
X139446000Y-138430000D03*
D15*
X288544000Y-133350000D03*
D16*
X291084000Y-128270000D03*
X284734000Y-130810000D03*
D15*
X239268000Y-170307000D03*
D16*
X241808000Y-165227000D03*
X235458000Y-167767000D03*
D17*
X244348000Y-172781500D03*
X244348000Y-175706500D03*
X293497000Y-135697500D03*
X293497000Y-138622500D03*
X194945000Y-172654500D03*
X194945000Y-175579500D03*
X219583000Y-172654500D03*
X219583000Y-175579500D03*
D18*
X170307000Y-150941500D03*
X170307000Y-148016500D03*
X145796000Y-138749500D03*
X145796000Y-135824500D03*
X195072000Y-126430500D03*
X195072000Y-123505500D03*
D19*
X199390000Y-138049000D03*
X224790000Y-138049000D03*
X204470000Y-138049000D03*
X207010000Y-138049000D03*
X209550000Y-138049000D03*
X212090000Y-138049000D03*
X214630000Y-138049000D03*
X217170000Y-138049000D03*
X219710000Y-138049000D03*
X222250000Y-138049000D03*
X201930000Y-138049000D03*
X229870000Y-153289000D03*
X232410000Y-153289000D03*
X222250000Y-153289000D03*
X219710000Y-153289000D03*
X217170000Y-153289000D03*
X214630000Y-153289000D03*
X212090000Y-153289000D03*
X209550000Y-153289000D03*
X207010000Y-153289000D03*
X204470000Y-153289000D03*
X201930000Y-153289000D03*
X199390000Y-153289000D03*
X196850000Y-153289000D03*
X196850000Y-138049000D03*
D20*
X224790000Y-153289000D03*
X229870000Y-138049000D03*
D19*
X227330000Y-153289000D03*
X227330000Y-138049000D03*
X232410000Y-138049000D03*
D17*
X170307000Y-172654500D03*
X170307000Y-175579500D03*
X293497000Y-160335500D03*
X293497000Y-163260500D03*
X268986000Y-172781500D03*
X268986000Y-175706500D03*
D18*
X268859000Y-126303500D03*
X268859000Y-123378500D03*
X219583000Y-126430500D03*
X219583000Y-123505500D03*
X268986000Y-151068500D03*
X268986000Y-148143500D03*
X244221000Y-150941500D03*
X244221000Y-148016500D03*
X194945000Y-150941500D03*
X194945000Y-148016500D03*
X244221000Y-126303500D03*
X244221000Y-123378500D03*
D21*
X177673000Y-132444000D03*
D22*
X175173000Y-132444000D03*
X172673000Y-132444000D03*
X170173000Y-132444000D03*
X167673000Y-132444000D03*
D17*
X145669000Y-160335500D03*
X145669000Y-163260500D03*
D18*
X219583000Y-150941500D03*
X219583000Y-148016500D03*
D23*
X247837000Y-133875000D03*
D22*
X250337000Y-133875000D03*
X252837000Y-133875000D03*
X255337000Y-133875000D03*
D18*
X170307000Y-126303500D03*
X170307000Y-123378500D03*
D23*
X247837000Y-158513000D03*
D22*
X250337000Y-158513000D03*
X252837000Y-158513000D03*
X255337000Y-158513000D03*
%LPD*%
M02*
