G04 #@! TF.GenerationSoftware,KiCad,Pcbnew,7.0.10*
G04 #@! TF.CreationDate,2024-03-07T18:12:12-05:00*
G04 #@! TF.ProjectId,Main_board,4d61696e-5f62-46f6-9172-642e6b696361,1.0.2*
G04 #@! TF.SameCoordinates,Original*
G04 #@! TF.FileFunction,Legend,Top*
G04 #@! TF.FilePolarity,Positive*
%FSLAX46Y46*%
G04 Gerber Fmt 4.6, Leading zero omitted, Abs format (unit mm)*
G04 Created by KiCad (PCBNEW 7.0.10) date 2024-03-07 18:12:12*
%MOMM*%
%LPD*%
G01*
G04 APERTURE LIST*
G04 Aperture macros list*
%AMRoundRect*
0 Rectangle with rounded corners*
0 $1 Rounding radius*
0 $2 $3 $4 $5 $6 $7 $8 $9 X,Y pos of 4 corners*
0 Add a 4 corners polygon primitive as box body*
4,1,4,$2,$3,$4,$5,$6,$7,$8,$9,$2,$3,0*
0 Add four circle primitives for the rounded corners*
1,1,$1+$1,$2,$3*
1,1,$1+$1,$4,$5*
1,1,$1+$1,$6,$7*
1,1,$1+$1,$8,$9*
0 Add four rect primitives between the rounded corners*
20,1,$1+$1,$2,$3,$4,$5,0*
20,1,$1+$1,$4,$5,$6,$7,0*
20,1,$1+$1,$6,$7,$8,$9,0*
20,1,$1+$1,$8,$9,$2,$3,0*%
G04 Aperture macros list end*
%ADD10C,0.150000*%
%ADD11C,0.120000*%
%ADD12C,4.000000*%
%ADD13C,2.200000*%
%ADD14RoundRect,0.250000X0.312500X0.625000X-0.312500X0.625000X-0.312500X-0.625000X0.312500X-0.625000X0*%
%ADD15C,1.727200*%
%ADD16R,1.727200X1.727200*%
%ADD17RoundRect,0.250000X0.600000X0.725000X-0.600000X0.725000X-0.600000X-0.725000X0.600000X-0.725000X0*%
%ADD18O,1.700000X1.950000*%
G04 APERTURE END LIST*
D10*
X237458476Y-138202200D02*
X237601333Y-138249819D01*
X237601333Y-138249819D02*
X237839428Y-138249819D01*
X237839428Y-138249819D02*
X237934666Y-138202200D01*
X237934666Y-138202200D02*
X237982285Y-138154580D01*
X237982285Y-138154580D02*
X238029904Y-138059342D01*
X238029904Y-138059342D02*
X238029904Y-137964104D01*
X238029904Y-137964104D02*
X237982285Y-137868866D01*
X237982285Y-137868866D02*
X237934666Y-137821247D01*
X237934666Y-137821247D02*
X237839428Y-137773628D01*
X237839428Y-137773628D02*
X237648952Y-137726009D01*
X237648952Y-137726009D02*
X237553714Y-137678390D01*
X237553714Y-137678390D02*
X237506095Y-137630771D01*
X237506095Y-137630771D02*
X237458476Y-137535533D01*
X237458476Y-137535533D02*
X237458476Y-137440295D01*
X237458476Y-137440295D02*
X237506095Y-137345057D01*
X237506095Y-137345057D02*
X237553714Y-137297438D01*
X237553714Y-137297438D02*
X237648952Y-137249819D01*
X237648952Y-137249819D02*
X237887047Y-137249819D01*
X237887047Y-137249819D02*
X238029904Y-137297438D01*
X238363238Y-137249819D02*
X238601333Y-138249819D01*
X238601333Y-138249819D02*
X238791809Y-137535533D01*
X238791809Y-137535533D02*
X238982285Y-138249819D01*
X238982285Y-138249819D02*
X239220381Y-137249819D01*
X240125142Y-138249819D02*
X239553714Y-138249819D01*
X239839428Y-138249819D02*
X239839428Y-137249819D01*
X239839428Y-137249819D02*
X239744190Y-137392676D01*
X239744190Y-137392676D02*
X239648952Y-137487914D01*
X239648952Y-137487914D02*
X239553714Y-137535533D01*
X240458476Y-137249819D02*
X241077523Y-137249819D01*
X241077523Y-137249819D02*
X240744190Y-137630771D01*
X240744190Y-137630771D02*
X240887047Y-137630771D01*
X240887047Y-137630771D02*
X240982285Y-137678390D01*
X240982285Y-137678390D02*
X241029904Y-137726009D01*
X241029904Y-137726009D02*
X241077523Y-137821247D01*
X241077523Y-137821247D02*
X241077523Y-138059342D01*
X241077523Y-138059342D02*
X241029904Y-138154580D01*
X241029904Y-138154580D02*
X240982285Y-138202200D01*
X240982285Y-138202200D02*
X240887047Y-138249819D01*
X240887047Y-138249819D02*
X240601333Y-138249819D01*
X240601333Y-138249819D02*
X240506095Y-138202200D01*
X240506095Y-138202200D02*
X240458476Y-138154580D01*
X165187333Y-160008819D02*
X164854000Y-159532628D01*
X164615905Y-160008819D02*
X164615905Y-159008819D01*
X164615905Y-159008819D02*
X164996857Y-159008819D01*
X164996857Y-159008819D02*
X165092095Y-159056438D01*
X165092095Y-159056438D02*
X165139714Y-159104057D01*
X165139714Y-159104057D02*
X165187333Y-159199295D01*
X165187333Y-159199295D02*
X165187333Y-159342152D01*
X165187333Y-159342152D02*
X165139714Y-159437390D01*
X165139714Y-159437390D02*
X165092095Y-159485009D01*
X165092095Y-159485009D02*
X164996857Y-159532628D01*
X164996857Y-159532628D02*
X164615905Y-159532628D01*
X166139714Y-160008819D02*
X165568286Y-160008819D01*
X165854000Y-160008819D02*
X165854000Y-159008819D01*
X165854000Y-159008819D02*
X165758762Y-159151676D01*
X165758762Y-159151676D02*
X165663524Y-159246914D01*
X165663524Y-159246914D02*
X165568286Y-159294533D01*
X139382667Y-150521200D02*
X139525524Y-150568819D01*
X139525524Y-150568819D02*
X139763619Y-150568819D01*
X139763619Y-150568819D02*
X139858857Y-150521200D01*
X139858857Y-150521200D02*
X139906476Y-150473580D01*
X139906476Y-150473580D02*
X139954095Y-150378342D01*
X139954095Y-150378342D02*
X139954095Y-150283104D01*
X139954095Y-150283104D02*
X139906476Y-150187866D01*
X139906476Y-150187866D02*
X139858857Y-150140247D01*
X139858857Y-150140247D02*
X139763619Y-150092628D01*
X139763619Y-150092628D02*
X139573143Y-150045009D01*
X139573143Y-150045009D02*
X139477905Y-149997390D01*
X139477905Y-149997390D02*
X139430286Y-149949771D01*
X139430286Y-149949771D02*
X139382667Y-149854533D01*
X139382667Y-149854533D02*
X139382667Y-149759295D01*
X139382667Y-149759295D02*
X139430286Y-149664057D01*
X139430286Y-149664057D02*
X139477905Y-149616438D01*
X139477905Y-149616438D02*
X139573143Y-149568819D01*
X139573143Y-149568819D02*
X139811238Y-149568819D01*
X139811238Y-149568819D02*
X139954095Y-149616438D01*
X140287429Y-149568819D02*
X140525524Y-150568819D01*
X140525524Y-150568819D02*
X140716000Y-149854533D01*
X140716000Y-149854533D02*
X140906476Y-150568819D01*
X140906476Y-150568819D02*
X141144572Y-149568819D01*
X141477905Y-149664057D02*
X141525524Y-149616438D01*
X141525524Y-149616438D02*
X141620762Y-149568819D01*
X141620762Y-149568819D02*
X141858857Y-149568819D01*
X141858857Y-149568819D02*
X141954095Y-149616438D01*
X141954095Y-149616438D02*
X142001714Y-149664057D01*
X142001714Y-149664057D02*
X142049333Y-149759295D01*
X142049333Y-149759295D02*
X142049333Y-149854533D01*
X142049333Y-149854533D02*
X142001714Y-149997390D01*
X142001714Y-149997390D02*
X141430286Y-150568819D01*
X141430286Y-150568819D02*
X142049333Y-150568819D01*
X214463333Y-160008819D02*
X214130000Y-159532628D01*
X213891905Y-160008819D02*
X213891905Y-159008819D01*
X213891905Y-159008819D02*
X214272857Y-159008819D01*
X214272857Y-159008819D02*
X214368095Y-159056438D01*
X214368095Y-159056438D02*
X214415714Y-159104057D01*
X214415714Y-159104057D02*
X214463333Y-159199295D01*
X214463333Y-159199295D02*
X214463333Y-159342152D01*
X214463333Y-159342152D02*
X214415714Y-159437390D01*
X214415714Y-159437390D02*
X214368095Y-159485009D01*
X214368095Y-159485009D02*
X214272857Y-159532628D01*
X214272857Y-159532628D02*
X213891905Y-159532628D01*
X214796667Y-159008819D02*
X215415714Y-159008819D01*
X215415714Y-159008819D02*
X215082381Y-159389771D01*
X215082381Y-159389771D02*
X215225238Y-159389771D01*
X215225238Y-159389771D02*
X215320476Y-159437390D01*
X215320476Y-159437390D02*
X215368095Y-159485009D01*
X215368095Y-159485009D02*
X215415714Y-159580247D01*
X215415714Y-159580247D02*
X215415714Y-159818342D01*
X215415714Y-159818342D02*
X215368095Y-159913580D01*
X215368095Y-159913580D02*
X215320476Y-159961200D01*
X215320476Y-159961200D02*
X215225238Y-160008819D01*
X215225238Y-160008819D02*
X214939524Y-160008819D01*
X214939524Y-160008819D02*
X214844286Y-159961200D01*
X214844286Y-159961200D02*
X214796667Y-159913580D01*
X263739333Y-160008819D02*
X263406000Y-159532628D01*
X263167905Y-160008819D02*
X263167905Y-159008819D01*
X263167905Y-159008819D02*
X263548857Y-159008819D01*
X263548857Y-159008819D02*
X263644095Y-159056438D01*
X263644095Y-159056438D02*
X263691714Y-159104057D01*
X263691714Y-159104057D02*
X263739333Y-159199295D01*
X263739333Y-159199295D02*
X263739333Y-159342152D01*
X263739333Y-159342152D02*
X263691714Y-159437390D01*
X263691714Y-159437390D02*
X263644095Y-159485009D01*
X263644095Y-159485009D02*
X263548857Y-159532628D01*
X263548857Y-159532628D02*
X263167905Y-159532628D01*
X264644095Y-159008819D02*
X264167905Y-159008819D01*
X264167905Y-159008819D02*
X264120286Y-159485009D01*
X264120286Y-159485009D02*
X264167905Y-159437390D01*
X264167905Y-159437390D02*
X264263143Y-159389771D01*
X264263143Y-159389771D02*
X264501238Y-159389771D01*
X264501238Y-159389771D02*
X264596476Y-159437390D01*
X264596476Y-159437390D02*
X264644095Y-159485009D01*
X264644095Y-159485009D02*
X264691714Y-159580247D01*
X264691714Y-159580247D02*
X264691714Y-159818342D01*
X264691714Y-159818342D02*
X264644095Y-159913580D01*
X264644095Y-159913580D02*
X264596476Y-159961200D01*
X264596476Y-159961200D02*
X264501238Y-160008819D01*
X264501238Y-160008819D02*
X264263143Y-160008819D01*
X264263143Y-160008819D02*
X264167905Y-159961200D01*
X264167905Y-159961200D02*
X264120286Y-159913580D01*
X139382667Y-125883200D02*
X139525524Y-125930819D01*
X139525524Y-125930819D02*
X139763619Y-125930819D01*
X139763619Y-125930819D02*
X139858857Y-125883200D01*
X139858857Y-125883200D02*
X139906476Y-125835580D01*
X139906476Y-125835580D02*
X139954095Y-125740342D01*
X139954095Y-125740342D02*
X139954095Y-125645104D01*
X139954095Y-125645104D02*
X139906476Y-125549866D01*
X139906476Y-125549866D02*
X139858857Y-125502247D01*
X139858857Y-125502247D02*
X139763619Y-125454628D01*
X139763619Y-125454628D02*
X139573143Y-125407009D01*
X139573143Y-125407009D02*
X139477905Y-125359390D01*
X139477905Y-125359390D02*
X139430286Y-125311771D01*
X139430286Y-125311771D02*
X139382667Y-125216533D01*
X139382667Y-125216533D02*
X139382667Y-125121295D01*
X139382667Y-125121295D02*
X139430286Y-125026057D01*
X139430286Y-125026057D02*
X139477905Y-124978438D01*
X139477905Y-124978438D02*
X139573143Y-124930819D01*
X139573143Y-124930819D02*
X139811238Y-124930819D01*
X139811238Y-124930819D02*
X139954095Y-124978438D01*
X140287429Y-124930819D02*
X140525524Y-125930819D01*
X140525524Y-125930819D02*
X140716000Y-125216533D01*
X140716000Y-125216533D02*
X140906476Y-125930819D01*
X140906476Y-125930819D02*
X141144572Y-124930819D01*
X142049333Y-125930819D02*
X141477905Y-125930819D01*
X141763619Y-125930819D02*
X141763619Y-124930819D01*
X141763619Y-124930819D02*
X141668381Y-125073676D01*
X141668381Y-125073676D02*
X141573143Y-125168914D01*
X141573143Y-125168914D02*
X141477905Y-125216533D01*
X213296667Y-113564200D02*
X213439524Y-113611819D01*
X213439524Y-113611819D02*
X213677619Y-113611819D01*
X213677619Y-113611819D02*
X213772857Y-113564200D01*
X213772857Y-113564200D02*
X213820476Y-113516580D01*
X213820476Y-113516580D02*
X213868095Y-113421342D01*
X213868095Y-113421342D02*
X213868095Y-113326104D01*
X213868095Y-113326104D02*
X213820476Y-113230866D01*
X213820476Y-113230866D02*
X213772857Y-113183247D01*
X213772857Y-113183247D02*
X213677619Y-113135628D01*
X213677619Y-113135628D02*
X213487143Y-113088009D01*
X213487143Y-113088009D02*
X213391905Y-113040390D01*
X213391905Y-113040390D02*
X213344286Y-112992771D01*
X213344286Y-112992771D02*
X213296667Y-112897533D01*
X213296667Y-112897533D02*
X213296667Y-112802295D01*
X213296667Y-112802295D02*
X213344286Y-112707057D01*
X213344286Y-112707057D02*
X213391905Y-112659438D01*
X213391905Y-112659438D02*
X213487143Y-112611819D01*
X213487143Y-112611819D02*
X213725238Y-112611819D01*
X213725238Y-112611819D02*
X213868095Y-112659438D01*
X214201429Y-112611819D02*
X214439524Y-113611819D01*
X214439524Y-113611819D02*
X214630000Y-112897533D01*
X214630000Y-112897533D02*
X214820476Y-113611819D01*
X214820476Y-113611819D02*
X215058572Y-112611819D01*
X215487143Y-113611819D02*
X215677619Y-113611819D01*
X215677619Y-113611819D02*
X215772857Y-113564200D01*
X215772857Y-113564200D02*
X215820476Y-113516580D01*
X215820476Y-113516580D02*
X215915714Y-113373723D01*
X215915714Y-113373723D02*
X215963333Y-113183247D01*
X215963333Y-113183247D02*
X215963333Y-112802295D01*
X215963333Y-112802295D02*
X215915714Y-112707057D01*
X215915714Y-112707057D02*
X215868095Y-112659438D01*
X215868095Y-112659438D02*
X215772857Y-112611819D01*
X215772857Y-112611819D02*
X215582381Y-112611819D01*
X215582381Y-112611819D02*
X215487143Y-112659438D01*
X215487143Y-112659438D02*
X215439524Y-112707057D01*
X215439524Y-112707057D02*
X215391905Y-112802295D01*
X215391905Y-112802295D02*
X215391905Y-113040390D01*
X215391905Y-113040390D02*
X215439524Y-113135628D01*
X215439524Y-113135628D02*
X215487143Y-113183247D01*
X215487143Y-113183247D02*
X215582381Y-113230866D01*
X215582381Y-113230866D02*
X215772857Y-113230866D01*
X215772857Y-113230866D02*
X215868095Y-113183247D01*
X215868095Y-113183247D02*
X215915714Y-113135628D01*
X215915714Y-113135628D02*
X215963333Y-113040390D01*
X164020667Y-138202200D02*
X164163524Y-138249819D01*
X164163524Y-138249819D02*
X164401619Y-138249819D01*
X164401619Y-138249819D02*
X164496857Y-138202200D01*
X164496857Y-138202200D02*
X164544476Y-138154580D01*
X164544476Y-138154580D02*
X164592095Y-138059342D01*
X164592095Y-138059342D02*
X164592095Y-137964104D01*
X164592095Y-137964104D02*
X164544476Y-137868866D01*
X164544476Y-137868866D02*
X164496857Y-137821247D01*
X164496857Y-137821247D02*
X164401619Y-137773628D01*
X164401619Y-137773628D02*
X164211143Y-137726009D01*
X164211143Y-137726009D02*
X164115905Y-137678390D01*
X164115905Y-137678390D02*
X164068286Y-137630771D01*
X164068286Y-137630771D02*
X164020667Y-137535533D01*
X164020667Y-137535533D02*
X164020667Y-137440295D01*
X164020667Y-137440295D02*
X164068286Y-137345057D01*
X164068286Y-137345057D02*
X164115905Y-137297438D01*
X164115905Y-137297438D02*
X164211143Y-137249819D01*
X164211143Y-137249819D02*
X164449238Y-137249819D01*
X164449238Y-137249819D02*
X164592095Y-137297438D01*
X164925429Y-137249819D02*
X165163524Y-138249819D01*
X165163524Y-138249819D02*
X165354000Y-137535533D01*
X165354000Y-137535533D02*
X165544476Y-138249819D01*
X165544476Y-138249819D02*
X165782572Y-137249819D01*
X166592095Y-137583152D02*
X166592095Y-138249819D01*
X166354000Y-137202200D02*
X166115905Y-137916485D01*
X166115905Y-137916485D02*
X166734952Y-137916485D01*
X262096476Y-138202200D02*
X262239333Y-138249819D01*
X262239333Y-138249819D02*
X262477428Y-138249819D01*
X262477428Y-138249819D02*
X262572666Y-138202200D01*
X262572666Y-138202200D02*
X262620285Y-138154580D01*
X262620285Y-138154580D02*
X262667904Y-138059342D01*
X262667904Y-138059342D02*
X262667904Y-137964104D01*
X262667904Y-137964104D02*
X262620285Y-137868866D01*
X262620285Y-137868866D02*
X262572666Y-137821247D01*
X262572666Y-137821247D02*
X262477428Y-137773628D01*
X262477428Y-137773628D02*
X262286952Y-137726009D01*
X262286952Y-137726009D02*
X262191714Y-137678390D01*
X262191714Y-137678390D02*
X262144095Y-137630771D01*
X262144095Y-137630771D02*
X262096476Y-137535533D01*
X262096476Y-137535533D02*
X262096476Y-137440295D01*
X262096476Y-137440295D02*
X262144095Y-137345057D01*
X262144095Y-137345057D02*
X262191714Y-137297438D01*
X262191714Y-137297438D02*
X262286952Y-137249819D01*
X262286952Y-137249819D02*
X262525047Y-137249819D01*
X262525047Y-137249819D02*
X262667904Y-137297438D01*
X263001238Y-137249819D02*
X263239333Y-138249819D01*
X263239333Y-138249819D02*
X263429809Y-137535533D01*
X263429809Y-137535533D02*
X263620285Y-138249819D01*
X263620285Y-138249819D02*
X263858381Y-137249819D01*
X264763142Y-138249819D02*
X264191714Y-138249819D01*
X264477428Y-138249819D02*
X264477428Y-137249819D01*
X264477428Y-137249819D02*
X264382190Y-137392676D01*
X264382190Y-137392676D02*
X264286952Y-137487914D01*
X264286952Y-137487914D02*
X264191714Y-137535533D01*
X265620285Y-137249819D02*
X265429809Y-137249819D01*
X265429809Y-137249819D02*
X265334571Y-137297438D01*
X265334571Y-137297438D02*
X265286952Y-137345057D01*
X265286952Y-137345057D02*
X265191714Y-137487914D01*
X265191714Y-137487914D02*
X265144095Y-137678390D01*
X265144095Y-137678390D02*
X265144095Y-138059342D01*
X265144095Y-138059342D02*
X265191714Y-138154580D01*
X265191714Y-138154580D02*
X265239333Y-138202200D01*
X265239333Y-138202200D02*
X265334571Y-138249819D01*
X265334571Y-138249819D02*
X265525047Y-138249819D01*
X265525047Y-138249819D02*
X265620285Y-138202200D01*
X265620285Y-138202200D02*
X265667904Y-138154580D01*
X265667904Y-138154580D02*
X265715523Y-138059342D01*
X265715523Y-138059342D02*
X265715523Y-137821247D01*
X265715523Y-137821247D02*
X265667904Y-137726009D01*
X265667904Y-137726009D02*
X265620285Y-137678390D01*
X265620285Y-137678390D02*
X265525047Y-137630771D01*
X265525047Y-137630771D02*
X265334571Y-137630771D01*
X265334571Y-137630771D02*
X265239333Y-137678390D01*
X265239333Y-137678390D02*
X265191714Y-137726009D01*
X265191714Y-137726009D02*
X265144095Y-137821247D01*
X188658667Y-138202200D02*
X188801524Y-138249819D01*
X188801524Y-138249819D02*
X189039619Y-138249819D01*
X189039619Y-138249819D02*
X189134857Y-138202200D01*
X189134857Y-138202200D02*
X189182476Y-138154580D01*
X189182476Y-138154580D02*
X189230095Y-138059342D01*
X189230095Y-138059342D02*
X189230095Y-137964104D01*
X189230095Y-137964104D02*
X189182476Y-137868866D01*
X189182476Y-137868866D02*
X189134857Y-137821247D01*
X189134857Y-137821247D02*
X189039619Y-137773628D01*
X189039619Y-137773628D02*
X188849143Y-137726009D01*
X188849143Y-137726009D02*
X188753905Y-137678390D01*
X188753905Y-137678390D02*
X188706286Y-137630771D01*
X188706286Y-137630771D02*
X188658667Y-137535533D01*
X188658667Y-137535533D02*
X188658667Y-137440295D01*
X188658667Y-137440295D02*
X188706286Y-137345057D01*
X188706286Y-137345057D02*
X188753905Y-137297438D01*
X188753905Y-137297438D02*
X188849143Y-137249819D01*
X188849143Y-137249819D02*
X189087238Y-137249819D01*
X189087238Y-137249819D02*
X189230095Y-137297438D01*
X189563429Y-137249819D02*
X189801524Y-138249819D01*
X189801524Y-138249819D02*
X189992000Y-137535533D01*
X189992000Y-137535533D02*
X190182476Y-138249819D01*
X190182476Y-138249819D02*
X190420572Y-137249819D01*
X190706286Y-137249819D02*
X191372952Y-137249819D01*
X191372952Y-137249819D02*
X190944381Y-138249819D01*
X262096476Y-113564200D02*
X262239333Y-113611819D01*
X262239333Y-113611819D02*
X262477428Y-113611819D01*
X262477428Y-113611819D02*
X262572666Y-113564200D01*
X262572666Y-113564200D02*
X262620285Y-113516580D01*
X262620285Y-113516580D02*
X262667904Y-113421342D01*
X262667904Y-113421342D02*
X262667904Y-113326104D01*
X262667904Y-113326104D02*
X262620285Y-113230866D01*
X262620285Y-113230866D02*
X262572666Y-113183247D01*
X262572666Y-113183247D02*
X262477428Y-113135628D01*
X262477428Y-113135628D02*
X262286952Y-113088009D01*
X262286952Y-113088009D02*
X262191714Y-113040390D01*
X262191714Y-113040390D02*
X262144095Y-112992771D01*
X262144095Y-112992771D02*
X262096476Y-112897533D01*
X262096476Y-112897533D02*
X262096476Y-112802295D01*
X262096476Y-112802295D02*
X262144095Y-112707057D01*
X262144095Y-112707057D02*
X262191714Y-112659438D01*
X262191714Y-112659438D02*
X262286952Y-112611819D01*
X262286952Y-112611819D02*
X262525047Y-112611819D01*
X262525047Y-112611819D02*
X262667904Y-112659438D01*
X263001238Y-112611819D02*
X263239333Y-113611819D01*
X263239333Y-113611819D02*
X263429809Y-112897533D01*
X263429809Y-112897533D02*
X263620285Y-113611819D01*
X263620285Y-113611819D02*
X263858381Y-112611819D01*
X264763142Y-113611819D02*
X264191714Y-113611819D01*
X264477428Y-113611819D02*
X264477428Y-112611819D01*
X264477428Y-112611819D02*
X264382190Y-112754676D01*
X264382190Y-112754676D02*
X264286952Y-112849914D01*
X264286952Y-112849914D02*
X264191714Y-112897533D01*
X265667904Y-112611819D02*
X265191714Y-112611819D01*
X265191714Y-112611819D02*
X265144095Y-113088009D01*
X265144095Y-113088009D02*
X265191714Y-113040390D01*
X265191714Y-113040390D02*
X265286952Y-112992771D01*
X265286952Y-112992771D02*
X265525047Y-112992771D01*
X265525047Y-112992771D02*
X265620285Y-113040390D01*
X265620285Y-113040390D02*
X265667904Y-113088009D01*
X265667904Y-113088009D02*
X265715523Y-113183247D01*
X265715523Y-113183247D02*
X265715523Y-113421342D01*
X265715523Y-113421342D02*
X265667904Y-113516580D01*
X265667904Y-113516580D02*
X265620285Y-113564200D01*
X265620285Y-113564200D02*
X265525047Y-113611819D01*
X265525047Y-113611819D02*
X265286952Y-113611819D01*
X265286952Y-113611819D02*
X265191714Y-113564200D01*
X265191714Y-113564200D02*
X265144095Y-113516580D01*
X262096476Y-162840200D02*
X262239333Y-162887819D01*
X262239333Y-162887819D02*
X262477428Y-162887819D01*
X262477428Y-162887819D02*
X262572666Y-162840200D01*
X262572666Y-162840200D02*
X262620285Y-162792580D01*
X262620285Y-162792580D02*
X262667904Y-162697342D01*
X262667904Y-162697342D02*
X262667904Y-162602104D01*
X262667904Y-162602104D02*
X262620285Y-162506866D01*
X262620285Y-162506866D02*
X262572666Y-162459247D01*
X262572666Y-162459247D02*
X262477428Y-162411628D01*
X262477428Y-162411628D02*
X262286952Y-162364009D01*
X262286952Y-162364009D02*
X262191714Y-162316390D01*
X262191714Y-162316390D02*
X262144095Y-162268771D01*
X262144095Y-162268771D02*
X262096476Y-162173533D01*
X262096476Y-162173533D02*
X262096476Y-162078295D01*
X262096476Y-162078295D02*
X262144095Y-161983057D01*
X262144095Y-161983057D02*
X262191714Y-161935438D01*
X262191714Y-161935438D02*
X262286952Y-161887819D01*
X262286952Y-161887819D02*
X262525047Y-161887819D01*
X262525047Y-161887819D02*
X262667904Y-161935438D01*
X263001238Y-161887819D02*
X263239333Y-162887819D01*
X263239333Y-162887819D02*
X263429809Y-162173533D01*
X263429809Y-162173533D02*
X263620285Y-162887819D01*
X263620285Y-162887819D02*
X263858381Y-161887819D01*
X264763142Y-162887819D02*
X264191714Y-162887819D01*
X264477428Y-162887819D02*
X264477428Y-161887819D01*
X264477428Y-161887819D02*
X264382190Y-162030676D01*
X264382190Y-162030676D02*
X264286952Y-162125914D01*
X264286952Y-162125914D02*
X264191714Y-162173533D01*
X265096476Y-161887819D02*
X265763142Y-161887819D01*
X265763142Y-161887819D02*
X265334571Y-162887819D01*
X212820476Y-135535200D02*
X212963333Y-135582819D01*
X212963333Y-135582819D02*
X213201428Y-135582819D01*
X213201428Y-135582819D02*
X213296666Y-135535200D01*
X213296666Y-135535200D02*
X213344285Y-135487580D01*
X213344285Y-135487580D02*
X213391904Y-135392342D01*
X213391904Y-135392342D02*
X213391904Y-135297104D01*
X213391904Y-135297104D02*
X213344285Y-135201866D01*
X213344285Y-135201866D02*
X213296666Y-135154247D01*
X213296666Y-135154247D02*
X213201428Y-135106628D01*
X213201428Y-135106628D02*
X213010952Y-135059009D01*
X213010952Y-135059009D02*
X212915714Y-135011390D01*
X212915714Y-135011390D02*
X212868095Y-134963771D01*
X212868095Y-134963771D02*
X212820476Y-134868533D01*
X212820476Y-134868533D02*
X212820476Y-134773295D01*
X212820476Y-134773295D02*
X212868095Y-134678057D01*
X212868095Y-134678057D02*
X212915714Y-134630438D01*
X212915714Y-134630438D02*
X213010952Y-134582819D01*
X213010952Y-134582819D02*
X213249047Y-134582819D01*
X213249047Y-134582819D02*
X213391904Y-134630438D01*
X213725238Y-134582819D02*
X213963333Y-135582819D01*
X213963333Y-135582819D02*
X214153809Y-134868533D01*
X214153809Y-134868533D02*
X214344285Y-135582819D01*
X214344285Y-135582819D02*
X214582381Y-134582819D01*
X215487142Y-135582819D02*
X214915714Y-135582819D01*
X215201428Y-135582819D02*
X215201428Y-134582819D01*
X215201428Y-134582819D02*
X215106190Y-134725676D01*
X215106190Y-134725676D02*
X215010952Y-134820914D01*
X215010952Y-134820914D02*
X214915714Y-134868533D01*
X216106190Y-134582819D02*
X216201428Y-134582819D01*
X216201428Y-134582819D02*
X216296666Y-134630438D01*
X216296666Y-134630438D02*
X216344285Y-134678057D01*
X216344285Y-134678057D02*
X216391904Y-134773295D01*
X216391904Y-134773295D02*
X216439523Y-134963771D01*
X216439523Y-134963771D02*
X216439523Y-135201866D01*
X216439523Y-135201866D02*
X216391904Y-135392342D01*
X216391904Y-135392342D02*
X216344285Y-135487580D01*
X216344285Y-135487580D02*
X216296666Y-135535200D01*
X216296666Y-135535200D02*
X216201428Y-135582819D01*
X216201428Y-135582819D02*
X216106190Y-135582819D01*
X216106190Y-135582819D02*
X216010952Y-135535200D01*
X216010952Y-135535200D02*
X215963333Y-135487580D01*
X215963333Y-135487580D02*
X215915714Y-135392342D01*
X215915714Y-135392342D02*
X215868095Y-135201866D01*
X215868095Y-135201866D02*
X215868095Y-134963771D01*
X215868095Y-134963771D02*
X215915714Y-134773295D01*
X215915714Y-134773295D02*
X215963333Y-134678057D01*
X215963333Y-134678057D02*
X216010952Y-134630438D01*
X216010952Y-134630438D02*
X216106190Y-134582819D01*
X237458476Y-113564200D02*
X237601333Y-113611819D01*
X237601333Y-113611819D02*
X237839428Y-113611819D01*
X237839428Y-113611819D02*
X237934666Y-113564200D01*
X237934666Y-113564200D02*
X237982285Y-113516580D01*
X237982285Y-113516580D02*
X238029904Y-113421342D01*
X238029904Y-113421342D02*
X238029904Y-113326104D01*
X238029904Y-113326104D02*
X237982285Y-113230866D01*
X237982285Y-113230866D02*
X237934666Y-113183247D01*
X237934666Y-113183247D02*
X237839428Y-113135628D01*
X237839428Y-113135628D02*
X237648952Y-113088009D01*
X237648952Y-113088009D02*
X237553714Y-113040390D01*
X237553714Y-113040390D02*
X237506095Y-112992771D01*
X237506095Y-112992771D02*
X237458476Y-112897533D01*
X237458476Y-112897533D02*
X237458476Y-112802295D01*
X237458476Y-112802295D02*
X237506095Y-112707057D01*
X237506095Y-112707057D02*
X237553714Y-112659438D01*
X237553714Y-112659438D02*
X237648952Y-112611819D01*
X237648952Y-112611819D02*
X237887047Y-112611819D01*
X237887047Y-112611819D02*
X238029904Y-112659438D01*
X238363238Y-112611819D02*
X238601333Y-113611819D01*
X238601333Y-113611819D02*
X238791809Y-112897533D01*
X238791809Y-112897533D02*
X238982285Y-113611819D01*
X238982285Y-113611819D02*
X239220381Y-112611819D01*
X240125142Y-113611819D02*
X239553714Y-113611819D01*
X239839428Y-113611819D02*
X239839428Y-112611819D01*
X239839428Y-112611819D02*
X239744190Y-112754676D01*
X239744190Y-112754676D02*
X239648952Y-112849914D01*
X239648952Y-112849914D02*
X239553714Y-112897533D01*
X240506095Y-112707057D02*
X240553714Y-112659438D01*
X240553714Y-112659438D02*
X240648952Y-112611819D01*
X240648952Y-112611819D02*
X240887047Y-112611819D01*
X240887047Y-112611819D02*
X240982285Y-112659438D01*
X240982285Y-112659438D02*
X241029904Y-112707057D01*
X241029904Y-112707057D02*
X241077523Y-112802295D01*
X241077523Y-112802295D02*
X241077523Y-112897533D01*
X241077523Y-112897533D02*
X241029904Y-113040390D01*
X241029904Y-113040390D02*
X240458476Y-113611819D01*
X240458476Y-113611819D02*
X241077523Y-113611819D01*
X239101333Y-160008819D02*
X238768000Y-159532628D01*
X238529905Y-160008819D02*
X238529905Y-159008819D01*
X238529905Y-159008819D02*
X238910857Y-159008819D01*
X238910857Y-159008819D02*
X239006095Y-159056438D01*
X239006095Y-159056438D02*
X239053714Y-159104057D01*
X239053714Y-159104057D02*
X239101333Y-159199295D01*
X239101333Y-159199295D02*
X239101333Y-159342152D01*
X239101333Y-159342152D02*
X239053714Y-159437390D01*
X239053714Y-159437390D02*
X239006095Y-159485009D01*
X239006095Y-159485009D02*
X238910857Y-159532628D01*
X238910857Y-159532628D02*
X238529905Y-159532628D01*
X239958476Y-159342152D02*
X239958476Y-160008819D01*
X239720381Y-158961200D02*
X239482286Y-159675485D01*
X239482286Y-159675485D02*
X240101333Y-159675485D01*
X212820476Y-162840200D02*
X212963333Y-162887819D01*
X212963333Y-162887819D02*
X213201428Y-162887819D01*
X213201428Y-162887819D02*
X213296666Y-162840200D01*
X213296666Y-162840200D02*
X213344285Y-162792580D01*
X213344285Y-162792580D02*
X213391904Y-162697342D01*
X213391904Y-162697342D02*
X213391904Y-162602104D01*
X213391904Y-162602104D02*
X213344285Y-162506866D01*
X213344285Y-162506866D02*
X213296666Y-162459247D01*
X213296666Y-162459247D02*
X213201428Y-162411628D01*
X213201428Y-162411628D02*
X213010952Y-162364009D01*
X213010952Y-162364009D02*
X212915714Y-162316390D01*
X212915714Y-162316390D02*
X212868095Y-162268771D01*
X212868095Y-162268771D02*
X212820476Y-162173533D01*
X212820476Y-162173533D02*
X212820476Y-162078295D01*
X212820476Y-162078295D02*
X212868095Y-161983057D01*
X212868095Y-161983057D02*
X212915714Y-161935438D01*
X212915714Y-161935438D02*
X213010952Y-161887819D01*
X213010952Y-161887819D02*
X213249047Y-161887819D01*
X213249047Y-161887819D02*
X213391904Y-161935438D01*
X213725238Y-161887819D02*
X213963333Y-162887819D01*
X213963333Y-162887819D02*
X214153809Y-162173533D01*
X214153809Y-162173533D02*
X214344285Y-162887819D01*
X214344285Y-162887819D02*
X214582381Y-161887819D01*
X215487142Y-162887819D02*
X214915714Y-162887819D01*
X215201428Y-162887819D02*
X215201428Y-161887819D01*
X215201428Y-161887819D02*
X215106190Y-162030676D01*
X215106190Y-162030676D02*
X215010952Y-162125914D01*
X215010952Y-162125914D02*
X214915714Y-162173533D01*
X216439523Y-162887819D02*
X215868095Y-162887819D01*
X216153809Y-162887819D02*
X216153809Y-161887819D01*
X216153809Y-161887819D02*
X216058571Y-162030676D01*
X216058571Y-162030676D02*
X215963333Y-162125914D01*
X215963333Y-162125914D02*
X215868095Y-162173533D01*
X188658667Y-113564200D02*
X188801524Y-113611819D01*
X188801524Y-113611819D02*
X189039619Y-113611819D01*
X189039619Y-113611819D02*
X189134857Y-113564200D01*
X189134857Y-113564200D02*
X189182476Y-113516580D01*
X189182476Y-113516580D02*
X189230095Y-113421342D01*
X189230095Y-113421342D02*
X189230095Y-113326104D01*
X189230095Y-113326104D02*
X189182476Y-113230866D01*
X189182476Y-113230866D02*
X189134857Y-113183247D01*
X189134857Y-113183247D02*
X189039619Y-113135628D01*
X189039619Y-113135628D02*
X188849143Y-113088009D01*
X188849143Y-113088009D02*
X188753905Y-113040390D01*
X188753905Y-113040390D02*
X188706286Y-112992771D01*
X188706286Y-112992771D02*
X188658667Y-112897533D01*
X188658667Y-112897533D02*
X188658667Y-112802295D01*
X188658667Y-112802295D02*
X188706286Y-112707057D01*
X188706286Y-112707057D02*
X188753905Y-112659438D01*
X188753905Y-112659438D02*
X188849143Y-112611819D01*
X188849143Y-112611819D02*
X189087238Y-112611819D01*
X189087238Y-112611819D02*
X189230095Y-112659438D01*
X189563429Y-112611819D02*
X189801524Y-113611819D01*
X189801524Y-113611819D02*
X189992000Y-112897533D01*
X189992000Y-112897533D02*
X190182476Y-113611819D01*
X190182476Y-113611819D02*
X190420572Y-112611819D01*
X191230095Y-112611819D02*
X191039619Y-112611819D01*
X191039619Y-112611819D02*
X190944381Y-112659438D01*
X190944381Y-112659438D02*
X190896762Y-112707057D01*
X190896762Y-112707057D02*
X190801524Y-112849914D01*
X190801524Y-112849914D02*
X190753905Y-113040390D01*
X190753905Y-113040390D02*
X190753905Y-113421342D01*
X190753905Y-113421342D02*
X190801524Y-113516580D01*
X190801524Y-113516580D02*
X190849143Y-113564200D01*
X190849143Y-113564200D02*
X190944381Y-113611819D01*
X190944381Y-113611819D02*
X191134857Y-113611819D01*
X191134857Y-113611819D02*
X191230095Y-113564200D01*
X191230095Y-113564200D02*
X191277714Y-113516580D01*
X191277714Y-113516580D02*
X191325333Y-113421342D01*
X191325333Y-113421342D02*
X191325333Y-113183247D01*
X191325333Y-113183247D02*
X191277714Y-113088009D01*
X191277714Y-113088009D02*
X191230095Y-113040390D01*
X191230095Y-113040390D02*
X191134857Y-112992771D01*
X191134857Y-112992771D02*
X190944381Y-112992771D01*
X190944381Y-112992771D02*
X190849143Y-113040390D01*
X190849143Y-113040390D02*
X190801524Y-113088009D01*
X190801524Y-113088009D02*
X190753905Y-113183247D01*
X188658667Y-162840200D02*
X188801524Y-162887819D01*
X188801524Y-162887819D02*
X189039619Y-162887819D01*
X189039619Y-162887819D02*
X189134857Y-162840200D01*
X189134857Y-162840200D02*
X189182476Y-162792580D01*
X189182476Y-162792580D02*
X189230095Y-162697342D01*
X189230095Y-162697342D02*
X189230095Y-162602104D01*
X189230095Y-162602104D02*
X189182476Y-162506866D01*
X189182476Y-162506866D02*
X189134857Y-162459247D01*
X189134857Y-162459247D02*
X189039619Y-162411628D01*
X189039619Y-162411628D02*
X188849143Y-162364009D01*
X188849143Y-162364009D02*
X188753905Y-162316390D01*
X188753905Y-162316390D02*
X188706286Y-162268771D01*
X188706286Y-162268771D02*
X188658667Y-162173533D01*
X188658667Y-162173533D02*
X188658667Y-162078295D01*
X188658667Y-162078295D02*
X188706286Y-161983057D01*
X188706286Y-161983057D02*
X188753905Y-161935438D01*
X188753905Y-161935438D02*
X188849143Y-161887819D01*
X188849143Y-161887819D02*
X189087238Y-161887819D01*
X189087238Y-161887819D02*
X189230095Y-161935438D01*
X189563429Y-161887819D02*
X189801524Y-162887819D01*
X189801524Y-162887819D02*
X189992000Y-162173533D01*
X189992000Y-162173533D02*
X190182476Y-162887819D01*
X190182476Y-162887819D02*
X190420572Y-161887819D01*
X190944381Y-162316390D02*
X190849143Y-162268771D01*
X190849143Y-162268771D02*
X190801524Y-162221152D01*
X190801524Y-162221152D02*
X190753905Y-162125914D01*
X190753905Y-162125914D02*
X190753905Y-162078295D01*
X190753905Y-162078295D02*
X190801524Y-161983057D01*
X190801524Y-161983057D02*
X190849143Y-161935438D01*
X190849143Y-161935438D02*
X190944381Y-161887819D01*
X190944381Y-161887819D02*
X191134857Y-161887819D01*
X191134857Y-161887819D02*
X191230095Y-161935438D01*
X191230095Y-161935438D02*
X191277714Y-161983057D01*
X191277714Y-161983057D02*
X191325333Y-162078295D01*
X191325333Y-162078295D02*
X191325333Y-162125914D01*
X191325333Y-162125914D02*
X191277714Y-162221152D01*
X191277714Y-162221152D02*
X191230095Y-162268771D01*
X191230095Y-162268771D02*
X191134857Y-162316390D01*
X191134857Y-162316390D02*
X190944381Y-162316390D01*
X190944381Y-162316390D02*
X190849143Y-162364009D01*
X190849143Y-162364009D02*
X190801524Y-162411628D01*
X190801524Y-162411628D02*
X190753905Y-162506866D01*
X190753905Y-162506866D02*
X190753905Y-162697342D01*
X190753905Y-162697342D02*
X190801524Y-162792580D01*
X190801524Y-162792580D02*
X190849143Y-162840200D01*
X190849143Y-162840200D02*
X190944381Y-162887819D01*
X190944381Y-162887819D02*
X191134857Y-162887819D01*
X191134857Y-162887819D02*
X191230095Y-162840200D01*
X191230095Y-162840200D02*
X191277714Y-162792580D01*
X191277714Y-162792580D02*
X191325333Y-162697342D01*
X191325333Y-162697342D02*
X191325333Y-162506866D01*
X191325333Y-162506866D02*
X191277714Y-162411628D01*
X191277714Y-162411628D02*
X191230095Y-162364009D01*
X191230095Y-162364009D02*
X191134857Y-162316390D01*
X286734476Y-150521200D02*
X286877333Y-150568819D01*
X286877333Y-150568819D02*
X287115428Y-150568819D01*
X287115428Y-150568819D02*
X287210666Y-150521200D01*
X287210666Y-150521200D02*
X287258285Y-150473580D01*
X287258285Y-150473580D02*
X287305904Y-150378342D01*
X287305904Y-150378342D02*
X287305904Y-150283104D01*
X287305904Y-150283104D02*
X287258285Y-150187866D01*
X287258285Y-150187866D02*
X287210666Y-150140247D01*
X287210666Y-150140247D02*
X287115428Y-150092628D01*
X287115428Y-150092628D02*
X286924952Y-150045009D01*
X286924952Y-150045009D02*
X286829714Y-149997390D01*
X286829714Y-149997390D02*
X286782095Y-149949771D01*
X286782095Y-149949771D02*
X286734476Y-149854533D01*
X286734476Y-149854533D02*
X286734476Y-149759295D01*
X286734476Y-149759295D02*
X286782095Y-149664057D01*
X286782095Y-149664057D02*
X286829714Y-149616438D01*
X286829714Y-149616438D02*
X286924952Y-149568819D01*
X286924952Y-149568819D02*
X287163047Y-149568819D01*
X287163047Y-149568819D02*
X287305904Y-149616438D01*
X287639238Y-149568819D02*
X287877333Y-150568819D01*
X287877333Y-150568819D02*
X288067809Y-149854533D01*
X288067809Y-149854533D02*
X288258285Y-150568819D01*
X288258285Y-150568819D02*
X288496381Y-149568819D01*
X289401142Y-150568819D02*
X288829714Y-150568819D01*
X289115428Y-150568819D02*
X289115428Y-149568819D01*
X289115428Y-149568819D02*
X289020190Y-149711676D01*
X289020190Y-149711676D02*
X288924952Y-149806914D01*
X288924952Y-149806914D02*
X288829714Y-149854533D01*
X289877333Y-150568819D02*
X290067809Y-150568819D01*
X290067809Y-150568819D02*
X290163047Y-150521200D01*
X290163047Y-150521200D02*
X290210666Y-150473580D01*
X290210666Y-150473580D02*
X290305904Y-150330723D01*
X290305904Y-150330723D02*
X290353523Y-150140247D01*
X290353523Y-150140247D02*
X290353523Y-149759295D01*
X290353523Y-149759295D02*
X290305904Y-149664057D01*
X290305904Y-149664057D02*
X290258285Y-149616438D01*
X290258285Y-149616438D02*
X290163047Y-149568819D01*
X290163047Y-149568819D02*
X289972571Y-149568819D01*
X289972571Y-149568819D02*
X289877333Y-149616438D01*
X289877333Y-149616438D02*
X289829714Y-149664057D01*
X289829714Y-149664057D02*
X289782095Y-149759295D01*
X289782095Y-149759295D02*
X289782095Y-149997390D01*
X289782095Y-149997390D02*
X289829714Y-150092628D01*
X289829714Y-150092628D02*
X289877333Y-150140247D01*
X289877333Y-150140247D02*
X289972571Y-150187866D01*
X289972571Y-150187866D02*
X290163047Y-150187866D01*
X290163047Y-150187866D02*
X290258285Y-150140247D01*
X290258285Y-150140247D02*
X290305904Y-150092628D01*
X290305904Y-150092628D02*
X290353523Y-149997390D01*
X164020667Y-113564200D02*
X164163524Y-113611819D01*
X164163524Y-113611819D02*
X164401619Y-113611819D01*
X164401619Y-113611819D02*
X164496857Y-113564200D01*
X164496857Y-113564200D02*
X164544476Y-113516580D01*
X164544476Y-113516580D02*
X164592095Y-113421342D01*
X164592095Y-113421342D02*
X164592095Y-113326104D01*
X164592095Y-113326104D02*
X164544476Y-113230866D01*
X164544476Y-113230866D02*
X164496857Y-113183247D01*
X164496857Y-113183247D02*
X164401619Y-113135628D01*
X164401619Y-113135628D02*
X164211143Y-113088009D01*
X164211143Y-113088009D02*
X164115905Y-113040390D01*
X164115905Y-113040390D02*
X164068286Y-112992771D01*
X164068286Y-112992771D02*
X164020667Y-112897533D01*
X164020667Y-112897533D02*
X164020667Y-112802295D01*
X164020667Y-112802295D02*
X164068286Y-112707057D01*
X164068286Y-112707057D02*
X164115905Y-112659438D01*
X164115905Y-112659438D02*
X164211143Y-112611819D01*
X164211143Y-112611819D02*
X164449238Y-112611819D01*
X164449238Y-112611819D02*
X164592095Y-112659438D01*
X164925429Y-112611819D02*
X165163524Y-113611819D01*
X165163524Y-113611819D02*
X165354000Y-112897533D01*
X165354000Y-112897533D02*
X165544476Y-113611819D01*
X165544476Y-113611819D02*
X165782572Y-112611819D01*
X166068286Y-112611819D02*
X166687333Y-112611819D01*
X166687333Y-112611819D02*
X166354000Y-112992771D01*
X166354000Y-112992771D02*
X166496857Y-112992771D01*
X166496857Y-112992771D02*
X166592095Y-113040390D01*
X166592095Y-113040390D02*
X166639714Y-113088009D01*
X166639714Y-113088009D02*
X166687333Y-113183247D01*
X166687333Y-113183247D02*
X166687333Y-113421342D01*
X166687333Y-113421342D02*
X166639714Y-113516580D01*
X166639714Y-113516580D02*
X166592095Y-113564200D01*
X166592095Y-113564200D02*
X166496857Y-113611819D01*
X166496857Y-113611819D02*
X166211143Y-113611819D01*
X166211143Y-113611819D02*
X166115905Y-113564200D01*
X166115905Y-113564200D02*
X166068286Y-113516580D01*
X164020667Y-162840200D02*
X164163524Y-162887819D01*
X164163524Y-162887819D02*
X164401619Y-162887819D01*
X164401619Y-162887819D02*
X164496857Y-162840200D01*
X164496857Y-162840200D02*
X164544476Y-162792580D01*
X164544476Y-162792580D02*
X164592095Y-162697342D01*
X164592095Y-162697342D02*
X164592095Y-162602104D01*
X164592095Y-162602104D02*
X164544476Y-162506866D01*
X164544476Y-162506866D02*
X164496857Y-162459247D01*
X164496857Y-162459247D02*
X164401619Y-162411628D01*
X164401619Y-162411628D02*
X164211143Y-162364009D01*
X164211143Y-162364009D02*
X164115905Y-162316390D01*
X164115905Y-162316390D02*
X164068286Y-162268771D01*
X164068286Y-162268771D02*
X164020667Y-162173533D01*
X164020667Y-162173533D02*
X164020667Y-162078295D01*
X164020667Y-162078295D02*
X164068286Y-161983057D01*
X164068286Y-161983057D02*
X164115905Y-161935438D01*
X164115905Y-161935438D02*
X164211143Y-161887819D01*
X164211143Y-161887819D02*
X164449238Y-161887819D01*
X164449238Y-161887819D02*
X164592095Y-161935438D01*
X164925429Y-161887819D02*
X165163524Y-162887819D01*
X165163524Y-162887819D02*
X165354000Y-162173533D01*
X165354000Y-162173533D02*
X165544476Y-162887819D01*
X165544476Y-162887819D02*
X165782572Y-161887819D01*
X166639714Y-161887819D02*
X166163524Y-161887819D01*
X166163524Y-161887819D02*
X166115905Y-162364009D01*
X166115905Y-162364009D02*
X166163524Y-162316390D01*
X166163524Y-162316390D02*
X166258762Y-162268771D01*
X166258762Y-162268771D02*
X166496857Y-162268771D01*
X166496857Y-162268771D02*
X166592095Y-162316390D01*
X166592095Y-162316390D02*
X166639714Y-162364009D01*
X166639714Y-162364009D02*
X166687333Y-162459247D01*
X166687333Y-162459247D02*
X166687333Y-162697342D01*
X166687333Y-162697342D02*
X166639714Y-162792580D01*
X166639714Y-162792580D02*
X166592095Y-162840200D01*
X166592095Y-162840200D02*
X166496857Y-162887819D01*
X166496857Y-162887819D02*
X166258762Y-162887819D01*
X166258762Y-162887819D02*
X166163524Y-162840200D01*
X166163524Y-162840200D02*
X166115905Y-162792580D01*
X189825333Y-160008819D02*
X189492000Y-159532628D01*
X189253905Y-160008819D02*
X189253905Y-159008819D01*
X189253905Y-159008819D02*
X189634857Y-159008819D01*
X189634857Y-159008819D02*
X189730095Y-159056438D01*
X189730095Y-159056438D02*
X189777714Y-159104057D01*
X189777714Y-159104057D02*
X189825333Y-159199295D01*
X189825333Y-159199295D02*
X189825333Y-159342152D01*
X189825333Y-159342152D02*
X189777714Y-159437390D01*
X189777714Y-159437390D02*
X189730095Y-159485009D01*
X189730095Y-159485009D02*
X189634857Y-159532628D01*
X189634857Y-159532628D02*
X189253905Y-159532628D01*
X190206286Y-159104057D02*
X190253905Y-159056438D01*
X190253905Y-159056438D02*
X190349143Y-159008819D01*
X190349143Y-159008819D02*
X190587238Y-159008819D01*
X190587238Y-159008819D02*
X190682476Y-159056438D01*
X190682476Y-159056438D02*
X190730095Y-159104057D01*
X190730095Y-159104057D02*
X190777714Y-159199295D01*
X190777714Y-159199295D02*
X190777714Y-159294533D01*
X190777714Y-159294533D02*
X190730095Y-159437390D01*
X190730095Y-159437390D02*
X190158667Y-160008819D01*
X190158667Y-160008819D02*
X190777714Y-160008819D01*
X286734476Y-125883200D02*
X286877333Y-125930819D01*
X286877333Y-125930819D02*
X287115428Y-125930819D01*
X287115428Y-125930819D02*
X287210666Y-125883200D01*
X287210666Y-125883200D02*
X287258285Y-125835580D01*
X287258285Y-125835580D02*
X287305904Y-125740342D01*
X287305904Y-125740342D02*
X287305904Y-125645104D01*
X287305904Y-125645104D02*
X287258285Y-125549866D01*
X287258285Y-125549866D02*
X287210666Y-125502247D01*
X287210666Y-125502247D02*
X287115428Y-125454628D01*
X287115428Y-125454628D02*
X286924952Y-125407009D01*
X286924952Y-125407009D02*
X286829714Y-125359390D01*
X286829714Y-125359390D02*
X286782095Y-125311771D01*
X286782095Y-125311771D02*
X286734476Y-125216533D01*
X286734476Y-125216533D02*
X286734476Y-125121295D01*
X286734476Y-125121295D02*
X286782095Y-125026057D01*
X286782095Y-125026057D02*
X286829714Y-124978438D01*
X286829714Y-124978438D02*
X286924952Y-124930819D01*
X286924952Y-124930819D02*
X287163047Y-124930819D01*
X287163047Y-124930819D02*
X287305904Y-124978438D01*
X287639238Y-124930819D02*
X287877333Y-125930819D01*
X287877333Y-125930819D02*
X288067809Y-125216533D01*
X288067809Y-125216533D02*
X288258285Y-125930819D01*
X288258285Y-125930819D02*
X288496381Y-124930819D01*
X289401142Y-125930819D02*
X288829714Y-125930819D01*
X289115428Y-125930819D02*
X289115428Y-124930819D01*
X289115428Y-124930819D02*
X289020190Y-125073676D01*
X289020190Y-125073676D02*
X288924952Y-125168914D01*
X288924952Y-125168914D02*
X288829714Y-125216533D01*
X289972571Y-125359390D02*
X289877333Y-125311771D01*
X289877333Y-125311771D02*
X289829714Y-125264152D01*
X289829714Y-125264152D02*
X289782095Y-125168914D01*
X289782095Y-125168914D02*
X289782095Y-125121295D01*
X289782095Y-125121295D02*
X289829714Y-125026057D01*
X289829714Y-125026057D02*
X289877333Y-124978438D01*
X289877333Y-124978438D02*
X289972571Y-124930819D01*
X289972571Y-124930819D02*
X290163047Y-124930819D01*
X290163047Y-124930819D02*
X290258285Y-124978438D01*
X290258285Y-124978438D02*
X290305904Y-125026057D01*
X290305904Y-125026057D02*
X290353523Y-125121295D01*
X290353523Y-125121295D02*
X290353523Y-125168914D01*
X290353523Y-125168914D02*
X290305904Y-125264152D01*
X290305904Y-125264152D02*
X290258285Y-125311771D01*
X290258285Y-125311771D02*
X290163047Y-125359390D01*
X290163047Y-125359390D02*
X289972571Y-125359390D01*
X289972571Y-125359390D02*
X289877333Y-125407009D01*
X289877333Y-125407009D02*
X289829714Y-125454628D01*
X289829714Y-125454628D02*
X289782095Y-125549866D01*
X289782095Y-125549866D02*
X289782095Y-125740342D01*
X289782095Y-125740342D02*
X289829714Y-125835580D01*
X289829714Y-125835580D02*
X289877333Y-125883200D01*
X289877333Y-125883200D02*
X289972571Y-125930819D01*
X289972571Y-125930819D02*
X290163047Y-125930819D01*
X290163047Y-125930819D02*
X290258285Y-125883200D01*
X290258285Y-125883200D02*
X290305904Y-125835580D01*
X290305904Y-125835580D02*
X290353523Y-125740342D01*
X290353523Y-125740342D02*
X290353523Y-125549866D01*
X290353523Y-125549866D02*
X290305904Y-125454628D01*
X290305904Y-125454628D02*
X290258285Y-125407009D01*
X290258285Y-125407009D02*
X290163047Y-125359390D01*
X237458476Y-162840200D02*
X237601333Y-162887819D01*
X237601333Y-162887819D02*
X237839428Y-162887819D01*
X237839428Y-162887819D02*
X237934666Y-162840200D01*
X237934666Y-162840200D02*
X237982285Y-162792580D01*
X237982285Y-162792580D02*
X238029904Y-162697342D01*
X238029904Y-162697342D02*
X238029904Y-162602104D01*
X238029904Y-162602104D02*
X237982285Y-162506866D01*
X237982285Y-162506866D02*
X237934666Y-162459247D01*
X237934666Y-162459247D02*
X237839428Y-162411628D01*
X237839428Y-162411628D02*
X237648952Y-162364009D01*
X237648952Y-162364009D02*
X237553714Y-162316390D01*
X237553714Y-162316390D02*
X237506095Y-162268771D01*
X237506095Y-162268771D02*
X237458476Y-162173533D01*
X237458476Y-162173533D02*
X237458476Y-162078295D01*
X237458476Y-162078295D02*
X237506095Y-161983057D01*
X237506095Y-161983057D02*
X237553714Y-161935438D01*
X237553714Y-161935438D02*
X237648952Y-161887819D01*
X237648952Y-161887819D02*
X237887047Y-161887819D01*
X237887047Y-161887819D02*
X238029904Y-161935438D01*
X238363238Y-161887819D02*
X238601333Y-162887819D01*
X238601333Y-162887819D02*
X238791809Y-162173533D01*
X238791809Y-162173533D02*
X238982285Y-162887819D01*
X238982285Y-162887819D02*
X239220381Y-161887819D01*
X240125142Y-162887819D02*
X239553714Y-162887819D01*
X239839428Y-162887819D02*
X239839428Y-161887819D01*
X239839428Y-161887819D02*
X239744190Y-162030676D01*
X239744190Y-162030676D02*
X239648952Y-162125914D01*
X239648952Y-162125914D02*
X239553714Y-162173533D01*
X240982285Y-162221152D02*
X240982285Y-162887819D01*
X240744190Y-161840200D02*
X240506095Y-162554485D01*
X240506095Y-162554485D02*
X241125142Y-162554485D01*
D11*
X232283000Y-138684000D02*
X246253000Y-138684000D01*
X232283000Y-152654000D02*
X232283000Y-138684000D01*
X246253000Y-138684000D02*
X246253000Y-152654000D01*
X246253000Y-152654000D02*
X232283000Y-152654000D01*
X166081064Y-158644000D02*
X164626936Y-158644000D01*
X166081064Y-156824000D02*
X164626936Y-156824000D01*
X133731000Y-151003000D02*
X147701000Y-151003000D01*
X133731000Y-164973000D02*
X133731000Y-151003000D01*
X147701000Y-151003000D02*
X147701000Y-164973000D01*
X147701000Y-164973000D02*
X133731000Y-164973000D01*
X215357064Y-158644000D02*
X213902936Y-158644000D01*
X215357064Y-156824000D02*
X213902936Y-156824000D01*
X264633064Y-158644000D02*
X263178936Y-158644000D01*
X264633064Y-156824000D02*
X263178936Y-156824000D01*
X133731000Y-126365000D02*
X147701000Y-126365000D01*
X133731000Y-140335000D02*
X133731000Y-126365000D01*
X147701000Y-126365000D02*
X147701000Y-140335000D01*
X147701000Y-140335000D02*
X133731000Y-140335000D01*
X207645000Y-114046000D02*
X221615000Y-114046000D01*
X207645000Y-128016000D02*
X207645000Y-114046000D01*
X221615000Y-114046000D02*
X221615000Y-128016000D01*
X221615000Y-128016000D02*
X207645000Y-128016000D01*
X158369000Y-138684000D02*
X172339000Y-138684000D01*
X158369000Y-152654000D02*
X158369000Y-138684000D01*
X172339000Y-138684000D02*
X172339000Y-152654000D01*
X172339000Y-152654000D02*
X158369000Y-152654000D01*
X256921000Y-138684000D02*
X270891000Y-138684000D01*
X256921000Y-152654000D02*
X256921000Y-138684000D01*
X270891000Y-138684000D02*
X270891000Y-152654000D01*
X270891000Y-152654000D02*
X256921000Y-152654000D01*
X183007000Y-138684000D02*
X196977000Y-138684000D01*
X183007000Y-152654000D02*
X183007000Y-138684000D01*
X196977000Y-138684000D02*
X196977000Y-152654000D01*
X196977000Y-152654000D02*
X183007000Y-152654000D01*
X256921000Y-114046000D02*
X270891000Y-114046000D01*
X256921000Y-128016000D02*
X256921000Y-114046000D01*
X270891000Y-114046000D02*
X270891000Y-128016000D01*
X270891000Y-128016000D02*
X256921000Y-128016000D01*
X256921000Y-163322000D02*
X270891000Y-163322000D01*
X256921000Y-177292000D02*
X256921000Y-163322000D01*
X270891000Y-163322000D02*
X270891000Y-177292000D01*
X270891000Y-177292000D02*
X256921000Y-177292000D01*
X207645000Y-138684000D02*
X221615000Y-138684000D01*
X207645000Y-152654000D02*
X207645000Y-138684000D01*
X221615000Y-138684000D02*
X221615000Y-152654000D01*
X221615000Y-152654000D02*
X207645000Y-152654000D01*
X232283000Y-114046000D02*
X246253000Y-114046000D01*
X232283000Y-128016000D02*
X232283000Y-114046000D01*
X246253000Y-114046000D02*
X246253000Y-128016000D01*
X246253000Y-128016000D02*
X232283000Y-128016000D01*
X239995064Y-158644000D02*
X238540936Y-158644000D01*
X239995064Y-156824000D02*
X238540936Y-156824000D01*
X207645000Y-163322000D02*
X221615000Y-163322000D01*
X207645000Y-177292000D02*
X207645000Y-163322000D01*
X221615000Y-163322000D02*
X221615000Y-177292000D01*
X221615000Y-177292000D02*
X207645000Y-177292000D01*
X183007000Y-114046000D02*
X196977000Y-114046000D01*
X183007000Y-128016000D02*
X183007000Y-114046000D01*
X196977000Y-114046000D02*
X196977000Y-128016000D01*
X196977000Y-128016000D02*
X183007000Y-128016000D01*
X183007000Y-163322000D02*
X196977000Y-163322000D01*
X183007000Y-177292000D02*
X183007000Y-163322000D01*
X196977000Y-163322000D02*
X196977000Y-177292000D01*
X196977000Y-177292000D02*
X183007000Y-177292000D01*
X281559000Y-151003000D02*
X295529000Y-151003000D01*
X281559000Y-164973000D02*
X281559000Y-151003000D01*
X295529000Y-151003000D02*
X295529000Y-164973000D01*
X295529000Y-164973000D02*
X281559000Y-164973000D01*
X158369000Y-114046000D02*
X172339000Y-114046000D01*
X158369000Y-128016000D02*
X158369000Y-114046000D01*
X172339000Y-114046000D02*
X172339000Y-128016000D01*
X172339000Y-128016000D02*
X158369000Y-128016000D01*
X158369000Y-163322000D02*
X172339000Y-163322000D01*
X158369000Y-177292000D02*
X158369000Y-163322000D01*
X172339000Y-163322000D02*
X172339000Y-177292000D01*
X172339000Y-177292000D02*
X158369000Y-177292000D01*
X190719064Y-158644000D02*
X189264936Y-158644000D01*
X190719064Y-156824000D02*
X189264936Y-156824000D01*
X281559000Y-126365000D02*
X295529000Y-126365000D01*
X281559000Y-140335000D02*
X281559000Y-126365000D01*
X295529000Y-126365000D02*
X295529000Y-140335000D01*
X295529000Y-140335000D02*
X281559000Y-140335000D01*
X232283000Y-163322000D02*
X246253000Y-163322000D01*
X232283000Y-177292000D02*
X232283000Y-163322000D01*
X246253000Y-163322000D02*
X246253000Y-177292000D01*
X246253000Y-177292000D02*
X232283000Y-177292000D01*
%LPC*%
D12*
X239268000Y-145669000D03*
D13*
X241808000Y-140589000D03*
X235458000Y-143129000D03*
D14*
X166816500Y-157734000D03*
X163891500Y-157734000D03*
D12*
X140716000Y-157988000D03*
D13*
X143256000Y-152908000D03*
X136906000Y-155448000D03*
D14*
X216092500Y-157734000D03*
X213167500Y-157734000D03*
X265368500Y-157734000D03*
X262443500Y-157734000D03*
D12*
X140716000Y-133350000D03*
D13*
X143256000Y-128270000D03*
X136906000Y-130810000D03*
D12*
X214630000Y-121031000D03*
D13*
X217170000Y-115951000D03*
X210820000Y-118491000D03*
D12*
X165354000Y-145669000D03*
D13*
X167894000Y-140589000D03*
X161544000Y-143129000D03*
D12*
X263906000Y-145669000D03*
D13*
X266446000Y-140589000D03*
X260096000Y-143129000D03*
D12*
X189992000Y-145669000D03*
D13*
X192532000Y-140589000D03*
X186182000Y-143129000D03*
D12*
X263906000Y-121031000D03*
D13*
X266446000Y-115951000D03*
X260096000Y-118491000D03*
D12*
X263906000Y-170307000D03*
D13*
X266446000Y-165227000D03*
X260096000Y-167767000D03*
D12*
X214630000Y-145669000D03*
D13*
X217170000Y-140589000D03*
X210820000Y-143129000D03*
D12*
X239268000Y-121031000D03*
D13*
X241808000Y-115951000D03*
X235458000Y-118491000D03*
D14*
X240730500Y-157734000D03*
X237805500Y-157734000D03*
D12*
X214630000Y-170307000D03*
D13*
X217170000Y-165227000D03*
X210820000Y-167767000D03*
D12*
X189992000Y-121031000D03*
D13*
X192532000Y-115951000D03*
X186182000Y-118491000D03*
D12*
X189992000Y-170307000D03*
D13*
X192532000Y-165227000D03*
X186182000Y-167767000D03*
D12*
X288544000Y-157988000D03*
D13*
X291084000Y-152908000D03*
X284734000Y-155448000D03*
D12*
X165354000Y-121031000D03*
D13*
X167894000Y-115951000D03*
X161544000Y-118491000D03*
D12*
X165354000Y-170307000D03*
D13*
X167894000Y-165227000D03*
X161544000Y-167767000D03*
D14*
X191454500Y-157734000D03*
X188529500Y-157734000D03*
D12*
X288544000Y-133350000D03*
D13*
X291084000Y-128270000D03*
X284734000Y-130810000D03*
D12*
X239268000Y-170307000D03*
D13*
X241808000Y-165227000D03*
X235458000Y-167767000D03*
D15*
X199390000Y-138049000D03*
X224790000Y-138049000D03*
X204470000Y-138049000D03*
X207010000Y-138049000D03*
X209550000Y-138049000D03*
X212090000Y-138049000D03*
X214630000Y-138049000D03*
X217170000Y-138049000D03*
X219710000Y-138049000D03*
X222250000Y-138049000D03*
X201930000Y-138049000D03*
X229870000Y-153289000D03*
X232410000Y-153289000D03*
X222250000Y-153289000D03*
X219710000Y-153289000D03*
X217170000Y-153289000D03*
X214630000Y-153289000D03*
X212090000Y-153289000D03*
X209550000Y-153289000D03*
X207010000Y-153289000D03*
X204470000Y-153289000D03*
X201930000Y-153289000D03*
X199390000Y-153289000D03*
X196850000Y-153289000D03*
X196850000Y-138049000D03*
D16*
X224790000Y-153289000D03*
X229870000Y-138049000D03*
D15*
X227330000Y-153289000D03*
X227330000Y-138049000D03*
X232410000Y-138049000D03*
D17*
X177673000Y-132444000D03*
D18*
X175173000Y-132444000D03*
X172673000Y-132444000D03*
X170173000Y-132444000D03*
X167673000Y-132444000D03*
%LPD*%
M02*
