G04 #@! TF.GenerationSoftware,KiCad,Pcbnew,8.0.2*
G04 #@! TF.CreationDate,2024-06-02T23:08:19+02:00*
G04 #@! TF.ProjectId,Main_board,4d61696e-5f62-46f6-9172-642e6b696361,1.0.2*
G04 #@! TF.SameCoordinates,Original*
G04 #@! TF.FileFunction,Legend,Top*
G04 #@! TF.FilePolarity,Positive*
%FSLAX46Y46*%
G04 Gerber Fmt 4.6, Leading zero omitted, Abs format (unit mm)*
G04 Created by KiCad (PCBNEW 8.0.2) date 2024-06-02 23:08:19*
%MOMM*%
%LPD*%
G01*
G04 APERTURE LIST*
G04 Aperture macros list*
%AMRoundRect*
0 Rectangle with rounded corners*
0 $1 Rounding radius*
0 $2 $3 $4 $5 $6 $7 $8 $9 X,Y pos of 4 corners*
0 Add a 4 corners polygon primitive as box body*
4,1,4,$2,$3,$4,$5,$6,$7,$8,$9,$2,$3,0*
0 Add four circle primitives for the rounded corners*
1,1,$1+$1,$2,$3*
1,1,$1+$1,$4,$5*
1,1,$1+$1,$6,$7*
1,1,$1+$1,$8,$9*
0 Add four rect primitives between the rounded corners*
20,1,$1+$1,$2,$3,$4,$5,0*
20,1,$1+$1,$4,$5,$6,$7,0*
20,1,$1+$1,$6,$7,$8,$9,0*
20,1,$1+$1,$8,$9,$2,$3,0*%
G04 Aperture macros list end*
%ADD10C,0.150000*%
%ADD11C,0.200000*%
%ADD12C,0.120000*%
%ADD13C,1.905000*%
%ADD14R,1.905000X1.905000*%
%ADD15C,4.000000*%
%ADD16C,2.200000*%
%ADD17RoundRect,0.250000X0.312500X0.625000X-0.312500X0.625000X-0.312500X-0.625000X0.312500X-0.625000X0*%
%ADD18RoundRect,0.250000X0.625000X-0.312500X0.625000X0.312500X-0.625000X0.312500X-0.625000X-0.312500X0*%
%ADD19RoundRect,0.150000X-0.512500X-0.150000X0.512500X-0.150000X0.512500X0.150000X-0.512500X0.150000X0*%
%ADD20RoundRect,0.250000X-0.650000X0.412500X-0.650000X-0.412500X0.650000X-0.412500X0.650000X0.412500X0*%
%ADD21C,1.727200*%
%ADD22R,1.727200X1.727200*%
%ADD23RoundRect,0.250000X0.600000X0.725000X-0.600000X0.725000X-0.600000X-0.725000X0.600000X-0.725000X0*%
%ADD24O,1.700000X1.950000*%
%ADD25RoundRect,0.250000X-0.600000X-0.725000X0.600000X-0.725000X0.600000X0.725000X-0.600000X0.725000X0*%
G04 APERTURE END LIST*
D10*
X237458476Y-138202200D02*
X237601333Y-138249819D01*
X237601333Y-138249819D02*
X237839428Y-138249819D01*
X237839428Y-138249819D02*
X237934666Y-138202200D01*
X237934666Y-138202200D02*
X237982285Y-138154580D01*
X237982285Y-138154580D02*
X238029904Y-138059342D01*
X238029904Y-138059342D02*
X238029904Y-137964104D01*
X238029904Y-137964104D02*
X237982285Y-137868866D01*
X237982285Y-137868866D02*
X237934666Y-137821247D01*
X237934666Y-137821247D02*
X237839428Y-137773628D01*
X237839428Y-137773628D02*
X237648952Y-137726009D01*
X237648952Y-137726009D02*
X237553714Y-137678390D01*
X237553714Y-137678390D02*
X237506095Y-137630771D01*
X237506095Y-137630771D02*
X237458476Y-137535533D01*
X237458476Y-137535533D02*
X237458476Y-137440295D01*
X237458476Y-137440295D02*
X237506095Y-137345057D01*
X237506095Y-137345057D02*
X237553714Y-137297438D01*
X237553714Y-137297438D02*
X237648952Y-137249819D01*
X237648952Y-137249819D02*
X237887047Y-137249819D01*
X237887047Y-137249819D02*
X238029904Y-137297438D01*
X238363238Y-137249819D02*
X238601333Y-138249819D01*
X238601333Y-138249819D02*
X238791809Y-137535533D01*
X238791809Y-137535533D02*
X238982285Y-138249819D01*
X238982285Y-138249819D02*
X239220381Y-137249819D01*
X240125142Y-138249819D02*
X239553714Y-138249819D01*
X239839428Y-138249819D02*
X239839428Y-137249819D01*
X239839428Y-137249819D02*
X239744190Y-137392676D01*
X239744190Y-137392676D02*
X239648952Y-137487914D01*
X239648952Y-137487914D02*
X239553714Y-137535533D01*
X240458476Y-137249819D02*
X241077523Y-137249819D01*
X241077523Y-137249819D02*
X240744190Y-137630771D01*
X240744190Y-137630771D02*
X240887047Y-137630771D01*
X240887047Y-137630771D02*
X240982285Y-137678390D01*
X240982285Y-137678390D02*
X241029904Y-137726009D01*
X241029904Y-137726009D02*
X241077523Y-137821247D01*
X241077523Y-137821247D02*
X241077523Y-138059342D01*
X241077523Y-138059342D02*
X241029904Y-138154580D01*
X241029904Y-138154580D02*
X240982285Y-138202200D01*
X240982285Y-138202200D02*
X240887047Y-138249819D01*
X240887047Y-138249819D02*
X240601333Y-138249819D01*
X240601333Y-138249819D02*
X240506095Y-138202200D01*
X240506095Y-138202200D02*
X240458476Y-138154580D01*
D11*
X239577524Y-152995219D02*
X239387048Y-152995219D01*
X239387048Y-152995219D02*
X239285857Y-153042838D01*
X239285857Y-153042838D02*
X239232286Y-153090457D01*
X239232286Y-153090457D02*
X239119190Y-153233314D01*
X239119190Y-153233314D02*
X239047762Y-153423790D01*
X239047762Y-153423790D02*
X239000143Y-153804742D01*
X239000143Y-153804742D02*
X239035857Y-153899980D01*
X239035857Y-153899980D02*
X239077524Y-153947600D01*
X239077524Y-153947600D02*
X239166810Y-153995219D01*
X239166810Y-153995219D02*
X239357286Y-153995219D01*
X239357286Y-153995219D02*
X239458476Y-153947600D01*
X239458476Y-153947600D02*
X239512048Y-153899980D01*
X239512048Y-153899980D02*
X239571571Y-153804742D01*
X239571571Y-153804742D02*
X239601333Y-153566647D01*
X239601333Y-153566647D02*
X239565619Y-153471409D01*
X239565619Y-153471409D02*
X239523952Y-153423790D01*
X239523952Y-153423790D02*
X239434667Y-153376171D01*
X239434667Y-153376171D02*
X239244190Y-153376171D01*
X239244190Y-153376171D02*
X239143000Y-153423790D01*
X239143000Y-153423790D02*
X239089429Y-153471409D01*
X239089429Y-153471409D02*
X239029905Y-153566647D01*
D10*
X165187333Y-160008819D02*
X164854000Y-159532628D01*
X164615905Y-160008819D02*
X164615905Y-159008819D01*
X164615905Y-159008819D02*
X164996857Y-159008819D01*
X164996857Y-159008819D02*
X165092095Y-159056438D01*
X165092095Y-159056438D02*
X165139714Y-159104057D01*
X165139714Y-159104057D02*
X165187333Y-159199295D01*
X165187333Y-159199295D02*
X165187333Y-159342152D01*
X165187333Y-159342152D02*
X165139714Y-159437390D01*
X165139714Y-159437390D02*
X165092095Y-159485009D01*
X165092095Y-159485009D02*
X164996857Y-159532628D01*
X164996857Y-159532628D02*
X164615905Y-159532628D01*
X166139714Y-160008819D02*
X165568286Y-160008819D01*
X165854000Y-160008819D02*
X165854000Y-159008819D01*
X165854000Y-159008819D02*
X165758762Y-159151676D01*
X165758762Y-159151676D02*
X165663524Y-159246914D01*
X165663524Y-159246914D02*
X165568286Y-159294533D01*
X139382667Y-150521200D02*
X139525524Y-150568819D01*
X139525524Y-150568819D02*
X139763619Y-150568819D01*
X139763619Y-150568819D02*
X139858857Y-150521200D01*
X139858857Y-150521200D02*
X139906476Y-150473580D01*
X139906476Y-150473580D02*
X139954095Y-150378342D01*
X139954095Y-150378342D02*
X139954095Y-150283104D01*
X139954095Y-150283104D02*
X139906476Y-150187866D01*
X139906476Y-150187866D02*
X139858857Y-150140247D01*
X139858857Y-150140247D02*
X139763619Y-150092628D01*
X139763619Y-150092628D02*
X139573143Y-150045009D01*
X139573143Y-150045009D02*
X139477905Y-149997390D01*
X139477905Y-149997390D02*
X139430286Y-149949771D01*
X139430286Y-149949771D02*
X139382667Y-149854533D01*
X139382667Y-149854533D02*
X139382667Y-149759295D01*
X139382667Y-149759295D02*
X139430286Y-149664057D01*
X139430286Y-149664057D02*
X139477905Y-149616438D01*
X139477905Y-149616438D02*
X139573143Y-149568819D01*
X139573143Y-149568819D02*
X139811238Y-149568819D01*
X139811238Y-149568819D02*
X139954095Y-149616438D01*
X140287429Y-149568819D02*
X140525524Y-150568819D01*
X140525524Y-150568819D02*
X140716000Y-149854533D01*
X140716000Y-149854533D02*
X140906476Y-150568819D01*
X140906476Y-150568819D02*
X141144572Y-149568819D01*
X141477905Y-149664057D02*
X141525524Y-149616438D01*
X141525524Y-149616438D02*
X141620762Y-149568819D01*
X141620762Y-149568819D02*
X141858857Y-149568819D01*
X141858857Y-149568819D02*
X141954095Y-149616438D01*
X141954095Y-149616438D02*
X142001714Y-149664057D01*
X142001714Y-149664057D02*
X142049333Y-149759295D01*
X142049333Y-149759295D02*
X142049333Y-149854533D01*
X142049333Y-149854533D02*
X142001714Y-149997390D01*
X142001714Y-149997390D02*
X141430286Y-150568819D01*
X141430286Y-150568819D02*
X142049333Y-150568819D01*
D11*
X138852904Y-166314219D02*
X138977904Y-165314219D01*
X138977904Y-165314219D02*
X139424333Y-166314219D01*
X139424333Y-166314219D02*
X139549333Y-165314219D01*
X140216000Y-165314219D02*
X140406476Y-165314219D01*
X140406476Y-165314219D02*
X140495761Y-165361838D01*
X140495761Y-165361838D02*
X140579095Y-165457076D01*
X140579095Y-165457076D02*
X140602904Y-165647552D01*
X140602904Y-165647552D02*
X140561238Y-165980885D01*
X140561238Y-165980885D02*
X140489809Y-166171361D01*
X140489809Y-166171361D02*
X140382666Y-166266600D01*
X140382666Y-166266600D02*
X140281476Y-166314219D01*
X140281476Y-166314219D02*
X140091000Y-166314219D01*
X140091000Y-166314219D02*
X140001714Y-166266600D01*
X140001714Y-166266600D02*
X139918381Y-166171361D01*
X139918381Y-166171361D02*
X139894571Y-165980885D01*
X139894571Y-165980885D02*
X139936238Y-165647552D01*
X139936238Y-165647552D02*
X140007666Y-165457076D01*
X140007666Y-165457076D02*
X140114809Y-165361838D01*
X140114809Y-165361838D02*
X140216000Y-165314219D01*
X141073142Y-165314219D02*
X140971952Y-166123742D01*
X140971952Y-166123742D02*
X141007666Y-166218980D01*
X141007666Y-166218980D02*
X141049333Y-166266600D01*
X141049333Y-166266600D02*
X141138619Y-166314219D01*
X141138619Y-166314219D02*
X141329095Y-166314219D01*
X141329095Y-166314219D02*
X141430285Y-166266600D01*
X141430285Y-166266600D02*
X141483857Y-166218980D01*
X141483857Y-166218980D02*
X141543380Y-166123742D01*
X141543380Y-166123742D02*
X141644571Y-165314219D01*
X141995761Y-166314219D02*
X142120761Y-165314219D01*
X142120761Y-165314219D02*
X142567190Y-166314219D01*
X142567190Y-166314219D02*
X142692190Y-165314219D01*
D10*
X214463333Y-160008819D02*
X214130000Y-159532628D01*
X213891905Y-160008819D02*
X213891905Y-159008819D01*
X213891905Y-159008819D02*
X214272857Y-159008819D01*
X214272857Y-159008819D02*
X214368095Y-159056438D01*
X214368095Y-159056438D02*
X214415714Y-159104057D01*
X214415714Y-159104057D02*
X214463333Y-159199295D01*
X214463333Y-159199295D02*
X214463333Y-159342152D01*
X214463333Y-159342152D02*
X214415714Y-159437390D01*
X214415714Y-159437390D02*
X214368095Y-159485009D01*
X214368095Y-159485009D02*
X214272857Y-159532628D01*
X214272857Y-159532628D02*
X213891905Y-159532628D01*
X214796667Y-159008819D02*
X215415714Y-159008819D01*
X215415714Y-159008819D02*
X215082381Y-159389771D01*
X215082381Y-159389771D02*
X215225238Y-159389771D01*
X215225238Y-159389771D02*
X215320476Y-159437390D01*
X215320476Y-159437390D02*
X215368095Y-159485009D01*
X215368095Y-159485009D02*
X215415714Y-159580247D01*
X215415714Y-159580247D02*
X215415714Y-159818342D01*
X215415714Y-159818342D02*
X215368095Y-159913580D01*
X215368095Y-159913580D02*
X215320476Y-159961200D01*
X215320476Y-159961200D02*
X215225238Y-160008819D01*
X215225238Y-160008819D02*
X214939524Y-160008819D01*
X214939524Y-160008819D02*
X214844286Y-159961200D01*
X214844286Y-159961200D02*
X214796667Y-159913580D01*
X263739333Y-160008819D02*
X263406000Y-159532628D01*
X263167905Y-160008819D02*
X263167905Y-159008819D01*
X263167905Y-159008819D02*
X263548857Y-159008819D01*
X263548857Y-159008819D02*
X263644095Y-159056438D01*
X263644095Y-159056438D02*
X263691714Y-159104057D01*
X263691714Y-159104057D02*
X263739333Y-159199295D01*
X263739333Y-159199295D02*
X263739333Y-159342152D01*
X263739333Y-159342152D02*
X263691714Y-159437390D01*
X263691714Y-159437390D02*
X263644095Y-159485009D01*
X263644095Y-159485009D02*
X263548857Y-159532628D01*
X263548857Y-159532628D02*
X263167905Y-159532628D01*
X264644095Y-159008819D02*
X264167905Y-159008819D01*
X264167905Y-159008819D02*
X264120286Y-159485009D01*
X264120286Y-159485009D02*
X264167905Y-159437390D01*
X264167905Y-159437390D02*
X264263143Y-159389771D01*
X264263143Y-159389771D02*
X264501238Y-159389771D01*
X264501238Y-159389771D02*
X264596476Y-159437390D01*
X264596476Y-159437390D02*
X264644095Y-159485009D01*
X264644095Y-159485009D02*
X264691714Y-159580247D01*
X264691714Y-159580247D02*
X264691714Y-159818342D01*
X264691714Y-159818342D02*
X264644095Y-159913580D01*
X264644095Y-159913580D02*
X264596476Y-159961200D01*
X264596476Y-159961200D02*
X264501238Y-160008819D01*
X264501238Y-160008819D02*
X264263143Y-160008819D01*
X264263143Y-160008819D02*
X264167905Y-159961200D01*
X264167905Y-159961200D02*
X264120286Y-159913580D01*
X139382667Y-125883200D02*
X139525524Y-125930819D01*
X139525524Y-125930819D02*
X139763619Y-125930819D01*
X139763619Y-125930819D02*
X139858857Y-125883200D01*
X139858857Y-125883200D02*
X139906476Y-125835580D01*
X139906476Y-125835580D02*
X139954095Y-125740342D01*
X139954095Y-125740342D02*
X139954095Y-125645104D01*
X139954095Y-125645104D02*
X139906476Y-125549866D01*
X139906476Y-125549866D02*
X139858857Y-125502247D01*
X139858857Y-125502247D02*
X139763619Y-125454628D01*
X139763619Y-125454628D02*
X139573143Y-125407009D01*
X139573143Y-125407009D02*
X139477905Y-125359390D01*
X139477905Y-125359390D02*
X139430286Y-125311771D01*
X139430286Y-125311771D02*
X139382667Y-125216533D01*
X139382667Y-125216533D02*
X139382667Y-125121295D01*
X139382667Y-125121295D02*
X139430286Y-125026057D01*
X139430286Y-125026057D02*
X139477905Y-124978438D01*
X139477905Y-124978438D02*
X139573143Y-124930819D01*
X139573143Y-124930819D02*
X139811238Y-124930819D01*
X139811238Y-124930819D02*
X139954095Y-124978438D01*
X140287429Y-124930819D02*
X140525524Y-125930819D01*
X140525524Y-125930819D02*
X140716000Y-125216533D01*
X140716000Y-125216533D02*
X140906476Y-125930819D01*
X140906476Y-125930819D02*
X141144572Y-124930819D01*
X142049333Y-125930819D02*
X141477905Y-125930819D01*
X141763619Y-125930819D02*
X141763619Y-124930819D01*
X141763619Y-124930819D02*
X141668381Y-125073676D01*
X141668381Y-125073676D02*
X141573143Y-125168914D01*
X141573143Y-125168914D02*
X141477905Y-125216533D01*
D11*
X139049333Y-140676219D02*
X139257667Y-141676219D01*
X139257667Y-141676219D02*
X139716000Y-140676219D01*
X139989810Y-141152409D02*
X140323143Y-141152409D01*
X140400524Y-141676219D02*
X139924333Y-141676219D01*
X139924333Y-141676219D02*
X140049333Y-140676219D01*
X140049333Y-140676219D02*
X140525524Y-140676219D01*
X141400524Y-141676219D02*
X141126714Y-141200028D01*
X140829095Y-141676219D02*
X140954095Y-140676219D01*
X140954095Y-140676219D02*
X141335048Y-140676219D01*
X141335048Y-140676219D02*
X141424333Y-140723838D01*
X141424333Y-140723838D02*
X141466000Y-140771457D01*
X141466000Y-140771457D02*
X141501714Y-140866695D01*
X141501714Y-140866695D02*
X141483857Y-141009552D01*
X141483857Y-141009552D02*
X141424333Y-141104790D01*
X141424333Y-141104790D02*
X141370762Y-141152409D01*
X141370762Y-141152409D02*
X141269572Y-141200028D01*
X141269572Y-141200028D02*
X140888619Y-141200028D01*
X142227905Y-141152409D02*
X142364810Y-141200028D01*
X142364810Y-141200028D02*
X142406476Y-141247647D01*
X142406476Y-141247647D02*
X142442191Y-141342885D01*
X142442191Y-141342885D02*
X142424333Y-141485742D01*
X142424333Y-141485742D02*
X142364810Y-141580980D01*
X142364810Y-141580980D02*
X142311238Y-141628600D01*
X142311238Y-141628600D02*
X142210048Y-141676219D01*
X142210048Y-141676219D02*
X141829095Y-141676219D01*
X141829095Y-141676219D02*
X141954095Y-140676219D01*
X141954095Y-140676219D02*
X142287429Y-140676219D01*
X142287429Y-140676219D02*
X142376714Y-140723838D01*
X142376714Y-140723838D02*
X142418381Y-140771457D01*
X142418381Y-140771457D02*
X142454095Y-140866695D01*
X142454095Y-140866695D02*
X142442191Y-140961933D01*
X142442191Y-140961933D02*
X142382667Y-141057171D01*
X142382667Y-141057171D02*
X142329095Y-141104790D01*
X142329095Y-141104790D02*
X142227905Y-141152409D01*
X142227905Y-141152409D02*
X141894572Y-141152409D01*
D10*
X213296667Y-113564200D02*
X213439524Y-113611819D01*
X213439524Y-113611819D02*
X213677619Y-113611819D01*
X213677619Y-113611819D02*
X213772857Y-113564200D01*
X213772857Y-113564200D02*
X213820476Y-113516580D01*
X213820476Y-113516580D02*
X213868095Y-113421342D01*
X213868095Y-113421342D02*
X213868095Y-113326104D01*
X213868095Y-113326104D02*
X213820476Y-113230866D01*
X213820476Y-113230866D02*
X213772857Y-113183247D01*
X213772857Y-113183247D02*
X213677619Y-113135628D01*
X213677619Y-113135628D02*
X213487143Y-113088009D01*
X213487143Y-113088009D02*
X213391905Y-113040390D01*
X213391905Y-113040390D02*
X213344286Y-112992771D01*
X213344286Y-112992771D02*
X213296667Y-112897533D01*
X213296667Y-112897533D02*
X213296667Y-112802295D01*
X213296667Y-112802295D02*
X213344286Y-112707057D01*
X213344286Y-112707057D02*
X213391905Y-112659438D01*
X213391905Y-112659438D02*
X213487143Y-112611819D01*
X213487143Y-112611819D02*
X213725238Y-112611819D01*
X213725238Y-112611819D02*
X213868095Y-112659438D01*
X214201429Y-112611819D02*
X214439524Y-113611819D01*
X214439524Y-113611819D02*
X214630000Y-112897533D01*
X214630000Y-112897533D02*
X214820476Y-113611819D01*
X214820476Y-113611819D02*
X215058572Y-112611819D01*
X215487143Y-113611819D02*
X215677619Y-113611819D01*
X215677619Y-113611819D02*
X215772857Y-113564200D01*
X215772857Y-113564200D02*
X215820476Y-113516580D01*
X215820476Y-113516580D02*
X215915714Y-113373723D01*
X215915714Y-113373723D02*
X215963333Y-113183247D01*
X215963333Y-113183247D02*
X215963333Y-112802295D01*
X215963333Y-112802295D02*
X215915714Y-112707057D01*
X215915714Y-112707057D02*
X215868095Y-112659438D01*
X215868095Y-112659438D02*
X215772857Y-112611819D01*
X215772857Y-112611819D02*
X215582381Y-112611819D01*
X215582381Y-112611819D02*
X215487143Y-112659438D01*
X215487143Y-112659438D02*
X215439524Y-112707057D01*
X215439524Y-112707057D02*
X215391905Y-112802295D01*
X215391905Y-112802295D02*
X215391905Y-113040390D01*
X215391905Y-113040390D02*
X215439524Y-113135628D01*
X215439524Y-113135628D02*
X215487143Y-113183247D01*
X215487143Y-113183247D02*
X215582381Y-113230866D01*
X215582381Y-113230866D02*
X215772857Y-113230866D01*
X215772857Y-113230866D02*
X215868095Y-113183247D01*
X215868095Y-113183247D02*
X215915714Y-113135628D01*
X215915714Y-113135628D02*
X215963333Y-113040390D01*
D11*
X214600238Y-128785790D02*
X214510952Y-128738171D01*
X214510952Y-128738171D02*
X214469286Y-128690552D01*
X214469286Y-128690552D02*
X214433571Y-128595314D01*
X214433571Y-128595314D02*
X214439524Y-128547695D01*
X214439524Y-128547695D02*
X214499048Y-128452457D01*
X214499048Y-128452457D02*
X214552619Y-128404838D01*
X214552619Y-128404838D02*
X214653810Y-128357219D01*
X214653810Y-128357219D02*
X214844286Y-128357219D01*
X214844286Y-128357219D02*
X214933571Y-128404838D01*
X214933571Y-128404838D02*
X214975238Y-128452457D01*
X214975238Y-128452457D02*
X215010952Y-128547695D01*
X215010952Y-128547695D02*
X215005000Y-128595314D01*
X215005000Y-128595314D02*
X214945476Y-128690552D01*
X214945476Y-128690552D02*
X214891905Y-128738171D01*
X214891905Y-128738171D02*
X214790714Y-128785790D01*
X214790714Y-128785790D02*
X214600238Y-128785790D01*
X214600238Y-128785790D02*
X214499048Y-128833409D01*
X214499048Y-128833409D02*
X214445476Y-128881028D01*
X214445476Y-128881028D02*
X214385952Y-128976266D01*
X214385952Y-128976266D02*
X214362143Y-129166742D01*
X214362143Y-129166742D02*
X214397857Y-129261980D01*
X214397857Y-129261980D02*
X214439524Y-129309600D01*
X214439524Y-129309600D02*
X214528810Y-129357219D01*
X214528810Y-129357219D02*
X214719286Y-129357219D01*
X214719286Y-129357219D02*
X214820476Y-129309600D01*
X214820476Y-129309600D02*
X214874048Y-129261980D01*
X214874048Y-129261980D02*
X214933571Y-129166742D01*
X214933571Y-129166742D02*
X214957381Y-128976266D01*
X214957381Y-128976266D02*
X214921667Y-128881028D01*
X214921667Y-128881028D02*
X214880000Y-128833409D01*
X214880000Y-128833409D02*
X214790714Y-128785790D01*
D10*
X164020667Y-138202200D02*
X164163524Y-138249819D01*
X164163524Y-138249819D02*
X164401619Y-138249819D01*
X164401619Y-138249819D02*
X164496857Y-138202200D01*
X164496857Y-138202200D02*
X164544476Y-138154580D01*
X164544476Y-138154580D02*
X164592095Y-138059342D01*
X164592095Y-138059342D02*
X164592095Y-137964104D01*
X164592095Y-137964104D02*
X164544476Y-137868866D01*
X164544476Y-137868866D02*
X164496857Y-137821247D01*
X164496857Y-137821247D02*
X164401619Y-137773628D01*
X164401619Y-137773628D02*
X164211143Y-137726009D01*
X164211143Y-137726009D02*
X164115905Y-137678390D01*
X164115905Y-137678390D02*
X164068286Y-137630771D01*
X164068286Y-137630771D02*
X164020667Y-137535533D01*
X164020667Y-137535533D02*
X164020667Y-137440295D01*
X164020667Y-137440295D02*
X164068286Y-137345057D01*
X164068286Y-137345057D02*
X164115905Y-137297438D01*
X164115905Y-137297438D02*
X164211143Y-137249819D01*
X164211143Y-137249819D02*
X164449238Y-137249819D01*
X164449238Y-137249819D02*
X164592095Y-137297438D01*
X164925429Y-137249819D02*
X165163524Y-138249819D01*
X165163524Y-138249819D02*
X165354000Y-137535533D01*
X165354000Y-137535533D02*
X165544476Y-138249819D01*
X165544476Y-138249819D02*
X165782572Y-137249819D01*
X166592095Y-137583152D02*
X166592095Y-138249819D01*
X166354000Y-137202200D02*
X166115905Y-137916485D01*
X166115905Y-137916485D02*
X166734952Y-137916485D01*
D11*
X165014714Y-153614266D02*
X165776619Y-153614266D01*
D10*
X262096476Y-138202200D02*
X262239333Y-138249819D01*
X262239333Y-138249819D02*
X262477428Y-138249819D01*
X262477428Y-138249819D02*
X262572666Y-138202200D01*
X262572666Y-138202200D02*
X262620285Y-138154580D01*
X262620285Y-138154580D02*
X262667904Y-138059342D01*
X262667904Y-138059342D02*
X262667904Y-137964104D01*
X262667904Y-137964104D02*
X262620285Y-137868866D01*
X262620285Y-137868866D02*
X262572666Y-137821247D01*
X262572666Y-137821247D02*
X262477428Y-137773628D01*
X262477428Y-137773628D02*
X262286952Y-137726009D01*
X262286952Y-137726009D02*
X262191714Y-137678390D01*
X262191714Y-137678390D02*
X262144095Y-137630771D01*
X262144095Y-137630771D02*
X262096476Y-137535533D01*
X262096476Y-137535533D02*
X262096476Y-137440295D01*
X262096476Y-137440295D02*
X262144095Y-137345057D01*
X262144095Y-137345057D02*
X262191714Y-137297438D01*
X262191714Y-137297438D02*
X262286952Y-137249819D01*
X262286952Y-137249819D02*
X262525047Y-137249819D01*
X262525047Y-137249819D02*
X262667904Y-137297438D01*
X263001238Y-137249819D02*
X263239333Y-138249819D01*
X263239333Y-138249819D02*
X263429809Y-137535533D01*
X263429809Y-137535533D02*
X263620285Y-138249819D01*
X263620285Y-138249819D02*
X263858381Y-137249819D01*
X264763142Y-138249819D02*
X264191714Y-138249819D01*
X264477428Y-138249819D02*
X264477428Y-137249819D01*
X264477428Y-137249819D02*
X264382190Y-137392676D01*
X264382190Y-137392676D02*
X264286952Y-137487914D01*
X264286952Y-137487914D02*
X264191714Y-137535533D01*
X265620285Y-137249819D02*
X265429809Y-137249819D01*
X265429809Y-137249819D02*
X265334571Y-137297438D01*
X265334571Y-137297438D02*
X265286952Y-137345057D01*
X265286952Y-137345057D02*
X265191714Y-137487914D01*
X265191714Y-137487914D02*
X265144095Y-137678390D01*
X265144095Y-137678390D02*
X265144095Y-138059342D01*
X265144095Y-138059342D02*
X265191714Y-138154580D01*
X265191714Y-138154580D02*
X265239333Y-138202200D01*
X265239333Y-138202200D02*
X265334571Y-138249819D01*
X265334571Y-138249819D02*
X265525047Y-138249819D01*
X265525047Y-138249819D02*
X265620285Y-138202200D01*
X265620285Y-138202200D02*
X265667904Y-138154580D01*
X265667904Y-138154580D02*
X265715523Y-138059342D01*
X265715523Y-138059342D02*
X265715523Y-137821247D01*
X265715523Y-137821247D02*
X265667904Y-137726009D01*
X265667904Y-137726009D02*
X265620285Y-137678390D01*
X265620285Y-137678390D02*
X265525047Y-137630771D01*
X265525047Y-137630771D02*
X265334571Y-137630771D01*
X265334571Y-137630771D02*
X265239333Y-137678390D01*
X265239333Y-137678390D02*
X265191714Y-137726009D01*
X265191714Y-137726009D02*
X265144095Y-137821247D01*
D11*
X262614333Y-153995219D02*
X262739333Y-152995219D01*
X262739333Y-152995219D02*
X263120286Y-152995219D01*
X263120286Y-152995219D02*
X263209571Y-153042838D01*
X263209571Y-153042838D02*
X263251238Y-153090457D01*
X263251238Y-153090457D02*
X263286952Y-153185695D01*
X263286952Y-153185695D02*
X263269095Y-153328552D01*
X263269095Y-153328552D02*
X263209571Y-153423790D01*
X263209571Y-153423790D02*
X263156000Y-153471409D01*
X263156000Y-153471409D02*
X263054810Y-153519028D01*
X263054810Y-153519028D02*
X262673857Y-153519028D01*
X264185762Y-153995219D02*
X263911952Y-153519028D01*
X263614333Y-153995219D02*
X263739333Y-152995219D01*
X263739333Y-152995219D02*
X264120286Y-152995219D01*
X264120286Y-152995219D02*
X264209571Y-153042838D01*
X264209571Y-153042838D02*
X264251238Y-153090457D01*
X264251238Y-153090457D02*
X264286952Y-153185695D01*
X264286952Y-153185695D02*
X264269095Y-153328552D01*
X264269095Y-153328552D02*
X264209571Y-153423790D01*
X264209571Y-153423790D02*
X264156000Y-153471409D01*
X264156000Y-153471409D02*
X264054810Y-153519028D01*
X264054810Y-153519028D02*
X263673857Y-153519028D01*
X264929810Y-152995219D02*
X265120286Y-152995219D01*
X265120286Y-152995219D02*
X265209571Y-153042838D01*
X265209571Y-153042838D02*
X265292905Y-153138076D01*
X265292905Y-153138076D02*
X265316714Y-153328552D01*
X265316714Y-153328552D02*
X265275048Y-153661885D01*
X265275048Y-153661885D02*
X265203619Y-153852361D01*
X265203619Y-153852361D02*
X265096476Y-153947600D01*
X265096476Y-153947600D02*
X264995286Y-153995219D01*
X264995286Y-153995219D02*
X264804810Y-153995219D01*
X264804810Y-153995219D02*
X264715524Y-153947600D01*
X264715524Y-153947600D02*
X264632191Y-153852361D01*
X264632191Y-153852361D02*
X264608381Y-153661885D01*
X264608381Y-153661885D02*
X264650048Y-153328552D01*
X264650048Y-153328552D02*
X264721476Y-153138076D01*
X264721476Y-153138076D02*
X264828619Y-153042838D01*
X264828619Y-153042838D02*
X264929810Y-152995219D01*
D10*
X188658667Y-138202200D02*
X188801524Y-138249819D01*
X188801524Y-138249819D02*
X189039619Y-138249819D01*
X189039619Y-138249819D02*
X189134857Y-138202200D01*
X189134857Y-138202200D02*
X189182476Y-138154580D01*
X189182476Y-138154580D02*
X189230095Y-138059342D01*
X189230095Y-138059342D02*
X189230095Y-137964104D01*
X189230095Y-137964104D02*
X189182476Y-137868866D01*
X189182476Y-137868866D02*
X189134857Y-137821247D01*
X189134857Y-137821247D02*
X189039619Y-137773628D01*
X189039619Y-137773628D02*
X188849143Y-137726009D01*
X188849143Y-137726009D02*
X188753905Y-137678390D01*
X188753905Y-137678390D02*
X188706286Y-137630771D01*
X188706286Y-137630771D02*
X188658667Y-137535533D01*
X188658667Y-137535533D02*
X188658667Y-137440295D01*
X188658667Y-137440295D02*
X188706286Y-137345057D01*
X188706286Y-137345057D02*
X188753905Y-137297438D01*
X188753905Y-137297438D02*
X188849143Y-137249819D01*
X188849143Y-137249819D02*
X189087238Y-137249819D01*
X189087238Y-137249819D02*
X189230095Y-137297438D01*
X189563429Y-137249819D02*
X189801524Y-138249819D01*
X189801524Y-138249819D02*
X189992000Y-137535533D01*
X189992000Y-137535533D02*
X190182476Y-138249819D01*
X190182476Y-138249819D02*
X190420572Y-137249819D01*
X190706286Y-137249819D02*
X191372952Y-137249819D01*
X191372952Y-137249819D02*
X190944381Y-138249819D01*
D11*
X190259857Y-153328552D02*
X190176524Y-153995219D01*
X190069381Y-152947600D02*
X189742000Y-153661885D01*
X189742000Y-153661885D02*
X190361048Y-153661885D01*
D10*
X262096476Y-113564200D02*
X262239333Y-113611819D01*
X262239333Y-113611819D02*
X262477428Y-113611819D01*
X262477428Y-113611819D02*
X262572666Y-113564200D01*
X262572666Y-113564200D02*
X262620285Y-113516580D01*
X262620285Y-113516580D02*
X262667904Y-113421342D01*
X262667904Y-113421342D02*
X262667904Y-113326104D01*
X262667904Y-113326104D02*
X262620285Y-113230866D01*
X262620285Y-113230866D02*
X262572666Y-113183247D01*
X262572666Y-113183247D02*
X262477428Y-113135628D01*
X262477428Y-113135628D02*
X262286952Y-113088009D01*
X262286952Y-113088009D02*
X262191714Y-113040390D01*
X262191714Y-113040390D02*
X262144095Y-112992771D01*
X262144095Y-112992771D02*
X262096476Y-112897533D01*
X262096476Y-112897533D02*
X262096476Y-112802295D01*
X262096476Y-112802295D02*
X262144095Y-112707057D01*
X262144095Y-112707057D02*
X262191714Y-112659438D01*
X262191714Y-112659438D02*
X262286952Y-112611819D01*
X262286952Y-112611819D02*
X262525047Y-112611819D01*
X262525047Y-112611819D02*
X262667904Y-112659438D01*
X263001238Y-112611819D02*
X263239333Y-113611819D01*
X263239333Y-113611819D02*
X263429809Y-112897533D01*
X263429809Y-112897533D02*
X263620285Y-113611819D01*
X263620285Y-113611819D02*
X263858381Y-112611819D01*
X264763142Y-113611819D02*
X264191714Y-113611819D01*
X264477428Y-113611819D02*
X264477428Y-112611819D01*
X264477428Y-112611819D02*
X264382190Y-112754676D01*
X264382190Y-112754676D02*
X264286952Y-112849914D01*
X264286952Y-112849914D02*
X264191714Y-112897533D01*
X265667904Y-112611819D02*
X265191714Y-112611819D01*
X265191714Y-112611819D02*
X265144095Y-113088009D01*
X265144095Y-113088009D02*
X265191714Y-113040390D01*
X265191714Y-113040390D02*
X265286952Y-112992771D01*
X265286952Y-112992771D02*
X265525047Y-112992771D01*
X265525047Y-112992771D02*
X265620285Y-113040390D01*
X265620285Y-113040390D02*
X265667904Y-113088009D01*
X265667904Y-113088009D02*
X265715523Y-113183247D01*
X265715523Y-113183247D02*
X265715523Y-113421342D01*
X265715523Y-113421342D02*
X265667904Y-113516580D01*
X265667904Y-113516580D02*
X265620285Y-113564200D01*
X265620285Y-113564200D02*
X265525047Y-113611819D01*
X265525047Y-113611819D02*
X265286952Y-113611819D01*
X265286952Y-113611819D02*
X265191714Y-113564200D01*
X265191714Y-113564200D02*
X265144095Y-113516580D01*
D11*
X263316714Y-129261980D02*
X263263142Y-129309600D01*
X263263142Y-129309600D02*
X263114333Y-129357219D01*
X263114333Y-129357219D02*
X263019095Y-129357219D01*
X263019095Y-129357219D02*
X262882190Y-129309600D01*
X262882190Y-129309600D02*
X262798857Y-129214361D01*
X262798857Y-129214361D02*
X262763142Y-129119123D01*
X262763142Y-129119123D02*
X262739333Y-128928647D01*
X262739333Y-128928647D02*
X262757190Y-128785790D01*
X262757190Y-128785790D02*
X262828618Y-128595314D01*
X262828618Y-128595314D02*
X262888142Y-128500076D01*
X262888142Y-128500076D02*
X262995285Y-128404838D01*
X262995285Y-128404838D02*
X263144095Y-128357219D01*
X263144095Y-128357219D02*
X263239333Y-128357219D01*
X263239333Y-128357219D02*
X263376238Y-128404838D01*
X263376238Y-128404838D02*
X263417904Y-128452457D01*
X264209571Y-129357219D02*
X263733380Y-129357219D01*
X263733380Y-129357219D02*
X263858380Y-128357219D01*
X265114333Y-129357219D02*
X264840523Y-128881028D01*
X264542904Y-129357219D02*
X264667904Y-128357219D01*
X264667904Y-128357219D02*
X265048857Y-128357219D01*
X265048857Y-128357219D02*
X265138142Y-128404838D01*
X265138142Y-128404838D02*
X265179809Y-128452457D01*
X265179809Y-128452457D02*
X265215523Y-128547695D01*
X265215523Y-128547695D02*
X265197666Y-128690552D01*
X265197666Y-128690552D02*
X265138142Y-128785790D01*
X265138142Y-128785790D02*
X265084571Y-128833409D01*
X265084571Y-128833409D02*
X264983381Y-128881028D01*
X264983381Y-128881028D02*
X264602428Y-128881028D01*
D10*
X262096476Y-162840200D02*
X262239333Y-162887819D01*
X262239333Y-162887819D02*
X262477428Y-162887819D01*
X262477428Y-162887819D02*
X262572666Y-162840200D01*
X262572666Y-162840200D02*
X262620285Y-162792580D01*
X262620285Y-162792580D02*
X262667904Y-162697342D01*
X262667904Y-162697342D02*
X262667904Y-162602104D01*
X262667904Y-162602104D02*
X262620285Y-162506866D01*
X262620285Y-162506866D02*
X262572666Y-162459247D01*
X262572666Y-162459247D02*
X262477428Y-162411628D01*
X262477428Y-162411628D02*
X262286952Y-162364009D01*
X262286952Y-162364009D02*
X262191714Y-162316390D01*
X262191714Y-162316390D02*
X262144095Y-162268771D01*
X262144095Y-162268771D02*
X262096476Y-162173533D01*
X262096476Y-162173533D02*
X262096476Y-162078295D01*
X262096476Y-162078295D02*
X262144095Y-161983057D01*
X262144095Y-161983057D02*
X262191714Y-161935438D01*
X262191714Y-161935438D02*
X262286952Y-161887819D01*
X262286952Y-161887819D02*
X262525047Y-161887819D01*
X262525047Y-161887819D02*
X262667904Y-161935438D01*
X263001238Y-161887819D02*
X263239333Y-162887819D01*
X263239333Y-162887819D02*
X263429809Y-162173533D01*
X263429809Y-162173533D02*
X263620285Y-162887819D01*
X263620285Y-162887819D02*
X263858381Y-161887819D01*
X264763142Y-162887819D02*
X264191714Y-162887819D01*
X264477428Y-162887819D02*
X264477428Y-161887819D01*
X264477428Y-161887819D02*
X264382190Y-162030676D01*
X264382190Y-162030676D02*
X264286952Y-162125914D01*
X264286952Y-162125914D02*
X264191714Y-162173533D01*
X265096476Y-161887819D02*
X265763142Y-161887819D01*
X265763142Y-161887819D02*
X265334571Y-162887819D01*
D11*
X261400047Y-178633219D02*
X261525047Y-177633219D01*
X261971476Y-178633219D02*
X261614333Y-178061790D01*
X262096476Y-177633219D02*
X261453619Y-178204647D01*
X262465524Y-178109409D02*
X262798857Y-178109409D01*
X262876238Y-178633219D02*
X262400047Y-178633219D01*
X262400047Y-178633219D02*
X262525047Y-177633219D01*
X262525047Y-177633219D02*
X263001238Y-177633219D01*
X263554809Y-178157028D02*
X263495286Y-178633219D01*
X263286952Y-177633219D02*
X263554809Y-178157028D01*
X263554809Y-178157028D02*
X263953619Y-177633219D01*
X264733381Y-178633219D02*
X264459571Y-178157028D01*
X264161952Y-178633219D02*
X264286952Y-177633219D01*
X264286952Y-177633219D02*
X264667905Y-177633219D01*
X264667905Y-177633219D02*
X264757190Y-177680838D01*
X264757190Y-177680838D02*
X264798857Y-177728457D01*
X264798857Y-177728457D02*
X264834571Y-177823695D01*
X264834571Y-177823695D02*
X264816714Y-177966552D01*
X264816714Y-177966552D02*
X264757190Y-178061790D01*
X264757190Y-178061790D02*
X264703619Y-178109409D01*
X264703619Y-178109409D02*
X264602429Y-178157028D01*
X264602429Y-178157028D02*
X264221476Y-178157028D01*
X265227429Y-178109409D02*
X265560762Y-178109409D01*
X265638143Y-178633219D02*
X265161952Y-178633219D01*
X265161952Y-178633219D02*
X265286952Y-177633219D01*
X265286952Y-177633219D02*
X265763143Y-177633219D01*
X266542905Y-178633219D02*
X266066714Y-178633219D01*
X266066714Y-178633219D02*
X266191714Y-177633219D01*
D10*
X212820476Y-135535200D02*
X212963333Y-135582819D01*
X212963333Y-135582819D02*
X213201428Y-135582819D01*
X213201428Y-135582819D02*
X213296666Y-135535200D01*
X213296666Y-135535200D02*
X213344285Y-135487580D01*
X213344285Y-135487580D02*
X213391904Y-135392342D01*
X213391904Y-135392342D02*
X213391904Y-135297104D01*
X213391904Y-135297104D02*
X213344285Y-135201866D01*
X213344285Y-135201866D02*
X213296666Y-135154247D01*
X213296666Y-135154247D02*
X213201428Y-135106628D01*
X213201428Y-135106628D02*
X213010952Y-135059009D01*
X213010952Y-135059009D02*
X212915714Y-135011390D01*
X212915714Y-135011390D02*
X212868095Y-134963771D01*
X212868095Y-134963771D02*
X212820476Y-134868533D01*
X212820476Y-134868533D02*
X212820476Y-134773295D01*
X212820476Y-134773295D02*
X212868095Y-134678057D01*
X212868095Y-134678057D02*
X212915714Y-134630438D01*
X212915714Y-134630438D02*
X213010952Y-134582819D01*
X213010952Y-134582819D02*
X213249047Y-134582819D01*
X213249047Y-134582819D02*
X213391904Y-134630438D01*
X213725238Y-134582819D02*
X213963333Y-135582819D01*
X213963333Y-135582819D02*
X214153809Y-134868533D01*
X214153809Y-134868533D02*
X214344285Y-135582819D01*
X214344285Y-135582819D02*
X214582381Y-134582819D01*
X215487142Y-135582819D02*
X214915714Y-135582819D01*
X215201428Y-135582819D02*
X215201428Y-134582819D01*
X215201428Y-134582819D02*
X215106190Y-134725676D01*
X215106190Y-134725676D02*
X215010952Y-134820914D01*
X215010952Y-134820914D02*
X214915714Y-134868533D01*
X216106190Y-134582819D02*
X216201428Y-134582819D01*
X216201428Y-134582819D02*
X216296666Y-134630438D01*
X216296666Y-134630438D02*
X216344285Y-134678057D01*
X216344285Y-134678057D02*
X216391904Y-134773295D01*
X216391904Y-134773295D02*
X216439523Y-134963771D01*
X216439523Y-134963771D02*
X216439523Y-135201866D01*
X216439523Y-135201866D02*
X216391904Y-135392342D01*
X216391904Y-135392342D02*
X216344285Y-135487580D01*
X216344285Y-135487580D02*
X216296666Y-135535200D01*
X216296666Y-135535200D02*
X216201428Y-135582819D01*
X216201428Y-135582819D02*
X216106190Y-135582819D01*
X216106190Y-135582819D02*
X216010952Y-135535200D01*
X216010952Y-135535200D02*
X215963333Y-135487580D01*
X215963333Y-135487580D02*
X215915714Y-135392342D01*
X215915714Y-135392342D02*
X215868095Y-135201866D01*
X215868095Y-135201866D02*
X215868095Y-134963771D01*
X215868095Y-134963771D02*
X215915714Y-134773295D01*
X215915714Y-134773295D02*
X215963333Y-134678057D01*
X215963333Y-134678057D02*
X216010952Y-134630438D01*
X216010952Y-134630438D02*
X216106190Y-134582819D01*
D11*
X223027143Y-146541219D02*
X222550952Y-146541219D01*
X222550952Y-146541219D02*
X222443810Y-147017409D01*
X222443810Y-147017409D02*
X222497381Y-146969790D01*
X222497381Y-146969790D02*
X222598571Y-146922171D01*
X222598571Y-146922171D02*
X222836667Y-146922171D01*
X222836667Y-146922171D02*
X222925952Y-146969790D01*
X222925952Y-146969790D02*
X222967619Y-147017409D01*
X222967619Y-147017409D02*
X223003333Y-147112647D01*
X223003333Y-147112647D02*
X222973571Y-147350742D01*
X222973571Y-147350742D02*
X222914048Y-147445980D01*
X222914048Y-147445980D02*
X222860476Y-147493600D01*
X222860476Y-147493600D02*
X222759286Y-147541219D01*
X222759286Y-147541219D02*
X222521190Y-147541219D01*
X222521190Y-147541219D02*
X222431905Y-147493600D01*
X222431905Y-147493600D02*
X222390238Y-147445980D01*
D10*
X237458476Y-113564200D02*
X237601333Y-113611819D01*
X237601333Y-113611819D02*
X237839428Y-113611819D01*
X237839428Y-113611819D02*
X237934666Y-113564200D01*
X237934666Y-113564200D02*
X237982285Y-113516580D01*
X237982285Y-113516580D02*
X238029904Y-113421342D01*
X238029904Y-113421342D02*
X238029904Y-113326104D01*
X238029904Y-113326104D02*
X237982285Y-113230866D01*
X237982285Y-113230866D02*
X237934666Y-113183247D01*
X237934666Y-113183247D02*
X237839428Y-113135628D01*
X237839428Y-113135628D02*
X237648952Y-113088009D01*
X237648952Y-113088009D02*
X237553714Y-113040390D01*
X237553714Y-113040390D02*
X237506095Y-112992771D01*
X237506095Y-112992771D02*
X237458476Y-112897533D01*
X237458476Y-112897533D02*
X237458476Y-112802295D01*
X237458476Y-112802295D02*
X237506095Y-112707057D01*
X237506095Y-112707057D02*
X237553714Y-112659438D01*
X237553714Y-112659438D02*
X237648952Y-112611819D01*
X237648952Y-112611819D02*
X237887047Y-112611819D01*
X237887047Y-112611819D02*
X238029904Y-112659438D01*
X238363238Y-112611819D02*
X238601333Y-113611819D01*
X238601333Y-113611819D02*
X238791809Y-112897533D01*
X238791809Y-112897533D02*
X238982285Y-113611819D01*
X238982285Y-113611819D02*
X239220381Y-112611819D01*
X240125142Y-113611819D02*
X239553714Y-113611819D01*
X239839428Y-113611819D02*
X239839428Y-112611819D01*
X239839428Y-112611819D02*
X239744190Y-112754676D01*
X239744190Y-112754676D02*
X239648952Y-112849914D01*
X239648952Y-112849914D02*
X239553714Y-112897533D01*
X240506095Y-112707057D02*
X240553714Y-112659438D01*
X240553714Y-112659438D02*
X240648952Y-112611819D01*
X240648952Y-112611819D02*
X240887047Y-112611819D01*
X240887047Y-112611819D02*
X240982285Y-112659438D01*
X240982285Y-112659438D02*
X241029904Y-112707057D01*
X241029904Y-112707057D02*
X241077523Y-112802295D01*
X241077523Y-112802295D02*
X241077523Y-112897533D01*
X241077523Y-112897533D02*
X241029904Y-113040390D01*
X241029904Y-113040390D02*
X240458476Y-113611819D01*
X240458476Y-113611819D02*
X241077523Y-113611819D01*
D11*
X239071571Y-129357219D02*
X239262048Y-129357219D01*
X239262048Y-129357219D02*
X239363238Y-129309600D01*
X239363238Y-129309600D02*
X239416810Y-129261980D01*
X239416810Y-129261980D02*
X239529905Y-129119123D01*
X239529905Y-129119123D02*
X239601333Y-128928647D01*
X239601333Y-128928647D02*
X239648952Y-128547695D01*
X239648952Y-128547695D02*
X239613238Y-128452457D01*
X239613238Y-128452457D02*
X239571571Y-128404838D01*
X239571571Y-128404838D02*
X239482286Y-128357219D01*
X239482286Y-128357219D02*
X239291810Y-128357219D01*
X239291810Y-128357219D02*
X239190619Y-128404838D01*
X239190619Y-128404838D02*
X239137048Y-128452457D01*
X239137048Y-128452457D02*
X239077524Y-128547695D01*
X239077524Y-128547695D02*
X239047762Y-128785790D01*
X239047762Y-128785790D02*
X239083476Y-128881028D01*
X239083476Y-128881028D02*
X239125143Y-128928647D01*
X239125143Y-128928647D02*
X239214429Y-128976266D01*
X239214429Y-128976266D02*
X239404905Y-128976266D01*
X239404905Y-128976266D02*
X239506095Y-128928647D01*
X239506095Y-128928647D02*
X239559667Y-128881028D01*
X239559667Y-128881028D02*
X239619190Y-128785790D01*
D10*
X239101333Y-160008819D02*
X238768000Y-159532628D01*
X238529905Y-160008819D02*
X238529905Y-159008819D01*
X238529905Y-159008819D02*
X238910857Y-159008819D01*
X238910857Y-159008819D02*
X239006095Y-159056438D01*
X239006095Y-159056438D02*
X239053714Y-159104057D01*
X239053714Y-159104057D02*
X239101333Y-159199295D01*
X239101333Y-159199295D02*
X239101333Y-159342152D01*
X239101333Y-159342152D02*
X239053714Y-159437390D01*
X239053714Y-159437390D02*
X239006095Y-159485009D01*
X239006095Y-159485009D02*
X238910857Y-159532628D01*
X238910857Y-159532628D02*
X238529905Y-159532628D01*
X239958476Y-159342152D02*
X239958476Y-160008819D01*
X239720381Y-158961200D02*
X239482286Y-159675485D01*
X239482286Y-159675485D02*
X240101333Y-159675485D01*
X152583333Y-130704819D02*
X152250000Y-130228628D01*
X152011905Y-130704819D02*
X152011905Y-129704819D01*
X152011905Y-129704819D02*
X152392857Y-129704819D01*
X152392857Y-129704819D02*
X152488095Y-129752438D01*
X152488095Y-129752438D02*
X152535714Y-129800057D01*
X152535714Y-129800057D02*
X152583333Y-129895295D01*
X152583333Y-129895295D02*
X152583333Y-130038152D01*
X152583333Y-130038152D02*
X152535714Y-130133390D01*
X152535714Y-130133390D02*
X152488095Y-130181009D01*
X152488095Y-130181009D02*
X152392857Y-130228628D01*
X152392857Y-130228628D02*
X152011905Y-130228628D01*
X153440476Y-129704819D02*
X153250000Y-129704819D01*
X153250000Y-129704819D02*
X153154762Y-129752438D01*
X153154762Y-129752438D02*
X153107143Y-129800057D01*
X153107143Y-129800057D02*
X153011905Y-129942914D01*
X153011905Y-129942914D02*
X152964286Y-130133390D01*
X152964286Y-130133390D02*
X152964286Y-130514342D01*
X152964286Y-130514342D02*
X153011905Y-130609580D01*
X153011905Y-130609580D02*
X153059524Y-130657200D01*
X153059524Y-130657200D02*
X153154762Y-130704819D01*
X153154762Y-130704819D02*
X153345238Y-130704819D01*
X153345238Y-130704819D02*
X153440476Y-130657200D01*
X153440476Y-130657200D02*
X153488095Y-130609580D01*
X153488095Y-130609580D02*
X153535714Y-130514342D01*
X153535714Y-130514342D02*
X153535714Y-130276247D01*
X153535714Y-130276247D02*
X153488095Y-130181009D01*
X153488095Y-130181009D02*
X153440476Y-130133390D01*
X153440476Y-130133390D02*
X153345238Y-130085771D01*
X153345238Y-130085771D02*
X153154762Y-130085771D01*
X153154762Y-130085771D02*
X153059524Y-130133390D01*
X153059524Y-130133390D02*
X153011905Y-130181009D01*
X153011905Y-130181009D02*
X152964286Y-130276247D01*
X212820476Y-162840200D02*
X212963333Y-162887819D01*
X212963333Y-162887819D02*
X213201428Y-162887819D01*
X213201428Y-162887819D02*
X213296666Y-162840200D01*
X213296666Y-162840200D02*
X213344285Y-162792580D01*
X213344285Y-162792580D02*
X213391904Y-162697342D01*
X213391904Y-162697342D02*
X213391904Y-162602104D01*
X213391904Y-162602104D02*
X213344285Y-162506866D01*
X213344285Y-162506866D02*
X213296666Y-162459247D01*
X213296666Y-162459247D02*
X213201428Y-162411628D01*
X213201428Y-162411628D02*
X213010952Y-162364009D01*
X213010952Y-162364009D02*
X212915714Y-162316390D01*
X212915714Y-162316390D02*
X212868095Y-162268771D01*
X212868095Y-162268771D02*
X212820476Y-162173533D01*
X212820476Y-162173533D02*
X212820476Y-162078295D01*
X212820476Y-162078295D02*
X212868095Y-161983057D01*
X212868095Y-161983057D02*
X212915714Y-161935438D01*
X212915714Y-161935438D02*
X213010952Y-161887819D01*
X213010952Y-161887819D02*
X213249047Y-161887819D01*
X213249047Y-161887819D02*
X213391904Y-161935438D01*
X213725238Y-161887819D02*
X213963333Y-162887819D01*
X213963333Y-162887819D02*
X214153809Y-162173533D01*
X214153809Y-162173533D02*
X214344285Y-162887819D01*
X214344285Y-162887819D02*
X214582381Y-161887819D01*
X215487142Y-162887819D02*
X214915714Y-162887819D01*
X215201428Y-162887819D02*
X215201428Y-161887819D01*
X215201428Y-161887819D02*
X215106190Y-162030676D01*
X215106190Y-162030676D02*
X215010952Y-162125914D01*
X215010952Y-162125914D02*
X214915714Y-162173533D01*
X216439523Y-162887819D02*
X215868095Y-162887819D01*
X216153809Y-162887819D02*
X216153809Y-161887819D01*
X216153809Y-161887819D02*
X216058571Y-162030676D01*
X216058571Y-162030676D02*
X215963333Y-162125914D01*
X215963333Y-162125914D02*
X215868095Y-162173533D01*
D11*
X214451429Y-177728457D02*
X214505000Y-177680838D01*
X214505000Y-177680838D02*
X214606190Y-177633219D01*
X214606190Y-177633219D02*
X214844286Y-177633219D01*
X214844286Y-177633219D02*
X214933571Y-177680838D01*
X214933571Y-177680838D02*
X214975238Y-177728457D01*
X214975238Y-177728457D02*
X215010952Y-177823695D01*
X215010952Y-177823695D02*
X214999048Y-177918933D01*
X214999048Y-177918933D02*
X214933571Y-178061790D01*
X214933571Y-178061790D02*
X214290714Y-178633219D01*
X214290714Y-178633219D02*
X214909762Y-178633219D01*
D10*
X188658667Y-113564200D02*
X188801524Y-113611819D01*
X188801524Y-113611819D02*
X189039619Y-113611819D01*
X189039619Y-113611819D02*
X189134857Y-113564200D01*
X189134857Y-113564200D02*
X189182476Y-113516580D01*
X189182476Y-113516580D02*
X189230095Y-113421342D01*
X189230095Y-113421342D02*
X189230095Y-113326104D01*
X189230095Y-113326104D02*
X189182476Y-113230866D01*
X189182476Y-113230866D02*
X189134857Y-113183247D01*
X189134857Y-113183247D02*
X189039619Y-113135628D01*
X189039619Y-113135628D02*
X188849143Y-113088009D01*
X188849143Y-113088009D02*
X188753905Y-113040390D01*
X188753905Y-113040390D02*
X188706286Y-112992771D01*
X188706286Y-112992771D02*
X188658667Y-112897533D01*
X188658667Y-112897533D02*
X188658667Y-112802295D01*
X188658667Y-112802295D02*
X188706286Y-112707057D01*
X188706286Y-112707057D02*
X188753905Y-112659438D01*
X188753905Y-112659438D02*
X188849143Y-112611819D01*
X188849143Y-112611819D02*
X189087238Y-112611819D01*
X189087238Y-112611819D02*
X189230095Y-112659438D01*
X189563429Y-112611819D02*
X189801524Y-113611819D01*
X189801524Y-113611819D02*
X189992000Y-112897533D01*
X189992000Y-112897533D02*
X190182476Y-113611819D01*
X190182476Y-113611819D02*
X190420572Y-112611819D01*
X191230095Y-112611819D02*
X191039619Y-112611819D01*
X191039619Y-112611819D02*
X190944381Y-112659438D01*
X190944381Y-112659438D02*
X190896762Y-112707057D01*
X190896762Y-112707057D02*
X190801524Y-112849914D01*
X190801524Y-112849914D02*
X190753905Y-113040390D01*
X190753905Y-113040390D02*
X190753905Y-113421342D01*
X190753905Y-113421342D02*
X190801524Y-113516580D01*
X190801524Y-113516580D02*
X190849143Y-113564200D01*
X190849143Y-113564200D02*
X190944381Y-113611819D01*
X190944381Y-113611819D02*
X191134857Y-113611819D01*
X191134857Y-113611819D02*
X191230095Y-113564200D01*
X191230095Y-113564200D02*
X191277714Y-113516580D01*
X191277714Y-113516580D02*
X191325333Y-113421342D01*
X191325333Y-113421342D02*
X191325333Y-113183247D01*
X191325333Y-113183247D02*
X191277714Y-113088009D01*
X191277714Y-113088009D02*
X191230095Y-113040390D01*
X191230095Y-113040390D02*
X191134857Y-112992771D01*
X191134857Y-112992771D02*
X190944381Y-112992771D01*
X190944381Y-112992771D02*
X190849143Y-113040390D01*
X190849143Y-113040390D02*
X190801524Y-113088009D01*
X190801524Y-113088009D02*
X190753905Y-113183247D01*
D11*
X189777714Y-128357219D02*
X190444381Y-128357219D01*
X190444381Y-128357219D02*
X189890810Y-129357219D01*
D10*
X226980761Y-126986057D02*
X226885523Y-126938438D01*
X226885523Y-126938438D02*
X226790285Y-126843200D01*
X226790285Y-126843200D02*
X226647428Y-126700342D01*
X226647428Y-126700342D02*
X226552190Y-126652723D01*
X226552190Y-126652723D02*
X226456952Y-126652723D01*
X226504571Y-126890819D02*
X226409333Y-126843200D01*
X226409333Y-126843200D02*
X226314095Y-126747961D01*
X226314095Y-126747961D02*
X226266476Y-126557485D01*
X226266476Y-126557485D02*
X226266476Y-126224152D01*
X226266476Y-126224152D02*
X226314095Y-126033676D01*
X226314095Y-126033676D02*
X226409333Y-125938438D01*
X226409333Y-125938438D02*
X226504571Y-125890819D01*
X226504571Y-125890819D02*
X226695047Y-125890819D01*
X226695047Y-125890819D02*
X226790285Y-125938438D01*
X226790285Y-125938438D02*
X226885523Y-126033676D01*
X226885523Y-126033676D02*
X226933142Y-126224152D01*
X226933142Y-126224152D02*
X226933142Y-126557485D01*
X226933142Y-126557485D02*
X226885523Y-126747961D01*
X226885523Y-126747961D02*
X226790285Y-126843200D01*
X226790285Y-126843200D02*
X226695047Y-126890819D01*
X226695047Y-126890819D02*
X226504571Y-126890819D01*
X227314095Y-125986057D02*
X227361714Y-125938438D01*
X227361714Y-125938438D02*
X227456952Y-125890819D01*
X227456952Y-125890819D02*
X227695047Y-125890819D01*
X227695047Y-125890819D02*
X227790285Y-125938438D01*
X227790285Y-125938438D02*
X227837904Y-125986057D01*
X227837904Y-125986057D02*
X227885523Y-126081295D01*
X227885523Y-126081295D02*
X227885523Y-126176533D01*
X227885523Y-126176533D02*
X227837904Y-126319390D01*
X227837904Y-126319390D02*
X227266476Y-126890819D01*
X227266476Y-126890819D02*
X227885523Y-126890819D01*
X188658667Y-162840200D02*
X188801524Y-162887819D01*
X188801524Y-162887819D02*
X189039619Y-162887819D01*
X189039619Y-162887819D02*
X189134857Y-162840200D01*
X189134857Y-162840200D02*
X189182476Y-162792580D01*
X189182476Y-162792580D02*
X189230095Y-162697342D01*
X189230095Y-162697342D02*
X189230095Y-162602104D01*
X189230095Y-162602104D02*
X189182476Y-162506866D01*
X189182476Y-162506866D02*
X189134857Y-162459247D01*
X189134857Y-162459247D02*
X189039619Y-162411628D01*
X189039619Y-162411628D02*
X188849143Y-162364009D01*
X188849143Y-162364009D02*
X188753905Y-162316390D01*
X188753905Y-162316390D02*
X188706286Y-162268771D01*
X188706286Y-162268771D02*
X188658667Y-162173533D01*
X188658667Y-162173533D02*
X188658667Y-162078295D01*
X188658667Y-162078295D02*
X188706286Y-161983057D01*
X188706286Y-161983057D02*
X188753905Y-161935438D01*
X188753905Y-161935438D02*
X188849143Y-161887819D01*
X188849143Y-161887819D02*
X189087238Y-161887819D01*
X189087238Y-161887819D02*
X189230095Y-161935438D01*
X189563429Y-161887819D02*
X189801524Y-162887819D01*
X189801524Y-162887819D02*
X189992000Y-162173533D01*
X189992000Y-162173533D02*
X190182476Y-162887819D01*
X190182476Y-162887819D02*
X190420572Y-161887819D01*
X190944381Y-162316390D02*
X190849143Y-162268771D01*
X190849143Y-162268771D02*
X190801524Y-162221152D01*
X190801524Y-162221152D02*
X190753905Y-162125914D01*
X190753905Y-162125914D02*
X190753905Y-162078295D01*
X190753905Y-162078295D02*
X190801524Y-161983057D01*
X190801524Y-161983057D02*
X190849143Y-161935438D01*
X190849143Y-161935438D02*
X190944381Y-161887819D01*
X190944381Y-161887819D02*
X191134857Y-161887819D01*
X191134857Y-161887819D02*
X191230095Y-161935438D01*
X191230095Y-161935438D02*
X191277714Y-161983057D01*
X191277714Y-161983057D02*
X191325333Y-162078295D01*
X191325333Y-162078295D02*
X191325333Y-162125914D01*
X191325333Y-162125914D02*
X191277714Y-162221152D01*
X191277714Y-162221152D02*
X191230095Y-162268771D01*
X191230095Y-162268771D02*
X191134857Y-162316390D01*
X191134857Y-162316390D02*
X190944381Y-162316390D01*
X190944381Y-162316390D02*
X190849143Y-162364009D01*
X190849143Y-162364009D02*
X190801524Y-162411628D01*
X190801524Y-162411628D02*
X190753905Y-162506866D01*
X190753905Y-162506866D02*
X190753905Y-162697342D01*
X190753905Y-162697342D02*
X190801524Y-162792580D01*
X190801524Y-162792580D02*
X190849143Y-162840200D01*
X190849143Y-162840200D02*
X190944381Y-162887819D01*
X190944381Y-162887819D02*
X191134857Y-162887819D01*
X191134857Y-162887819D02*
X191230095Y-162840200D01*
X191230095Y-162840200D02*
X191277714Y-162792580D01*
X191277714Y-162792580D02*
X191325333Y-162697342D01*
X191325333Y-162697342D02*
X191325333Y-162506866D01*
X191325333Y-162506866D02*
X191277714Y-162411628D01*
X191277714Y-162411628D02*
X191230095Y-162364009D01*
X191230095Y-162364009D02*
X191134857Y-162316390D01*
D11*
X190271762Y-178633219D02*
X189700333Y-178633219D01*
X189986048Y-178633219D02*
X190111048Y-177633219D01*
X190111048Y-177633219D02*
X189997952Y-177776076D01*
X189997952Y-177776076D02*
X189890810Y-177871314D01*
X189890810Y-177871314D02*
X189789619Y-177918933D01*
D10*
X286734476Y-150521200D02*
X286877333Y-150568819D01*
X286877333Y-150568819D02*
X287115428Y-150568819D01*
X287115428Y-150568819D02*
X287210666Y-150521200D01*
X287210666Y-150521200D02*
X287258285Y-150473580D01*
X287258285Y-150473580D02*
X287305904Y-150378342D01*
X287305904Y-150378342D02*
X287305904Y-150283104D01*
X287305904Y-150283104D02*
X287258285Y-150187866D01*
X287258285Y-150187866D02*
X287210666Y-150140247D01*
X287210666Y-150140247D02*
X287115428Y-150092628D01*
X287115428Y-150092628D02*
X286924952Y-150045009D01*
X286924952Y-150045009D02*
X286829714Y-149997390D01*
X286829714Y-149997390D02*
X286782095Y-149949771D01*
X286782095Y-149949771D02*
X286734476Y-149854533D01*
X286734476Y-149854533D02*
X286734476Y-149759295D01*
X286734476Y-149759295D02*
X286782095Y-149664057D01*
X286782095Y-149664057D02*
X286829714Y-149616438D01*
X286829714Y-149616438D02*
X286924952Y-149568819D01*
X286924952Y-149568819D02*
X287163047Y-149568819D01*
X287163047Y-149568819D02*
X287305904Y-149616438D01*
X287639238Y-149568819D02*
X287877333Y-150568819D01*
X287877333Y-150568819D02*
X288067809Y-149854533D01*
X288067809Y-149854533D02*
X288258285Y-150568819D01*
X288258285Y-150568819D02*
X288496381Y-149568819D01*
X289401142Y-150568819D02*
X288829714Y-150568819D01*
X289115428Y-150568819D02*
X289115428Y-149568819D01*
X289115428Y-149568819D02*
X289020190Y-149711676D01*
X289020190Y-149711676D02*
X288924952Y-149806914D01*
X288924952Y-149806914D02*
X288829714Y-149854533D01*
X289877333Y-150568819D02*
X290067809Y-150568819D01*
X290067809Y-150568819D02*
X290163047Y-150521200D01*
X290163047Y-150521200D02*
X290210666Y-150473580D01*
X290210666Y-150473580D02*
X290305904Y-150330723D01*
X290305904Y-150330723D02*
X290353523Y-150140247D01*
X290353523Y-150140247D02*
X290353523Y-149759295D01*
X290353523Y-149759295D02*
X290305904Y-149664057D01*
X290305904Y-149664057D02*
X290258285Y-149616438D01*
X290258285Y-149616438D02*
X290163047Y-149568819D01*
X290163047Y-149568819D02*
X289972571Y-149568819D01*
X289972571Y-149568819D02*
X289877333Y-149616438D01*
X289877333Y-149616438D02*
X289829714Y-149664057D01*
X289829714Y-149664057D02*
X289782095Y-149759295D01*
X289782095Y-149759295D02*
X289782095Y-149997390D01*
X289782095Y-149997390D02*
X289829714Y-150092628D01*
X289829714Y-150092628D02*
X289877333Y-150140247D01*
X289877333Y-150140247D02*
X289972571Y-150187866D01*
X289972571Y-150187866D02*
X290163047Y-150187866D01*
X290163047Y-150187866D02*
X290258285Y-150140247D01*
X290258285Y-150140247D02*
X290305904Y-150092628D01*
X290305904Y-150092628D02*
X290353523Y-149997390D01*
D11*
X287538047Y-166314219D02*
X287264237Y-165838028D01*
X286966618Y-166314219D02*
X287091618Y-165314219D01*
X287091618Y-165314219D02*
X287472571Y-165314219D01*
X287472571Y-165314219D02*
X287561856Y-165361838D01*
X287561856Y-165361838D02*
X287603523Y-165409457D01*
X287603523Y-165409457D02*
X287639237Y-165504695D01*
X287639237Y-165504695D02*
X287621380Y-165647552D01*
X287621380Y-165647552D02*
X287561856Y-165742790D01*
X287561856Y-165742790D02*
X287508285Y-165790409D01*
X287508285Y-165790409D02*
X287407095Y-165838028D01*
X287407095Y-165838028D02*
X287026142Y-165838028D01*
X287924952Y-166266600D02*
X288061856Y-166314219D01*
X288061856Y-166314219D02*
X288299952Y-166314219D01*
X288299952Y-166314219D02*
X288401142Y-166266600D01*
X288401142Y-166266600D02*
X288454714Y-166218980D01*
X288454714Y-166218980D02*
X288514237Y-166123742D01*
X288514237Y-166123742D02*
X288526142Y-166028504D01*
X288526142Y-166028504D02*
X288490428Y-165933266D01*
X288490428Y-165933266D02*
X288448761Y-165885647D01*
X288448761Y-165885647D02*
X288359476Y-165838028D01*
X288359476Y-165838028D02*
X288174952Y-165790409D01*
X288174952Y-165790409D02*
X288085666Y-165742790D01*
X288085666Y-165742790D02*
X288043999Y-165695171D01*
X288043999Y-165695171D02*
X288008285Y-165599933D01*
X288008285Y-165599933D02*
X288020190Y-165504695D01*
X288020190Y-165504695D02*
X288079714Y-165409457D01*
X288079714Y-165409457D02*
X288133285Y-165361838D01*
X288133285Y-165361838D02*
X288234476Y-165314219D01*
X288234476Y-165314219D02*
X288472571Y-165314219D01*
X288472571Y-165314219D02*
X288609476Y-165361838D01*
X288984476Y-165790409D02*
X289317809Y-165790409D01*
X289395190Y-166314219D02*
X288918999Y-166314219D01*
X288918999Y-166314219D02*
X289043999Y-165314219D01*
X289043999Y-165314219D02*
X289520190Y-165314219D01*
X289805904Y-165314219D02*
X290377333Y-165314219D01*
X289966619Y-166314219D02*
X290091619Y-165314219D01*
D10*
X152583333Y-123454819D02*
X152250000Y-122978628D01*
X152011905Y-123454819D02*
X152011905Y-122454819D01*
X152011905Y-122454819D02*
X152392857Y-122454819D01*
X152392857Y-122454819D02*
X152488095Y-122502438D01*
X152488095Y-122502438D02*
X152535714Y-122550057D01*
X152535714Y-122550057D02*
X152583333Y-122645295D01*
X152583333Y-122645295D02*
X152583333Y-122788152D01*
X152583333Y-122788152D02*
X152535714Y-122883390D01*
X152535714Y-122883390D02*
X152488095Y-122931009D01*
X152488095Y-122931009D02*
X152392857Y-122978628D01*
X152392857Y-122978628D02*
X152011905Y-122978628D01*
X152916667Y-122454819D02*
X153583333Y-122454819D01*
X153583333Y-122454819D02*
X153154762Y-123454819D01*
X164020667Y-113564200D02*
X164163524Y-113611819D01*
X164163524Y-113611819D02*
X164401619Y-113611819D01*
X164401619Y-113611819D02*
X164496857Y-113564200D01*
X164496857Y-113564200D02*
X164544476Y-113516580D01*
X164544476Y-113516580D02*
X164592095Y-113421342D01*
X164592095Y-113421342D02*
X164592095Y-113326104D01*
X164592095Y-113326104D02*
X164544476Y-113230866D01*
X164544476Y-113230866D02*
X164496857Y-113183247D01*
X164496857Y-113183247D02*
X164401619Y-113135628D01*
X164401619Y-113135628D02*
X164211143Y-113088009D01*
X164211143Y-113088009D02*
X164115905Y-113040390D01*
X164115905Y-113040390D02*
X164068286Y-112992771D01*
X164068286Y-112992771D02*
X164020667Y-112897533D01*
X164020667Y-112897533D02*
X164020667Y-112802295D01*
X164020667Y-112802295D02*
X164068286Y-112707057D01*
X164068286Y-112707057D02*
X164115905Y-112659438D01*
X164115905Y-112659438D02*
X164211143Y-112611819D01*
X164211143Y-112611819D02*
X164449238Y-112611819D01*
X164449238Y-112611819D02*
X164592095Y-112659438D01*
X164925429Y-112611819D02*
X165163524Y-113611819D01*
X165163524Y-113611819D02*
X165354000Y-112897533D01*
X165354000Y-112897533D02*
X165544476Y-113611819D01*
X165544476Y-113611819D02*
X165782572Y-112611819D01*
X166068286Y-112611819D02*
X166687333Y-112611819D01*
X166687333Y-112611819D02*
X166354000Y-112992771D01*
X166354000Y-112992771D02*
X166496857Y-112992771D01*
X166496857Y-112992771D02*
X166592095Y-113040390D01*
X166592095Y-113040390D02*
X166639714Y-113088009D01*
X166639714Y-113088009D02*
X166687333Y-113183247D01*
X166687333Y-113183247D02*
X166687333Y-113421342D01*
X166687333Y-113421342D02*
X166639714Y-113516580D01*
X166639714Y-113516580D02*
X166592095Y-113564200D01*
X166592095Y-113564200D02*
X166496857Y-113611819D01*
X166496857Y-113611819D02*
X166211143Y-113611819D01*
X166211143Y-113611819D02*
X166115905Y-113564200D01*
X166115905Y-113564200D02*
X166068286Y-113516580D01*
D11*
X165014714Y-128976266D02*
X165776619Y-128976266D01*
X165348048Y-129357219D02*
X165443286Y-128595314D01*
D10*
X164020667Y-162840200D02*
X164163524Y-162887819D01*
X164163524Y-162887819D02*
X164401619Y-162887819D01*
X164401619Y-162887819D02*
X164496857Y-162840200D01*
X164496857Y-162840200D02*
X164544476Y-162792580D01*
X164544476Y-162792580D02*
X164592095Y-162697342D01*
X164592095Y-162697342D02*
X164592095Y-162602104D01*
X164592095Y-162602104D02*
X164544476Y-162506866D01*
X164544476Y-162506866D02*
X164496857Y-162459247D01*
X164496857Y-162459247D02*
X164401619Y-162411628D01*
X164401619Y-162411628D02*
X164211143Y-162364009D01*
X164211143Y-162364009D02*
X164115905Y-162316390D01*
X164115905Y-162316390D02*
X164068286Y-162268771D01*
X164068286Y-162268771D02*
X164020667Y-162173533D01*
X164020667Y-162173533D02*
X164020667Y-162078295D01*
X164020667Y-162078295D02*
X164068286Y-161983057D01*
X164068286Y-161983057D02*
X164115905Y-161935438D01*
X164115905Y-161935438D02*
X164211143Y-161887819D01*
X164211143Y-161887819D02*
X164449238Y-161887819D01*
X164449238Y-161887819D02*
X164592095Y-161935438D01*
X164925429Y-161887819D02*
X165163524Y-162887819D01*
X165163524Y-162887819D02*
X165354000Y-162173533D01*
X165354000Y-162173533D02*
X165544476Y-162887819D01*
X165544476Y-162887819D02*
X165782572Y-161887819D01*
X166639714Y-161887819D02*
X166163524Y-161887819D01*
X166163524Y-161887819D02*
X166115905Y-162364009D01*
X166115905Y-162364009D02*
X166163524Y-162316390D01*
X166163524Y-162316390D02*
X166258762Y-162268771D01*
X166258762Y-162268771D02*
X166496857Y-162268771D01*
X166496857Y-162268771D02*
X166592095Y-162316390D01*
X166592095Y-162316390D02*
X166639714Y-162364009D01*
X166639714Y-162364009D02*
X166687333Y-162459247D01*
X166687333Y-162459247D02*
X166687333Y-162697342D01*
X166687333Y-162697342D02*
X166639714Y-162792580D01*
X166639714Y-162792580D02*
X166592095Y-162840200D01*
X166592095Y-162840200D02*
X166496857Y-162887819D01*
X166496857Y-162887819D02*
X166258762Y-162887819D01*
X166258762Y-162887819D02*
X166163524Y-162840200D01*
X166163524Y-162840200D02*
X166115905Y-162792580D01*
D11*
X165425429Y-177633219D02*
X165520667Y-177633219D01*
X165520667Y-177633219D02*
X165609952Y-177680838D01*
X165609952Y-177680838D02*
X165651619Y-177728457D01*
X165651619Y-177728457D02*
X165687333Y-177823695D01*
X165687333Y-177823695D02*
X165711143Y-178014171D01*
X165711143Y-178014171D02*
X165681381Y-178252266D01*
X165681381Y-178252266D02*
X165609952Y-178442742D01*
X165609952Y-178442742D02*
X165550429Y-178537980D01*
X165550429Y-178537980D02*
X165496857Y-178585600D01*
X165496857Y-178585600D02*
X165395667Y-178633219D01*
X165395667Y-178633219D02*
X165300429Y-178633219D01*
X165300429Y-178633219D02*
X165211143Y-178585600D01*
X165211143Y-178585600D02*
X165169476Y-178537980D01*
X165169476Y-178537980D02*
X165133762Y-178442742D01*
X165133762Y-178442742D02*
X165109952Y-178252266D01*
X165109952Y-178252266D02*
X165139714Y-178014171D01*
X165139714Y-178014171D02*
X165211143Y-177823695D01*
X165211143Y-177823695D02*
X165270667Y-177728457D01*
X165270667Y-177728457D02*
X165324238Y-177680838D01*
X165324238Y-177680838D02*
X165425429Y-177633219D01*
D10*
X201833333Y-126359580D02*
X201785714Y-126407200D01*
X201785714Y-126407200D02*
X201642857Y-126454819D01*
X201642857Y-126454819D02*
X201547619Y-126454819D01*
X201547619Y-126454819D02*
X201404762Y-126407200D01*
X201404762Y-126407200D02*
X201309524Y-126311961D01*
X201309524Y-126311961D02*
X201261905Y-126216723D01*
X201261905Y-126216723D02*
X201214286Y-126026247D01*
X201214286Y-126026247D02*
X201214286Y-125883390D01*
X201214286Y-125883390D02*
X201261905Y-125692914D01*
X201261905Y-125692914D02*
X201309524Y-125597676D01*
X201309524Y-125597676D02*
X201404762Y-125502438D01*
X201404762Y-125502438D02*
X201547619Y-125454819D01*
X201547619Y-125454819D02*
X201642857Y-125454819D01*
X201642857Y-125454819D02*
X201785714Y-125502438D01*
X201785714Y-125502438D02*
X201833333Y-125550057D01*
X202785714Y-126454819D02*
X202214286Y-126454819D01*
X202500000Y-126454819D02*
X202500000Y-125454819D01*
X202500000Y-125454819D02*
X202404762Y-125597676D01*
X202404762Y-125597676D02*
X202309524Y-125692914D01*
X202309524Y-125692914D02*
X202214286Y-125740533D01*
X189825333Y-160008819D02*
X189492000Y-159532628D01*
X189253905Y-160008819D02*
X189253905Y-159008819D01*
X189253905Y-159008819D02*
X189634857Y-159008819D01*
X189634857Y-159008819D02*
X189730095Y-159056438D01*
X189730095Y-159056438D02*
X189777714Y-159104057D01*
X189777714Y-159104057D02*
X189825333Y-159199295D01*
X189825333Y-159199295D02*
X189825333Y-159342152D01*
X189825333Y-159342152D02*
X189777714Y-159437390D01*
X189777714Y-159437390D02*
X189730095Y-159485009D01*
X189730095Y-159485009D02*
X189634857Y-159532628D01*
X189634857Y-159532628D02*
X189253905Y-159532628D01*
X190206286Y-159104057D02*
X190253905Y-159056438D01*
X190253905Y-159056438D02*
X190349143Y-159008819D01*
X190349143Y-159008819D02*
X190587238Y-159008819D01*
X190587238Y-159008819D02*
X190682476Y-159056438D01*
X190682476Y-159056438D02*
X190730095Y-159104057D01*
X190730095Y-159104057D02*
X190777714Y-159199295D01*
X190777714Y-159199295D02*
X190777714Y-159294533D01*
X190777714Y-159294533D02*
X190730095Y-159437390D01*
X190730095Y-159437390D02*
X190158667Y-160008819D01*
X190158667Y-160008819D02*
X190777714Y-160008819D01*
X286734476Y-125883200D02*
X286877333Y-125930819D01*
X286877333Y-125930819D02*
X287115428Y-125930819D01*
X287115428Y-125930819D02*
X287210666Y-125883200D01*
X287210666Y-125883200D02*
X287258285Y-125835580D01*
X287258285Y-125835580D02*
X287305904Y-125740342D01*
X287305904Y-125740342D02*
X287305904Y-125645104D01*
X287305904Y-125645104D02*
X287258285Y-125549866D01*
X287258285Y-125549866D02*
X287210666Y-125502247D01*
X287210666Y-125502247D02*
X287115428Y-125454628D01*
X287115428Y-125454628D02*
X286924952Y-125407009D01*
X286924952Y-125407009D02*
X286829714Y-125359390D01*
X286829714Y-125359390D02*
X286782095Y-125311771D01*
X286782095Y-125311771D02*
X286734476Y-125216533D01*
X286734476Y-125216533D02*
X286734476Y-125121295D01*
X286734476Y-125121295D02*
X286782095Y-125026057D01*
X286782095Y-125026057D02*
X286829714Y-124978438D01*
X286829714Y-124978438D02*
X286924952Y-124930819D01*
X286924952Y-124930819D02*
X287163047Y-124930819D01*
X287163047Y-124930819D02*
X287305904Y-124978438D01*
X287639238Y-124930819D02*
X287877333Y-125930819D01*
X287877333Y-125930819D02*
X288067809Y-125216533D01*
X288067809Y-125216533D02*
X288258285Y-125930819D01*
X288258285Y-125930819D02*
X288496381Y-124930819D01*
X289401142Y-125930819D02*
X288829714Y-125930819D01*
X289115428Y-125930819D02*
X289115428Y-124930819D01*
X289115428Y-124930819D02*
X289020190Y-125073676D01*
X289020190Y-125073676D02*
X288924952Y-125168914D01*
X288924952Y-125168914D02*
X288829714Y-125216533D01*
X289972571Y-125359390D02*
X289877333Y-125311771D01*
X289877333Y-125311771D02*
X289829714Y-125264152D01*
X289829714Y-125264152D02*
X289782095Y-125168914D01*
X289782095Y-125168914D02*
X289782095Y-125121295D01*
X289782095Y-125121295D02*
X289829714Y-125026057D01*
X289829714Y-125026057D02*
X289877333Y-124978438D01*
X289877333Y-124978438D02*
X289972571Y-124930819D01*
X289972571Y-124930819D02*
X290163047Y-124930819D01*
X290163047Y-124930819D02*
X290258285Y-124978438D01*
X290258285Y-124978438D02*
X290305904Y-125026057D01*
X290305904Y-125026057D02*
X290353523Y-125121295D01*
X290353523Y-125121295D02*
X290353523Y-125168914D01*
X290353523Y-125168914D02*
X290305904Y-125264152D01*
X290305904Y-125264152D02*
X290258285Y-125311771D01*
X290258285Y-125311771D02*
X290163047Y-125359390D01*
X290163047Y-125359390D02*
X289972571Y-125359390D01*
X289972571Y-125359390D02*
X289877333Y-125407009D01*
X289877333Y-125407009D02*
X289829714Y-125454628D01*
X289829714Y-125454628D02*
X289782095Y-125549866D01*
X289782095Y-125549866D02*
X289782095Y-125740342D01*
X289782095Y-125740342D02*
X289829714Y-125835580D01*
X289829714Y-125835580D02*
X289877333Y-125883200D01*
X289877333Y-125883200D02*
X289972571Y-125930819D01*
X289972571Y-125930819D02*
X290163047Y-125930819D01*
X290163047Y-125930819D02*
X290258285Y-125883200D01*
X290258285Y-125883200D02*
X290305904Y-125835580D01*
X290305904Y-125835580D02*
X290353523Y-125740342D01*
X290353523Y-125740342D02*
X290353523Y-125549866D01*
X290353523Y-125549866D02*
X290305904Y-125454628D01*
X290305904Y-125454628D02*
X290258285Y-125407009D01*
X290258285Y-125407009D02*
X290163047Y-125359390D01*
D11*
X286984476Y-141152409D02*
X287317809Y-141152409D01*
X287395190Y-141676219D02*
X286918999Y-141676219D01*
X286918999Y-141676219D02*
X287043999Y-140676219D01*
X287043999Y-140676219D02*
X287520190Y-140676219D01*
X287823761Y-141676219D02*
X287948761Y-140676219D01*
X287948761Y-140676219D02*
X288395190Y-141676219D01*
X288395190Y-141676219D02*
X288520190Y-140676219D01*
X288853523Y-140676219D02*
X289424952Y-140676219D01*
X289014238Y-141676219D02*
X289139238Y-140676219D01*
X290204714Y-141676219D02*
X289930904Y-141200028D01*
X289633285Y-141676219D02*
X289758285Y-140676219D01*
X289758285Y-140676219D02*
X290139238Y-140676219D01*
X290139238Y-140676219D02*
X290228523Y-140723838D01*
X290228523Y-140723838D02*
X290270190Y-140771457D01*
X290270190Y-140771457D02*
X290305904Y-140866695D01*
X290305904Y-140866695D02*
X290288047Y-141009552D01*
X290288047Y-141009552D02*
X290228523Y-141104790D01*
X290228523Y-141104790D02*
X290174952Y-141152409D01*
X290174952Y-141152409D02*
X290073762Y-141200028D01*
X290073762Y-141200028D02*
X289692809Y-141200028D01*
D10*
X237458476Y-162840200D02*
X237601333Y-162887819D01*
X237601333Y-162887819D02*
X237839428Y-162887819D01*
X237839428Y-162887819D02*
X237934666Y-162840200D01*
X237934666Y-162840200D02*
X237982285Y-162792580D01*
X237982285Y-162792580D02*
X238029904Y-162697342D01*
X238029904Y-162697342D02*
X238029904Y-162602104D01*
X238029904Y-162602104D02*
X237982285Y-162506866D01*
X237982285Y-162506866D02*
X237934666Y-162459247D01*
X237934666Y-162459247D02*
X237839428Y-162411628D01*
X237839428Y-162411628D02*
X237648952Y-162364009D01*
X237648952Y-162364009D02*
X237553714Y-162316390D01*
X237553714Y-162316390D02*
X237506095Y-162268771D01*
X237506095Y-162268771D02*
X237458476Y-162173533D01*
X237458476Y-162173533D02*
X237458476Y-162078295D01*
X237458476Y-162078295D02*
X237506095Y-161983057D01*
X237506095Y-161983057D02*
X237553714Y-161935438D01*
X237553714Y-161935438D02*
X237648952Y-161887819D01*
X237648952Y-161887819D02*
X237887047Y-161887819D01*
X237887047Y-161887819D02*
X238029904Y-161935438D01*
X238363238Y-161887819D02*
X238601333Y-162887819D01*
X238601333Y-162887819D02*
X238791809Y-162173533D01*
X238791809Y-162173533D02*
X238982285Y-162887819D01*
X238982285Y-162887819D02*
X239220381Y-161887819D01*
X240125142Y-162887819D02*
X239553714Y-162887819D01*
X239839428Y-162887819D02*
X239839428Y-161887819D01*
X239839428Y-161887819D02*
X239744190Y-162030676D01*
X239744190Y-162030676D02*
X239648952Y-162125914D01*
X239648952Y-162125914D02*
X239553714Y-162173533D01*
X240982285Y-162221152D02*
X240982285Y-162887819D01*
X240744190Y-161840200D02*
X240506095Y-162554485D01*
X240506095Y-162554485D02*
X241125142Y-162554485D01*
D11*
X239053714Y-177633219D02*
X239672762Y-177633219D01*
X239672762Y-177633219D02*
X239291810Y-178014171D01*
X239291810Y-178014171D02*
X239434667Y-178014171D01*
X239434667Y-178014171D02*
X239523952Y-178061790D01*
X239523952Y-178061790D02*
X239565619Y-178109409D01*
X239565619Y-178109409D02*
X239601333Y-178204647D01*
X239601333Y-178204647D02*
X239571571Y-178442742D01*
X239571571Y-178442742D02*
X239512048Y-178537980D01*
X239512048Y-178537980D02*
X239458476Y-178585600D01*
X239458476Y-178585600D02*
X239357286Y-178633219D01*
X239357286Y-178633219D02*
X239071571Y-178633219D01*
X239071571Y-178633219D02*
X238982286Y-178585600D01*
X238982286Y-178585600D02*
X238940619Y-178537980D01*
D12*
X232283000Y-138684000D02*
X246253000Y-138684000D01*
X232283000Y-152654000D02*
X232283000Y-138684000D01*
X246253000Y-138684000D02*
X246253000Y-152654000D01*
X246253000Y-152654000D02*
X232283000Y-152654000D01*
X166081064Y-156824000D02*
X164626936Y-156824000D01*
X166081064Y-158644000D02*
X164626936Y-158644000D01*
X133731000Y-151003000D02*
X147701000Y-151003000D01*
X133731000Y-164973000D02*
X133731000Y-151003000D01*
X147701000Y-151003000D02*
X147701000Y-164973000D01*
X147701000Y-164973000D02*
X133731000Y-164973000D01*
X215357064Y-156824000D02*
X213902936Y-156824000D01*
X215357064Y-158644000D02*
X213902936Y-158644000D01*
X264633064Y-156824000D02*
X263178936Y-156824000D01*
X264633064Y-158644000D02*
X263178936Y-158644000D01*
X133731000Y-126365000D02*
X147701000Y-126365000D01*
X133731000Y-140335000D02*
X133731000Y-126365000D01*
X147701000Y-126365000D02*
X147701000Y-140335000D01*
X147701000Y-140335000D02*
X133731000Y-140335000D01*
X207645000Y-114046000D02*
X221615000Y-114046000D01*
X207645000Y-128016000D02*
X207645000Y-114046000D01*
X221615000Y-114046000D02*
X221615000Y-128016000D01*
X221615000Y-128016000D02*
X207645000Y-128016000D01*
X158369000Y-138684000D02*
X172339000Y-138684000D01*
X158369000Y-152654000D02*
X158369000Y-138684000D01*
X172339000Y-138684000D02*
X172339000Y-152654000D01*
X172339000Y-152654000D02*
X158369000Y-152654000D01*
X256921000Y-138684000D02*
X270891000Y-138684000D01*
X256921000Y-152654000D02*
X256921000Y-138684000D01*
X270891000Y-138684000D02*
X270891000Y-152654000D01*
X270891000Y-152654000D02*
X256921000Y-152654000D01*
X183007000Y-138684000D02*
X196977000Y-138684000D01*
X183007000Y-152654000D02*
X183007000Y-138684000D01*
X196977000Y-138684000D02*
X196977000Y-152654000D01*
X196977000Y-152654000D02*
X183007000Y-152654000D01*
X256921000Y-114046000D02*
X270891000Y-114046000D01*
X256921000Y-128016000D02*
X256921000Y-114046000D01*
X270891000Y-114046000D02*
X270891000Y-128016000D01*
X270891000Y-128016000D02*
X256921000Y-128016000D01*
X256921000Y-163322000D02*
X270891000Y-163322000D01*
X256921000Y-177292000D02*
X256921000Y-163322000D01*
X270891000Y-163322000D02*
X270891000Y-177292000D01*
X270891000Y-177292000D02*
X256921000Y-177292000D01*
X207645000Y-138684000D02*
X221615000Y-138684000D01*
X207645000Y-152654000D02*
X207645000Y-138684000D01*
X221615000Y-138684000D02*
X221615000Y-152654000D01*
X221615000Y-152654000D02*
X207645000Y-152654000D01*
X232283000Y-114046000D02*
X246253000Y-114046000D01*
X232283000Y-128016000D02*
X232283000Y-114046000D01*
X246253000Y-114046000D02*
X246253000Y-128016000D01*
X246253000Y-128016000D02*
X232283000Y-128016000D01*
X239995064Y-156824000D02*
X238540936Y-156824000D01*
X239995064Y-158644000D02*
X238540936Y-158644000D01*
X152090000Y-133977064D02*
X152090000Y-132522936D01*
X153910000Y-133977064D02*
X153910000Y-132522936D01*
X207645000Y-163322000D02*
X221615000Y-163322000D01*
X207645000Y-177292000D02*
X207645000Y-163322000D01*
X221615000Y-163322000D02*
X221615000Y-177292000D01*
X221615000Y-177292000D02*
X207645000Y-177292000D01*
X183007000Y-114046000D02*
X196977000Y-114046000D01*
X183007000Y-128016000D02*
X183007000Y-114046000D01*
X196977000Y-114046000D02*
X196977000Y-128016000D01*
X196977000Y-128016000D02*
X183007000Y-128016000D01*
X227076000Y-127440000D02*
X226276000Y-127440000D01*
X227076000Y-127440000D02*
X227876000Y-127440000D01*
X227076000Y-130560000D02*
X226276000Y-130560000D01*
X227076000Y-130560000D02*
X227876000Y-130560000D01*
X225776000Y-127490000D02*
X225536000Y-127160000D01*
X226016000Y-127160000D01*
X225776000Y-127490000D01*
G36*
X225776000Y-127490000D02*
G01*
X225536000Y-127160000D01*
X226016000Y-127160000D01*
X225776000Y-127490000D01*
G37*
X183007000Y-163322000D02*
X196977000Y-163322000D01*
X183007000Y-177292000D02*
X183007000Y-163322000D01*
X196977000Y-163322000D02*
X196977000Y-177292000D01*
X196977000Y-177292000D02*
X183007000Y-177292000D01*
X281559000Y-151003000D02*
X295529000Y-151003000D01*
X281559000Y-164973000D02*
X281559000Y-151003000D01*
X295529000Y-151003000D02*
X295529000Y-164973000D01*
X295529000Y-164973000D02*
X281559000Y-164973000D01*
X152090000Y-126727064D02*
X152090000Y-125272936D01*
X153910000Y-126727064D02*
X153910000Y-125272936D01*
X158369000Y-114046000D02*
X172339000Y-114046000D01*
X158369000Y-128016000D02*
X158369000Y-114046000D01*
X172339000Y-114046000D02*
X172339000Y-128016000D01*
X172339000Y-128016000D02*
X158369000Y-128016000D01*
X158369000Y-163322000D02*
X172339000Y-163322000D01*
X158369000Y-177292000D02*
X158369000Y-163322000D01*
X172339000Y-163322000D02*
X172339000Y-177292000D01*
X172339000Y-177292000D02*
X158369000Y-177292000D01*
X201340000Y-128701748D02*
X201340000Y-130124252D01*
X203160000Y-128701748D02*
X203160000Y-130124252D01*
X190719064Y-156824000D02*
X189264936Y-156824000D01*
X190719064Y-158644000D02*
X189264936Y-158644000D01*
X281559000Y-126365000D02*
X295529000Y-126365000D01*
X281559000Y-140335000D02*
X281559000Y-126365000D01*
X295529000Y-126365000D02*
X295529000Y-140335000D01*
X295529000Y-140335000D02*
X281559000Y-140335000D01*
X232283000Y-163322000D02*
X246253000Y-163322000D01*
X232283000Y-177292000D02*
X232283000Y-163322000D01*
X246253000Y-163322000D02*
X246253000Y-177292000D01*
X246253000Y-177292000D02*
X232283000Y-177292000D01*
%LPC*%
D13*
X166624000Y-126140700D03*
D14*
X164084000Y-126140700D03*
D13*
X289814000Y-138459700D03*
D14*
X287274000Y-138459700D03*
D15*
X239268000Y-145669000D03*
D16*
X241808000Y-140589000D03*
X235458000Y-143129000D03*
D17*
X166816500Y-157734000D03*
X163891500Y-157734000D03*
D15*
X140716000Y-157988000D03*
D16*
X143256000Y-152908000D03*
X136906000Y-155448000D03*
D17*
X216092500Y-157734000D03*
X213167500Y-157734000D03*
X265368500Y-157734000D03*
X262443500Y-157734000D03*
D13*
X240538000Y-150749000D03*
D14*
X237998000Y-150749000D03*
D15*
X140716000Y-133350000D03*
D16*
X143256000Y-128270000D03*
X136906000Y-130810000D03*
D15*
X214630000Y-121031000D03*
D16*
X217170000Y-115951000D03*
X210820000Y-118491000D03*
D13*
X215900000Y-126111000D03*
D14*
X213360000Y-126111000D03*
D15*
X165354000Y-145669000D03*
D16*
X167894000Y-140589000D03*
X161544000Y-143129000D03*
D13*
X265176000Y-175416700D03*
D14*
X262636000Y-175416700D03*
D13*
X191262000Y-126111000D03*
D14*
X188722000Y-126111000D03*
D13*
X191262000Y-150749000D03*
D14*
X188722000Y-150749000D03*
D13*
X265176000Y-126140700D03*
D14*
X262636000Y-126140700D03*
D15*
X263906000Y-145669000D03*
D16*
X266446000Y-140589000D03*
X260096000Y-143129000D03*
D15*
X189992000Y-145669000D03*
D16*
X192532000Y-140589000D03*
X186182000Y-143129000D03*
D15*
X263906000Y-121031000D03*
D16*
X266446000Y-115951000D03*
X260096000Y-118491000D03*
D13*
X215900000Y-175387000D03*
D14*
X213360000Y-175387000D03*
D15*
X263906000Y-170307000D03*
D16*
X266446000Y-165227000D03*
X260096000Y-167767000D03*
D15*
X214630000Y-145669000D03*
D16*
X217170000Y-140589000D03*
X210820000Y-143129000D03*
D13*
X141986000Y-163068000D03*
D14*
X139446000Y-163068000D03*
D15*
X239268000Y-121031000D03*
D16*
X241808000Y-115951000D03*
X235458000Y-118491000D03*
D17*
X240730500Y-157734000D03*
X237805500Y-157734000D03*
D13*
X289814000Y-163068000D03*
D14*
X287274000Y-163068000D03*
D18*
X153000000Y-134712500D03*
X153000000Y-131787500D03*
D15*
X214630000Y-170307000D03*
D16*
X217170000Y-165227000D03*
X210820000Y-167767000D03*
D15*
X189992000Y-121031000D03*
D16*
X192532000Y-115951000D03*
X186182000Y-118491000D03*
D13*
X240538000Y-175416700D03*
D14*
X237998000Y-175416700D03*
D13*
X265176000Y-150778700D03*
D14*
X262636000Y-150778700D03*
D19*
X225938500Y-128050000D03*
X225938500Y-129950000D03*
X228213500Y-129000000D03*
D13*
X240538000Y-126111000D03*
D14*
X237998000Y-126111000D03*
D13*
X166624000Y-150749000D03*
D14*
X164084000Y-150749000D03*
D13*
X191262000Y-175416700D03*
D14*
X188722000Y-175416700D03*
D15*
X189992000Y-170307000D03*
D16*
X192532000Y-165227000D03*
X186182000Y-167767000D03*
D15*
X288544000Y-157988000D03*
D16*
X291084000Y-152908000D03*
X284734000Y-155448000D03*
D18*
X153000000Y-127462500D03*
X153000000Y-124537500D03*
D15*
X165354000Y-121031000D03*
D16*
X167894000Y-115951000D03*
X161544000Y-118491000D03*
D13*
X215900000Y-150749000D03*
D14*
X213360000Y-150749000D03*
D15*
X165354000Y-170307000D03*
D16*
X167894000Y-165227000D03*
X161544000Y-167767000D03*
D20*
X202250000Y-127850500D03*
X202250000Y-130975500D03*
D17*
X191454500Y-157734000D03*
X188529500Y-157734000D03*
D13*
X166624000Y-175387000D03*
D14*
X164084000Y-175387000D03*
D13*
X141986000Y-138430000D03*
D14*
X139446000Y-138430000D03*
D15*
X288544000Y-133350000D03*
D16*
X291084000Y-128270000D03*
X284734000Y-130810000D03*
D15*
X239268000Y-170307000D03*
D16*
X241808000Y-165227000D03*
X235458000Y-167767000D03*
D21*
X199390000Y-138049000D03*
X224790000Y-138049000D03*
X204470000Y-138049000D03*
X207010000Y-138049000D03*
X209550000Y-138049000D03*
X212090000Y-138049000D03*
X214630000Y-138049000D03*
X217170000Y-138049000D03*
X219710000Y-138049000D03*
X222250000Y-138049000D03*
X201930000Y-138049000D03*
X229870000Y-153289000D03*
X232410000Y-153289000D03*
X222250000Y-153289000D03*
X219710000Y-153289000D03*
X217170000Y-153289000D03*
X214630000Y-153289000D03*
X212090000Y-153289000D03*
X209550000Y-153289000D03*
X207010000Y-153289000D03*
X204470000Y-153289000D03*
X201930000Y-153289000D03*
X199390000Y-153289000D03*
X196850000Y-153289000D03*
X196850000Y-138049000D03*
D22*
X224790000Y-153289000D03*
X229870000Y-138049000D03*
D21*
X227330000Y-153289000D03*
X227330000Y-138049000D03*
X232410000Y-138049000D03*
D23*
X177673000Y-132444000D03*
D24*
X175173000Y-132444000D03*
X172673000Y-132444000D03*
X170173000Y-132444000D03*
X167673000Y-132444000D03*
D25*
X247837000Y-133875000D03*
D24*
X250337000Y-133875000D03*
X252837000Y-133875000D03*
X255337000Y-133875000D03*
D25*
X247837000Y-158513000D03*
D24*
X250337000Y-158513000D03*
X252837000Y-158513000D03*
X255337000Y-158513000D03*
%LPD*%
M02*
