%TF.GenerationSoftware,KiCad,Pcbnew,7.0.6*%
%TF.CreationDate,2024-03-02T19:58:00+01:00*%
%TF.ProjectId,Main_board,4d61696e-5f62-46f6-9172-642e6b696361,1.0.2*%
%TF.SameCoordinates,Original*%
%TF.FileFunction,Legend,Bot*%
%TF.FilePolarity,Positive*%
%FSLAX46Y46*%
G04 Gerber Fmt 4.6, Leading zero omitted, Abs format (unit mm)*
G04 Created by KiCad (PCBNEW 7.0.6) date 2024-03-02 19:58:00*
%MOMM*%
%LPD*%
G01*
G04 APERTURE LIST*
G04 Aperture macros list*
%AMRoundRect*
0 Rectangle with rounded corners*
0 $1 Rounding radius*
0 $2 $3 $4 $5 $6 $7 $8 $9 X,Y pos of 4 corners*
0 Add a 4 corners polygon primitive as box body*
4,1,4,$2,$3,$4,$5,$6,$7,$8,$9,$2,$3,0*
0 Add four circle primitives for the rounded corners*
1,1,$1+$1,$2,$3*
1,1,$1+$1,$4,$5*
1,1,$1+$1,$6,$7*
1,1,$1+$1,$8,$9*
0 Add four rect primitives between the rounded corners*
20,1,$1+$1,$2,$3,$4,$5,0*
20,1,$1+$1,$4,$5,$6,$7,0*
20,1,$1+$1,$6,$7,$8,$9,0*
20,1,$1+$1,$8,$9,$2,$3,0*%
G04 Aperture macros list end*
%ADD10C,0.150000*%
%ADD11C,0.120000*%
%ADD12C,4.000000*%
%ADD13C,2.200000*%
%ADD14RoundRect,0.250000X0.650000X-1.500000X0.650000X1.500000X-0.650000X1.500000X-0.650000X-1.500000X0*%
%ADD15RoundRect,0.250000X-0.650000X1.500000X-0.650000X-1.500000X0.650000X-1.500000X0.650000X1.500000X0*%
%ADD16C,1.727200*%
%ADD17R,1.727200X1.727200*%
%ADD18RoundRect,0.250000X0.600000X0.725000X-0.600000X0.725000X-0.600000X-0.725000X0.600000X-0.725000X0*%
%ADD19O,1.700000X1.950000*%
%ADD20RoundRect,0.250000X-1.500000X-0.650000X1.500000X-0.650000X1.500000X0.650000X-1.500000X0.650000X0*%
%ADD21RoundRect,0.250000X1.500000X0.650000X-1.500000X0.650000X-1.500000X-0.650000X1.500000X-0.650000X0*%
G04 APERTURE END LIST*
D10*
X277672173Y-153113819D02*
X277547173Y-152113819D01*
X277547173Y-152113819D02*
X277309077Y-152113819D01*
X277309077Y-152113819D02*
X277172173Y-152161438D01*
X277172173Y-152161438D02*
X277088839Y-152256676D01*
X277088839Y-152256676D02*
X277053125Y-152351914D01*
X277053125Y-152351914D02*
X277029316Y-152542390D01*
X277029316Y-152542390D02*
X277047173Y-152685247D01*
X277047173Y-152685247D02*
X277118601Y-152875723D01*
X277118601Y-152875723D02*
X277178125Y-152970961D01*
X277178125Y-152970961D02*
X277285268Y-153066200D01*
X277285268Y-153066200D02*
X277434077Y-153113819D01*
X277434077Y-153113819D02*
X277672173Y-153113819D01*
X276713839Y-153066200D02*
X276576935Y-153113819D01*
X276576935Y-153113819D02*
X276338839Y-153113819D01*
X276338839Y-153113819D02*
X276237649Y-153066200D01*
X276237649Y-153066200D02*
X276184077Y-153018580D01*
X276184077Y-153018580D02*
X276124554Y-152923342D01*
X276124554Y-152923342D02*
X276112649Y-152828104D01*
X276112649Y-152828104D02*
X276148363Y-152732866D01*
X276148363Y-152732866D02*
X276190030Y-152685247D01*
X276190030Y-152685247D02*
X276279316Y-152637628D01*
X276279316Y-152637628D02*
X276463839Y-152590009D01*
X276463839Y-152590009D02*
X276553125Y-152542390D01*
X276553125Y-152542390D02*
X276594792Y-152494771D01*
X276594792Y-152494771D02*
X276630506Y-152399533D01*
X276630506Y-152399533D02*
X276618601Y-152304295D01*
X276618601Y-152304295D02*
X276559077Y-152209057D01*
X276559077Y-152209057D02*
X276505506Y-152161438D01*
X276505506Y-152161438D02*
X276404316Y-152113819D01*
X276404316Y-152113819D02*
X276166220Y-152113819D01*
X276166220Y-152113819D02*
X276029316Y-152161438D01*
X275719792Y-153113819D02*
X275594792Y-152113819D01*
X275148363Y-153113819D02*
X275505506Y-152542390D01*
X275023363Y-152113819D02*
X275666220Y-152685247D01*
X274469792Y-152637628D02*
X274529315Y-153113819D01*
X274737649Y-152113819D02*
X274469792Y-152637628D01*
X274469792Y-152637628D02*
X274070982Y-152113819D01*
X272517410Y-153018580D02*
X272570982Y-153066200D01*
X272570982Y-153066200D02*
X272719791Y-153113819D01*
X272719791Y-153113819D02*
X272815029Y-153113819D01*
X272815029Y-153113819D02*
X272951934Y-153066200D01*
X272951934Y-153066200D02*
X273035267Y-152970961D01*
X273035267Y-152970961D02*
X273070982Y-152875723D01*
X273070982Y-152875723D02*
X273094791Y-152685247D01*
X273094791Y-152685247D02*
X273076934Y-152542390D01*
X273076934Y-152542390D02*
X273005506Y-152351914D01*
X273005506Y-152351914D02*
X272945982Y-152256676D01*
X272945982Y-152256676D02*
X272838839Y-152161438D01*
X272838839Y-152161438D02*
X272690029Y-152113819D01*
X272690029Y-152113819D02*
X272594791Y-152113819D01*
X272594791Y-152113819D02*
X272457887Y-152161438D01*
X272457887Y-152161438D02*
X272416220Y-152209057D01*
X272100744Y-153113819D02*
X272017410Y-152447152D01*
X272041220Y-152637628D02*
X271981696Y-152542390D01*
X271981696Y-152542390D02*
X271928125Y-152494771D01*
X271928125Y-152494771D02*
X271826934Y-152447152D01*
X271826934Y-152447152D02*
X271731696Y-152447152D01*
X271094791Y-153066200D02*
X271195981Y-153113819D01*
X271195981Y-153113819D02*
X271386458Y-153113819D01*
X271386458Y-153113819D02*
X271475743Y-153066200D01*
X271475743Y-153066200D02*
X271511458Y-152970961D01*
X271511458Y-152970961D02*
X271463839Y-152590009D01*
X271463839Y-152590009D02*
X271404315Y-152494771D01*
X271404315Y-152494771D02*
X271303124Y-152447152D01*
X271303124Y-152447152D02*
X271112648Y-152447152D01*
X271112648Y-152447152D02*
X271023362Y-152494771D01*
X271023362Y-152494771D02*
X270987648Y-152590009D01*
X270987648Y-152590009D02*
X270999553Y-152685247D01*
X270999553Y-152685247D02*
X271487648Y-152780485D01*
X270636457Y-152447152D02*
X270529315Y-153113819D01*
X270529315Y-153113819D02*
X270279315Y-152637628D01*
X270279315Y-152637628D02*
X270148362Y-153113819D01*
X270148362Y-153113819D02*
X269874553Y-152447152D01*
X277672173Y-154723819D02*
X277547173Y-153723819D01*
X277547173Y-153723819D02*
X277166220Y-153723819D01*
X277166220Y-153723819D02*
X277076935Y-153771438D01*
X277076935Y-153771438D02*
X277035268Y-153819057D01*
X277035268Y-153819057D02*
X276999554Y-153914295D01*
X276999554Y-153914295D02*
X277017411Y-154057152D01*
X277017411Y-154057152D02*
X277076935Y-154152390D01*
X277076935Y-154152390D02*
X277130506Y-154200009D01*
X277130506Y-154200009D02*
X277231696Y-154247628D01*
X277231696Y-154247628D02*
X277612649Y-154247628D01*
X276672173Y-154723819D02*
X276588839Y-154057152D01*
X276612649Y-154247628D02*
X276553125Y-154152390D01*
X276553125Y-154152390D02*
X276499554Y-154104771D01*
X276499554Y-154104771D02*
X276398363Y-154057152D01*
X276398363Y-154057152D02*
X276303125Y-154057152D01*
X275910268Y-154723819D02*
X275999553Y-154676200D01*
X275999553Y-154676200D02*
X276041220Y-154628580D01*
X276041220Y-154628580D02*
X276076934Y-154533342D01*
X276076934Y-154533342D02*
X276041220Y-154247628D01*
X276041220Y-154247628D02*
X275981696Y-154152390D01*
X275981696Y-154152390D02*
X275928125Y-154104771D01*
X275928125Y-154104771D02*
X275826934Y-154057152D01*
X275826934Y-154057152D02*
X275684077Y-154057152D01*
X275684077Y-154057152D02*
X275594791Y-154104771D01*
X275594791Y-154104771D02*
X275553125Y-154152390D01*
X275553125Y-154152390D02*
X275517410Y-154247628D01*
X275517410Y-154247628D02*
X275553125Y-154533342D01*
X275553125Y-154533342D02*
X275612648Y-154628580D01*
X275612648Y-154628580D02*
X275666220Y-154676200D01*
X275666220Y-154676200D02*
X275767410Y-154723819D01*
X275767410Y-154723819D02*
X275910268Y-154723819D01*
X275207886Y-154057152D02*
X274826934Y-154057152D01*
X275023363Y-153723819D02*
X275130506Y-154580961D01*
X275130506Y-154580961D02*
X275094791Y-154676200D01*
X275094791Y-154676200D02*
X275005506Y-154723819D01*
X275005506Y-154723819D02*
X274910267Y-154723819D01*
X274434077Y-154723819D02*
X274523362Y-154676200D01*
X274523362Y-154676200D02*
X274565029Y-154628580D01*
X274565029Y-154628580D02*
X274600743Y-154533342D01*
X274600743Y-154533342D02*
X274565029Y-154247628D01*
X274565029Y-154247628D02*
X274505505Y-154152390D01*
X274505505Y-154152390D02*
X274451934Y-154104771D01*
X274451934Y-154104771D02*
X274350743Y-154057152D01*
X274350743Y-154057152D02*
X274207886Y-154057152D01*
X274207886Y-154057152D02*
X274118600Y-154104771D01*
X274118600Y-154104771D02*
X274076934Y-154152390D01*
X274076934Y-154152390D02*
X274041219Y-154247628D01*
X274041219Y-154247628D02*
X274076934Y-154533342D01*
X274076934Y-154533342D02*
X274136457Y-154628580D01*
X274136457Y-154628580D02*
X274190029Y-154676200D01*
X274190029Y-154676200D02*
X274291219Y-154723819D01*
X274291219Y-154723819D02*
X274434077Y-154723819D01*
X273731695Y-154057152D02*
X273350743Y-154057152D01*
X273547172Y-153723819D02*
X273654315Y-154580961D01*
X273654315Y-154580961D02*
X273618600Y-154676200D01*
X273618600Y-154676200D02*
X273529315Y-154723819D01*
X273529315Y-154723819D02*
X273434076Y-154723819D01*
X273112647Y-154057152D02*
X272957886Y-154723819D01*
X272636457Y-154057152D02*
X272957886Y-154723819D01*
X272957886Y-154723819D02*
X273082886Y-154961914D01*
X273082886Y-154961914D02*
X273136457Y-155009533D01*
X273136457Y-155009533D02*
X273237647Y-155057152D01*
X272255504Y-154057152D02*
X272380504Y-155057152D01*
X272261457Y-154104771D02*
X272160266Y-154057152D01*
X272160266Y-154057152D02*
X271969790Y-154057152D01*
X271969790Y-154057152D02*
X271880504Y-154104771D01*
X271880504Y-154104771D02*
X271838838Y-154152390D01*
X271838838Y-154152390D02*
X271803123Y-154247628D01*
X271803123Y-154247628D02*
X271838838Y-154533342D01*
X271838838Y-154533342D02*
X271898361Y-154628580D01*
X271898361Y-154628580D02*
X271951933Y-154676200D01*
X271951933Y-154676200D02*
X272053123Y-154723819D01*
X272053123Y-154723819D02*
X272243600Y-154723819D01*
X272243600Y-154723819D02*
X272332885Y-154676200D01*
X271434076Y-154723819D02*
X271350742Y-154057152D01*
X271309076Y-153723819D02*
X271362647Y-153771438D01*
X271362647Y-153771438D02*
X271320980Y-153819057D01*
X271320980Y-153819057D02*
X271267409Y-153771438D01*
X271267409Y-153771438D02*
X271309076Y-153723819D01*
X271309076Y-153723819D02*
X271320980Y-153819057D01*
X270874552Y-154057152D02*
X270957886Y-154723819D01*
X270886457Y-154152390D02*
X270832886Y-154104771D01*
X270832886Y-154104771D02*
X270731695Y-154057152D01*
X270731695Y-154057152D02*
X270588838Y-154057152D01*
X270588838Y-154057152D02*
X270499552Y-154104771D01*
X270499552Y-154104771D02*
X270463838Y-154200009D01*
X270463838Y-154200009D02*
X270529314Y-154723819D01*
X269541219Y-154057152D02*
X269642409Y-154866676D01*
X269642409Y-154866676D02*
X269701933Y-154961914D01*
X269701933Y-154961914D02*
X269755505Y-155009533D01*
X269755505Y-155009533D02*
X269856695Y-155057152D01*
X269856695Y-155057152D02*
X269999552Y-155057152D01*
X269999552Y-155057152D02*
X270088838Y-155009533D01*
X269618600Y-154676200D02*
X269719790Y-154723819D01*
X269719790Y-154723819D02*
X269910267Y-154723819D01*
X269910267Y-154723819D02*
X269999552Y-154676200D01*
X269999552Y-154676200D02*
X270041219Y-154628580D01*
X270041219Y-154628580D02*
X270076933Y-154533342D01*
X270076933Y-154533342D02*
X270041219Y-154247628D01*
X270041219Y-154247628D02*
X269981695Y-154152390D01*
X269981695Y-154152390D02*
X269928124Y-154104771D01*
X269928124Y-154104771D02*
X269826933Y-154057152D01*
X269826933Y-154057152D02*
X269636457Y-154057152D01*
X269636457Y-154057152D02*
X269547171Y-154104771D01*
X268386457Y-154723819D02*
X268261457Y-153723819D01*
X268309076Y-154104771D02*
X268207885Y-154057152D01*
X268207885Y-154057152D02*
X268017409Y-154057152D01*
X268017409Y-154057152D02*
X267928123Y-154104771D01*
X267928123Y-154104771D02*
X267886457Y-154152390D01*
X267886457Y-154152390D02*
X267850742Y-154247628D01*
X267850742Y-154247628D02*
X267886457Y-154533342D01*
X267886457Y-154533342D02*
X267945980Y-154628580D01*
X267945980Y-154628580D02*
X267999552Y-154676200D01*
X267999552Y-154676200D02*
X268100742Y-154723819D01*
X268100742Y-154723819D02*
X268291219Y-154723819D01*
X268291219Y-154723819D02*
X268380504Y-154676200D01*
X267338838Y-154723819D02*
X267428123Y-154676200D01*
X267428123Y-154676200D02*
X267469790Y-154628580D01*
X267469790Y-154628580D02*
X267505504Y-154533342D01*
X267505504Y-154533342D02*
X267469790Y-154247628D01*
X267469790Y-154247628D02*
X267410266Y-154152390D01*
X267410266Y-154152390D02*
X267356695Y-154104771D01*
X267356695Y-154104771D02*
X267255504Y-154057152D01*
X267255504Y-154057152D02*
X267112647Y-154057152D01*
X267112647Y-154057152D02*
X267023361Y-154104771D01*
X267023361Y-154104771D02*
X266981695Y-154152390D01*
X266981695Y-154152390D02*
X266945980Y-154247628D01*
X266945980Y-154247628D02*
X266981695Y-154533342D01*
X266981695Y-154533342D02*
X267041218Y-154628580D01*
X267041218Y-154628580D02*
X267094790Y-154676200D01*
X267094790Y-154676200D02*
X267195980Y-154723819D01*
X267195980Y-154723819D02*
X267338838Y-154723819D01*
X266148361Y-154723819D02*
X266082885Y-154200009D01*
X266082885Y-154200009D02*
X266118599Y-154104771D01*
X266118599Y-154104771D02*
X266207885Y-154057152D01*
X266207885Y-154057152D02*
X266398361Y-154057152D01*
X266398361Y-154057152D02*
X266499552Y-154104771D01*
X266142409Y-154676200D02*
X266243599Y-154723819D01*
X266243599Y-154723819D02*
X266481695Y-154723819D01*
X266481695Y-154723819D02*
X266570980Y-154676200D01*
X266570980Y-154676200D02*
X266606695Y-154580961D01*
X266606695Y-154580961D02*
X266594790Y-154485723D01*
X266594790Y-154485723D02*
X266535266Y-154390485D01*
X266535266Y-154390485D02*
X266434076Y-154342866D01*
X266434076Y-154342866D02*
X266195980Y-154342866D01*
X266195980Y-154342866D02*
X266094790Y-154295247D01*
X265672171Y-154723819D02*
X265588837Y-154057152D01*
X265612647Y-154247628D02*
X265553123Y-154152390D01*
X265553123Y-154152390D02*
X265499552Y-154104771D01*
X265499552Y-154104771D02*
X265398361Y-154057152D01*
X265398361Y-154057152D02*
X265303123Y-154057152D01*
X264624551Y-154723819D02*
X264499551Y-153723819D01*
X264618599Y-154676200D02*
X264719789Y-154723819D01*
X264719789Y-154723819D02*
X264910266Y-154723819D01*
X264910266Y-154723819D02*
X264999551Y-154676200D01*
X264999551Y-154676200D02*
X265041218Y-154628580D01*
X265041218Y-154628580D02*
X265076932Y-154533342D01*
X265076932Y-154533342D02*
X265041218Y-154247628D01*
X265041218Y-154247628D02*
X264981694Y-154152390D01*
X264981694Y-154152390D02*
X264928123Y-154104771D01*
X264928123Y-154104771D02*
X264826932Y-154057152D01*
X264826932Y-154057152D02*
X264636456Y-154057152D01*
X264636456Y-154057152D02*
X264547170Y-154104771D01*
X264094789Y-154676200D02*
X264100742Y-154723819D01*
X264100742Y-154723819D02*
X264160265Y-154819057D01*
X264160265Y-154819057D02*
X264213837Y-154866676D01*
X262910266Y-154723819D02*
X262785266Y-153723819D01*
X262338837Y-154723819D02*
X262695980Y-154152390D01*
X262213837Y-153723819D02*
X262856694Y-154295247D01*
X261523361Y-154676200D02*
X261624551Y-154723819D01*
X261624551Y-154723819D02*
X261815028Y-154723819D01*
X261815028Y-154723819D02*
X261904313Y-154676200D01*
X261904313Y-154676200D02*
X261940028Y-154580961D01*
X261940028Y-154580961D02*
X261892409Y-154200009D01*
X261892409Y-154200009D02*
X261832885Y-154104771D01*
X261832885Y-154104771D02*
X261731694Y-154057152D01*
X261731694Y-154057152D02*
X261541218Y-154057152D01*
X261541218Y-154057152D02*
X261451932Y-154104771D01*
X261451932Y-154104771D02*
X261416218Y-154200009D01*
X261416218Y-154200009D02*
X261428123Y-154295247D01*
X261428123Y-154295247D02*
X261916218Y-154390485D01*
X261065027Y-154057152D02*
X260910266Y-154723819D01*
X260588837Y-154057152D02*
X260910266Y-154723819D01*
X260910266Y-154723819D02*
X261035266Y-154961914D01*
X261035266Y-154961914D02*
X261088837Y-155009533D01*
X261088837Y-155009533D02*
X261190027Y-155057152D01*
X260291218Y-154723819D02*
X260166218Y-153723819D01*
X260213837Y-154104771D02*
X260112646Y-154057152D01*
X260112646Y-154057152D02*
X259922170Y-154057152D01*
X259922170Y-154057152D02*
X259832884Y-154104771D01*
X259832884Y-154104771D02*
X259791218Y-154152390D01*
X259791218Y-154152390D02*
X259755503Y-154247628D01*
X259755503Y-154247628D02*
X259791218Y-154533342D01*
X259791218Y-154533342D02*
X259850741Y-154628580D01*
X259850741Y-154628580D02*
X259904313Y-154676200D01*
X259904313Y-154676200D02*
X260005503Y-154723819D01*
X260005503Y-154723819D02*
X260195980Y-154723819D01*
X260195980Y-154723819D02*
X260285265Y-154676200D01*
X259243599Y-154723819D02*
X259332884Y-154676200D01*
X259332884Y-154676200D02*
X259374551Y-154628580D01*
X259374551Y-154628580D02*
X259410265Y-154533342D01*
X259410265Y-154533342D02*
X259374551Y-154247628D01*
X259374551Y-154247628D02*
X259315027Y-154152390D01*
X259315027Y-154152390D02*
X259261456Y-154104771D01*
X259261456Y-154104771D02*
X259160265Y-154057152D01*
X259160265Y-154057152D02*
X259017408Y-154057152D01*
X259017408Y-154057152D02*
X258928122Y-154104771D01*
X258928122Y-154104771D02*
X258886456Y-154152390D01*
X258886456Y-154152390D02*
X258850741Y-154247628D01*
X258850741Y-154247628D02*
X258886456Y-154533342D01*
X258886456Y-154533342D02*
X258945979Y-154628580D01*
X258945979Y-154628580D02*
X258999551Y-154676200D01*
X258999551Y-154676200D02*
X259100741Y-154723819D01*
X259100741Y-154723819D02*
X259243599Y-154723819D01*
X258053122Y-154723819D02*
X257987646Y-154200009D01*
X257987646Y-154200009D02*
X258023360Y-154104771D01*
X258023360Y-154104771D02*
X258112646Y-154057152D01*
X258112646Y-154057152D02*
X258303122Y-154057152D01*
X258303122Y-154057152D02*
X258404313Y-154104771D01*
X258047170Y-154676200D02*
X258148360Y-154723819D01*
X258148360Y-154723819D02*
X258386456Y-154723819D01*
X258386456Y-154723819D02*
X258475741Y-154676200D01*
X258475741Y-154676200D02*
X258511456Y-154580961D01*
X258511456Y-154580961D02*
X258499551Y-154485723D01*
X258499551Y-154485723D02*
X258440027Y-154390485D01*
X258440027Y-154390485D02*
X258338837Y-154342866D01*
X258338837Y-154342866D02*
X258100741Y-154342866D01*
X258100741Y-154342866D02*
X257999551Y-154295247D01*
X257576932Y-154723819D02*
X257493598Y-154057152D01*
X257517408Y-154247628D02*
X257457884Y-154152390D01*
X257457884Y-154152390D02*
X257404313Y-154104771D01*
X257404313Y-154104771D02*
X257303122Y-154057152D01*
X257303122Y-154057152D02*
X257207884Y-154057152D01*
X256529312Y-154723819D02*
X256404312Y-153723819D01*
X256523360Y-154676200D02*
X256624550Y-154723819D01*
X256624550Y-154723819D02*
X256815027Y-154723819D01*
X256815027Y-154723819D02*
X256904312Y-154676200D01*
X256904312Y-154676200D02*
X256945979Y-154628580D01*
X256945979Y-154628580D02*
X256981693Y-154533342D01*
X256981693Y-154533342D02*
X256945979Y-154247628D01*
X256945979Y-154247628D02*
X256886455Y-154152390D01*
X256886455Y-154152390D02*
X256832884Y-154104771D01*
X256832884Y-154104771D02*
X256731693Y-154057152D01*
X256731693Y-154057152D02*
X256541217Y-154057152D01*
X256541217Y-154057152D02*
X256451931Y-154104771D01*
X254892407Y-154200009D02*
X254755502Y-154247628D01*
X254755502Y-154247628D02*
X254713836Y-154295247D01*
X254713836Y-154295247D02*
X254678121Y-154390485D01*
X254678121Y-154390485D02*
X254695979Y-154533342D01*
X254695979Y-154533342D02*
X254755502Y-154628580D01*
X254755502Y-154628580D02*
X254809074Y-154676200D01*
X254809074Y-154676200D02*
X254910264Y-154723819D01*
X254910264Y-154723819D02*
X255291217Y-154723819D01*
X255291217Y-154723819D02*
X255166217Y-153723819D01*
X255166217Y-153723819D02*
X254832883Y-153723819D01*
X254832883Y-153723819D02*
X254743598Y-153771438D01*
X254743598Y-153771438D02*
X254701931Y-153819057D01*
X254701931Y-153819057D02*
X254666217Y-153914295D01*
X254666217Y-153914295D02*
X254678121Y-154009533D01*
X254678121Y-154009533D02*
X254737645Y-154104771D01*
X254737645Y-154104771D02*
X254791217Y-154152390D01*
X254791217Y-154152390D02*
X254892407Y-154200009D01*
X254892407Y-154200009D02*
X255225740Y-154200009D01*
X254148360Y-154723819D02*
X254237645Y-154676200D01*
X254237645Y-154676200D02*
X254279312Y-154628580D01*
X254279312Y-154628580D02*
X254315026Y-154533342D01*
X254315026Y-154533342D02*
X254279312Y-154247628D01*
X254279312Y-154247628D02*
X254219788Y-154152390D01*
X254219788Y-154152390D02*
X254166217Y-154104771D01*
X254166217Y-154104771D02*
X254065026Y-154057152D01*
X254065026Y-154057152D02*
X253922169Y-154057152D01*
X253922169Y-154057152D02*
X253832883Y-154104771D01*
X253832883Y-154104771D02*
X253791217Y-154152390D01*
X253791217Y-154152390D02*
X253755502Y-154247628D01*
X253755502Y-154247628D02*
X253791217Y-154533342D01*
X253791217Y-154533342D02*
X253850740Y-154628580D01*
X253850740Y-154628580D02*
X253904312Y-154676200D01*
X253904312Y-154676200D02*
X254005502Y-154723819D01*
X254005502Y-154723819D02*
X254148360Y-154723819D01*
X252957883Y-154723819D02*
X252892407Y-154200009D01*
X252892407Y-154200009D02*
X252928121Y-154104771D01*
X252928121Y-154104771D02*
X253017407Y-154057152D01*
X253017407Y-154057152D02*
X253207883Y-154057152D01*
X253207883Y-154057152D02*
X253309074Y-154104771D01*
X252951931Y-154676200D02*
X253053121Y-154723819D01*
X253053121Y-154723819D02*
X253291217Y-154723819D01*
X253291217Y-154723819D02*
X253380502Y-154676200D01*
X253380502Y-154676200D02*
X253416217Y-154580961D01*
X253416217Y-154580961D02*
X253404312Y-154485723D01*
X253404312Y-154485723D02*
X253344788Y-154390485D01*
X253344788Y-154390485D02*
X253243598Y-154342866D01*
X253243598Y-154342866D02*
X253005502Y-154342866D01*
X253005502Y-154342866D02*
X252904312Y-154295247D01*
X252481693Y-154723819D02*
X252398359Y-154057152D01*
X252422169Y-154247628D02*
X252362645Y-154152390D01*
X252362645Y-154152390D02*
X252309074Y-154104771D01*
X252309074Y-154104771D02*
X252207883Y-154057152D01*
X252207883Y-154057152D02*
X252112645Y-154057152D01*
X251434073Y-154723819D02*
X251309073Y-153723819D01*
X251428121Y-154676200D02*
X251529311Y-154723819D01*
X251529311Y-154723819D02*
X251719788Y-154723819D01*
X251719788Y-154723819D02*
X251809073Y-154676200D01*
X251809073Y-154676200D02*
X251850740Y-154628580D01*
X251850740Y-154628580D02*
X251886454Y-154533342D01*
X251886454Y-154533342D02*
X251850740Y-154247628D01*
X251850740Y-154247628D02*
X251791216Y-154152390D01*
X251791216Y-154152390D02*
X251737645Y-154104771D01*
X251737645Y-154104771D02*
X251636454Y-154057152D01*
X251636454Y-154057152D02*
X251445978Y-154057152D01*
X251445978Y-154057152D02*
X251356692Y-154104771D01*
X277100744Y-156333819D02*
X277374554Y-155857628D01*
X277672173Y-156333819D02*
X277547173Y-155333819D01*
X277547173Y-155333819D02*
X277166220Y-155333819D01*
X277166220Y-155333819D02*
X277076935Y-155381438D01*
X277076935Y-155381438D02*
X277035268Y-155429057D01*
X277035268Y-155429057D02*
X276999554Y-155524295D01*
X276999554Y-155524295D02*
X277017411Y-155667152D01*
X277017411Y-155667152D02*
X277076935Y-155762390D01*
X277076935Y-155762390D02*
X277130506Y-155810009D01*
X277130506Y-155810009D02*
X277231696Y-155857628D01*
X277231696Y-155857628D02*
X277612649Y-155857628D01*
X276285268Y-156286200D02*
X276386458Y-156333819D01*
X276386458Y-156333819D02*
X276576935Y-156333819D01*
X276576935Y-156333819D02*
X276666220Y-156286200D01*
X276666220Y-156286200D02*
X276701935Y-156190961D01*
X276701935Y-156190961D02*
X276654316Y-155810009D01*
X276654316Y-155810009D02*
X276594792Y-155714771D01*
X276594792Y-155714771D02*
X276493601Y-155667152D01*
X276493601Y-155667152D02*
X276303125Y-155667152D01*
X276303125Y-155667152D02*
X276213839Y-155714771D01*
X276213839Y-155714771D02*
X276178125Y-155810009D01*
X276178125Y-155810009D02*
X276190030Y-155905247D01*
X276190030Y-155905247D02*
X276678125Y-156000485D01*
X275826934Y-155667152D02*
X275672173Y-156333819D01*
X275672173Y-156333819D02*
X275350744Y-155667152D01*
X275041220Y-156238580D02*
X274999553Y-156286200D01*
X274999553Y-156286200D02*
X275053125Y-156333819D01*
X275053125Y-156333819D02*
X275094791Y-156286200D01*
X275094791Y-156286200D02*
X275041220Y-156238580D01*
X275041220Y-156238580D02*
X275053125Y-156333819D01*
X273416220Y-155810009D02*
X273279315Y-155857628D01*
X273279315Y-155857628D02*
X273237649Y-155905247D01*
X273237649Y-155905247D02*
X273201934Y-156000485D01*
X273201934Y-156000485D02*
X273219792Y-156143342D01*
X273219792Y-156143342D02*
X273279315Y-156238580D01*
X273279315Y-156238580D02*
X273332887Y-156286200D01*
X273332887Y-156286200D02*
X273434077Y-156333819D01*
X273434077Y-156333819D02*
X273815030Y-156333819D01*
X273815030Y-156333819D02*
X273690030Y-155333819D01*
X273690030Y-155333819D02*
X273356696Y-155333819D01*
X273356696Y-155333819D02*
X273267411Y-155381438D01*
X273267411Y-155381438D02*
X273225744Y-155429057D01*
X273225744Y-155429057D02*
X273190030Y-155524295D01*
X273190030Y-155524295D02*
X273201934Y-155619533D01*
X273201934Y-155619533D02*
X273261458Y-155714771D01*
X273261458Y-155714771D02*
X273315030Y-155762390D01*
X273315030Y-155762390D02*
X273416220Y-155810009D01*
X273416220Y-155810009D02*
X273749553Y-155810009D01*
X202765819Y-131682905D02*
X201765819Y-131682905D01*
X201765819Y-131682905D02*
X201765819Y-131921000D01*
X201765819Y-131921000D02*
X201813438Y-132063857D01*
X201813438Y-132063857D02*
X201908676Y-132159095D01*
X201908676Y-132159095D02*
X202003914Y-132206714D01*
X202003914Y-132206714D02*
X202194390Y-132254333D01*
X202194390Y-132254333D02*
X202337247Y-132254333D01*
X202337247Y-132254333D02*
X202527723Y-132206714D01*
X202527723Y-132206714D02*
X202622961Y-132159095D01*
X202622961Y-132159095D02*
X202718200Y-132063857D01*
X202718200Y-132063857D02*
X202765819Y-131921000D01*
X202765819Y-131921000D02*
X202765819Y-131682905D01*
X201765819Y-133159095D02*
X201765819Y-132682905D01*
X201765819Y-132682905D02*
X202242009Y-132635286D01*
X202242009Y-132635286D02*
X202194390Y-132682905D01*
X202194390Y-132682905D02*
X202146771Y-132778143D01*
X202146771Y-132778143D02*
X202146771Y-133016238D01*
X202146771Y-133016238D02*
X202194390Y-133111476D01*
X202194390Y-133111476D02*
X202242009Y-133159095D01*
X202242009Y-133159095D02*
X202337247Y-133206714D01*
X202337247Y-133206714D02*
X202575342Y-133206714D01*
X202575342Y-133206714D02*
X202670580Y-133159095D01*
X202670580Y-133159095D02*
X202718200Y-133111476D01*
X202718200Y-133111476D02*
X202765819Y-133016238D01*
X202765819Y-133016238D02*
X202765819Y-132778143D01*
X202765819Y-132778143D02*
X202718200Y-132682905D01*
X202718200Y-132682905D02*
X202670580Y-132635286D01*
X251787819Y-170529714D02*
X250787819Y-170529714D01*
X250787819Y-170529714D02*
X250787819Y-170767809D01*
X250787819Y-170767809D02*
X250835438Y-170910666D01*
X250835438Y-170910666D02*
X250930676Y-171005904D01*
X250930676Y-171005904D02*
X251025914Y-171053523D01*
X251025914Y-171053523D02*
X251216390Y-171101142D01*
X251216390Y-171101142D02*
X251359247Y-171101142D01*
X251359247Y-171101142D02*
X251549723Y-171053523D01*
X251549723Y-171053523D02*
X251644961Y-171005904D01*
X251644961Y-171005904D02*
X251740200Y-170910666D01*
X251740200Y-170910666D02*
X251787819Y-170767809D01*
X251787819Y-170767809D02*
X251787819Y-170529714D01*
X251787819Y-172053523D02*
X251787819Y-171482095D01*
X251787819Y-171767809D02*
X250787819Y-171767809D01*
X250787819Y-171767809D02*
X250930676Y-171672571D01*
X250930676Y-171672571D02*
X251025914Y-171577333D01*
X251025914Y-171577333D02*
X251073533Y-171482095D01*
X251121152Y-172910666D02*
X251787819Y-172910666D01*
X250740200Y-172672571D02*
X251454485Y-172434476D01*
X251454485Y-172434476D02*
X251454485Y-173053523D01*
X273631819Y-144454714D02*
X272631819Y-144454714D01*
X272631819Y-144454714D02*
X272631819Y-144692809D01*
X272631819Y-144692809D02*
X272679438Y-144835666D01*
X272679438Y-144835666D02*
X272774676Y-144930904D01*
X272774676Y-144930904D02*
X272869914Y-144978523D01*
X272869914Y-144978523D02*
X273060390Y-145026142D01*
X273060390Y-145026142D02*
X273203247Y-145026142D01*
X273203247Y-145026142D02*
X273393723Y-144978523D01*
X273393723Y-144978523D02*
X273488961Y-144930904D01*
X273488961Y-144930904D02*
X273584200Y-144835666D01*
X273584200Y-144835666D02*
X273631819Y-144692809D01*
X273631819Y-144692809D02*
X273631819Y-144454714D01*
X273631819Y-145978523D02*
X273631819Y-145407095D01*
X273631819Y-145692809D02*
X272631819Y-145692809D01*
X272631819Y-145692809D02*
X272774676Y-145597571D01*
X272774676Y-145597571D02*
X272869914Y-145502333D01*
X272869914Y-145502333D02*
X272917533Y-145407095D01*
X272631819Y-146311857D02*
X272631819Y-146978523D01*
X272631819Y-146978523D02*
X273631819Y-146549952D01*
X227149819Y-170529714D02*
X226149819Y-170529714D01*
X226149819Y-170529714D02*
X226149819Y-170767809D01*
X226149819Y-170767809D02*
X226197438Y-170910666D01*
X226197438Y-170910666D02*
X226292676Y-171005904D01*
X226292676Y-171005904D02*
X226387914Y-171053523D01*
X226387914Y-171053523D02*
X226578390Y-171101142D01*
X226578390Y-171101142D02*
X226721247Y-171101142D01*
X226721247Y-171101142D02*
X226911723Y-171053523D01*
X226911723Y-171053523D02*
X227006961Y-171005904D01*
X227006961Y-171005904D02*
X227102200Y-170910666D01*
X227102200Y-170910666D02*
X227149819Y-170767809D01*
X227149819Y-170767809D02*
X227149819Y-170529714D01*
X227149819Y-172053523D02*
X227149819Y-171482095D01*
X227149819Y-171767809D02*
X226149819Y-171767809D01*
X226149819Y-171767809D02*
X226292676Y-171672571D01*
X226292676Y-171672571D02*
X226387914Y-171577333D01*
X226387914Y-171577333D02*
X226435533Y-171482095D01*
X227149819Y-173005904D02*
X227149819Y-172434476D01*
X227149819Y-172720190D02*
X226149819Y-172720190D01*
X226149819Y-172720190D02*
X226292676Y-172624952D01*
X226292676Y-172624952D02*
X226387914Y-172529714D01*
X226387914Y-172529714D02*
X226435533Y-172434476D01*
X235794285Y-138128104D02*
X235318095Y-138128104D01*
X235889523Y-138413819D02*
X235556190Y-137413819D01*
X235556190Y-137413819D02*
X235222857Y-138413819D01*
X234365714Y-138413819D02*
X234937142Y-138413819D01*
X234651428Y-138413819D02*
X234651428Y-137413819D01*
X234651428Y-137413819D02*
X234746666Y-137556676D01*
X234746666Y-137556676D02*
X234841904Y-137651914D01*
X234841904Y-137651914D02*
X234937142Y-137699533D01*
X230608094Y-155903819D02*
X230608094Y-154903819D01*
X230608094Y-154903819D02*
X230369999Y-154903819D01*
X230369999Y-154903819D02*
X230227142Y-154951438D01*
X230227142Y-154951438D02*
X230131904Y-155046676D01*
X230131904Y-155046676D02*
X230084285Y-155141914D01*
X230084285Y-155141914D02*
X230036666Y-155332390D01*
X230036666Y-155332390D02*
X230036666Y-155475247D01*
X230036666Y-155475247D02*
X230084285Y-155665723D01*
X230084285Y-155665723D02*
X230131904Y-155760961D01*
X230131904Y-155760961D02*
X230227142Y-155856200D01*
X230227142Y-155856200D02*
X230369999Y-155903819D01*
X230369999Y-155903819D02*
X230608094Y-155903819D01*
X229417618Y-154903819D02*
X229322380Y-154903819D01*
X229322380Y-154903819D02*
X229227142Y-154951438D01*
X229227142Y-154951438D02*
X229179523Y-154999057D01*
X229179523Y-154999057D02*
X229131904Y-155094295D01*
X229131904Y-155094295D02*
X229084285Y-155284771D01*
X229084285Y-155284771D02*
X229084285Y-155522866D01*
X229084285Y-155522866D02*
X229131904Y-155713342D01*
X229131904Y-155713342D02*
X229179523Y-155808580D01*
X229179523Y-155808580D02*
X229227142Y-155856200D01*
X229227142Y-155856200D02*
X229322380Y-155903819D01*
X229322380Y-155903819D02*
X229417618Y-155903819D01*
X229417618Y-155903819D02*
X229512856Y-155856200D01*
X229512856Y-155856200D02*
X229560475Y-155808580D01*
X229560475Y-155808580D02*
X229608094Y-155713342D01*
X229608094Y-155713342D02*
X229655713Y-155522866D01*
X229655713Y-155522866D02*
X229655713Y-155284771D01*
X229655713Y-155284771D02*
X229608094Y-155094295D01*
X229608094Y-155094295D02*
X229560475Y-154999057D01*
X229560475Y-154999057D02*
X229512856Y-154951438D01*
X229512856Y-154951438D02*
X229417618Y-154903819D01*
X202511819Y-171005905D02*
X201511819Y-171005905D01*
X201511819Y-171005905D02*
X201511819Y-171244000D01*
X201511819Y-171244000D02*
X201559438Y-171386857D01*
X201559438Y-171386857D02*
X201654676Y-171482095D01*
X201654676Y-171482095D02*
X201749914Y-171529714D01*
X201749914Y-171529714D02*
X201940390Y-171577333D01*
X201940390Y-171577333D02*
X202083247Y-171577333D01*
X202083247Y-171577333D02*
X202273723Y-171529714D01*
X202273723Y-171529714D02*
X202368961Y-171482095D01*
X202368961Y-171482095D02*
X202464200Y-171386857D01*
X202464200Y-171386857D02*
X202511819Y-171244000D01*
X202511819Y-171244000D02*
X202511819Y-171005905D01*
X201511819Y-171910667D02*
X201511819Y-172577333D01*
X201511819Y-172577333D02*
X202511819Y-172148762D01*
X276171819Y-131119714D02*
X275171819Y-131119714D01*
X275171819Y-131119714D02*
X275171819Y-131357809D01*
X275171819Y-131357809D02*
X275219438Y-131500666D01*
X275219438Y-131500666D02*
X275314676Y-131595904D01*
X275314676Y-131595904D02*
X275409914Y-131643523D01*
X275409914Y-131643523D02*
X275600390Y-131691142D01*
X275600390Y-131691142D02*
X275743247Y-131691142D01*
X275743247Y-131691142D02*
X275933723Y-131643523D01*
X275933723Y-131643523D02*
X276028961Y-131595904D01*
X276028961Y-131595904D02*
X276124200Y-131500666D01*
X276124200Y-131500666D02*
X276171819Y-131357809D01*
X276171819Y-131357809D02*
X276171819Y-131119714D01*
X276171819Y-132643523D02*
X276171819Y-132072095D01*
X276171819Y-132357809D02*
X275171819Y-132357809D01*
X275171819Y-132357809D02*
X275314676Y-132262571D01*
X275314676Y-132262571D02*
X275409914Y-132167333D01*
X275409914Y-132167333D02*
X275457533Y-132072095D01*
X275171819Y-133500666D02*
X275171819Y-133310190D01*
X275171819Y-133310190D02*
X275219438Y-133214952D01*
X275219438Y-133214952D02*
X275267057Y-133167333D01*
X275267057Y-133167333D02*
X275409914Y-133072095D01*
X275409914Y-133072095D02*
X275600390Y-133024476D01*
X275600390Y-133024476D02*
X275981342Y-133024476D01*
X275981342Y-133024476D02*
X276076580Y-133072095D01*
X276076580Y-133072095D02*
X276124200Y-133119714D01*
X276124200Y-133119714D02*
X276171819Y-133214952D01*
X276171819Y-133214952D02*
X276171819Y-133405428D01*
X276171819Y-133405428D02*
X276124200Y-133500666D01*
X276124200Y-133500666D02*
X276076580Y-133548285D01*
X276076580Y-133548285D02*
X275981342Y-133595904D01*
X275981342Y-133595904D02*
X275743247Y-133595904D01*
X275743247Y-133595904D02*
X275648009Y-133548285D01*
X275648009Y-133548285D02*
X275600390Y-133500666D01*
X275600390Y-133500666D02*
X275552771Y-133405428D01*
X275552771Y-133405428D02*
X275552771Y-133214952D01*
X275552771Y-133214952D02*
X275600390Y-133119714D01*
X275600390Y-133119714D02*
X275648009Y-133072095D01*
X275648009Y-133072095D02*
X275743247Y-133024476D01*
X224355819Y-144454714D02*
X223355819Y-144454714D01*
X223355819Y-144454714D02*
X223355819Y-144692809D01*
X223355819Y-144692809D02*
X223403438Y-144835666D01*
X223403438Y-144835666D02*
X223498676Y-144930904D01*
X223498676Y-144930904D02*
X223593914Y-144978523D01*
X223593914Y-144978523D02*
X223784390Y-145026142D01*
X223784390Y-145026142D02*
X223927247Y-145026142D01*
X223927247Y-145026142D02*
X224117723Y-144978523D01*
X224117723Y-144978523D02*
X224212961Y-144930904D01*
X224212961Y-144930904D02*
X224308200Y-144835666D01*
X224308200Y-144835666D02*
X224355819Y-144692809D01*
X224355819Y-144692809D02*
X224355819Y-144454714D01*
X224355819Y-145978523D02*
X224355819Y-145407095D01*
X224355819Y-145692809D02*
X223355819Y-145692809D01*
X223355819Y-145692809D02*
X223498676Y-145597571D01*
X223498676Y-145597571D02*
X223593914Y-145502333D01*
X223593914Y-145502333D02*
X223641533Y-145407095D01*
X223355819Y-146597571D02*
X223355819Y-146692809D01*
X223355819Y-146692809D02*
X223403438Y-146788047D01*
X223403438Y-146788047D02*
X223451057Y-146835666D01*
X223451057Y-146835666D02*
X223546295Y-146883285D01*
X223546295Y-146883285D02*
X223736771Y-146930904D01*
X223736771Y-146930904D02*
X223974866Y-146930904D01*
X223974866Y-146930904D02*
X224165342Y-146883285D01*
X224165342Y-146883285D02*
X224260580Y-146835666D01*
X224260580Y-146835666D02*
X224308200Y-146788047D01*
X224308200Y-146788047D02*
X224355819Y-146692809D01*
X224355819Y-146692809D02*
X224355819Y-146597571D01*
X224355819Y-146597571D02*
X224308200Y-146502333D01*
X224308200Y-146502333D02*
X224260580Y-146454714D01*
X224260580Y-146454714D02*
X224165342Y-146407095D01*
X224165342Y-146407095D02*
X223974866Y-146359476D01*
X223974866Y-146359476D02*
X223736771Y-146359476D01*
X223736771Y-146359476D02*
X223546295Y-146407095D01*
X223546295Y-146407095D02*
X223451057Y-146454714D01*
X223451057Y-146454714D02*
X223403438Y-146502333D01*
X223403438Y-146502333D02*
X223355819Y-146597571D01*
X177873819Y-171005905D02*
X176873819Y-171005905D01*
X176873819Y-171005905D02*
X176873819Y-171244000D01*
X176873819Y-171244000D02*
X176921438Y-171386857D01*
X176921438Y-171386857D02*
X177016676Y-171482095D01*
X177016676Y-171482095D02*
X177111914Y-171529714D01*
X177111914Y-171529714D02*
X177302390Y-171577333D01*
X177302390Y-171577333D02*
X177445247Y-171577333D01*
X177445247Y-171577333D02*
X177635723Y-171529714D01*
X177635723Y-171529714D02*
X177730961Y-171482095D01*
X177730961Y-171482095D02*
X177826200Y-171386857D01*
X177826200Y-171386857D02*
X177873819Y-171244000D01*
X177873819Y-171244000D02*
X177873819Y-171005905D01*
X176873819Y-171910667D02*
X176873819Y-172529714D01*
X176873819Y-172529714D02*
X177254771Y-172196381D01*
X177254771Y-172196381D02*
X177254771Y-172339238D01*
X177254771Y-172339238D02*
X177302390Y-172434476D01*
X177302390Y-172434476D02*
X177350009Y-172482095D01*
X177350009Y-172482095D02*
X177445247Y-172529714D01*
X177445247Y-172529714D02*
X177683342Y-172529714D01*
X177683342Y-172529714D02*
X177778580Y-172482095D01*
X177778580Y-172482095D02*
X177826200Y-172434476D01*
X177826200Y-172434476D02*
X177873819Y-172339238D01*
X177873819Y-172339238D02*
X177873819Y-172053524D01*
X177873819Y-172053524D02*
X177826200Y-171958286D01*
X177826200Y-171958286D02*
X177778580Y-171910667D01*
X252041819Y-131206714D02*
X251041819Y-131206714D01*
X251041819Y-131206714D02*
X251041819Y-131444809D01*
X251041819Y-131444809D02*
X251089438Y-131587666D01*
X251089438Y-131587666D02*
X251184676Y-131682904D01*
X251184676Y-131682904D02*
X251279914Y-131730523D01*
X251279914Y-131730523D02*
X251470390Y-131778142D01*
X251470390Y-131778142D02*
X251613247Y-131778142D01*
X251613247Y-131778142D02*
X251803723Y-131730523D01*
X251803723Y-131730523D02*
X251898961Y-131682904D01*
X251898961Y-131682904D02*
X251994200Y-131587666D01*
X251994200Y-131587666D02*
X252041819Y-131444809D01*
X252041819Y-131444809D02*
X252041819Y-131206714D01*
X252041819Y-132730523D02*
X252041819Y-132159095D01*
X252041819Y-132444809D02*
X251041819Y-132444809D01*
X251041819Y-132444809D02*
X251184676Y-132349571D01*
X251184676Y-132349571D02*
X251279914Y-132254333D01*
X251279914Y-132254333D02*
X251327533Y-132159095D01*
X251137057Y-133111476D02*
X251089438Y-133159095D01*
X251089438Y-133159095D02*
X251041819Y-133254333D01*
X251041819Y-133254333D02*
X251041819Y-133492428D01*
X251041819Y-133492428D02*
X251089438Y-133587666D01*
X251089438Y-133587666D02*
X251137057Y-133635285D01*
X251137057Y-133635285D02*
X251232295Y-133682904D01*
X251232295Y-133682904D02*
X251327533Y-133682904D01*
X251327533Y-133682904D02*
X251470390Y-133635285D01*
X251470390Y-133635285D02*
X252041819Y-133063857D01*
X252041819Y-133063857D02*
X252041819Y-133682904D01*
X227403819Y-131682905D02*
X226403819Y-131682905D01*
X226403819Y-131682905D02*
X226403819Y-131921000D01*
X226403819Y-131921000D02*
X226451438Y-132063857D01*
X226451438Y-132063857D02*
X226546676Y-132159095D01*
X226546676Y-132159095D02*
X226641914Y-132206714D01*
X226641914Y-132206714D02*
X226832390Y-132254333D01*
X226832390Y-132254333D02*
X226975247Y-132254333D01*
X226975247Y-132254333D02*
X227165723Y-132206714D01*
X227165723Y-132206714D02*
X227260961Y-132159095D01*
X227260961Y-132159095D02*
X227356200Y-132063857D01*
X227356200Y-132063857D02*
X227403819Y-131921000D01*
X227403819Y-131921000D02*
X227403819Y-131682905D01*
X227403819Y-132730524D02*
X227403819Y-132921000D01*
X227403819Y-132921000D02*
X227356200Y-133016238D01*
X227356200Y-133016238D02*
X227308580Y-133063857D01*
X227308580Y-133063857D02*
X227165723Y-133159095D01*
X227165723Y-133159095D02*
X226975247Y-133206714D01*
X226975247Y-133206714D02*
X226594295Y-133206714D01*
X226594295Y-133206714D02*
X226499057Y-133159095D01*
X226499057Y-133159095D02*
X226451438Y-133111476D01*
X226451438Y-133111476D02*
X226403819Y-133016238D01*
X226403819Y-133016238D02*
X226403819Y-132825762D01*
X226403819Y-132825762D02*
X226451438Y-132730524D01*
X226451438Y-132730524D02*
X226499057Y-132682905D01*
X226499057Y-132682905D02*
X226594295Y-132635286D01*
X226594295Y-132635286D02*
X226832390Y-132635286D01*
X226832390Y-132635286D02*
X226927628Y-132682905D01*
X226927628Y-132682905D02*
X226975247Y-132730524D01*
X226975247Y-132730524D02*
X227022866Y-132825762D01*
X227022866Y-132825762D02*
X227022866Y-133016238D01*
X227022866Y-133016238D02*
X226975247Y-133111476D01*
X226975247Y-133111476D02*
X226927628Y-133159095D01*
X226927628Y-133159095D02*
X226832390Y-133206714D01*
X248993819Y-144454714D02*
X247993819Y-144454714D01*
X247993819Y-144454714D02*
X247993819Y-144692809D01*
X247993819Y-144692809D02*
X248041438Y-144835666D01*
X248041438Y-144835666D02*
X248136676Y-144930904D01*
X248136676Y-144930904D02*
X248231914Y-144978523D01*
X248231914Y-144978523D02*
X248422390Y-145026142D01*
X248422390Y-145026142D02*
X248565247Y-145026142D01*
X248565247Y-145026142D02*
X248755723Y-144978523D01*
X248755723Y-144978523D02*
X248850961Y-144930904D01*
X248850961Y-144930904D02*
X248946200Y-144835666D01*
X248946200Y-144835666D02*
X248993819Y-144692809D01*
X248993819Y-144692809D02*
X248993819Y-144454714D01*
X248993819Y-145978523D02*
X248993819Y-145407095D01*
X248993819Y-145692809D02*
X247993819Y-145692809D01*
X247993819Y-145692809D02*
X248136676Y-145597571D01*
X248136676Y-145597571D02*
X248231914Y-145502333D01*
X248231914Y-145502333D02*
X248279533Y-145407095D01*
X247993819Y-146311857D02*
X247993819Y-146930904D01*
X247993819Y-146930904D02*
X248374771Y-146597571D01*
X248374771Y-146597571D02*
X248374771Y-146740428D01*
X248374771Y-146740428D02*
X248422390Y-146835666D01*
X248422390Y-146835666D02*
X248470009Y-146883285D01*
X248470009Y-146883285D02*
X248565247Y-146930904D01*
X248565247Y-146930904D02*
X248803342Y-146930904D01*
X248803342Y-146930904D02*
X248898580Y-146883285D01*
X248898580Y-146883285D02*
X248946200Y-146835666D01*
X248946200Y-146835666D02*
X248993819Y-146740428D01*
X248993819Y-146740428D02*
X248993819Y-146454714D01*
X248993819Y-146454714D02*
X248946200Y-146359476D01*
X248946200Y-146359476D02*
X248898580Y-146311857D01*
X173006333Y-128348819D02*
X173006333Y-129063104D01*
X173006333Y-129063104D02*
X173053952Y-129205961D01*
X173053952Y-129205961D02*
X173149190Y-129301200D01*
X173149190Y-129301200D02*
X173292047Y-129348819D01*
X173292047Y-129348819D02*
X173387285Y-129348819D01*
X172006333Y-129348819D02*
X172577761Y-129348819D01*
X172292047Y-129348819D02*
X172292047Y-128348819D01*
X172292047Y-128348819D02*
X172387285Y-128491676D01*
X172387285Y-128491676D02*
X172482523Y-128586914D01*
X172482523Y-128586914D02*
X172577761Y-128634533D01*
X199717819Y-144930905D02*
X198717819Y-144930905D01*
X198717819Y-144930905D02*
X198717819Y-145169000D01*
X198717819Y-145169000D02*
X198765438Y-145311857D01*
X198765438Y-145311857D02*
X198860676Y-145407095D01*
X198860676Y-145407095D02*
X198955914Y-145454714D01*
X198955914Y-145454714D02*
X199146390Y-145502333D01*
X199146390Y-145502333D02*
X199289247Y-145502333D01*
X199289247Y-145502333D02*
X199479723Y-145454714D01*
X199479723Y-145454714D02*
X199574961Y-145407095D01*
X199574961Y-145407095D02*
X199670200Y-145311857D01*
X199670200Y-145311857D02*
X199717819Y-145169000D01*
X199717819Y-145169000D02*
X199717819Y-144930905D01*
X198717819Y-146359476D02*
X198717819Y-146169000D01*
X198717819Y-146169000D02*
X198765438Y-146073762D01*
X198765438Y-146073762D02*
X198813057Y-146026143D01*
X198813057Y-146026143D02*
X198955914Y-145930905D01*
X198955914Y-145930905D02*
X199146390Y-145883286D01*
X199146390Y-145883286D02*
X199527342Y-145883286D01*
X199527342Y-145883286D02*
X199622580Y-145930905D01*
X199622580Y-145930905D02*
X199670200Y-145978524D01*
X199670200Y-145978524D02*
X199717819Y-146073762D01*
X199717819Y-146073762D02*
X199717819Y-146264238D01*
X199717819Y-146264238D02*
X199670200Y-146359476D01*
X199670200Y-146359476D02*
X199622580Y-146407095D01*
X199622580Y-146407095D02*
X199527342Y-146454714D01*
X199527342Y-146454714D02*
X199289247Y-146454714D01*
X199289247Y-146454714D02*
X199194009Y-146407095D01*
X199194009Y-146407095D02*
X199146390Y-146359476D01*
X199146390Y-146359476D02*
X199098771Y-146264238D01*
X199098771Y-146264238D02*
X199098771Y-146073762D01*
X199098771Y-146073762D02*
X199146390Y-145978524D01*
X199146390Y-145978524D02*
X199194009Y-145930905D01*
X199194009Y-145930905D02*
X199289247Y-145883286D01*
X286075285Y-172793819D02*
X286075285Y-171793819D01*
X286075285Y-171793819D02*
X285837190Y-171793819D01*
X285837190Y-171793819D02*
X285694333Y-171841438D01*
X285694333Y-171841438D02*
X285599095Y-171936676D01*
X285599095Y-171936676D02*
X285551476Y-172031914D01*
X285551476Y-172031914D02*
X285503857Y-172222390D01*
X285503857Y-172222390D02*
X285503857Y-172365247D01*
X285503857Y-172365247D02*
X285551476Y-172555723D01*
X285551476Y-172555723D02*
X285599095Y-172650961D01*
X285599095Y-172650961D02*
X285694333Y-172746200D01*
X285694333Y-172746200D02*
X285837190Y-172793819D01*
X285837190Y-172793819D02*
X286075285Y-172793819D01*
X284551476Y-172793819D02*
X285122904Y-172793819D01*
X284837190Y-172793819D02*
X284837190Y-171793819D01*
X284837190Y-171793819D02*
X284932428Y-171936676D01*
X284932428Y-171936676D02*
X285027666Y-172031914D01*
X285027666Y-172031914D02*
X285122904Y-172079533D01*
X283646714Y-171793819D02*
X284122904Y-171793819D01*
X284122904Y-171793819D02*
X284170523Y-172270009D01*
X284170523Y-172270009D02*
X284122904Y-172222390D01*
X284122904Y-172222390D02*
X284027666Y-172174771D01*
X284027666Y-172174771D02*
X283789571Y-172174771D01*
X283789571Y-172174771D02*
X283694333Y-172222390D01*
X283694333Y-172222390D02*
X283646714Y-172270009D01*
X283646714Y-172270009D02*
X283599095Y-172365247D01*
X283599095Y-172365247D02*
X283599095Y-172603342D01*
X283599095Y-172603342D02*
X283646714Y-172698580D01*
X283646714Y-172698580D02*
X283694333Y-172746200D01*
X283694333Y-172746200D02*
X283789571Y-172793819D01*
X283789571Y-172793819D02*
X284027666Y-172793819D01*
X284027666Y-172793819D02*
X284122904Y-172746200D01*
X284122904Y-172746200D02*
X284170523Y-172698580D01*
X146534094Y-142313819D02*
X146534094Y-141313819D01*
X146534094Y-141313819D02*
X146295999Y-141313819D01*
X146295999Y-141313819D02*
X146153142Y-141361438D01*
X146153142Y-141361438D02*
X146057904Y-141456676D01*
X146057904Y-141456676D02*
X146010285Y-141551914D01*
X146010285Y-141551914D02*
X145962666Y-141742390D01*
X145962666Y-141742390D02*
X145962666Y-141885247D01*
X145962666Y-141885247D02*
X146010285Y-142075723D01*
X146010285Y-142075723D02*
X146057904Y-142170961D01*
X146057904Y-142170961D02*
X146153142Y-142266200D01*
X146153142Y-142266200D02*
X146295999Y-142313819D01*
X146295999Y-142313819D02*
X146534094Y-142313819D01*
X145105523Y-141647152D02*
X145105523Y-142313819D01*
X145343618Y-141266200D02*
X145581713Y-141980485D01*
X145581713Y-141980485D02*
X144962666Y-141980485D01*
X175079819Y-144930905D02*
X174079819Y-144930905D01*
X174079819Y-144930905D02*
X174079819Y-145169000D01*
X174079819Y-145169000D02*
X174127438Y-145311857D01*
X174127438Y-145311857D02*
X174222676Y-145407095D01*
X174222676Y-145407095D02*
X174317914Y-145454714D01*
X174317914Y-145454714D02*
X174508390Y-145502333D01*
X174508390Y-145502333D02*
X174651247Y-145502333D01*
X174651247Y-145502333D02*
X174841723Y-145454714D01*
X174841723Y-145454714D02*
X174936961Y-145407095D01*
X174936961Y-145407095D02*
X175032200Y-145311857D01*
X175032200Y-145311857D02*
X175079819Y-145169000D01*
X175079819Y-145169000D02*
X175079819Y-144930905D01*
X174175057Y-145883286D02*
X174127438Y-145930905D01*
X174127438Y-145930905D02*
X174079819Y-146026143D01*
X174079819Y-146026143D02*
X174079819Y-146264238D01*
X174079819Y-146264238D02*
X174127438Y-146359476D01*
X174127438Y-146359476D02*
X174175057Y-146407095D01*
X174175057Y-146407095D02*
X174270295Y-146454714D01*
X174270295Y-146454714D02*
X174365533Y-146454714D01*
X174365533Y-146454714D02*
X174508390Y-146407095D01*
X174508390Y-146407095D02*
X175079819Y-145835667D01*
X175079819Y-145835667D02*
X175079819Y-146454714D01*
X146407094Y-166951819D02*
X146407094Y-165951819D01*
X146407094Y-165951819D02*
X146168999Y-165951819D01*
X146168999Y-165951819D02*
X146026142Y-165999438D01*
X146026142Y-165999438D02*
X145930904Y-166094676D01*
X145930904Y-166094676D02*
X145883285Y-166189914D01*
X145883285Y-166189914D02*
X145835666Y-166380390D01*
X145835666Y-166380390D02*
X145835666Y-166523247D01*
X145835666Y-166523247D02*
X145883285Y-166713723D01*
X145883285Y-166713723D02*
X145930904Y-166808961D01*
X145930904Y-166808961D02*
X146026142Y-166904200D01*
X146026142Y-166904200D02*
X146168999Y-166951819D01*
X146168999Y-166951819D02*
X146407094Y-166951819D01*
X145264237Y-166380390D02*
X145359475Y-166332771D01*
X145359475Y-166332771D02*
X145407094Y-166285152D01*
X145407094Y-166285152D02*
X145454713Y-166189914D01*
X145454713Y-166189914D02*
X145454713Y-166142295D01*
X145454713Y-166142295D02*
X145407094Y-166047057D01*
X145407094Y-166047057D02*
X145359475Y-165999438D01*
X145359475Y-165999438D02*
X145264237Y-165951819D01*
X145264237Y-165951819D02*
X145073761Y-165951819D01*
X145073761Y-165951819D02*
X144978523Y-165999438D01*
X144978523Y-165999438D02*
X144930904Y-166047057D01*
X144930904Y-166047057D02*
X144883285Y-166142295D01*
X144883285Y-166142295D02*
X144883285Y-166189914D01*
X144883285Y-166189914D02*
X144930904Y-166285152D01*
X144930904Y-166285152D02*
X144978523Y-166332771D01*
X144978523Y-166332771D02*
X145073761Y-166380390D01*
X145073761Y-166380390D02*
X145264237Y-166380390D01*
X145264237Y-166380390D02*
X145359475Y-166428009D01*
X145359475Y-166428009D02*
X145407094Y-166475628D01*
X145407094Y-166475628D02*
X145454713Y-166570866D01*
X145454713Y-166570866D02*
X145454713Y-166761342D01*
X145454713Y-166761342D02*
X145407094Y-166856580D01*
X145407094Y-166856580D02*
X145359475Y-166904200D01*
X145359475Y-166904200D02*
X145264237Y-166951819D01*
X145264237Y-166951819D02*
X145073761Y-166951819D01*
X145073761Y-166951819D02*
X144978523Y-166904200D01*
X144978523Y-166904200D02*
X144930904Y-166856580D01*
X144930904Y-166856580D02*
X144883285Y-166761342D01*
X144883285Y-166761342D02*
X144883285Y-166570866D01*
X144883285Y-166570866D02*
X144930904Y-166475628D01*
X144930904Y-166475628D02*
X144978523Y-166428009D01*
X144978523Y-166428009D02*
X145073761Y-166380390D01*
X286075285Y-148028819D02*
X286075285Y-147028819D01*
X286075285Y-147028819D02*
X285837190Y-147028819D01*
X285837190Y-147028819D02*
X285694333Y-147076438D01*
X285694333Y-147076438D02*
X285599095Y-147171676D01*
X285599095Y-147171676D02*
X285551476Y-147266914D01*
X285551476Y-147266914D02*
X285503857Y-147457390D01*
X285503857Y-147457390D02*
X285503857Y-147600247D01*
X285503857Y-147600247D02*
X285551476Y-147790723D01*
X285551476Y-147790723D02*
X285599095Y-147885961D01*
X285599095Y-147885961D02*
X285694333Y-147981200D01*
X285694333Y-147981200D02*
X285837190Y-148028819D01*
X285837190Y-148028819D02*
X286075285Y-148028819D01*
X284551476Y-148028819D02*
X285122904Y-148028819D01*
X284837190Y-148028819D02*
X284837190Y-147028819D01*
X284837190Y-147028819D02*
X284932428Y-147171676D01*
X284932428Y-147171676D02*
X285027666Y-147266914D01*
X285027666Y-147266914D02*
X285122904Y-147314533D01*
X284075285Y-148028819D02*
X283884809Y-148028819D01*
X283884809Y-148028819D02*
X283789571Y-147981200D01*
X283789571Y-147981200D02*
X283741952Y-147933580D01*
X283741952Y-147933580D02*
X283646714Y-147790723D01*
X283646714Y-147790723D02*
X283599095Y-147600247D01*
X283599095Y-147600247D02*
X283599095Y-147219295D01*
X283599095Y-147219295D02*
X283646714Y-147124057D01*
X283646714Y-147124057D02*
X283694333Y-147076438D01*
X283694333Y-147076438D02*
X283789571Y-147028819D01*
X283789571Y-147028819D02*
X283980047Y-147028819D01*
X283980047Y-147028819D02*
X284075285Y-147076438D01*
X284075285Y-147076438D02*
X284122904Y-147124057D01*
X284122904Y-147124057D02*
X284170523Y-147219295D01*
X284170523Y-147219295D02*
X284170523Y-147457390D01*
X284170523Y-147457390D02*
X284122904Y-147552628D01*
X284122904Y-147552628D02*
X284075285Y-147600247D01*
X284075285Y-147600247D02*
X283980047Y-147647866D01*
X283980047Y-147647866D02*
X283789571Y-147647866D01*
X283789571Y-147647866D02*
X283694333Y-147600247D01*
X283694333Y-147600247D02*
X283646714Y-147552628D01*
X283646714Y-147552628D02*
X283599095Y-147457390D01*
X178000819Y-127531905D02*
X177000819Y-127531905D01*
X177000819Y-127531905D02*
X177000819Y-127770000D01*
X177000819Y-127770000D02*
X177048438Y-127912857D01*
X177048438Y-127912857D02*
X177143676Y-128008095D01*
X177143676Y-128008095D02*
X177238914Y-128055714D01*
X177238914Y-128055714D02*
X177429390Y-128103333D01*
X177429390Y-128103333D02*
X177572247Y-128103333D01*
X177572247Y-128103333D02*
X177762723Y-128055714D01*
X177762723Y-128055714D02*
X177857961Y-128008095D01*
X177857961Y-128008095D02*
X177953200Y-127912857D01*
X177953200Y-127912857D02*
X178000819Y-127770000D01*
X178000819Y-127770000D02*
X178000819Y-127531905D01*
X178000819Y-129055714D02*
X178000819Y-128484286D01*
X178000819Y-128770000D02*
X177000819Y-128770000D01*
X177000819Y-128770000D02*
X177143676Y-128674762D01*
X177143676Y-128674762D02*
X177238914Y-128579524D01*
X177238914Y-128579524D02*
X177286533Y-128484286D01*
X276425819Y-170402714D02*
X275425819Y-170402714D01*
X275425819Y-170402714D02*
X275425819Y-170640809D01*
X275425819Y-170640809D02*
X275473438Y-170783666D01*
X275473438Y-170783666D02*
X275568676Y-170878904D01*
X275568676Y-170878904D02*
X275663914Y-170926523D01*
X275663914Y-170926523D02*
X275854390Y-170974142D01*
X275854390Y-170974142D02*
X275997247Y-170974142D01*
X275997247Y-170974142D02*
X276187723Y-170926523D01*
X276187723Y-170926523D02*
X276282961Y-170878904D01*
X276282961Y-170878904D02*
X276378200Y-170783666D01*
X276378200Y-170783666D02*
X276425819Y-170640809D01*
X276425819Y-170640809D02*
X276425819Y-170402714D01*
X276425819Y-171926523D02*
X276425819Y-171355095D01*
X276425819Y-171640809D02*
X275425819Y-171640809D01*
X275425819Y-171640809D02*
X275568676Y-171545571D01*
X275568676Y-171545571D02*
X275663914Y-171450333D01*
X275663914Y-171450333D02*
X275711533Y-171355095D01*
X275854390Y-172497952D02*
X275806771Y-172402714D01*
X275806771Y-172402714D02*
X275759152Y-172355095D01*
X275759152Y-172355095D02*
X275663914Y-172307476D01*
X275663914Y-172307476D02*
X275616295Y-172307476D01*
X275616295Y-172307476D02*
X275521057Y-172355095D01*
X275521057Y-172355095D02*
X275473438Y-172402714D01*
X275473438Y-172402714D02*
X275425819Y-172497952D01*
X275425819Y-172497952D02*
X275425819Y-172688428D01*
X275425819Y-172688428D02*
X275473438Y-172783666D01*
X275473438Y-172783666D02*
X275521057Y-172831285D01*
X275521057Y-172831285D02*
X275616295Y-172878904D01*
X275616295Y-172878904D02*
X275663914Y-172878904D01*
X275663914Y-172878904D02*
X275759152Y-172831285D01*
X275759152Y-172831285D02*
X275806771Y-172783666D01*
X275806771Y-172783666D02*
X275854390Y-172688428D01*
X275854390Y-172688428D02*
X275854390Y-172497952D01*
X275854390Y-172497952D02*
X275902009Y-172402714D01*
X275902009Y-172402714D02*
X275949628Y-172355095D01*
X275949628Y-172355095D02*
X276044866Y-172307476D01*
X276044866Y-172307476D02*
X276235342Y-172307476D01*
X276235342Y-172307476D02*
X276330580Y-172355095D01*
X276330580Y-172355095D02*
X276378200Y-172402714D01*
X276378200Y-172402714D02*
X276425819Y-172497952D01*
X276425819Y-172497952D02*
X276425819Y-172688428D01*
X276425819Y-172688428D02*
X276378200Y-172783666D01*
X276378200Y-172783666D02*
X276330580Y-172831285D01*
X276330580Y-172831285D02*
X276235342Y-172878904D01*
X276235342Y-172878904D02*
X276044866Y-172878904D01*
X276044866Y-172878904D02*
X275949628Y-172831285D01*
X275949628Y-172831285D02*
X275902009Y-172783666D01*
X275902009Y-172783666D02*
X275854390Y-172688428D01*
D11*
%TO.C,D5*%
X200661000Y-130748000D02*
X200661000Y-123738000D01*
X203961000Y-130748000D02*
X200661000Y-130748000D01*
X203961000Y-130748000D02*
X203961000Y-123738000D01*
%TO.C,D14*%
X252983000Y-160844000D02*
X252983000Y-167854000D01*
X249683000Y-160844000D02*
X252983000Y-160844000D01*
X249683000Y-160844000D02*
X249683000Y-167854000D01*
%TO.C,D17*%
X274194000Y-150092000D02*
X274194000Y-143082000D01*
X277494000Y-150092000D02*
X274194000Y-150092000D01*
X277494000Y-150092000D02*
X277494000Y-143082000D01*
%TO.C,D11*%
X228345000Y-160844000D02*
X228345000Y-167854000D01*
X225045000Y-160844000D02*
X228345000Y-160844000D01*
X225045000Y-160844000D02*
X225045000Y-167854000D01*
%TO.C,D7*%
X203707000Y-160844000D02*
X203707000Y-167854000D01*
X200407000Y-160844000D02*
X203707000Y-160844000D01*
X200407000Y-160844000D02*
X200407000Y-167854000D01*
%TO.C,D16*%
X274194000Y-130621000D02*
X274194000Y-123611000D01*
X277494000Y-130621000D02*
X274194000Y-130621000D01*
X277494000Y-130621000D02*
X277494000Y-123611000D01*
%TO.C,D10*%
X224918000Y-150092000D02*
X224918000Y-143082000D01*
X228218000Y-150092000D02*
X224918000Y-150092000D01*
X228218000Y-150092000D02*
X228218000Y-143082000D01*
%TO.C,D3*%
X179069000Y-160844000D02*
X179069000Y-167854000D01*
X175769000Y-160844000D02*
X179069000Y-160844000D01*
X175769000Y-160844000D02*
X175769000Y-167854000D01*
%TO.C,D12*%
X249937000Y-130748000D02*
X249937000Y-123738000D01*
X253237000Y-130748000D02*
X249937000Y-130748000D01*
X253237000Y-130748000D02*
X253237000Y-123738000D01*
%TO.C,D9*%
X225299000Y-130748000D02*
X225299000Y-123738000D01*
X228599000Y-130748000D02*
X225299000Y-130748000D01*
X228599000Y-130748000D02*
X228599000Y-123738000D01*
%TO.C,D13*%
X249556000Y-150092000D02*
X249556000Y-143082000D01*
X252856000Y-150092000D02*
X249556000Y-150092000D01*
X252856000Y-150092000D02*
X252856000Y-143082000D01*
%TO.C,J1*%
X180523000Y-129694000D02*
X180523000Y-130944000D01*
X180233000Y-135954000D02*
X165113000Y-135954000D01*
X180233000Y-129984000D02*
X180233000Y-135954000D01*
X180223000Y-132244000D02*
X179473000Y-132244000D01*
X180223000Y-130744000D02*
X178423000Y-130744000D01*
X180223000Y-129994000D02*
X180223000Y-130744000D01*
X179473000Y-135194000D02*
X172673000Y-135194000D01*
X179473000Y-132244000D02*
X179473000Y-135194000D01*
X179273000Y-129694000D02*
X180523000Y-129694000D01*
X178423000Y-130744000D02*
X178423000Y-129994000D01*
X178423000Y-129994000D02*
X180223000Y-129994000D01*
X176923000Y-130744000D02*
X168423000Y-130744000D01*
X176923000Y-129994000D02*
X176923000Y-130744000D01*
X168423000Y-130744000D02*
X168423000Y-129994000D01*
X168423000Y-129994000D02*
X176923000Y-129994000D01*
X166923000Y-130744000D02*
X165123000Y-130744000D01*
X166923000Y-129994000D02*
X166923000Y-130744000D01*
X165873000Y-135194000D02*
X172673000Y-135194000D01*
X165873000Y-132244000D02*
X165873000Y-135194000D01*
X165123000Y-132244000D02*
X165873000Y-132244000D01*
X165123000Y-130744000D02*
X165123000Y-129994000D01*
X165123000Y-129994000D02*
X166923000Y-129994000D01*
X165113000Y-135954000D02*
X165113000Y-129984000D01*
X165113000Y-129984000D02*
X180233000Y-129984000D01*
%TO.C,D6*%
X200280000Y-150092000D02*
X200280000Y-143082000D01*
X203580000Y-150092000D02*
X200280000Y-150092000D01*
X203580000Y-150092000D02*
X203580000Y-143082000D01*
%TO.C,D15*%
X280351000Y-167768000D02*
X287361000Y-167768000D01*
X280351000Y-171068000D02*
X280351000Y-167768000D01*
X280351000Y-171068000D02*
X287361000Y-171068000D01*
%TO.C,D4*%
X150306000Y-146303000D02*
X143296000Y-146303000D01*
X150306000Y-143003000D02*
X150306000Y-146303000D01*
X150306000Y-143003000D02*
X143296000Y-143003000D01*
%TO.C,D2*%
X175642000Y-150092000D02*
X175642000Y-143082000D01*
X178942000Y-150092000D02*
X175642000Y-150092000D01*
X178942000Y-150092000D02*
X178942000Y-143082000D01*
%TO.C,D8*%
X150219000Y-170814000D02*
X143209000Y-170814000D01*
X150219000Y-167514000D02*
X150219000Y-170814000D01*
X150219000Y-167514000D02*
X143209000Y-167514000D01*
%TO.C,D19*%
X280351000Y-143130000D02*
X287361000Y-143130000D01*
X280351000Y-146430000D02*
X280351000Y-143130000D01*
X280351000Y-146430000D02*
X287361000Y-146430000D01*
%TO.C,D1*%
X176023000Y-126724000D02*
X176023000Y-119714000D01*
X179323000Y-126724000D02*
X176023000Y-126724000D01*
X179323000Y-126724000D02*
X179323000Y-119714000D01*
%TO.C,D18*%
X277621000Y-160717000D02*
X277621000Y-167727000D01*
X274321000Y-160717000D02*
X277621000Y-160717000D01*
X274321000Y-160717000D02*
X274321000Y-167727000D01*
%TD*%
%LPC*%
D12*
%TO.C,SW13*%
X239268000Y-145669000D03*
D13*
X241808000Y-140589000D03*
X235458000Y-143129000D03*
%TD*%
D12*
%TO.C,SW8*%
X140716000Y-157988000D03*
D13*
X143256000Y-152908000D03*
X136906000Y-155448000D03*
%TD*%
D12*
%TO.C,SW4*%
X140716000Y-133350000D03*
D13*
X143256000Y-128270000D03*
X136906000Y-130810000D03*
%TD*%
D12*
%TO.C,SW9*%
X214630000Y-121031000D03*
D13*
X217170000Y-115951000D03*
X210820000Y-118491000D03*
%TD*%
D12*
%TO.C,SW2*%
X165354000Y-145669000D03*
D13*
X167894000Y-140589000D03*
X161544000Y-143129000D03*
%TD*%
D12*
%TO.C,SW17*%
X263906000Y-145669000D03*
D13*
X266446000Y-140589000D03*
X260096000Y-143129000D03*
%TD*%
D12*
%TO.C,SW6*%
X189992000Y-145669000D03*
D13*
X192532000Y-140589000D03*
X186182000Y-143129000D03*
%TD*%
D12*
%TO.C,SW16*%
X263906000Y-121031000D03*
D13*
X266446000Y-115951000D03*
X260096000Y-118491000D03*
%TD*%
D12*
%TO.C,SW18*%
X263906000Y-170307000D03*
D13*
X266446000Y-165227000D03*
X260096000Y-167767000D03*
%TD*%
D12*
%TO.C,SW10*%
X214630000Y-145669000D03*
D13*
X217170000Y-140589000D03*
X210820000Y-143129000D03*
%TD*%
D12*
%TO.C,SW12*%
X239268000Y-121031000D03*
D13*
X241808000Y-115951000D03*
X235458000Y-118491000D03*
%TD*%
D12*
%TO.C,SW11*%
X214630000Y-170307000D03*
D13*
X217170000Y-165227000D03*
X210820000Y-167767000D03*
%TD*%
D12*
%TO.C,SW5*%
X189992000Y-121031000D03*
D13*
X192532000Y-115951000D03*
X186182000Y-118491000D03*
%TD*%
D12*
%TO.C,SW7*%
X189992000Y-170307000D03*
D13*
X192532000Y-165227000D03*
X186182000Y-167767000D03*
%TD*%
D12*
%TO.C,SW15*%
X288544000Y-157988000D03*
D13*
X291084000Y-152908000D03*
X284734000Y-155448000D03*
%TD*%
D12*
%TO.C,SW1*%
X165354000Y-121031000D03*
D13*
X167894000Y-115951000D03*
X161544000Y-118491000D03*
%TD*%
D12*
%TO.C,SW3*%
X165354000Y-170307000D03*
D13*
X167894000Y-165227000D03*
X161544000Y-167767000D03*
%TD*%
D12*
%TO.C,SW19*%
X288544000Y-133350000D03*
D13*
X291084000Y-128270000D03*
X284734000Y-130810000D03*
%TD*%
D12*
%TO.C,SW14*%
X239268000Y-170307000D03*
D13*
X241808000Y-165227000D03*
X235458000Y-167767000D03*
%TD*%
D14*
%TO.C,D5*%
X202311000Y-128738000D03*
X202311000Y-123738000D03*
%TD*%
D15*
%TO.C,D14*%
X251333000Y-162854000D03*
X251333000Y-167854000D03*
%TD*%
D14*
%TO.C,D17*%
X275844000Y-148082000D03*
X275844000Y-143082000D03*
%TD*%
D15*
%TO.C,D11*%
X226695000Y-162854000D03*
X226695000Y-167854000D03*
%TD*%
D16*
%TO.C,A1*%
X199390000Y-138049000D03*
X224790000Y-138049000D03*
X204470000Y-138049000D03*
X207010000Y-138049000D03*
X209550000Y-138049000D03*
X212090000Y-138049000D03*
X214630000Y-138049000D03*
X217170000Y-138049000D03*
X219710000Y-138049000D03*
X222250000Y-138049000D03*
X201930000Y-138049000D03*
X229870000Y-153289000D03*
X232410000Y-153289000D03*
X222250000Y-153289000D03*
X219710000Y-153289000D03*
X217170000Y-153289000D03*
X214630000Y-153289000D03*
X212090000Y-153289000D03*
X209550000Y-153289000D03*
X207010000Y-153289000D03*
X204470000Y-153289000D03*
X201930000Y-153289000D03*
X199390000Y-153289000D03*
X196850000Y-153289000D03*
X196850000Y-138049000D03*
D17*
X224790000Y-153289000D03*
X229870000Y-138049000D03*
D16*
X227330000Y-153289000D03*
X227330000Y-138049000D03*
X232410000Y-138049000D03*
%TD*%
D15*
%TO.C,D7*%
X202057000Y-162854000D03*
X202057000Y-167854000D03*
%TD*%
D14*
%TO.C,D16*%
X275844000Y-128611000D03*
X275844000Y-123611000D03*
%TD*%
%TO.C,D10*%
X226568000Y-148082000D03*
X226568000Y-143082000D03*
%TD*%
D15*
%TO.C,D3*%
X177419000Y-162854000D03*
X177419000Y-167854000D03*
%TD*%
D14*
%TO.C,D12*%
X251587000Y-128738000D03*
X251587000Y-123738000D03*
%TD*%
%TO.C,D9*%
X226949000Y-128738000D03*
X226949000Y-123738000D03*
%TD*%
%TO.C,D13*%
X251206000Y-148082000D03*
X251206000Y-143082000D03*
%TD*%
D18*
%TO.C,J1*%
X177673000Y-132444000D03*
D19*
X175173000Y-132444000D03*
X172673000Y-132444000D03*
X170173000Y-132444000D03*
X167673000Y-132444000D03*
%TD*%
D14*
%TO.C,D6*%
X201930000Y-148082000D03*
X201930000Y-143082000D03*
%TD*%
D20*
%TO.C,D15*%
X282361000Y-169418000D03*
X287361000Y-169418000D03*
%TD*%
D21*
%TO.C,D4*%
X148296000Y-144653000D03*
X143296000Y-144653000D03*
%TD*%
D14*
%TO.C,D2*%
X177292000Y-148082000D03*
X177292000Y-143082000D03*
%TD*%
D21*
%TO.C,D8*%
X148209000Y-169164000D03*
X143209000Y-169164000D03*
%TD*%
D20*
%TO.C,D19*%
X282361000Y-144780000D03*
X287361000Y-144780000D03*
%TD*%
D14*
%TO.C,D1*%
X177673000Y-124714000D03*
X177673000Y-119714000D03*
%TD*%
D15*
%TO.C,D18*%
X275971000Y-162727000D03*
X275971000Y-167727000D03*
%TD*%
%LPD*%
M02*
