M48
; DRILL file {KiCad 7.0.10} date Sun Mar 24 14:09:42 2024
; FORMAT={-:-/ absolute / metric / decimal}
; #@! TF.CreationDate,2024-03-24T14:09:42-04:00
; #@! TF.GenerationSoftware,Kicad,Pcbnew,7.0.10
; #@! TF.FileFunction,Plated,1,2,PTH
FMAT,2
METRIC
; #@! TA.AperFunction,Plated,PTH,ViaDrill
T1C0.400
; #@! TA.AperFunction,Plated,PTH,ComponentDrill
T2C0.950
; #@! TA.AperFunction,Plated,PTH,ComponentDrill
T3C1.016
; #@! TA.AperFunction,Plated,PTH,ComponentDrill
T4C1.500
%
G90
G05
T1
X157.099Y-139.065
X157.099Y-142.113
X157.099Y-149.098
X157.099Y-152.146
X173.609Y-139.065
X173.609Y-142.113
X173.609Y-149.098
X173.609Y-152.146
X184.658Y-125.476
X184.658Y-126.746
X184.658Y-147.828
X184.658Y-149.098
X184.658Y-164.592
X184.658Y-165.862
X187.706Y-125.476
X187.706Y-126.746
X187.706Y-147.828
X187.706Y-149.098
X187.706Y-164.592
X187.706Y-165.862
X187.909Y-136.906
X191.008Y-148.717
X194.056Y-148.717
X200.406Y-159.639
X200.406Y-160.909
X201.016Y-133.858
X201.041Y-132.334
X202.946Y-131.318
X202.946Y-134.874
X203.454Y-159.639
X203.454Y-160.909
X205.994Y-131.318
X205.994Y-134.874
X207.899Y-132.334
X207.899Y-133.858
X209.296Y-125.476
X209.296Y-126.746
X209.296Y-164.592
X209.296Y-165.862
X212.344Y-125.476
X212.344Y-126.746
X212.344Y-164.592
X212.344Y-165.862
X218.796Y-133.883
X220.04Y-135.179
X226.949Y-144.12
X233.934Y-125.476
X233.934Y-126.746
X233.934Y-147.828
X233.934Y-149.098
X233.934Y-164.592
X233.934Y-165.862
X236.982Y-125.476
X236.982Y-126.746
X236.982Y-147.828
X236.982Y-149.098
X236.982Y-164.592
X236.982Y-165.862
X240.284Y-148.717
X243.332Y-148.717
X247.828Y-141.859
X247.828Y-144.399
X250.342Y-141.859
X250.342Y-144.399
X255.651Y-139.065
X255.651Y-142.113
X255.651Y-149.098
X255.651Y-152.146
X272.161Y-139.065
X272.161Y-142.113
X272.161Y-149.098
X272.161Y-152.146
T2
X167.673Y-132.444
X170.173Y-132.444
X172.673Y-132.444
X175.173Y-132.444
X177.673Y-132.444
X247.837Y-133.875
X247.837Y-158.513
X250.337Y-133.875
X250.337Y-158.513
X252.837Y-133.875
X252.837Y-158.513
X255.337Y-133.875
X255.337Y-158.513
T3
X196.85Y-138.049
X196.85Y-153.289
X199.39Y-138.049
X199.39Y-153.289
X201.93Y-138.049
X201.93Y-153.289
X204.47Y-138.049
X204.47Y-153.289
X207.01Y-138.049
X207.01Y-153.289
X209.55Y-138.049
X209.55Y-153.289
X212.09Y-138.049
X212.09Y-153.289
X214.63Y-138.049
X214.63Y-153.289
X217.17Y-138.049
X217.17Y-153.289
X219.71Y-138.049
X219.71Y-153.289
X222.25Y-138.049
X222.25Y-153.289
X224.79Y-138.049
X224.79Y-153.289
X227.33Y-138.049
X227.33Y-153.289
X229.87Y-138.049
X229.87Y-153.289
X232.41Y-138.049
X232.41Y-153.289
T4
X136.906Y-130.81
X136.906Y-155.448
X143.256Y-128.27
X143.256Y-152.908
X161.544Y-118.491
X161.544Y-143.129
X161.544Y-167.767
X167.894Y-115.951
X167.894Y-140.589
X167.894Y-165.227
X186.182Y-118.491
X186.182Y-143.129
X186.182Y-167.767
X192.532Y-115.951
X192.532Y-140.589
X192.532Y-165.227
X210.82Y-118.491
X210.82Y-143.129
X210.82Y-167.767
X217.17Y-115.951
X217.17Y-140.589
X217.17Y-165.227
X235.458Y-118.491
X235.458Y-143.129
X235.458Y-167.767
X241.808Y-115.951
X241.808Y-140.589
X241.808Y-165.227
X260.096Y-118.491
X260.096Y-143.129
X260.096Y-167.767
X266.446Y-115.951
X266.446Y-140.589
X266.446Y-165.227
X284.734Y-130.81
X284.734Y-155.448
X291.084Y-128.27
X291.084Y-152.908
M30
