  0
SECTION
  2
HEADER
  9
$ACADVER
  1
AC1014
  9
$HANDSEED
  5
FFFF
  9
$INSUNITS
 70
     4
  9
$MEASUREMENT
 70
     1
  0
ENDSEC
  0
SECTION
  2
TABLES
  0
TABLE
  2
VPORT
  5
8
330
0
100
AcDbSymbolTable
 70
     4
  0
VPORT
  5
2E
330
8
100
AcDbSymbolTableRecord
100
AcDbViewportTableRecord
  2
*ACTIVE
 70
     0
 10
0.0
 20
0.0
 11
1.0
 21
1.0
 12
210.0
 22
148.5
 13
0.0
 23
0.0
 14
10.0
 24
10.0
 15
10.0
 25
10.0
 16
0.0
 26
0.0
 36
1.0
 17
0.0
 27
0.0
 37
0.0
 40
341.0
 41
1.24
 42
50.0
 43
0.0
 44
0.0
 50
0.0
 51
0.0
 71
     0
 72
   100
 73
     1
 74
     3
 75
     0
 76
     0
 77
     0
 78
     0
  0
ENDTAB
  0
TABLE
  2
LTYPE
  5
5
330
0
100
AcDbSymbolTable
 70
     1
  0
LTYPE
  5
14
330
5
100
AcDbSymbolTableRecord
100
AcDbLinetypeTableRecord
  2
BYBLOCK
 70
     0
  3

 72
    65
 73
     0
 40
0.0
  0
LTYPE
  5
15
330
5
100
AcDbSymbolTableRecord
100
AcDbLinetypeTableRecord
  2
BYLAYER
 70
     0
  3

 72
    65
 73
     0
 40
0.0
  0
LTYPE
  5
16
330
5
100
AcDbSymbolTableRecord
100
AcDbLinetypeTableRecord
  2
CONTINUOUS
 70
     0
  3
Solid line
 72
    65
 73
     0
 40
0.0
  0
ENDTAB
  0
TABLE
  2
LAYER
  5
2
100
AcDbSymbolTable
 70
1
  0
LAYER
  5
50
100
AcDbSymbolTableRecord
100
AcDbLayerTableRecord
  2
0
 70
0
  6
CONTINUOUS
  0
ENDTAB
  0
TABLE
  2
STYLE
  5
3
330
0
100
AcDbSymbolTable
 70
     1
  0
STYLE
  5
11
330
3
100
AcDbSymbolTableRecord
100
AcDbTextStyleTableRecord
  2
STANDARD
 70
     0
 40
0.0
 41
1.0
 50
0.0
 71
     0
 42
2.5
  3
txt
  4

  0
ENDTAB
  0
TABLE
  2
VIEW
  5
6
330
0
100
AcDbSymbolTable
 70
     0
  0
ENDTAB
  0
TABLE
  2
UCS
  5
7
330
0
100
AcDbSymbolTable
 70
     0
  0
ENDTAB
  0
TABLE
  2
APPID
  5
9
330
0
100
AcDbSymbolTable
 70
     2
  0
APPID
  5
12
330
9
100
AcDbSymbolTableRecord
100
AcDbRegAppTableRecord
  2
ACAD
 70
     0
  0
ENDTAB
  0
TABLE
  2
DIMSTYLE
  5
A
330
0
100
AcDbSymbolTable
 70
     1
  0
DIMSTYLE
105
27
330
A
100
AcDbSymbolTableRecord
100
AcDbDimStyleTableRecord
  2
ISO-25
 70
     0
  3

  4

  5

  6

  7

 40
1.0
 41
2.5
 42
0.625
 43
3.75
 44
1.25
 45
0.0
 46
0.0
 47
0.0
 48
0.0
140
2.5
141
2.5
142
0.0
143
0.03937007874016
144
1.0
145
0.0
146
1.0
147
0.625
 71
     0
 72
     0
 73
     0
 74
     0
 75
     0
 76
     0
 77
     1
 78
     8
170
     0
171
     3
172
     1
173
     0
174
     0
175
     0
176
     0
177
     0
178
     0
270
     2
271
     2
272
     2
273
     2
274
     3
340
11
275
     0
280
     0
281
     0
282
     0
283
     0
284
     8
285
     0
286
     0
287
     3
288
     0
  0
ENDTAB
  0
TABLE
  2
BLOCK_RECORD
  5
1
330
0
100
AcDbSymbolTable
 70
     1
  0
BLOCK_RECORD
  5
1F
330
1
100
AcDbSymbolTableRecord
100
AcDbBlockTableRecord
  2
*MODEL_SPACE
  0
BLOCK_RECORD
  5
1B
330
1
100
AcDbSymbolTableRecord
100
AcDbBlockTableRecord
  2
*PAPER_SPACE
  0
ENDTAB
  0
ENDSEC
  0
SECTION
  2
BLOCKS
  0
BLOCK
  5
20
330
1F
100
AcDbEntity
  8
0
100
AcDbBlockBegin
  2
*MODEL_SPACE
 70
     0
 10
0.0
 20
0.0
 30
0.0
  3
*MODEL_SPACE
  1

  0
ENDBLK
  5
21
330
1F
100
AcDbEntity
  8
0
100
AcDbBlockEnd
  0
BLOCK
  5
1C
330
1B
100
AcDbEntity
 67
     1
  8
0
100
AcDbBlockBegin
  2
*PAPER_SPACE
  1

  0
ENDBLK
  5
1D
330
1B
100
AcDbEntity
 67
     1
  8
0
100
AcDbBlockEnd
  0
ENDSEC
  0
SECTION
  2
ENTITIES
  0
SPLINE
  5
100
100
AcDbEntity
  8
0
 62
7
100
AcDbSpline
 70
8
 71
3
 72
8
 73
4
 74
0
 40
0
 40
0
 40
0
 40
0
 40
1
 40
1
 40
1
 40
1
 10
12.939670
 20
7.984163
 30
0.0
 10
12.939670
 20
7.870086
 30
0.0
 10
12.898600
 20
7.774261
 30
0.0
 10
12.816460
 20
7.696689
 30
0.0
  0
SPLINE
  5
101
100
AcDbEntity
  8
0
 62
7
100
AcDbSpline
 70
8
 71
3
 72
8
 73
4
 74
0
 40
0
 40
0
 40
0
 40
0
 40
1
 40
1
 40
1
 40
1
 10
12.816460
 20
7.696689
 30
0.0
 10
12.738889
 20
7.614550
 30
0.0
 10
12.643064
 20
7.573480
 30
0.0
 10
12.528987
 20
7.573480
 30
0.0
  0
SPLINE
  5
102
100
AcDbEntity
  8
0
 62
7
100
AcDbSpline
 70
8
 71
3
 72
8
 73
4
 74
0
 40
0
 40
0
 40
0
 40
0
 40
1
 40
1
 40
1
 40
1
 10
8.915027
 20
7.573480
 30
0.0
 10
8.796388
 20
7.573480
 30
0.0
 10
8.698282
 20
7.619112
 30
0.0
 10
8.620709
 20
7.710376
 30
0.0
  0
SPLINE
  5
103
100
AcDbEntity
  8
0
 62
7
100
AcDbSpline
 70
8
 71
3
 72
8
 73
4
 74
0
 40
0
 40
0
 40
0
 40
0
 40
1
 40
1
 40
1
 40
1
 10
8.620709
 20
7.710376
 30
0.0
 10
8.543137
 20
7.797072
 30
0.0
 10
8.504351
 20
7.888333
 30
0.0
 10
8.504351
 20
7.984160
 30
0.0
  0
SPLINE
  5
104
100
AcDbEntity
  8
0
 62
7
100
AcDbSpline
 70
8
 71
3
 72
8
 73
4
 74
0
 40
0
 40
0
 40
0
 40
0
 40
1
 40
1
 40
1
 40
1
 10
8.504351
 20
7.984160
 30
0.0
 10
8.504351
 20
8.216877
 30
0.0
 10
8.522605
 20
8.433624
 30
0.0
 10
8.559113
 20
8.634399
 30
0.0
  0
SPLINE
  5
105
100
AcDbEntity
  8
0
 62
7
100
AcDbSpline
 70
8
 71
3
 72
8
 73
4
 74
0
 40
0
 40
0
 40
0
 40
0
 40
1
 40
1
 40
1
 40
1
 10
8.559113
 20
8.634399
 30
0.0
 10
8.600178
 20
8.839738
 30
0.0
 10
8.648088
 20
9.017698
 30
0.0
 10
8.702843
 20
9.168280
 30
0.0
  0
SPLINE
  5
106
100
AcDbEntity
  8
0
 62
7
100
AcDbSpline
 70
8
 71
3
 72
8
 73
4
 74
0
 40
0
 40
0
 40
0
 40
0
 40
1
 40
1
 40
1
 40
1
 10
8.702843
 20
9.168280
 30
0.0
 10
8.762167
 20
9.323424
 30
0.0
 10
8.844302
 20
9.474005
 30
0.0
 10
8.949249
 20
9.620024
 30
0.0
  0
SPLINE
  5
107
100
AcDbEntity
  8
0
 62
7
100
AcDbSpline
 70
8
 71
3
 72
8
 73
4
 74
0
 40
0
 40
0
 40
0
 40
0
 40
1
 40
1
 40
1
 40
1
 10
8.949249
 20
9.620024
 30
0.0
 10
9.054205
 20
9.766043
 30
0.0
 10
9.152311
 20
9.886964
 30
0.0
 10
9.243568
 20
9.982789
 30
0.0
  0
SPLINE
  5
108
100
AcDbEntity
  8
0
 62
7
100
AcDbSpline
 70
8
 71
3
 72
8
 73
4
 74
0
 40
0
 40
0
 40
0
 40
0
 40
1
 40
1
 40
1
 40
1
 10
9.243568
 20
9.982789
 30
0.0
 10
9.334831
 20
10.078609
 30
0.0
 10
9.458034
 20
10.181278
 30
0.0
 10
9.613177
 20
10.290797
 30
0.0
  0
SPLINE
  5
109
100
AcDbEntity
  8
0
 62
7
100
AcDbSpline
 70
8
 71
3
 72
8
 73
4
 74
0
 40
0
 40
0
 40
0
 40
0
 40
1
 40
1
 40
1
 40
1
 10
9.613177
 20
10.290797
 30
0.0
 10
9.768322
 20
10.404874
 30
0.0
 10
9.898370
 20
10.493854
 30
0.0
 10
10.003321
 20
10.557736
 30
0.0
  0
SPLINE
  5
10a
100
AcDbEntity
  8
0
 62
7
100
AcDbSpline
 70
8
 71
3
 72
8
 73
4
 74
0
 40
0
 40
0
 40
0
 40
0
 40
1
 40
1
 40
1
 40
1
 10
10.003321
 20
10.557736
 30
0.0
 10
10.108276
 20
10.626184
 30
0.0
 10
10.252012
 20
10.712883
 30
0.0
 10
10.434531
 20
10.817832
 30
0.0
  0
SPLINE
  5
10b
100
AcDbEntity
  8
0
 62
7
100
AcDbSpline
 70
8
 71
3
 72
8
 73
4
 74
0
 40
0
 40
0
 40
0
 40
0
 40
1
 40
1
 40
1
 40
1
 10
10.434531
 20
10.817832
 30
0.0
 10
10.525794
 20
10.872585
 30
0.0
 10
10.637590
 20
10.936468
 30
0.0
 10
10.769918
 20
11.009481
 30
0.0
  0
SPLINE
  5
10c
100
AcDbEntity
  8
0
 62
7
100
AcDbSpline
 70
8
 71
3
 72
8
 73
4
 74
0
 40
0
 40
0
 40
0
 40
0
 40
1
 40
1
 40
1
 40
1
 10
10.769918
 20
11.009481
 30
0.0
 10
10.906809
 20
11.082496
 30
0.0
 10
11.007197
 20
11.137252
 30
0.0
 10
11.071081
 20
11.173749
 30
0.0
  0
SPLINE
  5
10d
100
AcDbEntity
  8
0
 62
7
100
AcDbSpline
 70
8
 71
3
 72
8
 73
4
 74
0
 40
0
 40
0
 40
0
 40
0
 40
1
 40
1
 40
1
 40
1
 10
11.071081
 20
11.173749
 30
0.0
 10
11.139529
 20
11.210256
 30
0.0
 10
11.217101
 20
11.258166
 30
0.0
 10
11.303798
 20
11.317479
 30
0.0
  0
SPLINE
  5
10e
100
AcDbEntity
  8
0
 62
7
100
AcDbSpline
 70
8
 71
3
 72
8
 73
4
 74
0
 40
0
 40
0
 40
0
 40
0
 40
1
 40
1
 40
1
 40
1
 10
11.303798
 20
11.317479
 30
0.0
 10
11.395062
 20
11.376799
 30
0.0
 10
11.461226
 20
11.426993
 30
0.0
 10
11.502291
 20
11.468061
 30
0.0
  0
SPLINE
  5
10f
100
AcDbEntity
  8
0
 62
7
100
AcDbSpline
 70
8
 71
3
 72
8
 73
4
 74
0
 40
0
 40
0
 40
0
 40
0
 40
1
 40
1
 40
1
 40
1
 10
11.502291
 20
11.468061
 30
0.0
 10
11.547924
 20
11.513692
 30
0.0
 10
11.591272
 20
11.568448
 30
0.0
 10
11.632335
 20
11.632328
 30
0.0
  0
SPLINE
  5
110
100
AcDbEntity
  8
0
 62
7
100
AcDbSpline
 70
8
 71
3
 72
8
 73
4
 74
0
 40
0
 40
0
 40
0
 40
0
 40
1
 40
1
 40
1
 40
1
 10
11.632335
 20
11.632328
 30
0.0
 10
11.677968
 20
11.696209
 30
0.0
 10
11.707628
 20
11.764655
 30
0.0
 10
11.721315
 20
11.837668
 30
0.0
  0
SPLINE
  5
111
100
AcDbEntity
  8
0
 62
7
100
AcDbSpline
 70
8
 71
3
 72
8
 73
4
 74
0
 40
0
 40
0
 40
0
 40
0
 40
1
 40
1
 40
1
 40
1
 10
11.721315
 20
11.837668
 30
0.0
 10
11.739568
 20
11.915240
 30
0.0
 10
11.748695
 20
11.999657
 30
0.0
 10
11.748695
 20
12.090918
 30
0.0
  0
SPLINE
  5
112
100
AcDbEntity
  8
0
 62
7
100
AcDbSpline
 70
8
 71
3
 72
8
 73
4
 74
0
 40
0
 40
0
 40
0
 40
0
 40
1
 40
1
 40
1
 40
1
 10
11.748695
 20
12.090918
 30
0.0
 10
11.748695
 20
12.319072
 30
0.0
 10
11.632337
 20
12.535819
 30
0.0
 10
11.399620
 20
12.741158
 30
0.0
  0
SPLINE
  5
113
100
AcDbEntity
  8
0
 62
7
100
AcDbSpline
 70
8
 71
3
 72
8
 73
4
 74
0
 40
0
 40
0
 40
0
 40
0
 40
1
 40
1
 40
1
 40
1
 10
11.399620
 20
12.741158
 30
0.0
 10
11.171465
 20
12.946496
 30
0.0
 10
10.881708
 20
13.049166
 30
0.0
 10
10.530351
 20
13.049166
 30
0.0
  0
SPLINE
  5
114
100
AcDbEntity
  8
0
 62
7
100
AcDbSpline
 70
8
 71
3
 72
8
 73
4
 74
0
 40
0
 40
0
 40
0
 40
0
 40
1
 40
1
 40
1
 40
1
 10
10.530351
 20
13.049166
 30
0.0
 10
10.192684
 20
13.049166
 30
0.0
 10
9.907492
 20
12.937370
 30
0.0
 10
9.674774
 20
12.713779
 30
0.0
  0
SPLINE
  5
115
100
AcDbEntity
  8
0
 62
7
100
AcDbSpline
 70
8
 71
3
 72
8
 73
4
 74
0
 40
0
 40
0
 40
0
 40
0
 40
1
 40
1
 40
1
 40
1
 10
9.674774
 20
12.713779
 30
0.0
 10
9.442058
 20
12.490187
 30
0.0
 10
9.325700
 20
12.214121
 30
0.0
 10
9.325700
 20
11.885580
 30
0.0
  0
SPLINE
  5
116
100
AcDbEntity
  8
0
 62
7
100
AcDbSpline
 70
8
 71
3
 72
8
 73
4
 74
0
 40
0
 40
0
 40
0
 40
0
 40
1
 40
1
 40
1
 40
1
 10
9.325700
 20
11.885580
 30
0.0
 10
9.325700
 20
11.776068
 30
0.0
 10
9.284630
 20
11.680244
 30
0.0
 10
9.202490
 20
11.598106
 30
0.0
  0
SPLINE
  5
117
100
AcDbEntity
  8
0
 62
7
100
AcDbSpline
 70
8
 71
3
 72
8
 73
4
 74
0
 40
0
 40
0
 40
0
 40
0
 40
1
 40
1
 40
1
 40
1
 10
9.202490
 20
11.598106
 30
0.0
 10
9.124919
 20
11.515967
 30
0.0
 10
9.029094
 20
11.474897
 30
0.0
 10
8.915015
 20
11.474897
 30
0.0
  0
SPLINE
  5
118
100
AcDbEntity
  8
0
 62
7
100
AcDbSpline
 70
8
 71
3
 72
8
 73
4
 74
0
 40
0
 40
0
 40
0
 40
0
 40
1
 40
1
 40
1
 40
1
 10
8.915015
 20
11.474897
 30
0.0
 10
8.805503
 20
11.474897
 30
0.0
 10
8.709679
 20
11.515967
 30
0.0
 10
8.627541
 20
11.598106
 30
0.0
  0
SPLINE
  5
119
100
AcDbEntity
  8
0
 62
7
100
AcDbSpline
 70
8
 71
3
 72
8
 73
4
 74
0
 40
0
 40
0
 40
0
 40
0
 40
1
 40
1
 40
1
 40
1
 10
8.627541
 20
11.598106
 30
0.0
 10
8.545400
 20
11.680246
 30
0.0
 10
8.504329
 20
11.776070
 30
0.0
 10
8.504329
 20
11.885580
 30
0.0
  0
SPLINE
  5
11a
100
AcDbEntity
  8
0
 62
7
100
AcDbSpline
 70
8
 71
3
 72
8
 73
4
 74
0
 40
0
 40
0
 40
0
 40
0
 40
1
 40
1
 40
1
 40
1
 10
8.504329
 20
11.885580
 30
0.0
 10
8.504329
 20
12.259753
 30
0.0
 10
8.597872
 20
12.599702
 30
0.0
 10
8.784958
 20
12.905429
 30
0.0
  0
SPLINE
  5
11b
100
AcDbEntity
  8
0
 62
7
100
AcDbSpline
 70
8
 71
3
 72
8
 73
4
 74
0
 40
0
 40
0
 40
0
 40
0
 40
1
 40
1
 40
1
 40
1
 10
8.784958
 20
12.905429
 30
0.0
 10
8.972044
 20
13.211154
 30
0.0
 10
9.218450
 20
13.448434
 30
0.0
 10
9.524176
 20
13.617268
 30
0.0
  0
SPLINE
  5
11c
100
AcDbEntity
  8
0
 62
7
100
AcDbSpline
 70
8
 71
3
 72
8
 73
4
 74
0
 40
0
 40
0
 40
0
 40
0
 40
1
 40
1
 40
1
 40
1
 10
9.524176
 20
13.617268
 30
0.0
 10
9.834466
 20
13.786102
 30
0.0
 10
10.169852
 20
13.870520
 30
0.0
 10
10.530336
 20
13.870520
 30
0.0
  0
SPLINE
  5
11d
100
AcDbEntity
  8
0
 62
7
100
AcDbSpline
 70
8
 71
3
 72
8
 73
4
 74
0
 40
0
 40
0
 40
0
 40
0
 40
1
 40
1
 40
1
 40
1
 10
10.530336
 20
13.870520
 30
0.0
 10
11.087031
 20
13.870520
 30
0.0
 10
11.566154
 20
13.694841
 30
0.0
 10
11.967705
 20
13.343484
 30
0.0
  0
SPLINE
  5
11e
100
AcDbEntity
  8
0
 62
7
100
AcDbSpline
 70
8
 71
3
 72
8
 73
4
 74
0
 40
0
 40
0
 40
0
 40
0
 40
1
 40
1
 40
1
 40
1
 10
11.967705
 20
13.343484
 30
0.0
 10
12.369256
 20
12.996690
 30
0.0
 10
12.570031
 20
12.579168
 30
0.0
 10
12.570031
 20
12.090918
 30
0.0
  0
SPLINE
  5
11f
100
AcDbEntity
  8
0
 62
7
100
AcDbSpline
 70
8
 71
3
 72
8
 73
4
 74
0
 40
0
 40
0
 40
0
 40
0
 40
1
 40
1
 40
1
 40
1
 10
12.570031
 20
12.090918
 30
0.0
 10
12.570031
 20
11.917522
 30
0.0
 10
12.549498
 20
11.755533
 30
0.0
 10
12.508431
 20
11.604951
 30
0.0
  0
SPLINE
  5
120
100
AcDbEntity
  8
0
 62
7
100
AcDbSpline
 70
8
 71
3
 72
8
 73
4
 74
0
 40
0
 40
0
 40
0
 40
0
 40
1
 40
1
 40
1
 40
1
 10
12.508431
 20
11.604951
 30
0.0
 10
12.471918
 20
11.458932
 30
0.0
 10
12.414879
 20
11.326602
 30
0.0
 10
12.337316
 20
11.207963
 30
0.0
  0
SPLINE
  5
121
100
AcDbEntity
  8
0
 62
7
100
AcDbSpline
 70
8
 71
3
 72
8
 73
4
 74
0
 40
0
 40
0
 40
0
 40
0
 40
1
 40
1
 40
1
 40
1
 10
12.337316
 20
11.207963
 30
0.0
 10
12.259744
 20
11.093886
 30
0.0
 10
12.179890
 20
10.991216
 30
0.0
 10
12.097753
 20
10.899955
 30
0.0
  0
SPLINE
  5
122
100
AcDbEntity
  8
0
 62
7
100
AcDbSpline
 70
8
 71
3
 72
8
 73
4
 74
0
 40
0
 40
0
 40
0
 40
0
 40
1
 40
1
 40
1
 40
1
 10
12.097753
 20
10.899955
 30
0.0
 10
12.020182
 20
10.813259
 30
0.0
 10
11.917512
 20
10.728842
 30
0.0
 10
11.789745
 20
10.646704
 30
0.0
  0
SPLINE
  5
123
100
AcDbEntity
  8
0
 62
7
100
AcDbSpline
 70
8
 71
3
 72
8
 73
4
 74
0
 40
0
 40
0
 40
0
 40
0
 40
1
 40
1
 40
1
 40
1
 10
11.789745
 20
10.646704
 30
0.0
 10
11.666543
 20
10.564564
 30
0.0
 10
11.561593
 20
10.498399
 30
0.0
 10
11.474895
 20
10.448210
 30
0.0
  0
SPLINE
  5
124
100
AcDbEntity
  8
0
 62
7
100
AcDbSpline
 70
8
 71
3
 72
8
 73
4
 74
0
 40
0
 40
0
 40
0
 40
0
 40
1
 40
1
 40
1
 40
1
 10
11.474895
 20
10.448210
 30
0.0
 10
11.388199
 20
10.398010
 30
0.0
 10
11.276403
 20
10.336408
 30
0.0
 10
11.139507
 20
10.263404
 30
0.0
  0
SPLINE
  5
125
100
AcDbEntity
  8
0
 62
7
100
AcDbSpline
 70
8
 71
3
 72
8
 73
4
 74
0
 40
0
 40
0
 40
0
 40
0
 40
1
 40
1
 40
1
 40
1
 10
11.139507
 20
10.263404
 30
0.0
 10
11.007179
 20
10.194957
 30
0.0
 10
10.909073
 20
10.142479
 30
0.0
 10
10.845189
 20
10.105972
 30
0.0
  0
SPLINE
  5
126
100
AcDbEntity
  8
0
 62
7
100
AcDbSpline
 70
8
 71
3
 72
8
 73
4
 74
0
 40
0
 40
0
 40
0
 40
0
 40
1
 40
1
 40
1
 40
1
 10
10.845189
 20
10.105972
 30
0.0
 10
10.712860
 20
10.028399
 30
0.0
 10
10.623880
 20
9.975921
 30
0.0
 10
10.578248
 20
9.948538
 30
0.0
  0
SPLINE
  5
127
100
AcDbEntity
  8
0
 62
7
100
AcDbSpline
 70
8
 71
3
 72
8
 73
4
 74
0
 40
0
 40
0
 40
0
 40
0
 40
1
 40
1
 40
1
 40
1
 10
10.578248
 20
9.948538
 30
0.0
 10
10.532615
 20
9.925725
 30
0.0
 10
10.455042
 20
9.880093
 30
0.0
 10
10.345531
 20
9.811643
 30
0.0
  0
SPLINE
  5
128
100
AcDbEntity
  8
0
 62
7
100
AcDbSpline
 70
8
 71
3
 72
8
 73
4
 74
0
 40
0
 40
0
 40
0
 40
0
 40
1
 40
1
 40
1
 40
1
 10
10.345531
 20
9.811643
 30
0.0
 10
10.240576
 20
9.747770
 30
0.0
 10
10.169848
 20
9.699860
 30
0.0
 10
10.133348
 20
9.667913
 30
0.0
  0
SPLINE
  5
129
100
AcDbEntity
  8
0
 62
7
100
AcDbSpline
 70
8
 71
3
 72
8
 73
4
 74
0
 40
0
 40
0
 40
0
 40
0
 40
1
 40
1
 40
1
 40
1
 10
10.133348
 20
9.667913
 30
0.0
 10
10.096835
 20
9.640533
 30
0.0
 10
10.037515
 20
9.597185
 30
0.0
 10
9.955390
 20
9.537869
 30
0.0
  0
SPLINE
  5
12a
100
AcDbEntity
  8
0
 62
7
100
AcDbSpline
 70
8
 71
3
 72
8
 73
4
 74
0
 40
0
 40
0
 40
0
 40
0
 40
1
 40
1
 40
1
 40
1
 10
9.955390
 20
9.537869
 30
0.0
 10
9.877818
 20
9.478549
 30
0.0
 10
9.823062
 20
9.430639
 30
0.0
 10
9.791122
 20
9.394139
 30
0.0
  0
SPLINE
  5
12b
100
AcDbEntity
  8
0
 62
7
100
AcDbSpline
 70
8
 71
3
 72
8
 73
4
 74
0
 40
0
 40
0
 40
0
 40
0
 40
1
 40
1
 40
1
 40
1
 10
9.791122
 20
9.394139
 30
0.0
 10
9.763738
 20
9.357632
 30
0.0
 10
9.720390
 20
9.307439
 30
0.0
 10
9.661078
 20
9.243558
 30
0.0
  0
SPLINE
  5
12c
100
AcDbEntity
  8
0
 62
7
100
AcDbSpline
 70
8
 71
3
 72
8
 73
4
 74
0
 40
0
 40
0
 40
0
 40
0
 40
1
 40
1
 40
1
 40
1
 10
9.661078
 20
9.243558
 30
0.0
 10
9.606322
 20
9.179671
 30
0.0
 10
9.567536
 20
9.120351
 30
0.0
 10
9.544720
 20
9.065597
 30
0.0
  0
SPLINE
  5
12d
100
AcDbEntity
  8
0
 62
7
100
AcDbSpline
 70
8
 71
3
 72
8
 73
4
 74
0
 40
0
 40
0
 40
0
 40
0
 40
1
 40
1
 40
1
 40
1
 10
9.544720
 20
9.065597
 30
0.0
 10
9.521904
 20
9.010844
 30
0.0
 10
9.494526
 20
8.946960
 30
0.0
 10
9.462586
 20
8.873946
 30
0.0
  0
SPLINE
  5
12e
100
AcDbEntity
  8
0
 62
7
100
AcDbSpline
 70
8
 71
3
 72
8
 73
4
 74
0
 40
0
 40
0
 40
0
 40
0
 40
1
 40
1
 40
1
 40
1
 10
9.462586
 20
8.873946
 30
0.0
 10
9.430646
 20
8.800942
 30
0.0
 10
9.405546
 20
8.725651
 30
0.0
 10
9.387287
 20
8.648074
 30
0.0
  0
SPLINE
  5
12f
100
AcDbEntity
  8
0
 62
7
100
AcDbSpline
 70
8
 71
3
 72
8
 73
4
 74
0
 40
0
 40
0
 40
0
 40
0
 40
1
 40
1
 40
1
 40
1
 10
9.387287
 20
8.648074
 30
0.0
 10
9.373595
 20
8.570502
 30
0.0
 10
9.359909
 20
8.486085
 30
0.0
 10
9.346228
 20
8.394824
 30
0.0
  0
LWPOLYLINE
  5
130
100
AcDbEntity
  8
0
 62
7
100
AcDbPolyline
 90
2
 70
0
 10
12.528987
 20
7.573480
 30
0.0
 10
8.915027
 20
7.573480
 30
0.0
  0
SPLINE
  5
131
100
AcDbEntity
  8
0
 62
7
100
AcDbSpline
 70
8
 71
3
 72
8
 73
4
 74
0
 40
0
 40
0
 40
0
 40
0
 40
1
 40
1
 40
1
 40
1
 10
12.528976
 20
8.394824
 30
0.0
 10
12.643053
 20
8.394824
 30
0.0
 10
12.738878
 20
8.353754
 30
0.0
 10
12.816449
 20
8.271615
 30
0.0
  0
SPLINE
  5
132
100
AcDbEntity
  8
0
 62
7
100
AcDbSpline
 70
8
 71
3
 72
8
 73
4
 74
0
 40
0
 40
0
 40
0
 40
0
 40
1
 40
1
 40
1
 40
1
 10
12.816449
 20
8.271615
 30
0.0
 10
12.898588
 20
8.194043
 30
0.0
 10
12.939658
 20
8.098218
 30
0.0
 10
12.939658
 20
7.984141
 30
0.0
  0
LWPOLYLINE
  5
133
100
AcDbEntity
  8
0
 62
7
100
AcDbPolyline
 90
2
 70
0
 10
9.346228
 20
8.394824
 30
0.0
 10
12.528976
 20
8.394824
 30
0.0
  0
LWPOLYLINE
  5
134
100
AcDbEntity
  8
0
 62
7
100
AcDbPolyline
 90
1
 70
1
 10
12.939658
 20
7.984141
 30
0.0
  0
ENDSEC
  0
SECTION
  2
OBJECTS
  0
DICTIONARY
  5
C
330
0
100
AcDbDictionary
  3
ACAD_GROUP
350
D
  3
ACAD_MLINESTYLE
350
17
  0
DICTIONARY
  5
D
330
C
100
AcDbDictionary
  0
DICTIONARY
  5
1A
330
C
100
AcDbDictionary
  0
DICTIONARY
  5
17
330
C
100
AcDbDictionary
  3
STANDARD
350
18
  0
DICTIONARY
  5
19
330
C
100
AcDbDictionary
  0
ENDSEC
  0
EOF
