  0
SECTION
  2
HEADER
  9
$ACADVER
  1
AC1014
  9
$HANDSEED
  5
FFFF
  9
$INSUNITS
 70
     4
  9
$MEASUREMENT
 70
     1
  0
ENDSEC
  0
SECTION
  2
TABLES
  0
TABLE
  2
VPORT
  5
8
330
0
100
AcDbSymbolTable
 70
     4
  0
VPORT
  5
2E
330
8
100
AcDbSymbolTableRecord
100
AcDbViewportTableRecord
  2
*ACTIVE
 70
     0
 10
0.0
 20
0.0
 11
1.0
 21
1.0
 12
210.0
 22
148.5
 13
0.0
 23
0.0
 14
10.0
 24
10.0
 15
10.0
 25
10.0
 16
0.0
 26
0.0
 36
1.0
 17
0.0
 27
0.0
 37
0.0
 40
341.0
 41
1.24
 42
50.0
 43
0.0
 44
0.0
 50
0.0
 51
0.0
 71
     0
 72
   100
 73
     1
 74
     3
 75
     0
 76
     0
 77
     0
 78
     0
  0
ENDTAB
  0
TABLE
  2
LTYPE
  5
5
330
0
100
AcDbSymbolTable
 70
     1
  0
LTYPE
  5
14
330
5
100
AcDbSymbolTableRecord
100
AcDbLinetypeTableRecord
  2
BYBLOCK
 70
     0
  3

 72
    65
 73
     0
 40
0.0
  0
LTYPE
  5
15
330
5
100
AcDbSymbolTableRecord
100
AcDbLinetypeTableRecord
  2
BYLAYER
 70
     0
  3

 72
    65
 73
     0
 40
0.0
  0
LTYPE
  5
16
330
5
100
AcDbSymbolTableRecord
100
AcDbLinetypeTableRecord
  2
CONTINUOUS
 70
     0
  3
Solid line
 72
    65
 73
     0
 40
0.0
  0
ENDTAB
  0
TABLE
  2
LAYER
  5
2
100
AcDbSymbolTable
 70
1
  0
LAYER
  5
50
100
AcDbSymbolTableRecord
100
AcDbLayerTableRecord
  2
0
 70
0
  6
CONTINUOUS
  0
ENDTAB
  0
TABLE
  2
STYLE
  5
3
330
0
100
AcDbSymbolTable
 70
     1
  0
STYLE
  5
11
330
3
100
AcDbSymbolTableRecord
100
AcDbTextStyleTableRecord
  2
STANDARD
 70
     0
 40
0.0
 41
1.0
 50
0.0
 71
     0
 42
2.5
  3
txt
  4

  0
ENDTAB
  0
TABLE
  2
VIEW
  5
6
330
0
100
AcDbSymbolTable
 70
     0
  0
ENDTAB
  0
TABLE
  2
UCS
  5
7
330
0
100
AcDbSymbolTable
 70
     0
  0
ENDTAB
  0
TABLE
  2
APPID
  5
9
330
0
100
AcDbSymbolTable
 70
     2
  0
APPID
  5
12
330
9
100
AcDbSymbolTableRecord
100
AcDbRegAppTableRecord
  2
ACAD
 70
     0
  0
ENDTAB
  0
TABLE
  2
DIMSTYLE
  5
A
330
0
100
AcDbSymbolTable
 70
     1
  0
DIMSTYLE
105
27
330
A
100
AcDbSymbolTableRecord
100
AcDbDimStyleTableRecord
  2
ISO-25
 70
     0
  3

  4

  5

  6

  7

 40
1.0
 41
2.5
 42
0.625
 43
3.75
 44
1.25
 45
0.0
 46
0.0
 47
0.0
 48
0.0
140
2.5
141
2.5
142
0.0
143
0.03937007874016
144
1.0
145
0.0
146
1.0
147
0.625
 71
     0
 72
     0
 73
     0
 74
     0
 75
     0
 76
     0
 77
     1
 78
     8
170
     0
171
     3
172
     1
173
     0
174
     0
175
     0
176
     0
177
     0
178
     0
270
     2
271
     2
272
     2
273
     2
274
     3
340
11
275
     0
280
     0
281
     0
282
     0
283
     0
284
     8
285
     0
286
     0
287
     3
288
     0
  0
ENDTAB
  0
TABLE
  2
BLOCK_RECORD
  5
1
330
0
100
AcDbSymbolTable
 70
     1
  0
BLOCK_RECORD
  5
1F
330
1
100
AcDbSymbolTableRecord
100
AcDbBlockTableRecord
  2
*MODEL_SPACE
  0
BLOCK_RECORD
  5
1B
330
1
100
AcDbSymbolTableRecord
100
AcDbBlockTableRecord
  2
*PAPER_SPACE
  0
ENDTAB
  0
ENDSEC
  0
SECTION
  2
BLOCKS
  0
BLOCK
  5
20
330
1F
100
AcDbEntity
  8
0
100
AcDbBlockBegin
  2
*MODEL_SPACE
 70
     0
 10
0.0
 20
0.0
 30
0.0
  3
*MODEL_SPACE
  1

  0
ENDBLK
  5
21
330
1F
100
AcDbEntity
  8
0
100
AcDbBlockEnd
  0
BLOCK
  5
1C
330
1B
100
AcDbEntity
 67
     1
  8
0
100
AcDbBlockBegin
  2
*PAPER_SPACE
  1

  0
ENDBLK
  5
1D
330
1B
100
AcDbEntity
 67
     1
  8
0
100
AcDbBlockEnd
  0
ENDSEC
  0
SECTION
  2
ENTITIES
  0
SPLINE
  5
100
100
AcDbEntity
  8
0
 62
7
100
AcDbSpline
 70
8
 71
3
 72
8
 73
4
 74
0
 40
0
 40
0
 40
0
 40
0
 40
1
 40
1
 40
1
 40
1
 10
8.559129
 20
13.459842
 30
0.0
 10
8.559129
 20
13.573920
 30
0.0
 10
8.597915
 20
13.669744
 30
0.0
 10
8.675486
 20
13.747316
 30
0.0
  0
SPLINE
  5
101
100
AcDbEntity
  8
0
 62
7
100
AcDbSpline
 70
8
 71
3
 72
8
 73
4
 74
0
 40
0
 40
0
 40
0
 40
0
 40
1
 40
1
 40
1
 40
1
 10
8.675486
 20
13.747316
 30
0.0
 10
8.757626
 20
13.829455
 30
0.0
 10
8.855732
 20
13.870525
 30
0.0
 10
8.969805
 20
13.870525
 30
0.0
  0
SPLINE
  5
102
100
AcDbEntity
  8
0
 62
7
100
AcDbSpline
 70
8
 71
3
 72
8
 73
4
 74
0
 40
0
 40
0
 40
0
 40
0
 40
1
 40
1
 40
1
 40
1
 10
11.940370
 20
13.870525
 30
0.0
 10
12.045325
 20
13.870525
 30
0.0
 10
12.136586
 20
13.834017
 30
0.0
 10
12.214155
 20
13.761002
 30
0.0
  0
SPLINE
  5
103
100
AcDbEntity
  8
0
 62
7
100
AcDbSpline
 70
8
 71
3
 72
8
 73
4
 74
0
 40
0
 40
0
 40
0
 40
0
 40
1
 40
1
 40
1
 40
1
 10
12.214155
 20
13.761002
 30
0.0
 10
12.296295
 20
13.687998
 30
0.0
 10
12.341927
 20
13.599018
 30
0.0
 10
12.351050
 20
13.494063
 30
0.0
  0
LWPOLYLINE
  5
104
100
AcDbEntity
  8
0
 62
7
100
AcDbPolyline
 90
2
 70
0
 10
8.969805
 20
13.870525
 30
0.0
 10
11.940370
 20
13.870525
 30
0.0
  0
SPLINE
  5
105
100
AcDbEntity
  8
0
 62
7
100
AcDbSpline
 70
8
 71
3
 72
8
 73
4
 74
0
 40
0
 40
0
 40
0
 40
0
 40
1
 40
1
 40
1
 40
1
 10
12.351050
 20
13.405078
 30
0.0
 10
12.351050
 20
13.167798
 30
0.0
 10
12.282604
 20
12.907703
 30
0.0
 10
12.145711
 20
12.624791
 30
0.0
  0
SPLINE
  5
106
100
AcDbEntity
  8
0
 62
7
100
AcDbSpline
 70
8
 71
3
 72
8
 73
4
 74
0
 40
0
 40
0
 40
0
 40
0
 40
1
 40
1
 40
1
 40
1
 10
12.145711
 20
12.624791
 30
0.0
 10
12.008819
 20
12.341880
 30
0.0
 10
11.828578
 20
12.086348
 30
0.0
 10
11.604987
 20
11.858194
 30
0.0
  0
SPLINE
  5
107
100
AcDbEntity
  8
0
 62
7
100
AcDbSpline
 70
8
 71
3
 72
8
 73
4
 74
0
 40
0
 40
0
 40
0
 40
0
 40
1
 40
1
 40
1
 40
1
 10
11.604987
 20
11.858194
 30
0.0
 10
11.550234
 20
11.803439
 30
0.0
 10
11.513726
 20
11.766937
 30
0.0
 10
11.495465
 20
11.748687
 30
0.0
  0
SPLINE
  5
108
100
AcDbEntity
  8
0
 62
7
100
AcDbSpline
 70
8
 71
3
 72
8
 73
4
 74
0
 40
0
 40
0
 40
0
 40
0
 40
1
 40
1
 40
1
 40
1
 10
11.495465
 20
11.748687
 30
0.0
 10
11.942646
 20
11.639175
 30
0.0
 10
12.305411
 20
11.401895
 30
0.0
 10
12.583760
 20
11.036847
 30
0.0
  0
SPLINE
  5
109
100
AcDbEntity
  8
0
 62
7
100
AcDbSpline
 70
8
 71
3
 72
8
 73
4
 74
0
 40
0
 40
0
 40
0
 40
0
 40
1
 40
1
 40
1
 40
1
 10
12.583760
 20
11.036847
 30
0.0
 10
12.862107
 20
10.676363
 30
0.0
 10
13.008125
 20
10.247433
 30
0.0
 10
13.021815
 20
9.750058
 30
0.0
  0
LWPOLYLINE
  5
10a
100
AcDbEntity
  8
0
 62
7
100
AcDbPolyline
 90
2
 70
0
 10
12.351050
 20
13.494063
 30
0.0
 10
12.351050
 20
13.405078
 30
0.0
  0
SPLINE
  5
10b
100
AcDbEntity
  8
0
 62
7
100
AcDbSpline
 70
8
 71
3
 72
8
 73
4
 74
0
 40
0
 40
0
 40
0
 40
0
 40
1
 40
1
 40
1
 40
1
 10
13.021815
 20
9.688458
 30
0.0
 10
13.021815
 20
9.296033
 30
0.0
 10
12.916864
 20
8.935550
 30
0.0
 10
12.706962
 20
8.607007
 30
0.0
  0
SPLINE
  5
10c
100
AcDbEntity
  8
0
 62
7
100
AcDbSpline
 70
8
 71
3
 72
8
 73
4
 74
0
 40
0
 40
0
 40
0
 40
0
 40
1
 40
1
 40
1
 40
1
 10
12.706962
 20
8.607007
 30
0.0
 10
12.501623
 20
8.283028
 30
0.0
 10
12.230120
 20
8.029778
 30
0.0
 10
11.892453
 20
7.847255
 30
0.0
  0
SPLINE
  5
10d
100
AcDbEntity
  8
0
 62
7
100
AcDbSpline
 70
8
 71
3
 72
8
 73
4
 74
0
 40
0
 40
0
 40
0
 40
0
 40
1
 40
1
 40
1
 40
1
 10
11.892453
 20
7.847255
 30
0.0
 10
11.554784
 20
7.664732
 30
0.0
 10
11.196582
 20
7.573471
 30
0.0
 10
10.817847
 20
7.573471
 30
0.0
  0
SPLINE
  5
10e
100
AcDbEntity
  8
0
 62
7
100
AcDbSpline
 70
8
 71
3
 72
8
 73
4
 74
0
 40
0
 40
0
 40
0
 40
0
 40
1
 40
1
 40
1
 40
1
 10
10.817847
 20
7.573471
 30
0.0
 10
10.247462
 20
7.573471
 30
0.0
 10
9.745524
 20
7.728615
 30
0.0
 10
9.312032
 20
8.038903
 30
0.0
  0
SPLINE
  5
10f
100
AcDbEntity
  8
0
 62
7
100
AcDbSpline
 70
8
 71
3
 72
8
 73
4
 74
0
 40
0
 40
0
 40
0
 40
0
 40
1
 40
1
 40
1
 40
1
 10
9.312032
 20
8.038903
 30
0.0
 10
8.883102
 20
8.349193
 30
0.0
 10
8.591064
 20
8.778123
 30
0.0
 10
8.435920
 20
9.325693
 30
0.0
  0
SPLINE
  5
110
100
AcDbEntity
  8
0
 62
7
100
AcDbSpline
 70
8
 71
3
 72
8
 73
4
 74
0
 40
0
 40
0
 40
0
 40
0
 40
1
 40
1
 40
1
 40
1
 10
8.435920
 20
9.325693
 30
0.0
 10
8.426763
 20
9.362200
 30
0.0
 10
8.422185
 20
9.398702
 30
0.0
 10
8.422185
 20
9.435199
 30
0.0
  0
SPLINE
  5
111
100
AcDbEntity
  8
0
 62
7
100
AcDbSpline
 70
8
 71
3
 72
8
 73
4
 74
0
 40
0
 40
0
 40
0
 40
0
 40
1
 40
1
 40
1
 40
1
 10
8.422185
 20
9.435199
 30
0.0
 10
8.422185
 20
9.526463
 30
0.0
 10
8.449562
 20
9.608599
 30
0.0
 10
8.504317
 20
9.681607
 30
0.0
  0
SPLINE
  5
112
100
AcDbEntity
  8
0
 62
7
100
AcDbSpline
 70
8
 71
3
 72
8
 73
4
 74
0
 40
0
 40
0
 40
0
 40
0
 40
1
 40
1
 40
1
 40
1
 10
8.504317
 20
9.681607
 30
0.0
 10
8.559071
 20
9.754611
 30
0.0
 10
8.632080
 20
9.804805
 30
0.0
 10
8.723344
 20
9.832188
 30
0.0
  0
SPLINE
  5
113
100
AcDbEntity
  8
0
 62
7
100
AcDbSpline
 70
8
 71
3
 72
8
 73
4
 74
0
 40
0
 40
0
 40
0
 40
0
 40
1
 40
1
 40
1
 40
1
 10
8.723344
 20
9.832188
 30
0.0
 10
8.759854
 20
9.841348
 30
0.0
 10
8.796361
 20
9.845928
 30
0.0
 10
8.832866
 20
9.845928
 30
0.0
  0
SPLINE
  5
114
100
AcDbEntity
  8
0
 62
7
100
AcDbSpline
 70
8
 71
3
 72
8
 73
4
 74
0
 40
0
 40
0
 40
0
 40
0
 40
1
 40
1
 40
1
 40
1
 10
8.832866
 20
9.845928
 30
0.0
 10
8.924130
 20
9.845928
 30
0.0
 10
9.006266
 20
9.818551
 30
0.0
 10
9.079274
 20
9.763798
 30
0.0
  0
SPLINE
  5
115
100
AcDbEntity
  8
0
 62
7
100
AcDbSpline
 70
8
 71
3
 72
8
 73
4
 74
0
 40
0
 40
0
 40
0
 40
0
 40
1
 40
1
 40
1
 40
1
 10
9.079274
 20
9.763798
 30
0.0
 10
9.152278
 20
9.709045
 30
0.0
 10
9.202472
 20
9.636036
 30
0.0
 10
9.229855
 20
9.544771
 30
0.0
  0
SPLINE
  5
116
100
AcDbEntity
  8
0
 62
7
100
AcDbSpline
 70
8
 71
3
 72
8
 73
4
 74
0
 40
0
 40
0
 40
0
 40
0
 40
1
 40
1
 40
1
 40
1
 10
9.229855
 20
9.544771
 30
0.0
 10
9.334810
 20
9.175160
 30
0.0
 10
9.524178
 20
8.889967
 30
0.0
 10
9.797957
 20
8.689192
 30
0.0
  0
SPLINE
  5
117
100
AcDbEntity
  8
0
 62
7
100
AcDbSpline
 70
8
 71
3
 72
8
 73
4
 74
0
 40
0
 40
0
 40
0
 40
0
 40
1
 40
1
 40
1
 40
1
 10
9.797957
 20
8.689192
 30
0.0
 10
10.071742
 20
8.492980
 30
0.0
 10
10.411692
 20
8.394874
 30
0.0
 10
10.817806
 20
8.394874
 30
0.0
  0
SPLINE
  5
118
100
AcDbEntity
  8
0
 62
7
100
AcDbSpline
 70
8
 71
3
 72
8
 73
4
 74
0
 40
0
 40
0
 40
0
 40
0
 40
1
 40
1
 40
1
 40
1
 10
10.817806
 20
8.394874
 30
0.0
 10
11.187417
 20
8.394874
 30
0.0
 10
11.509114
 20
8.522640
 30
0.0
 10
11.782897
 20
8.778173
 30
0.0
  0
SPLINE
  5
119
100
AcDbEntity
  8
0
 62
7
100
AcDbSpline
 70
8
 71
3
 72
8
 73
4
 74
0
 40
0
 40
0
 40
0
 40
0
 40
1
 40
1
 40
1
 40
1
 10
11.782897
 20
8.778173
 30
0.0
 10
12.061246
 20
9.038268
 30
0.0
 10
12.200420
 20
9.343995
 30
0.0
 10
12.200420
 20
9.695352
 30
0.0
  0
SPLINE
  5
11a
100
AcDbEntity
  8
0
 62
7
100
AcDbSpline
 70
8
 71
3
 72
8
 73
4
 74
0
 40
0
 40
0
 40
0
 40
0
 40
1
 40
1
 40
1
 40
1
 10
12.200420
 20
9.695352
 30
0.0
 10
12.200420
 20
10.087777
 30
0.0
 10
12.086343
 20
10.400347
 30
0.0
 10
11.858189
 20
10.633064
 30
0.0
  0
SPLINE
  5
11b
100
AcDbEntity
  8
0
 62
7
100
AcDbSpline
 70
8
 71
3
 72
8
 73
4
 74
0
 40
0
 40
0
 40
0
 40
0
 40
1
 40
1
 40
1
 40
1
 10
11.858189
 20
10.633064
 30
0.0
 10
11.634598
 20
10.865781
 30
0.0
 10
11.356250
 20
10.982140
 30
0.0
 10
11.023145
 20
10.982140
 30
0.0
  0
SPLINE
  5
11c
100
AcDbEntity
  8
0
 62
7
100
AcDbSpline
 70
8
 71
3
 72
8
 73
4
 74
0
 40
0
 40
0
 40
0
 40
0
 40
1
 40
1
 40
1
 40
1
 10
11.023145
 20
10.982140
 30
0.0
 10
10.918190
 20
10.982140
 30
0.0
 10
10.845181
 20
10.979907
 30
0.0
 10
10.804118
 20
10.975440
 30
0.0
  0
SPLINE
  5
11d
100
AcDbEntity
  8
0
 62
7
100
AcDbSpline
 70
8
 71
3
 72
8
 73
4
 74
0
 40
0
 40
0
 40
0
 40
0
 40
1
 40
1
 40
1
 40
1
 10
10.804118
 20
10.975440
 30
0.0
 10
10.763051
 20
10.975440
 30
0.0
 10
10.733391
 20
10.970863
 30
0.0
 10
10.715138
 20
10.961710
 30
0.0
  0
SPLINE
  5
11e
100
AcDbEntity
  8
0
 62
7
100
AcDbSpline
 70
8
 71
3
 72
8
 73
4
 74
0
 40
0
 40
0
 40
0
 40
0
 40
1
 40
1
 40
1
 40
1
 10
10.715138
 20
10.961710
 30
0.0
 10
10.701445
 20
10.957243
 30
0.0
 10
10.692321
 20
10.948117
 30
0.0
 10
10.687768
 20
10.934330
 30
0.0
  0
SPLINE
  5
11f
100
AcDbEntity
  8
0
 62
7
100
AcDbSpline
 70
8
 71
3
 72
8
 73
4
 74
0
 40
0
 40
0
 40
0
 40
0
 40
1
 40
1
 40
1
 40
1
 10
10.687768
 20
10.934330
 30
0.0
 10
10.687768
 20
10.925177
 30
0.0
 10
10.667235
 20
10.909207
 30
0.0
 10
10.626168
 20
10.886420
 30
0.0
  0
SPLINE
  5
120
100
AcDbEntity
  8
0
 62
7
100
AcDbSpline
 70
8
 71
3
 72
8
 73
4
 74
0
 40
0
 40
0
 40
0
 40
0
 40
1
 40
1
 40
1
 40
1
 10
10.626168
 20
10.886420
 30
0.0
 10
10.585101
 20
10.868173
 30
0.0
 10
10.525782
 20
10.847640
 30
0.0
 10
10.448209
 20
10.824820
 30
0.0
  0
SPLINE
  5
121
100
AcDbEntity
  8
0
 62
7
100
AcDbSpline
 70
8
 71
3
 72
8
 73
4
 74
0
 40
0
 40
0
 40
0
 40
0
 40
1
 40
1
 40
1
 40
1
 10
10.448209
 20
10.824820
 30
0.0
 10
10.411702
 20
10.811127
 30
0.0
 10
10.372917
 20
10.804280
 30
0.0
 10
10.331852
 20
10.804280
 30
0.0
  0
SPLINE
  5
122
100
AcDbEntity
  8
0
 62
7
100
AcDbSpline
 70
8
 71
3
 72
8
 73
4
 74
0
 40
0
 40
0
 40
0
 40
0
 40
1
 40
1
 40
1
 40
1
 10
10.331852
 20
10.804280
 30
0.0
 10
10.181270
 20
10.804280
 30
0.0
 10
10.064912
 20
10.865882
 30
0.0
 10
9.982777
 20
10.989086
 30
0.0
  0
LWPOLYLINE
  5
123
100
AcDbEntity
  8
0
 62
7
100
AcDbPolyline
 90
2
 70
0
 10
13.021815
 20
9.750058
 30
0.0
 10
13.021815
 20
9.688458
 30
0.0
  0
SPLINE
  5
124
100
AcDbEntity
  8
0
 62
7
100
AcDbSpline
 70
8
 71
3
 72
8
 73
4
 74
0
 40
0
 40
0
 40
0
 40
0
 40
1
 40
1
 40
1
 40
1
 10
9.928012
 20
11.071216
 30
0.0
 10
9.882380
 20
11.135096
 30
0.0
 10
9.859564
 20
11.208105
 30
0.0
 10
9.859564
 20
11.290243
 30
0.0
  0
SPLINE
  5
125
100
AcDbEntity
  8
0
 62
7
100
AcDbSpline
 70
8
 71
3
 72
8
 73
4
 74
0
 40
0
 40
0
 40
0
 40
0
 40
1
 40
1
 40
1
 40
1
 10
9.859564
 20
11.290243
 30
0.0
 10
9.859564
 20
11.454513
 30
0.0
 10
9.928010
 20
11.575435
 30
0.0
 10
10.064902
 20
11.653008
 30
0.0
  0
SPLINE
  5
126
100
AcDbEntity
  8
0
 62
7
100
AcDbSpline
 70
8
 71
3
 72
8
 73
4
 74
0
 40
0
 40
0
 40
0
 40
0
 40
1
 40
1
 40
1
 40
1
 10
10.064902
 20
11.653008
 30
0.0
 10
10.206357
 20
11.735147
 30
0.0
 10
10.331842
 20
11.817283
 30
0.0
 10
10.441355
 20
11.899414
 30
0.0
  0
SPLINE
  5
127
100
AcDbEntity
  8
0
 62
7
100
AcDbSpline
 70
8
 71
3
 72
8
 73
4
 74
0
 40
0
 40
0
 40
0
 40
0
 40
1
 40
1
 40
1
 40
1
 10
10.441355
 20
11.899414
 30
0.0
 10
10.555432
 20
11.986110
 30
0.0
 10
10.642131
 20
12.059119
 30
0.0
 10
10.701450
 20
12.118442
 30
0.0
  0
SPLINE
  5
128
100
AcDbEntity
  8
0
 62
7
100
AcDbSpline
 70
8
 71
3
 72
8
 73
4
 74
0
 40
0
 40
0
 40
0
 40
0
 40
1
 40
1
 40
1
 40
1
 10
10.701450
 20
12.118442
 30
0.0
 10
10.765330
 20
12.177765
 30
0.0
 10
10.870281
 20
12.282716
 30
0.0
 10
11.016303
 20
12.433295
 30
0.0
  0
SPLINE
  5
129
100
AcDbEntity
  8
0
 62
7
100
AcDbSpline
 70
8
 71
3
 72
8
 73
4
 74
0
 40
0
 40
0
 40
0
 40
0
 40
1
 40
1
 40
1
 40
1
 10
11.016303
 20
12.433295
 30
0.0
 10
11.185137
 20
12.606691
 30
0.0
 10
11.322030
 20
12.812029
 30
0.0
 10
11.426981
 20
13.049311
 30
0.0
  0
LWPOLYLINE
  5
12a
100
AcDbEntity
  8
0
 62
7
100
AcDbPolyline
 90
2
 70
0
 10
9.982777
 20
10.989086
 30
0.0
 10
9.928012
 20
11.071216
 30
0.0
  0
SPLINE
  5
12b
100
AcDbEntity
  8
0
 62
7
100
AcDbSpline
 70
8
 71
3
 72
8
 73
4
 74
0
 40
0
 40
0
 40
0
 40
0
 40
1
 40
1
 40
1
 40
1
 10
8.969764
 20
13.049311
 30
0.0
 10
8.855686
 20
13.049311
 30
0.0
 10
8.757580
 20
13.088097
 30
0.0
 10
8.675446
 20
13.165668
 30
0.0
  0
SPLINE
  5
12c
100
AcDbEntity
  8
0
 62
7
100
AcDbSpline
 70
8
 71
3
 72
8
 73
4
 74
0
 40
0
 40
0
 40
0
 40
0
 40
1
 40
1
 40
1
 40
1
 10
8.675446
 20
13.165668
 30
0.0
 10
8.597874
 20
13.247782
 30
0.0
 10
8.559088
 20
13.345876
 30
0.0
 10
8.559088
 20
13.459949
 30
0.0
  0
LWPOLYLINE
  5
12d
100
AcDbEntity
  8
0
 62
7
100
AcDbPolyline
 90
2
 70
0
 10
11.426981
 20
13.049311
 30
0.0
 10
8.969764
 20
13.049311
 30
0.0
  0
LWPOLYLINE
  5
12e
100
AcDbEntity
  8
0
 62
7
100
AcDbPolyline
 90
2
 70
0
 10
8.559088
 20
13.459949
 30
0.0
 10
8.559129
 20
13.459842
 30
0.0
  0
ENDSEC
  0
SECTION
  2
OBJECTS
  0
DICTIONARY
  5
C
330
0
100
AcDbDictionary
  3
ACAD_GROUP
350
D
  3
ACAD_MLINESTYLE
350
17
  0
DICTIONARY
  5
D
330
C
100
AcDbDictionary
  0
DICTIONARY
  5
1A
330
C
100
AcDbDictionary
  0
DICTIONARY
  5
17
330
C
100
AcDbDictionary
  3
STANDARD
350
18
  0
DICTIONARY
  5
19
330
C
100
AcDbDictionary
  0
ENDSEC
  0
EOF
