  0
SECTION
  2
HEADER
  9
$ACADVER
  1
AC1014
  9
$HANDSEED
  5
FFFF
  9
$INSUNITS
 70
     4
  9
$MEASUREMENT
 70
     1
  0
ENDSEC
  0
SECTION
  2
TABLES
  0
TABLE
  2
VPORT
  5
8
330
0
100
AcDbSymbolTable
 70
     4
  0
VPORT
  5
2E
330
8
100
AcDbSymbolTableRecord
100
AcDbViewportTableRecord
  2
*ACTIVE
 70
     0
 10
0.0
 20
0.0
 11
1.0
 21
1.0
 12
210.0
 22
148.5
 13
0.0
 23
0.0
 14
10.0
 24
10.0
 15
10.0
 25
10.0
 16
0.0
 26
0.0
 36
1.0
 17
0.0
 27
0.0
 37
0.0
 40
341.0
 41
1.24
 42
50.0
 43
0.0
 44
0.0
 50
0.0
 51
0.0
 71
     0
 72
   100
 73
     1
 74
     3
 75
     0
 76
     0
 77
     0
 78
     0
  0
ENDTAB
  0
TABLE
  2
LTYPE
  5
5
330
0
100
AcDbSymbolTable
 70
     1
  0
LTYPE
  5
14
330
5
100
AcDbSymbolTableRecord
100
AcDbLinetypeTableRecord
  2
BYBLOCK
 70
     0
  3

 72
    65
 73
     0
 40
0.0
  0
LTYPE
  5
15
330
5
100
AcDbSymbolTableRecord
100
AcDbLinetypeTableRecord
  2
BYLAYER
 70
     0
  3

 72
    65
 73
     0
 40
0.0
  0
LTYPE
  5
16
330
5
100
AcDbSymbolTableRecord
100
AcDbLinetypeTableRecord
  2
CONTINUOUS
 70
     0
  3
Solid line
 72
    65
 73
     0
 40
0.0
  0
ENDTAB
  0
TABLE
  2
LAYER
  5
2
100
AcDbSymbolTable
 70
1
  0
LAYER
  5
50
100
AcDbSymbolTableRecord
100
AcDbLayerTableRecord
  2
0
 70
0
  6
CONTINUOUS
  0
ENDTAB
  0
TABLE
  2
STYLE
  5
3
330
0
100
AcDbSymbolTable
 70
     1
  0
STYLE
  5
11
330
3
100
AcDbSymbolTableRecord
100
AcDbTextStyleTableRecord
  2
STANDARD
 70
     0
 40
0.0
 41
1.0
 50
0.0
 71
     0
 42
2.5
  3
txt
  4

  0
ENDTAB
  0
TABLE
  2
VIEW
  5
6
330
0
100
AcDbSymbolTable
 70
     0
  0
ENDTAB
  0
TABLE
  2
UCS
  5
7
330
0
100
AcDbSymbolTable
 70
     0
  0
ENDTAB
  0
TABLE
  2
APPID
  5
9
330
0
100
AcDbSymbolTable
 70
     2
  0
APPID
  5
12
330
9
100
AcDbSymbolTableRecord
100
AcDbRegAppTableRecord
  2
ACAD
 70
     0
  0
ENDTAB
  0
TABLE
  2
DIMSTYLE
  5
A
330
0
100
AcDbSymbolTable
 70
     1
  0
DIMSTYLE
105
27
330
A
100
AcDbSymbolTableRecord
100
AcDbDimStyleTableRecord
  2
ISO-25
 70
     0
  3

  4

  5

  6

  7

 40
1.0
 41
2.5
 42
0.625
 43
3.75
 44
1.25
 45
0.0
 46
0.0
 47
0.0
 48
0.0
140
2.5
141
2.5
142
0.0
143
0.03937007874016
144
1.0
145
0.0
146
1.0
147
0.625
 71
     0
 72
     0
 73
     0
 74
     0
 75
     0
 76
     0
 77
     1
 78
     8
170
     0
171
     3
172
     1
173
     0
174
     0
175
     0
176
     0
177
     0
178
     0
270
     2
271
     2
272
     2
273
     2
274
     3
340
11
275
     0
280
     0
281
     0
282
     0
283
     0
284
     8
285
     0
286
     0
287
     3
288
     0
  0
ENDTAB
  0
TABLE
  2
BLOCK_RECORD
  5
1
330
0
100
AcDbSymbolTable
 70
     1
  0
BLOCK_RECORD
  5
1F
330
1
100
AcDbSymbolTableRecord
100
AcDbBlockTableRecord
  2
*MODEL_SPACE
  0
BLOCK_RECORD
  5
1B
330
1
100
AcDbSymbolTableRecord
100
AcDbBlockTableRecord
  2
*PAPER_SPACE
  0
ENDTAB
  0
ENDSEC
  0
SECTION
  2
BLOCKS
  0
BLOCK
  5
20
330
1F
100
AcDbEntity
  8
0
100
AcDbBlockBegin
  2
*MODEL_SPACE
 70
     0
 10
0.0
 20
0.0
 30
0.0
  3
*MODEL_SPACE
  1

  0
ENDBLK
  5
21
330
1F
100
AcDbEntity
  8
0
100
AcDbBlockEnd
  0
BLOCK
  5
1C
330
1B
100
AcDbEntity
 67
     1
  8
0
100
AcDbBlockBegin
  2
*PAPER_SPACE
  1

  0
ENDBLK
  5
1D
330
1B
100
AcDbEntity
 67
     1
  8
0
100
AcDbBlockEnd
  0
ENDSEC
  0
SECTION
  2
ENTITIES
  0
SPLINE
  5
100
100
AcDbEntity
  8
0
 62
7
100
AcDbSpline
 70
8
 71
3
 72
8
 73
4
 74
0
 40
0
 40
0
 40
0
 40
0
 40
1
 40
1
 40
1
 40
1
 10
8.976570
 20
11.144999
 30
0.0
 10
8.922155
 20
11.144999
 30
0.0
 10
8.872682
 20
11.163552
 30
0.0
 10
8.828150
 20
11.200659
 30
0.0
  0
SPLINE
  5
101
100
AcDbEntity
  8
0
 62
7
100
AcDbSpline
 70
8
 71
3
 72
8
 73
4
 74
0
 40
0
 40
0
 40
0
 40
0
 40
1
 40
1
 40
1
 40
1
 10
8.828150
 20
11.200659
 30
0.0
 10
8.786098
 20
11.237770
 30
0.0
 10
8.761362
 20
11.284771
 30
0.0
 10
8.753942
 20
11.341660
 30
0.0
  0
SPLINE
  5
102
100
AcDbEntity
  8
0
 62
7
100
AcDbSpline
 70
8
 71
3
 72
8
 73
4
 74
0
 40
0
 40
0
 40
0
 40
0
 40
1
 40
1
 40
1
 40
1
 10
8.753942
 20
11.341660
 30
0.0
 10
8.731681
 20
11.542026
 30
0.0
 10
8.659946
 20
11.697866
 30
0.0
 10
8.538736
 20
11.809180
 30
0.0
  0
SPLINE
  5
103
100
AcDbEntity
  8
0
 62
7
100
AcDbSpline
 70
8
 71
3
 72
8
 73
4
 74
0
 40
0
 40
0
 40
0
 40
0
 40
1
 40
1
 40
1
 40
1
 10
8.538736
 20
11.809180
 30
0.0
 10
8.417526
 20
11.920496
 30
0.0
 10
8.265396
 20
11.976154
 30
0.0
 10
8.082344
 20
11.976154
 30
0.0
  0
SPLINE
  5
104
100
AcDbEntity
  8
0
 62
7
100
AcDbSpline
 70
8
 71
3
 72
8
 73
4
 74
0
 40
0
 40
0
 40
0
 40
0
 40
1
 40
1
 40
1
 40
1
 10
8.082344
 20
11.976154
 30
0.0
 10
7.916609
 20
11.976154
 30
0.0
 10
7.766952
 20
11.918022
 30
0.0
 10
7.633374
 20
11.801760
 30
0.0
  0
SPLINE
  5
105
100
AcDbEntity
  8
0
 62
7
100
AcDbSpline
 70
8
 71
3
 72
8
 73
4
 74
0
 40
0
 40
0
 40
0
 40
0
 40
1
 40
1
 40
1
 40
1
 10
7.633374
 20
11.801760
 30
0.0
 10
7.502270
 20
11.687971
 30
0.0
 10
7.402086
 20
11.535841
 30
0.0
 10
7.332823
 20
11.345368
 30
0.0
  0
SPLINE
  5
106
100
AcDbEntity
  8
0
 62
7
100
AcDbSpline
 70
8
 71
3
 72
8
 73
4
 74
0
 40
0
 40
0
 40
0
 40
0
 40
1
 40
1
 40
1
 40
1
 10
7.332823
 20
11.345368
 30
0.0
 10
7.263561
 20
11.154895
 30
0.0
 10
7.228930
 20
10.947107
 30
0.0
 10
7.228930
 20
10.722004
 30
0.0
  0
SPLINE
  5
107
100
AcDbEntity
  8
0
 62
7
100
AcDbSpline
 70
8
 71
3
 72
8
 73
4
 74
0
 40
0
 40
0
 40
0
 40
0
 40
1
 40
1
 40
1
 40
1
 10
7.228930
 20
10.722004
 30
0.0
 10
7.228930
 20
10.494427
 30
0.0
 10
7.263561
 20
10.285402
 30
0.0
 10
7.332823
 20
10.094930
 30
0.0
  0
SPLINE
  5
108
100
AcDbEntity
  8
0
 62
7
100
AcDbSpline
 70
8
 71
3
 72
8
 73
4
 74
0
 40
0
 40
0
 40
0
 40
0
 40
1
 40
1
 40
1
 40
1
 10
7.332823
 20
10.094930
 30
0.0
 10
7.402086
 20
9.904457
 30
0.0
 10
7.502270
 20
9.751090
 30
0.0
 10
7.633374
 20
9.634827
 30
0.0
  0
SPLINE
  5
109
100
AcDbEntity
  8
0
 62
7
100
AcDbSpline
 70
8
 71
3
 72
8
 73
4
 74
0
 40
0
 40
0
 40
0
 40
0
 40
1
 40
1
 40
1
 40
1
 10
7.633374
 20
9.634827
 30
0.0
 10
7.764478
 20
9.518564
 30
0.0
 10
7.914135
 20
9.460433
 30
0.0
 10
8.082344
 20
9.460433
 30
0.0
  0
SPLINE
  5
10a
100
AcDbEntity
  8
0
 62
7
100
AcDbSpline
 70
8
 71
3
 72
8
 73
4
 74
0
 40
0
 40
0
 40
0
 40
0
 40
1
 40
1
 40
1
 40
1
 10
8.082344
 20
9.460433
 30
0.0
 10
8.280238
 20
9.460433
 30
0.0
 10
8.441026
 20
9.519801
 30
0.0
 10
8.564710
 20
9.638538
 30
0.0
  0
SPLINE
  5
10b
100
AcDbEntity
  8
0
 62
7
100
AcDbSpline
 70
8
 71
3
 72
8
 73
4
 74
0
 40
0
 40
0
 40
0
 40
0
 40
1
 40
1
 40
1
 40
1
 10
8.564710
 20
9.638538
 30
0.0
 10
8.688393
 20
9.759748
 30
0.0
 10
8.765077
 20
9.936615
 30
0.0
 10
8.794761
 20
10.169139
 30
0.0
  0
SPLINE
  5
10c
100
AcDbEntity
  8
0
 62
7
100
AcDbSpline
 70
8
 71
3
 72
8
 73
4
 74
0
 40
0
 40
0
 40
0
 40
0
 40
1
 40
1
 40
1
 40
1
 10
8.794761
 20
10.169139
 30
0.0
 10
8.799661
 20
10.226039
 30
0.0
 10
8.823161
 20
10.273039
 30
0.0
 10
8.865262
 20
10.310139
 30
0.0
  0
SPLINE
  5
10d
100
AcDbEntity
  8
0
 62
7
100
AcDbSpline
 70
8
 71
3
 72
8
 73
4
 74
0
 40
0
 40
0
 40
0
 40
0
 40
1
 40
1
 40
1
 40
1
 10
8.865262
 20
10.310139
 30
0.0
 10
8.909791
 20
10.347246
 30
0.0
 10
8.959265
 20
10.365799
 30
0.0
 10
9.013683
 20
10.365799
 30
0.0
  0
LWPOLYLINE
  5
10e
100
AcDbEntity
  8
0
 62
7
100
AcDbPolyline
 90
2
 70
0
 10
9.002548
 20
11.144999
 30
0.0
 10
8.976570
 20
11.144999
 30
0.0
  0
SPLINE
  5
10f
100
AcDbEntity
  8
0
 62
7
100
AcDbSpline
 70
8
 71
3
 72
8
 73
4
 74
0
 40
0
 40
0
 40
0
 40
0
 40
1
 40
1
 40
1
 40
1
 10
9.039661
 20
10.365799
 30
0.0
 10
9.096560
 20
10.358379
 30
0.0
 10
9.143560
 20
10.332409
 30
0.0
 10
9.180660
 20
10.287889
 30
0.0
  0
SPLINE
  5
110
100
AcDbEntity
  8
0
 62
7
100
AcDbSpline
 70
8
 71
3
 72
8
 73
4
 74
0
 40
0
 40
0
 40
0
 40
0
 40
1
 40
1
 40
1
 40
1
 10
9.180660
 20
10.287889
 30
0.0
 10
9.217768
 20
10.245836
 30
0.0
 10
9.236323
 20
10.197599
 30
0.0
 10
9.236323
 20
10.143179
 30
0.0
  0
LWPOLYLINE
  5
111
100
AcDbEntity
  8
0
 62
7
100
AcDbPolyline
 90
2
 70
0
 10
9.013683
 20
10.365799
 30
0.0
 10
9.039661
 20
10.365799
 30
0.0
  0
SPLINE
  5
112
100
AcDbEntity
  8
0
 62
7
100
AcDbSpline
 70
8
 71
3
 72
8
 73
4
 74
0
 40
0
 40
0
 40
0
 40
0
 40
1
 40
1
 40
1
 40
1
 10
9.236323
 20
10.117199
 30
0.0
 10
9.196743
 20
9.788201
 30
0.0
 10
9.071822
 20
9.522281
 30
0.0
 10
8.861562
 20
9.319440
 30
0.0
  0
SPLINE
  5
113
100
AcDbEntity
  8
0
 62
7
100
AcDbSpline
 70
8
 71
3
 72
8
 73
4
 74
0
 40
0
 40
0
 40
0
 40
0
 40
1
 40
1
 40
1
 40
1
 10
8.861562
 20
9.319440
 30
0.0
 10
8.653774
 20
9.116600
 30
0.0
 10
8.394039
 20
9.015180
 30
0.0
 10
8.082356
 20
9.015180
 30
0.0
  0
SPLINE
  5
114
100
AcDbEntity
  8
0
 62
7
100
AcDbSpline
 70
8
 71
3
 72
8
 73
4
 74
0
 40
0
 40
0
 40
0
 40
0
 40
1
 40
1
 40
1
 40
1
 10
8.082356
 20
9.015180
 30
0.0
 10
7.906726
 20
9.015180
 30
0.0
 10
7.744701
 20
9.051048
 30
0.0
 10
7.596281
 20
9.122783
 30
0.0
  0
SPLINE
  5
115
100
AcDbEntity
  8
0
 62
7
100
AcDbSpline
 70
8
 71
3
 72
8
 73
4
 74
0
 40
0
 40
0
 40
0
 40
0
 40
1
 40
1
 40
1
 40
1
 10
7.596281
 20
9.122783
 30
0.0
 10
7.450329
 20
9.192045
 30
0.0
 10
7.327880
 20
9.283570
 30
0.0
 10
7.228933
 20
9.397359
 30
0.0
  0
SPLINE
  5
116
100
AcDbEntity
  8
0
 62
7
100
AcDbSpline
 70
8
 71
3
 72
8
 73
4
 74
0
 40
0
 40
0
 40
0
 40
0
 40
1
 40
1
 40
1
 40
1
 10
7.228933
 20
9.397359
 30
0.0
 10
7.129986
 20
9.513621
 30
0.0
 10
7.045882
 20
9.645962
 30
0.0
 10
6.976619
 20
9.794383
 30
0.0
  0
SPLINE
  5
117
100
AcDbEntity
  8
0
 62
7
100
AcDbSpline
 70
8
 71
3
 72
8
 73
4
 74
0
 40
0
 40
0
 40
0
 40
0
 40
1
 40
1
 40
1
 40
1
 10
6.976619
 20
9.794383
 30
0.0
 10
6.909830
 20
9.945276
 30
0.0
 10
6.860356
 20
10.098643
 30
0.0
 10
6.828199
 20
10.254485
 30
0.0
  0
SPLINE
  5
118
100
AcDbEntity
  8
0
 62
7
100
AcDbSpline
 70
8
 71
3
 72
8
 73
4
 74
0
 40
0
 40
0
 40
0
 40
0
 40
1
 40
1
 40
1
 40
1
 10
6.828199
 20
10.254485
 30
0.0
 10
6.798517
 20
10.410326
 30
0.0
 10
6.783676
 20
10.566167
 30
0.0
 10
6.783676
 20
10.722007
 30
0.0
  0
SPLINE
  5
119
100
AcDbEntity
  8
0
 62
7
100
AcDbSpline
 70
8
 71
3
 72
8
 73
4
 74
0
 40
0
 40
0
 40
0
 40
0
 40
1
 40
1
 40
1
 40
1
 10
6.783676
 20
10.722007
 30
0.0
 10
6.783676
 20
10.877848
 30
0.0
 10
6.798517
 20
11.032453
 30
0.0
 10
6.828199
 20
11.185820
 30
0.0
  0
SPLINE
  5
11a
100
AcDbEntity
  8
0
 62
7
100
AcDbSpline
 70
8
 71
3
 72
8
 73
4
 74
0
 40
0
 40
0
 40
0
 40
0
 40
1
 40
1
 40
1
 40
1
 10
6.828199
 20
11.185820
 30
0.0
 10
6.860354
 20
11.341661
 30
0.0
 10
6.911064
 20
11.493792
 30
0.0
 10
6.980330
 20
11.642212
 30
0.0
  0
SPLINE
  5
11b
100
AcDbEntity
  8
0
 62
7
100
AcDbSpline
 70
8
 71
3
 72
8
 73
4
 74
0
 40
0
 40
0
 40
0
 40
0
 40
1
 40
1
 40
1
 40
1
 10
6.980330
 20
11.642212
 30
0.0
 10
7.049592
 20
11.793105
 30
0.0
 10
7.132460
 20
11.925447
 30
0.0
 10
7.228933
 20
12.039236
 30
0.0
  0
SPLINE
  5
11c
100
AcDbEntity
  8
0
 62
7
100
AcDbSpline
 70
8
 71
3
 72
8
 73
4
 74
0
 40
0
 40
0
 40
0
 40
0
 40
1
 40
1
 40
1
 40
1
 10
7.228933
 20
12.039236
 30
0.0
 10
7.327880
 20
12.153024
 30
0.0
 10
7.450327
 20
12.244550
 30
0.0
 10
7.596273
 20
12.313813
 30
0.0
  0
SPLINE
  5
11d
100
AcDbEntity
  8
0
 62
7
100
AcDbSpline
 70
8
 71
3
 72
8
 73
4
 74
0
 40
0
 40
0
 40
0
 40
0
 40
1
 40
1
 40
1
 40
1
 10
7.596273
 20
12.313813
 30
0.0
 10
7.744693
 20
12.385549
 30
0.0
 10
7.906718
 20
12.421417
 30
0.0
 10
8.082348
 20
12.421417
 30
0.0
  0
SPLINE
  5
11e
100
AcDbEntity
  8
0
 62
7
100
AcDbSpline
 70
8
 71
3
 72
8
 73
4
 74
0
 40
0
 40
0
 40
0
 40
0
 40
1
 40
1
 40
1
 40
1
 10
8.082348
 20
12.421417
 30
0.0
 10
8.376715
 20
12.421417
 30
0.0
 10
8.626555
 20
12.326181
 30
0.0
 10
8.831870
 20
12.135708
 30
0.0
  0
SPLINE
  5
11f
100
AcDbEntity
  8
0
 62
7
100
AcDbSpline
 70
8
 71
3
 72
8
 73
4
 74
0
 40
0
 40
0
 40
0
 40
0
 40
1
 40
1
 40
1
 40
1
 10
8.831870
 20
12.135708
 30
0.0
 10
9.039658
 20
11.945236
 30
0.0
 10
9.162104
 20
11.697869
 30
0.0
 10
9.199209
 20
11.393608
 30
0.0
  0
LWPOLYLINE
  5
120
100
AcDbEntity
  8
0
 62
7
100
AcDbPolyline
 90
2
 70
0
 10
9.236323
 20
10.143179
 30
0.0
 10
9.236323
 20
10.117199
 30
0.0
  0
SPLINE
  5
121
100
AcDbEntity
  8
0
 62
7
100
AcDbSpline
 70
8
 71
3
 72
8
 73
4
 74
0
 40
0
 40
0
 40
0
 40
0
 40
1
 40
1
 40
1
 40
1
 10
9.199209
 20
11.367628
 30
0.0
 10
9.199209
 20
11.313208
 30
0.0
 10
9.180655
 20
11.263735
 30
0.0
 10
9.143545
 20
11.219208
 30
0.0
  0
SPLINE
  5
122
100
AcDbEntity
  8
0
 62
7
100
AcDbSpline
 70
8
 71
3
 72
8
 73
4
 74
0
 40
0
 40
0
 40
0
 40
0
 40
1
 40
1
 40
1
 40
1
 10
9.143545
 20
11.219208
 30
0.0
 10
9.106436
 20
11.177155
 30
0.0
 10
9.059436
 20
11.152418
 30
0.0
 10
9.002546
 20
11.144998
 30
0.0
  0
LWPOLYLINE
  5
123
100
AcDbEntity
  8
0
 62
7
100
AcDbPolyline
 90
2
 70
0
 10
9.199209
 20
11.393608
 30
0.0
 10
9.199209
 20
11.367628
 30
0.0
  0
SPLINE
  5
124
100
AcDbEntity
  8
0
 62
7
100
AcDbSpline
 70
8
 71
3
 72
8
 73
4
 74
0
 40
0
 40
0
 40
0
 40
0
 40
1
 40
1
 40
1
 40
1
 10
9.631108
 20
12.362043
 30
0.0
 10
9.675637
 20
12.406569
 30
0.0
 10
9.728821
 20
12.428832
 30
0.0
 10
9.790659
 20
12.428832
 30
0.0
  0
SPLINE
  5
125
100
AcDbEntity
  8
0
 62
7
100
AcDbSpline
 70
8
 71
3
 72
8
 73
4
 74
0
 40
0
 40
0
 40
0
 40
0
 40
1
 40
1
 40
1
 40
1
 10
9.790659
 20
12.428832
 30
0.0
 10
9.852500
 20
12.428832
 30
0.0
 10
9.904448
 20
12.406569
 30
0.0
 10
9.946501
 20
12.362043
 30
0.0
  0
SPLINE
  5
126
100
AcDbEntity
  8
0
 62
7
100
AcDbSpline
 70
8
 71
3
 72
8
 73
4
 74
0
 40
0
 40
0
 40
0
 40
0
 40
1
 40
1
 40
1
 40
1
 10
9.946501
 20
12.362043
 30
0.0
 10
9.991023
 20
12.319990
 30
0.0
 10
10.013285
 20
12.268043
 30
0.0
 10
10.013285
 20
12.206201
 30
0.0
  0
LWPOLYLINE
  5
127
100
AcDbEntity
  8
0
 62
7
100
AcDbPolyline
 90
1
 70
1
 10
9.002546
 20
11.144998
 30
0.0
  0
SPLINE
  5
128
100
AcDbEntity
  8
0
 62
7
100
AcDbSpline
 70
8
 71
3
 72
8
 73
4
 74
0
 40
0
 40
0
 40
0
 40
0
 40
1
 40
1
 40
1
 40
1
 10
11.720115
 20
9.460431
 30
0.0
 10
11.779488
 20
9.460431
 30
0.0
 10
11.831435
 20
9.438168
 30
0.0
 10
11.875956
 20
9.393641
 30
0.0
  0
SPLINE
  5
129
100
AcDbEntity
  8
0
 62
7
100
AcDbSpline
 70
8
 71
3
 72
8
 73
4
 74
0
 40
0
 40
0
 40
0
 40
0
 40
1
 40
1
 40
1
 40
1
 10
11.875956
 20
9.393641
 30
0.0
 10
11.920482
 20
9.351588
 30
0.0
 10
11.942746
 20
9.299640
 30
0.0
 10
11.942746
 20
9.237799
 30
0.0
  0
SPLINE
  5
12a
100
AcDbEntity
  8
0
 62
7
100
AcDbSpline
 70
8
 71
3
 72
8
 73
4
 74
0
 40
0
 40
0
 40
0
 40
0
 40
1
 40
1
 40
1
 40
1
 10
11.942746
 20
9.237799
 30
0.0
 10
11.942746
 20
9.175959
 30
0.0
 10
11.920482
 20
9.124012
 30
0.0
 10
11.875956
 20
9.081959
 30
0.0
  0
SPLINE
  5
12b
100
AcDbEntity
  8
0
 62
7
100
AcDbSpline
 70
8
 71
3
 72
8
 73
4
 74
0
 40
0
 40
0
 40
0
 40
0
 40
1
 40
1
 40
1
 40
1
 10
11.875956
 20
9.081959
 30
0.0
 10
11.831429
 20
9.037432
 30
0.0
 10
11.779482
 20
9.015169
 30
0.0
 10
11.720115
 20
9.015169
 30
0.0
  0
LWPOLYLINE
  5
12c
100
AcDbEntity
  8
0
 62
7
100
AcDbPolyline
 90
3
 70
0
 10
10.013285
 20
12.206201
 30
0.0
 10
10.013285
 20
9.460431
 30
0.0
 10
11.720115
 20
9.460431
 30
0.0
  0
SPLINE
  5
12d
100
AcDbEntity
  8
0
 62
7
100
AcDbSpline
 70
8
 71
3
 72
8
 73
4
 74
0
 40
0
 40
0
 40
0
 40
0
 40
1
 40
1
 40
1
 40
1
 10
9.790655
 20
9.015169
 30
0.0
 10
9.738711
 20
9.015169
 30
0.0
 10
9.688001
 20
9.036196
 30
0.0
 10
9.638524
 20
9.078249
 30
0.0
  0
SPLINE
  5
12e
100
AcDbEntity
  8
0
 62
7
100
AcDbSpline
 70
8
 71
3
 72
8
 73
4
 74
0
 40
0
 40
0
 40
0
 40
0
 40
1
 40
1
 40
1
 40
1
 10
9.638524
 20
9.078249
 30
0.0
 10
9.591523
 20
9.120302
 30
0.0
 10
9.568023
 20
9.173486
 30
0.0
 10
9.568023
 20
9.237800
 30
0.0
  0
LWPOLYLINE
  5
12f
100
AcDbEntity
  8
0
 62
7
100
AcDbPolyline
 90
2
 70
0
 10
11.720115
 20
9.015169
 30
0.0
 10
9.790655
 20
9.015169
 30
0.0
  0
SPLINE
  5
130
100
AcDbEntity
  8
0
 62
7
100
AcDbSpline
 70
8
 71
3
 72
8
 73
4
 74
0
 40
0
 40
0
 40
0
 40
0
 40
1
 40
1
 40
1
 40
1
 10
9.568023
 20
12.206202
 30
0.0
 10
9.568023
 20
12.268044
 30
0.0
 10
9.589049
 20
12.319991
 30
0.0
 10
9.631100
 20
12.362043
 30
0.0
  0
LWPOLYLINE
  5
131
100
AcDbEntity
  8
0
 62
7
100
AcDbPolyline
 90
2
 70
0
 10
9.568023
 20
9.237800
 30
0.0
 10
9.568023
 20
12.206202
 30
0.0
  0
LWPOLYLINE
  5
132
100
AcDbEntity
  8
0
 62
7
100
AcDbPolyline
 90
1
 70
1
 10
9.631100
 20
12.362043
 30
0.0
  0
SPLINE
  5
133
100
AcDbEntity
  8
0
 62
7
100
AcDbSpline
 70
8
 71
3
 72
8
 73
4
 74
0
 40
0
 40
0
 40
0
 40
0
 40
1
 40
1
 40
1
 40
1
 10
13.628798
 20
11.011421
 30
0.0
 10
13.769797
 20
11.011421
 30
0.0
 10
13.902138
 20
11.060894
 30
0.0
 10
14.025821
 20
11.159841
 30
0.0
  0
SPLINE
  5
134
100
AcDbEntity
  8
0
 62
7
100
AcDbSpline
 70
8
 71
3
 72
8
 73
4
 74
0
 40
0
 40
0
 40
0
 40
0
 40
1
 40
1
 40
1
 40
1
 10
14.025821
 20
11.159841
 30
0.0
 10
14.151978
 20
11.258787
 30
0.0
 10
14.215057
 20
11.370102
 30
0.0
 10
14.215057
 20
11.493785
 30
0.0
  0
SPLINE
  5
135
100
AcDbEntity
  8
0
 62
7
100
AcDbSpline
 70
8
 71
3
 72
8
 73
4
 74
0
 40
0
 40
0
 40
0
 40
0
 40
1
 40
1
 40
1
 40
1
 10
14.215057
 20
11.493785
 30
0.0
 10
14.215057
 20
11.637258
 30
0.0
 10
14.163110
 20
11.754757
 30
0.0
 10
14.059216
 20
11.846283
 30
0.0
  0
SPLINE
  5
136
100
AcDbEntity
  8
0
 62
7
100
AcDbSpline
 70
8
 71
3
 72
8
 73
4
 74
0
 40
0
 40
0
 40
0
 40
0
 40
1
 40
1
 40
1
 40
1
 10
14.059216
 20
11.846283
 30
0.0
 10
13.955322
 20
11.937809
 30
0.0
 10
13.811849
 20
11.983572
 30
0.0
 10
13.628798
 20
11.983572
 30
0.0
  0
LWPOLYLINE
  5
137
100
AcDbEntity
  8
0
 62
7
100
AcDbPolyline
 90
2
 70
0
 10
12.716014
 20
11.011421
 30
0.0
 10
13.628798
 20
11.011421
 30
0.0
  0
LWPOLYLINE
  5
138
100
AcDbEntity
  8
0
 62
7
100
AcDbPolyline
 90
3
 70
0
 10
13.628798
 20
11.983572
 30
0.0
 10
12.716014
 20
11.983572
 30
0.0
 10
12.716014
 20
11.011421
 30
0.0
  0
SPLINE
  5
139
100
AcDbEntity
  8
0
 62
7
100
AcDbSpline
 70
8
 71
3
 72
8
 73
4
 74
0
 40
0
 40
0
 40
0
 40
0
 40
1
 40
1
 40
1
 40
1
 10
12.716014
 20
9.237800
 30
0.0
 10
12.716014
 20
9.175960
 30
0.0
 10
12.693754
 20
9.124013
 30
0.0
 10
12.649234
 20
9.081960
 30
0.0
  0
SPLINE
  5
13a
100
AcDbEntity
  8
0
 62
7
100
AcDbSpline
 70
8
 71
3
 72
8
 73
4
 74
0
 40
0
 40
0
 40
0
 40
0
 40
1
 40
1
 40
1
 40
1
 10
12.649234
 20
9.081960
 30
0.0
 10
12.607181
 20
9.037433
 30
0.0
 10
12.555233
 20
9.015170
 30
0.0
 10
12.493392
 20
9.015170
 30
0.0
  0
SPLINE
  5
13b
100
AcDbEntity
  8
0
 62
7
100
AcDbSpline
 70
8
 71
3
 72
8
 73
4
 74
0
 40
0
 40
0
 40
0
 40
0
 40
1
 40
1
 40
1
 40
1
 10
12.493392
 20
9.015170
 30
0.0
 10
12.431552
 20
9.015170
 30
0.0
 10
12.378368
 20
9.037433
 30
0.0
 10
12.333841
 20
9.081960
 30
0.0
  0
SPLINE
  5
13c
100
AcDbEntity
  8
0
 62
7
100
AcDbSpline
 70
8
 71
3
 72
8
 73
4
 74
0
 40
0
 40
0
 40
0
 40
0
 40
1
 40
1
 40
1
 40
1
 10
12.333841
 20
9.081960
 30
0.0
 10
12.291788
 20
9.124013
 30
0.0
 10
12.270761
 20
9.175960
 30
0.0
 10
12.270761
 20
9.237800
 30
0.0
  0
LWPOLYLINE
  5
13d
100
AcDbEntity
  8
0
 62
7
100
AcDbPolyline
 90
2
 70
0
 10
12.716014
 20
10.566160
 30
0.0
 10
12.716014
 20
9.237800
 30
0.0
  0
SPLINE
  5
13e
100
AcDbEntity
  8
0
 62
7
100
AcDbSpline
 70
8
 71
3
 72
8
 73
4
 74
0
 40
0
 40
0
 40
0
 40
0
 40
1
 40
1
 40
1
 40
1
 10
12.270761
 20
12.206201
 30
0.0
 10
12.270761
 20
12.270517
 30
0.0
 10
12.294261
 20
12.323701
 30
0.0
 10
12.341261
 20
12.365753
 30
0.0
  0
SPLINE
  5
13f
100
AcDbEntity
  8
0
 62
7
100
AcDbSpline
 70
8
 71
3
 72
8
 73
4
 74
0
 40
0
 40
0
 40
0
 40
0
 40
1
 40
1
 40
1
 40
1
 10
12.341261
 20
12.365753
 30
0.0
 10
12.390734
 20
12.407806
 30
0.0
 10
12.441444
 20
12.428832
 30
0.0
 10
12.493391
 20
12.428832
 30
0.0
  0
LWPOLYLINE
  5
140
100
AcDbEntity
  8
0
 62
7
100
AcDbPolyline
 90
3
 70
0
 10
12.270761
 20
9.237800
 30
0.0
 10
12.270761
 20
10.788790
 30
0.0
 10
12.270761
 20
12.206201
 30
0.0
  0
SPLINE
  5
141
100
AcDbEntity
  8
0
 62
7
100
AcDbSpline
 70
8
 71
3
 72
8
 73
4
 74
0
 40
0
 40
0
 40
0
 40
0
 40
1
 40
1
 40
1
 40
1
 10
13.628805
 20
12.428832
 30
0.0
 10
13.918224
 20
12.428832
 30
0.0
 10
14.161880
 20
12.341017
 30
0.0
 10
14.359773
 20
12.165387
 30
0.0
  0
SPLINE
  5
142
100
AcDbEntity
  8
0
 62
7
100
AcDbSpline
 70
8
 71
3
 72
8
 73
4
 74
0
 40
0
 40
0
 40
0
 40
0
 40
1
 40
1
 40
1
 40
1
 10
14.359773
 20
12.165387
 30
0.0
 10
14.560140
 20
11.992230
 30
0.0
 10
14.660324
 20
11.768363
 30
0.0
 10
14.660324
 20
11.493786
 30
0.0
  0
SPLINE
  5
143
100
AcDbEntity
  8
0
 62
7
100
AcDbSpline
 70
8
 71
3
 72
8
 73
4
 74
0
 40
0
 40
0
 40
0
 40
0
 40
1
 40
1
 40
1
 40
1
 10
14.660324
 20
11.493786
 30
0.0
 10
14.660324
 20
11.290945
 30
0.0
 10
14.597246
 20
11.115315
 30
0.0
 10
14.471089
 20
10.966895
 30
0.0
  0
SPLINE
  5
144
100
AcDbEntity
  8
0
 62
7
100
AcDbSpline
 70
8
 71
3
 72
8
 73
4
 74
0
 40
0
 40
0
 40
0
 40
0
 40
1
 40
1
 40
1
 40
1
 10
14.471089
 20
10.966895
 30
0.0
 10
14.347406
 20
10.818475
 30
0.0
 10
14.194038
 20
10.709634
 30
0.0
 10
14.010987
 20
10.640371
 30
0.0
  0
LWPOLYLINE
  5
145
100
AcDbEntity
  8
0
 62
7
100
AcDbPolyline
 90
2
 70
0
 10
12.493391
 20
12.428832
 30
0.0
 10
13.628805
 20
12.428832
 30
0.0
  0
SPLINE
  5
146
100
AcDbEntity
  8
0
 62
7
100
AcDbSpline
 70
8
 71
3
 72
8
 73
4
 74
0
 40
0
 40
0
 40
0
 40
0
 40
1
 40
1
 40
1
 40
1
 10
14.615799
 20
9.330564
 30
0.0
 10
14.628159
 20
9.303351
 30
0.0
 10
14.634339
 20
9.272431
 30
0.0
 10
14.634339
 20
9.237804
 30
0.0
  0
SPLINE
  5
147
100
AcDbEntity
  8
0
 62
7
100
AcDbSpline
 70
8
 71
3
 72
8
 73
4
 74
0
 40
0
 40
0
 40
0
 40
0
 40
1
 40
1
 40
1
 40
1
 10
14.634339
 20
9.237804
 30
0.0
 10
14.634339
 20
9.195751
 30
0.0
 10
14.623209
 20
9.156172
 30
0.0
 10
14.600949
 20
9.119069
 30
0.0
  0
SPLINE
  5
148
100
AcDbEntity
  8
0
 62
7
100
AcDbSpline
 70
8
 71
3
 72
8
 73
4
 74
0
 40
0
 40
0
 40
0
 40
0
 40
1
 40
1
 40
1
 40
1
 10
14.600949
 20
9.119069
 30
0.0
 10
14.578689
 20
9.081962
 30
0.0
 10
14.547769
 20
9.054752
 30
0.0
 10
14.508189
 20
9.037439
 30
0.0
  0
SPLINE
  5
149
100
AcDbEntity
  8
0
 62
7
100
AcDbSpline
 70
8
 71
3
 72
8
 73
4
 74
0
 40
0
 40
0
 40
0
 40
0
 40
1
 40
1
 40
1
 40
1
 10
14.508189
 20
9.037439
 30
0.0
 10
14.478509
 20
9.022592
 30
0.0
 10
14.447589
 20
9.015169
 30
0.0
 10
14.415429
 20
9.015169
 30
0.0
  0
SPLINE
  5
14a
100
AcDbEntity
  8
0
 62
7
100
AcDbSpline
 70
8
 71
3
 72
8
 73
4
 74
0
 40
0
 40
0
 40
0
 40
0
 40
1
 40
1
 40
1
 40
1
 10
14.415429
 20
9.015169
 30
0.0
 10
14.373376
 20
9.015169
 30
0.0
 10
14.333797
 20
9.027539
 30
0.0
 10
14.296694
 20
9.052279
 30
0.0
  0
SPLINE
  5
14b
100
AcDbEntity
  8
0
 62
7
100
AcDbSpline
 70
8
 71
3
 72
8
 73
4
 74
0
 40
0
 40
0
 40
0
 40
0
 40
1
 40
1
 40
1
 40
1
 10
14.296694
 20
9.052279
 30
0.0
 10
14.259587
 20
9.074539
 30
0.0
 10
14.231141
 20
9.105459
 30
0.0
 10
14.211354
 20
9.145039
 30
0.0
  0
LWPOLYLINE
  5
14c
100
AcDbEntity
  8
0
 62
7
100
AcDbPolyline
 90
2
 70
0
 10
14.010987
 20
10.640371
 30
0.0
 10
14.615799
 20
9.330564
 30
0.0
  0
LWPOLYLINE
  5
14d
100
AcDbEntity
  8
0
 62
7
100
AcDbPolyline
 90
3
 70
0
 10
14.211354
 20
9.145039
 30
0.0
 10
13.550877
 20
10.566161
 30
0.0
 10
12.716014
 20
10.566160
 30
0.0
  0
ENDSEC
  0
SECTION
  2
OBJECTS
  0
DICTIONARY
  5
C
330
0
100
AcDbDictionary
  3
ACAD_GROUP
350
D
  3
ACAD_MLINESTYLE
350
17
  0
DICTIONARY
  5
D
330
C
100
AcDbDictionary
  0
DICTIONARY
  5
1A
330
C
100
AcDbDictionary
  0
DICTIONARY
  5
17
330
C
100
AcDbDictionary
  3
STANDARD
350
18
  0
DICTIONARY
  5
19
330
C
100
AcDbDictionary
  0
ENDSEC
  0
EOF
