  0
SECTION
  2
HEADER
  9
$ACADVER
  1
AC1014
  9
$HANDSEED
  5
FFFF
  9
$INSUNITS
 70
     4
  9
$MEASUREMENT
 70
     1
  0
ENDSEC
  0
SECTION
  2
TABLES
  0
TABLE
  2
VPORT
  5
8
330
0
100
AcDbSymbolTable
 70
     4
  0
VPORT
  5
2E
330
8
100
AcDbSymbolTableRecord
100
AcDbViewportTableRecord
  2
*ACTIVE
 70
     0
 10
0.0
 20
0.0
 11
1.0
 21
1.0
 12
210.0
 22
148.5
 13
0.0
 23
0.0
 14
10.0
 24
10.0
 15
10.0
 25
10.0
 16
0.0
 26
0.0
 36
1.0
 17
0.0
 27
0.0
 37
0.0
 40
341.0
 41
1.24
 42
50.0
 43
0.0
 44
0.0
 50
0.0
 51
0.0
 71
     0
 72
   100
 73
     1
 74
     3
 75
     0
 76
     0
 77
     0
 78
     0
  0
ENDTAB
  0
TABLE
  2
LTYPE
  5
5
330
0
100
AcDbSymbolTable
 70
     1
  0
LTYPE
  5
14
330
5
100
AcDbSymbolTableRecord
100
AcDbLinetypeTableRecord
  2
BYBLOCK
 70
     0
  3

 72
    65
 73
     0
 40
0.0
  0
LTYPE
  5
15
330
5
100
AcDbSymbolTableRecord
100
AcDbLinetypeTableRecord
  2
BYLAYER
 70
     0
  3

 72
    65
 73
     0
 40
0.0
  0
LTYPE
  5
16
330
5
100
AcDbSymbolTableRecord
100
AcDbLinetypeTableRecord
  2
CONTINUOUS
 70
     0
  3
Solid line
 72
    65
 73
     0
 40
0.0
  0
ENDTAB
  0
TABLE
  2
LAYER
  5
2
100
AcDbSymbolTable
 70
1
  0
LAYER
  5
50
100
AcDbSymbolTableRecord
100
AcDbLayerTableRecord
  2
0
 70
0
  6
CONTINUOUS
  0
ENDTAB
  0
TABLE
  2
STYLE
  5
3
330
0
100
AcDbSymbolTable
 70
     1
  0
STYLE
  5
11
330
3
100
AcDbSymbolTableRecord
100
AcDbTextStyleTableRecord
  2
STANDARD
 70
     0
 40
0.0
 41
1.0
 50
0.0
 71
     0
 42
2.5
  3
txt
  4

  0
ENDTAB
  0
TABLE
  2
VIEW
  5
6
330
0
100
AcDbSymbolTable
 70
     0
  0
ENDTAB
  0
TABLE
  2
UCS
  5
7
330
0
100
AcDbSymbolTable
 70
     0
  0
ENDTAB
  0
TABLE
  2
APPID
  5
9
330
0
100
AcDbSymbolTable
 70
     2
  0
APPID
  5
12
330
9
100
AcDbSymbolTableRecord
100
AcDbRegAppTableRecord
  2
ACAD
 70
     0
  0
ENDTAB
  0
TABLE
  2
DIMSTYLE
  5
A
330
0
100
AcDbSymbolTable
 70
     1
  0
DIMSTYLE
105
27
330
A
100
AcDbSymbolTableRecord
100
AcDbDimStyleTableRecord
  2
ISO-25
 70
     0
  3

  4

  5

  6

  7

 40
1.0
 41
2.5
 42
0.625
 43
3.75
 44
1.25
 45
0.0
 46
0.0
 47
0.0
 48
0.0
140
2.5
141
2.5
142
0.0
143
0.03937007874016
144
1.0
145
0.0
146
1.0
147
0.625
 71
     0
 72
     0
 73
     0
 74
     0
 75
     0
 76
     0
 77
     1
 78
     8
170
     0
171
     3
172
     1
173
     0
174
     0
175
     0
176
     0
177
     0
178
     0
270
     2
271
     2
272
     2
273
     2
274
     3
340
11
275
     0
280
     0
281
     0
282
     0
283
     0
284
     8
285
     0
286
     0
287
     3
288
     0
  0
ENDTAB
  0
TABLE
  2
BLOCK_RECORD
  5
1
330
0
100
AcDbSymbolTable
 70
     1
  0
BLOCK_RECORD
  5
1F
330
1
100
AcDbSymbolTableRecord
100
AcDbBlockTableRecord
  2
*MODEL_SPACE
  0
BLOCK_RECORD
  5
1B
330
1
100
AcDbSymbolTableRecord
100
AcDbBlockTableRecord
  2
*PAPER_SPACE
  0
ENDTAB
  0
ENDSEC
  0
SECTION
  2
BLOCKS
  0
BLOCK
  5
20
330
1F
100
AcDbEntity
  8
0
100
AcDbBlockBegin
  2
*MODEL_SPACE
 70
     0
 10
0.0
 20
0.0
 30
0.0
  3
*MODEL_SPACE
  1

  0
ENDBLK
  5
21
330
1F
100
AcDbEntity
  8
0
100
AcDbBlockEnd
  0
BLOCK
  5
1C
330
1B
100
AcDbEntity
 67
     1
  8
0
100
AcDbBlockBegin
  2
*PAPER_SPACE
  1

  0
ENDBLK
  5
1D
330
1B
100
AcDbEntity
 67
     1
  8
0
100
AcDbBlockEnd
  0
ENDSEC
  0
SECTION
  2
ENTITIES
  0
SPLINE
  5
100
100
AcDbEntity
  8
0
 62
7
100
AcDbSpline
 70
8
 71
3
 72
8
 73
4
 74
0
 40
0
 40
0
 40
0
 40
0
 40
1
 40
1
 40
1
 40
1
 10
7.547289
 20
12.358329
 30
0.0
 10
7.591809
 20
12.316277
 30
0.0
 10
7.614069
 20
12.264330
 30
0.0
 10
7.614069
 20
12.202488
 30
0.0
  0
SPLINE
  5
101
100
AcDbEntity
  8
0
 62
7
100
AcDbSpline
 70
8
 71
3
 72
8
 73
4
 74
0
 40
0
 40
0
 40
0
 40
0
 40
1
 40
1
 40
1
 40
1
 10
7.614069
 20
12.202488
 30
0.0
 10
7.614069
 20
12.140647
 30
0.0
 10
7.591809
 20
12.087463
 30
0.0
 10
7.547289
 20
12.042937
 30
0.0
  0
SPLINE
  5
102
100
AcDbEntity
  8
0
 62
7
100
AcDbSpline
 70
8
 71
3
 72
8
 73
4
 74
0
 40
0
 40
0
 40
0
 40
0
 40
1
 40
1
 40
1
 40
1
 10
7.547289
 20
12.042937
 30
0.0
 10
7.502763
 20
12.000884
 30
0.0
 10
7.450816
 20
11.979858
 30
0.0
 10
7.391448
 20
11.979858
 30
0.0
  0
SPLINE
  5
103
100
AcDbEntity
  8
0
 62
7
100
AcDbSpline
 70
8
 71
3
 72
8
 73
4
 74
0
 40
0
 40
0
 40
0
 40
0
 40
1
 40
1
 40
1
 40
1
 10
6.864557
 20
11.015128
 30
0.0
 10
6.923927
 20
11.015128
 30
0.0
 10
6.975874
 20
10.992865
 30
0.0
 10
7.020398
 20
10.948338
 30
0.0
  0
SPLINE
  5
104
100
AcDbEntity
  8
0
 62
7
100
AcDbSpline
 70
8
 71
3
 72
8
 73
4
 74
0
 40
0
 40
0
 40
0
 40
0
 40
1
 40
1
 40
1
 40
1
 10
7.020398
 20
10.948338
 30
0.0
 10
7.064928
 20
10.906285
 30
0.0
 10
7.087192
 20
10.854338
 30
0.0
 10
7.087192
 20
10.792497
 30
0.0
  0
SPLINE
  5
105
100
AcDbEntity
  8
0
 62
7
100
AcDbSpline
 70
8
 71
3
 72
8
 73
4
 74
0
 40
0
 40
0
 40
0
 40
0
 40
1
 40
1
 40
1
 40
1
 10
7.087192
 20
10.792497
 30
0.0
 10
7.087192
 20
10.730657
 30
0.0
 10
7.064928
 20
10.677473
 30
0.0
 10
7.020398
 20
10.632945
 30
0.0
  0
SPLINE
  5
106
100
AcDbEntity
  8
0
 62
7
100
AcDbSpline
 70
8
 71
3
 72
8
 73
4
 74
0
 40
0
 40
0
 40
0
 40
0
 40
1
 40
1
 40
1
 40
1
 10
7.020398
 20
10.632945
 30
0.0
 10
6.975872
 20
10.590892
 30
0.0
 10
6.923925
 20
10.569865
 30
0.0
 10
6.864557
 20
10.569865
 30
0.0
  0
LWPOLYLINE
  5
107
100
AcDbEntity
  8
0
 62
7
100
AcDbPolyline
 90
4
 70
0
 10
7.391448
 20
11.979858
 30
0.0
 10
5.803354
 20
11.979858
 30
0.0
 10
5.803354
 20
11.015128
 30
0.0
 10
6.864557
 20
11.015128
 30
0.0
  0
SPLINE
  5
108
100
AcDbEntity
  8
0
 62
7
100
AcDbSpline
 70
8
 71
3
 72
8
 73
4
 74
0
 40
0
 40
0
 40
0
 40
0
 40
1
 40
1
 40
1
 40
1
 10
7.502763
 20
9.456714
 30
0.0
 10
7.562137
 20
9.456714
 30
0.0
 10
7.614084
 20
9.434451
 30
0.0
 10
7.658605
 20
9.389924
 30
0.0
  0
SPLINE
  5
109
100
AcDbEntity
  8
0
 62
7
100
AcDbSpline
 70
8
 71
3
 72
8
 73
4
 74
0
 40
0
 40
0
 40
0
 40
0
 40
1
 40
1
 40
1
 40
1
 10
7.658605
 20
9.389924
 30
0.0
 10
7.703132
 20
9.347871
 30
0.0
 10
7.725395
 20
9.295924
 30
0.0
 10
7.725395
 20
9.234083
 30
0.0
  0
SPLINE
  5
10a
100
AcDbEntity
  8
0
 62
7
100
AcDbSpline
 70
8
 71
3
 72
8
 73
4
 74
0
 40
0
 40
0
 40
0
 40
0
 40
1
 40
1
 40
1
 40
1
 10
7.725395
 20
9.234083
 30
0.0
 10
7.725395
 20
9.172243
 30
0.0
 10
7.703132
 20
9.120296
 30
0.0
 10
7.658605
 20
9.078242
 30
0.0
  0
SPLINE
  5
10b
100
AcDbEntity
  8
0
 62
7
100
AcDbSpline
 70
8
 71
3
 72
8
 73
4
 74
0
 40
0
 40
0
 40
0
 40
0
 40
1
 40
1
 40
1
 40
1
 10
7.658605
 20
9.078242
 30
0.0
 10
7.614079
 20
9.033715
 30
0.0
 10
7.562131
 20
9.011452
 30
0.0
 10
7.502763
 20
9.011452
 30
0.0
  0
LWPOLYLINE
  5
10c
100
AcDbEntity
  8
0
 62
7
100
AcDbPolyline
 90
4
 70
0
 10
6.864557
 20
10.569865
 30
0.0
 10
5.803354
 20
10.569865
 30
0.0
 10
5.803354
 20
9.456714
 30
0.0
 10
7.502763
 20
9.456714
 30
0.0
  0
SPLINE
  5
10d
100
AcDbEntity
  8
0
 62
7
100
AcDbSpline
 70
8
 71
3
 72
8
 73
4
 74
0
 40
0
 40
0
 40
0
 40
0
 40
1
 40
1
 40
1
 40
1
 10
5.580724
 20
9.011452
 30
0.0
 10
5.528779
 20
9.011452
 30
0.0
 10
5.478069
 20
9.032479
 30
0.0
 10
5.428594
 20
9.074532
 30
0.0
  0
SPLINE
  5
10e
100
AcDbEntity
  8
0
 62
7
100
AcDbSpline
 70
8
 71
3
 72
8
 73
4
 74
0
 40
0
 40
0
 40
0
 40
0
 40
1
 40
1
 40
1
 40
1
 10
5.428594
 20
9.074532
 30
0.0
 10
5.381595
 20
9.116585
 30
0.0
 10
5.358096
 20
9.169769
 30
0.0
 10
5.358096
 20
9.234084
 30
0.0
  0
LWPOLYLINE
  5
10f
100
AcDbEntity
  8
0
 62
7
100
AcDbPolyline
 90
2
 70
0
 10
7.502763
 20
9.011452
 30
0.0
 10
5.580724
 20
9.011452
 30
0.0
  0
SPLINE
  5
110
100
AcDbEntity
  8
0
 62
7
100
AcDbSpline
 70
8
 71
3
 72
8
 73
4
 74
0
 40
0
 40
0
 40
0
 40
0
 40
1
 40
1
 40
1
 40
1
 10
5.358096
 20
12.202487
 30
0.0
 10
5.358096
 20
12.254433
 30
0.0
 10
5.379122
 20
12.303906
 30
0.0
 10
5.421175
 20
12.350908
 30
0.0
  0
SPLINE
  5
111
100
AcDbEntity
  8
0
 62
7
100
AcDbSpline
 70
8
 71
3
 72
8
 73
4
 74
0
 40
0
 40
0
 40
0
 40
0
 40
1
 40
1
 40
1
 40
1
 10
5.421175
 20
12.350908
 30
0.0
 10
5.463228
 20
12.400380
 30
0.0
 10
5.516412
 20
12.425116
 30
0.0
 10
5.580727
 20
12.425116
 30
0.0
  0
LWPOLYLINE
  5
112
100
AcDbEntity
  8
0
 62
7
100
AcDbPolyline
 90
2
 70
0
 10
5.358096
 20
9.234084
 30
0.0
 10
5.358096
 20
12.202487
 30
0.0
  0
SPLINE
  5
113
100
AcDbEntity
  8
0
 62
7
100
AcDbSpline
 70
8
 71
3
 72
8
 73
4
 74
0
 40
0
 40
0
 40
0
 40
0
 40
1
 40
1
 40
1
 40
1
 10
7.391450
 20
12.425116
 30
0.0
 10
7.450824
 20
12.425116
 30
0.0
 10
7.502771
 20
12.402853
 30
0.0
 10
7.547292
 20
12.358327
 30
0.0
  0
LWPOLYLINE
  5
114
100
AcDbEntity
  8
0
 62
7
100
AcDbPolyline
 90
2
 70
0
 10
5.580727
 20
12.425116
 30
0.0
 10
7.391450
 20
12.425116
 30
0.0
  0
SPLINE
  5
115
100
AcDbEntity
  8
0
 62
7
100
AcDbSpline
 70
8
 71
3
 72
8
 73
4
 74
0
 40
0
 40
0
 40
0
 40
0
 40
1
 40
1
 40
1
 40
1
 10
8.276032
 20
9.011458
 30
0.0
 10
8.214192
 20
9.011458
 30
0.0
 10
8.161008
 20
9.033721
 30
0.0
 10
8.116480
 20
9.078248
 30
0.0
  0
SPLINE
  5
116
100
AcDbEntity
  8
0
 62
7
100
AcDbSpline
 70
8
 71
3
 72
8
 73
4
 74
0
 40
0
 40
0
 40
0
 40
0
 40
1
 40
1
 40
1
 40
1
 10
8.116480
 20
9.078248
 30
0.0
 10
8.074427
 20
9.120301
 30
0.0
 10
8.053400
 20
9.172248
 30
0.0
 10
8.053400
 20
9.234089
 30
0.0
  0
LWPOLYLINE
  5
117
100
AcDbEntity
  8
0
 62
7
100
AcDbPolyline
 90
1
 70
1
 10
7.547292
 20
12.358327
 30
0.0
  0
SPLINE
  5
118
100
AcDbEntity
  8
0
 62
7
100
AcDbSpline
 70
8
 71
3
 72
8
 73
4
 74
0
 40
0
 40
0
 40
0
 40
0
 40
1
 40
1
 40
1
 40
1
 10
8.053400
 20
12.202488
 30
0.0
 10
8.053400
 20
12.266804
 30
0.0
 10
8.076900
 20
12.319987
 30
0.0
 10
8.123900
 20
12.362040
 30
0.0
  0
SPLINE
  5
119
100
AcDbEntity
  8
0
 62
7
100
AcDbSpline
 70
8
 71
3
 72
8
 73
4
 74
0
 40
0
 40
0
 40
0
 40
0
 40
1
 40
1
 40
1
 40
1
 10
8.123900
 20
12.362040
 30
0.0
 10
8.173374
 20
12.404092
 30
0.0
 10
8.224084
 20
12.425119
 30
0.0
 10
8.276031
 20
12.425119
 30
0.0
  0
LWPOLYLINE
  5
11a
100
AcDbEntity
  8
0
 62
7
100
AcDbPolyline
 90
2
 70
0
 10
8.053400
 20
9.234089
 30
0.0
 10
8.053400
 20
12.202488
 30
0.0
  0
SPLINE
  5
11b
100
AcDbEntity
  8
0
 62
7
100
AcDbSpline
 70
8
 71
3
 72
8
 73
4
 74
0
 40
0
 40
0
 40
0
 40
0
 40
1
 40
1
 40
1
 40
1
 10
8.424461
 20
12.425119
 30
0.0
 10
8.464041
 20
12.425119
 30
0.0
 10
8.501146
 20
12.413987
 30
0.0
 10
8.535776
 20
12.391725
 30
0.0
  0
SPLINE
  5
11c
100
AcDbEntity
  8
0
 62
7
100
AcDbSpline
 70
8
 71
3
 72
8
 73
4
 74
0
 40
0
 40
0
 40
0
 40
0
 40
1
 40
1
 40
1
 40
1
 10
8.535776
 20
12.391725
 30
0.0
 10
8.572883
 20
12.369462
 30
0.0
 10
8.600093
 20
12.342253
 30
0.0
 10
8.617406
 20
12.310098
 30
0.0
  0
LWPOLYLINE
  5
11d
100
AcDbEntity
  8
0
 62
7
100
AcDbPolyline
 90
3
 70
0
 10
8.276031
 20
12.425119
 30
0.0
 10
8.335401
 20
12.425119
 30
0.0
 10
8.424461
 20
12.425119
 30
0.0
  0
SPLINE
  5
11e
100
AcDbEntity
  8
0
 62
7
100
AcDbSpline
 70
8
 71
3
 72
8
 73
4
 74
0
 40
0
 40
0
 40
0
 40
0
 40
1
 40
1
 40
1
 40
1
 10
9.938254
 20
12.209914
 30
0.0
 10
9.935721
 20
12.269283
 30
0.0
 10
9.956748
 20
12.321230
 30
0.0
 10
10.001334
 20
12.365754
 30
0.0
  0
SPLINE
  5
11f
100
AcDbEntity
  8
0
 62
7
100
AcDbSpline
 70
8
 71
3
 72
8
 73
4
 74
0
 40
0
 40
0
 40
0
 40
0
 40
1
 40
1
 40
1
 40
1
 10
10.001334
 20
12.365754
 30
0.0
 10
10.045868
 20
12.410281
 30
0.0
 10
10.097815
 20
12.432544
 30
0.0
 10
10.157175
 20
12.432543
 30
0.0
  0
SPLINE
  5
120
100
AcDbEntity
  8
0
 62
7
100
AcDbSpline
 70
8
 71
3
 72
8
 73
4
 74
0
 40
0
 40
0
 40
0
 40
0
 40
1
 40
1
 40
1
 40
1
 10
10.157175
 20
12.432543
 30
0.0
 10
10.219015
 20
12.432544
 30
0.0
 10
10.270962
 20
12.410281
 30
0.0
 10
10.313016
 20
12.365754
 30
0.0
  0
SPLINE
  5
121
100
AcDbEntity
  8
0
 62
7
100
AcDbSpline
 70
8
 71
3
 72
8
 73
4
 74
0
 40
0
 40
0
 40
0
 40
0
 40
1
 40
1
 40
1
 40
1
 10
10.313016
 20
12.365754
 30
0.0
 10
10.357543
 20
12.323702
 30
0.0
 10
10.381043
 20
12.271755
 30
0.0
 10
10.383516
 20
12.209914
 30
0.0
  0
LWPOLYLINE
  5
122
100
AcDbEntity
  8
0
 62
7
100
AcDbPolyline
 90
3
 70
0
 10
8.617406
 20
12.310098
 30
0.0
 10
9.942054
 20
9.879719
 30
0.0
 10
9.938254
 20
12.209914
 30
0.0
  0
SPLINE
  5
123
100
AcDbEntity
  8
0
 62
7
100
AcDbSpline
 70
8
 71
3
 72
8
 73
4
 74
0
 40
0
 40
0
 40
0
 40
0
 40
1
 40
1
 40
1
 40
1
 10
10.390916
 20
9.234092
 30
0.0
 10
10.390916
 20
9.182145
 30
0.0
 10
10.368653
 20
9.132672
 30
0.0
 10
10.324126
 20
9.085672
 30
0.0
  0
SPLINE
  5
124
100
AcDbEntity
  8
0
 62
7
100
AcDbSpline
 70
8
 71
3
 72
8
 73
4
 74
0
 40
0
 40
0
 40
0
 40
0
 40
1
 40
1
 40
1
 40
1
 10
10.324126
 20
9.085672
 30
0.0
 10
10.282073
 20
9.036199
 30
0.0
 10
10.230126
 20
9.011462
 30
0.0
 10
10.168285
 20
9.011462
 30
0.0
  0
LWPOLYLINE
  5
125
100
AcDbEntity
  8
0
 62
7
100
AcDbPolyline
 90
2
 70
0
 10
10.383516
 20
12.209914
 30
0.0
 10
10.390916
 20
9.234092
 30
0.0
  0
SPLINE
  5
126
100
AcDbEntity
  8
0
 62
7
100
AcDbSpline
 70
8
 71
3
 72
8
 73
4
 74
0
 40
0
 40
0
 40
0
 40
0
 40
1
 40
1
 40
1
 40
1
 10
10.042125
 20
9.011462
 30
0.0
 10
10.002545
 20
9.011462
 30
0.0
 10
9.964204
 20
9.022592
 30
0.0
 10
9.927101
 20
9.044852
 30
0.0
  0
SPLINE
  5
127
100
AcDbEntity
  8
0
 62
7
100
AcDbSpline
 70
8
 71
3
 72
8
 73
4
 74
0
 40
0
 40
0
 40
0
 40
0
 40
1
 40
1
 40
1
 40
1
 10
9.927101
 20
9.044852
 30
0.0
 10
9.892468
 20
9.064639
 30
0.0
 10
9.865258
 20
9.091852
 30
0.0
 10
9.845471
 20
9.126492
 30
0.0
  0
LWPOLYLINE
  5
128
100
AcDbEntity
  8
0
 62
7
100
AcDbPolyline
 90
3
 70
0
 10
10.168285
 20
9.011462
 30
0.0
 10
10.112625
 20
9.011462
 30
0.0
 10
10.042125
 20
9.011462
 30
0.0
  0
SPLINE
  5
129
100
AcDbEntity
  8
0
 62
7
100
AcDbSpline
 70
8
 71
3
 72
8
 73
4
 74
0
 40
0
 40
0
 40
0
 40
0
 40
1
 40
1
 40
1
 40
1
 10
8.498522
 20
9.234098
 30
0.0
 10
8.498522
 20
9.172258
 30
0.0
 10
8.476262
 20
9.120311
 30
0.0
 10
8.431742
 20
9.078257
 30
0.0
  0
SPLINE
  5
12a
100
AcDbEntity
  8
0
 62
7
100
AcDbSpline
 70
8
 71
3
 72
8
 73
4
 74
0
 40
0
 40
0
 40
0
 40
0
 40
1
 40
1
 40
1
 40
1
 10
8.431742
 20
9.078257
 30
0.0
 10
8.389689
 20
9.033730
 30
0.0
 10
8.337742
 20
9.011467
 30
0.0
 10
8.275900
 20
9.011467
 30
0.0
  0
LWPOLYLINE
  5
12b
100
AcDbEntity
  8
0
 62
7
100
AcDbPolyline
 90
3
 70
0
 10
9.845471
 20
9.126492
 30
0.0
 10
8.498522
 20
11.597688
 30
0.0
 10
8.498522
 20
9.234098
 30
0.0
  0
SPLINE
  5
12c
100
AcDbEntity
  8
0
 62
7
100
AcDbSpline
 70
8
 71
3
 72
8
 73
4
 74
0
 40
0
 40
0
 40
0
 40
0
 40
1
 40
1
 40
1
 40
1
 10
10.782106
 20
12.042937
 30
0.0
 10
10.740053
 20
12.087463
 30
0.0
 10
10.719026
 20
12.140647
 30
0.0
 10
10.719026
 20
12.202488
 30
0.0
  0
SPLINE
  5
12d
100
AcDbEntity
  8
0
 62
7
100
AcDbSpline
 70
8
 71
3
 72
8
 73
4
 74
0
 40
0
 40
0
 40
0
 40
0
 40
1
 40
1
 40
1
 40
1
 10
10.719026
 20
12.202488
 30
0.0
 10
10.719026
 20
12.264330
 30
0.0
 10
10.740053
 20
12.316277
 30
0.0
 10
10.782106
 20
12.358329
 30
0.0
  0
SPLINE
  5
12e
100
AcDbEntity
  8
0
 62
7
100
AcDbSpline
 70
8
 71
3
 72
8
 73
4
 74
0
 40
0
 40
0
 40
0
 40
0
 40
1
 40
1
 40
1
 40
1
 10
10.782106
 20
12.358329
 30
0.0
 10
10.826633
 20
12.402855
 30
0.0
 10
10.879817
 20
12.425118
 30
0.0
 10
10.941658
 20
12.425118
 30
0.0
  0
LWPOLYLINE
  5
12f
100
AcDbEntity
  8
0
 62
7
100
AcDbPolyline
 90
2
 70
0
 10
8.275900
 20
9.011467
 30
0.0
 10
8.276032
 20
9.011458
 30
0.0
  0
SPLINE
  5
130
100
AcDbEntity
  8
0
 62
7
100
AcDbSpline
 70
8
 71
3
 72
8
 73
4
 74
0
 40
0
 40
0
 40
0
 40
0
 40
1
 40
1
 40
1
 40
1
 10
13.145696
 20
12.425118
 30
0.0
 10
13.205063
 20
12.425118
 30
0.0
 10
13.257009
 20
12.402855
 30
0.0
 10
13.301536
 20
12.358329
 30
0.0
  0
SPLINE
  5
131
100
AcDbEntity
  8
0
 62
7
100
AcDbSpline
 70
8
 71
3
 72
8
 73
4
 74
0
 40
0
 40
0
 40
0
 40
0
 40
1
 40
1
 40
1
 40
1
 10
13.301536
 20
12.358329
 30
0.0
 10
13.346056
 20
12.316277
 30
0.0
 10
13.368316
 20
12.264330
 30
0.0
 10
13.368316
 20
12.202488
 30
0.0
  0
SPLINE
  5
132
100
AcDbEntity
  8
0
 62
7
100
AcDbSpline
 70
8
 71
3
 72
8
 73
4
 74
0
 40
0
 40
0
 40
0
 40
0
 40
1
 40
1
 40
1
 40
1
 10
13.368316
 20
12.202488
 30
0.0
 10
13.368316
 20
12.140647
 30
0.0
 10
13.346056
 20
12.087463
 30
0.0
 10
13.301536
 20
12.042937
 30
0.0
  0
SPLINE
  5
133
100
AcDbEntity
  8
0
 62
7
100
AcDbSpline
 70
8
 71
3
 72
8
 73
4
 74
0
 40
0
 40
0
 40
0
 40
0
 40
1
 40
1
 40
1
 40
1
 10
13.301536
 20
12.042937
 30
0.0
 10
13.257016
 20
12.000884
 30
0.0
 10
13.205069
 20
11.979858
 30
0.0
 10
13.145696
 20
11.979858
 30
0.0
  0
LWPOLYLINE
  5
134
100
AcDbEntity
  8
0
 62
7
100
AcDbPolyline
 90
2
 70
0
 10
10.941658
 20
12.425118
 30
0.0
 10
13.145696
 20
12.425118
 30
0.0
  0
SPLINE
  5
135
100
AcDbEntity
  8
0
 62
7
100
AcDbSpline
 70
8
 71
3
 72
8
 73
4
 74
0
 40
0
 40
0
 40
0
 40
0
 40
1
 40
1
 40
1
 40
1
 10
12.270017
 20
9.234087
 30
0.0
 10
12.270017
 20
9.172247
 30
0.0
 10
12.247754
 20
9.120300
 30
0.0
 10
12.203227
 20
9.078246
 30
0.0
  0
SPLINE
  5
136
100
AcDbEntity
  8
0
 62
7
100
AcDbSpline
 70
8
 71
3
 72
8
 73
4
 74
0
 40
0
 40
0
 40
0
 40
0
 40
1
 40
1
 40
1
 40
1
 10
12.203227
 20
9.078246
 30
0.0
 10
12.158707
 20
9.033719
 30
0.0
 10
12.105523
 20
9.011456
 30
0.0
 10
12.043676
 20
9.011456
 30
0.0
  0
SPLINE
  5
137
100
AcDbEntity
  8
0
 62
7
100
AcDbSpline
 70
8
 71
3
 72
8
 73
4
 74
0
 40
0
 40
0
 40
0
 40
0
 40
1
 40
1
 40
1
 40
1
 10
12.043676
 20
9.011456
 30
0.0
 10
11.984303
 20
9.011456
 30
0.0
 10
11.932356
 20
9.033719
 30
0.0
 10
11.887835
 20
9.078246
 30
0.0
  0
SPLINE
  5
138
100
AcDbEntity
  8
0
 62
7
100
AcDbSpline
 70
8
 71
3
 72
8
 73
4
 74
0
 40
0
 40
0
 40
0
 40
0
 40
1
 40
1
 40
1
 40
1
 10
11.887835
 20
9.078246
 30
0.0
 10
11.845782
 20
9.120299
 30
0.0
 10
11.824755
 20
9.172246
 30
0.0
 10
11.824755
 20
9.234087
 30
0.0
  0
LWPOLYLINE
  5
139
100
AcDbEntity
  8
0
 62
7
100
AcDbPolyline
 90
3
 70
0
 10
13.145696
 20
11.979858
 30
0.0
 10
12.270017
 20
11.979858
 30
0.0
 10
12.270017
 20
9.234087
 30
0.0
  0
SPLINE
  5
13a
100
AcDbEntity
  8
0
 62
7
100
AcDbSpline
 70
8
 71
3
 72
8
 73
4
 74
0
 40
0
 40
0
 40
0
 40
0
 40
1
 40
1
 40
1
 40
1
 10
10.941656
 20
11.979858
 30
0.0
 10
10.879816
 20
11.979858
 30
0.0
 10
10.826632
 20
12.000885
 30
0.0
 10
10.782104
 20
12.042937
 30
0.0
  0
LWPOLYLINE
  5
13b
100
AcDbEntity
  8
0
 62
7
100
AcDbPolyline
 90
3
 70
0
 10
11.824755
 20
9.234087
 30
0.0
 10
11.824755
 20
11.979858
 30
0.0
 10
10.941656
 20
11.979858
 30
0.0
  0
LWPOLYLINE
  5
13c
100
AcDbEntity
  8
0
 62
7
100
AcDbPolyline
 90
1
 70
1
 10
10.782104
 20
12.042937
 30
0.0
  0
SPLINE
  5
13d
100
AcDbEntity
  8
0
 62
7
100
AcDbSpline
 70
8
 71
3
 72
8
 73
4
 74
0
 40
0
 40
0
 40
0
 40
0
 40
1
 40
1
 40
1
 40
1
 10
15.054377
 20
11.007708
 30
0.0
 10
15.195376
 20
11.007708
 30
0.0
 10
15.327718
 20
11.057181
 30
0.0
 10
15.451401
 20
11.156127
 30
0.0
  0
SPLINE
  5
13e
100
AcDbEntity
  8
0
 62
7
100
AcDbSpline
 70
8
 71
3
 72
8
 73
4
 74
0
 40
0
 40
0
 40
0
 40
0
 40
1
 40
1
 40
1
 40
1
 10
15.451401
 20
11.156127
 30
0.0
 10
15.577558
 20
11.255074
 30
0.0
 10
15.640636
 20
11.366389
 30
0.0
 10
15.640636
 20
11.490072
 30
0.0
  0
SPLINE
  5
13f
100
AcDbEntity
  8
0
 62
7
100
AcDbSpline
 70
8
 71
3
 72
8
 73
4
 74
0
 40
0
 40
0
 40
0
 40
0
 40
1
 40
1
 40
1
 40
1
 10
15.640636
 20
11.490072
 30
0.0
 10
15.640636
 20
11.633545
 30
0.0
 10
15.588689
 20
11.751044
 30
0.0
 10
15.484796
 20
11.842570
 30
0.0
  0
SPLINE
  5
140
100
AcDbEntity
  8
0
 62
7
100
AcDbSpline
 70
8
 71
3
 72
8
 73
4
 74
0
 40
0
 40
0
 40
0
 40
0
 40
1
 40
1
 40
1
 40
1
 10
15.484796
 20
11.842570
 30
0.0
 10
15.380901
 20
11.934096
 30
0.0
 10
15.237428
 20
11.979859
 30
0.0
 10
15.054377
 20
11.979859
 30
0.0
  0
LWPOLYLINE
  5
141
100
AcDbEntity
  8
0
 62
7
100
AcDbPolyline
 90
2
 70
0
 10
14.141594
 20
11.007708
 30
0.0
 10
15.054377
 20
11.007708
 30
0.0
  0
LWPOLYLINE
  5
142
100
AcDbEntity
  8
0
 62
7
100
AcDbPolyline
 90
3
 70
0
 10
15.054377
 20
11.979859
 30
0.0
 10
14.141594
 20
11.979859
 30
0.0
 10
14.141594
 20
11.007708
 30
0.0
  0
SPLINE
  5
143
100
AcDbEntity
  8
0
 62
7
100
AcDbSpline
 70
8
 71
3
 72
8
 73
4
 74
0
 40
0
 40
0
 40
0
 40
0
 40
1
 40
1
 40
1
 40
1
 10
14.141594
 20
9.234088
 30
0.0
 10
14.141594
 20
9.172248
 30
0.0
 10
14.119334
 20
9.120301
 30
0.0
 10
14.074814
 20
9.078247
 30
0.0
  0
SPLINE
  5
144
100
AcDbEntity
  8
0
 62
7
100
AcDbSpline
 70
8
 71
3
 72
8
 73
4
 74
0
 40
0
 40
0
 40
0
 40
0
 40
1
 40
1
 40
1
 40
1
 10
14.074814
 20
9.078247
 30
0.0
 10
14.032761
 20
9.033720
 30
0.0
 10
13.980813
 20
9.011457
 30
0.0
 10
13.918972
 20
9.011457
 30
0.0
  0
SPLINE
  5
145
100
AcDbEntity
  8
0
 62
7
100
AcDbSpline
 70
8
 71
3
 72
8
 73
4
 74
0
 40
0
 40
0
 40
0
 40
0
 40
1
 40
1
 40
1
 40
1
 10
13.918972
 20
9.011457
 30
0.0
 10
13.857132
 20
9.011457
 30
0.0
 10
13.803948
 20
9.033720
 30
0.0
 10
13.759421
 20
9.078247
 30
0.0
  0
SPLINE
  5
146
100
AcDbEntity
  8
0
 62
7
100
AcDbSpline
 70
8
 71
3
 72
8
 73
4
 74
0
 40
0
 40
0
 40
0
 40
0
 40
1
 40
1
 40
1
 40
1
 10
13.759421
 20
9.078247
 30
0.0
 10
13.717368
 20
9.120300
 30
0.0
 10
13.696341
 20
9.172247
 30
0.0
 10
13.696341
 20
9.234088
 30
0.0
  0
LWPOLYLINE
  5
147
100
AcDbEntity
  8
0
 62
7
100
AcDbPolyline
 90
2
 70
0
 10
14.141594
 20
10.562447
 30
0.0
 10
14.141594
 20
9.234088
 30
0.0
  0
SPLINE
  5
148
100
AcDbEntity
  8
0
 62
7
100
AcDbSpline
 70
8
 71
3
 72
8
 73
4
 74
0
 40
0
 40
0
 40
0
 40
0
 40
1
 40
1
 40
1
 40
1
 10
13.696341
 20
12.202488
 30
0.0
 10
13.696341
 20
12.266804
 30
0.0
 10
13.719841
 20
12.319987
 30
0.0
 10
13.766841
 20
12.362040
 30
0.0
  0
SPLINE
  5
149
100
AcDbEntity
  8
0
 62
7
100
AcDbSpline
 70
8
 71
3
 72
8
 73
4
 74
0
 40
0
 40
0
 40
0
 40
0
 40
1
 40
1
 40
1
 40
1
 10
13.766841
 20
12.362040
 30
0.0
 10
13.816314
 20
12.404092
 30
0.0
 10
13.867025
 20
12.425119
 30
0.0
 10
13.918972
 20
12.425119
 30
0.0
  0
LWPOLYLINE
  5
14a
100
AcDbEntity
  8
0
 62
7
100
AcDbPolyline
 90
3
 70
0
 10
13.696341
 20
9.234088
 30
0.0
 10
13.696341
 20
10.785077
 30
0.0
 10
13.696341
 20
12.202488
 30
0.0
  0
SPLINE
  5
14b
100
AcDbEntity
  8
0
 62
7
100
AcDbSpline
 70
8
 71
3
 72
8
 73
4
 74
0
 40
0
 40
0
 40
0
 40
0
 40
1
 40
1
 40
1
 40
1
 10
15.054384
 20
12.425119
 30
0.0
 10
15.343803
 20
12.425119
 30
0.0
 10
15.587460
 20
12.337304
 30
0.0
 10
15.785353
 20
12.161674
 30
0.0
  0
SPLINE
  5
14c
100
AcDbEntity
  8
0
 62
7
100
AcDbSpline
 70
8
 71
3
 72
8
 73
4
 74
0
 40
0
 40
0
 40
0
 40
0
 40
1
 40
1
 40
1
 40
1
 10
15.785353
 20
12.161674
 30
0.0
 10
15.985721
 20
11.988517
 30
0.0
 10
16.085905
 20
11.764650
 30
0.0
 10
16.085905
 20
11.490073
 30
0.0
  0
SPLINE
  5
14d
100
AcDbEntity
  8
0
 62
7
100
AcDbSpline
 70
8
 71
3
 72
8
 73
4
 74
0
 40
0
 40
0
 40
0
 40
0
 40
1
 40
1
 40
1
 40
1
 10
16.085905
 20
11.490073
 30
0.0
 10
16.085905
 20
11.287232
 30
0.0
 10
16.022826
 20
11.111602
 30
0.0
 10
15.896669
 20
10.963182
 30
0.0
  0
SPLINE
  5
14e
100
AcDbEntity
  8
0
 62
7
100
AcDbSpline
 70
8
 71
3
 72
8
 73
4
 74
0
 40
0
 40
0
 40
0
 40
0
 40
1
 40
1
 40
1
 40
1
 10
15.896669
 20
10.963182
 30
0.0
 10
15.772986
 20
10.814762
 30
0.0
 10
15.619618
 20
10.705921
 30
0.0
 10
15.436567
 20
10.636658
 30
0.0
  0
LWPOLYLINE
  5
14f
100
AcDbEntity
  8
0
 62
7
100
AcDbPolyline
 90
2
 70
0
 10
13.918972
 20
12.425119
 30
0.0
 10
15.054384
 20
12.425119
 30
0.0
  0
SPLINE
  5
150
100
AcDbEntity
  8
0
 62
7
100
AcDbSpline
 70
8
 71
3
 72
8
 73
4
 74
0
 40
0
 40
0
 40
0
 40
0
 40
1
 40
1
 40
1
 40
1
 10
16.041378
 20
9.326851
 30
0.0
 10
16.053745
 20
9.299644
 30
0.0
 10
16.059928
 20
9.268724
 30
0.0
 10
16.059928
 20
9.234091
 30
0.0
  0
SPLINE
  5
151
100
AcDbEntity
  8
0
 62
7
100
AcDbSpline
 70
8
 71
3
 72
8
 73
4
 74
0
 40
0
 40
0
 40
0
 40
0
 40
1
 40
1
 40
1
 40
1
 10
16.059928
 20
9.234091
 30
0.0
 10
16.059928
 20
9.192038
 30
0.0
 10
16.048798
 20
9.152459
 30
0.0
 10
16.026538
 20
9.115354
 30
0.0
  0
SPLINE
  5
152
100
AcDbEntity
  8
0
 62
7
100
AcDbSpline
 70
8
 71
3
 72
8
 73
4
 74
0
 40
0
 40
0
 40
0
 40
0
 40
1
 40
1
 40
1
 40
1
 10
16.026538
 20
9.115354
 30
0.0
 10
16.004278
 20
9.078247
 30
0.0
 10
15.973358
 20
9.051037
 30
0.0
 10
15.933778
 20
9.033724
 30
0.0
  0
SPLINE
  5
153
100
AcDbEntity
  8
0
 62
7
100
AcDbSpline
 70
8
 71
3
 72
8
 73
4
 74
0
 40
0
 40
0
 40
0
 40
0
 40
1
 40
1
 40
1
 40
1
 10
15.933778
 20
9.033724
 30
0.0
 10
15.904098
 20
9.018877
 30
0.0
 10
15.873178
 20
9.011454
 30
0.0
 10
15.841018
 20
9.011454
 30
0.0
  0
SPLINE
  5
154
100
AcDbEntity
  8
0
 62
7
100
AcDbSpline
 70
8
 71
3
 72
8
 73
4
 74
0
 40
0
 40
0
 40
0
 40
0
 40
1
 40
1
 40
1
 40
1
 10
15.841018
 20
9.011454
 30
0.0
 10
15.798965
 20
9.011454
 30
0.0
 10
15.759386
 20
9.023821
 30
0.0
 10
15.722282
 20
9.048554
 30
0.0
  0
SPLINE
  5
155
100
AcDbEntity
  8
0
 62
7
100
AcDbSpline
 70
8
 71
3
 72
8
 73
4
 74
0
 40
0
 40
0
 40
0
 40
0
 40
1
 40
1
 40
1
 40
1
 10
15.722282
 20
9.048554
 30
0.0
 10
15.685175
 20
9.070814
 30
0.0
 10
15.656725
 20
9.101734
 30
0.0
 10
15.636932
 20
9.141314
 30
0.0
  0
LWPOLYLINE
  5
156
100
AcDbEntity
  8
0
 62
7
100
AcDbPolyline
 90
2
 70
0
 10
15.436567
 20
10.636658
 30
0.0
 10
16.041378
 20
9.326851
 30
0.0
  0
LWPOLYLINE
  5
157
100
AcDbEntity
  8
0
 62
7
100
AcDbPolyline
 90
3
 70
0
 10
15.636932
 20
9.141314
 30
0.0
 10
14.976455
 20
10.562437
 30
0.0
 10
14.141594
 20
10.562447
 30
0.0
  0
ENDSEC
  0
SECTION
  2
OBJECTS
  0
DICTIONARY
  5
C
330
0
100
AcDbDictionary
  3
ACAD_GROUP
350
D
  3
ACAD_MLINESTYLE
350
17
  0
DICTIONARY
  5
D
330
C
100
AcDbDictionary
  0
DICTIONARY
  5
1A
330
C
100
AcDbDictionary
  0
DICTIONARY
  5
17
330
C
100
AcDbDictionary
  3
STANDARD
350
18
  0
DICTIONARY
  5
19
330
C
100
AcDbDictionary
  0
ENDSEC
  0
EOF
