  0
SECTION
  2
HEADER
  9
$ACADVER
  1
AC1014
  9
$HANDSEED
  5
FFFF
  9
$INSUNITS
 70
     4
  9
$MEASUREMENT
 70
     1
  0
ENDSEC
  0
SECTION
  2
TABLES
  0
TABLE
  2
VPORT
  5
8
330
0
100
AcDbSymbolTable
 70
     4
  0
VPORT
  5
2E
330
8
100
AcDbSymbolTableRecord
100
AcDbViewportTableRecord
  2
*ACTIVE
 70
     0
 10
0.0
 20
0.0
 11
1.0
 21
1.0
 12
210.0
 22
148.5
 13
0.0
 23
0.0
 14
10.0
 24
10.0
 15
10.0
 25
10.0
 16
0.0
 26
0.0
 36
1.0
 17
0.0
 27
0.0
 37
0.0
 40
341.0
 41
1.24
 42
50.0
 43
0.0
 44
0.0
 50
0.0
 51
0.0
 71
     0
 72
   100
 73
     1
 74
     3
 75
     0
 76
     0
 77
     0
 78
     0
  0
ENDTAB
  0
TABLE
  2
LTYPE
  5
5
330
0
100
AcDbSymbolTable
 70
     1
  0
LTYPE
  5
14
330
5
100
AcDbSymbolTableRecord
100
AcDbLinetypeTableRecord
  2
BYBLOCK
 70
     0
  3

 72
    65
 73
     0
 40
0.0
  0
LTYPE
  5
15
330
5
100
AcDbSymbolTableRecord
100
AcDbLinetypeTableRecord
  2
BYLAYER
 70
     0
  3

 72
    65
 73
     0
 40
0.0
  0
LTYPE
  5
16
330
5
100
AcDbSymbolTableRecord
100
AcDbLinetypeTableRecord
  2
CONTINUOUS
 70
     0
  3
Solid line
 72
    65
 73
     0
 40
0.0
  0
ENDTAB
  0
TABLE
  2
LAYER
  5
2
100
AcDbSymbolTable
 70
1
  0
LAYER
  5
50
100
AcDbSymbolTableRecord
100
AcDbLayerTableRecord
  2
0
 70
0
  6
CONTINUOUS
  0
ENDTAB
  0
TABLE
  2
STYLE
  5
3
330
0
100
AcDbSymbolTable
 70
     1
  0
STYLE
  5
11
330
3
100
AcDbSymbolTableRecord
100
AcDbTextStyleTableRecord
  2
STANDARD
 70
     0
 40
0.0
 41
1.0
 50
0.0
 71
     0
 42
2.5
  3
txt
  4

  0
ENDTAB
  0
TABLE
  2
VIEW
  5
6
330
0
100
AcDbSymbolTable
 70
     0
  0
ENDTAB
  0
TABLE
  2
UCS
  5
7
330
0
100
AcDbSymbolTable
 70
     0
  0
ENDTAB
  0
TABLE
  2
APPID
  5
9
330
0
100
AcDbSymbolTable
 70
     2
  0
APPID
  5
12
330
9
100
AcDbSymbolTableRecord
100
AcDbRegAppTableRecord
  2
ACAD
 70
     0
  0
ENDTAB
  0
TABLE
  2
DIMSTYLE
  5
A
330
0
100
AcDbSymbolTable
 70
     1
  0
DIMSTYLE
105
27
330
A
100
AcDbSymbolTableRecord
100
AcDbDimStyleTableRecord
  2
ISO-25
 70
     0
  3

  4

  5

  6

  7

 40
1.0
 41
2.5
 42
0.625
 43
3.75
 44
1.25
 45
0.0
 46
0.0
 47
0.0
 48
0.0
140
2.5
141
2.5
142
0.0
143
0.03937007874016
144
1.0
145
0.0
146
1.0
147
0.625
 71
     0
 72
     0
 73
     0
 74
     0
 75
     0
 76
     0
 77
     1
 78
     8
170
     0
171
     3
172
     1
173
     0
174
     0
175
     0
176
     0
177
     0
178
     0
270
     2
271
     2
272
     2
273
     2
274
     3
340
11
275
     0
280
     0
281
     0
282
     0
283
     0
284
     8
285
     0
286
     0
287
     3
288
     0
  0
ENDTAB
  0
TABLE
  2
BLOCK_RECORD
  5
1
330
0
100
AcDbSymbolTable
 70
     1
  0
BLOCK_RECORD
  5
1F
330
1
100
AcDbSymbolTableRecord
100
AcDbBlockTableRecord
  2
*MODEL_SPACE
  0
BLOCK_RECORD
  5
1B
330
1
100
AcDbSymbolTableRecord
100
AcDbBlockTableRecord
  2
*PAPER_SPACE
  0
ENDTAB
  0
ENDSEC
  0
SECTION
  2
BLOCKS
  0
BLOCK
  5
20
330
1F
100
AcDbEntity
  8
0
100
AcDbBlockBegin
  2
*MODEL_SPACE
 70
     0
 10
0.0
 20
0.0
 30
0.0
  3
*MODEL_SPACE
  1

  0
ENDBLK
  5
21
330
1F
100
AcDbEntity
  8
0
100
AcDbBlockEnd
  0
BLOCK
  5
1C
330
1B
100
AcDbEntity
 67
     1
  8
0
100
AcDbBlockBegin
  2
*PAPER_SPACE
  1

  0
ENDBLK
  5
1D
330
1B
100
AcDbEntity
 67
     1
  8
0
100
AcDbBlockEnd
  0
ENDSEC
  0
SECTION
  2
ENTITIES
  0
SPLINE
  5
100
100
AcDbEntity
  8
0
 62
7
100
AcDbSpline
 70
8
 71
3
 72
8
 73
4
 74
0
 40
0
 40
0
 40
0
 40
0
 40
1
 40
1
 40
1
 40
1
 10
6.886758
 20
14.659698
 30
0.0
 10
6.931284
 20
14.704223
 30
0.0
 10
6.983231
 20
14.726486
 30
0.0
 10
7.042600
 20
14.726486
 30
0.0
  0
SPLINE
  5
101
100
AcDbEntity
  8
0
 62
7
100
AcDbSpline
 70
8
 71
3
 72
8
 73
4
 74
0
 40
0
 40
0
 40
0
 40
0
 40
1
 40
1
 40
1
 40
1
 10
7.042600
 20
14.726486
 30
0.0
 10
7.104441
 20
14.726486
 30
0.0
 10
7.156389
 20
14.704223
 30
0.0
 10
7.198442
 20
14.659698
 30
0.0
  0
SPLINE
  5
102
100
AcDbEntity
  8
0
 62
7
100
AcDbSpline
 70
8
 71
3
 72
8
 73
4
 74
0
 40
0
 40
0
 40
0
 40
0
 40
1
 40
1
 40
1
 40
1
 10
7.198442
 20
14.659698
 30
0.0
 10
7.242967
 20
14.617645
 30
0.0
 10
7.265230
 20
14.565697
 30
0.0
 10
7.265230
 20
14.503856
 30
0.0
  0
SPLINE
  5
103
100
AcDbEntity
  8
0
 62
7
100
AcDbSpline
 70
8
 71
3
 72
8
 73
4
 74
0
 40
0
 40
0
 40
0
 40
0
 40
1
 40
1
 40
1
 40
1
 10
8.723461
 20
14.655987
 30
0.0
 10
8.765513
 20
14.702985
 30
0.0
 10
8.818697
 20
14.726484
 30
0.0
 10
8.883012
 20
14.726484
 30
0.0
  0
SPLINE
  5
104
100
AcDbEntity
  8
0
 62
7
100
AcDbSpline
 70
8
 71
3
 72
8
 73
4
 74
0
 40
0
 40
0
 40
0
 40
0
 40
1
 40
1
 40
1
 40
1
 10
8.883012
 20
14.726484
 30
0.0
 10
8.942380
 20
14.726484
 30
0.0
 10
8.993091
 20
14.705458
 30
0.0
 10
9.035143
 20
14.663405
 30
0.0
  0
SPLINE
  5
105
100
AcDbEntity
  8
0
 62
7
100
AcDbSpline
 70
8
 71
3
 72
8
 73
4
 74
0
 40
0
 40
0
 40
0
 40
0
 40
1
 40
1
 40
1
 40
1
 10
9.035143
 20
14.663405
 30
0.0
 10
9.082141
 20
14.621352
 30
0.0
 10
9.105640
 20
14.568168
 30
0.0
 10
9.105640
 20
14.503853
 30
0.0
  0
SPLINE
  5
106
100
AcDbEntity
  8
0
 62
7
100
AcDbSpline
 70
8
 71
3
 72
8
 73
4
 74
0
 40
0
 40
0
 40
0
 40
0
 40
1
 40
1
 40
1
 40
1
 10
9.105640
 20
14.503853
 30
0.0
 10
9.105640
 20
14.444485
 30
0.0
 10
9.084614
 20
14.393775
 30
0.0
 10
9.042561
 20
14.351723
 30
0.0
  0
LWPOLYLINE
  5
107
100
AcDbEntity
  8
0
 62
7
100
AcDbPolyline
 90
3
 70
0
 10
7.265230
 20
14.503856
 30
0.0
 10
7.265230
 20
13.138389
 30
0.0
 10
8.723461
 20
14.655987
 30
0.0
  0
SPLINE
  5
108
100
AcDbEntity
  8
0
 62
7
100
AcDbSpline
 70
8
 71
3
 72
8
 73
4
 74
0
 40
0
 40
0
 40
0
 40
0
 40
1
 40
1
 40
1
 40
1
 10
9.098219
 20
11.661604
 30
0.0
 10
9.122957
 20
11.624497
 30
0.0
 10
9.135326
 20
11.582444
 30
0.0
 10
9.135326
 20
11.535446
 30
0.0
  0
SPLINE
  5
109
100
AcDbEntity
  8
0
 62
7
100
AcDbSpline
 70
8
 71
3
 72
8
 73
4
 74
0
 40
0
 40
0
 40
0
 40
0
 40
1
 40
1
 40
1
 40
1
 10
9.135326
 20
11.535446
 30
0.0
 10
9.135326
 20
11.456289
 30
0.0
 10
9.103169
 20
11.394447
 30
0.0
 10
9.038854
 20
11.349921
 30
0.0
  0
SPLINE
  5
10a
100
AcDbEntity
  8
0
 62
7
100
AcDbSpline
 70
8
 71
3
 72
8
 73
4
 74
0
 40
0
 40
0
 40
0
 40
0
 40
1
 40
1
 40
1
 40
1
 10
9.038854
 20
11.349921
 30
0.0
 10
9.001746
 20
11.325183
 30
0.0
 10
8.959693
 20
11.312814
 30
0.0
 10
8.912696
 20
11.312814
 30
0.0
  0
SPLINE
  5
10b
100
AcDbEntity
  8
0
 62
7
100
AcDbSpline
 70
8
 71
3
 72
8
 73
4
 74
0
 40
0
 40
0
 40
0
 40
0
 40
1
 40
1
 40
1
 40
1
 10
8.912696
 20
11.312814
 30
0.0
 10
8.833538
 20
11.312814
 30
0.0
 10
8.771697
 20
11.344971
 30
0.0
 10
8.727170
 20
11.409287
 30
0.0
  0
LWPOLYLINE
  5
10c
100
AcDbEntity
  8
0
 62
7
100
AcDbPolyline
 90
3
 70
0
 10
9.042561
 20
14.351723
 30
0.0
 10
8.007330
 20
13.268254
 30
0.0
 10
9.098219
 20
11.661604
 30
0.0
  0
SPLINE
  5
10d
100
AcDbEntity
  8
0
 62
7
100
AcDbSpline
 70
8
 71
3
 72
8
 73
4
 74
0
 40
0
 40
0
 40
0
 40
0
 40
1
 40
1
 40
1
 40
1
 10
7.265230
 20
11.535444
 30
0.0
 10
7.265230
 20
11.473602
 30
0.0
 10
7.242967
 20
11.421655
 30
0.0
 10
7.198442
 20
11.379603
 30
0.0
  0
SPLINE
  5
10e
100
AcDbEntity
  8
0
 62
7
100
AcDbSpline
 70
8
 71
3
 72
8
 73
4
 74
0
 40
0
 40
0
 40
0
 40
0
 40
1
 40
1
 40
1
 40
1
 10
7.198442
 20
11.379603
 30
0.0
 10
7.156389
 20
11.335077
 30
0.0
 10
7.104441
 20
11.312814
 30
0.0
 10
7.042600
 20
11.312814
 30
0.0
  0
SPLINE
  5
10f
100
AcDbEntity
  8
0
 62
7
100
AcDbSpline
 70
8
 71
3
 72
8
 73
4
 74
0
 40
0
 40
0
 40
0
 40
0
 40
1
 40
1
 40
1
 40
1
 10
7.042600
 20
11.312814
 30
0.0
 10
6.983232
 20
11.312814
 30
0.0
 10
6.931285
 20
11.335077
 30
0.0
 10
6.886758
 20
11.379603
 30
0.0
  0
SPLINE
  5
110
100
AcDbEntity
  8
0
 62
7
100
AcDbSpline
 70
8
 71
3
 72
8
 73
4
 74
0
 40
0
 40
0
 40
0
 40
0
 40
1
 40
1
 40
1
 40
1
 10
6.886758
 20
11.379603
 30
0.0
 10
6.842233
 20
11.421656
 30
0.0
 10
6.819970
 20
11.473603
 30
0.0
 10
6.819970
 20
11.535444
 30
0.0
  0
LWPOLYLINE
  5
111
100
AcDbEntity
  8
0
 62
7
100
AcDbPolyline
 90
4
 70
0
 10
8.727170
 20
11.409287
 30
0.0
 10
7.691939
 20
12.938016
 30
0.0
 10
7.265230
 20
12.492755
 30
0.0
 10
7.265230
 20
11.535444
 30
0.0
  0
SPLINE
  5
112
100
AcDbEntity
  8
0
 62
7
100
AcDbSpline
 70
8
 71
3
 72
8
 73
4
 74
0
 40
0
 40
0
 40
0
 40
0
 40
1
 40
1
 40
1
 40
1
 10
6.819970
 20
14.503853
 30
0.0
 10
6.819970
 20
14.565695
 30
0.0
 10
6.842233
 20
14.617642
 30
0.0
 10
6.886758
 20
14.659695
 30
0.0
  0
LWPOLYLINE
  5
113
100
AcDbEntity
  8
0
 62
7
100
AcDbPolyline
 90
4
 70
0
 10
6.819970
 20
11.535444
 30
0.0
 10
6.819970
 20
12.563255
 30
0.0
 10
6.819970
 20
12.600363
 30
0.0
 10
6.819970
 20
14.503853
 30
0.0
  0
SPLINE
  5
114
100
AcDbEntity
  8
0
 62
7
100
AcDbSpline
 70
8
 71
3
 72
8
 73
4
 74
0
 40
0
 40
0
 40
0
 40
0
 40
1
 40
1
 40
1
 40
1
 10
11.651492
 20
14.659698
 30
0.0
 10
11.696018
 20
14.617645
 30
0.0
 10
11.718281
 20
14.565697
 30
0.0
 10
11.718281
 20
14.503856
 30
0.0
  0
SPLINE
  5
115
100
AcDbEntity
  8
0
 62
7
100
AcDbSpline
 70
8
 71
3
 72
8
 73
4
 74
0
 40
0
 40
0
 40
0
 40
0
 40
1
 40
1
 40
1
 40
1
 10
11.718281
 20
14.503856
 30
0.0
 10
11.718281
 20
14.442014
 30
0.0
 10
11.696018
 20
14.388830
 30
0.0
 10
11.651492
 20
14.344304
 30
0.0
  0
SPLINE
  5
116
100
AcDbEntity
  8
0
 62
7
100
AcDbSpline
 70
8
 71
3
 72
8
 73
4
 74
0
 40
0
 40
0
 40
0
 40
0
 40
1
 40
1
 40
1
 40
1
 10
11.651492
 20
14.344304
 30
0.0
 10
11.606967
 20
14.302251
 30
0.0
 10
11.555020
 20
14.281224
 30
0.0
 10
11.495651
 20
14.281224
 30
0.0
  0
LWPOLYLINE
  5
117
100
AcDbEntity
  8
0
 62
7
100
AcDbPolyline
 90
1
 70
1
 10
6.886758
 20
14.659695
 30
0.0
  0
SPLINE
  5
118
100
AcDbEntity
  8
0
 62
7
100
AcDbSpline
 70
8
 71
3
 72
8
 73
4
 74
0
 40
0
 40
0
 40
0
 40
0
 40
1
 40
1
 40
1
 40
1
 10
10.968758
 20
13.316493
 30
0.0
 10
11.028127
 20
13.316493
 30
0.0
 10
11.080074
 20
13.294230
 30
0.0
 10
11.124600
 20
13.249704
 30
0.0
  0
SPLINE
  5
119
100
AcDbEntity
  8
0
 62
7
100
AcDbSpline
 70
8
 71
3
 72
8
 73
4
 74
0
 40
0
 40
0
 40
0
 40
0
 40
1
 40
1
 40
1
 40
1
 10
11.124600
 20
13.249704
 30
0.0
 10
11.169126
 20
13.207651
 30
0.0
 10
11.191389
 20
13.155704
 30
0.0
 10
11.191389
 20
13.093863
 30
0.0
  0
SPLINE
  5
11a
100
AcDbEntity
  8
0
 62
7
100
AcDbSpline
 70
8
 71
3
 72
8
 73
4
 74
0
 40
0
 40
0
 40
0
 40
0
 40
1
 40
1
 40
1
 40
1
 10
11.191389
 20
13.093863
 30
0.0
 10
11.191389
 20
13.032021
 30
0.0
 10
11.169126
 20
12.978837
 30
0.0
 10
11.124600
 20
12.934311
 30
0.0
  0
SPLINE
  5
11b
100
AcDbEntity
  8
0
 62
7
100
AcDbSpline
 70
8
 71
3
 72
8
 73
4
 74
0
 40
0
 40
0
 40
0
 40
0
 40
1
 40
1
 40
1
 40
1
 10
11.124600
 20
12.934311
 30
0.0
 10
11.080075
 20
12.892258
 30
0.0
 10
11.028128
 20
12.871232
 30
0.0
 10
10.968758
 20
12.871232
 30
0.0
  0
LWPOLYLINE
  5
11c
100
AcDbEntity
  8
0
 62
7
100
AcDbPolyline
 90
4
 70
0
 10
11.495651
 20
14.281224
 30
0.0
 10
9.907553
 20
14.281224
 30
0.0
 10
9.907553
 20
13.316493
 30
0.0
 10
10.968758
 20
13.316493
 30
0.0
  0
SPLINE
  5
11d
100
AcDbEntity
  8
0
 62
7
100
AcDbSpline
 70
8
 71
3
 72
8
 73
4
 74
0
 40
0
 40
0
 40
0
 40
0
 40
1
 40
1
 40
1
 40
1
 10
11.606966
 20
11.758079
 30
0.0
 10
11.666334
 20
11.758079
 30
0.0
 10
11.718282
 20
11.735817
 30
0.0
 10
11.762807
 20
11.691291
 30
0.0
  0
SPLINE
  5
11e
100
AcDbEntity
  8
0
 62
7
100
AcDbSpline
 70
8
 71
3
 72
8
 73
4
 74
0
 40
0
 40
0
 40
0
 40
0
 40
1
 40
1
 40
1
 40
1
 10
11.762807
 20
11.691291
 30
0.0
 10
11.807333
 20
11.649238
 30
0.0
 10
11.829595
 20
11.597291
 30
0.0
 10
11.829595
 20
11.535450
 30
0.0
  0
SPLINE
  5
11f
100
AcDbEntity
  8
0
 62
7
100
AcDbSpline
 70
8
 71
3
 72
8
 73
4
 74
0
 40
0
 40
0
 40
0
 40
0
 40
1
 40
1
 40
1
 40
1
 10
11.829595
 20
11.535450
 30
0.0
 10
11.829595
 20
11.473608
 30
0.0
 10
11.807333
 20
11.421661
 30
0.0
 10
11.762807
 20
11.379609
 30
0.0
  0
SPLINE
  5
120
100
AcDbEntity
  8
0
 62
7
100
AcDbSpline
 70
8
 71
3
 72
8
 73
4
 74
0
 40
0
 40
0
 40
0
 40
0
 40
1
 40
1
 40
1
 40
1
 10
11.762807
 20
11.379609
 30
0.0
 10
11.718282
 20
11.335083
 30
0.0
 10
11.666334
 20
11.312821
 30
0.0
 10
11.606966
 20
11.312821
 30
0.0
  0
LWPOLYLINE
  5
121
100
AcDbEntity
  8
0
 62
7
100
AcDbPolyline
 90
4
 70
0
 10
10.968758
 20
12.871232
 30
0.0
 10
9.907553
 20
12.871232
 30
0.0
 10
9.907553
 20
11.758079
 30
0.0
 10
11.606966
 20
11.758079
 30
0.0
  0
SPLINE
  5
122
100
AcDbEntity
  8
0
 62
7
100
AcDbSpline
 70
8
 71
3
 72
8
 73
4
 74
0
 40
0
 40
0
 40
0
 40
0
 40
1
 40
1
 40
1
 40
1
 10
9.684923
 20
11.312821
 30
0.0
 10
9.632973
 20
11.312821
 30
0.0
 10
9.582263
 20
11.333847
 30
0.0
 10
9.532792
 20
11.375900
 30
0.0
  0
SPLINE
  5
123
100
AcDbEntity
  8
0
 62
7
100
AcDbSpline
 70
8
 71
3
 72
8
 73
4
 74
0
 40
0
 40
0
 40
0
 40
0
 40
1
 40
1
 40
1
 40
1
 10
9.532792
 20
11.375900
 30
0.0
 10
9.485794
 20
11.417953
 30
0.0
 10
9.462295
 20
11.471137
 30
0.0
 10
9.462295
 20
11.535452
 30
0.0
  0
LWPOLYLINE
  5
124
100
AcDbEntity
  8
0
 62
7
100
AcDbPolyline
 90
2
 70
0
 10
11.606966
 20
11.312821
 30
0.0
 10
9.684923
 20
11.312821
 30
0.0
  0
SPLINE
  5
125
100
AcDbEntity
  8
0
 62
7
100
AcDbSpline
 70
8
 71
3
 72
8
 73
4
 74
0
 40
0
 40
0
 40
0
 40
0
 40
1
 40
1
 40
1
 40
1
 10
9.462295
 20
14.503858
 30
0.0
 10
9.462295
 20
14.555808
 30
0.0
 10
9.483321
 20
14.605281
 30
0.0
 10
9.525374
 20
14.652279
 30
0.0
  0
SPLINE
  5
126
100
AcDbEntity
  8
0
 62
7
100
AcDbSpline
 70
8
 71
3
 72
8
 73
4
 74
0
 40
0
 40
0
 40
0
 40
0
 40
1
 40
1
 40
1
 40
1
 10
9.525374
 20
14.652279
 30
0.0
 10
9.567427
 20
14.701750
 30
0.0
 10
9.620611
 20
14.726485
 30
0.0
 10
9.684926
 20
14.726485
 30
0.0
  0
LWPOLYLINE
  5
127
100
AcDbEntity
  8
0
 62
7
100
AcDbPolyline
 90
2
 70
0
 10
9.462295
 20
11.535452
 30
0.0
 10
9.462295
 20
14.503858
 30
0.0
  0
SPLINE
  5
128
100
AcDbEntity
  8
0
 62
7
100
AcDbSpline
 70
8
 71
3
 72
8
 73
4
 74
0
 40
0
 40
0
 40
0
 40
0
 40
1
 40
1
 40
1
 40
1
 10
11.495655
 20
14.726485
 30
0.0
 10
11.555023
 20
14.726485
 30
0.0
 10
11.606970
 20
14.704222
 30
0.0
 10
11.651496
 20
14.659697
 30
0.0
  0
LWPOLYLINE
  5
129
100
AcDbEntity
  8
0
 62
7
100
AcDbPolyline
 90
2
 70
0
 10
9.684926
 20
14.726485
 30
0.0
 10
11.495655
 20
14.726485
 30
0.0
  0
SPLINE
  5
12a
100
AcDbEntity
  8
0
 62
7
100
AcDbSpline
 70
8
 71
3
 72
8
 73
4
 74
0
 40
0
 40
0
 40
0
 40
0
 40
1
 40
1
 40
1
 40
1
 10
12.249327
 20
14.685669
 30
0.0
 10
12.286434
 20
14.712880
 30
0.0
 10
12.328487
 20
14.726486
 30
0.0
 10
12.375484
 20
14.726486
 30
0.0
  0
SPLINE
  5
12b
100
AcDbEntity
  8
0
 62
7
100
AcDbSpline
 70
8
 71
3
 72
8
 73
4
 74
0
 40
0
 40
0
 40
0
 40
0
 40
1
 40
1
 40
1
 40
1
 10
12.375484
 20
14.726486
 30
0.0
 10
12.454641
 20
14.726486
 30
0.0
 10
12.515246
 20
14.694328
 30
0.0
 10
12.557299
 20
14.630013
 30
0.0
  0
LWPOLYLINE
  5
12c
100
AcDbEntity
  8
0
 62
7
100
AcDbPolyline
 90
1
 70
1
 10
11.651496
 20
14.659697
 30
0.0
  0
SPLINE
  5
12d
100
AcDbEntity
  8
0
 62
7
100
AcDbSpline
 70
8
 71
3
 72
8
 73
4
 74
0
 40
0
 40
0
 40
0
 40
0
 40
1
 40
1
 40
1
 40
1
 10
14.219606
 20
14.630013
 30
0.0
 10
14.264132
 20
14.694328
 30
0.0
 10
14.325974
 20
14.726486
 30
0.0
 10
14.405132
 20
14.726486
 30
0.0
  0
SPLINE
  5
12e
100
AcDbEntity
  8
0
 62
7
100
AcDbSpline
 70
8
 71
3
 72
8
 73
4
 74
0
 40
0
 40
0
 40
0
 40
0
 40
1
 40
1
 40
1
 40
1
 10
14.405132
 20
14.726486
 30
0.0
 10
14.449657
 20
14.726486
 30
0.0
 10
14.491710
 20
14.712880
 30
0.0
 10
14.531290
 20
14.685669
 30
0.0
  0
SPLINE
  5
12f
100
AcDbEntity
  8
0
 62
7
100
AcDbSpline
 70
8
 71
3
 72
8
 73
4
 74
0
 40
0
 40
0
 40
0
 40
0
 40
1
 40
1
 40
1
 40
1
 10
14.531290
 20
14.685669
 30
0.0
 10
14.593131
 20
14.643617
 30
0.0
 10
14.624052
 20
14.583011
 30
0.0
 10
14.624052
 20
14.503854
 30
0.0
  0
SPLINE
  5
130
100
AcDbEntity
  8
0
 62
7
100
AcDbSpline
 70
8
 71
3
 72
8
 73
4
 74
0
 40
0
 40
0
 40
0
 40
0
 40
1
 40
1
 40
1
 40
1
 10
14.624052
 20
14.503854
 30
0.0
 10
14.624052
 20
14.456856
 30
0.0
 10
14.611683
 20
14.414803
 30
0.0
 10
14.586945
 20
14.377697
 30
0.0
  0
LWPOLYLINE
  5
131
100
AcDbEntity
  8
0
 62
7
100
AcDbPolyline
 90
3
 70
0
 10
12.557299
 20
14.630013
 30
0.0
 10
13.388453
 20
13.427807
 30
0.0
 10
14.219606
 20
14.630013
 30
0.0
  0
SPLINE
  5
132
100
AcDbEntity
  8
0
 62
7
100
AcDbSpline
 70
8
 71
3
 72
8
 73
4
 74
0
 40
0
 40
0
 40
0
 40
0
 40
1
 40
1
 40
1
 40
1
 10
13.607407
 20
11.535447
 30
0.0
 10
13.604957
 20
11.473606
 30
0.0
 10
13.581458
 20
11.421658
 30
0.0
 10
13.536909
 20
11.379606
 30
0.0
  0
SPLINE
  5
133
100
AcDbEntity
  8
0
 62
7
100
AcDbSpline
 70
8
 71
3
 72
8
 73
4
 74
0
 40
0
 40
0
 40
0
 40
0
 40
1
 40
1
 40
1
 40
1
 10
13.536909
 20
11.379606
 30
0.0
 10
13.494856
 20
11.335081
 30
0.0
 10
13.444146
 20
11.312818
 30
0.0
 10
13.384778
 20
11.312818
 30
0.0
  0
SPLINE
  5
134
100
AcDbEntity
  8
0
 62
7
100
AcDbSpline
 70
8
 71
3
 72
8
 73
4
 74
0
 40
0
 40
0
 40
0
 40
0
 40
1
 40
1
 40
1
 40
1
 10
13.384778
 20
11.312818
 30
0.0
 10
13.322936
 20
11.312818
 30
0.0
 10
13.269752
 20
11.335081
 30
0.0
 10
13.225226
 20
11.379606
 30
0.0
  0
SPLINE
  5
135
100
AcDbEntity
  8
0
 62
7
100
AcDbSpline
 70
8
 71
3
 72
8
 73
4
 74
0
 40
0
 40
0
 40
0
 40
0
 40
1
 40
1
 40
1
 40
1
 10
13.225226
 20
11.379606
 30
0.0
 10
13.180701
 20
11.424132
 30
0.0
 10
13.159674
 20
11.476079
 30
0.0
 10
13.162147
 20
11.535447
 30
0.0
  0
LWPOLYLINE
  5
136
100
AcDbEntity
  8
0
 62
7
100
AcDbPolyline
 90
3
 70
0
 10
14.586945
 20
14.377697
 30
0.0
 10
13.611081
 20
12.963993
 30
0.0
 10
13.607407
 20
11.535447
 30
0.0
  0
SPLINE
  5
137
100
AcDbEntity
  8
0
 62
7
100
AcDbSpline
 70
8
 71
3
 72
8
 73
4
 74
0
 40
0
 40
0
 40
0
 40
0
 40
1
 40
1
 40
1
 40
1
 10
12.193667
 20
14.377697
 30
0.0
 10
12.166456
 20
14.414805
 30
0.0
 10
12.152851
 20
14.456857
 30
0.0
 10
12.152851
 20
14.503854
 30
0.0
  0
SPLINE
  5
138
100
AcDbEntity
  8
0
 62
7
100
AcDbSpline
 70
8
 71
3
 72
8
 73
4
 74
0
 40
0
 40
0
 40
0
 40
0
 40
1
 40
1
 40
1
 40
1
 10
12.152851
 20
14.503854
 30
0.0
 10
12.152851
 20
14.583011
 30
0.0
 10
12.185009
 20
14.643617
 30
0.0
 10
12.249324
 20
14.685669
 30
0.0
  0
LWPOLYLINE
  5
139
100
AcDbEntity
  8
0
 62
7
100
AcDbPolyline
 90
3
 70
0
 10
13.162147
 20
11.535447
 30
0.0
 10
13.165821
 20
12.963993
 30
0.0
 10
12.193667
 20
14.377697
 30
0.0
  0
LWPOLYLINE
  5
13a
100
AcDbEntity
  8
0
 62
7
100
AcDbPolyline
 90
1
 70
1
 10
12.249324
 20
14.685669
 30
0.0
  0
SPLINE
  5
13b
100
AcDbEntity
  8
0
 62
7
100
AcDbSpline
 70
8
 71
3
 72
8
 73
4
 74
0
 40
0
 40
0
 40
0
 40
0
 40
1
 40
1
 40
1
 40
1
 10
8.178016
 20
8.713845
 30
0.0
 10
8.319015
 20
8.713845
 30
0.0
 10
8.451356
 20
8.763318
 30
0.0
 10
8.575040
 20
8.862265
 30
0.0
  0
SPLINE
  5
13c
100
AcDbEntity
  8
0
 62
7
100
AcDbSpline
 70
8
 71
3
 72
8
 73
4
 74
0
 40
0
 40
0
 40
0
 40
0
 40
1
 40
1
 40
1
 40
1
 10
8.575040
 20
8.862265
 30
0.0
 10
8.701197
 20
8.961212
 30
0.0
 10
8.764275
 20
9.072528
 30
0.0
 10
8.764275
 20
9.196211
 30
0.0
  0
SPLINE
  5
13d
100
AcDbEntity
  8
0
 62
7
100
AcDbSpline
 70
8
 71
3
 72
8
 73
4
 74
0
 40
0
 40
0
 40
0
 40
0
 40
1
 40
1
 40
1
 40
1
 10
8.764275
 20
9.196211
 30
0.0
 10
8.764275
 20
9.339684
 30
0.0
 10
8.712328
 20
9.457184
 30
0.0
 10
8.608434
 20
9.548709
 30
0.0
  0
SPLINE
  5
13e
100
AcDbEntity
  8
0
 62
7
100
AcDbSpline
 70
8
 71
3
 72
8
 73
4
 74
0
 40
0
 40
0
 40
0
 40
0
 40
1
 40
1
 40
1
 40
1
 10
8.608434
 20
9.548709
 30
0.0
 10
8.504540
 20
9.640235
 30
0.0
 10
8.361067
 20
9.685998
 30
0.0
 10
8.178016
 20
9.685998
 30
0.0
  0
LWPOLYLINE
  5
13f
100
AcDbEntity
  8
0
 62
7
100
AcDbPolyline
 90
2
 70
0
 10
7.265230
 20
8.713845
 30
0.0
 10
8.178016
 20
8.713845
 30
0.0
  0
LWPOLYLINE
  5
140
100
AcDbEntity
  8
0
 62
7
100
AcDbPolyline
 90
3
 70
0
 10
8.178016
 20
9.685998
 30
0.0
 10
7.265230
 20
9.685998
 30
0.0
 10
7.265230
 20
8.713845
 30
0.0
  0
SPLINE
  5
141
100
AcDbEntity
  8
0
 62
7
100
AcDbSpline
 70
8
 71
3
 72
8
 73
4
 74
0
 40
0
 40
0
 40
0
 40
0
 40
1
 40
1
 40
1
 40
1
 10
7.265230
 20
6.940222
 30
0.0
 10
7.265230
 20
6.878380
 30
0.0
 10
7.242967
 20
6.826433
 30
0.0
 10
7.198442
 20
6.784381
 30
0.0
  0
SPLINE
  5
142
100
AcDbEntity
  8
0
 62
7
100
AcDbSpline
 70
8
 71
3
 72
8
 73
4
 74
0
 40
0
 40
0
 40
0
 40
0
 40
1
 40
1
 40
1
 40
1
 10
7.198442
 20
6.784381
 30
0.0
 10
7.156389
 20
6.739855
 30
0.0
 10
7.104441
 20
6.717593
 30
0.0
 10
7.042600
 20
6.717593
 30
0.0
  0
SPLINE
  5
143
100
AcDbEntity
  8
0
 62
7
100
AcDbSpline
 70
8
 71
3
 72
8
 73
4
 74
0
 40
0
 40
0
 40
0
 40
0
 40
1
 40
1
 40
1
 40
1
 10
7.042600
 20
6.717593
 30
0.0
 10
6.980758
 20
6.717593
 30
0.0
 10
6.927574
 20
6.739855
 30
0.0
 10
6.883048
 20
6.784381
 30
0.0
  0
SPLINE
  5
144
100
AcDbEntity
  8
0
 62
7
100
AcDbSpline
 70
8
 71
3
 72
8
 73
4
 74
0
 40
0
 40
0
 40
0
 40
0
 40
1
 40
1
 40
1
 40
1
 10
6.883048
 20
6.784381
 30
0.0
 10
6.840995
 20
6.826434
 30
0.0
 10
6.819968
 20
6.878381
 30
0.0
 10
6.819968
 20
6.940222
 30
0.0
  0
LWPOLYLINE
  5
145
100
AcDbEntity
  8
0
 62
7
100
AcDbPolyline
 90
2
 70
0
 10
7.265230
 20
8.268584
 30
0.0
 10
7.265230
 20
6.940222
 30
0.0
  0
SPLINE
  5
146
100
AcDbEntity
  8
0
 62
7
100
AcDbSpline
 70
8
 71
3
 72
8
 73
4
 74
0
 40
0
 40
0
 40
0
 40
0
 40
1
 40
1
 40
1
 40
1
 10
6.819968
 20
9.908629
 30
0.0
 10
6.819968
 20
9.972944
 30
0.0
 10
6.843468
 20
10.026128
 30
0.0
 10
6.890466
 20
10.068180
 30
0.0
  0
SPLINE
  5
147
100
AcDbEntity
  8
0
 62
7
100
AcDbSpline
 70
8
 71
3
 72
8
 73
4
 74
0
 40
0
 40
0
 40
0
 40
0
 40
1
 40
1
 40
1
 40
1
 10
6.890466
 20
10.068180
 30
0.0
 10
6.939937
 20
10.110233
 30
0.0
 10
6.990647
 20
10.131260
 30
0.0
 10
7.042596
 20
10.131260
 30
0.0
  0
LWPOLYLINE
  5
148
100
AcDbEntity
  8
0
 62
7
100
AcDbPolyline
 90
3
 70
0
 10
6.819968
 20
6.940222
 30
0.0
 10
6.819968
 20
8.491214
 30
0.0
 10
6.819968
 20
9.908629
 30
0.0
  0
SPLINE
  5
149
100
AcDbEntity
  8
0
 62
7
100
AcDbSpline
 70
8
 71
3
 72
8
 73
4
 74
0
 40
0
 40
0
 40
0
 40
0
 40
1
 40
1
 40
1
 40
1
 10
8.178012
 20
10.131260
 30
0.0
 10
8.467432
 20
10.131260
 30
0.0
 10
8.711088
 20
10.043444
 30
0.0
 10
8.908982
 20
9.867814
 30
0.0
  0
SPLINE
  5
14a
100
AcDbEntity
  8
0
 62
7
100
AcDbSpline
 70
8
 71
3
 72
8
 73
4
 74
0
 40
0
 40
0
 40
0
 40
0
 40
1
 40
1
 40
1
 40
1
 10
8.908982
 20
9.867814
 30
0.0
 10
9.109350
 20
9.694657
 30
0.0
 10
9.209533
 20
9.470790
 30
0.0
 10
9.209533
 20
9.196212
 30
0.0
  0
SPLINE
  5
14b
100
AcDbEntity
  8
0
 62
7
100
AcDbSpline
 70
8
 71
3
 72
8
 73
4
 74
0
 40
0
 40
0
 40
0
 40
0
 40
1
 40
1
 40
1
 40
1
 10
9.209533
 20
9.196212
 30
0.0
 10
9.209533
 20
8.993371
 30
0.0
 10
9.146455
 20
8.817740
 30
0.0
 10
9.020297
 20
8.669320
 30
0.0
  0
SPLINE
  5
14c
100
AcDbEntity
  8
0
 62
7
100
AcDbSpline
 70
8
 71
3
 72
8
 73
4
 74
0
 40
0
 40
0
 40
0
 40
0
 40
1
 40
1
 40
1
 40
1
 10
9.020297
 20
8.669320
 30
0.0
 10
8.896614
 20
8.520899
 30
0.0
 10
8.743246
 20
8.412058
 30
0.0
 10
8.560194
 20
8.342795
 30
0.0
  0
LWPOLYLINE
  5
14d
100
AcDbEntity
  8
0
 62
7
100
AcDbPolyline
 90
2
 70
0
 10
7.042596
 20
10.131260
 30
0.0
 10
8.178012
 20
10.131260
 30
0.0
  0
SPLINE
  5
14e
100
AcDbEntity
  8
0
 62
7
100
AcDbSpline
 70
8
 71
3
 72
8
 73
4
 74
0
 40
0
 40
0
 40
0
 40
0
 40
1
 40
1
 40
1
 40
1
 10
9.165007
 20
7.032986
 30
0.0
 10
9.177376
 20
7.005775
 30
0.0
 10
9.183561
 20
6.974854
 30
0.0
 10
9.183561
 20
6.940223
 30
0.0
  0
SPLINE
  5
14f
100
AcDbEntity
  8
0
 62
7
100
AcDbSpline
 70
8
 71
3
 72
8
 73
4
 74
0
 40
0
 40
0
 40
0
 40
0
 40
1
 40
1
 40
1
 40
1
 10
9.183561
 20
6.940223
 30
0.0
 10
9.183561
 20
6.898170
 30
0.0
 10
9.172428
 20
6.858591
 30
0.0
 10
9.150162
 20
6.821487
 30
0.0
  0
SPLINE
  5
150
100
AcDbEntity
  8
0
 62
7
100
AcDbSpline
 70
8
 71
3
 72
8
 73
4
 74
0
 40
0
 40
0
 40
0
 40
0
 40
1
 40
1
 40
1
 40
1
 10
9.150162
 20
6.821487
 30
0.0
 10
9.127902
 20
6.784379
 30
0.0
 10
9.096981
 20
6.757168
 30
0.0
 10
9.057399
 20
6.739854
 30
0.0
  0
SPLINE
  5
151
100
AcDbEntity
  8
0
 62
7
100
AcDbSpline
 70
8
 71
3
 72
8
 73
4
 74
0
 40
0
 40
0
 40
0
 40
0
 40
1
 40
1
 40
1
 40
1
 10
9.057399
 20
6.739854
 30
0.0
 10
9.027716
 20
6.725012
 30
0.0
 10
8.996795
 20
6.717591
 30
0.0
 10
8.964637
 20
6.717591
 30
0.0
  0
SPLINE
  5
152
100
AcDbEntity
  8
0
 62
7
100
AcDbSpline
 70
8
 71
3
 72
8
 73
4
 74
0
 40
0
 40
0
 40
0
 40
0
 40
1
 40
1
 40
1
 40
1
 10
8.964637
 20
6.717591
 30
0.0
 10
8.922584
 20
6.717591
 30
0.0
 10
8.883005
 20
6.729960
 30
0.0
 10
8.845901
 20
6.754698
 30
0.0
  0
SPLINE
  5
153
100
AcDbEntity
  8
0
 62
7
100
AcDbSpline
 70
8
 71
3
 72
8
 73
4
 74
0
 40
0
 40
0
 40
0
 40
0
 40
1
 40
1
 40
1
 40
1
 10
8.845901
 20
6.754698
 30
0.0
 10
8.808793
 20
6.776964
 30
0.0
 10
8.780346
 20
6.807885
 30
0.0
 10
8.760558
 20
6.847461
 30
0.0
  0
LWPOLYLINE
  5
154
100
AcDbEntity
  8
0
 62
7
100
AcDbPolyline
 90
2
 70
0
 10
8.560194
 20
8.342795
 30
0.0
 10
9.165007
 20
7.032986
 30
0.0
  0
SPLINE
  5
155
100
AcDbEntity
  8
0
 62
7
100
AcDbSpline
 70
8
 71
3
 72
8
 73
4
 74
0
 40
0
 40
0
 40
0
 40
0
 40
1
 40
1
 40
1
 40
1
 10
11.721996
 20
10.064470
 30
0.0
 10
11.766521
 20
10.022417
 30
0.0
 10
11.788784
 20
9.970470
 30
0.0
 10
11.788784
 20
9.908629
 30
0.0
  0
SPLINE
  5
156
100
AcDbEntity
  8
0
 62
7
100
AcDbSpline
 70
8
 71
3
 72
8
 73
4
 74
0
 40
0
 40
0
 40
0
 40
0
 40
1
 40
1
 40
1
 40
1
 10
11.788784
 20
9.908629
 30
0.0
 10
11.788784
 20
9.846787
 30
0.0
 10
11.766521
 20
9.793603
 30
0.0
 10
11.721996
 20
9.749077
 30
0.0
  0
SPLINE
  5
157
100
AcDbEntity
  8
0
 62
7
100
AcDbSpline
 70
8
 71
3
 72
8
 73
4
 74
0
 40
0
 40
0
 40
0
 40
0
 40
1
 40
1
 40
1
 40
1
 10
11.721996
 20
9.749077
 30
0.0
 10
11.677470
 20
9.707024
 30
0.0
 10
11.625523
 20
9.685997
 30
0.0
 10
11.566155
 20
9.685997
 30
0.0
  0
LWPOLYLINE
  5
158
100
AcDbEntity
  8
0
 62
7
100
AcDbPolyline
 90
3
 70
0
 10
8.760558
 20
6.847461
 30
0.0
 10
8.100088
 20
8.268586
 30
0.0
 10
7.265230
 20
8.268584
 30
0.0
  0
SPLINE
  5
159
100
AcDbEntity
  8
0
 62
7
100
AcDbSpline
 70
8
 71
3
 72
8
 73
4
 74
0
 40
0
 40
0
 40
0
 40
0
 40
1
 40
1
 40
1
 40
1
 10
11.039262
 20
8.721265
 30
0.0
 10
11.098630
 20
8.721265
 30
0.0
 10
11.150578
 20
8.699003
 30
0.0
 10
11.195104
 20
8.654477
 30
0.0
  0
SPLINE
  5
15a
100
AcDbEntity
  8
0
 62
7
100
AcDbSpline
 70
8
 71
3
 72
8
 73
4
 74
0
 40
0
 40
0
 40
0
 40
0
 40
1
 40
1
 40
1
 40
1
 10
11.195104
 20
8.654477
 30
0.0
 10
11.239629
 20
8.612424
 30
0.0
 10
11.261892
 20
8.560477
 30
0.0
 10
11.261892
 20
8.498635
 30
0.0
  0
SPLINE
  5
15b
100
AcDbEntity
  8
0
 62
7
100
AcDbSpline
 70
8
 71
3
 72
8
 73
4
 74
0
 40
0
 40
0
 40
0
 40
0
 40
1
 40
1
 40
1
 40
1
 10
11.261892
 20
8.498635
 30
0.0
 10
11.261892
 20
8.436793
 30
0.0
 10
11.239629
 20
8.383609
 30
0.0
 10
11.195104
 20
8.339083
 30
0.0
  0
SPLINE
  5
15c
100
AcDbEntity
  8
0
 62
7
100
AcDbSpline
 70
8
 71
3
 72
8
 73
4
 74
0
 40
0
 40
0
 40
0
 40
0
 40
1
 40
1
 40
1
 40
1
 10
11.195104
 20
8.339083
 30
0.0
 10
11.150578
 20
8.297030
 30
0.0
 10
11.098631
 20
8.276004
 30
0.0
 10
11.039262
 20
8.276004
 30
0.0
  0
LWPOLYLINE
  5
15d
100
AcDbEntity
  8
0
 62
7
100
AcDbPolyline
 90
4
 70
0
 10
11.566155
 20
9.685997
 30
0.0
 10
9.978056
 20
9.685997
 30
0.0
 10
9.978056
 20
8.721265
 30
0.0
 10
11.039262
 20
8.721265
 30
0.0
  0
SPLINE
  5
15e
100
AcDbEntity
  8
0
 62
7
100
AcDbSpline
 70
8
 71
3
 72
8
 73
4
 74
0
 40
0
 40
0
 40
0
 40
0
 40
1
 40
1
 40
1
 40
1
 10
11.677469
 20
7.162851
 30
0.0
 10
11.736837
 20
7.162851
 30
0.0
 10
11.788784
 20
7.140589
 30
0.0
 10
11.833311
 20
7.096063
 30
0.0
  0
SPLINE
  5
15f
100
AcDbEntity
  8
0
 62
7
100
AcDbSpline
 70
8
 71
3
 72
8
 73
4
 74
0
 40
0
 40
0
 40
0
 40
0
 40
1
 40
1
 40
1
 40
1
 10
11.833311
 20
7.096063
 30
0.0
 10
11.877836
 20
7.054010
 30
0.0
 10
11.900099
 20
7.002063
 30
0.0
 10
11.900099
 20
6.940222
 30
0.0
  0
SPLINE
  5
160
100
AcDbEntity
  8
0
 62
7
100
AcDbSpline
 70
8
 71
3
 72
8
 73
4
 74
0
 40
0
 40
0
 40
0
 40
0
 40
1
 40
1
 40
1
 40
1
 10
11.900099
 20
6.940222
 30
0.0
 10
11.900099
 20
6.878380
 30
0.0
 10
11.877836
 20
6.826433
 30
0.0
 10
11.833311
 20
6.784381
 30
0.0
  0
SPLINE
  5
161
100
AcDbEntity
  8
0
 62
7
100
AcDbSpline
 70
8
 71
3
 72
8
 73
4
 74
0
 40
0
 40
0
 40
0
 40
0
 40
1
 40
1
 40
1
 40
1
 10
11.833311
 20
6.784381
 30
0.0
 10
11.788785
 20
6.739855
 30
0.0
 10
11.736838
 20
6.717593
 30
0.0
 10
11.677469
 20
6.717593
 30
0.0
  0
LWPOLYLINE
  5
162
100
AcDbEntity
  8
0
 62
7
100
AcDbPolyline
 90
4
 70
0
 10
11.039262
 20
8.276004
 30
0.0
 10
9.978056
 20
8.276004
 30
0.0
 10
9.978056
 20
7.162851
 30
0.0
 10
11.677469
 20
7.162851
 30
0.0
  0
SPLINE
  5
163
100
AcDbEntity
  8
0
 62
7
100
AcDbSpline
 70
8
 71
3
 72
8
 73
4
 74
0
 40
0
 40
0
 40
0
 40
0
 40
1
 40
1
 40
1
 40
1
 10
9.755426
 20
6.717593
 30
0.0
 10
9.703477
 20
6.717593
 30
0.0
 10
9.652767
 20
6.738619
 30
0.0
 10
9.603296
 20
6.780672
 30
0.0
  0
SPLINE
  5
164
100
AcDbEntity
  8
0
 62
7
100
AcDbSpline
 70
8
 71
3
 72
8
 73
4
 74
0
 40
0
 40
0
 40
0
 40
0
 40
1
 40
1
 40
1
 40
1
 10
9.603296
 20
6.780672
 30
0.0
 10
9.556298
 20
6.822725
 30
0.0
 10
9.532798
 20
6.875909
 30
0.0
 10
9.532798
 20
6.940224
 30
0.0
  0
LWPOLYLINE
  5
165
100
AcDbEntity
  8
0
 62
7
100
AcDbPolyline
 90
2
 70
0
 10
11.677469
 20
6.717593
 30
0.0
 10
9.755426
 20
6.717593
 30
0.0
  0
SPLINE
  5
166
100
AcDbEntity
  8
0
 62
7
100
AcDbSpline
 70
8
 71
3
 72
8
 73
4
 74
0
 40
0
 40
0
 40
0
 40
0
 40
1
 40
1
 40
1
 40
1
 10
9.532798
 20
9.908630
 30
0.0
 10
9.532798
 20
9.960580
 30
0.0
 10
9.553825
 20
10.010053
 30
0.0
 10
9.595878
 20
10.057051
 30
0.0
  0
SPLINE
  5
167
100
AcDbEntity
  8
0
 62
7
100
AcDbSpline
 70
8
 71
3
 72
8
 73
4
 74
0
 40
0
 40
0
 40
0
 40
0
 40
1
 40
1
 40
1
 40
1
 10
9.595878
 20
10.057051
 30
0.0
 10
9.637931
 20
10.106522
 30
0.0
 10
9.691115
 20
10.131257
 30
0.0
 10
9.755430
 20
10.131257
 30
0.0
  0
LWPOLYLINE
  5
168
100
AcDbEntity
  8
0
 62
7
100
AcDbPolyline
 90
2
 70
0
 10
9.532798
 20
6.940224
 30
0.0
 10
9.532798
 20
9.908630
 30
0.0
  0
SPLINE
  5
169
100
AcDbEntity
  8
0
 62
7
100
AcDbSpline
 70
8
 71
3
 72
8
 73
4
 74
0
 40
0
 40
0
 40
0
 40
0
 40
1
 40
1
 40
1
 40
1
 10
11.566158
 20
10.131257
 30
0.0
 10
11.625526
 20
10.131257
 30
0.0
 10
11.677473
 20
10.108994
 30
0.0
 10
11.721999
 20
10.064469
 30
0.0
  0
LWPOLYLINE
  5
16a
100
AcDbEntity
  8
0
 62
7
100
AcDbPolyline
 90
2
 70
0
 10
9.755430
 20
10.131257
 30
0.0
 10
11.566158
 20
10.131257
 30
0.0
  0
SPLINE
  5
16b
100
AcDbEntity
  8
0
 62
7
100
AcDbSpline
 70
8
 71
3
 72
8
 73
4
 74
0
 40
0
 40
0
 40
0
 40
0
 40
1
 40
1
 40
1
 40
1
 10
12.286435
 20
10.064470
 30
0.0
 10
12.330961
 20
10.108995
 30
0.0
 10
12.384145
 20
10.131258
 30
0.0
 10
12.445987
 20
10.131258
 30
0.0
  0
SPLINE
  5
16c
100
AcDbEntity
  8
0
 62
7
100
AcDbSpline
 70
8
 71
3
 72
8
 73
4
 74
0
 40
0
 40
0
 40
0
 40
0
 40
1
 40
1
 40
1
 40
1
 10
12.445987
 20
10.131258
 30
0.0
 10
12.507829
 20
10.131258
 30
0.0
 10
12.559776
 20
10.108995
 30
0.0
 10
12.601829
 20
10.064470
 30
0.0
  0
SPLINE
  5
16d
100
AcDbEntity
  8
0
 62
7
100
AcDbSpline
 70
8
 71
3
 72
8
 73
4
 74
0
 40
0
 40
0
 40
0
 40
0
 40
1
 40
1
 40
1
 40
1
 10
12.601829
 20
10.064470
 30
0.0
 10
12.646355
 20
10.022417
 30
0.0
 10
12.668617
 20
9.970470
 30
0.0
 10
12.668617
 20
9.908629
 30
0.0
  0
LWPOLYLINE
  5
16e
100
AcDbEntity
  8
0
 62
7
100
AcDbPolyline
 90
1
 70
1
 10
11.721999
 20
10.064469
 30
0.0
  0
SPLINE
  5
16f
100
AcDbEntity
  8
0
 62
7
100
AcDbSpline
 70
8
 71
3
 72
8
 73
4
 74
0
 40
0
 40
0
 40
0
 40
0
 40
1
 40
1
 40
1
 40
1
 10
14.375451
 20
7.162852
 30
0.0
 10
14.434819
 20
7.162852
 30
0.0
 10
14.486766
 20
7.140589
 30
0.0
 10
14.531292
 20
7.096064
 30
0.0
  0
SPLINE
  5
170
100
AcDbEntity
  8
0
 62
7
100
AcDbSpline
 70
8
 71
3
 72
8
 73
4
 74
0
 40
0
 40
0
 40
0
 40
0
 40
1
 40
1
 40
1
 40
1
 10
14.531292
 20
7.096064
 30
0.0
 10
14.575818
 20
7.054011
 30
0.0
 10
14.598081
 20
7.002064
 30
0.0
 10
14.598081
 20
6.940223
 30
0.0
  0
SPLINE
  5
171
100
AcDbEntity
  8
0
 62
7
100
AcDbSpline
 70
8
 71
3
 72
8
 73
4
 74
0
 40
0
 40
0
 40
0
 40
0
 40
1
 40
1
 40
1
 40
1
 10
14.598081
 20
6.940223
 30
0.0
 10
14.598081
 20
6.878381
 30
0.0
 10
14.575818
 20
6.826434
 30
0.0
 10
14.531292
 20
6.784382
 30
0.0
  0
SPLINE
  5
172
100
AcDbEntity
  8
0
 62
7
100
AcDbSpline
 70
8
 71
3
 72
8
 73
4
 74
0
 40
0
 40
0
 40
0
 40
0
 40
1
 40
1
 40
1
 40
1
 10
14.531292
 20
6.784382
 30
0.0
 10
14.486767
 20
6.739856
 30
0.0
 10
14.434820
 20
6.717593
 30
0.0
 10
14.375451
 20
6.717593
 30
0.0
  0
LWPOLYLINE
  5
173
100
AcDbEntity
  8
0
 62
7
100
AcDbPolyline
 90
3
 70
0
 10
12.668617
 20
9.908629
 30
0.0
 10
12.668617
 20
7.162852
 30
0.0
 10
14.375451
 20
7.162852
 30
0.0
  0
SPLINE
  5
174
100
AcDbEntity
  8
0
 62
7
100
AcDbSpline
 70
8
 71
3
 72
8
 73
4
 74
0
 40
0
 40
0
 40
0
 40
0
 40
1
 40
1
 40
1
 40
1
 10
12.445986
 20
6.717593
 30
0.0
 10
12.394037
 20
6.717593
 30
0.0
 10
12.343327
 20
6.738620
 30
0.0
 10
12.293856
 20
6.780673
 30
0.0
  0
SPLINE
  5
175
100
AcDbEntity
  8
0
 62
7
100
AcDbSpline
 70
8
 71
3
 72
8
 73
4
 74
0
 40
0
 40
0
 40
0
 40
0
 40
1
 40
1
 40
1
 40
1
 10
12.293856
 20
6.780673
 30
0.0
 10
12.246858
 20
6.822726
 30
0.0
 10
12.223359
 20
6.875910
 30
0.0
 10
12.223359
 20
6.940225
 30
0.0
  0
LWPOLYLINE
  5
176
100
AcDbEntity
  8
0
 62
7
100
AcDbPolyline
 90
2
 70
0
 10
14.375451
 20
6.717593
 30
0.0
 10
12.445986
 20
6.717593
 30
0.0
  0
SPLINE
  5
177
100
AcDbEntity
  8
0
 62
7
100
AcDbSpline
 70
8
 71
3
 72
8
 73
4
 74
0
 40
0
 40
0
 40
0
 40
0
 40
1
 40
1
 40
1
 40
1
 10
12.223359
 20
9.908631
 30
0.0
 10
12.223359
 20
9.970473
 30
0.0
 10
12.244385
 20
10.022420
 30
0.0
 10
12.286438
 20
10.064472
 30
0.0
  0
LWPOLYLINE
  5
178
100
AcDbEntity
  8
0
 62
7
100
AcDbPolyline
 90
2
 70
0
 10
12.223359
 20
6.940225
 30
0.0
 10
12.223359
 20
9.908631
 30
0.0
  0
LWPOLYLINE
  5
179
100
AcDbEntity
  8
0
 62
7
100
AcDbPolyline
 90
1
 70
1
 10
12.286438
 20
10.064472
 30
0.0
  0
ENDSEC
  0
SECTION
  2
OBJECTS
  0
DICTIONARY
  5
C
330
0
100
AcDbDictionary
  3
ACAD_GROUP
350
D
  3
ACAD_MLINESTYLE
350
17
  0
DICTIONARY
  5
D
330
C
100
AcDbDictionary
  0
DICTIONARY
  5
1A
330
C
100
AcDbDictionary
  0
DICTIONARY
  5
17
330
C
100
AcDbDictionary
  3
STANDARD
350
18
  0
DICTIONARY
  5
19
330
C
100
AcDbDictionary
  0
ENDSEC
  0
EOF
