  0
SECTION
  2
HEADER
  9
$ACADVER
  1
AC1014
  9
$HANDSEED
  5
FFFF
  9
$INSUNITS
 70
     4
  9
$MEASUREMENT
 70
     1
  0
ENDSEC
  0
SECTION
  2
TABLES
  0
TABLE
  2
VPORT
  5
8
330
0
100
AcDbSymbolTable
 70
     4
  0
VPORT
  5
2E
330
8
100
AcDbSymbolTableRecord
100
AcDbViewportTableRecord
  2
*ACTIVE
 70
     0
 10
0.0
 20
0.0
 11
1.0
 21
1.0
 12
210.0
 22
148.5
 13
0.0
 23
0.0
 14
10.0
 24
10.0
 15
10.0
 25
10.0
 16
0.0
 26
0.0
 36
1.0
 17
0.0
 27
0.0
 37
0.0
 40
341.0
 41
1.24
 42
50.0
 43
0.0
 44
0.0
 50
0.0
 51
0.0
 71
     0
 72
   100
 73
     1
 74
     3
 75
     0
 76
     0
 77
     0
 78
     0
  0
ENDTAB
  0
TABLE
  2
LTYPE
  5
5
330
0
100
AcDbSymbolTable
 70
     1
  0
LTYPE
  5
14
330
5
100
AcDbSymbolTableRecord
100
AcDbLinetypeTableRecord
  2
BYBLOCK
 70
     0
  3

 72
    65
 73
     0
 40
0.0
  0
LTYPE
  5
15
330
5
100
AcDbSymbolTableRecord
100
AcDbLinetypeTableRecord
  2
BYLAYER
 70
     0
  3

 72
    65
 73
     0
 40
0.0
  0
LTYPE
  5
16
330
5
100
AcDbSymbolTableRecord
100
AcDbLinetypeTableRecord
  2
CONTINUOUS
 70
     0
  3
Solid line
 72
    65
 73
     0
 40
0.0
  0
ENDTAB
  0
TABLE
  2
LAYER
  5
2
100
AcDbSymbolTable
 70
1
  0
LAYER
  5
50
100
AcDbSymbolTableRecord
100
AcDbLayerTableRecord
  2
0
 70
0
  6
CONTINUOUS
  0
ENDTAB
  0
TABLE
  2
STYLE
  5
3
330
0
100
AcDbSymbolTable
 70
     1
  0
STYLE
  5
11
330
3
100
AcDbSymbolTableRecord
100
AcDbTextStyleTableRecord
  2
STANDARD
 70
     0
 40
0.0
 41
1.0
 50
0.0
 71
     0
 42
2.5
  3
txt
  4

  0
ENDTAB
  0
TABLE
  2
VIEW
  5
6
330
0
100
AcDbSymbolTable
 70
     0
  0
ENDTAB
  0
TABLE
  2
UCS
  5
7
330
0
100
AcDbSymbolTable
 70
     0
  0
ENDTAB
  0
TABLE
  2
APPID
  5
9
330
0
100
AcDbSymbolTable
 70
     2
  0
APPID
  5
12
330
9
100
AcDbSymbolTableRecord
100
AcDbRegAppTableRecord
  2
ACAD
 70
     0
  0
ENDTAB
  0
TABLE
  2
DIMSTYLE
  5
A
330
0
100
AcDbSymbolTable
 70
     1
  0
DIMSTYLE
105
27
330
A
100
AcDbSymbolTableRecord
100
AcDbDimStyleTableRecord
  2
ISO-25
 70
     0
  3

  4

  5

  6

  7

 40
1.0
 41
2.5
 42
0.625
 43
3.75
 44
1.25
 45
0.0
 46
0.0
 47
0.0
 48
0.0
140
2.5
141
2.5
142
0.0
143
0.03937007874016
144
1.0
145
0.0
146
1.0
147
0.625
 71
     0
 72
     0
 73
     0
 74
     0
 75
     0
 76
     0
 77
     1
 78
     8
170
     0
171
     3
172
     1
173
     0
174
     0
175
     0
176
     0
177
     0
178
     0
270
     2
271
     2
272
     2
273
     2
274
     3
340
11
275
     0
280
     0
281
     0
282
     0
283
     0
284
     8
285
     0
286
     0
287
     3
288
     0
  0
ENDTAB
  0
TABLE
  2
BLOCK_RECORD
  5
1
330
0
100
AcDbSymbolTable
 70
     1
  0
BLOCK_RECORD
  5
1F
330
1
100
AcDbSymbolTableRecord
100
AcDbBlockTableRecord
  2
*MODEL_SPACE
  0
BLOCK_RECORD
  5
1B
330
1
100
AcDbSymbolTableRecord
100
AcDbBlockTableRecord
  2
*PAPER_SPACE
  0
ENDTAB
  0
ENDSEC
  0
SECTION
  2
BLOCKS
  0
BLOCK
  5
20
330
1F
100
AcDbEntity
  8
0
100
AcDbBlockBegin
  2
*MODEL_SPACE
 70
     0
 10
0.0
 20
0.0
 30
0.0
  3
*MODEL_SPACE
  1

  0
ENDBLK
  5
21
330
1F
100
AcDbEntity
  8
0
100
AcDbBlockEnd
  0
BLOCK
  5
1C
330
1B
100
AcDbEntity
 67
     1
  8
0
100
AcDbBlockBegin
  2
*PAPER_SPACE
  1

  0
ENDBLK
  5
1D
330
1B
100
AcDbEntity
 67
     1
  8
0
100
AcDbBlockEnd
  0
ENDSEC
  0
SECTION
  2
ENTITIES
  0
SPLINE
  5
100
100
AcDbEntity
  8
0
 62
7
100
AcDbSpline
 70
8
 71
3
 72
8
 73
4
 74
0
 40
0
 40
0
 40
0
 40
0
 40
1
 40
1
 40
1
 40
1
 10
5.643466
 20
9.011461
 30
0.0
 10
5.581625
 20
9.011461
 30
0.0
 10
5.528441
 20
9.033721
 30
0.0
 10
5.483915
 20
9.078241
 30
0.0
  0
SPLINE
  5
101
100
AcDbEntity
  8
0
 62
7
100
AcDbSpline
 70
8
 71
3
 72
8
 73
4
 74
0
 40
0
 40
0
 40
0
 40
0
 40
1
 40
1
 40
1
 40
1
 10
5.483915
 20
9.078241
 30
0.0
 10
5.441862
 20
9.120294
 30
0.0
 10
5.420836
 20
9.172241
 30
0.0
 10
5.420836
 20
9.234081
 30
0.0
  0
SPLINE
  5
102
100
AcDbEntity
  8
0
 62
7
100
AcDbSpline
 70
8
 71
3
 72
8
 73
4
 74
0
 40
0
 40
0
 40
0
 40
0
 40
1
 40
1
 40
1
 40
1
 10
5.420836
 20
12.202496
 30
0.0
 10
5.420836
 20
12.266811
 30
0.0
 10
5.444335
 20
12.319995
 30
0.0
 10
5.491333
 20
12.362048
 30
0.0
  0
SPLINE
  5
103
100
AcDbEntity
  8
0
 62
7
100
AcDbSpline
 70
8
 71
3
 72
8
 73
4
 74
0
 40
0
 40
0
 40
0
 40
0
 40
1
 40
1
 40
1
 40
1
 10
5.491333
 20
12.362048
 30
0.0
 10
5.540803
 20
12.404100
 30
0.0
 10
5.591513
 20
12.425127
 30
0.0
 10
5.643463
 20
12.425127
 30
0.0
  0
LWPOLYLINE
  5
104
100
AcDbEntity
  8
0
 62
7
100
AcDbPolyline
 90
2
 70
0
 10
5.420836
 20
9.234081
 30
0.0
 10
5.420836
 20
12.202496
 30
0.0
  0
SPLINE
  5
105
100
AcDbEntity
  8
0
 62
7
100
AcDbSpline
 70
8
 71
3
 72
8
 73
4
 74
0
 40
0
 40
0
 40
0
 40
0
 40
1
 40
1
 40
1
 40
1
 10
5.791885
 20
12.425127
 30
0.0
 10
5.831465
 20
12.425127
 30
0.0
 10
5.868570
 20
12.413994
 30
0.0
 10
5.903201
 20
12.391729
 30
0.0
  0
SPLINE
  5
106
100
AcDbEntity
  8
0
 62
7
100
AcDbSpline
 70
8
 71
3
 72
8
 73
4
 74
0
 40
0
 40
0
 40
0
 40
0
 40
1
 40
1
 40
1
 40
1
 10
5.903201
 20
12.391729
 30
0.0
 10
5.940309
 20
12.369463
 30
0.0
 10
5.967520
 20
12.342252
 30
0.0
 10
5.984834
 20
12.310096
 30
0.0
  0
LWPOLYLINE
  5
107
100
AcDbEntity
  8
0
 62
7
100
AcDbPolyline
 90
3
 70
0
 10
5.643463
 20
12.425127
 30
0.0
 10
5.702833
 20
12.425127
 30
0.0
 10
5.791885
 20
12.425127
 30
0.0
  0
SPLINE
  5
108
100
AcDbEntity
  8
0
 62
7
100
AcDbSpline
 70
8
 71
3
 72
8
 73
4
 74
0
 40
0
 40
0
 40
0
 40
0
 40
1
 40
1
 40
1
 40
1
 10
7.305805
 20
12.209912
 30
0.0
 10
7.303351
 20
12.269280
 30
0.0
 10
7.324378
 20
12.321227
 30
0.0
 10
7.368884
 20
12.365754
 30
0.0
  0
SPLINE
  5
109
100
AcDbEntity
  8
0
 62
7
100
AcDbSpline
 70
8
 71
3
 72
8
 73
4
 74
0
 40
0
 40
0
 40
0
 40
0
 40
1
 40
1
 40
1
 40
1
 10
7.368884
 20
12.365754
 30
0.0
 10
7.413409
 20
12.410279
 30
0.0
 10
7.465356
 20
12.432542
 30
0.0
 10
7.524725
 20
12.432542
 30
0.0
  0
SPLINE
  5
10a
100
AcDbEntity
  8
0
 62
7
100
AcDbSpline
 70
8
 71
3
 72
8
 73
4
 74
0
 40
0
 40
0
 40
0
 40
0
 40
1
 40
1
 40
1
 40
1
 10
7.524725
 20
12.432542
 30
0.0
 10
7.586566
 20
12.432542
 30
0.0
 10
7.638514
 20
12.410279
 30
0.0
 10
7.680567
 20
12.365754
 30
0.0
  0
SPLINE
  5
10b
100
AcDbEntity
  8
0
 62
7
100
AcDbSpline
 70
8
 71
3
 72
8
 73
4
 74
0
 40
0
 40
0
 40
0
 40
0
 40
1
 40
1
 40
1
 40
1
 10
7.680567
 20
12.365754
 30
0.0
 10
7.725092
 20
12.323701
 30
0.0
 10
7.748591
 20
12.271754
 30
0.0
 10
7.751064
 20
12.209912
 30
0.0
  0
LWPOLYLINE
  5
10c
100
AcDbEntity
  8
0
 62
7
100
AcDbPolyline
 90
3
 70
0
 10
5.984834
 20
12.310096
 30
0.0
 10
7.309485
 20
9.879715
 30
0.0
 10
7.305805
 20
12.209912
 30
0.0
  0
SPLINE
  5
10d
100
AcDbEntity
  8
0
 62
7
100
AcDbSpline
 70
8
 71
3
 72
8
 73
4
 74
0
 40
0
 40
0
 40
0
 40
0
 40
1
 40
1
 40
1
 40
1
 10
7.758494
 20
9.234085
 30
0.0
 10
7.758494
 20
9.182138
 30
0.0
 10
7.736231
 20
9.132665
 30
0.0
 10
7.691706
 20
9.085666
 30
0.0
  0
SPLINE
  5
10e
100
AcDbEntity
  8
0
 62
7
100
AcDbSpline
 70
8
 71
3
 72
8
 73
4
 74
0
 40
0
 40
0
 40
0
 40
0
 40
1
 40
1
 40
1
 40
1
 10
7.691706
 20
9.085666
 30
0.0
 10
7.649653
 20
9.036193
 30
0.0
 10
7.597706
 20
9.011456
 30
0.0
 10
7.535865
 20
9.011456
 30
0.0
  0
LWPOLYLINE
  5
10f
100
AcDbEntity
  8
0
 62
7
100
AcDbPolyline
 90
2
 70
0
 10
7.751064
 20
12.209912
 30
0.0
 10
7.758494
 20
9.234085
 30
0.0
  0
SPLINE
  5
110
100
AcDbEntity
  8
0
 62
7
100
AcDbSpline
 70
8
 71
3
 72
8
 73
4
 74
0
 40
0
 40
0
 40
0
 40
0
 40
1
 40
1
 40
1
 40
1
 10
7.409707
 20
9.011456
 30
0.0
 10
7.370127
 20
9.011456
 30
0.0
 10
7.331785
 20
9.022589
 30
0.0
 10
7.294681
 20
9.044856
 30
0.0
  0
SPLINE
  5
111
100
AcDbEntity
  8
0
 62
7
100
AcDbSpline
 70
8
 71
3
 72
8
 73
4
 74
0
 40
0
 40
0
 40
0
 40
0
 40
1
 40
1
 40
1
 40
1
 10
7.294681
 20
9.044856
 30
0.0
 10
7.260053
 20
9.064643
 30
0.0
 10
7.232842
 20
9.091853
 30
0.0
 10
7.213048
 20
9.126486
 30
0.0
  0
LWPOLYLINE
  5
112
100
AcDbEntity
  8
0
 62
7
100
AcDbPolyline
 90
3
 70
0
 10
7.535865
 20
9.011456
 30
0.0
 10
7.480204
 20
9.011456
 30
0.0
 10
7.409707
 20
9.011456
 30
0.0
  0
SPLINE
  5
113
100
AcDbEntity
  8
0
 62
7
100
AcDbSpline
 70
8
 71
3
 72
8
 73
4
 74
0
 40
0
 40
0
 40
0
 40
0
 40
1
 40
1
 40
1
 40
1
 10
5.866145
 20
9.234095
 30
0.0
 10
5.866145
 20
9.172255
 30
0.0
 10
5.843882
 20
9.120308
 30
0.0
 10
5.799357
 20
9.078253
 30
0.0
  0
SPLINE
  5
114
100
AcDbEntity
  8
0
 62
7
100
AcDbSpline
 70
8
 71
3
 72
8
 73
4
 74
0
 40
0
 40
0
 40
0
 40
0
 40
1
 40
1
 40
1
 40
1
 10
5.799357
 20
9.078253
 30
0.0
 10
5.757304
 20
9.033733
 30
0.0
 10
5.705357
 20
9.011473
 30
0.0
 10
5.643515
 20
9.011473
 30
0.0
  0
LWPOLYLINE
  5
115
100
AcDbEntity
  8
0
 62
7
100
AcDbPolyline
 90
3
 70
0
 10
7.213048
 20
9.126486
 30
0.0
 10
5.866145
 20
11.597688
 30
0.0
 10
5.866145
 20
9.234095
 30
0.0
  0
SPLINE
  5
116
100
AcDbEntity
  8
0
 62
7
100
AcDbSpline
 70
8
 71
3
 72
8
 73
4
 74
0
 40
0
 40
0
 40
0
 40
0
 40
1
 40
1
 40
1
 40
1
 10
9.384104
 20
12.428838
 30
0.0
 10
9.559734
 20
12.428838
 30
0.0
 10
9.720523
 20
12.392970
 30
0.0
 10
9.866469
 20
12.321233
 30
0.0
  0
SPLINE
  5
117
100
AcDbEntity
  8
0
 62
7
100
AcDbSpline
 70
8
 71
3
 72
8
 73
4
 74
0
 40
0
 40
0
 40
0
 40
0
 40
1
 40
1
 40
1
 40
1
 10
9.866469
 20
12.321233
 30
0.0
 10
10.014890
 20
12.251970
 30
0.0
 10
10.137337
 20
12.159207
 30
0.0
 10
10.233810
 20
12.042945
 30
0.0
  0
SPLINE
  5
118
100
AcDbEntity
  8
0
 62
7
100
AcDbSpline
 70
8
 71
3
 72
8
 73
4
 74
0
 40
0
 40
0
 40
0
 40
0
 40
1
 40
1
 40
1
 40
1
 10
10.233810
 20
12.042945
 30
0.0
 10
10.330283
 20
11.926683
 30
0.0
 10
10.411914
 20
11.793105
 30
0.0
 10
10.478703
 20
11.642211
 30
0.0
  0
SPLINE
  5
119
100
AcDbEntity
  8
0
 62
7
100
AcDbSpline
 70
8
 71
3
 72
8
 73
4
 74
0
 40
0
 40
0
 40
0
 40
0
 40
1
 40
1
 40
1
 40
1
 10
10.478703
 20
11.642211
 30
0.0
 10
10.547966
 20
11.491316
 30
0.0
 10
10.597439
 20
11.337948
 30
0.0
 10
10.627124
 20
11.182107
 30
0.0
  0
SPLINE
  5
11a
100
AcDbEntity
  8
0
 62
7
100
AcDbSpline
 70
8
 71
3
 72
8
 73
4
 74
0
 40
0
 40
0
 40
0
 40
0
 40
1
 40
1
 40
1
 40
1
 10
10.627124
 20
11.182107
 30
0.0
 10
10.656804
 20
11.028740
 30
0.0
 10
10.671644
 20
10.874136
 30
0.0
 10
10.671644
 20
10.718294
 30
0.0
  0
SPLINE
  5
11b
100
AcDbEntity
  8
0
 62
7
100
AcDbSpline
 70
8
 71
3
 72
8
 73
4
 74
0
 40
0
 40
0
 40
0
 40
0
 40
1
 40
1
 40
1
 40
1
 10
10.671644
 20
10.718294
 30
0.0
 10
10.671644
 20
10.562453
 30
0.0
 10
10.655567
 20
10.406612
 30
0.0
 10
10.623414
 20
10.250771
 30
0.0
  0
SPLINE
  5
11c
100
AcDbEntity
  8
0
 62
7
100
AcDbSpline
 70
8
 71
3
 72
8
 73
4
 74
0
 40
0
 40
0
 40
0
 40
0
 40
1
 40
1
 40
1
 40
1
 10
10.623414
 20
10.250771
 30
0.0
 10
10.593734
 20
10.097403
 30
0.0
 10
10.544261
 20
9.945272
 30
0.0
 10
10.474994
 20
9.794378
 30
0.0
  0
SPLINE
  5
11d
100
AcDbEntity
  8
0
 62
7
100
AcDbSpline
 70
8
 71
3
 72
8
 73
4
 74
0
 40
0
 40
0
 40
0
 40
0
 40
1
 40
1
 40
1
 40
1
 10
10.474994
 20
9.794378
 30
0.0
 10
10.408203
 20
9.643484
 30
0.0
 10
10.326572
 20
9.509906
 30
0.0
 10
10.230100
 20
9.393643
 30
0.0
  0
SPLINE
  5
11e
100
AcDbEntity
  8
0
 62
7
100
AcDbSpline
 70
8
 71
3
 72
8
 73
4
 74
0
 40
0
 40
0
 40
0
 40
0
 40
1
 40
1
 40
1
 40
1
 10
10.230100
 20
9.393643
 30
0.0
 10
10.133627
 20
9.279854
 30
0.0
 10
10.011180
 20
9.188328
 30
0.0
 10
9.862761
 20
9.119065
 30
0.0
  0
SPLINE
  5
11f
100
AcDbEntity
  8
0
 62
7
100
AcDbSpline
 70
8
 71
3
 72
8
 73
4
 74
0
 40
0
 40
0
 40
0
 40
0
 40
1
 40
1
 40
1
 40
1
 10
9.862761
 20
9.119065
 30
0.0
 10
9.716813
 20
9.047329
 30
0.0
 10
9.556024
 20
9.011461
 30
0.0
 10
9.380394
 20
9.011461
 30
0.0
  0
SPLINE
  5
120
100
AcDbEntity
  8
0
 62
7
100
AcDbSpline
 70
8
 71
3
 72
8
 73
4
 74
0
 40
0
 40
0
 40
0
 40
0
 40
1
 40
1
 40
1
 40
1
 10
9.380394
 20
9.011461
 30
0.0
 10
9.204763
 20
9.011461
 30
0.0
 10
9.042738
 20
9.047329
 30
0.0
 10
8.894318
 20
9.119065
 30
0.0
  0
SPLINE
  5
121
100
AcDbEntity
  8
0
 62
7
100
AcDbSpline
 70
8
 71
3
 72
8
 73
4
 74
0
 40
0
 40
0
 40
0
 40
0
 40
1
 40
1
 40
1
 40
1
 10
8.894318
 20
9.119065
 30
0.0
 10
8.748371
 20
9.188328
 30
0.0
 10
8.625925
 20
9.279854
 30
0.0
 10
8.526978
 20
9.393643
 30
0.0
  0
SPLINE
  5
122
100
AcDbEntity
  8
0
 62
7
100
AcDbSpline
 70
8
 71
3
 72
8
 73
4
 74
0
 40
0
 40
0
 40
0
 40
0
 40
1
 40
1
 40
1
 40
1
 10
8.526978
 20
9.393643
 30
0.0
 10
8.428031
 20
9.509906
 30
0.0
 10
8.343926
 20
9.642247
 30
0.0
 10
8.274663
 20
9.790667
 30
0.0
  0
SPLINE
  5
123
100
AcDbEntity
  8
0
 62
7
100
AcDbSpline
 70
8
 71
3
 72
8
 73
4
 74
0
 40
0
 40
0
 40
0
 40
0
 40
1
 40
1
 40
1
 40
1
 10
8.274663
 20
9.790667
 30
0.0
 10
8.207874
 20
9.941561
 30
0.0
 10
8.158401
 20
10.094929
 30
0.0
 10
8.126243
 20
10.250771
 30
0.0
  0
SPLINE
  5
124
100
AcDbEntity
  8
0
 62
7
100
AcDbSpline
 70
8
 71
3
 72
8
 73
4
 74
0
 40
0
 40
0
 40
0
 40
0
 40
1
 40
1
 40
1
 40
1
 10
8.126243
 20
10.250771
 30
0.0
 10
8.096559
 20
10.406612
 30
0.0
 10
8.081717
 20
10.562453
 30
0.0
 10
8.081717
 20
10.718294
 30
0.0
  0
SPLINE
  5
125
100
AcDbEntity
  8
0
 62
7
100
AcDbSpline
 70
8
 71
3
 72
8
 73
4
 74
0
 40
0
 40
0
 40
0
 40
0
 40
1
 40
1
 40
1
 40
1
 10
8.081717
 20
10.718294
 30
0.0
 10
8.081717
 20
10.916188
 30
0.0
 10
8.107692
 20
11.111608
 30
0.0
 10
8.159641
 20
11.304554
 30
0.0
  0
SPLINE
  5
126
100
AcDbEntity
  8
0
 62
7
100
AcDbSpline
 70
8
 71
3
 72
8
 73
4
 74
0
 40
0
 40
0
 40
0
 40
0
 40
1
 40
1
 40
1
 40
1
 10
8.159641
 20
11.304554
 30
0.0
 10
8.211591
 20
11.499974
 30
0.0
 10
8.287038
 20
11.683026
 30
0.0
 10
8.385983
 20
11.853710
 30
0.0
  0
SPLINE
  5
127
100
AcDbEntity
  8
0
 62
7
100
AcDbSpline
 70
8
 71
3
 72
8
 73
4
 74
0
 40
0
 40
0
 40
0
 40
0
 40
1
 40
1
 40
1
 40
1
 10
8.385983
 20
11.853710
 30
0.0
 10
8.487404
 20
12.024393
 30
0.0
 10
8.624693
 20
12.162918
 30
0.0
 10
8.797849
 20
12.269286
 30
0.0
  0
SPLINE
  5
128
100
AcDbEntity
  8
0
 62
7
100
AcDbSpline
 70
8
 71
3
 72
8
 73
4
 74
0
 40
0
 40
0
 40
0
 40
0
 40
1
 40
1
 40
1
 40
1
 10
8.797849
 20
12.269286
 30
0.0
 10
8.971006
 20
12.375654
 30
0.0
 10
9.166426
 20
12.428838
 30
0.0
 10
9.384110
 20
12.428838
 30
0.0
  0
LWPOLYLINE
  5
129
100
AcDbEntity
  8
0
 62
7
100
AcDbPolyline
 90
1
 70
1
 10
5.643515
 20
9.011473
 30
0.0
  0
SPLINE
  5
12a
100
AcDbEntity
  8
0
 62
7
100
AcDbSpline
 70
8
 71
3
 72
8
 73
4
 74
0
 40
0
 40
0
 40
0
 40
0
 40
1
 40
1
 40
1
 40
1
 10
9.384104
 20
11.983577
 30
0.0
 10
9.131789
 20
11.983577
 30
0.0
 10
8.925237
 20
11.859894
 30
0.0
 10
8.764449
 20
11.612526
 30
0.0
  0
SPLINE
  5
12b
100
AcDbEntity
  8
0
 62
7
100
AcDbSpline
 70
8
 71
3
 72
8
 73
4
 74
0
 40
0
 40
0
 40
0
 40
0
 40
1
 40
1
 40
1
 40
1
 10
8.764449
 20
11.612526
 30
0.0
 10
8.606134
 20
11.365159
 30
0.0
 10
8.526976
 20
11.067081
 30
0.0
 10
8.526976
 20
10.718294
 30
0.0
  0
SPLINE
  5
12c
100
AcDbEntity
  8
0
 62
7
100
AcDbSpline
 70
8
 71
3
 72
8
 73
4
 74
0
 40
0
 40
0
 40
0
 40
0
 40
1
 40
1
 40
1
 40
1
 10
8.526976
 20
10.718294
 30
0.0
 10
8.526976
 20
10.369506
 30
0.0
 10
8.606134
 20
10.071429
 30
0.0
 10
8.764449
 20
9.824062
 30
0.0
  0
SPLINE
  5
12d
100
AcDbEntity
  8
0
 62
7
100
AcDbSpline
 70
8
 71
3
 72
8
 73
4
 74
0
 40
0
 40
0
 40
0
 40
0
 40
1
 40
1
 40
1
 40
1
 10
8.764449
 20
9.824062
 30
0.0
 10
8.922764
 20
9.579168
 30
0.0
 10
9.128079
 20
9.456721
 30
0.0
 10
9.380393
 20
9.456721
 30
0.0
  0
SPLINE
  5
12e
100
AcDbEntity
  8
0
 62
7
100
AcDbSpline
 70
8
 71
3
 72
8
 73
4
 74
0
 40
0
 40
0
 40
0
 40
0
 40
1
 40
1
 40
1
 40
1
 10
9.380393
 20
9.456721
 30
0.0
 10
9.630234
 20
9.456721
 30
0.0
 10
9.833075
 20
9.579168
 30
0.0
 10
9.988916
 20
9.824062
 30
0.0
  0
SPLINE
  5
12f
100
AcDbEntity
  8
0
 62
7
100
AcDbSpline
 70
8
 71
3
 72
8
 73
4
 74
0
 40
0
 40
0
 40
0
 40
0
 40
1
 40
1
 40
1
 40
1
 10
9.988916
 20
9.824062
 30
0.0
 10
10.147231
 20
10.071429
 30
0.0
 10
10.226389
 20
10.369506
 30
0.0
 10
10.226389
 20
10.718294
 30
0.0
  0
SPLINE
  5
130
100
AcDbEntity
  8
0
 62
7
100
AcDbSpline
 70
8
 71
3
 72
8
 73
4
 74
0
 40
0
 40
0
 40
0
 40
0
 40
1
 40
1
 40
1
 40
1
 10
10.226389
 20
10.718294
 30
0.0
 10
10.226389
 20
11.069555
 30
0.0
 10
10.148468
 20
11.367633
 30
0.0
 10
9.992627
 20
11.612526
 30
0.0
  0
SPLINE
  5
131
100
AcDbEntity
  8
0
 62
7
100
AcDbSpline
 70
8
 71
3
 72
8
 73
4
 74
0
 40
0
 40
0
 40
0
 40
0
 40
1
 40
1
 40
1
 40
1
 10
9.992627
 20
11.612526
 30
0.0
 10
9.836786
 20
11.859894
 30
0.0
 10
9.633945
 20
11.983577
 30
0.0
 10
9.384104
 20
11.983577
 30
0.0
  0
LWPOLYLINE
  5
132
100
AcDbEntity
  8
0
 62
7
100
AcDbPolyline
 90
1
 70
1
 10
9.384110
 20
12.428838
 30
0.0
  0
LWPOLYLINE
  5
133
100
AcDbEntity
  8
0
 62
7
100
AcDbPolyline
 90
1
 70
1
 10
9.384104
 20
11.983577
 30
0.0
  0
SPLINE
  5
134
100
AcDbEntity
  8
0
 62
7
100
AcDbSpline
 70
8
 71
3
 72
8
 73
4
 74
0
 40
0
 40
0
 40
0
 40
0
 40
1
 40
1
 40
1
 40
1
 10
11.443866
 20
10.024429
 30
0.0
 10
11.451286
 20
9.871062
 30
0.0
 10
11.525496
 20
9.737483
 30
0.0
 10
11.666496
 20
9.623694
 30
0.0
  0
SPLINE
  5
135
100
AcDbEntity
  8
0
 62
7
100
AcDbSpline
 70
8
 71
3
 72
8
 73
4
 74
0
 40
0
 40
0
 40
0
 40
0
 40
1
 40
1
 40
1
 40
1
 10
11.666496
 20
9.623694
 30
0.0
 10
11.807495
 20
9.512379
 30
0.0
 10
11.975705
 20
9.456721
 30
0.0
 10
12.171125
 20
9.456721
 30
0.0
  0
SPLINE
  5
136
100
AcDbEntity
  8
0
 62
7
100
AcDbSpline
 70
8
 71
3
 72
8
 73
4
 74
0
 40
0
 40
0
 40
0
 40
0
 40
1
 40
1
 40
1
 40
1
 10
12.171125
 20
9.456721
 30
0.0
 10
12.376440
 20
9.456721
 30
0.0
 10
12.552071
 20
9.512379
 30
0.0
 10
12.698017
 20
9.623694
 30
0.0
  0
SPLINE
  5
137
100
AcDbEntity
  8
0
 62
7
100
AcDbSpline
 70
8
 71
3
 72
8
 73
4
 74
0
 40
0
 40
0
 40
0
 40
0
 40
1
 40
1
 40
1
 40
1
 10
12.698017
 20
9.623694
 30
0.0
 10
12.843964
 20
9.737483
 30
0.0
 10
12.915701
 20
9.869825
 30
0.0
 10
12.913227
 20
10.020719
 30
0.0
  0
LWPOLYLINE
  5
138
100
AcDbEntity
  8
0
 62
7
100
AcDbPolyline
 90
2
 70
0
 10
11.458716
 20
12.202497
 30
0.0
 10
11.443866
 20
10.024429
 30
0.0
  0
SPLINE
  5
139
100
AcDbEntity
  8
0
 62
7
100
AcDbSpline
 70
8
 71
3
 72
8
 73
4
 74
0
 40
0
 40
0
 40
0
 40
0
 40
1
 40
1
 40
1
 40
1
 10
12.913227
 20
12.202497
 30
0.0
 10
12.913227
 20
12.264338
 30
0.0
 10
12.934254
 20
12.316285
 30
0.0
 10
12.976307
 20
12.358339
 30
0.0
  0
SPLINE
  5
13a
100
AcDbEntity
  8
0
 62
7
100
AcDbSpline
 70
8
 71
3
 72
8
 73
4
 74
0
 40
0
 40
0
 40
0
 40
0
 40
1
 40
1
 40
1
 40
1
 10
12.976307
 20
12.358339
 30
0.0
 10
13.020827
 20
12.402864
 30
0.0
 10
13.074011
 20
12.425127
 30
0.0
 10
13.135858
 20
12.425127
 30
0.0
  0
SPLINE
  5
13b
100
AcDbEntity
  8
0
 62
7
100
AcDbSpline
 70
8
 71
3
 72
8
 73
4
 74
0
 40
0
 40
0
 40
0
 40
0
 40
1
 40
1
 40
1
 40
1
 10
13.135858
 20
12.425127
 30
0.0
 10
13.197698
 20
12.425127
 30
0.0
 10
13.249645
 20
12.402864
 30
0.0
 10
13.291700
 20
12.358339
 30
0.0
  0
SPLINE
  5
13c
100
AcDbEntity
  8
0
 62
7
100
AcDbSpline
 70
8
 71
3
 72
8
 73
4
 74
0
 40
0
 40
0
 40
0
 40
0
 40
1
 40
1
 40
1
 40
1
 10
13.291700
 20
12.358339
 30
0.0
 10
13.336220
 20
12.316286
 30
0.0
 10
13.358480
 20
12.264339
 30
0.0
 10
13.358480
 20
12.202497
 30
0.0
  0
LWPOLYLINE
  5
13d
100
AcDbEntity
  8
0
 62
7
100
AcDbPolyline
 90
2
 70
0
 10
12.913227
 20
10.020719
 30
0.0
 10
12.913227
 20
12.202497
 30
0.0
  0
SPLINE
  5
13e
100
AcDbEntity
  8
0
 62
7
100
AcDbSpline
 70
8
 71
3
 72
8
 73
4
 74
0
 40
0
 40
0
 40
0
 40
0
 40
1
 40
1
 40
1
 40
1
 10
13.358480
 20
10.024429
 30
0.0
 10
13.360947
 20
9.868588
 30
0.0
 10
13.326315
 20
9.725115
 30
0.0
 10
13.254586
 20
9.594010
 30
0.0
  0
SPLINE
  5
13f
100
AcDbEntity
  8
0
 62
7
100
AcDbSpline
 70
8
 71
3
 72
8
 73
4
 74
0
 40
0
 40
0
 40
0
 40
0
 40
1
 40
1
 40
1
 40
1
 10
13.254586
 20
9.594010
 30
0.0
 10
13.185323
 20
9.465379
 30
0.0
 10
13.092560
 20
9.359011
 30
0.0
 10
12.976298
 20
9.274906
 30
0.0
  0
SPLINE
  5
140
100
AcDbEntity
  8
0
 62
7
100
AcDbSpline
 70
8
 71
3
 72
8
 73
4
 74
0
 40
0
 40
0
 40
0
 40
0
 40
1
 40
1
 40
1
 40
1
 10
12.976298
 20
9.274906
 30
0.0
 10
12.862509
 20
9.190802
 30
0.0
 10
12.735114
 20
9.126487
 30
0.0
 10
12.594115
 20
9.081961
 30
0.0
  0
SPLINE
  5
141
100
AcDbEntity
  8
0
 62
7
100
AcDbSpline
 70
8
 71
3
 72
8
 73
4
 74
0
 40
0
 40
0
 40
0
 40
0
 40
1
 40
1
 40
1
 40
1
 10
12.594115
 20
9.081961
 30
0.0
 10
12.453116
 20
9.034961
 30
0.0
 10
12.312117
 20
9.011461
 30
0.0
 10
12.171118
 20
9.011461
 30
0.0
  0
SPLINE
  5
142
100
AcDbEntity
  8
0
 62
7
100
AcDbSpline
 70
8
 71
3
 72
8
 73
4
 74
0
 40
0
 40
0
 40
0
 40
0
 40
1
 40
1
 40
1
 40
1
 10
12.171118
 20
9.011461
 30
0.0
 10
11.978171
 20
9.011461
 30
0.0
 10
11.795119
 20
9.051040
 30
0.0
 10
11.621962
 20
9.130197
 30
0.0
  0
SPLINE
  5
143
100
AcDbEntity
  8
0
 62
7
100
AcDbSpline
 70
8
 71
3
 72
8
 73
4
 74
0
 40
0
 40
0
 40
0
 40
0
 40
1
 40
1
 40
1
 40
1
 10
11.621962
 20
9.130197
 30
0.0
 10
11.448805
 20
9.209354
 30
0.0
 10
11.302859
 20
9.326854
 30
0.0
 10
11.184123
 20
9.482695
 30
0.0
  0
SPLINE
  5
144
100
AcDbEntity
  8
0
 62
7
100
AcDbSpline
 70
8
 71
3
 72
8
 73
4
 74
0
 40
0
 40
0
 40
0
 40
0
 40
1
 40
1
 40
1
 40
1
 10
11.184123
 20
9.482695
 30
0.0
 10
11.067860
 20
9.638537
 30
0.0
 10
11.006018
 20
9.816641
 30
0.0
 10
10.998597
 20
10.017008
 30
0.0
  0
LWPOLYLINE
  5
145
100
AcDbEntity
  8
0
 62
7
100
AcDbPolyline
 90
2
 70
0
 10
13.358480
 20
12.202497
 30
0.0
 10
13.358480
 20
10.024429
 30
0.0
  0
SPLINE
  5
146
100
AcDbEntity
  8
0
 62
7
100
AcDbSpline
 70
8
 71
3
 72
8
 73
4
 74
0
 40
0
 40
0
 40
0
 40
0
 40
1
 40
1
 40
1
 40
1
 10
11.013447
 20
12.202497
 30
0.0
 10
11.015914
 20
12.264339
 30
0.0
 10
11.038174
 20
12.316286
 30
0.0
 10
11.080227
 20
12.358339
 30
0.0
  0
SPLINE
  5
147
100
AcDbEntity
  8
0
 62
7
100
AcDbSpline
 70
8
 71
3
 72
8
 73
4
 74
0
 40
0
 40
0
 40
0
 40
0
 40
1
 40
1
 40
1
 40
1
 10
11.080227
 20
12.358339
 30
0.0
 10
11.124754
 20
12.402865
 30
0.0
 10
11.176701
 20
12.425127
 30
0.0
 10
11.236069
 20
12.425127
 30
0.0
  0
SPLINE
  5
148
100
AcDbEntity
  8
0
 62
7
100
AcDbSpline
 70
8
 71
3
 72
8
 73
4
 74
0
 40
0
 40
0
 40
0
 40
0
 40
1
 40
1
 40
1
 40
1
 10
11.236069
 20
12.425127
 30
0.0
 10
11.297909
 20
12.425127
 30
0.0
 10
11.351093
 20
12.402865
 30
0.0
 10
11.395621
 20
12.358339
 30
0.0
  0
SPLINE
  5
149
100
AcDbEntity
  8
0
 62
7
100
AcDbSpline
 70
8
 71
3
 72
8
 73
4
 74
0
 40
0
 40
0
 40
0
 40
0
 40
1
 40
1
 40
1
 40
1
 10
11.395621
 20
12.358339
 30
0.0
 10
11.440141
 20
12.313814
 30
0.0
 10
11.461168
 20
12.261867
 30
0.0
 10
11.458701
 20
12.202497
 30
0.0
  0
LWPOLYLINE
  5
14a
100
AcDbEntity
  8
0
 62
7
100
AcDbPolyline
 90
2
 70
0
 10
10.998597
 20
10.017008
 30
0.0
 10
11.013447
 20
12.202497
 30
0.0
  0
SPLINE
  5
14b
100
AcDbEntity
  8
0
 62
7
100
AcDbSpline
 70
8
 71
3
 72
8
 73
4
 74
0
 40
0
 40
0
 40
0
 40
0
 40
1
 40
1
 40
1
 40
1
 10
13.908097
 20
9.011461
 30
0.0
 10
13.846257
 20
9.011461
 30
0.0
 10
13.793073
 20
9.033721
 30
0.0
 10
13.748545
 20
9.078241
 30
0.0
  0
SPLINE
  5
14c
100
AcDbEntity
  8
0
 62
7
100
AcDbSpline
 70
8
 71
3
 72
8
 73
4
 74
0
 40
0
 40
0
 40
0
 40
0
 40
1
 40
1
 40
1
 40
1
 10
13.748545
 20
9.078241
 30
0.0
 10
13.706492
 20
9.120294
 30
0.0
 10
13.685465
 20
9.172241
 30
0.0
 10
13.685465
 20
9.234081
 30
0.0
  0
LWPOLYLINE
  5
14d
100
AcDbEntity
  8
0
 62
7
100
AcDbPolyline
 90
1
 70
1
 10
11.458701
 20
12.202497
 30
0.0
  0
SPLINE
  5
14e
100
AcDbEntity
  8
0
 62
7
100
AcDbSpline
 70
8
 71
3
 72
8
 73
4
 74
0
 40
0
 40
0
 40
0
 40
0
 40
1
 40
1
 40
1
 40
1
 10
13.685465
 20
12.202496
 30
0.0
 10
13.685465
 20
12.266811
 30
0.0
 10
13.708965
 20
12.319995
 30
0.0
 10
13.755965
 20
12.362048
 30
0.0
  0
SPLINE
  5
14f
100
AcDbEntity
  8
0
 62
7
100
AcDbSpline
 70
8
 71
3
 72
8
 73
4
 74
0
 40
0
 40
0
 40
0
 40
0
 40
1
 40
1
 40
1
 40
1
 10
13.755965
 20
12.362048
 30
0.0
 10
13.805438
 20
12.404100
 30
0.0
 10
13.856149
 20
12.425127
 30
0.0
 10
13.908097
 20
12.425127
 30
0.0
  0
LWPOLYLINE
  5
150
100
AcDbEntity
  8
0
 62
7
100
AcDbPolyline
 90
2
 70
0
 10
13.685465
 20
9.234081
 30
0.0
 10
13.685465
 20
12.202496
 30
0.0
  0
SPLINE
  5
151
100
AcDbEntity
  8
0
 62
7
100
AcDbSpline
 70
8
 71
3
 72
8
 73
4
 74
0
 40
0
 40
0
 40
0
 40
0
 40
1
 40
1
 40
1
 40
1
 10
14.056527
 20
12.425127
 30
0.0
 10
14.096107
 20
12.425127
 30
0.0
 10
14.133212
 20
12.413994
 30
0.0
 10
14.167842
 20
12.391729
 30
0.0
  0
SPLINE
  5
152
100
AcDbEntity
  8
0
 62
7
100
AcDbSpline
 70
8
 71
3
 72
8
 73
4
 74
0
 40
0
 40
0
 40
0
 40
0
 40
1
 40
1
 40
1
 40
1
 10
14.167842
 20
12.391729
 30
0.0
 10
14.204949
 20
12.369463
 30
0.0
 10
14.232159
 20
12.342252
 30
0.0
 10
14.249472
 20
12.310096
 30
0.0
  0
LWPOLYLINE
  5
153
100
AcDbEntity
  8
0
 62
7
100
AcDbPolyline
 90
3
 70
0
 10
13.908097
 20
12.425127
 30
0.0
 10
13.967467
 20
12.425127
 30
0.0
 10
14.056527
 20
12.425127
 30
0.0
  0
SPLINE
  5
154
100
AcDbEntity
  8
0
 62
7
100
AcDbSpline
 70
8
 71
3
 72
8
 73
4
 74
0
 40
0
 40
0
 40
0
 40
0
 40
1
 40
1
 40
1
 40
1
 10
15.570423
 20
12.209912
 30
0.0
 10
15.567956
 20
12.269280
 30
0.0
 10
15.588983
 20
12.321227
 30
0.0
 10
15.633503
 20
12.365754
 30
0.0
  0
SPLINE
  5
155
100
AcDbEntity
  8
0
 62
7
100
AcDbSpline
 70
8
 71
3
 72
8
 73
4
 74
0
 40
0
 40
0
 40
0
 40
0
 40
1
 40
1
 40
1
 40
1
 10
15.633503
 20
12.365754
 30
0.0
 10
15.678023
 20
12.410279
 30
0.0
 10
15.729971
 20
12.432542
 30
0.0
 10
15.789346
 20
12.432542
 30
0.0
  0
SPLINE
  5
156
100
AcDbEntity
  8
0
 62
7
100
AcDbSpline
 70
8
 71
3
 72
8
 73
4
 74
0
 40
0
 40
0
 40
0
 40
0
 40
1
 40
1
 40
1
 40
1
 10
15.789346
 20
12.432542
 30
0.0
 10
15.851186
 20
12.432542
 30
0.0
 10
15.903133
 20
12.410279
 30
0.0
 10
15.945186
 20
12.365754
 30
0.0
  0
SPLINE
  5
157
100
AcDbEntity
  8
0
 62
7
100
AcDbSpline
 70
8
 71
3
 72
8
 73
4
 74
0
 40
0
 40
0
 40
0
 40
0
 40
1
 40
1
 40
1
 40
1
 10
15.945186
 20
12.365754
 30
0.0
 10
15.989706
 20
12.323701
 30
0.0
 10
16.013206
 20
12.271754
 30
0.0
 10
16.015686
 20
12.209912
 30
0.0
  0
LWPOLYLINE
  5
158
100
AcDbEntity
  8
0
 62
7
100
AcDbPolyline
 90
3
 70
0
 10
14.249472
 20
12.310096
 30
0.0
 10
15.574123
 20
9.879715
 30
0.0
 10
15.570423
 20
12.209912
 30
0.0
  0
SPLINE
  5
159
100
AcDbEntity
  8
0
 62
7
100
AcDbSpline
 70
8
 71
3
 72
8
 73
4
 74
0
 40
0
 40
0
 40
0
 40
0
 40
1
 40
1
 40
1
 40
1
 10
16.023186
 20
9.234085
 30
0.0
 10
16.023186
 20
9.182138
 30
0.0
 10
16.000926
 20
9.132665
 30
0.0
 10
15.956406
 20
9.085666
 30
0.0
  0
SPLINE
  5
15a
100
AcDbEntity
  8
0
 62
7
100
AcDbSpline
 70
8
 71
3
 72
8
 73
4
 74
0
 40
0
 40
0
 40
0
 40
0
 40
1
 40
1
 40
1
 40
1
 10
15.956406
 20
9.085666
 30
0.0
 10
15.914353
 20
9.036193
 30
0.0
 10
15.862405
 20
9.011456
 30
0.0
 10
15.800564
 20
9.011456
 30
0.0
  0
LWPOLYLINE
  5
15b
100
AcDbEntity
  8
0
 62
7
100
AcDbPolyline
 90
2
 70
0
 10
16.015686
 20
12.209912
 30
0.0
 10
16.023186
 20
9.234085
 30
0.0
  0
SPLINE
  5
15c
100
AcDbEntity
  8
0
 62
7
100
AcDbSpline
 70
8
 71
3
 72
8
 73
4
 74
0
 40
0
 40
0
 40
0
 40
0
 40
1
 40
1
 40
1
 40
1
 10
15.674404
 20
9.011456
 30
0.0
 10
15.634824
 20
9.011456
 30
0.0
 10
15.596482
 20
9.022589
 30
0.0
 10
15.559378
 20
9.044856
 30
0.0
  0
SPLINE
  5
15d
100
AcDbEntity
  8
0
 62
7
100
AcDbSpline
 70
8
 71
3
 72
8
 73
4
 74
0
 40
0
 40
0
 40
0
 40
0
 40
1
 40
1
 40
1
 40
1
 10
15.559378
 20
9.044856
 30
0.0
 10
15.524745
 20
9.064643
 30
0.0
 10
15.497535
 20
9.091853
 30
0.0
 10
15.477748
 20
9.126486
 30
0.0
  0
LWPOLYLINE
  5
15e
100
AcDbEntity
  8
0
 62
7
100
AcDbPolyline
 90
3
 70
0
 10
15.800564
 20
9.011456
 30
0.0
 10
15.744904
 20
9.011456
 30
0.0
 10
15.674404
 20
9.011456
 30
0.0
  0
SPLINE
  5
15f
100
AcDbEntity
  8
0
 62
7
100
AcDbSpline
 70
8
 71
3
 72
8
 73
4
 74
0
 40
0
 40
0
 40
0
 40
0
 40
1
 40
1
 40
1
 40
1
 10
14.130808
 20
9.234089
 30
0.0
 10
14.130808
 20
9.172249
 30
0.0
 10
14.108545
 20
9.120302
 30
0.0
 10
14.064018
 20
9.078247
 30
0.0
  0
SPLINE
  5
160
100
AcDbEntity
  8
0
 62
7
100
AcDbSpline
 70
8
 71
3
 72
8
 73
4
 74
0
 40
0
 40
0
 40
0
 40
0
 40
1
 40
1
 40
1
 40
1
 10
14.064018
 20
9.078247
 30
0.0
 10
14.021965
 20
9.033727
 30
0.0
 10
13.970018
 20
9.011467
 30
0.0
 10
13.908178
 20
9.011467
 30
0.0
  0
LWPOLYLINE
  5
161
100
AcDbEntity
  8
0
 62
7
100
AcDbPolyline
 90
3
 70
0
 10
15.477748
 20
9.126486
 30
0.0
 10
14.130808
 20
11.597681
 30
0.0
 10
14.130808
 20
9.234089
 30
0.0
  0
LWPOLYLINE
  5
162
100
AcDbEntity
  8
0
 62
7
100
AcDbPolyline
 90
1
 70
1
 10
13.908178
 20
9.011467
 30
0.0
  0
ENDSEC
  0
SECTION
  2
OBJECTS
  0
DICTIONARY
  5
C
330
0
100
AcDbDictionary
  3
ACAD_GROUP
350
D
  3
ACAD_MLINESTYLE
350
17
  0
DICTIONARY
  5
D
330
C
100
AcDbDictionary
  0
DICTIONARY
  5
1A
330
C
100
AcDbDictionary
  0
DICTIONARY
  5
17
330
C
100
AcDbDictionary
  3
STANDARD
350
18
  0
DICTIONARY
  5
19
330
C
100
AcDbDictionary
  0
ENDSEC
  0
EOF
