  0
SECTION
  2
HEADER
  9
$ACADVER
  1
AC1014
  9
$HANDSEED
  5
FFFF
  9
$INSUNITS
 70
     4
  9
$MEASUREMENT
 70
     1
  0
ENDSEC
  0
SECTION
  2
TABLES
  0
TABLE
  2
VPORT
  5
8
330
0
100
AcDbSymbolTable
 70
     4
  0
VPORT
  5
2E
330
8
100
AcDbSymbolTableRecord
100
AcDbViewportTableRecord
  2
*ACTIVE
 70
     0
 10
0.0
 20
0.0
 11
1.0
 21
1.0
 12
210.0
 22
148.5
 13
0.0
 23
0.0
 14
10.0
 24
10.0
 15
10.0
 25
10.0
 16
0.0
 26
0.0
 36
1.0
 17
0.0
 27
0.0
 37
0.0
 40
341.0
 41
1.24
 42
50.0
 43
0.0
 44
0.0
 50
0.0
 51
0.0
 71
     0
 72
   100
 73
     1
 74
     3
 75
     0
 76
     0
 77
     0
 78
     0
  0
ENDTAB
  0
TABLE
  2
LTYPE
  5
5
330
0
100
AcDbSymbolTable
 70
     1
  0
LTYPE
  5
14
330
5
100
AcDbSymbolTableRecord
100
AcDbLinetypeTableRecord
  2
BYBLOCK
 70
     0
  3

 72
    65
 73
     0
 40
0.0
  0
LTYPE
  5
15
330
5
100
AcDbSymbolTableRecord
100
AcDbLinetypeTableRecord
  2
BYLAYER
 70
     0
  3

 72
    65
 73
     0
 40
0.0
  0
LTYPE
  5
16
330
5
100
AcDbSymbolTableRecord
100
AcDbLinetypeTableRecord
  2
CONTINUOUS
 70
     0
  3
Solid line
 72
    65
 73
     0
 40
0.0
  0
ENDTAB
  0
TABLE
  2
LAYER
  5
2
100
AcDbSymbolTable
 70
1
  0
LAYER
  5
50
100
AcDbSymbolTableRecord
100
AcDbLayerTableRecord
  2
0
 70
0
  6
CONTINUOUS
  0
ENDTAB
  0
TABLE
  2
STYLE
  5
3
330
0
100
AcDbSymbolTable
 70
     1
  0
STYLE
  5
11
330
3
100
AcDbSymbolTableRecord
100
AcDbTextStyleTableRecord
  2
STANDARD
 70
     0
 40
0.0
 41
1.0
 50
0.0
 71
     0
 42
2.5
  3
txt
  4

  0
ENDTAB
  0
TABLE
  2
VIEW
  5
6
330
0
100
AcDbSymbolTable
 70
     0
  0
ENDTAB
  0
TABLE
  2
UCS
  5
7
330
0
100
AcDbSymbolTable
 70
     0
  0
ENDTAB
  0
TABLE
  2
APPID
  5
9
330
0
100
AcDbSymbolTable
 70
     2
  0
APPID
  5
12
330
9
100
AcDbSymbolTableRecord
100
AcDbRegAppTableRecord
  2
ACAD
 70
     0
  0
ENDTAB
  0
TABLE
  2
DIMSTYLE
  5
A
330
0
100
AcDbSymbolTable
 70
     1
  0
DIMSTYLE
105
27
330
A
100
AcDbSymbolTableRecord
100
AcDbDimStyleTableRecord
  2
ISO-25
 70
     0
  3

  4

  5

  6

  7

 40
1.0
 41
2.5
 42
0.625
 43
3.75
 44
1.25
 45
0.0
 46
0.0
 47
0.0
 48
0.0
140
2.5
141
2.5
142
0.0
143
0.03937007874016
144
1.0
145
0.0
146
1.0
147
0.625
 71
     0
 72
     0
 73
     0
 74
     0
 75
     0
 76
     0
 77
     1
 78
     8
170
     0
171
     3
172
     1
173
     0
174
     0
175
     0
176
     0
177
     0
178
     0
270
     2
271
     2
272
     2
273
     2
274
     3
340
11
275
     0
280
     0
281
     0
282
     0
283
     0
284
     8
285
     0
286
     0
287
     3
288
     0
  0
ENDTAB
  0
TABLE
  2
BLOCK_RECORD
  5
1
330
0
100
AcDbSymbolTable
 70
     1
  0
BLOCK_RECORD
  5
1F
330
1
100
AcDbSymbolTableRecord
100
AcDbBlockTableRecord
  2
*MODEL_SPACE
  0
BLOCK_RECORD
  5
1B
330
1
100
AcDbSymbolTableRecord
100
AcDbBlockTableRecord
  2
*PAPER_SPACE
  0
ENDTAB
  0
ENDSEC
  0
SECTION
  2
BLOCKS
  0
BLOCK
  5
20
330
1F
100
AcDbEntity
  8
0
100
AcDbBlockBegin
  2
*MODEL_SPACE
 70
     0
 10
0.0
 20
0.0
 30
0.0
  3
*MODEL_SPACE
  1

  0
ENDBLK
  5
21
330
1F
100
AcDbEntity
  8
0
100
AcDbBlockEnd
  0
BLOCK
  5
1C
330
1B
100
AcDbEntity
 67
     1
  8
0
100
AcDbBlockBegin
  2
*PAPER_SPACE
  1

  0
ENDBLK
  5
1D
330
1B
100
AcDbEntity
 67
     1
  8
0
100
AcDbBlockEnd
  0
ENDSEC
  0
SECTION
  2
ENTITIES
  0
SPLINE
  5
100
100
AcDbEntity
  8
0
 62
7
100
AcDbSpline
 70
8
 71
3
 72
8
 73
4
 74
0
 40
0
 40
0
 40
0
 40
0
 40
1
 40
1
 40
1
 40
1
 10
7.975784
 20
10.831462
 30
0.0
 10
8.143993
 20
10.831462
 30
0.0
 10
8.287465
 20
10.885883
 30
0.0
 10
8.406202
 20
10.994726
 30
0.0
  0
SPLINE
  5
101
100
AcDbEntity
  8
0
 62
7
100
AcDbSpline
 70
8
 71
3
 72
8
 73
4
 74
0
 40
0
 40
0
 40
0
 40
0
 40
1
 40
1
 40
1
 40
1
 10
8.406202
 20
10.994726
 30
0.0
 10
8.524939
 20
11.103567
 30
0.0
 10
8.584307
 20
11.234671
 30
0.0
 10
8.584307
 20
11.388039
 30
0.0
  0
SPLINE
  5
102
100
AcDbEntity
  8
0
 62
7
100
AcDbSpline
 70
8
 71
3
 72
8
 73
4
 74
0
 40
0
 40
0
 40
0
 40
0
 40
1
 40
1
 40
1
 40
1
 10
8.584307
 20
11.388039
 30
0.0
 10
8.584307
 20
11.571090
 30
0.0
 10
8.533596
 20
11.715800
 30
0.0
 10
8.432175
 20
11.822168
 30
0.0
  0
SPLINE
  5
103
100
AcDbEntity
  8
0
 62
7
100
AcDbSpline
 70
8
 71
3
 72
8
 73
4
 74
0
 40
0
 40
0
 40
0
 40
0
 40
1
 40
1
 40
1
 40
1
 10
8.432175
 20
11.822168
 30
0.0
 10
8.330756
 20
11.928536
 30
0.0
 10
8.178625
 20
11.981720
 30
0.0
 10
7.975784
 20
11.981720
 30
0.0
  0
LWPOLYLINE
  5
104
100
AcDbEntity
  8
0
 62
7
100
AcDbPolyline
 90
2
 70
0
 10
7.233681
 20
10.831462
 30
0.0
 10
7.975784
 20
10.831462
 30
0.0
  0
LWPOLYLINE
  5
105
100
AcDbEntity
  8
0
 62
7
100
AcDbPolyline
 90
3
 70
0
 10
7.975784
 20
11.981720
 30
0.0
 10
7.233681
 20
11.981720
 30
0.0
 10
7.233681
 20
10.831462
 30
0.0
  0
SPLINE
  5
106
100
AcDbEntity
  8
0
 62
7
100
AcDbSpline
 70
8
 71
3
 72
8
 73
4
 74
0
 40
0
 40
0
 40
0
 40
0
 40
1
 40
1
 40
1
 40
1
 10
7.233681
 20
9.235944
 30
0.0
 10
7.233681
 20
9.174104
 30
0.0
 10
7.211419
 20
9.122157
 30
0.0
 10
7.166893
 20
9.080103
 30
0.0
  0
SPLINE
  5
107
100
AcDbEntity
  8
0
 62
7
100
AcDbSpline
 70
8
 71
3
 72
8
 73
4
 74
0
 40
0
 40
0
 40
0
 40
0
 40
1
 40
1
 40
1
 40
1
 10
7.166893
 20
9.080103
 30
0.0
 10
7.124841
 20
9.035576
 30
0.0
 10
7.072893
 20
9.013313
 30
0.0
 10
7.011051
 20
9.013313
 30
0.0
  0
SPLINE
  5
108
100
AcDbEntity
  8
0
 62
7
100
AcDbSpline
 70
8
 71
3
 72
8
 73
4
 74
0
 40
0
 40
0
 40
0
 40
0
 40
1
 40
1
 40
1
 40
1
 10
7.011051
 20
9.013313
 30
0.0
 10
6.949210
 20
9.013313
 30
0.0
 10
6.896026
 20
9.035576
 30
0.0
 10
6.851499
 20
9.080103
 30
0.0
  0
SPLINE
  5
109
100
AcDbEntity
  8
0
 62
7
100
AcDbSpline
 70
8
 71
3
 72
8
 73
4
 74
0
 40
0
 40
0
 40
0
 40
0
 40
1
 40
1
 40
1
 40
1
 10
6.851499
 20
9.080103
 30
0.0
 10
6.809447
 20
9.122156
 30
0.0
 10
6.788420
 20
9.174103
 30
0.0
 10
6.788420
 20
9.235944
 30
0.0
  0
LWPOLYLINE
  5
10a
100
AcDbEntity
  8
0
 62
7
100
AcDbPolyline
 90
2
 70
0
 10
7.233681
 20
10.386201
 30
0.0
 10
7.233681
 20
9.235944
 30
0.0
  0
SPLINE
  5
10b
100
AcDbEntity
  8
0
 62
7
100
AcDbSpline
 70
8
 71
3
 72
8
 73
4
 74
0
 40
0
 40
0
 40
0
 40
0
 40
1
 40
1
 40
1
 40
1
 10
6.788420
 20
12.204350
 30
0.0
 10
6.788420
 20
12.268665
 30
0.0
 10
6.811919
 20
12.321849
 30
0.0
 10
6.858917
 20
12.363902
 30
0.0
  0
SPLINE
  5
10c
100
AcDbEntity
  8
0
 62
7
100
AcDbSpline
 70
8
 71
3
 72
8
 73
4
 74
0
 40
0
 40
0
 40
0
 40
0
 40
1
 40
1
 40
1
 40
1
 10
6.858917
 20
12.363902
 30
0.0
 10
6.908389
 20
12.405954
 30
0.0
 10
6.959099
 20
12.426981
 30
0.0
 10
7.011048
 20
12.426981
 30
0.0
  0
LWPOLYLINE
  5
10d
100
AcDbEntity
  8
0
 62
7
100
AcDbPolyline
 90
3
 70
0
 10
6.788420
 20
9.235944
 30
0.0
 10
6.788420
 20
10.608833
 30
0.0
 10
6.788420
 20
12.204350
 30
0.0
  0
SPLINE
  5
10e
100
AcDbEntity
  8
0
 62
7
100
AcDbSpline
 70
8
 71
3
 72
8
 73
4
 74
0
 40
0
 40
0
 40
0
 40
0
 40
1
 40
1
 40
1
 40
1
 10
7.975780
 20
12.426981
 30
0.0
 10
8.190990
 20
12.426981
 30
0.0
 10
8.380226
 20
12.378744
 30
0.0
 10
8.543488
 20
12.282270
 30
0.0
  0
SPLINE
  5
10f
100
AcDbEntity
  8
0
 62
7
100
AcDbSpline
 70
8
 71
3
 72
8
 73
4
 74
0
 40
0
 40
0
 40
0
 40
0
 40
1
 40
1
 40
1
 40
1
 10
8.543488
 20
12.282270
 30
0.0
 10
8.706750
 20
12.185797
 30
0.0
 10
8.827960
 20
12.059640
 30
0.0
 10
8.907117
 20
11.903799
 30
0.0
  0
SPLINE
  5
110
100
AcDbEntity
  8
0
 62
7
100
AcDbSpline
 70
8
 71
3
 72
8
 73
4
 74
0
 40
0
 40
0
 40
0
 40
0
 40
1
 40
1
 40
1
 40
1
 10
8.907117
 20
11.903799
 30
0.0
 10
8.988749
 20
11.747958
 30
0.0
 10
9.029565
 20
11.576038
 30
0.0
 10
9.029565
 20
11.388039
 30
0.0
  0
SPLINE
  5
111
100
AcDbEntity
  8
0
 62
7
100
AcDbSpline
 70
8
 71
3
 72
8
 73
4
 74
0
 40
0
 40
0
 40
0
 40
0
 40
1
 40
1
 40
1
 40
1
 10
9.029565
 20
11.388039
 30
0.0
 10
9.029565
 20
11.200040
 30
0.0
 10
8.978854
 20
11.028120
 30
0.0
 10
8.877434
 20
10.872278
 30
0.0
  0
SPLINE
  5
112
100
AcDbEntity
  8
0
 62
7
100
AcDbSpline
 70
8
 71
3
 72
8
 73
4
 74
0
 40
0
 40
0
 40
0
 40
0
 40
1
 40
1
 40
1
 40
1
 10
8.877434
 20
10.872278
 30
0.0
 10
8.778487
 20
10.716437
 30
0.0
 10
8.648619
 20
10.596464
 30
0.0
 10
8.487830
 20
10.512360
 30
0.0
  0
SPLINE
  5
113
100
AcDbEntity
  8
0
 62
7
100
AcDbSpline
 70
8
 71
3
 72
8
 73
4
 74
0
 40
0
 40
0
 40
0
 40
0
 40
1
 40
1
 40
1
 40
1
 10
8.487830
 20
10.512360
 30
0.0
 10
8.329515
 20
10.428254
 30
0.0
 10
8.158832
 20
10.386201
 30
0.0
 10
7.975780
 20
10.386201
 30
0.0
  0
LWPOLYLINE
  5
114
100
AcDbEntity
  8
0
 62
7
100
AcDbPolyline
 90
2
 70
0
 10
7.011048
 20
12.426981
 30
0.0
 10
7.975780
 20
12.426981
 30
0.0
  0
LWPOLYLINE
  5
115
100
AcDbEntity
  8
0
 62
7
100
AcDbPolyline
 90
2
 70
0
 10
7.975780
 20
10.386201
 30
0.0
 10
7.233681
 20
10.386201
 30
0.0
  0
SPLINE
  5
116
100
AcDbEntity
  8
0
 62
7
100
AcDbSpline
 70
8
 71
3
 72
8
 73
4
 74
0
 40
0
 40
0
 40
0
 40
0
 40
1
 40
1
 40
1
 40
1
 10
10.710868
 20
11.009566
 30
0.0
 10
10.851867
 20
11.009566
 30
0.0
 10
10.984209
 20
11.059040
 30
0.0
 10
11.107893
 20
11.157987
 30
0.0
  0
SPLINE
  5
117
100
AcDbEntity
  8
0
 62
7
100
AcDbSpline
 70
8
 71
3
 72
8
 73
4
 74
0
 40
0
 40
0
 40
0
 40
0
 40
1
 40
1
 40
1
 40
1
 10
11.107893
 20
11.157987
 30
0.0
 10
11.234051
 20
11.256934
 30
0.0
 10
11.297130
 20
11.368249
 30
0.0
 10
11.297130
 20
11.491933
 30
0.0
  0
SPLINE
  5
118
100
AcDbEntity
  8
0
 62
7
100
AcDbSpline
 70
8
 71
3
 72
8
 73
4
 74
0
 40
0
 40
0
 40
0
 40
0
 40
1
 40
1
 40
1
 40
1
 10
11.297130
 20
11.491933
 30
0.0
 10
11.297130
 20
11.635406
 30
0.0
 10
11.245182
 20
11.752905
 30
0.0
 10
11.141287
 20
11.844430
 30
0.0
  0
SPLINE
  5
119
100
AcDbEntity
  8
0
 62
7
100
AcDbSpline
 70
8
 71
3
 72
8
 73
4
 74
0
 40
0
 40
0
 40
0
 40
0
 40
1
 40
1
 40
1
 40
1
 10
11.141287
 20
11.844430
 30
0.0
 10
11.037393
 20
11.935957
 30
0.0
 10
10.893920
 20
11.981720
 30
0.0
 10
10.710868
 20
11.981720
 30
0.0
  0
LWPOLYLINE
  5
11a
100
AcDbEntity
  8
0
 62
7
100
AcDbPolyline
 90
2
 70
0
 10
9.798085
 20
11.009566
 30
0.0
 10
10.710868
 20
11.009566
 30
0.0
  0
LWPOLYLINE
  5
11b
100
AcDbEntity
  8
0
 62
7
100
AcDbPolyline
 90
3
 70
0
 10
10.710868
 20
11.981720
 30
0.0
 10
9.798085
 20
11.981720
 30
0.0
 10
9.798085
 20
11.009566
 30
0.0
  0
SPLINE
  5
11c
100
AcDbEntity
  8
0
 62
7
100
AcDbSpline
 70
8
 71
3
 72
8
 73
4
 74
0
 40
0
 40
0
 40
0
 40
0
 40
1
 40
1
 40
1
 40
1
 10
9.798085
 20
9.235944
 30
0.0
 10
9.798085
 20
9.174104
 30
0.0
 10
9.775820
 20
9.122157
 30
0.0
 10
9.731291
 20
9.080103
 30
0.0
  0
SPLINE
  5
11d
100
AcDbEntity
  8
0
 62
7
100
AcDbSpline
 70
8
 71
3
 72
8
 73
4
 74
0
 40
0
 40
0
 40
0
 40
0
 40
1
 40
1
 40
1
 40
1
 10
9.731291
 20
9.080103
 30
0.0
 10
9.689239
 20
9.035576
 30
0.0
 10
9.637292
 20
9.013313
 30
0.0
 10
9.575449
 20
9.013313
 30
0.0
  0
SPLINE
  5
11e
100
AcDbEntity
  8
0
 62
7
100
AcDbSpline
 70
8
 71
3
 72
8
 73
4
 74
0
 40
0
 40
0
 40
0
 40
0
 40
1
 40
1
 40
1
 40
1
 10
9.575449
 20
9.013313
 30
0.0
 10
9.513608
 20
9.013313
 30
0.0
 10
9.460424
 20
9.035576
 30
0.0
 10
9.415898
 20
9.080103
 30
0.0
  0
SPLINE
  5
11f
100
AcDbEntity
  8
0
 62
7
100
AcDbSpline
 70
8
 71
3
 72
8
 73
4
 74
0
 40
0
 40
0
 40
0
 40
0
 40
1
 40
1
 40
1
 40
1
 10
9.415898
 20
9.080103
 30
0.0
 10
9.373846
 20
9.122156
 30
0.0
 10
9.352821
 20
9.174103
 30
0.0
 10
9.352821
 20
9.235944
 30
0.0
  0
LWPOLYLINE
  5
120
100
AcDbEntity
  8
0
 62
7
100
AcDbPolyline
 90
2
 70
0
 10
9.798085
 20
10.564306
 30
0.0
 10
9.798085
 20
9.235944
 30
0.0
  0
SPLINE
  5
121
100
AcDbEntity
  8
0
 62
7
100
AcDbSpline
 70
8
 71
3
 72
8
 73
4
 74
0
 40
0
 40
0
 40
0
 40
0
 40
1
 40
1
 40
1
 40
1
 10
9.352821
 20
12.204350
 30
0.0
 10
9.352821
 20
12.268665
 30
0.0
 10
9.376321
 20
12.321849
 30
0.0
 10
9.423322
 20
12.363902
 30
0.0
  0
SPLINE
  5
122
100
AcDbEntity
  8
0
 62
7
100
AcDbSpline
 70
8
 71
3
 72
8
 73
4
 74
0
 40
0
 40
0
 40
0
 40
0
 40
1
 40
1
 40
1
 40
1
 10
9.423322
 20
12.363902
 30
0.0
 10
9.472794
 20
12.405954
 30
0.0
 10
9.523504
 20
12.426981
 30
0.0
 10
9.575452
 20
12.426981
 30
0.0
  0
LWPOLYLINE
  5
123
100
AcDbEntity
  8
0
 62
7
100
AcDbPolyline
 90
3
 70
0
 10
9.352821
 20
9.235944
 30
0.0
 10
9.352821
 20
10.786937
 30
0.0
 10
9.352821
 20
12.204350
 30
0.0
  0
SPLINE
  5
124
100
AcDbEntity
  8
0
 62
7
100
AcDbSpline
 70
8
 71
3
 72
8
 73
4
 74
0
 40
0
 40
0
 40
0
 40
0
 40
1
 40
1
 40
1
 40
1
 10
10.710867
 20
12.426981
 30
0.0
 10
11.000287
 20
12.426981
 30
0.0
 10
11.243944
 20
12.339165
 30
0.0
 10
11.441837
 20
12.163534
 30
0.0
  0
SPLINE
  5
125
100
AcDbEntity
  8
0
 62
7
100
AcDbSpline
 70
8
 71
3
 72
8
 73
4
 74
0
 40
0
 40
0
 40
0
 40
0
 40
1
 40
1
 40
1
 40
1
 10
11.441837
 20
12.163534
 30
0.0
 10
11.642204
 20
11.990377
 30
0.0
 10
11.742388
 20
11.766510
 30
0.0
 10
11.742388
 20
11.491932
 30
0.0
  0
SPLINE
  5
126
100
AcDbEntity
  8
0
 62
7
100
AcDbSpline
 70
8
 71
3
 72
8
 73
4
 74
0
 40
0
 40
0
 40
0
 40
0
 40
1
 40
1
 40
1
 40
1
 10
11.742388
 20
11.491932
 30
0.0
 10
11.742388
 20
11.289091
 30
0.0
 10
11.679309
 20
11.113461
 30
0.0
 10
11.553152
 20
10.965042
 30
0.0
  0
SPLINE
  5
127
100
AcDbEntity
  8
0
 62
7
100
AcDbSpline
 70
8
 71
3
 72
8
 73
4
 74
0
 40
0
 40
0
 40
0
 40
0
 40
1
 40
1
 40
1
 40
1
 10
11.553152
 20
10.965042
 30
0.0
 10
11.429469
 20
10.816621
 30
0.0
 10
11.276101
 20
10.707779
 30
0.0
 10
11.093049
 20
10.638516
 30
0.0
  0
LWPOLYLINE
  5
128
100
AcDbEntity
  8
0
 62
7
100
AcDbPolyline
 90
2
 70
0
 10
9.575452
 20
12.426981
 30
0.0
 10
10.710867
 20
12.426981
 30
0.0
  0
SPLINE
  5
129
100
AcDbEntity
  8
0
 62
7
100
AcDbSpline
 70
8
 71
3
 72
8
 73
4
 74
0
 40
0
 40
0
 40
0
 40
0
 40
1
 40
1
 40
1
 40
1
 10
11.697862
 20
9.328707
 30
0.0
 10
11.710229
 20
9.301494
 30
0.0
 10
11.716412
 20
9.270574
 30
0.0
 10
11.716412
 20
9.235947
 30
0.0
  0
SPLINE
  5
12a
100
AcDbEntity
  8
0
 62
7
100
AcDbSpline
 70
8
 71
3
 72
8
 73
4
 74
0
 40
0
 40
0
 40
0
 40
0
 40
1
 40
1
 40
1
 40
1
 10
11.716412
 20
9.235947
 30
0.0
 10
11.716412
 20
9.193894
 30
0.0
 10
11.705279
 20
9.154315
 30
0.0
 10
11.683012
 20
9.117211
 30
0.0
  0
SPLINE
  5
12b
100
AcDbEntity
  8
0
 62
7
100
AcDbSpline
 70
8
 71
3
 72
8
 73
4
 74
0
 40
0
 40
0
 40
0
 40
0
 40
1
 40
1
 40
1
 40
1
 10
11.683012
 20
9.117211
 30
0.0
 10
11.660752
 20
9.080104
 30
0.0
 10
11.629832
 20
9.052894
 30
0.0
 10
11.590252
 20
9.035581
 30
0.0
  0
SPLINE
  5
12c
100
AcDbEntity
  8
0
 62
7
100
AcDbSpline
 70
8
 71
3
 72
8
 73
4
 74
0
 40
0
 40
0
 40
0
 40
0
 40
1
 40
1
 40
1
 40
1
 10
11.590252
 20
9.035581
 30
0.0
 10
11.560572
 20
9.020741
 30
0.0
 10
11.529652
 20
9.013321
 30
0.0
 10
11.497492
 20
9.013321
 30
0.0
  0
SPLINE
  5
12d
100
AcDbEntity
  8
0
 62
7
100
AcDbSpline
 70
8
 71
3
 72
8
 73
4
 74
0
 40
0
 40
0
 40
0
 40
0
 40
1
 40
1
 40
1
 40
1
 10
11.497492
 20
9.013321
 30
0.0
 10
11.455439
 20
9.013321
 30
0.0
 10
11.415860
 20
9.025691
 30
0.0
 10
11.378755
 20
9.050431
 30
0.0
  0
SPLINE
  5
12e
100
AcDbEntity
  8
0
 62
7
100
AcDbSpline
 70
8
 71
3
 72
8
 73
4
 74
0
 40
0
 40
0
 40
0
 40
0
 40
1
 40
1
 40
1
 40
1
 10
11.378755
 20
9.050431
 30
0.0
 10
11.341655
 20
9.072698
 30
0.0
 10
11.313208
 20
9.103618
 30
0.0
 10
11.293415
 20
9.143191
 30
0.0
  0
LWPOLYLINE
  5
12f
100
AcDbEntity
  8
0
 62
7
100
AcDbPolyline
 90
2
 70
0
 10
11.093049
 20
10.638516
 30
0.0
 10
11.697862
 20
9.328707
 30
0.0
  0
SPLINE
  5
130
100
AcDbEntity
  8
0
 62
7
100
AcDbSpline
 70
8
 71
3
 72
8
 73
4
 74
0
 40
0
 40
0
 40
0
 40
0
 40
1
 40
1
 40
1
 40
1
 10
13.368037
 20
12.430691
 30
0.0
 10
13.543668
 20
12.430691
 30
0.0
 10
13.704456
 20
12.394823
 30
0.0
 10
13.850403
 20
12.323086
 30
0.0
  0
SPLINE
  5
131
100
AcDbEntity
  8
0
 62
7
100
AcDbSpline
 70
8
 71
3
 72
8
 73
4
 74
0
 40
0
 40
0
 40
0
 40
0
 40
1
 40
1
 40
1
 40
1
 10
13.850403
 20
12.323086
 30
0.0
 10
13.998824
 20
12.253823
 30
0.0
 10
14.121271
 20
12.161061
 30
0.0
 10
14.217744
 20
12.044798
 30
0.0
  0
SPLINE
  5
132
100
AcDbEntity
  8
0
 62
7
100
AcDbSpline
 70
8
 71
3
 72
8
 73
4
 74
0
 40
0
 40
0
 40
0
 40
0
 40
1
 40
1
 40
1
 40
1
 10
14.217744
 20
12.044798
 30
0.0
 10
14.314217
 20
11.928536
 30
0.0
 10
14.395848
 20
11.794958
 30
0.0
 10
14.462637
 20
11.644064
 30
0.0
  0
SPLINE
  5
133
100
AcDbEntity
  8
0
 62
7
100
AcDbSpline
 70
8
 71
3
 72
8
 73
4
 74
0
 40
0
 40
0
 40
0
 40
0
 40
1
 40
1
 40
1
 40
1
 10
14.462637
 20
11.644064
 30
0.0
 10
14.531900
 20
11.493170
 30
0.0
 10
14.581374
 20
11.339802
 30
0.0
 10
14.611057
 20
11.183960
 30
0.0
  0
SPLINE
  5
134
100
AcDbEntity
  8
0
 62
7
100
AcDbSpline
 70
8
 71
3
 72
8
 73
4
 74
0
 40
0
 40
0
 40
0
 40
0
 40
1
 40
1
 40
1
 40
1
 10
14.611057
 20
11.183960
 30
0.0
 10
14.640737
 20
11.030593
 30
0.0
 10
14.655577
 20
10.875989
 30
0.0
 10
14.655577
 20
10.720148
 30
0.0
  0
SPLINE
  5
135
100
AcDbEntity
  8
0
 62
7
100
AcDbSpline
 70
8
 71
3
 72
8
 73
4
 74
0
 40
0
 40
0
 40
0
 40
0
 40
1
 40
1
 40
1
 40
1
 10
14.655577
 20
10.720148
 30
0.0
 10
14.655577
 20
10.564306
 30
0.0
 10
14.639500
 20
10.408465
 30
0.0
 10
14.607347
 20
10.252624
 30
0.0
  0
SPLINE
  5
136
100
AcDbEntity
  8
0
 62
7
100
AcDbSpline
 70
8
 71
3
 72
8
 73
4
 74
0
 40
0
 40
0
 40
0
 40
0
 40
1
 40
1
 40
1
 40
1
 10
14.607347
 20
10.252624
 30
0.0
 10
14.577667
 20
10.099257
 30
0.0
 10
14.528193
 20
9.947126
 30
0.0
 10
14.458926
 20
9.796231
 30
0.0
  0
SPLINE
  5
137
100
AcDbEntity
  8
0
 62
7
100
AcDbSpline
 70
8
 71
3
 72
8
 73
4
 74
0
 40
0
 40
0
 40
0
 40
0
 40
1
 40
1
 40
1
 40
1
 10
14.458926
 20
9.796231
 30
0.0
 10
14.392135
 20
9.645337
 30
0.0
 10
14.310504
 20
9.511759
 30
0.0
 10
14.214032
 20
9.395496
 30
0.0
  0
SPLINE
  5
138
100
AcDbEntity
  8
0
 62
7
100
AcDbSpline
 70
8
 71
3
 72
8
 73
4
 74
0
 40
0
 40
0
 40
0
 40
0
 40
1
 40
1
 40
1
 40
1
 10
14.214032
 20
9.395496
 30
0.0
 10
14.117559
 20
9.281707
 30
0.0
 10
13.995112
 20
9.190181
 30
0.0
 10
13.846692
 20
9.120918
 30
0.0
  0
SPLINE
  5
139
100
AcDbEntity
  8
0
 62
7
100
AcDbSpline
 70
8
 71
3
 72
8
 73
4
 74
0
 40
0
 40
0
 40
0
 40
0
 40
1
 40
1
 40
1
 40
1
 10
13.846692
 20
9.120918
 30
0.0
 10
13.700745
 20
9.049182
 30
0.0
 10
13.539956
 20
9.013314
 30
0.0
 10
13.364325
 20
9.013314
 30
0.0
  0
SPLINE
  5
13a
100
AcDbEntity
  8
0
 62
7
100
AcDbSpline
 70
8
 71
3
 72
8
 73
4
 74
0
 40
0
 40
0
 40
0
 40
0
 40
1
 40
1
 40
1
 40
1
 10
13.364325
 20
9.013314
 30
0.0
 10
13.188694
 20
9.013314
 30
0.0
 10
13.026669
 20
9.049182
 30
0.0
 10
12.878249
 20
9.120918
 30
0.0
  0
SPLINE
  5
13b
100
AcDbEntity
  8
0
 62
7
100
AcDbSpline
 70
8
 71
3
 72
8
 73
4
 74
0
 40
0
 40
0
 40
0
 40
0
 40
1
 40
1
 40
1
 40
1
 10
12.878249
 20
9.120918
 30
0.0
 10
12.732302
 20
9.190181
 30
0.0
 10
12.609856
 20
9.281707
 30
0.0
 10
12.510909
 20
9.395496
 30
0.0
  0
SPLINE
  5
13c
100
AcDbEntity
  8
0
 62
7
100
AcDbSpline
 70
8
 71
3
 72
8
 73
4
 74
0
 40
0
 40
0
 40
0
 40
0
 40
1
 40
1
 40
1
 40
1
 10
12.510909
 20
9.395496
 30
0.0
 10
12.411962
 20
9.511759
 30
0.0
 10
12.327857
 20
9.644100
 30
0.0
 10
12.258594
 20
9.792520
 30
0.0
  0
SPLINE
  5
13d
100
AcDbEntity
  8
0
 62
7
100
AcDbSpline
 70
8
 71
3
 72
8
 73
4
 74
0
 40
0
 40
0
 40
0
 40
0
 40
1
 40
1
 40
1
 40
1
 10
12.258594
 20
9.792520
 30
0.0
 10
12.191803
 20
9.943415
 30
0.0
 10
12.142330
 20
10.096783
 30
0.0
 10
12.110174
 20
10.252624
 30
0.0
  0
SPLINE
  5
13e
100
AcDbEntity
  8
0
 62
7
100
AcDbSpline
 70
8
 71
3
 72
8
 73
4
 74
0
 40
0
 40
0
 40
0
 40
0
 40
1
 40
1
 40
1
 40
1
 10
12.110174
 20
10.252624
 30
0.0
 10
12.080494
 20
10.408465
 30
0.0
 10
12.065654
 20
10.564306
 30
0.0
 10
12.065654
 20
10.720148
 30
0.0
  0
SPLINE
  5
13f
100
AcDbEntity
  8
0
 62
7
100
AcDbSpline
 70
8
 71
3
 72
8
 73
4
 74
0
 40
0
 40
0
 40
0
 40
0
 40
1
 40
1
 40
1
 40
1
 10
12.065654
 20
10.720148
 30
0.0
 10
12.065654
 20
10.918041
 30
0.0
 10
12.091631
 20
11.113461
 30
0.0
 10
12.143584
 20
11.306407
 30
0.0
  0
SPLINE
  5
140
100
AcDbEntity
  8
0
 62
7
100
AcDbSpline
 70
8
 71
3
 72
8
 73
4
 74
0
 40
0
 40
0
 40
0
 40
0
 40
1
 40
1
 40
1
 40
1
 10
12.143584
 20
11.306407
 30
0.0
 10
12.195537
 20
11.501827
 30
0.0
 10
12.270984
 20
11.684879
 30
0.0
 10
12.369924
 20
11.855563
 30
0.0
  0
SPLINE
  5
141
100
AcDbEntity
  8
0
 62
7
100
AcDbSpline
 70
8
 71
3
 72
8
 73
4
 74
0
 40
0
 40
0
 40
0
 40
0
 40
1
 40
1
 40
1
 40
1
 10
12.369924
 20
11.855563
 30
0.0
 10
12.471345
 20
12.026246
 30
0.0
 10
12.608634
 20
12.164771
 30
0.0
 10
12.781791
 20
12.271139
 30
0.0
  0
SPLINE
  5
142
100
AcDbEntity
  8
0
 62
7
100
AcDbSpline
 70
8
 71
3
 72
8
 73
4
 74
0
 40
0
 40
0
 40
0
 40
0
 40
1
 40
1
 40
1
 40
1
 10
12.781791
 20
12.271139
 30
0.0
 10
12.954948
 20
12.377507
 30
0.0
 10
13.150369
 20
12.430691
 30
0.0
 10
13.368052
 20
12.430691
 30
0.0
  0
LWPOLYLINE
  5
143
100
AcDbEntity
  8
0
 62
7
100
AcDbPolyline
 90
3
 70
0
 10
11.293415
 20
9.143191
 30
0.0
 10
10.632944
 20
10.564312
 30
0.0
 10
9.798085
 20
10.564306
 30
0.0
  0
SPLINE
  5
144
100
AcDbEntity
  8
0
 62
7
100
AcDbSpline
 70
8
 71
3
 72
8
 73
4
 74
0
 40
0
 40
0
 40
0
 40
0
 40
1
 40
1
 40
1
 40
1
 10
13.368037
 20
11.985430
 30
0.0
 10
13.115723
 20
11.985430
 30
0.0
 10
12.909171
 20
11.861747
 30
0.0
 10
12.748382
 20
11.614380
 30
0.0
  0
SPLINE
  5
145
100
AcDbEntity
  8
0
 62
7
100
AcDbSpline
 70
8
 71
3
 72
8
 73
4
 74
0
 40
0
 40
0
 40
0
 40
0
 40
1
 40
1
 40
1
 40
1
 10
12.748382
 20
11.614380
 30
0.0
 10
12.590067
 20
11.367013
 30
0.0
 10
12.510910
 20
11.068935
 30
0.0
 10
12.510910
 20
10.720148
 30
0.0
  0
SPLINE
  5
146
100
AcDbEntity
  8
0
 62
7
100
AcDbSpline
 70
8
 71
3
 72
8
 73
4
 74
0
 40
0
 40
0
 40
0
 40
0
 40
1
 40
1
 40
1
 40
1
 10
12.510910
 20
10.720148
 30
0.0
 10
12.510910
 20
10.371361
 30
0.0
 10
12.590067
 20
10.073283
 30
0.0
 10
12.748382
 20
9.825915
 30
0.0
  0
SPLINE
  5
147
100
AcDbEntity
  8
0
 62
7
100
AcDbSpline
 70
8
 71
3
 72
8
 73
4
 74
0
 40
0
 40
0
 40
0
 40
0
 40
1
 40
1
 40
1
 40
1
 10
12.748382
 20
9.825915
 30
0.0
 10
12.906697
 20
9.581022
 30
0.0
 10
13.112012
 20
9.458575
 30
0.0
 10
13.364327
 20
9.458575
 30
0.0
  0
SPLINE
  5
148
100
AcDbEntity
  8
0
 62
7
100
AcDbSpline
 70
8
 71
3
 72
8
 73
4
 74
0
 40
0
 40
0
 40
0
 40
0
 40
1
 40
1
 40
1
 40
1
 10
13.364327
 20
9.458575
 30
0.0
 10
13.614168
 20
9.458575
 30
0.0
 10
13.817009
 20
9.581022
 30
0.0
 10
13.972850
 20
9.825915
 30
0.0
  0
SPLINE
  5
149
100
AcDbEntity
  8
0
 62
7
100
AcDbSpline
 70
8
 71
3
 72
8
 73
4
 74
0
 40
0
 40
0
 40
0
 40
0
 40
1
 40
1
 40
1
 40
1
 10
13.972850
 20
9.825915
 30
0.0
 10
14.131165
 20
10.073283
 30
0.0
 10
14.210322
 20
10.371361
 30
0.0
 10
14.210322
 20
10.720148
 30
0.0
  0
SPLINE
  5
14a
100
AcDbEntity
  8
0
 62
7
100
AcDbSpline
 70
8
 71
3
 72
8
 73
4
 74
0
 40
0
 40
0
 40
0
 40
0
 40
1
 40
1
 40
1
 40
1
 10
14.210322
 20
10.720148
 30
0.0
 10
14.210322
 20
11.071409
 30
0.0
 10
14.132401
 20
11.369487
 30
0.0
 10
13.976560
 20
11.614380
 30
0.0
  0
SPLINE
  5
14b
100
AcDbEntity
  8
0
 62
7
100
AcDbSpline
 70
8
 71
3
 72
8
 73
4
 74
0
 40
0
 40
0
 40
0
 40
0
 40
1
 40
1
 40
1
 40
1
 10
13.976560
 20
11.614380
 30
0.0
 10
13.820719
 20
11.861747
 30
0.0
 10
13.617878
 20
11.985430
 30
0.0
 10
13.368037
 20
11.985430
 30
0.0
  0
LWPOLYLINE
  5
14c
100
AcDbEntity
  8
0
 62
7
100
AcDbPolyline
 90
1
 70
1
 10
13.368052
 20
12.430691
 30
0.0
  0
LWPOLYLINE
  5
14d
100
AcDbEntity
  8
0
 62
7
100
AcDbPolyline
 90
1
 70
1
 10
13.368037
 20
11.985430
 30
0.0
  0
ENDSEC
  0
SECTION
  2
OBJECTS
  0
DICTIONARY
  5
C
330
0
100
AcDbDictionary
  3
ACAD_GROUP
350
D
  3
ACAD_MLINESTYLE
350
17
  0
DICTIONARY
  5
D
330
C
100
AcDbDictionary
  0
DICTIONARY
  5
1A
330
C
100
AcDbDictionary
  0
DICTIONARY
  5
17
330
C
100
AcDbDictionary
  3
STANDARD
350
18
  0
DICTIONARY
  5
19
330
C
100
AcDbDictionary
  0
ENDSEC
  0
EOF
