  0
SECTION
  2
HEADER
  9
$ACADVER
  1
AC1014
  9
$HANDSEED
  5
FFFF
  9
$INSUNITS
 70
     4
  9
$MEASUREMENT
 70
     1
  0
ENDSEC
  0
SECTION
  2
TABLES
  0
TABLE
  2
VPORT
  5
8
330
0
100
AcDbSymbolTable
 70
     4
  0
VPORT
  5
2E
330
8
100
AcDbSymbolTableRecord
100
AcDbViewportTableRecord
  2
*ACTIVE
 70
     0
 10
0.0
 20
0.0
 11
1.0
 21
1.0
 12
210.0
 22
148.5
 13
0.0
 23
0.0
 14
10.0
 24
10.0
 15
10.0
 25
10.0
 16
0.0
 26
0.0
 36
1.0
 17
0.0
 27
0.0
 37
0.0
 40
341.0
 41
1.24
 42
50.0
 43
0.0
 44
0.0
 50
0.0
 51
0.0
 71
     0
 72
   100
 73
     1
 74
     3
 75
     0
 76
     0
 77
     0
 78
     0
  0
ENDTAB
  0
TABLE
  2
LTYPE
  5
5
330
0
100
AcDbSymbolTable
 70
     1
  0
LTYPE
  5
14
330
5
100
AcDbSymbolTableRecord
100
AcDbLinetypeTableRecord
  2
BYBLOCK
 70
     0
  3

 72
    65
 73
     0
 40
0.0
  0
LTYPE
  5
15
330
5
100
AcDbSymbolTableRecord
100
AcDbLinetypeTableRecord
  2
BYLAYER
 70
     0
  3

 72
    65
 73
     0
 40
0.0
  0
LTYPE
  5
16
330
5
100
AcDbSymbolTableRecord
100
AcDbLinetypeTableRecord
  2
CONTINUOUS
 70
     0
  3
Solid line
 72
    65
 73
     0
 40
0.0
  0
ENDTAB
  0
TABLE
  2
LAYER
  5
2
100
AcDbSymbolTable
 70
1
  0
LAYER
  5
50
100
AcDbSymbolTableRecord
100
AcDbLayerTableRecord
  2
0
 70
0
  6
CONTINUOUS
  0
ENDTAB
  0
TABLE
  2
STYLE
  5
3
330
0
100
AcDbSymbolTable
 70
     1
  0
STYLE
  5
11
330
3
100
AcDbSymbolTableRecord
100
AcDbTextStyleTableRecord
  2
STANDARD
 70
     0
 40
0.0
 41
1.0
 50
0.0
 71
     0
 42
2.5
  3
txt
  4

  0
ENDTAB
  0
TABLE
  2
VIEW
  5
6
330
0
100
AcDbSymbolTable
 70
     0
  0
ENDTAB
  0
TABLE
  2
UCS
  5
7
330
0
100
AcDbSymbolTable
 70
     0
  0
ENDTAB
  0
TABLE
  2
APPID
  5
9
330
0
100
AcDbSymbolTable
 70
     2
  0
APPID
  5
12
330
9
100
AcDbSymbolTableRecord
100
AcDbRegAppTableRecord
  2
ACAD
 70
     0
  0
ENDTAB
  0
TABLE
  2
DIMSTYLE
  5
A
330
0
100
AcDbSymbolTable
 70
     1
  0
DIMSTYLE
105
27
330
A
100
AcDbSymbolTableRecord
100
AcDbDimStyleTableRecord
  2
ISO-25
 70
     0
  3

  4

  5

  6

  7

 40
1.0
 41
2.5
 42
0.625
 43
3.75
 44
1.25
 45
0.0
 46
0.0
 47
0.0
 48
0.0
140
2.5
141
2.5
142
0.0
143
0.03937007874016
144
1.0
145
0.0
146
1.0
147
0.625
 71
     0
 72
     0
 73
     0
 74
     0
 75
     0
 76
     0
 77
     1
 78
     8
170
     0
171
     3
172
     1
173
     0
174
     0
175
     0
176
     0
177
     0
178
     0
270
     2
271
     2
272
     2
273
     2
274
     3
340
11
275
     0
280
     0
281
     0
282
     0
283
     0
284
     8
285
     0
286
     0
287
     3
288
     0
  0
ENDTAB
  0
TABLE
  2
BLOCK_RECORD
  5
1
330
0
100
AcDbSymbolTable
 70
     1
  0
BLOCK_RECORD
  5
1F
330
1
100
AcDbSymbolTableRecord
100
AcDbBlockTableRecord
  2
*MODEL_SPACE
  0
BLOCK_RECORD
  5
1B
330
1
100
AcDbSymbolTableRecord
100
AcDbBlockTableRecord
  2
*PAPER_SPACE
  0
ENDTAB
  0
ENDSEC
  0
SECTION
  2
BLOCKS
  0
BLOCK
  5
20
330
1F
100
AcDbEntity
  8
0
100
AcDbBlockBegin
  2
*MODEL_SPACE
 70
     0
 10
0.0
 20
0.0
 30
0.0
  3
*MODEL_SPACE
  1

  0
ENDBLK
  5
21
330
1F
100
AcDbEntity
  8
0
100
AcDbBlockEnd
  0
BLOCK
  5
1C
330
1B
100
AcDbEntity
 67
     1
  8
0
100
AcDbBlockBegin
  2
*PAPER_SPACE
  1

  0
ENDBLK
  5
1D
330
1B
100
AcDbEntity
 67
     1
  8
0
100
AcDbBlockEnd
  0
ENDSEC
  0
SECTION
  2
ENTITIES
  0
SPLINE
  5
100
100
AcDbEntity
  8
0
 62
7
100
AcDbSpline
 70
8
 71
3
 72
8
 73
4
 74
0
 40
0
 40
0
 40
0
 40
0
 40
1
 40
1
 40
1
 40
1
 10
6.652770
 20
11.011425
 30
0.0
 10
6.793769
 20
11.011425
 30
0.0
 10
6.926111
 20
11.060898
 30
0.0
 10
7.049795
 20
11.159845
 30
0.0
  0
SPLINE
  5
101
100
AcDbEntity
  8
0
 62
7
100
AcDbSpline
 70
8
 71
3
 72
8
 73
4
 74
0
 40
0
 40
0
 40
0
 40
0
 40
1
 40
1
 40
1
 40
1
 10
7.049795
 20
11.159845
 30
0.0
 10
7.175952
 20
11.258792
 30
0.0
 10
7.239031
 20
11.370108
 30
0.0
 10
7.239031
 20
11.493791
 30
0.0
  0
SPLINE
  5
102
100
AcDbEntity
  8
0
 62
7
100
AcDbSpline
 70
8
 71
3
 72
8
 73
4
 74
0
 40
0
 40
0
 40
0
 40
0
 40
1
 40
1
 40
1
 40
1
 10
7.239031
 20
11.493791
 30
0.0
 10
7.239031
 20
11.637264
 30
0.0
 10
7.187083
 20
11.754763
 30
0.0
 10
7.083189
 20
11.846289
 30
0.0
  0
SPLINE
  5
103
100
AcDbEntity
  8
0
 62
7
100
AcDbSpline
 70
8
 71
3
 72
8
 73
4
 74
0
 40
0
 40
0
 40
0
 40
0
 40
1
 40
1
 40
1
 40
1
 10
7.083189
 20
11.846289
 30
0.0
 10
6.979295
 20
11.937815
 30
0.0
 10
6.835822
 20
11.983578
 30
0.0
 10
6.652770
 20
11.983578
 30
0.0
  0
LWPOLYLINE
  5
104
100
AcDbEntity
  8
0
 62
7
100
AcDbPolyline
 90
2
 70
0
 10
5.739985
 20
11.011425
 30
0.0
 10
6.652770
 20
11.011425
 30
0.0
  0
LWPOLYLINE
  5
105
100
AcDbEntity
  8
0
 62
7
100
AcDbPolyline
 90
3
 70
0
 10
6.652770
 20
11.983578
 30
0.0
 10
5.739985
 20
11.983578
 30
0.0
 10
5.739985
 20
11.011425
 30
0.0
  0
SPLINE
  5
106
100
AcDbEntity
  8
0
 62
7
100
AcDbSpline
 70
8
 71
3
 72
8
 73
4
 74
0
 40
0
 40
0
 40
0
 40
0
 40
1
 40
1
 40
1
 40
1
 10
5.739985
 20
9.237802
 30
0.0
 10
5.739985
 20
9.175962
 30
0.0
 10
5.717721
 20
9.124015
 30
0.0
 10
5.673195
 20
9.081962
 30
0.0
  0
SPLINE
  5
107
100
AcDbEntity
  8
0
 62
7
100
AcDbSpline
 70
8
 71
3
 72
8
 73
4
 74
0
 40
0
 40
0
 40
0
 40
0
 40
1
 40
1
 40
1
 40
1
 10
5.673195
 20
9.081962
 30
0.0
 10
5.631141
 20
9.037435
 30
0.0
 10
5.579194
 20
9.015172
 30
0.0
 10
5.517353
 20
9.015172
 30
0.0
  0
SPLINE
  5
108
100
AcDbEntity
  8
0
 62
7
100
AcDbSpline
 70
8
 71
3
 72
8
 73
4
 74
0
 40
0
 40
0
 40
0
 40
0
 40
1
 40
1
 40
1
 40
1
 10
5.517353
 20
9.015172
 30
0.0
 10
5.455513
 20
9.015172
 30
0.0
 10
5.402329
 20
9.037435
 30
0.0
 10
5.357802
 20
9.081962
 30
0.0
  0
SPLINE
  5
109
100
AcDbEntity
  8
0
 62
7
100
AcDbSpline
 70
8
 71
3
 72
8
 73
4
 74
0
 40
0
 40
0
 40
0
 40
0
 40
1
 40
1
 40
1
 40
1
 10
5.357802
 20
9.081962
 30
0.0
 10
5.315748
 20
9.124015
 30
0.0
 10
5.294722
 20
9.175962
 30
0.0
 10
5.294722
 20
9.237802
 30
0.0
  0
LWPOLYLINE
  5
10a
100
AcDbEntity
  8
0
 62
7
100
AcDbPolyline
 90
2
 70
0
 10
5.739985
 20
10.566164
 30
0.0
 10
5.739985
 20
9.237802
 30
0.0
  0
SPLINE
  5
10b
100
AcDbEntity
  8
0
 62
7
100
AcDbSpline
 70
8
 71
3
 72
8
 73
4
 74
0
 40
0
 40
0
 40
0
 40
0
 40
1
 40
1
 40
1
 40
1
 10
5.294722
 20
12.206208
 30
0.0
 10
5.294722
 20
12.270524
 30
0.0
 10
5.318222
 20
12.323708
 30
0.0
 10
5.365222
 20
12.365760
 30
0.0
  0
SPLINE
  5
10c
100
AcDbEntity
  8
0
 62
7
100
AcDbSpline
 70
8
 71
3
 72
8
 73
4
 74
0
 40
0
 40
0
 40
0
 40
0
 40
1
 40
1
 40
1
 40
1
 10
5.365222
 20
12.365760
 30
0.0
 10
5.414695
 20
12.407813
 30
0.0
 10
5.465405
 20
12.428839
 30
0.0
 10
5.517353
 20
12.428839
 30
0.0
  0
LWPOLYLINE
  5
10d
100
AcDbEntity
  8
0
 62
7
100
AcDbPolyline
 90
3
 70
0
 10
5.294722
 20
9.237802
 30
0.0
 10
5.294722
 20
10.788794
 30
0.0
 10
5.294722
 20
12.206208
 30
0.0
  0
SPLINE
  5
10e
100
AcDbEntity
  8
0
 62
7
100
AcDbSpline
 70
8
 71
3
 72
8
 73
4
 74
0
 40
0
 40
0
 40
0
 40
0
 40
1
 40
1
 40
1
 40
1
 10
6.652768
 20
12.428839
 30
0.0
 10
6.942188
 20
12.428839
 30
0.0
 10
7.185844
 20
12.341023
 30
0.0
 10
7.383738
 20
12.165392
 30
0.0
  0
SPLINE
  5
10f
100
AcDbEntity
  8
0
 62
7
100
AcDbSpline
 70
8
 71
3
 72
8
 73
4
 74
0
 40
0
 40
0
 40
0
 40
0
 40
1
 40
1
 40
1
 40
1
 10
7.383738
 20
12.165392
 30
0.0
 10
7.584105
 20
11.992235
 30
0.0
 10
7.684289
 20
11.768368
 30
0.0
 10
7.684289
 20
11.493791
 30
0.0
  0
SPLINE
  5
110
100
AcDbEntity
  8
0
 62
7
100
AcDbSpline
 70
8
 71
3
 72
8
 73
4
 74
0
 40
0
 40
0
 40
0
 40
0
 40
1
 40
1
 40
1
 40
1
 10
7.684289
 20
11.493791
 30
0.0
 10
7.684289
 20
11.290950
 30
0.0
 10
7.621210
 20
11.115319
 30
0.0
 10
7.495053
 20
10.966899
 30
0.0
  0
SPLINE
  5
111
100
AcDbEntity
  8
0
 62
7
100
AcDbSpline
 70
8
 71
3
 72
8
 73
4
 74
0
 40
0
 40
0
 40
0
 40
0
 40
1
 40
1
 40
1
 40
1
 10
7.495053
 20
10.966899
 30
0.0
 10
7.371369
 20
10.818479
 30
0.0
 10
7.218001
 20
10.709637
 30
0.0
 10
7.034950
 20
10.640374
 30
0.0
  0
LWPOLYLINE
  5
112
100
AcDbEntity
  8
0
 62
7
100
AcDbPolyline
 90
2
 70
0
 10
5.517353
 20
12.428839
 30
0.0
 10
6.652768
 20
12.428839
 30
0.0
  0
SPLINE
  5
113
100
AcDbEntity
  8
0
 62
7
100
AcDbSpline
 70
8
 71
3
 72
8
 73
4
 74
0
 40
0
 40
0
 40
0
 40
0
 40
1
 40
1
 40
1
 40
1
 10
7.639763
 20
9.330566
 30
0.0
 10
7.652136
 20
9.303353
 30
0.0
 10
7.658323
 20
9.272433
 30
0.0
 10
7.658323
 20
9.237806
 30
0.0
  0
SPLINE
  5
114
100
AcDbEntity
  8
0
 62
7
100
AcDbSpline
 70
8
 71
3
 72
8
 73
4
 74
0
 40
0
 40
0
 40
0
 40
0
 40
1
 40
1
 40
1
 40
1
 10
7.658323
 20
9.237806
 30
0.0
 10
7.658323
 20
9.195753
 30
0.0
 10
7.647189
 20
9.156174
 30
0.0
 10
7.624923
 20
9.119071
 30
0.0
  0
SPLINE
  5
115
100
AcDbEntity
  8
0
 62
7
100
AcDbSpline
 70
8
 71
3
 72
8
 73
4
 74
0
 40
0
 40
0
 40
0
 40
0
 40
1
 40
1
 40
1
 40
1
 10
7.624923
 20
9.119071
 30
0.0
 10
7.602663
 20
9.081964
 30
0.0
 10
7.571743
 20
9.054754
 30
0.0
 10
7.532163
 20
9.037441
 30
0.0
  0
SPLINE
  5
116
100
AcDbEntity
  8
0
 62
7
100
AcDbSpline
 70
8
 71
3
 72
8
 73
4
 74
0
 40
0
 40
0
 40
0
 40
0
 40
1
 40
1
 40
1
 40
1
 10
7.532163
 20
9.037441
 30
0.0
 10
7.502483
 20
9.022601
 30
0.0
 10
7.471563
 20
9.015181
 30
0.0
 10
7.439403
 20
9.015181
 30
0.0
  0
SPLINE
  5
117
100
AcDbEntity
  8
0
 62
7
100
AcDbSpline
 70
8
 71
3
 72
8
 73
4
 74
0
 40
0
 40
0
 40
0
 40
0
 40
1
 40
1
 40
1
 40
1
 10
7.439403
 20
9.015181
 30
0.0
 10
7.397349
 20
9.015181
 30
0.0
 10
7.357770
 20
9.027551
 30
0.0
 10
7.320666
 20
9.052291
 30
0.0
  0
SPLINE
  5
118
100
AcDbEntity
  8
0
 62
7
100
AcDbSpline
 70
8
 71
3
 72
8
 73
4
 74
0
 40
0
 40
0
 40
0
 40
0
 40
1
 40
1
 40
1
 40
1
 10
7.320666
 20
9.052291
 30
0.0
 10
7.283559
 20
9.074558
 30
0.0
 10
7.255112
 20
9.105478
 30
0.0
 10
7.235326
 20
9.145051
 30
0.0
  0
LWPOLYLINE
  5
119
100
AcDbEntity
  8
0
 62
7
100
AcDbPolyline
 90
2
 70
0
 10
7.034950
 20
10.640374
 30
0.0
 10
7.639763
 20
9.330566
 30
0.0
  0
SPLINE
  5
11a
100
AcDbEntity
  8
0
 62
7
100
AcDbSpline
 70
8
 71
3
 72
8
 73
4
 74
0
 40
0
 40
0
 40
0
 40
0
 40
1
 40
1
 40
1
 40
1
 10
10.181908
 20
11.308266
 30
0.0
 10
10.162115
 20
11.303333
 30
0.0
 10
10.142325
 20
11.300866
 30
0.0
 10
10.122538
 20
11.300866
 30
0.0
  0
SPLINE
  5
11b
100
AcDbEntity
  8
0
 62
7
100
AcDbSpline
 70
8
 71
3
 72
8
 73
4
 74
0
 40
0
 40
0
 40
0
 40
0
 40
1
 40
1
 40
1
 40
1
 10
10.122538
 20
11.300866
 30
0.0
 10
10.073065
 20
11.300866
 30
0.0
 10
10.027302
 20
11.315709
 30
0.0
 10
9.985250
 20
11.345396
 30
0.0
  0
SPLINE
  5
11c
100
AcDbEntity
  8
0
 62
7
100
AcDbSpline
 70
8
 71
3
 72
8
 73
4
 74
0
 40
0
 40
0
 40
0
 40
0
 40
1
 40
1
 40
1
 40
1
 10
9.985250
 20
11.345396
 30
0.0
 10
9.945670
 20
11.375083
 30
0.0
 10
9.919696
 20
11.413425
 30
0.0
 10
9.907330
 20
11.460422
 30
0.0
  0
SPLINE
  5
11d
100
AcDbEntity
  8
0
 62
7
100
AcDbSpline
 70
8
 71
3
 72
8
 73
4
 74
0
 40
0
 40
0
 40
0
 40
0
 40
1
 40
1
 40
1
 40
1
 10
9.907330
 20
11.460422
 30
0.0
 10
9.847956
 20
11.663263
 30
0.0
 10
9.765088
 20
11.800552
 30
0.0
 10
9.658725
 20
11.872288
 30
0.0
  0
SPLINE
  5
11e
100
AcDbEntity
  8
0
 62
7
100
AcDbSpline
 70
8
 71
3
 72
8
 73
4
 74
0
 40
0
 40
0
 40
0
 40
0
 40
1
 40
1
 40
1
 40
1
 10
9.658725
 20
11.872288
 30
0.0
 10
9.554831
 20
11.946498
 30
0.0
 10
9.405173
 20
11.983603
 30
0.0
 10
9.209753
 20
11.983603
 30
0.0
  0
SPLINE
  5
11f
100
AcDbEntity
  8
0
 62
7
100
AcDbSpline
 70
8
 71
3
 72
8
 73
4
 74
0
 40
0
 40
0
 40
0
 40
0
 40
1
 40
1
 40
1
 40
1
 10
9.209753
 20
11.983603
 30
0.0
 10
9.014333
 20
11.983603
 30
0.0
 10
8.849833
 20
11.935367
 30
0.0
 10
8.716255
 20
11.838893
 30
0.0
  0
SPLINE
  5
120
100
AcDbEntity
  8
0
 62
7
100
AcDbSpline
 70
8
 71
3
 72
8
 73
4
 74
0
 40
0
 40
0
 40
0
 40
0
 40
1
 40
1
 40
1
 40
1
 10
8.716255
 20
11.838893
 30
0.0
 10
8.585151
 20
11.742420
 30
0.0
 10
8.519599
 20
11.624921
 30
0.0
 10
8.519599
 20
11.486395
 30
0.0
  0
SPLINE
  5
121
100
AcDbEntity
  8
0
 62
7
100
AcDbSpline
 70
8
 71
3
 72
8
 73
4
 74
0
 40
0
 40
0
 40
0
 40
0
 40
1
 40
1
 40
1
 40
1
 10
8.519599
 20
11.486395
 30
0.0
 10
8.519599
 20
11.355290
 30
0.0
 10
8.585151
 20
11.246449
 30
0.0
 10
8.716255
 20
11.159870
 30
0.0
  0
SPLINE
  5
122
100
AcDbEntity
  8
0
 62
7
100
AcDbSpline
 70
8
 71
3
 72
8
 73
4
 74
0
 40
0
 40
0
 40
0
 40
0
 40
1
 40
1
 40
1
 40
1
 10
8.716255
 20
11.159870
 30
0.0
 10
8.847360
 20
11.073292
 30
0.0
 10
9.022991
 20
11.026292
 30
0.0
 10
9.243148
 20
11.018871
 30
0.0
  0
SPLINE
  5
123
100
AcDbEntity
  8
0
 62
7
100
AcDbSpline
 70
8
 71
3
 72
8
 73
4
 74
0
 40
0
 40
0
 40
0
 40
0
 40
1
 40
1
 40
1
 40
1
 10
9.243148
 20
11.018871
 30
0.0
 10
9.354463
 20
11.016404
 30
0.0
 10
9.465778
 20
11.002798
 30
0.0
 10
9.577094
 20
10.978051
 30
0.0
  0
SPLINE
  5
124
100
AcDbEntity
  8
0
 62
7
100
AcDbSpline
 70
8
 71
3
 72
8
 73
4
 74
0
 40
0
 40
0
 40
0
 40
0
 40
1
 40
1
 40
1
 40
1
 10
9.577094
 20
10.978051
 30
0.0
 10
9.688409
 20
10.953311
 30
0.0
 10
9.798488
 20
10.914969
 30
0.0
 10
9.907330
 20
10.863026
 30
0.0
  0
SPLINE
  5
125
100
AcDbEntity
  8
0
 62
7
100
AcDbSpline
 70
8
 71
3
 72
8
 73
4
 74
0
 40
0
 40
0
 40
0
 40
0
 40
1
 40
1
 40
1
 40
1
 10
9.907330
 20
10.863026
 30
0.0
 10
10.018645
 20
10.813553
 30
0.0
 10
10.116355
 20
10.751711
 30
0.0
 10
10.200460
 20
10.677500
 30
0.0
  0
SPLINE
  5
126
100
AcDbEntity
  8
0
 62
7
100
AcDbSpline
 70
8
 71
3
 72
8
 73
4
 74
0
 40
0
 40
0
 40
0
 40
0
 40
1
 40
1
 40
1
 40
1
 10
10.200460
 20
10.677500
 30
0.0
 10
10.284565
 20
10.605764
 30
0.0
 10
10.352590
 20
10.514238
 30
0.0
 10
10.404537
 20
10.402922
 30
0.0
  0
SPLINE
  5
127
100
AcDbEntity
  8
0
 62
7
100
AcDbSpline
 70
8
 71
3
 72
8
 73
4
 74
0
 40
0
 40
0
 40
0
 40
0
 40
1
 40
1
 40
1
 40
1
 10
10.404537
 20
10.402922
 30
0.0
 10
10.458957
 20
10.294081
 30
0.0
 10
10.486167
 20
10.172872
 30
0.0
 10
10.486167
 20
10.039293
 30
0.0
  0
SPLINE
  5
128
100
AcDbEntity
  8
0
 62
7
100
AcDbSpline
 70
8
 71
3
 72
8
 73
4
 74
0
 40
0
 40
0
 40
0
 40
0
 40
1
 40
1
 40
1
 40
1
 10
10.486167
 20
10.039293
 30
0.0
 10
10.486167
 20
9.880978
 30
0.0
 10
10.450299
 20
9.735032
 30
0.0
 10
10.378562
 20
9.601453
 30
0.0
  0
SPLINE
  5
129
100
AcDbEntity
  8
0
 62
7
100
AcDbSpline
 70
8
 71
3
 72
8
 73
4
 74
0
 40
0
 40
0
 40
0
 40
0
 40
1
 40
1
 40
1
 40
1
 10
10.378562
 20
9.601453
 30
0.0
 10
10.306825
 20
9.467874
 30
0.0
 10
10.212826
 20
9.359033
 30
0.0
 10
10.096563
 20
9.274928
 30
0.0
  0
SPLINE
  5
12a
100
AcDbEntity
  8
0
 62
7
100
AcDbSpline
 70
8
 71
3
 72
8
 73
4
 74
0
 40
0
 40
0
 40
0
 40
0
 40
1
 40
1
 40
1
 40
1
 10
10.096563
 20
9.274928
 30
0.0
 10
9.980300
 20
9.193297
 30
0.0
 10
9.851669
 20
9.130218
 30
0.0
 10
9.710670
 20
9.085692
 30
0.0
  0
SPLINE
  5
12b
100
AcDbEntity
  8
0
 62
7
100
AcDbSpline
 70
8
 71
3
 72
8
 73
4
 74
0
 40
0
 40
0
 40
0
 40
0
 40
1
 40
1
 40
1
 40
1
 10
9.710670
 20
9.085692
 30
0.0
 10
9.572144
 20
9.038692
 30
0.0
 10
9.431145
 20
9.015192
 30
0.0
 10
9.287673
 20
9.015192
 30
0.0
  0
SPLINE
  5
12c
100
AcDbEntity
  8
0
 62
7
100
AcDbSpline
 70
8
 71
3
 72
8
 73
4
 74
0
 40
0
 40
0
 40
0
 40
0
 40
1
 40
1
 40
1
 40
1
 10
9.287673
 20
9.015192
 30
0.0
 10
9.134305
 20
9.015192
 30
0.0
 10
8.992069
 20
9.032509
 30
0.0
 10
8.860965
 20
9.067142
 30
0.0
  0
SPLINE
  5
12d
100
AcDbEntity
  8
0
 62
7
100
AcDbSpline
 70
8
 71
3
 72
8
 73
4
 74
0
 40
0
 40
0
 40
0
 40
0
 40
1
 40
1
 40
1
 40
1
 10
8.860965
 20
9.067142
 30
0.0
 10
8.729859
 20
9.099302
 30
0.0
 10
8.606175
 20
9.152486
 30
0.0
 10
8.489913
 20
9.226693
 30
0.0
  0
SPLINE
  5
12e
100
AcDbEntity
  8
0
 62
7
100
AcDbSpline
 70
8
 71
3
 72
8
 73
4
 74
0
 40
0
 40
0
 40
0
 40
0
 40
1
 40
1
 40
1
 40
1
 10
8.489913
 20
9.226693
 30
0.0
 10
8.373651
 20
9.300904
 30
0.0
 10
8.273467
 20
9.403561
 30
0.0
 10
8.189363
 20
9.534665
 30
0.0
  0
SPLINE
  5
12f
100
AcDbEntity
  8
0
 62
7
100
AcDbSpline
 70
8
 71
3
 72
8
 73
4
 74
0
 40
0
 40
0
 40
0
 40
0
 40
1
 40
1
 40
1
 40
1
 10
8.189363
 20
9.534665
 30
0.0
 10
8.107731
 20
9.665770
 30
0.0
 10
8.048363
 20
9.821612
 30
0.0
 10
8.011259
 20
10.002190
 30
0.0
  0
SPLINE
  5
130
100
AcDbEntity
  8
0
 62
7
100
AcDbSpline
 70
8
 71
3
 72
8
 73
4
 74
0
 40
0
 40
0
 40
0
 40
0
 40
1
 40
1
 40
1
 40
1
 10
8.011259
 20
10.002190
 30
0.0
 10
8.008792
 20
10.017030
 30
0.0
 10
8.007559
 20
10.031870
 30
0.0
 10
8.007559
 20
10.046710
 30
0.0
  0
SPLINE
  5
131
100
AcDbEntity
  8
0
 62
7
100
AcDbSpline
 70
8
 71
3
 72
8
 73
4
 74
0
 40
0
 40
0
 40
0
 40
0
 40
1
 40
1
 40
1
 40
1
 10
8.007559
 20
10.046710
 30
0.0
 10
8.007559
 20
10.098663
 30
0.0
 10
8.023639
 20
10.145663
 30
0.0
 10
8.055799
 20
10.187709
 30
0.0
  0
SPLINE
  5
132
100
AcDbEntity
  8
0
 62
7
100
AcDbSpline
 70
8
 71
3
 72
8
 73
4
 74
0
 40
0
 40
0
 40
0
 40
0
 40
1
 40
1
 40
1
 40
1
 10
8.055799
 20
10.187709
 30
0.0
 10
8.090432
 20
10.229762
 30
0.0
 10
8.134958
 20
10.255736
 30
0.0
 10
8.189377
 20
10.265629
 30
0.0
  0
SPLINE
  5
133
100
AcDbEntity
  8
0
 62
7
100
AcDbSpline
 70
8
 71
3
 72
8
 73
4
 74
0
 40
0
 40
0
 40
0
 40
0
 40
1
 40
1
 40
1
 40
1
 10
8.189377
 20
10.265629
 30
0.0
 10
8.201743
 20
10.268096
 30
0.0
 10
8.215350
 20
10.269329
 30
0.0
 10
8.230197
 20
10.269329
 30
0.0
  0
SPLINE
  5
134
100
AcDbEntity
  8
0
 62
7
100
AcDbSpline
 70
8
 71
3
 72
8
 73
4
 74
0
 40
0
 40
0
 40
0
 40
0
 40
1
 40
1
 40
1
 40
1
 10
8.230197
 20
10.269329
 30
0.0
 10
8.282150
 20
10.269329
 30
0.0
 10
8.329150
 20
10.252016
 30
0.0
 10
8.371196
 20
10.217389
 30
0.0
  0
SPLINE
  5
135
100
AcDbEntity
  8
0
 62
7
100
AcDbSpline
 70
8
 71
3
 72
8
 73
4
 74
0
 40
0
 40
0
 40
0
 40
0
 40
1
 40
1
 40
1
 40
1
 10
8.371196
 20
10.217389
 30
0.0
 10
8.413249
 20
10.185229
 30
0.0
 10
8.439222
 20
10.143177
 30
0.0
 10
8.449116
 20
10.091233
 30
0.0
  0
SPLINE
  5
136
100
AcDbEntity
  8
0
 62
7
100
AcDbSpline
 70
8
 71
3
 72
8
 73
4
 74
0
 40
0
 40
0
 40
0
 40
0
 40
1
 40
1
 40
1
 40
1
 10
8.449116
 20
10.091233
 30
0.0
 10
8.496116
 20
9.846340
 30
0.0
 10
8.585168
 20
9.679367
 30
0.0
 10
8.716272
 20
9.590314
 30
0.0
  0
SPLINE
  5
137
100
AcDbEntity
  8
0
 62
7
100
AcDbSpline
 70
8
 71
3
 72
8
 73
4
 74
0
 40
0
 40
0
 40
0
 40
0
 40
1
 40
1
 40
1
 40
1
 10
8.716272
 20
9.590314
 30
0.0
 10
8.849850
 20
9.503735
 30
0.0
 10
9.040323
 20
9.460446
 30
0.0
 10
9.287690
 20
9.460446
 30
0.0
  0
SPLINE
  5
138
100
AcDbEntity
  8
0
 62
7
100
AcDbSpline
 70
8
 71
3
 72
8
 73
4
 74
0
 40
0
 40
0
 40
0
 40
0
 40
1
 40
1
 40
1
 40
1
 10
9.287690
 20
9.460446
 30
0.0
 10
9.497952
 20
9.460446
 30
0.0
 10
9.676057
 20
9.516104
 30
0.0
 10
9.822004
 20
9.627419
 30
0.0
  0
SPLINE
  5
139
100
AcDbEntity
  8
0
 62
7
100
AcDbSpline
 70
8
 71
3
 72
8
 73
4
 74
0
 40
0
 40
0
 40
0
 40
0
 40
1
 40
1
 40
1
 40
1
 10
9.822004
 20
9.627419
 30
0.0
 10
9.967951
 20
9.741208
 30
0.0
 10
10.040925
 20
9.878497
 30
0.0
 10
10.040925
 20
10.039286
 30
0.0
  0
SPLINE
  5
13a
100
AcDbEntity
  8
0
 62
7
100
AcDbSpline
 70
8
 71
3
 72
8
 73
4
 74
0
 40
0
 40
0
 40
0
 40
0
 40
1
 40
1
 40
1
 40
1
 10
10.040925
 20
10.039286
 30
0.0
 10
10.040925
 20
10.187706
 30
0.0
 10
9.964241
 20
10.311389
 30
0.0
 10
9.810872
 20
10.410336
 30
0.0
  0
SPLINE
  5
13b
100
AcDbEntity
  8
0
 62
7
100
AcDbSpline
 70
8
 71
3
 72
8
 73
4
 74
0
 40
0
 40
0
 40
0
 40
0
 40
1
 40
1
 40
1
 40
1
 10
9.810872
 20
10.410336
 30
0.0
 10
9.657518
 20
10.511751
 30
0.0
 10
9.464578
 20
10.566169
 30
0.0
 10
9.232054
 20
10.573590
 30
0.0
  0
SPLINE
  5
13c
100
AcDbEntity
  8
0
 62
7
100
AcDbSpline
 70
8
 71
3
 72
8
 73
4
 74
0
 40
0
 40
0
 40
0
 40
0
 40
1
 40
1
 40
1
 40
1
 10
9.232054
 20
10.573590
 30
0.0
 10
9.125685
 20
10.576057
 30
0.0
 10
9.020554
 20
10.588427
 30
0.0
 10
8.916660
 20
10.610700
 30
0.0
  0
SPLINE
  5
13d
100
AcDbEntity
  8
0
 62
7
100
AcDbSpline
 70
8
 71
3
 72
8
 73
4
 74
0
 40
0
 40
0
 40
0
 40
0
 40
1
 40
1
 40
1
 40
1
 10
8.916660
 20
10.610700
 30
0.0
 10
8.812765
 20
10.632967
 30
0.0
 10
8.708871
 20
10.667598
 30
0.0
 10
8.604978
 20
10.714594
 30
0.0
  0
SPLINE
  5
13e
100
AcDbEntity
  8
0
 62
7
100
AcDbSpline
 70
8
 71
3
 72
8
 73
4
 74
0
 40
0
 40
0
 40
0
 40
0
 40
1
 40
1
 40
1
 40
1
 10
8.604978
 20
10.714594
 30
0.0
 10
8.503556
 20
10.761594
 30
0.0
 10
8.413267
 20
10.818488
 30
0.0
 10
8.334110
 20
10.885277
 30
0.0
  0
SPLINE
  5
13f
100
AcDbEntity
  8
0
 62
7
100
AcDbSpline
 70
8
 71
3
 72
8
 73
4
 74
0
 40
0
 40
0
 40
0
 40
0
 40
1
 40
1
 40
1
 40
1
 10
8.334110
 20
10.885277
 30
0.0
 10
8.257426
 20
10.954540
 30
0.0
 10
8.194348
 20
11.039881
 30
0.0
 10
8.144875
 20
11.141302
 30
0.0
  0
SPLINE
  5
140
100
AcDbEntity
  8
0
 62
7
100
AcDbSpline
 70
8
 71
3
 72
8
 73
4
 74
0
 40
0
 40
0
 40
0
 40
0
 40
1
 40
1
 40
1
 40
1
 10
8.144875
 20
11.141302
 30
0.0
 10
8.097874
 20
11.245197
 30
0.0
 10
8.074374
 20
11.360223
 30
0.0
 10
8.074374
 20
11.486380
 30
0.0
  0
SPLINE
  5
141
100
AcDbEntity
  8
0
 62
7
100
AcDbSpline
 70
8
 71
3
 72
8
 73
4
 74
0
 40
0
 40
0
 40
0
 40
0
 40
1
 40
1
 40
1
 40
1
 10
8.074374
 20
11.486380
 30
0.0
 10
8.074374
 20
11.637274
 30
0.0
 10
8.109005
 20
11.774562
 30
0.0
 10
8.178268
 20
11.898246
 30
0.0
  0
SPLINE
  5
142
100
AcDbEntity
  8
0
 62
7
100
AcDbSpline
 70
8
 71
3
 72
8
 73
4
 74
0
 40
0
 40
0
 40
0
 40
0
 40
1
 40
1
 40
1
 40
1
 10
8.178268
 20
11.898246
 30
0.0
 10
8.247530
 20
12.021930
 30
0.0
 10
8.337819
 20
12.120876
 30
0.0
 10
8.449135
 20
12.195086
 30
0.0
  0
SPLINE
  5
143
100
AcDbEntity
  8
0
 62
7
100
AcDbSpline
 70
8
 71
3
 72
8
 73
4
 74
0
 40
0
 40
0
 40
0
 40
0
 40
1
 40
1
 40
1
 40
1
 10
8.449135
 20
12.195086
 30
0.0
 10
8.560449
 20
12.271770
 30
0.0
 10
8.681659
 20
12.329902
 30
0.0
 10
8.812764
 20
12.369480
 30
0.0
  0
SPLINE
  5
144
100
AcDbEntity
  8
0
 62
7
100
AcDbSpline
 70
8
 71
3
 72
8
 73
4
 74
0
 40
0
 40
0
 40
0
 40
0
 40
1
 40
1
 40
1
 40
1
 10
8.812764
 20
12.369480
 30
0.0
 10
8.943868
 20
12.409060
 30
0.0
 10
9.076210
 20
12.428850
 30
0.0
 10
9.209788
 20
12.428850
 30
0.0
  0
SPLINE
  5
145
100
AcDbEntity
  8
0
 62
7
100
AcDbSpline
 70
8
 71
3
 72
8
 73
4
 74
0
 40
0
 40
0
 40
0
 40
0
 40
1
 40
1
 40
1
 40
1
 10
9.209788
 20
12.428850
 30
0.0
 10
9.481892
 20
12.428850
 30
0.0
 10
9.715654
 20
12.360824
 30
0.0
 10
9.911074
 20
12.224772
 30
0.0
  0
SPLINE
  5
146
100
AcDbEntity
  8
0
 62
7
100
AcDbSpline
 70
8
 71
3
 72
8
 73
4
 74
0
 40
0
 40
0
 40
0
 40
0
 40
1
 40
1
 40
1
 40
1
 10
9.911074
 20
12.224772
 30
0.0
 10
10.108968
 20
12.088720
 30
0.0
 10
10.249967
 20
11.875984
 30
0.0
 10
10.334072
 20
11.586564
 30
0.0
  0
SPLINE
  5
147
100
AcDbEntity
  8
0
 62
7
100
AcDbSpline
 70
8
 71
3
 72
8
 73
4
 74
0
 40
0
 40
0
 40
0
 40
0
 40
1
 40
1
 40
1
 40
1
 10
10.334072
 20
11.586564
 30
0.0
 10
10.339072
 20
11.566777
 30
0.0
 10
10.341572
 20
11.545751
 30
0.0
 10
10.341572
 20
11.523485
 30
0.0
  0
SPLINE
  5
148
100
AcDbEntity
  8
0
 62
7
100
AcDbSpline
 70
8
 71
3
 72
8
 73
4
 74
0
 40
0
 40
0
 40
0
 40
0
 40
1
 40
1
 40
1
 40
1
 10
10.341572
 20
11.523485
 30
0.0
 10
10.341572
 20
11.476487
 30
0.0
 10
10.326732
 20
11.431961
 30
0.0
 10
10.297052
 20
11.389907
 30
0.0
  0
SPLINE
  5
149
100
AcDbEntity
  8
0
 62
7
100
AcDbSpline
 70
8
 71
3
 72
8
 73
4
 74
0
 40
0
 40
0
 40
0
 40
0
 40
1
 40
1
 40
1
 40
1
 10
10.297052
 20
11.389907
 30
0.0
 10
10.269839
 20
11.350327
 30
0.0
 10
10.231497
 20
11.323117
 30
0.0
 10
10.182027
 20
11.308277
 30
0.0
  0
LWPOLYLINE
  5
14a
100
AcDbEntity
  8
0
 62
7
100
AcDbPolyline
 90
3
 70
0
 10
7.235326
 20
9.145051
 30
0.0
 10
6.574843
 20
10.566165
 30
0.0
 10
5.739985
 20
10.566164
 30
0.0
  0
SPLINE
  5
14b
100
AcDbEntity
  8
0
 62
7
100
AcDbSpline
 70
8
 71
3
 72
8
 73
4
 74
0
 40
0
 40
0
 40
0
 40
0
 40
1
 40
1
 40
1
 40
1
 10
12.998622
 20
12.362050
 30
0.0
 10
13.043142
 20
12.319998
 30
0.0
 10
13.065402
 20
12.268050
 30
0.0
 10
13.065402
 20
12.206208
 30
0.0
  0
SPLINE
  5
14c
100
AcDbEntity
  8
0
 62
7
100
AcDbSpline
 70
8
 71
3
 72
8
 73
4
 74
0
 40
0
 40
0
 40
0
 40
0
 40
1
 40
1
 40
1
 40
1
 10
13.065402
 20
12.206208
 30
0.0
 10
13.065402
 20
12.144367
 30
0.0
 10
13.043142
 20
12.091183
 30
0.0
 10
12.998622
 20
12.046656
 30
0.0
  0
SPLINE
  5
14d
100
AcDbEntity
  8
0
 62
7
100
AcDbSpline
 70
8
 71
3
 72
8
 73
4
 74
0
 40
0
 40
0
 40
0
 40
0
 40
1
 40
1
 40
1
 40
1
 10
12.998622
 20
12.046656
 30
0.0
 10
12.954102
 20
12.004604
 30
0.0
 10
12.902155
 20
11.983577
 30
0.0
 10
12.842780
 20
11.983577
 30
0.0
  0
LWPOLYLINE
  5
14e
100
AcDbEntity
  8
0
 62
7
100
AcDbPolyline
 90
2
 70
0
 10
10.182027
 20
11.308277
 30
0.0
 10
10.181908
 20
11.308266
 30
0.0
  0
SPLINE
  5
14f
100
AcDbEntity
  8
0
 62
7
100
AcDbSpline
 70
8
 71
3
 72
8
 73
4
 74
0
 40
0
 40
0
 40
0
 40
0
 40
1
 40
1
 40
1
 40
1
 10
12.315888
 20
11.018846
 30
0.0
 10
12.375261
 20
11.018846
 30
0.0
 10
12.427209
 20
10.996583
 30
0.0
 10
12.471730
 20
10.952056
 30
0.0
  0
SPLINE
  5
150
100
AcDbEntity
  8
0
 62
7
100
AcDbSpline
 70
8
 71
3
 72
8
 73
4
 74
0
 40
0
 40
0
 40
0
 40
0
 40
1
 40
1
 40
1
 40
1
 10
12.471730
 20
10.952056
 30
0.0
 10
12.516250
 20
10.910003
 30
0.0
 10
12.538510
 20
10.858055
 30
0.0
 10
12.538510
 20
10.796214
 30
0.0
  0
SPLINE
  5
151
100
AcDbEntity
  8
0
 62
7
100
AcDbSpline
 70
8
 71
3
 72
8
 73
4
 74
0
 40
0
 40
0
 40
0
 40
0
 40
1
 40
1
 40
1
 40
1
 10
12.538510
 20
10.796214
 30
0.0
 10
12.538510
 20
10.734374
 30
0.0
 10
12.516250
 20
10.681190
 30
0.0
 10
12.471730
 20
10.636663
 30
0.0
  0
SPLINE
  5
152
100
AcDbEntity
  8
0
 62
7
100
AcDbSpline
 70
8
 71
3
 72
8
 73
4
 74
0
 40
0
 40
0
 40
0
 40
0
 40
1
 40
1
 40
1
 40
1
 10
12.471730
 20
10.636663
 30
0.0
 10
12.427210
 20
10.594610
 30
0.0
 10
12.375263
 20
10.573583
 30
0.0
 10
12.315888
 20
10.573583
 30
0.0
  0
LWPOLYLINE
  5
153
100
AcDbEntity
  8
0
 62
7
100
AcDbPolyline
 90
4
 70
0
 10
12.842780
 20
11.983577
 30
0.0
 10
11.254683
 20
11.983577
 30
0.0
 10
11.254683
 20
11.018846
 30
0.0
 10
12.315888
 20
11.018846
 30
0.0
  0
SPLINE
  5
154
100
AcDbEntity
  8
0
 62
7
100
AcDbSpline
 70
8
 71
3
 72
8
 73
4
 74
0
 40
0
 40
0
 40
0
 40
0
 40
1
 40
1
 40
1
 40
1
 10
12.954096
 20
9.460430
 30
0.0
 10
13.013469
 20
9.460430
 30
0.0
 10
13.065416
 20
9.438170
 30
0.0
 10
13.109936
 20
9.393650
 30
0.0
  0
SPLINE
  5
155
100
AcDbEntity
  8
0
 62
7
100
AcDbSpline
 70
8
 71
3
 72
8
 73
4
 74
0
 40
0
 40
0
 40
0
 40
0
 40
1
 40
1
 40
1
 40
1
 10
13.109936
 20
9.393650
 30
0.0
 10
13.154463
 20
9.351597
 30
0.0
 10
13.176726
 20
9.299649
 30
0.0
 10
13.176726
 20
9.237808
 30
0.0
  0
SPLINE
  5
156
100
AcDbEntity
  8
0
 62
7
100
AcDbSpline
 70
8
 71
3
 72
8
 73
4
 74
0
 40
0
 40
0
 40
0
 40
0
 40
1
 40
1
 40
1
 40
1
 10
13.176726
 20
9.237808
 30
0.0
 10
13.176726
 20
9.175968
 30
0.0
 10
13.154463
 20
9.124021
 30
0.0
 10
13.109936
 20
9.081968
 30
0.0
  0
SPLINE
  5
157
100
AcDbEntity
  8
0
 62
7
100
AcDbSpline
 70
8
 71
3
 72
8
 73
4
 74
0
 40
0
 40
0
 40
0
 40
0
 40
1
 40
1
 40
1
 40
1
 10
13.109936
 20
9.081968
 30
0.0
 10
13.065416
 20
9.037441
 30
0.0
 10
13.013469
 20
9.015178
 30
0.0
 10
12.954096
 20
9.015178
 30
0.0
  0
LWPOLYLINE
  5
158
100
AcDbEntity
  8
0
 62
7
100
AcDbPolyline
 90
4
 70
0
 10
12.315888
 20
10.573583
 30
0.0
 10
11.254683
 20
10.573583
 30
0.0
 10
11.254683
 20
9.460430
 30
0.0
 10
12.954096
 20
9.460430
 30
0.0
  0
SPLINE
  5
159
100
AcDbEntity
  8
0
 62
7
100
AcDbSpline
 70
8
 71
3
 72
8
 73
4
 74
0
 40
0
 40
0
 40
0
 40
0
 40
1
 40
1
 40
1
 40
1
 10
11.032053
 20
9.015178
 30
0.0
 10
10.980100
 20
9.015178
 30
0.0
 10
10.929389
 20
9.036205
 30
0.0
 10
10.879921
 20
9.078258
 30
0.0
  0
SPLINE
  5
15a
100
AcDbEntity
  8
0
 62
7
100
AcDbSpline
 70
8
 71
3
 72
8
 73
4
 74
0
 40
0
 40
0
 40
0
 40
0
 40
1
 40
1
 40
1
 40
1
 10
10.879921
 20
9.078258
 30
0.0
 10
10.832921
 20
9.120311
 30
0.0
 10
10.809421
 20
9.173495
 30
0.0
 10
10.809421
 20
9.237810
 30
0.0
  0
LWPOLYLINE
  5
15b
100
AcDbEntity
  8
0
 62
7
100
AcDbPolyline
 90
2
 70
0
 10
12.954096
 20
9.015178
 30
0.0
 10
11.032053
 20
9.015178
 30
0.0
  0
SPLINE
  5
15c
100
AcDbEntity
  8
0
 62
7
100
AcDbSpline
 70
8
 71
3
 72
8
 73
4
 74
0
 40
0
 40
0
 40
0
 40
0
 40
1
 40
1
 40
1
 40
1
 10
10.809421
 20
12.206211
 30
0.0
 10
10.809421
 20
12.258160
 30
0.0
 10
10.830448
 20
12.307634
 30
0.0
 10
10.872501
 20
12.354631
 30
0.0
  0
SPLINE
  5
15d
100
AcDbEntity
  8
0
 62
7
100
AcDbSpline
 70
8
 71
3
 72
8
 73
4
 74
0
 40
0
 40
0
 40
0
 40
0
 40
1
 40
1
 40
1
 40
1
 10
10.872501
 20
12.354631
 30
0.0
 10
10.914554
 20
12.404102
 30
0.0
 10
10.967739
 20
12.428837
 30
0.0
 10
11.032054
 20
12.428837
 30
0.0
  0
LWPOLYLINE
  5
15e
100
AcDbEntity
  8
0
 62
7
100
AcDbPolyline
 90
2
 70
0
 10
10.809421
 20
9.237810
 30
0.0
 10
10.809421
 20
12.206211
 30
0.0
  0
SPLINE
  5
15f
100
AcDbEntity
  8
0
 62
7
100
AcDbSpline
 70
8
 71
3
 72
8
 73
4
 74
0
 40
0
 40
0
 40
0
 40
0
 40
1
 40
1
 40
1
 40
1
 10
12.842781
 20
12.428837
 30
0.0
 10
12.902148
 20
12.428837
 30
0.0
 10
12.954094
 20
12.406575
 30
0.0
 10
12.998621
 20
12.362049
 30
0.0
  0
LWPOLYLINE
  5
160
100
AcDbEntity
  8
0
 62
7
100
AcDbPolyline
 90
2
 70
0
 10
11.032054
 20
12.428837
 30
0.0
 10
12.842781
 20
12.428837
 30
0.0
  0
SPLINE
  5
161
100
AcDbEntity
  8
0
 62
7
100
AcDbSpline
 70
8
 71
3
 72
8
 73
4
 74
0
 40
0
 40
0
 40
0
 40
0
 40
1
 40
1
 40
1
 40
1
 10
13.563062
 20
12.046656
 30
0.0
 10
13.521009
 20
12.091182
 30
0.0
 10
13.499982
 20
12.144366
 30
0.0
 10
13.499982
 20
12.206208
 30
0.0
  0
SPLINE
  5
162
100
AcDbEntity
  8
0
 62
7
100
AcDbSpline
 70
8
 71
3
 72
8
 73
4
 74
0
 40
0
 40
0
 40
0
 40
0
 40
1
 40
1
 40
1
 40
1
 10
13.499982
 20
12.206208
 30
0.0
 10
13.499982
 20
12.268050
 30
0.0
 10
13.521009
 20
12.319997
 30
0.0
 10
13.563062
 20
12.362050
 30
0.0
  0
SPLINE
  5
163
100
AcDbEntity
  8
0
 62
7
100
AcDbSpline
 70
8
 71
3
 72
8
 73
4
 74
0
 40
0
 40
0
 40
0
 40
0
 40
1
 40
1
 40
1
 40
1
 10
13.563062
 20
12.362050
 30
0.0
 10
13.607582
 20
12.406576
 30
0.0
 10
13.660766
 20
12.428838
 30
0.0
 10
13.722613
 20
12.428838
 30
0.0
  0
LWPOLYLINE
  5
164
100
AcDbEntity
  8
0
 62
7
100
AcDbPolyline
 90
1
 70
1
 10
12.998621
 20
12.362049
 30
0.0
  0
SPLINE
  5
165
100
AcDbEntity
  8
0
 62
7
100
AcDbSpline
 70
8
 71
3
 72
8
 73
4
 74
0
 40
0
 40
0
 40
0
 40
0
 40
1
 40
1
 40
1
 40
1
 10
15.926655
 20
12.428838
 30
0.0
 10
15.986028
 20
12.428838
 30
0.0
 10
16.037976
 20
12.406576
 30
0.0
 10
16.082497
 20
12.362050
 30
0.0
  0
SPLINE
  5
166
100
AcDbEntity
  8
0
 62
7
100
AcDbSpline
 70
8
 71
3
 72
8
 73
4
 74
0
 40
0
 40
0
 40
0
 40
0
 40
1
 40
1
 40
1
 40
1
 10
16.082497
 20
12.362050
 30
0.0
 10
16.127017
 20
12.319998
 30
0.0
 10
16.149277
 20
12.268050
 30
0.0
 10
16.149277
 20
12.206208
 30
0.0
  0
SPLINE
  5
167
100
AcDbEntity
  8
0
 62
7
100
AcDbSpline
 70
8
 71
3
 72
8
 73
4
 74
0
 40
0
 40
0
 40
0
 40
0
 40
1
 40
1
 40
1
 40
1
 10
16.149277
 20
12.206208
 30
0.0
 10
16.149277
 20
12.144367
 30
0.0
 10
16.127017
 20
12.091183
 30
0.0
 10
16.082497
 20
12.046656
 30
0.0
  0
SPLINE
  5
168
100
AcDbEntity
  8
0
 62
7
100
AcDbSpline
 70
8
 71
3
 72
8
 73
4
 74
0
 40
0
 40
0
 40
0
 40
0
 40
1
 40
1
 40
1
 40
1
 10
16.082497
 20
12.046656
 30
0.0
 10
16.037970
 20
12.004604
 30
0.0
 10
15.986023
 20
11.983577
 30
0.0
 10
15.926655
 20
11.983577
 30
0.0
  0
LWPOLYLINE
  5
169
100
AcDbEntity
  8
0
 62
7
100
AcDbPolyline
 90
2
 70
0
 10
13.722613
 20
12.428838
 30
0.0
 10
15.926655
 20
12.428838
 30
0.0
  0
SPLINE
  5
16a
100
AcDbEntity
  8
0
 62
7
100
AcDbSpline
 70
8
 71
3
 72
8
 73
4
 74
0
 40
0
 40
0
 40
0
 40
0
 40
1
 40
1
 40
1
 40
1
 10
15.050975
 20
9.237801
 30
0.0
 10
15.050975
 20
9.175961
 30
0.0
 10
15.028715
 20
9.124014
 30
0.0
 10
14.984195
 20
9.081961
 30
0.0
  0
SPLINE
  5
16b
100
AcDbEntity
  8
0
 62
7
100
AcDbSpline
 70
8
 71
3
 72
8
 73
4
 74
0
 40
0
 40
0
 40
0
 40
0
 40
1
 40
1
 40
1
 40
1
 10
14.984195
 20
9.081961
 30
0.0
 10
14.939675
 20
9.037441
 30
0.0
 10
14.886491
 20
9.015181
 30
0.0
 10
14.824644
 20
9.015181
 30
0.0
  0
SPLINE
  5
16c
100
AcDbEntity
  8
0
 62
7
100
AcDbSpline
 70
8
 71
3
 72
8
 73
4
 74
0
 40
0
 40
0
 40
0
 40
0
 40
1
 40
1
 40
1
 40
1
 10
14.824644
 20
9.015181
 30
0.0
 10
14.765271
 20
9.015181
 30
0.0
 10
14.713323
 20
9.037441
 30
0.0
 10
14.668802
 20
9.081961
 30
0.0
  0
SPLINE
  5
16d
100
AcDbEntity
  8
0
 62
7
100
AcDbSpline
 70
8
 71
3
 72
8
 73
4
 74
0
 40
0
 40
0
 40
0
 40
0
 40
1
 40
1
 40
1
 40
1
 10
14.668802
 20
9.081961
 30
0.0
 10
14.626749
 20
9.124014
 30
0.0
 10
14.605722
 20
9.175961
 30
0.0
 10
14.605722
 20
9.237801
 30
0.0
  0
LWPOLYLINE
  5
16e
100
AcDbEntity
  8
0
 62
7
100
AcDbPolyline
 90
3
 70
0
 10
15.926655
 20
11.983577
 30
0.0
 10
15.050975
 20
11.983577
 30
0.0
 10
15.050975
 20
9.237801
 30
0.0
  0
SPLINE
  5
16f
100
AcDbEntity
  8
0
 62
7
100
AcDbSpline
 70
8
 71
3
 72
8
 73
4
 74
0
 40
0
 40
0
 40
0
 40
0
 40
1
 40
1
 40
1
 40
1
 10
13.722620
 20
11.983577
 30
0.0
 10
13.660780
 20
11.983577
 30
0.0
 10
13.607596
 20
12.004603
 30
0.0
 10
13.563069
 20
12.046656
 30
0.0
  0
LWPOLYLINE
  5
170
100
AcDbEntity
  8
0
 62
7
100
AcDbPolyline
 90
3
 70
0
 10
14.605722
 20
9.237801
 30
0.0
 10
14.605722
 20
11.983577
 30
0.0
 10
13.722620
 20
11.983577
 30
0.0
  0
LWPOLYLINE
  5
171
100
AcDbEntity
  8
0
 62
7
100
AcDbPolyline
 90
1
 70
1
 10
13.563069
 20
12.046656
 30
0.0
  0
ENDSEC
  0
SECTION
  2
OBJECTS
  0
DICTIONARY
  5
C
330
0
100
AcDbDictionary
  3
ACAD_GROUP
350
D
  3
ACAD_MLINESTYLE
350
17
  0
DICTIONARY
  5
D
330
C
100
AcDbDictionary
  0
DICTIONARY
  5
1A
330
C
100
AcDbDictionary
  0
DICTIONARY
  5
17
330
C
100
AcDbDictionary
  3
STANDARD
350
18
  0
DICTIONARY
  5
19
330
C
100
AcDbDictionary
  0
ENDSEC
  0
EOF
