  0
SECTION
  2
HEADER
  9
$ACADVER
  1
AC1014
  9
$HANDSEED
  5
FFFF
  9
$INSUNITS
 70
     4
  9
$MEASUREMENT
 70
     1
  0
ENDSEC
  0
SECTION
  2
TABLES
  0
TABLE
  2
VPORT
  5
8
330
0
100
AcDbSymbolTable
 70
     4
  0
VPORT
  5
2E
330
8
100
AcDbSymbolTableRecord
100
AcDbViewportTableRecord
  2
*ACTIVE
 70
     0
 10
0.0
 20
0.0
 11
1.0
 21
1.0
 12
210.0
 22
148.5
 13
0.0
 23
0.0
 14
10.0
 24
10.0
 15
10.0
 25
10.0
 16
0.0
 26
0.0
 36
1.0
 17
0.0
 27
0.0
 37
0.0
 40
341.0
 41
1.24
 42
50.0
 43
0.0
 44
0.0
 50
0.0
 51
0.0
 71
     0
 72
   100
 73
     1
 74
     3
 75
     0
 76
     0
 77
     0
 78
     0
  0
ENDTAB
  0
TABLE
  2
LTYPE
  5
5
330
0
100
AcDbSymbolTable
 70
     1
  0
LTYPE
  5
14
330
5
100
AcDbSymbolTableRecord
100
AcDbLinetypeTableRecord
  2
BYBLOCK
 70
     0
  3

 72
    65
 73
     0
 40
0.0
  0
LTYPE
  5
15
330
5
100
AcDbSymbolTableRecord
100
AcDbLinetypeTableRecord
  2
BYLAYER
 70
     0
  3

 72
    65
 73
     0
 40
0.0
  0
LTYPE
  5
16
330
5
100
AcDbSymbolTableRecord
100
AcDbLinetypeTableRecord
  2
CONTINUOUS
 70
     0
  3
Solid line
 72
    65
 73
     0
 40
0.0
  0
ENDTAB
  0
TABLE
  2
LAYER
  5
2
100
AcDbSymbolTable
 70
1
  0
LAYER
  5
50
100
AcDbSymbolTableRecord
100
AcDbLayerTableRecord
  2
0
 70
0
  6
CONTINUOUS
  0
ENDTAB
  0
TABLE
  2
STYLE
  5
3
330
0
100
AcDbSymbolTable
 70
     1
  0
STYLE
  5
11
330
3
100
AcDbSymbolTableRecord
100
AcDbTextStyleTableRecord
  2
STANDARD
 70
     0
 40
0.0
 41
1.0
 50
0.0
 71
     0
 42
2.5
  3
txt
  4

  0
ENDTAB
  0
TABLE
  2
VIEW
  5
6
330
0
100
AcDbSymbolTable
 70
     0
  0
ENDTAB
  0
TABLE
  2
UCS
  5
7
330
0
100
AcDbSymbolTable
 70
     0
  0
ENDTAB
  0
TABLE
  2
APPID
  5
9
330
0
100
AcDbSymbolTable
 70
     2
  0
APPID
  5
12
330
9
100
AcDbSymbolTableRecord
100
AcDbRegAppTableRecord
  2
ACAD
 70
     0
  0
ENDTAB
  0
TABLE
  2
DIMSTYLE
  5
A
330
0
100
AcDbSymbolTable
 70
     1
  0
DIMSTYLE
105
27
330
A
100
AcDbSymbolTableRecord
100
AcDbDimStyleTableRecord
  2
ISO-25
 70
     0
  3

  4

  5

  6

  7

 40
1.0
 41
2.5
 42
0.625
 43
3.75
 44
1.25
 45
0.0
 46
0.0
 47
0.0
 48
0.0
140
2.5
141
2.5
142
0.0
143
0.03937007874016
144
1.0
145
0.0
146
1.0
147
0.625
 71
     0
 72
     0
 73
     0
 74
     0
 75
     0
 76
     0
 77
     1
 78
     8
170
     0
171
     3
172
     1
173
     0
174
     0
175
     0
176
     0
177
     0
178
     0
270
     2
271
     2
272
     2
273
     2
274
     3
340
11
275
     0
280
     0
281
     0
282
     0
283
     0
284
     8
285
     0
286
     0
287
     3
288
     0
  0
ENDTAB
  0
TABLE
  2
BLOCK_RECORD
  5
1
330
0
100
AcDbSymbolTable
 70
     1
  0
BLOCK_RECORD
  5
1F
330
1
100
AcDbSymbolTableRecord
100
AcDbBlockTableRecord
  2
*MODEL_SPACE
  0
BLOCK_RECORD
  5
1B
330
1
100
AcDbSymbolTableRecord
100
AcDbBlockTableRecord
  2
*PAPER_SPACE
  0
ENDTAB
  0
ENDSEC
  0
SECTION
  2
BLOCKS
  0
BLOCK
  5
20
330
1F
100
AcDbEntity
  8
0
100
AcDbBlockBegin
  2
*MODEL_SPACE
 70
     0
 10
0.0
 20
0.0
 30
0.0
  3
*MODEL_SPACE
  1

  0
ENDBLK
  5
21
330
1F
100
AcDbEntity
  8
0
100
AcDbBlockEnd
  0
BLOCK
  5
1C
330
1B
100
AcDbEntity
 67
     1
  8
0
100
AcDbBlockBegin
  2
*PAPER_SPACE
  1

  0
ENDBLK
  5
1D
330
1B
100
AcDbEntity
 67
     1
  8
0
100
AcDbBlockEnd
  0
ENDSEC
  0
SECTION
  2
ENTITIES
  0
SPLINE
  5
100
100
AcDbEntity
  8
0
 62
7
100
AcDbSpline
 70
8
 71
3
 72
8
 73
4
 74
0
 40
0
 40
0
 40
0
 40
0
 40
1
 40
1
 40
1
 40
1
 10
5.539909
 20
12.417707
 30
0.0
 10
5.559699
 20
12.425126
 30
0.0
 10
5.581962
 20
12.428836
 30
0.0
 10
5.606698
 20
12.428836
 30
0.0
  0
SPLINE
  5
101
100
AcDbEntity
  8
0
 62
7
100
AcDbSpline
 70
8
 71
3
 72
8
 73
4
 74
0
 40
0
 40
0
 40
0
 40
0
 40
1
 40
1
 40
1
 40
1
 10
5.606698
 20
12.428836
 30
0.0
 10
5.653696
 20
12.428836
 30
0.0
 10
5.696986
 20
12.413995
 30
0.0
 10
5.736565
 20
12.384313
 30
0.0
  0
SPLINE
  5
102
100
AcDbEntity
  8
0
 62
7
100
AcDbSpline
 70
8
 71
3
 72
8
 73
4
 74
0
 40
0
 40
0
 40
0
 40
0
 40
1
 40
1
 40
1
 40
1
 10
5.736565
 20
12.384313
 30
0.0
 10
5.776144
 20
12.357103
 30
0.0
 10
5.803353
 20
12.319998
 30
0.0
 10
5.818192
 20
12.272997
 30
0.0
  0
SPLINE
  5
103
100
AcDbEntity
  8
0
 62
7
100
AcDbSpline
 70
8
 71
3
 72
8
 73
4
 74
0
 40
0
 40
0
 40
0
 40
0
 40
1
 40
1
 40
1
 40
1
 10
7.521312
 20
12.276708
 30
0.0
 10
7.536156
 20
12.323706
 30
0.0
 10
7.563365
 20
12.360812
 30
0.0
 10
7.602939
 20
12.388023
 30
0.0
  0
SPLINE
  5
104
100
AcDbEntity
  8
0
 62
7
100
AcDbSpline
 70
8
 71
3
 72
8
 73
4
 74
0
 40
0
 40
0
 40
0
 40
0
 40
1
 40
1
 40
1
 40
1
 10
7.602939
 20
12.388023
 30
0.0
 10
7.642519
 20
12.415233
 30
0.0
 10
7.685809
 20
12.428837
 30
0.0
 10
7.732807
 20
12.428837
 30
0.0
  0
SPLINE
  5
105
100
AcDbEntity
  8
0
 62
7
100
AcDbSpline
 70
8
 71
3
 72
8
 73
4
 74
0
 40
0
 40
0
 40
0
 40
0
 40
1
 40
1
 40
1
 40
1
 10
7.732807
 20
12.428837
 30
0.0
 10
7.757543
 20
12.428837
 30
0.0
 10
7.781042
 20
12.425128
 30
0.0
 10
7.803305
 20
12.417708
 30
0.0
  0
SPLINE
  5
106
100
AcDbEntity
  8
0
 62
7
100
AcDbSpline
 70
8
 71
3
 72
8
 73
4
 74
0
 40
0
 40
0
 40
0
 40
0
 40
1
 40
1
 40
1
 40
1
 10
7.803305
 20
12.417708
 30
0.0
 10
7.847831
 20
12.402864
 30
0.0
 10
7.883699
 20
12.375655
 30
0.0
 10
7.910909
 20
12.336081
 30
0.0
  0
SPLINE
  5
107
100
AcDbEntity
  8
0
 62
7
100
AcDbSpline
 70
8
 71
3
 72
8
 73
4
 74
0
 40
0
 40
0
 40
0
 40
0
 40
1
 40
1
 40
1
 40
1
 10
7.910909
 20
12.336081
 30
0.0
 10
7.938118
 20
12.296501
 30
0.0
 10
7.951723
 20
12.253212
 30
0.0
 10
7.951723
 20
12.206214
 30
0.0
  0
SPLINE
  5
108
100
AcDbEntity
  8
0
 62
7
100
AcDbSpline
 70
8
 71
3
 72
8
 73
4
 74
0
 40
0
 40
0
 40
0
 40
0
 40
1
 40
1
 40
1
 40
1
 10
7.951723
 20
12.206214
 30
0.0
 10
7.951723
 20
12.181478
 30
0.0
 10
7.948013
 20
12.157979
 30
0.0
 10
7.940594
 20
12.135716
 30
0.0
  0
LWPOLYLINE
  5
109
100
AcDbEntity
  8
0
 62
7
100
AcDbPolyline
 90
3
 70
0
 10
5.818192
 20
12.272997
 30
0.0
 10
6.645634
 20
9.709041
 30
0.0
 10
7.521312
 20
12.276708
 30
0.0
  0
SPLINE
  5
10a
100
AcDbEntity
  8
0
 62
7
100
AcDbSpline
 70
8
 71
3
 72
8
 73
4
 74
0
 40
0
 40
0
 40
0
 40
0
 40
1
 40
1
 40
1
 40
1
 10
6.927627
 20
9.167316
 30
0.0
 10
6.915262
 20
9.125263
 30
0.0
 10
6.889289
 20
9.089394
 30
0.0
 10
6.849709
 20
9.059710
 30
0.0
  0
SPLINE
  5
10b
100
AcDbEntity
  8
0
 62
7
100
AcDbSpline
 70
8
 71
3
 72
8
 73
4
 74
0
 40
0
 40
0
 40
0
 40
0
 40
1
 40
1
 40
1
 40
1
 10
6.849709
 20
9.059710
 30
0.0
 10
6.810129
 20
9.030030
 30
0.0
 10
6.766840
 20
9.015190
 30
0.0
 10
6.719841
 20
9.015190
 30
0.0
  0
LWPOLYLINE
  5
10c
100
AcDbEntity
  8
0
 62
7
100
AcDbPolyline
 90
2
 70
0
 10
7.940594
 20
12.135716
 30
0.0
 10
6.927627
 20
9.167316
 30
0.0
  0
SPLINE
  5
10d
100
AcDbEntity
  8
0
 62
7
100
AcDbSpline
 70
8
 71
3
 72
8
 73
4
 74
0
 40
0
 40
0
 40
0
 40
0
 40
1
 40
1
 40
1
 40
1
 10
6.564006
 20
9.015190
 30
0.0
 10
6.517008
 20
9.015190
 30
0.0
 10
6.472481
 20
9.030030
 30
0.0
 10
6.430428
 20
9.059710
 30
0.0
  0
SPLINE
  5
10e
100
AcDbEntity
  8
0
 62
7
100
AcDbSpline
 70
8
 71
3
 72
8
 73
4
 74
0
 40
0
 40
0
 40
0
 40
0
 40
1
 40
1
 40
1
 40
1
 10
6.430428
 20
9.059710
 30
0.0
 10
6.390848
 20
9.086923
 30
0.0
 10
6.363639
 20
9.124029
 30
0.0
 10
6.348801
 20
9.171027
 30
0.0
  0
LWPOLYLINE
  5
10f
100
AcDbEntity
  8
0
 62
7
100
AcDbPolyline
 90
3
 70
0
 10
6.719841
 20
9.015190
 30
0.0
 10
6.641924
 20
9.015190
 30
0.0
 10
6.564006
 20
9.015190
 30
0.0
  0
SPLINE
  5
110
100
AcDbEntity
  8
0
 62
7
100
AcDbSpline
 70
8
 71
3
 72
8
 73
4
 74
0
 40
0
 40
0
 40
0
 40
0
 40
1
 40
1
 40
1
 40
1
 10
5.395203
 20
12.139425
 30
0.0
 10
5.387784
 20
12.159215
 30
0.0
 10
5.384074
 20
12.181478
 30
0.0
 10
5.384074
 20
12.206214
 30
0.0
  0
SPLINE
  5
111
100
AcDbEntity
  8
0
 62
7
100
AcDbSpline
 70
8
 71
3
 72
8
 73
4
 74
0
 40
0
 40
0
 40
0
 40
0
 40
1
 40
1
 40
1
 40
1
 10
5.384074
 20
12.206214
 30
0.0
 10
5.384074
 20
12.253213
 30
0.0
 10
5.397679
 20
12.296502
 30
0.0
 10
5.424888
 20
12.336082
 30
0.0
  0
SPLINE
  5
112
100
AcDbEntity
  8
0
 62
7
100
AcDbSpline
 70
8
 71
3
 72
8
 73
4
 74
0
 40
0
 40
0
 40
0
 40
0
 40
1
 40
1
 40
1
 40
1
 10
5.424888
 20
12.336082
 30
0.0
 10
5.454570
 20
12.375662
 30
0.0
 10
5.492912
 20
12.402871
 30
0.0
 10
5.539913
 20
12.417709
 30
0.0
  0
LWPOLYLINE
  5
113
100
AcDbEntity
  8
0
 62
7
100
AcDbPolyline
 90
2
 70
0
 10
6.348801
 20
9.171027
 30
0.0
 10
5.395203
 20
12.139425
 30
0.0
  0
SPLINE
  5
114
100
AcDbEntity
  8
0
 62
7
100
AcDbSpline
 70
8
 71
3
 72
8
 73
4
 74
0
 40
0
 40
0
 40
0
 40
0
 40
1
 40
1
 40
1
 40
1
 10
10.472651
 20
12.362047
 30
0.0
 10
10.517178
 20
12.319994
 30
0.0
 10
10.539441
 20
12.268047
 30
0.0
 10
10.539441
 20
12.206206
 30
0.0
  0
SPLINE
  5
115
100
AcDbEntity
  8
0
 62
7
100
AcDbSpline
 70
8
 71
3
 72
8
 73
4
 74
0
 40
0
 40
0
 40
0
 40
0
 40
1
 40
1
 40
1
 40
1
 10
10.539441
 20
12.206206
 30
0.0
 10
10.539441
 20
12.144364
 30
0.0
 10
10.517178
 20
12.091181
 30
0.0
 10
10.472651
 20
12.046654
 30
0.0
  0
SPLINE
  5
116
100
AcDbEntity
  8
0
 62
7
100
AcDbSpline
 70
8
 71
3
 72
8
 73
4
 74
0
 40
0
 40
0
 40
0
 40
0
 40
1
 40
1
 40
1
 40
1
 10
10.472651
 20
12.046654
 30
0.0
 10
10.428118
 20
12.004602
 30
0.0
 10
10.376171
 20
11.983575
 30
0.0
 10
10.316810
 20
11.983575
 30
0.0
  0
LWPOLYLINE
  5
117
100
AcDbEntity
  8
0
 62
7
100
AcDbPolyline
 90
1
 70
1
 10
5.539913
 20
12.417709
 30
0.0
  0
SPLINE
  5
118
100
AcDbEntity
  8
0
 62
7
100
AcDbSpline
 70
8
 71
3
 72
8
 73
4
 74
0
 40
0
 40
0
 40
0
 40
0
 40
1
 40
1
 40
1
 40
1
 10
9.789918
 20
11.018846
 30
0.0
 10
9.849288
 20
11.018846
 30
0.0
 10
9.901235
 20
10.996583
 30
0.0
 10
9.945759
 20
10.952056
 30
0.0
  0
SPLINE
  5
119
100
AcDbEntity
  8
0
 62
7
100
AcDbSpline
 70
8
 71
3
 72
8
 73
4
 74
0
 40
0
 40
0
 40
0
 40
0
 40
1
 40
1
 40
1
 40
1
 10
9.945759
 20
10.952056
 30
0.0
 10
9.990289
 20
10.910003
 30
0.0
 10
10.012554
 20
10.858056
 30
0.0
 10
10.012554
 20
10.796216
 30
0.0
  0
SPLINE
  5
11a
100
AcDbEntity
  8
0
 62
7
100
AcDbSpline
 70
8
 71
3
 72
8
 73
4
 74
0
 40
0
 40
0
 40
0
 40
0
 40
1
 40
1
 40
1
 40
1
 10
10.012554
 20
10.796216
 30
0.0
 10
10.012554
 20
10.734376
 30
0.0
 10
9.990289
 20
10.681192
 30
0.0
 10
9.945759
 20
10.636663
 30
0.0
  0
SPLINE
  5
11b
100
AcDbEntity
  8
0
 62
7
100
AcDbSpline
 70
8
 71
3
 72
8
 73
4
 74
0
 40
0
 40
0
 40
0
 40
0
 40
1
 40
1
 40
1
 40
1
 10
9.945759
 20
10.636663
 30
0.0
 10
9.901233
 20
10.594610
 30
0.0
 10
9.849286
 20
10.573583
 30
0.0
 10
9.789918
 20
10.573583
 30
0.0
  0
LWPOLYLINE
  5
11c
100
AcDbEntity
  8
0
 62
7
100
AcDbPolyline
 90
4
 70
0
 10
10.316810
 20
11.983575
 30
0.0
 10
8.728715
 20
11.983575
 30
0.0
 10
8.728715
 20
11.018846
 30
0.0
 10
9.789918
 20
11.018846
 30
0.0
  0
SPLINE
  5
11d
100
AcDbEntity
  8
0
 62
7
100
AcDbSpline
 70
8
 71
3
 72
8
 73
4
 74
0
 40
0
 40
0
 40
0
 40
0
 40
1
 40
1
 40
1
 40
1
 10
10.428124
 20
9.460433
 30
0.0
 10
10.487497
 20
9.460433
 30
0.0
 10
10.539444
 20
9.438170
 30
0.0
 10
10.583965
 20
9.393643
 30
0.0
  0
SPLINE
  5
11e
100
AcDbEntity
  8
0
 62
7
100
AcDbSpline
 70
8
 71
3
 72
8
 73
4
 74
0
 40
0
 40
0
 40
0
 40
0
 40
1
 40
1
 40
1
 40
1
 10
10.583965
 20
9.393643
 30
0.0
 10
10.628498
 20
9.351590
 30
0.0
 10
10.650765
 20
9.299642
 30
0.0
 10
10.650765
 20
9.237801
 30
0.0
  0
SPLINE
  5
11f
100
AcDbEntity
  8
0
 62
7
100
AcDbSpline
 70
8
 71
3
 72
8
 73
4
 74
0
 40
0
 40
0
 40
0
 40
0
 40
1
 40
1
 40
1
 40
1
 10
10.650765
 20
9.237801
 30
0.0
 10
10.650765
 20
9.175961
 30
0.0
 10
10.628498
 20
9.124014
 30
0.0
 10
10.583965
 20
9.081961
 30
0.0
  0
SPLINE
  5
120
100
AcDbEntity
  8
0
 62
7
100
AcDbSpline
 70
8
 71
3
 72
8
 73
4
 74
0
 40
0
 40
0
 40
0
 40
0
 40
1
 40
1
 40
1
 40
1
 10
10.583965
 20
9.081961
 30
0.0
 10
10.539438
 20
9.037434
 30
0.0
 10
10.487491
 20
9.015171
 30
0.0
 10
10.428124
 20
9.015171
 30
0.0
  0
LWPOLYLINE
  5
121
100
AcDbEntity
  8
0
 62
7
100
AcDbPolyline
 90
4
 70
0
 10
9.789918
 20
10.573583
 30
0.0
 10
8.728715
 20
10.573583
 30
0.0
 10
8.728715
 20
9.460433
 30
0.0
 10
10.428124
 20
9.460433
 30
0.0
  0
SPLINE
  5
122
100
AcDbEntity
  8
0
 62
7
100
AcDbSpline
 70
8
 71
3
 72
8
 73
4
 74
0
 40
0
 40
0
 40
0
 40
0
 40
1
 40
1
 40
1
 40
1
 10
8.506085
 20
9.015171
 30
0.0
 10
8.454139
 20
9.015171
 30
0.0
 10
8.403429
 20
9.036198
 30
0.0
 10
8.353954
 20
9.078251
 30
0.0
  0
SPLINE
  5
123
100
AcDbEntity
  8
0
 62
7
100
AcDbSpline
 70
8
 71
3
 72
8
 73
4
 74
0
 40
0
 40
0
 40
0
 40
0
 40
1
 40
1
 40
1
 40
1
 10
8.353954
 20
9.078251
 30
0.0
 10
8.306955
 20
9.120304
 30
0.0
 10
8.283455
 20
9.173489
 30
0.0
 10
8.283455
 20
9.237805
 30
0.0
  0
LWPOLYLINE
  5
124
100
AcDbEntity
  8
0
 62
7
100
AcDbPolyline
 90
2
 70
0
 10
10.428124
 20
9.015171
 30
0.0
 10
8.506085
 20
9.015171
 30
0.0
  0
SPLINE
  5
125
100
AcDbEntity
  8
0
 62
7
100
AcDbSpline
 70
8
 71
3
 72
8
 73
4
 74
0
 40
0
 40
0
 40
0
 40
0
 40
1
 40
1
 40
1
 40
1
 10
8.283455
 20
12.206204
 30
0.0
 10
8.283455
 20
12.258150
 30
0.0
 10
8.304481
 20
12.307623
 30
0.0
 10
8.346534
 20
12.354625
 30
0.0
  0
SPLINE
  5
126
100
AcDbEntity
  8
0
 62
7
100
AcDbSpline
 70
8
 71
3
 72
8
 73
4
 74
0
 40
0
 40
0
 40
0
 40
0
 40
1
 40
1
 40
1
 40
1
 10
8.346534
 20
12.354625
 30
0.0
 10
8.388587
 20
12.404097
 30
0.0
 10
8.441771
 20
12.428833
 30
0.0
 10
8.506086
 20
12.428833
 30
0.0
  0
LWPOLYLINE
  5
127
100
AcDbEntity
  8
0
 62
7
100
AcDbPolyline
 90
2
 70
0
 10
8.283455
 20
9.237805
 30
0.0
 10
8.283455
 20
12.206204
 30
0.0
  0
SPLINE
  5
128
100
AcDbEntity
  8
0
 62
7
100
AcDbSpline
 70
8
 71
3
 72
8
 73
4
 74
0
 40
0
 40
0
 40
0
 40
0
 40
1
 40
1
 40
1
 40
1
 10
10.316810
 20
12.428833
 30
0.0
 10
10.376183
 20
12.428833
 30
0.0
 10
10.428131
 20
12.406570
 30
0.0
 10
10.472652
 20
12.362044
 30
0.0
  0
LWPOLYLINE
  5
129
100
AcDbEntity
  8
0
 62
7
100
AcDbPolyline
 90
2
 70
0
 10
8.506086
 20
12.428833
 30
0.0
 10
10.316810
 20
12.428833
 30
0.0
  0
LWPOLYLINE
  5
12a
100
AcDbEntity
  8
0
 62
7
100
AcDbPolyline
 90
1
 70
1
 10
10.472652
 20
12.362044
 30
0.0
  0
SPLINE
  5
12b
100
AcDbEntity
  8
0
 62
7
100
AcDbSpline
 70
8
 71
3
 72
8
 73
4
 74
0
 40
0
 40
0
 40
0
 40
0
 40
1
 40
1
 40
1
 40
1
 10
12.336807
 20
11.011425
 30
0.0
 10
12.477806
 20
11.011425
 30
0.0
 10
12.610147
 20
11.060898
 30
0.0
 10
12.733831
 20
11.159844
 30
0.0
  0
SPLINE
  5
12c
100
AcDbEntity
  8
0
 62
7
100
AcDbSpline
 70
8
 71
3
 72
8
 73
4
 74
0
 40
0
 40
0
 40
0
 40
0
 40
1
 40
1
 40
1
 40
1
 10
12.733831
 20
11.159844
 30
0.0
 10
12.859987
 20
11.258791
 30
0.0
 10
12.923065
 20
11.370106
 30
0.0
 10
12.923065
 20
11.493790
 30
0.0
  0
SPLINE
  5
12d
100
AcDbEntity
  8
0
 62
7
100
AcDbSpline
 70
8
 71
3
 72
8
 73
4
 74
0
 40
0
 40
0
 40
0
 40
0
 40
1
 40
1
 40
1
 40
1
 10
12.923065
 20
11.493790
 30
0.0
 10
12.923065
 20
11.637262
 30
0.0
 10
12.871118
 20
11.754762
 30
0.0
 10
12.767225
 20
11.846288
 30
0.0
  0
SPLINE
  5
12e
100
AcDbEntity
  8
0
 62
7
100
AcDbSpline
 70
8
 71
3
 72
8
 73
4
 74
0
 40
0
 40
0
 40
0
 40
0
 40
1
 40
1
 40
1
 40
1
 10
12.767225
 20
11.846288
 30
0.0
 10
12.663331
 20
11.937813
 30
0.0
 10
12.519858
 20
11.983576
 30
0.0
 10
12.336807
 20
11.983576
 30
0.0
  0
LWPOLYLINE
  5
12f
100
AcDbEntity
  8
0
 62
7
100
AcDbPolyline
 90
2
 70
0
 10
11.424023
 20
11.011425
 30
0.0
 10
12.336807
 20
11.011425
 30
0.0
  0
LWPOLYLINE
  5
130
100
AcDbEntity
  8
0
 62
7
100
AcDbPolyline
 90
3
 70
0
 10
12.336807
 20
11.983576
 30
0.0
 10
11.424023
 20
11.983576
 30
0.0
 10
11.424023
 20
11.011425
 30
0.0
  0
SPLINE
  5
131
100
AcDbEntity
  8
0
 62
7
100
AcDbSpline
 70
8
 71
3
 72
8
 73
4
 74
0
 40
0
 40
0
 40
0
 40
0
 40
1
 40
1
 40
1
 40
1
 10
11.424023
 20
9.237804
 30
0.0
 10
11.424023
 20
9.175964
 30
0.0
 10
11.401760
 20
9.124017
 30
0.0
 10
11.357233
 20
9.081964
 30
0.0
  0
SPLINE
  5
132
100
AcDbEntity
  8
0
 62
7
100
AcDbSpline
 70
8
 71
3
 72
8
 73
4
 74
0
 40
0
 40
0
 40
0
 40
0
 40
1
 40
1
 40
1
 40
1
 10
11.357233
 20
9.081964
 30
0.0
 10
11.315180
 20
9.037437
 30
0.0
 10
11.263233
 20
9.015174
 30
0.0
 10
11.201393
 20
9.015174
 30
0.0
  0
SPLINE
  5
133
100
AcDbEntity
  8
0
 62
7
100
AcDbSpline
 70
8
 71
3
 72
8
 73
4
 74
0
 40
0
 40
0
 40
0
 40
0
 40
1
 40
1
 40
1
 40
1
 10
11.201393
 20
9.015174
 30
0.0
 10
11.139553
 20
9.015174
 30
0.0
 10
11.086369
 20
9.037437
 30
0.0
 10
11.041841
 20
9.081964
 30
0.0
  0
SPLINE
  5
134
100
AcDbEntity
  8
0
 62
7
100
AcDbSpline
 70
8
 71
3
 72
8
 73
4
 74
0
 40
0
 40
0
 40
0
 40
0
 40
1
 40
1
 40
1
 40
1
 10
11.041841
 20
9.081964
 30
0.0
 10
10.999788
 20
9.124017
 30
0.0
 10
10.978761
 20
9.175964
 30
0.0
 10
10.978761
 20
9.237804
 30
0.0
  0
LWPOLYLINE
  5
135
100
AcDbEntity
  8
0
 62
7
100
AcDbPolyline
 90
2
 70
0
 10
11.424023
 20
10.566164
 30
0.0
 10
11.424023
 20
9.237804
 30
0.0
  0
SPLINE
  5
136
100
AcDbEntity
  8
0
 62
7
100
AcDbSpline
 70
8
 71
3
 72
8
 73
4
 74
0
 40
0
 40
0
 40
0
 40
0
 40
1
 40
1
 40
1
 40
1
 10
10.978761
 20
12.206206
 30
0.0
 10
10.978761
 20
12.270521
 30
0.0
 10
11.002261
 20
12.323705
 30
0.0
 10
11.049261
 20
12.365757
 30
0.0
  0
SPLINE
  5
137
100
AcDbEntity
  8
0
 62
7
100
AcDbSpline
 70
8
 71
3
 72
8
 73
4
 74
0
 40
0
 40
0
 40
0
 40
0
 40
1
 40
1
 40
1
 40
1
 10
11.049261
 20
12.365757
 30
0.0
 10
11.098734
 20
12.407810
 30
0.0
 10
11.149445
 20
12.428836
 30
0.0
 10
11.201392
 20
12.428836
 30
0.0
  0
LWPOLYLINE
  5
138
100
AcDbEntity
  8
0
 62
7
100
AcDbPolyline
 90
3
 70
0
 10
10.978761
 20
9.237804
 30
0.0
 10
10.978761
 20
10.788794
 30
0.0
 10
10.978761
 20
12.206206
 30
0.0
  0
SPLINE
  5
139
100
AcDbEntity
  8
0
 62
7
100
AcDbSpline
 70
8
 71
3
 72
8
 73
4
 74
0
 40
0
 40
0
 40
0
 40
0
 40
1
 40
1
 40
1
 40
1
 10
12.336805
 20
12.428836
 30
0.0
 10
12.626224
 20
12.428836
 30
0.0
 10
12.869880
 20
12.341021
 30
0.0
 10
13.067773
 20
12.165391
 30
0.0
  0
SPLINE
  5
13a
100
AcDbEntity
  8
0
 62
7
100
AcDbSpline
 70
8
 71
3
 72
8
 73
4
 74
0
 40
0
 40
0
 40
0
 40
0
 40
1
 40
1
 40
1
 40
1
 10
13.067773
 20
12.165391
 30
0.0
 10
13.268140
 20
11.992234
 30
0.0
 10
13.368324
 20
11.768367
 30
0.0
 10
13.368324
 20
11.493790
 30
0.0
  0
SPLINE
  5
13b
100
AcDbEntity
  8
0
 62
7
100
AcDbSpline
 70
8
 71
3
 72
8
 73
4
 74
0
 40
0
 40
0
 40
0
 40
0
 40
1
 40
1
 40
1
 40
1
 10
13.368324
 20
11.493790
 30
0.0
 10
13.368324
 20
11.290949
 30
0.0
 10
13.305245
 20
11.115319
 30
0.0
 10
13.179088
 20
10.966899
 30
0.0
  0
SPLINE
  5
13c
100
AcDbEntity
  8
0
 62
7
100
AcDbSpline
 70
8
 71
3
 72
8
 73
4
 74
0
 40
0
 40
0
 40
0
 40
0
 40
1
 40
1
 40
1
 40
1
 10
13.179088
 20
10.966899
 30
0.0
 10
13.055405
 20
10.818480
 30
0.0
 10
12.902037
 20
10.709638
 30
0.0
 10
12.718986
 20
10.640375
 30
0.0
  0
LWPOLYLINE
  5
13d
100
AcDbEntity
  8
0
 62
7
100
AcDbPolyline
 90
2
 70
0
 10
11.201392
 20
12.428836
 30
0.0
 10
12.336805
 20
12.428836
 30
0.0
  0
SPLINE
  5
13e
100
AcDbEntity
  8
0
 62
7
100
AcDbSpline
 70
8
 71
3
 72
8
 73
4
 74
0
 40
0
 40
0
 40
0
 40
0
 40
1
 40
1
 40
1
 40
1
 10
13.323798
 20
9.330568
 30
0.0
 10
13.336158
 20
9.303355
 30
0.0
 10
13.342338
 20
9.272435
 30
0.0
 10
13.342338
 20
9.237808
 30
0.0
  0
SPLINE
  5
13f
100
AcDbEntity
  8
0
 62
7
100
AcDbSpline
 70
8
 71
3
 72
8
 73
4
 74
0
 40
0
 40
0
 40
0
 40
0
 40
1
 40
1
 40
1
 40
1
 10
13.342338
 20
9.237808
 30
0.0
 10
13.342338
 20
9.195755
 30
0.0
 10
13.331208
 20
9.156176
 30
0.0
 10
13.308948
 20
9.119071
 30
0.0
  0
SPLINE
  5
140
100
AcDbEntity
  8
0
 62
7
100
AcDbSpline
 70
8
 71
3
 72
8
 73
4
 74
0
 40
0
 40
0
 40
0
 40
0
 40
1
 40
1
 40
1
 40
1
 10
13.308948
 20
9.119071
 30
0.0
 10
13.286688
 20
9.081964
 30
0.0
 10
13.255768
 20
9.054754
 30
0.0
 10
13.216188
 20
9.037441
 30
0.0
  0
SPLINE
  5
141
100
AcDbEntity
  8
0
 62
7
100
AcDbSpline
 70
8
 71
3
 72
8
 73
4
 74
0
 40
0
 40
0
 40
0
 40
0
 40
1
 40
1
 40
1
 40
1
 10
13.216188
 20
9.037441
 30
0.0
 10
13.186508
 20
9.022601
 30
0.0
 10
13.155588
 20
9.015181
 30
0.0
 10
13.123428
 20
9.015181
 30
0.0
  0
SPLINE
  5
142
100
AcDbEntity
  8
0
 62
7
100
AcDbSpline
 70
8
 71
3
 72
8
 73
4
 74
0
 40
0
 40
0
 40
0
 40
0
 40
1
 40
1
 40
1
 40
1
 10
13.123428
 20
9.015181
 30
0.0
 10
13.081375
 20
9.015181
 30
0.0
 10
13.041796
 20
9.027548
 30
0.0
 10
13.004691
 20
9.052281
 30
0.0
  0
SPLINE
  5
143
100
AcDbEntity
  8
0
 62
7
100
AcDbSpline
 70
8
 71
3
 72
8
 73
4
 74
0
 40
0
 40
0
 40
0
 40
0
 40
1
 40
1
 40
1
 40
1
 10
13.004691
 20
9.052281
 30
0.0
 10
12.967584
 20
9.074541
 30
0.0
 10
12.939138
 20
9.105461
 30
0.0
 10
12.919351
 20
9.145041
 30
0.0
  0
LWPOLYLINE
  5
144
100
AcDbEntity
  8
0
 62
7
100
AcDbPolyline
 90
2
 70
0
 10
12.718986
 20
10.640375
 30
0.0
 10
13.323798
 20
9.330568
 30
0.0
  0
LWPOLYLINE
  5
145
100
AcDbEntity
  8
0
 62
7
100
AcDbPolyline
 90
3
 70
0
 10
12.919351
 20
9.145041
 30
0.0
 10
12.258884
 20
10.566165
 30
0.0
 10
11.424023
 20
10.566164
 30
0.0
  0
SPLINE
  5
146
100
AcDbEntity
  8
0
 62
7
100
AcDbSpline
 70
8
 71
3
 72
8
 73
4
 74
0
 40
0
 40
0
 40
0
 40
0
 40
1
 40
1
 40
1
 40
1
 10
14.991300
 20
11.048530
 30
0.0
 10
15.050673
 20
11.051063
 30
0.0
 10
15.111278
 20
11.063430
 30
0.0
 10
15.173115
 20
11.085630
 30
0.0
  0
SPLINE
  5
147
100
AcDbEntity
  8
0
 62
7
100
AcDbSpline
 70
8
 71
3
 72
8
 73
4
 74
0
 40
0
 40
0
 40
0
 40
0
 40
1
 40
1
 40
1
 40
1
 10
15.173115
 20
11.085630
 30
0.0
 10
15.272062
 20
11.125210
 30
0.0
 10
15.352457
 20
11.184578
 30
0.0
 10
15.414298
 20
11.263734
 30
0.0
  0
SPLINE
  5
148
100
AcDbEntity
  8
0
 62
7
100
AcDbSpline
 70
8
 71
3
 72
8
 73
4
 74
0
 40
0
 40
0
 40
0
 40
0
 40
1
 40
1
 40
1
 40
1
 10
15.414298
 20
11.263734
 30
0.0
 10
15.478611
 20
11.345365
 30
0.0
 10
15.510768
 20
11.431943
 30
0.0
 10
15.510768
 20
11.523468
 30
0.0
  0
SPLINE
  5
149
100
AcDbEntity
  8
0
 62
7
100
AcDbSpline
 70
8
 71
3
 72
8
 73
4
 74
0
 40
0
 40
0
 40
0
 40
0
 40
1
 40
1
 40
1
 40
1
 10
15.510768
 20
11.523468
 30
0.0
 10
15.510768
 20
11.661994
 30
0.0
 10
15.466242
 20
11.773309
 30
0.0
 10
15.377190
 20
11.857413
 30
0.0
  0
SPLINE
  5
14a
100
AcDbEntity
  8
0
 62
7
100
AcDbSpline
 70
8
 71
3
 72
8
 73
4
 74
0
 40
0
 40
0
 40
0
 40
0
 40
1
 40
1
 40
1
 40
1
 10
15.377190
 20
11.857413
 30
0.0
 10
15.288141
 20
11.941524
 30
0.0
 10
15.160748
 20
11.983579
 30
0.0
 10
14.995012
 20
11.983579
 30
0.0
  0
LWPOLYLINE
  5
14b
100
AcDbEntity
  8
0
 62
7
100
AcDbPolyline
 90
2
 70
0
 10
14.141597
 20
11.048530
 30
0.0
 10
14.991300
 20
11.048530
 30
0.0
  0
LWPOLYLINE
  5
14c
100
AcDbEntity
  8
0
 62
7
100
AcDbPolyline
 90
3
 70
0
 10
14.995012
 20
11.983579
 30
0.0
 10
14.141598
 20
11.983579
 30
0.0
 10
14.141597
 20
11.048530
 30
0.0
  0
SPLINE
  5
14d
100
AcDbEntity
  8
0
 62
7
100
AcDbSpline
 70
8
 71
3
 72
8
 73
4
 74
0
 40
0
 40
0
 40
0
 40
0
 40
1
 40
1
 40
1
 40
1
 10
15.095195
 20
9.460434
 30
0.0
 10
15.265878
 20
9.460434
 30
0.0
 10
15.394509
 20
9.511144
 30
0.0
 10
15.481087
 20
9.612565
 30
0.0
  0
SPLINE
  5
14e
100
AcDbEntity
  8
0
 62
7
100
AcDbSpline
 70
8
 71
3
 72
8
 73
4
 74
0
 40
0
 40
0
 40
0
 40
0
 40
1
 40
1
 40
1
 40
1
 10
15.481087
 20
9.612565
 30
0.0
 10
15.570138
 20
9.713985
 30
0.0
 10
15.614664
 20
9.851274
 30
0.0
 10
15.614664
 20
10.024431
 30
0.0
  0
SPLINE
  5
14f
100
AcDbEntity
  8
0
 62
7
100
AcDbSpline
 70
8
 71
3
 72
8
 73
4
 74
0
 40
0
 40
0
 40
0
 40
0
 40
1
 40
1
 40
1
 40
1
 10
15.614664
 20
10.024431
 30
0.0
 10
15.614664
 20
10.187693
 30
0.0
 10
15.557770
 20
10.324981
 30
0.0
 10
15.443982
 20
10.436296
 30
0.0
  0
SPLINE
  5
150
100
AcDbEntity
  8
0
 62
7
100
AcDbSpline
 70
8
 71
3
 72
8
 73
4
 74
0
 40
0
 40
0
 40
0
 40
0
 40
1
 40
1
 40
1
 40
1
 10
15.443982
 20
10.436296
 30
0.0
 10
15.330193
 20
10.547611
 30
0.0
 10
15.185483
 20
10.603268
 30
0.0
 10
15.009854
 20
10.603268
 30
0.0
  0
LWPOLYLINE
  5
151
100
AcDbEntity
  8
0
 62
7
100
AcDbPolyline
 90
3
 70
0
 10
14.141597
 20
10.603268
 30
0.0
 10
14.141597
 20
9.460434
 30
0.0
 10
15.095195
 20
9.460434
 30
0.0
  0
SPLINE
  5
152
100
AcDbEntity
  8
0
 62
7
100
AcDbSpline
 70
8
 71
3
 72
8
 73
4
 74
0
 40
0
 40
0
 40
0
 40
0
 40
1
 40
1
 40
1
 40
1
 10
15.633218
 20
10.851872
 30
0.0
 10
15.766795
 20
10.757873
 30
0.0
 10
15.870689
 20
10.637900
 30
0.0
 10
15.944900
 20
10.491955
 30
0.0
  0
SPLINE
  5
153
100
AcDbEntity
  8
0
 62
7
100
AcDbSpline
 70
8
 71
3
 72
8
 73
4
 74
0
 40
0
 40
0
 40
0
 40
0
 40
1
 40
1
 40
1
 40
1
 10
15.944900
 20
10.491955
 30
0.0
 10
16.021584
 20
10.348482
 30
0.0
 10
16.059926
 20
10.192640
 30
0.0
 10
16.059926
 20
10.024431
 30
0.0
  0
SPLINE
  5
154
100
AcDbEntity
  8
0
 62
7
100
AcDbSpline
 70
8
 71
3
 72
8
 73
4
 74
0
 40
0
 40
0
 40
0
 40
0
 40
1
 40
1
 40
1
 40
1
 10
16.059926
 20
10.024431
 30
0.0
 10
16.059926
 20
9.893327
 30
0.0
 10
16.038899
 20
9.768407
 30
0.0
 10
15.996846
 20
9.649671
 30
0.0
  0
SPLINE
  5
155
100
AcDbEntity
  8
0
 62
7
100
AcDbSpline
 70
8
 71
3
 72
8
 73
4
 74
0
 40
0
 40
0
 40
0
 40
0
 40
1
 40
1
 40
1
 40
1
 10
15.996846
 20
9.649671
 30
0.0
 10
15.954793
 20
9.530935
 30
0.0
 10
15.894188
 20
9.423330
 30
0.0
 10
15.815032
 20
9.326857
 30
0.0
  0
SPLINE
  5
156
100
AcDbEntity
  8
0
 62
7
100
AcDbSpline
 70
8
 71
3
 72
8
 73
4
 74
0
 40
0
 40
0
 40
0
 40
0
 40
1
 40
1
 40
1
 40
1
 10
15.815032
 20
9.326857
 30
0.0
 10
15.735874
 20
9.232858
 30
0.0
 10
15.634453
 20
9.157411
 30
0.0
 10
15.510770
 20
9.100516
 30
0.0
  0
SPLINE
  5
157
100
AcDbEntity
  8
0
 62
7
100
AcDbSpline
 70
8
 71
3
 72
8
 73
4
 74
0
 40
0
 40
0
 40
0
 40
0
 40
1
 40
1
 40
1
 40
1
 10
15.510770
 20
9.100516
 30
0.0
 10
15.387087
 20
9.043616
 30
0.0
 10
15.248561
 20
9.015166
 30
0.0
 10
15.095194
 20
9.015166
 30
0.0
  0
LWPOLYLINE
  5
158
100
AcDbEntity
  8
0
 62
7
100
AcDbPolyline
 90
3
 70
0
 10
15.009854
 20
10.603268
 30
0.0
 10
14.998724
 20
10.603268
 30
0.0
 10
14.141597
 20
10.603268
 30
0.0
  0
SPLINE
  5
159
100
AcDbEntity
  8
0
 62
7
100
AcDbSpline
 70
8
 71
3
 72
8
 73
4
 74
0
 40
0
 40
0
 40
0
 40
0
 40
1
 40
1
 40
1
 40
1
 10
13.918966
 20
9.015166
 30
0.0
 10
13.867019
 20
9.015166
 30
0.0
 10
13.816309
 20
9.036193
 30
0.0
 10
13.766835
 20
9.078246
 30
0.0
  0
SPLINE
  5
15a
100
AcDbEntity
  8
0
 62
7
100
AcDbSpline
 70
8
 71
3
 72
8
 73
4
 74
0
 40
0
 40
0
 40
0
 40
0
 40
1
 40
1
 40
1
 40
1
 10
13.766835
 20
9.078246
 30
0.0
 10
13.719835
 20
9.120299
 30
0.0
 10
13.696335
 20
9.173483
 30
0.0
 10
13.696335
 20
9.237796
 30
0.0
  0
LWPOLYLINE
  5
15b
100
AcDbEntity
  8
0
 62
7
100
AcDbPolyline
 90
2
 70
0
 10
15.095194
 20
9.015166
 30
0.0
 10
13.918966
 20
9.015166
 30
0.0
  0
SPLINE
  5
15c
100
AcDbEntity
  8
0
 62
7
100
AcDbSpline
 70
8
 71
3
 72
8
 73
4
 74
0
 40
0
 40
0
 40
0
 40
0
 40
1
 40
1
 40
1
 40
1
 10
13.696335
 20
12.206203
 30
0.0
 10
13.696335
 20
12.258148
 30
0.0
 10
13.717362
 20
12.307621
 30
0.0
 10
13.759415
 20
12.354623
 30
0.0
  0
SPLINE
  5
15d
100
AcDbEntity
  8
0
 62
7
100
AcDbSpline
 70
8
 71
3
 72
8
 73
4
 74
0
 40
0
 40
0
 40
0
 40
0
 40
1
 40
1
 40
1
 40
1
 10
13.759415
 20
12.354623
 30
0.0
 10
13.801468
 20
12.404095
 30
0.0
 10
13.854652
 20
12.428831
 30
0.0
 10
13.918967
 20
12.428831
 30
0.0
  0
LWPOLYLINE
  5
15e
100
AcDbEntity
  8
0
 62
7
100
AcDbPolyline
 90
3
 70
0
 10
13.696335
 20
9.237796
 30
0.0
 10
13.696335
 20
10.825897
 30
0.0
 10
13.696335
 20
12.206203
 30
0.0
  0
SPLINE
  5
15f
100
AcDbEntity
  8
0
 62
7
100
AcDbSpline
 70
8
 71
3
 72
8
 73
4
 74
0
 40
0
 40
0
 40
0
 40
0
 40
1
 40
1
 40
1
 40
1
 10
14.995012
 20
12.428831
 30
0.0
 10
15.272063
 20
12.428831
 30
0.0
 10
15.500877
 20
12.342253
 30
0.0
 10
15.681456
 20
12.169096
 30
0.0
  0
SPLINE
  5
160
100
AcDbEntity
  8
0
 62
7
100
AcDbSpline
 70
8
 71
3
 72
8
 73
4
 74
0
 40
0
 40
0
 40
0
 40
0
 40
1
 40
1
 40
1
 40
1
 10
15.681456
 20
12.169096
 30
0.0
 10
15.864507
 20
11.998413
 30
0.0
 10
15.956032
 20
11.783204
 30
0.0
 10
15.956032
 20
11.523469
 30
0.0
  0
SPLINE
  5
161
100
AcDbEntity
  8
0
 62
7
100
AcDbSpline
 70
8
 71
3
 72
8
 73
4
 74
0
 40
0
 40
0
 40
0
 40
0
 40
1
 40
1
 40
1
 40
1
 10
15.956032
 20
11.523469
 30
0.0
 10
15.956032
 20
11.392365
 30
0.0
 10
15.926345
 20
11.268682
 30
0.0
 10
15.866972
 20
11.152419
 30
0.0
  0
SPLINE
  5
162
100
AcDbEntity
  8
0
 62
7
100
AcDbSpline
 70
8
 71
3
 72
8
 73
4
 74
0
 40
0
 40
0
 40
0
 40
0
 40
1
 40
1
 40
1
 40
1
 10
15.866972
 20
11.152419
 30
0.0
 10
15.810072
 20
11.036156
 30
0.0
 10
15.732151
 20
10.935973
 30
0.0
 10
15.633210
 20
10.851868
 30
0.0
  0
LWPOLYLINE
  5
163
100
AcDbEntity
  8
0
 62
7
100
AcDbPolyline
 90
2
 70
0
 10
13.918967
 20
12.428831
 30
0.0
 10
14.995012
 20
12.428831
 30
0.0
  0
LWPOLYLINE
  5
164
100
AcDbEntity
  8
0
 62
7
100
AcDbPolyline
 90
1
 70
1
 10
15.633210
 20
10.851868
 30
0.0
  0
ENDSEC
  0
SECTION
  2
OBJECTS
  0
DICTIONARY
  5
C
330
0
100
AcDbDictionary
  3
ACAD_GROUP
350
D
  3
ACAD_MLINESTYLE
350
17
  0
DICTIONARY
  5
D
330
C
100
AcDbDictionary
  0
DICTIONARY
  5
1A
330
C
100
AcDbDictionary
  0
DICTIONARY
  5
17
330
C
100
AcDbDictionary
  3
STANDARD
350
18
  0
DICTIONARY
  5
19
330
C
100
AcDbDictionary
  0
ENDSEC
  0
EOF
