M48
; DRILL file {KiCad 8.0.2} date 2024-07-05T12:49:47+0200
; FORMAT={-:-/ absolute / inch / decimal}
; #@! TF.CreationDate,2024-07-05T12:49:47+02:00
; #@! TF.GenerationSoftware,Kicad,Pcbnew,8.0.2
; #@! TF.FileFunction,Plated,1,2,PTH
FMAT,2
INCH
; #@! TA.AperFunction,Plated,PTH,ViaDrill
T1C0.0157
; #@! TA.AperFunction,Plated,PTH,ComponentDrill
T2C0.0236
; #@! TA.AperFunction,Plated,PTH,ComponentDrill
T3C0.0374
; #@! TA.AperFunction,Plated,PTH,ComponentDrill
T4C0.0409
; #@! TA.AperFunction,Plated,PTH,ComponentDrill
T5C0.0591
%
G90
G05
T1
X5.646Y-5.85
X5.6834Y-5.3988
X5.7384Y-5.7057
X5.757Y-7.18
X5.8325Y-5.9231
X5.8555Y-5.5719
X5.8627Y-5.7898
X5.8712Y-5.8629
X5.8827Y-6.3402
X5.8857Y-5.6669
X5.9021Y-5.8106
X5.9488Y-5.8855
X5.9571Y-5.6497
X6.0105Y-7.2841
X6.0205Y-5.9211
X6.1501Y-6.839
X6.1503Y-5.952
X6.1602Y-6.0608
X6.1827Y-5.701
X6.2028Y-5.6601
X6.3659Y-5.6644
X6.3693Y-5.8087
X6.4704Y-4.904
X6.538Y-3.911
X6.5456Y-6.8178
X6.5676Y-4.0442
X6.5712Y-3.6619
X6.6014Y-6.835
X6.614Y-5.6249
X6.6686Y-8.5741
X6.7395Y-5.3567
X6.761Y-2.8374
X6.7758Y-5.8783
X6.8072Y-5.487
X6.8988Y-5.8951
X7.2548Y-7.6504
X7.3626Y-5.8921
X7.3682Y-5.8452
X7.5014Y-6.8694
X7.7093Y-7.4373
X8.7997Y-8.6273
X8.9995Y-7.5869
X9.4465Y-6.5275
X9.483Y-7.5429
X9.9985Y-6.7166
X10.3368Y-8.0433
X10.4914Y-7.5361
X10.6247Y-7.0118
T3
X9.4839Y-7.0531
X9.4839Y-8.0231
X9.5823Y-7.0531
X9.5823Y-8.0231
X9.6807Y-7.0531
X9.6807Y-8.0231
X9.7792Y-7.0531
X9.7792Y-8.0231
T4
X5.2165Y-7.2324
X5.2165Y-8.2024
X5.3165Y-7.2324
X5.3165Y-8.2024
X6.1865Y-6.7486
X6.1865Y-7.7174
X6.1865Y-8.6874
X6.2865Y-6.7486
X6.2865Y-7.7174
X6.2865Y-8.6874
X7.1565Y-6.7474
X7.1565Y-7.7174
X7.1565Y-8.6886
X7.2565Y-6.7474
X7.2565Y-7.7174
X7.2565Y-8.6886
X8.1265Y-6.7474
X8.1265Y-7.7174
X8.1265Y-8.6874
X8.2265Y-6.7474
X8.2265Y-7.7174
X8.2265Y-8.6874
X9.0965Y-6.7474
X9.0965Y-7.7174
X9.0965Y-8.6886
X9.1965Y-6.7474
X9.1965Y-7.7174
X9.1965Y-8.6886
X10.0665Y-6.7486
X10.0665Y-7.7186
X10.0665Y-8.6886
X10.1665Y-6.7486
X10.1665Y-7.7186
X10.1665Y-8.6886
X11.0365Y-7.2336
X11.0365Y-8.2024
X11.1365Y-7.2336
X11.1365Y-8.2024
T5
X5.1165Y-6.9324
X5.1165Y-7.9024
X5.3665Y-6.8324
X5.3665Y-7.8024
X6.0865Y-6.4474
X6.0865Y-7.4174
X6.0865Y-8.3874
X6.3365Y-6.3474
X6.3365Y-7.3174
X6.3365Y-8.2874
X7.0565Y-6.4474
X7.0565Y-7.4174
X7.0565Y-8.3874
X7.3065Y-6.3474
X7.3065Y-7.3174
X7.3065Y-8.2874
X8.0265Y-6.4474
X8.0265Y-7.4174
X8.0265Y-8.3874
X8.2765Y-6.3474
X8.2765Y-7.3174
X8.2765Y-8.2874
X8.9965Y-6.4474
X8.9965Y-7.4174
X8.9965Y-8.3874
X9.2465Y-6.3474
X9.2465Y-7.3174
X9.2465Y-8.2874
X9.9665Y-6.4474
X9.9665Y-7.4174
X9.9665Y-8.3874
X10.2165Y-6.3474
X10.2165Y-7.3174
X10.2165Y-8.2874
X10.9365Y-6.9324
X10.9365Y-7.9024
X11.1865Y-6.8324
X11.1865Y-7.8024
T2
G00X7.4293Y-5.7039
M15
G01X7.4726Y-5.7039
M16
G05
G00X7.4293Y-6.0441
M15
G01X7.4726Y-6.0441
M16
G05
G00X7.6006Y-5.7039
M15
G01X7.6321Y-5.7039
M16
G05
G00X7.6006Y-6.0441
M15
G01X7.6321Y-6.0441
M16
G05
M30
