G04 #@! TF.GenerationSoftware,KiCad,Pcbnew,8.0.2*
G04 #@! TF.CreationDate,2024-07-10T11:41:30+02:00*
G04 #@! TF.ProjectId,Single_board,53696e67-6c65-45f6-926f-6172642e6b69,0.5.x*
G04 #@! TF.SameCoordinates,Original*
G04 #@! TF.FileFunction,Paste,Top*
G04 #@! TF.FilePolarity,Positive*
%FSLAX46Y46*%
G04 Gerber Fmt 4.6, Leading zero omitted, Abs format (unit mm)*
G04 Created by KiCad (PCBNEW 8.0.2) date 2024-07-10 11:41:30*
%MOMM*%
%LPD*%
G01*
G04 APERTURE LIST*
G04 Aperture macros list*
%AMRoundRect*
0 Rectangle with rounded corners*
0 $1 Rounding radius*
0 $2 $3 $4 $5 $6 $7 $8 $9 X,Y pos of 4 corners*
0 Add a 4 corners polygon primitive as box body*
4,1,4,$2,$3,$4,$5,$6,$7,$8,$9,$2,$3,0*
0 Add four circle primitives for the rounded corners*
1,1,$1+$1,$2,$3*
1,1,$1+$1,$4,$5*
1,1,$1+$1,$6,$7*
1,1,$1+$1,$8,$9*
0 Add four rect primitives between the rounded corners*
20,1,$1+$1,$2,$3,$4,$5,0*
20,1,$1+$1,$4,$5,$6,$7,0*
20,1,$1+$1,$6,$7,$8,$9,0*
20,1,$1+$1,$8,$9,$2,$3,0*%
G04 Aperture macros list end*
%ADD10RoundRect,0.250000X-0.475000X0.250000X-0.475000X-0.250000X0.475000X-0.250000X0.475000X0.250000X0*%
%ADD11RoundRect,0.250000X-0.625000X0.312500X-0.625000X-0.312500X0.625000X-0.312500X0.625000X0.312500X0*%
%ADD12RoundRect,0.150000X0.150000X-0.587500X0.150000X0.587500X-0.150000X0.587500X-0.150000X-0.587500X0*%
%ADD13RoundRect,0.250000X-0.312500X-0.625000X0.312500X-0.625000X0.312500X0.625000X-0.312500X0.625000X0*%
%ADD14RoundRect,0.250000X-0.375000X-0.625000X0.375000X-0.625000X0.375000X0.625000X-0.375000X0.625000X0*%
%ADD15RoundRect,0.250000X0.375000X0.625000X-0.375000X0.625000X-0.375000X-0.625000X0.375000X-0.625000X0*%
%ADD16RoundRect,0.250000X0.312500X0.625000X-0.312500X0.625000X-0.312500X-0.625000X0.312500X-0.625000X0*%
%ADD17RoundRect,0.200000X0.275000X-0.200000X0.275000X0.200000X-0.275000X0.200000X-0.275000X-0.200000X0*%
%ADD18RoundRect,0.250000X0.625000X-0.312500X0.625000X0.312500X-0.625000X0.312500X-0.625000X-0.312500X0*%
%ADD19RoundRect,0.225000X-0.225000X-0.375000X0.225000X-0.375000X0.225000X0.375000X-0.225000X0.375000X0*%
%ADD20RoundRect,0.150000X-0.875000X-0.150000X0.875000X-0.150000X0.875000X0.150000X-0.875000X0.150000X0*%
%ADD21RoundRect,0.250000X0.250000X0.475000X-0.250000X0.475000X-0.250000X-0.475000X0.250000X-0.475000X0*%
%ADD22RoundRect,0.250000X0.475000X-0.250000X0.475000X0.250000X-0.475000X0.250000X-0.475000X-0.250000X0*%
%ADD23RoundRect,0.150000X0.150000X-0.825000X0.150000X0.825000X-0.150000X0.825000X-0.150000X-0.825000X0*%
%ADD24RoundRect,0.200000X-0.200000X-0.275000X0.200000X-0.275000X0.200000X0.275000X-0.200000X0.275000X0*%
%ADD25RoundRect,0.150000X0.587500X0.150000X-0.587500X0.150000X-0.587500X-0.150000X0.587500X-0.150000X0*%
%ADD26R,3.150000X1.000000*%
%ADD27R,1.240000X0.600000*%
%ADD28R,1.240000X0.300000*%
%ADD29R,1.600000X0.550000*%
%ADD30R,0.550000X1.600000*%
G04 APERTURE END LIST*
D10*
X165400000Y-148050000D03*
X165400000Y-149950000D03*
D11*
X161380000Y-91675000D03*
X161380000Y-94600000D03*
D12*
X139362000Y-102546500D03*
X141262000Y-102546500D03*
X140312000Y-100671500D03*
D13*
X137071500Y-79257000D03*
X139996500Y-79257000D03*
D14*
X147802000Y-44078000D03*
X150602000Y-44078000D03*
D15*
X182134500Y-134756000D03*
X179334500Y-134756000D03*
D12*
X139362000Y-117659500D03*
X141262000Y-117659500D03*
X140312000Y-115784500D03*
D11*
X192443000Y-214682500D03*
X192443000Y-217607500D03*
D16*
X192701500Y-123834000D03*
X189776500Y-123834000D03*
X159870500Y-203007000D03*
X156945500Y-203007000D03*
D15*
X182098000Y-74304000D03*
X179298000Y-74304000D03*
D11*
X143294000Y-177598500D03*
X143294000Y-180523500D03*
X241846000Y-214555500D03*
X241846000Y-217480500D03*
D16*
X193082500Y-48777000D03*
X190157500Y-48777000D03*
X192763000Y-93735000D03*
X189838000Y-93735000D03*
D11*
X217208000Y-214555500D03*
X217208000Y-217480500D03*
D12*
X188638000Y-102546500D03*
X190538000Y-102546500D03*
X189588000Y-100671500D03*
X139362000Y-57202000D03*
X141262000Y-57202000D03*
X140312000Y-55327000D03*
D16*
X192701500Y-78876000D03*
X189776500Y-78876000D03*
D17*
X186639600Y-152364600D03*
X186639600Y-150714600D03*
D16*
X209146500Y-203007000D03*
X206221500Y-203007000D03*
X258422500Y-203007000D03*
X255497500Y-203007000D03*
D14*
X147802000Y-89417000D03*
X150602000Y-89417000D03*
D15*
X182134500Y-59191000D03*
X179334500Y-59191000D03*
D18*
X266484000Y-192842500D03*
X266484000Y-189917500D03*
D12*
X188638000Y-132772500D03*
X190538000Y-132772500D03*
X189588000Y-130897500D03*
D18*
X271953000Y-180651500D03*
X271953000Y-177726500D03*
D19*
X181763400Y-143129000D03*
X185063400Y-143129000D03*
D12*
X188638000Y-72326000D03*
X190538000Y-72326000D03*
X189588000Y-70451000D03*
D18*
X241719000Y-168331500D03*
X241719000Y-165406500D03*
D16*
X193209500Y-64144000D03*
X190284500Y-64144000D03*
D13*
X136817500Y-94243000D03*
X139742500Y-94243000D03*
D11*
X266484000Y-214555500D03*
X266484000Y-217480500D03*
D20*
X160253000Y-66813000D03*
X160253000Y-68083000D03*
X160253000Y-69353000D03*
X160253000Y-70623000D03*
X160253000Y-71893000D03*
X160253000Y-73163000D03*
X160253000Y-74433000D03*
X160253000Y-75703000D03*
X160253000Y-76973000D03*
X160253000Y-78243000D03*
X160253000Y-79513000D03*
X160253000Y-80783000D03*
X169553000Y-80783000D03*
X169553000Y-79513000D03*
X169553000Y-78243000D03*
X169553000Y-76973000D03*
X169553000Y-75703000D03*
X169553000Y-74433000D03*
X169553000Y-73163000D03*
X169553000Y-71893000D03*
X169553000Y-70623000D03*
X169553000Y-69353000D03*
X169553000Y-68083000D03*
X169553000Y-66813000D03*
D21*
X171350000Y-154400000D03*
X169450000Y-154400000D03*
D10*
X143002000Y-154244000D03*
X143002000Y-156144000D03*
D11*
X143294000Y-202236500D03*
X143294000Y-205161500D03*
D22*
X142748000Y-150556000D03*
X142748000Y-148656000D03*
D23*
X167555000Y-151475000D03*
X168825000Y-151475000D03*
X170095000Y-151475000D03*
X171365000Y-151475000D03*
X172635000Y-151475000D03*
X173905000Y-151475000D03*
X175175000Y-151475000D03*
X176445000Y-151475000D03*
X176445000Y-146525000D03*
X175175000Y-146525000D03*
X173905000Y-146525000D03*
X172635000Y-146525000D03*
X171365000Y-146525000D03*
X170095000Y-146525000D03*
X168825000Y-146525000D03*
X167555000Y-146525000D03*
D11*
X167805000Y-214682500D03*
X167805000Y-217607500D03*
D12*
X188638000Y-87433500D03*
X190538000Y-87433500D03*
X189588000Y-85558500D03*
X188638000Y-57207500D03*
X190538000Y-57207500D03*
X189588000Y-55332500D03*
D18*
X167932000Y-168204500D03*
X167932000Y-165279500D03*
D16*
X233784500Y-203007000D03*
X230859500Y-203007000D03*
D18*
X217208000Y-168331500D03*
X217208000Y-165406500D03*
X167805000Y-192969500D03*
X167805000Y-190044500D03*
D22*
X158000000Y-152150000D03*
X158000000Y-150250000D03*
D24*
X159150000Y-144600000D03*
X160800000Y-144600000D03*
D10*
X163400000Y-148050000D03*
X163400000Y-149950000D03*
D18*
X192570000Y-192842500D03*
X192570000Y-189917500D03*
D24*
X159175000Y-142800000D03*
X160825000Y-142800000D03*
D21*
X171300000Y-143600000D03*
X169400000Y-143600000D03*
D25*
X165937500Y-90350000D03*
X165937500Y-88450000D03*
X164062500Y-89400000D03*
D12*
X188638000Y-42100000D03*
X190538000Y-42100000D03*
X189588000Y-40225000D03*
D15*
X182098000Y-44078000D03*
X179298000Y-44078000D03*
D14*
X147802000Y-74304000D03*
X150602000Y-74304000D03*
X147802000Y-134883000D03*
X150602000Y-134883000D03*
D13*
X167955500Y-124917200D03*
X170880500Y-124917200D03*
D12*
X139362000Y-42100000D03*
X141262000Y-42100000D03*
X140312000Y-40225000D03*
D14*
X147802000Y-104530000D03*
X150602000Y-104530000D03*
D26*
X168875000Y-132660000D03*
X173925000Y-132660000D03*
X168875000Y-135200000D03*
X173925000Y-135200000D03*
X168875000Y-137740000D03*
X173925000Y-137740000D03*
D22*
X168400000Y-94800000D03*
X168400000Y-92900000D03*
D12*
X139362000Y-132772500D03*
X141262000Y-132772500D03*
X140312000Y-130897500D03*
D16*
X161990500Y-124790200D03*
X159065500Y-124790200D03*
D22*
X165100000Y-62926000D03*
X165100000Y-61026000D03*
D11*
X168370000Y-99337500D03*
X168370000Y-102262500D03*
D18*
X241846000Y-192842500D03*
X241846000Y-189917500D03*
D15*
X182134500Y-89417000D03*
X179334500Y-89417000D03*
D18*
X192570000Y-168204500D03*
X192570000Y-165279500D03*
D15*
X182098000Y-104530000D03*
X179298000Y-104530000D03*
D13*
X136944500Y-63890000D03*
X139869500Y-63890000D03*
D18*
X161380000Y-102262500D03*
X161380000Y-99337500D03*
D14*
X147802000Y-59191000D03*
X150602000Y-59191000D03*
X147802000Y-119643000D03*
X150602000Y-119643000D03*
D27*
X188654600Y-152399600D03*
X188654600Y-151599600D03*
D28*
X188654600Y-150449600D03*
X188654600Y-149449600D03*
X188654600Y-148949600D03*
X188654600Y-147949600D03*
D27*
X188654600Y-146799600D03*
X188654600Y-145999600D03*
X188654600Y-145999600D03*
X188654600Y-146799600D03*
D28*
X188654600Y-147449600D03*
X188654600Y-148449600D03*
X188654600Y-149949600D03*
X188654600Y-150949600D03*
D27*
X188654600Y-151599600D03*
X188654600Y-152399600D03*
D17*
X185039600Y-152364600D03*
X185039600Y-150714600D03*
D11*
X272080000Y-202237500D03*
X272080000Y-205162500D03*
D13*
X136944500Y-124342000D03*
X139869500Y-124342000D03*
D18*
X217208000Y-192842500D03*
X217208000Y-189917500D03*
D15*
X182225000Y-119643000D03*
X179425000Y-119643000D03*
D13*
X137071500Y-109229000D03*
X139996500Y-109229000D03*
D16*
X184508500Y-203007000D03*
X181583500Y-203007000D03*
D12*
X139362000Y-72447500D03*
X141262000Y-72447500D03*
X140312000Y-70572500D03*
D18*
X266484000Y-168204500D03*
X266484000Y-165279500D03*
D13*
X136817500Y-48904000D03*
X139742500Y-48904000D03*
D12*
X188638000Y-117659500D03*
X190538000Y-117659500D03*
X189588000Y-115784500D03*
D13*
X137071500Y-139328000D03*
X139996500Y-139328000D03*
D29*
X146150000Y-147000000D03*
X146150000Y-147800000D03*
X146150000Y-148600000D03*
X146150000Y-149400000D03*
X146150000Y-150200000D03*
X146150000Y-151000000D03*
X146150000Y-151800000D03*
X146150000Y-152600000D03*
D30*
X147600000Y-154050000D03*
X148400000Y-154050000D03*
X149200000Y-154050000D03*
X150000000Y-154050000D03*
X150800000Y-154050000D03*
X151600000Y-154050000D03*
X152400000Y-154050000D03*
X153200000Y-154050000D03*
D29*
X154650000Y-152600000D03*
X154650000Y-151800000D03*
X154650000Y-151000000D03*
X154650000Y-150200000D03*
X154650000Y-149400000D03*
X154650000Y-148600000D03*
X154650000Y-147800000D03*
X154650000Y-147000000D03*
D30*
X153200000Y-145550000D03*
X152400000Y-145550000D03*
X151600000Y-145550000D03*
X150800000Y-145550000D03*
X150000000Y-145550000D03*
X149200000Y-145550000D03*
X148400000Y-145550000D03*
X147600000Y-145550000D03*
D16*
X192574500Y-108975000D03*
X189649500Y-108975000D03*
X192509000Y-139201000D03*
X189584000Y-139201000D03*
D12*
X139362000Y-87560500D03*
X141262000Y-87560500D03*
X140312000Y-85685500D03*
M02*
