G04 #@! TF.GenerationSoftware,KiCad,Pcbnew,8.0.2*
G04 #@! TF.CreationDate,2024-07-10T11:41:30+02:00*
G04 #@! TF.ProjectId,Single_board,53696e67-6c65-45f6-926f-6172642e6b69,0.5.x*
G04 #@! TF.SameCoordinates,Original*
G04 #@! TF.FileFunction,Legend,Bot*
G04 #@! TF.FilePolarity,Positive*
%FSLAX46Y46*%
G04 Gerber Fmt 4.6, Leading zero omitted, Abs format (unit mm)*
G04 Created by KiCad (PCBNEW 8.0.2) date 2024-07-10 11:41:30*
%MOMM*%
%LPD*%
G01*
G04 APERTURE LIST*
G04 Aperture macros list*
%AMRoundRect*
0 Rectangle with rounded corners*
0 $1 Rounding radius*
0 $2 $3 $4 $5 $6 $7 $8 $9 X,Y pos of 4 corners*
0 Add a 4 corners polygon primitive as box body*
4,1,4,$2,$3,$4,$5,$6,$7,$8,$9,$2,$3,0*
0 Add four circle primitives for the rounded corners*
1,1,$1+$1,$2,$3*
1,1,$1+$1,$4,$5*
1,1,$1+$1,$6,$7*
1,1,$1+$1,$8,$9*
0 Add four rect primitives between the rounded corners*
20,1,$1+$1,$2,$3,$4,$5,0*
20,1,$1+$1,$4,$5,$6,$7,0*
20,1,$1+$1,$6,$7,$8,$9,0*
20,1,$1+$1,$8,$9,$2,$3,0*%
G04 Aperture macros list end*
%ADD10C,0.150000*%
%ADD11C,0.200000*%
%ADD12C,0.120000*%
%ADD13C,1.905000*%
%ADD14R,1.905000X1.905000*%
%ADD15C,1.700000*%
%ADD16C,4.000000*%
%ADD17C,2.200000*%
%ADD18C,0.650000*%
%ADD19O,2.100000X1.000000*%
%ADD20O,1.800000X1.000000*%
%ADD21RoundRect,0.250000X-0.600000X-0.725000X0.600000X-0.725000X0.600000X0.725000X-0.600000X0.725000X0*%
%ADD22O,1.700000X1.950000*%
G04 APERTURE END LIST*
D10*
X167767744Y-44349819D02*
X168041554Y-43873628D01*
X168339173Y-44349819D02*
X168214173Y-43349819D01*
X168214173Y-43349819D02*
X167833220Y-43349819D01*
X167833220Y-43349819D02*
X167743935Y-43397438D01*
X167743935Y-43397438D02*
X167702268Y-43445057D01*
X167702268Y-43445057D02*
X167666554Y-43540295D01*
X167666554Y-43540295D02*
X167684411Y-43683152D01*
X167684411Y-43683152D02*
X167743935Y-43778390D01*
X167743935Y-43778390D02*
X167797506Y-43826009D01*
X167797506Y-43826009D02*
X167898696Y-43873628D01*
X167898696Y-43873628D02*
X168279649Y-43873628D01*
X166952268Y-44302200D02*
X167053458Y-44349819D01*
X167053458Y-44349819D02*
X167243935Y-44349819D01*
X167243935Y-44349819D02*
X167333220Y-44302200D01*
X167333220Y-44302200D02*
X167368935Y-44206961D01*
X167368935Y-44206961D02*
X167321316Y-43826009D01*
X167321316Y-43826009D02*
X167261792Y-43730771D01*
X167261792Y-43730771D02*
X167160601Y-43683152D01*
X167160601Y-43683152D02*
X166970125Y-43683152D01*
X166970125Y-43683152D02*
X166880839Y-43730771D01*
X166880839Y-43730771D02*
X166845125Y-43826009D01*
X166845125Y-43826009D02*
X166857030Y-43921247D01*
X166857030Y-43921247D02*
X167345125Y-44016485D01*
X166493934Y-43683152D02*
X166339173Y-44349819D01*
X166339173Y-44349819D02*
X166017744Y-43683152D01*
X165708220Y-44254580D02*
X165666553Y-44302200D01*
X165666553Y-44302200D02*
X165720125Y-44349819D01*
X165720125Y-44349819D02*
X165761791Y-44302200D01*
X165761791Y-44302200D02*
X165708220Y-44254580D01*
X165708220Y-44254580D02*
X165720125Y-44349819D01*
X164166553Y-43349819D02*
X164071315Y-43349819D01*
X164071315Y-43349819D02*
X163982030Y-43397438D01*
X163982030Y-43397438D02*
X163940363Y-43445057D01*
X163940363Y-43445057D02*
X163904649Y-43540295D01*
X163904649Y-43540295D02*
X163880839Y-43730771D01*
X163880839Y-43730771D02*
X163910601Y-43968866D01*
X163910601Y-43968866D02*
X163982030Y-44159342D01*
X163982030Y-44159342D02*
X164041553Y-44254580D01*
X164041553Y-44254580D02*
X164095125Y-44302200D01*
X164095125Y-44302200D02*
X164196315Y-44349819D01*
X164196315Y-44349819D02*
X164291553Y-44349819D01*
X164291553Y-44349819D02*
X164380839Y-44302200D01*
X164380839Y-44302200D02*
X164422506Y-44254580D01*
X164422506Y-44254580D02*
X164458220Y-44159342D01*
X164458220Y-44159342D02*
X164482030Y-43968866D01*
X164482030Y-43968866D02*
X164452268Y-43730771D01*
X164452268Y-43730771D02*
X164380839Y-43540295D01*
X164380839Y-43540295D02*
X164321315Y-43445057D01*
X164321315Y-43445057D02*
X164267744Y-43397438D01*
X164267744Y-43397438D02*
X164166553Y-43349819D01*
X163517744Y-44254580D02*
X163476077Y-44302200D01*
X163476077Y-44302200D02*
X163529649Y-44349819D01*
X163529649Y-44349819D02*
X163571315Y-44302200D01*
X163571315Y-44302200D02*
X163517744Y-44254580D01*
X163517744Y-44254580D02*
X163529649Y-44349819D01*
X162452268Y-43349819D02*
X162928459Y-43349819D01*
X162928459Y-43349819D02*
X163035602Y-43826009D01*
X163035602Y-43826009D02*
X162982030Y-43778390D01*
X162982030Y-43778390D02*
X162880840Y-43730771D01*
X162880840Y-43730771D02*
X162642744Y-43730771D01*
X162642744Y-43730771D02*
X162553459Y-43778390D01*
X162553459Y-43778390D02*
X162511792Y-43826009D01*
X162511792Y-43826009D02*
X162476078Y-43921247D01*
X162476078Y-43921247D02*
X162505840Y-44159342D01*
X162505840Y-44159342D02*
X162565363Y-44254580D01*
X162565363Y-44254580D02*
X162618935Y-44302200D01*
X162618935Y-44302200D02*
X162720125Y-44349819D01*
X162720125Y-44349819D02*
X162958221Y-44349819D01*
X162958221Y-44349819D02*
X163047506Y-44302200D01*
X163047506Y-44302200D02*
X163089173Y-44254580D01*
X162089173Y-44254580D02*
X162047506Y-44302200D01*
X162047506Y-44302200D02*
X162101078Y-44349819D01*
X162101078Y-44349819D02*
X162142744Y-44302200D01*
X162142744Y-44302200D02*
X162089173Y-44254580D01*
X162089173Y-44254580D02*
X162101078Y-44349819D01*
X161720126Y-44349819D02*
X161112983Y-43683152D01*
X161636792Y-43683152D02*
X161196316Y-44349819D01*
X174124958Y-200823225D02*
X173410673Y-200823225D01*
X174321387Y-201251796D02*
X173633887Y-199751796D01*
X173633887Y-199751796D02*
X173321387Y-201251796D01*
X172883887Y-201180368D02*
X172678530Y-201251796D01*
X172678530Y-201251796D02*
X172321387Y-201251796D01*
X172321387Y-201251796D02*
X172169602Y-201180368D01*
X172169602Y-201180368D02*
X172089244Y-201108939D01*
X172089244Y-201108939D02*
X171999959Y-200966082D01*
X171999959Y-200966082D02*
X171982102Y-200823225D01*
X171982102Y-200823225D02*
X172035673Y-200680368D01*
X172035673Y-200680368D02*
X172098173Y-200608939D01*
X172098173Y-200608939D02*
X172232102Y-200537510D01*
X172232102Y-200537510D02*
X172508887Y-200466082D01*
X172508887Y-200466082D02*
X172642816Y-200394653D01*
X172642816Y-200394653D02*
X172705316Y-200323225D01*
X172705316Y-200323225D02*
X172758887Y-200180368D01*
X172758887Y-200180368D02*
X172741030Y-200037510D01*
X172741030Y-200037510D02*
X172651744Y-199894653D01*
X172651744Y-199894653D02*
X172571387Y-199823225D01*
X172571387Y-199823225D02*
X172419602Y-199751796D01*
X172419602Y-199751796D02*
X172062459Y-199751796D01*
X172062459Y-199751796D02*
X171857102Y-199823225D01*
X171392816Y-201251796D02*
X171205316Y-199751796D01*
X171205316Y-199751796D02*
X170633888Y-199751796D01*
X170633888Y-199751796D02*
X170499959Y-199823225D01*
X170499959Y-199823225D02*
X170437459Y-199894653D01*
X170437459Y-199894653D02*
X170383888Y-200037510D01*
X170383888Y-200037510D02*
X170410673Y-200251796D01*
X170410673Y-200251796D02*
X170499959Y-200394653D01*
X170499959Y-200394653D02*
X170580316Y-200466082D01*
X170580316Y-200466082D02*
X170732102Y-200537510D01*
X170732102Y-200537510D02*
X171303531Y-200537510D01*
X169678531Y-201251796D02*
X169812459Y-201180368D01*
X169812459Y-201180368D02*
X169866031Y-201037510D01*
X169866031Y-201037510D02*
X169705316Y-199751796D01*
X168464245Y-201251796D02*
X168366031Y-200466082D01*
X168366031Y-200466082D02*
X168419602Y-200323225D01*
X168419602Y-200323225D02*
X168553531Y-200251796D01*
X168553531Y-200251796D02*
X168839245Y-200251796D01*
X168839245Y-200251796D02*
X168991031Y-200323225D01*
X168455317Y-201180368D02*
X168607102Y-201251796D01*
X168607102Y-201251796D02*
X168964245Y-201251796D01*
X168964245Y-201251796D02*
X169098174Y-201180368D01*
X169098174Y-201180368D02*
X169151745Y-201037510D01*
X169151745Y-201037510D02*
X169133888Y-200894653D01*
X169133888Y-200894653D02*
X169044602Y-200751796D01*
X169044602Y-200751796D02*
X168892817Y-200680368D01*
X168892817Y-200680368D02*
X168535674Y-200680368D01*
X168535674Y-200680368D02*
X168383888Y-200608939D01*
X167749959Y-201251796D02*
X167562459Y-199751796D01*
X167633888Y-200323225D02*
X167482102Y-200251796D01*
X167482102Y-200251796D02*
X167196388Y-200251796D01*
X167196388Y-200251796D02*
X167062459Y-200323225D01*
X167062459Y-200323225D02*
X166999959Y-200394653D01*
X166999959Y-200394653D02*
X166946388Y-200537510D01*
X166946388Y-200537510D02*
X166999959Y-200966082D01*
X166999959Y-200966082D02*
X167089245Y-201108939D01*
X167089245Y-201108939D02*
X167169602Y-201180368D01*
X167169602Y-201180368D02*
X167321388Y-201251796D01*
X167321388Y-201251796D02*
X167607102Y-201251796D01*
X167607102Y-201251796D02*
X167741031Y-201180368D01*
X173741030Y-204166712D02*
X174098173Y-204166712D01*
X174098173Y-204166712D02*
X173830316Y-202023855D01*
X173830316Y-202023855D02*
X173473173Y-202023855D01*
X173107101Y-203666712D02*
X172919601Y-202166712D01*
X172919601Y-202166712D02*
X172562458Y-202166712D01*
X172562458Y-202166712D02*
X172357101Y-202238141D01*
X172357101Y-202238141D02*
X172232101Y-202380998D01*
X172232101Y-202380998D02*
X172178530Y-202523855D01*
X172178530Y-202523855D02*
X172142816Y-202809569D01*
X172142816Y-202809569D02*
X172169601Y-203023855D01*
X172169601Y-203023855D02*
X172276744Y-203309569D01*
X172276744Y-203309569D02*
X172366030Y-203452426D01*
X172366030Y-203452426D02*
X172526744Y-203595284D01*
X172526744Y-203595284D02*
X172749958Y-203666712D01*
X172749958Y-203666712D02*
X173107101Y-203666712D01*
X171669601Y-203595284D02*
X171464244Y-203666712D01*
X171464244Y-203666712D02*
X171107101Y-203666712D01*
X171107101Y-203666712D02*
X170955316Y-203595284D01*
X170955316Y-203595284D02*
X170874958Y-203523855D01*
X170874958Y-203523855D02*
X170785673Y-203380998D01*
X170785673Y-203380998D02*
X170767816Y-203238141D01*
X170767816Y-203238141D02*
X170821387Y-203095284D01*
X170821387Y-203095284D02*
X170883887Y-203023855D01*
X170883887Y-203023855D02*
X171017816Y-202952426D01*
X171017816Y-202952426D02*
X171294601Y-202880998D01*
X171294601Y-202880998D02*
X171428530Y-202809569D01*
X171428530Y-202809569D02*
X171491030Y-202738141D01*
X171491030Y-202738141D02*
X171544601Y-202595284D01*
X171544601Y-202595284D02*
X171526744Y-202452426D01*
X171526744Y-202452426D02*
X171437458Y-202309569D01*
X171437458Y-202309569D02*
X171357101Y-202238141D01*
X171357101Y-202238141D02*
X171205316Y-202166712D01*
X171205316Y-202166712D02*
X170848173Y-202166712D01*
X170848173Y-202166712D02*
X170642816Y-202238141D01*
X170178530Y-203666712D02*
X169991030Y-202166712D01*
X169321387Y-203666712D02*
X169857102Y-202809569D01*
X169133887Y-202166712D02*
X170098173Y-203023855D01*
X168303530Y-202952426D02*
X168392816Y-203666712D01*
X168705316Y-202166712D02*
X168303530Y-202952426D01*
X168303530Y-202952426D02*
X167705316Y-202166712D01*
X167598173Y-204166712D02*
X167241031Y-204166712D01*
X167241031Y-204166712D02*
X166973173Y-202023855D01*
X166973173Y-202023855D02*
X167330316Y-202023855D01*
X165062459Y-202166712D02*
X165214245Y-203380998D01*
X165214245Y-203380998D02*
X165160674Y-203523855D01*
X165160674Y-203523855D02*
X165098174Y-203595284D01*
X165098174Y-203595284D02*
X164964245Y-203666712D01*
X164964245Y-203666712D02*
X164678531Y-203666712D01*
X164678531Y-203666712D02*
X164526745Y-203595284D01*
X164526745Y-203595284D02*
X164446388Y-203523855D01*
X164446388Y-203523855D02*
X164357102Y-203380998D01*
X164357102Y-203380998D02*
X164205316Y-202166712D01*
X163553530Y-202666712D02*
X163678530Y-203666712D01*
X163571387Y-202809569D02*
X163491030Y-202738141D01*
X163491030Y-202738141D02*
X163339245Y-202666712D01*
X163339245Y-202666712D02*
X163124959Y-202666712D01*
X163124959Y-202666712D02*
X162991030Y-202738141D01*
X162991030Y-202738141D02*
X162937459Y-202880998D01*
X162937459Y-202880998D02*
X163035673Y-203666712D01*
X162321387Y-203666712D02*
X162196387Y-202666712D01*
X162133887Y-202166712D02*
X162214244Y-202238141D01*
X162214244Y-202238141D02*
X162151744Y-202309569D01*
X162151744Y-202309569D02*
X162071387Y-202238141D01*
X162071387Y-202238141D02*
X162133887Y-202166712D01*
X162133887Y-202166712D02*
X162151744Y-202309569D01*
X161696387Y-202666712D02*
X161124958Y-202666712D01*
X161607101Y-203666712D02*
X161446387Y-202380998D01*
X161446387Y-202380998D02*
X161357101Y-202238141D01*
X161357101Y-202238141D02*
X161205316Y-202166712D01*
X161205316Y-202166712D02*
X161062458Y-202166712D01*
X160749958Y-203666712D02*
X160624958Y-202666712D01*
X160562458Y-202166712D02*
X160642815Y-202238141D01*
X160642815Y-202238141D02*
X160580315Y-202309569D01*
X160580315Y-202309569D02*
X160499958Y-202238141D01*
X160499958Y-202238141D02*
X160562458Y-202166712D01*
X160562458Y-202166712D02*
X160580315Y-202309569D01*
X159455315Y-203595284D02*
X159607101Y-203666712D01*
X159607101Y-203666712D02*
X159892815Y-203666712D01*
X159892815Y-203666712D02*
X160026744Y-203595284D01*
X160026744Y-203595284D02*
X160080315Y-203452426D01*
X160080315Y-203452426D02*
X160008887Y-202880998D01*
X160008887Y-202880998D02*
X159919601Y-202738141D01*
X159919601Y-202738141D02*
X159767815Y-202666712D01*
X159767815Y-202666712D02*
X159482101Y-202666712D01*
X159482101Y-202666712D02*
X159348172Y-202738141D01*
X159348172Y-202738141D02*
X159294601Y-202880998D01*
X159294601Y-202880998D02*
X159312458Y-203023855D01*
X159312458Y-203023855D02*
X160044601Y-203166712D01*
X158107101Y-203666712D02*
X157919601Y-202166712D01*
X158098173Y-203595284D02*
X158249958Y-203666712D01*
X158249958Y-203666712D02*
X158535673Y-203666712D01*
X158535673Y-203666712D02*
X158669601Y-203595284D01*
X158669601Y-203595284D02*
X158732101Y-203523855D01*
X158732101Y-203523855D02*
X158785673Y-203380998D01*
X158785673Y-203380998D02*
X158732101Y-202952426D01*
X158732101Y-202952426D02*
X158642815Y-202809569D01*
X158642815Y-202809569D02*
X158562458Y-202738141D01*
X158562458Y-202738141D02*
X158410673Y-202666712D01*
X158410673Y-202666712D02*
X158124958Y-202666712D01*
X158124958Y-202666712D02*
X157991030Y-202738141D01*
X155651744Y-202880998D02*
X155446387Y-202952426D01*
X155446387Y-202952426D02*
X155383887Y-203023855D01*
X155383887Y-203023855D02*
X155330315Y-203166712D01*
X155330315Y-203166712D02*
X155357101Y-203380998D01*
X155357101Y-203380998D02*
X155446387Y-203523855D01*
X155446387Y-203523855D02*
X155526744Y-203595284D01*
X155526744Y-203595284D02*
X155678530Y-203666712D01*
X155678530Y-203666712D02*
X156249958Y-203666712D01*
X156249958Y-203666712D02*
X156062458Y-202166712D01*
X156062458Y-202166712D02*
X155562458Y-202166712D01*
X155562458Y-202166712D02*
X155428530Y-202238141D01*
X155428530Y-202238141D02*
X155366030Y-202309569D01*
X155366030Y-202309569D02*
X155312458Y-202452426D01*
X155312458Y-202452426D02*
X155330315Y-202595284D01*
X155330315Y-202595284D02*
X155419601Y-202738141D01*
X155419601Y-202738141D02*
X155499958Y-202809569D01*
X155499958Y-202809569D02*
X155651744Y-202880998D01*
X155651744Y-202880998D02*
X156151744Y-202880998D01*
X154535673Y-203666712D02*
X154669601Y-203595284D01*
X154669601Y-203595284D02*
X154732101Y-203523855D01*
X154732101Y-203523855D02*
X154785673Y-203380998D01*
X154785673Y-203380998D02*
X154732101Y-202952426D01*
X154732101Y-202952426D02*
X154642815Y-202809569D01*
X154642815Y-202809569D02*
X154562458Y-202738141D01*
X154562458Y-202738141D02*
X154410673Y-202666712D01*
X154410673Y-202666712D02*
X154196387Y-202666712D01*
X154196387Y-202666712D02*
X154062458Y-202738141D01*
X154062458Y-202738141D02*
X153999958Y-202809569D01*
X153999958Y-202809569D02*
X153946387Y-202952426D01*
X153946387Y-202952426D02*
X153999958Y-203380998D01*
X153999958Y-203380998D02*
X154089244Y-203523855D01*
X154089244Y-203523855D02*
X154169601Y-203595284D01*
X154169601Y-203595284D02*
X154321387Y-203666712D01*
X154321387Y-203666712D02*
X154535673Y-203666712D01*
X152749958Y-203666712D02*
X152651744Y-202880998D01*
X152651744Y-202880998D02*
X152705315Y-202738141D01*
X152705315Y-202738141D02*
X152839244Y-202666712D01*
X152839244Y-202666712D02*
X153124958Y-202666712D01*
X153124958Y-202666712D02*
X153276744Y-202738141D01*
X152741030Y-203595284D02*
X152892815Y-203666712D01*
X152892815Y-203666712D02*
X153249958Y-203666712D01*
X153249958Y-203666712D02*
X153383887Y-203595284D01*
X153383887Y-203595284D02*
X153437458Y-203452426D01*
X153437458Y-203452426D02*
X153419601Y-203309569D01*
X153419601Y-203309569D02*
X153330315Y-203166712D01*
X153330315Y-203166712D02*
X153178530Y-203095284D01*
X153178530Y-203095284D02*
X152821387Y-203095284D01*
X152821387Y-203095284D02*
X152669601Y-203023855D01*
X152035672Y-203666712D02*
X151910672Y-202666712D01*
X151946387Y-202952426D02*
X151857101Y-202809569D01*
X151857101Y-202809569D02*
X151776744Y-202738141D01*
X151776744Y-202738141D02*
X151624958Y-202666712D01*
X151624958Y-202666712D02*
X151482101Y-202666712D01*
X150464244Y-203666712D02*
X150276744Y-202166712D01*
X150455316Y-203595284D02*
X150607101Y-203666712D01*
X150607101Y-203666712D02*
X150892816Y-203666712D01*
X150892816Y-203666712D02*
X151026744Y-203595284D01*
X151026744Y-203595284D02*
X151089244Y-203523855D01*
X151089244Y-203523855D02*
X151142816Y-203380998D01*
X151142816Y-203380998D02*
X151089244Y-202952426D01*
X151089244Y-202952426D02*
X150999958Y-202809569D01*
X150999958Y-202809569D02*
X150919601Y-202738141D01*
X150919601Y-202738141D02*
X150767816Y-202666712D01*
X150767816Y-202666712D02*
X150482101Y-202666712D01*
X150482101Y-202666712D02*
X150348173Y-202738141D01*
X173249958Y-206081628D02*
X173660673Y-205367342D01*
X174107101Y-206081628D02*
X173919601Y-204581628D01*
X173919601Y-204581628D02*
X173348173Y-204581628D01*
X173348173Y-204581628D02*
X173214244Y-204653057D01*
X173214244Y-204653057D02*
X173151744Y-204724485D01*
X173151744Y-204724485D02*
X173098173Y-204867342D01*
X173098173Y-204867342D02*
X173124958Y-205081628D01*
X173124958Y-205081628D02*
X173214244Y-205224485D01*
X173214244Y-205224485D02*
X173294601Y-205295914D01*
X173294601Y-205295914D02*
X173446387Y-205367342D01*
X173446387Y-205367342D02*
X174017816Y-205367342D01*
X172026744Y-206010200D02*
X172178530Y-206081628D01*
X172178530Y-206081628D02*
X172464244Y-206081628D01*
X172464244Y-206081628D02*
X172598173Y-206010200D01*
X172598173Y-206010200D02*
X172651744Y-205867342D01*
X172651744Y-205867342D02*
X172580316Y-205295914D01*
X172580316Y-205295914D02*
X172491030Y-205153057D01*
X172491030Y-205153057D02*
X172339244Y-205081628D01*
X172339244Y-205081628D02*
X172053530Y-205081628D01*
X172053530Y-205081628D02*
X171919601Y-205153057D01*
X171919601Y-205153057D02*
X171866030Y-205295914D01*
X171866030Y-205295914D02*
X171883887Y-205438771D01*
X171883887Y-205438771D02*
X172616030Y-205581628D01*
X171339244Y-205081628D02*
X171107102Y-206081628D01*
X171107102Y-206081628D02*
X170624959Y-205081628D01*
X170160673Y-205938771D02*
X170098173Y-206010200D01*
X170098173Y-206010200D02*
X170178530Y-206081628D01*
X170178530Y-206081628D02*
X170241030Y-206010200D01*
X170241030Y-206010200D02*
X170160673Y-205938771D01*
X170160673Y-205938771D02*
X170178530Y-206081628D01*
X167848173Y-204581628D02*
X167705316Y-204581628D01*
X167705316Y-204581628D02*
X167571387Y-204653057D01*
X167571387Y-204653057D02*
X167508887Y-204724485D01*
X167508887Y-204724485D02*
X167455316Y-204867342D01*
X167455316Y-204867342D02*
X167419602Y-205153057D01*
X167419602Y-205153057D02*
X167464244Y-205510200D01*
X167464244Y-205510200D02*
X167571387Y-205795914D01*
X167571387Y-205795914D02*
X167660673Y-205938771D01*
X167660673Y-205938771D02*
X167741030Y-206010200D01*
X167741030Y-206010200D02*
X167892816Y-206081628D01*
X167892816Y-206081628D02*
X168035673Y-206081628D01*
X168035673Y-206081628D02*
X168169602Y-206010200D01*
X168169602Y-206010200D02*
X168232102Y-205938771D01*
X168232102Y-205938771D02*
X168285673Y-205795914D01*
X168285673Y-205795914D02*
X168321387Y-205510200D01*
X168321387Y-205510200D02*
X168276744Y-205153057D01*
X168276744Y-205153057D02*
X168169602Y-204867342D01*
X168169602Y-204867342D02*
X168080316Y-204724485D01*
X168080316Y-204724485D02*
X167999959Y-204653057D01*
X167999959Y-204653057D02*
X167848173Y-204581628D01*
X166874959Y-205938771D02*
X166812459Y-206010200D01*
X166812459Y-206010200D02*
X166892816Y-206081628D01*
X166892816Y-206081628D02*
X166955316Y-206010200D01*
X166955316Y-206010200D02*
X166874959Y-205938771D01*
X166874959Y-205938771D02*
X166892816Y-206081628D01*
X165276745Y-204581628D02*
X165991030Y-204581628D01*
X165991030Y-204581628D02*
X166151745Y-205295914D01*
X166151745Y-205295914D02*
X166071387Y-205224485D01*
X166071387Y-205224485D02*
X165919602Y-205153057D01*
X165919602Y-205153057D02*
X165562459Y-205153057D01*
X165562459Y-205153057D02*
X165428530Y-205224485D01*
X165428530Y-205224485D02*
X165366030Y-205295914D01*
X165366030Y-205295914D02*
X165312459Y-205438771D01*
X165312459Y-205438771D02*
X165357102Y-205795914D01*
X165357102Y-205795914D02*
X165446387Y-205938771D01*
X165446387Y-205938771D02*
X165526745Y-206010200D01*
X165526745Y-206010200D02*
X165678530Y-206081628D01*
X165678530Y-206081628D02*
X166035673Y-206081628D01*
X166035673Y-206081628D02*
X166169602Y-206010200D01*
X166169602Y-206010200D02*
X166232102Y-205938771D01*
X164732102Y-205938771D02*
X164669602Y-206010200D01*
X164669602Y-206010200D02*
X164749959Y-206081628D01*
X164749959Y-206081628D02*
X164812459Y-206010200D01*
X164812459Y-206010200D02*
X164732102Y-205938771D01*
X164732102Y-205938771D02*
X164749959Y-206081628D01*
X164178530Y-206081628D02*
X163267816Y-205081628D01*
X164053530Y-205081628D02*
X163392816Y-206081628D01*
X244974333Y-182152819D02*
X244974333Y-182867104D01*
X244974333Y-182867104D02*
X245021952Y-183009961D01*
X245021952Y-183009961D02*
X245117190Y-183105200D01*
X245117190Y-183105200D02*
X245260047Y-183152819D01*
X245260047Y-183152819D02*
X245355285Y-183152819D01*
X244545761Y-182248057D02*
X244498142Y-182200438D01*
X244498142Y-182200438D02*
X244402904Y-182152819D01*
X244402904Y-182152819D02*
X244164809Y-182152819D01*
X244164809Y-182152819D02*
X244069571Y-182200438D01*
X244069571Y-182200438D02*
X244021952Y-182248057D01*
X244021952Y-182248057D02*
X243974333Y-182343295D01*
X243974333Y-182343295D02*
X243974333Y-182438533D01*
X243974333Y-182438533D02*
X244021952Y-182581390D01*
X244021952Y-182581390D02*
X244593380Y-183152819D01*
X244593380Y-183152819D02*
X243974333Y-183152819D01*
D11*
X257591485Y-179552600D02*
X257454581Y-179600219D01*
X257454581Y-179600219D02*
X257216485Y-179600219D01*
X257216485Y-179600219D02*
X257115295Y-179552600D01*
X257115295Y-179552600D02*
X257061723Y-179504980D01*
X257061723Y-179504980D02*
X257002200Y-179409742D01*
X257002200Y-179409742D02*
X256990295Y-179314504D01*
X256990295Y-179314504D02*
X257026009Y-179219266D01*
X257026009Y-179219266D02*
X257067676Y-179171647D01*
X257067676Y-179171647D02*
X257156962Y-179124028D01*
X257156962Y-179124028D02*
X257341485Y-179076409D01*
X257341485Y-179076409D02*
X257430771Y-179028790D01*
X257430771Y-179028790D02*
X257472438Y-178981171D01*
X257472438Y-178981171D02*
X257508152Y-178885933D01*
X257508152Y-178885933D02*
X257496247Y-178790695D01*
X257496247Y-178790695D02*
X257436723Y-178695457D01*
X257436723Y-178695457D02*
X257383152Y-178647838D01*
X257383152Y-178647838D02*
X257281962Y-178600219D01*
X257281962Y-178600219D02*
X257043866Y-178600219D01*
X257043866Y-178600219D02*
X256906962Y-178647838D01*
X256014104Y-179504980D02*
X256067676Y-179552600D01*
X256067676Y-179552600D02*
X256216485Y-179600219D01*
X256216485Y-179600219D02*
X256311723Y-179600219D01*
X256311723Y-179600219D02*
X256448628Y-179552600D01*
X256448628Y-179552600D02*
X256531961Y-179457361D01*
X256531961Y-179457361D02*
X256567676Y-179362123D01*
X256567676Y-179362123D02*
X256591485Y-179171647D01*
X256591485Y-179171647D02*
X256573628Y-179028790D01*
X256573628Y-179028790D02*
X256502200Y-178838314D01*
X256502200Y-178838314D02*
X256442676Y-178743076D01*
X256442676Y-178743076D02*
X256335533Y-178647838D01*
X256335533Y-178647838D02*
X256186723Y-178600219D01*
X256186723Y-178600219D02*
X256091485Y-178600219D01*
X256091485Y-178600219D02*
X255954581Y-178647838D01*
X255954581Y-178647838D02*
X255912914Y-178695457D01*
X255026009Y-179600219D02*
X255299819Y-179124028D01*
X255597438Y-179600219D02*
X255472438Y-178600219D01*
X255472438Y-178600219D02*
X255091485Y-178600219D01*
X255091485Y-178600219D02*
X255002200Y-178647838D01*
X255002200Y-178647838D02*
X254960533Y-178695457D01*
X254960533Y-178695457D02*
X254924819Y-178790695D01*
X254924819Y-178790695D02*
X254942676Y-178933552D01*
X254942676Y-178933552D02*
X255002200Y-179028790D01*
X255002200Y-179028790D02*
X255055771Y-179076409D01*
X255055771Y-179076409D02*
X255156961Y-179124028D01*
X255156961Y-179124028D02*
X255537914Y-179124028D01*
X254531961Y-179076409D02*
X254198628Y-179076409D01*
X254121247Y-179600219D02*
X254597438Y-179600219D01*
X254597438Y-179600219D02*
X254472438Y-178600219D01*
X254472438Y-178600219D02*
X253996247Y-178600219D01*
X253627199Y-179076409D02*
X253293866Y-179076409D01*
X253216485Y-179600219D02*
X253692676Y-179600219D01*
X253692676Y-179600219D02*
X253567676Y-178600219D01*
X253567676Y-178600219D02*
X253091485Y-178600219D01*
X252787914Y-179600219D02*
X252662914Y-178600219D01*
X252662914Y-178600219D02*
X252216485Y-179600219D01*
X252216485Y-179600219D02*
X252091485Y-178600219D01*
D10*
X244974333Y-206790819D02*
X244974333Y-207505104D01*
X244974333Y-207505104D02*
X245021952Y-207647961D01*
X245021952Y-207647961D02*
X245117190Y-207743200D01*
X245117190Y-207743200D02*
X245260047Y-207790819D01*
X245260047Y-207790819D02*
X245355285Y-207790819D01*
X243974333Y-207790819D02*
X244545761Y-207790819D01*
X244260047Y-207790819D02*
X244260047Y-206790819D01*
X244260047Y-206790819D02*
X244355285Y-206933676D01*
X244355285Y-206933676D02*
X244450523Y-207028914D01*
X244450523Y-207028914D02*
X244545761Y-207076533D01*
D11*
X257043866Y-204173600D02*
X256906962Y-204221219D01*
X256906962Y-204221219D02*
X256668866Y-204221219D01*
X256668866Y-204221219D02*
X256567676Y-204173600D01*
X256567676Y-204173600D02*
X256514104Y-204125980D01*
X256514104Y-204125980D02*
X256454581Y-204030742D01*
X256454581Y-204030742D02*
X256442676Y-203935504D01*
X256442676Y-203935504D02*
X256478390Y-203840266D01*
X256478390Y-203840266D02*
X256520057Y-203792647D01*
X256520057Y-203792647D02*
X256609343Y-203745028D01*
X256609343Y-203745028D02*
X256793866Y-203697409D01*
X256793866Y-203697409D02*
X256883152Y-203649790D01*
X256883152Y-203649790D02*
X256924819Y-203602171D01*
X256924819Y-203602171D02*
X256960533Y-203506933D01*
X256960533Y-203506933D02*
X256948628Y-203411695D01*
X256948628Y-203411695D02*
X256889104Y-203316457D01*
X256889104Y-203316457D02*
X256835533Y-203268838D01*
X256835533Y-203268838D02*
X256734343Y-203221219D01*
X256734343Y-203221219D02*
X256496247Y-203221219D01*
X256496247Y-203221219D02*
X256359343Y-203268838D01*
X256049819Y-204221219D02*
X255924819Y-203221219D01*
X255924819Y-203221219D02*
X255543866Y-203221219D01*
X255543866Y-203221219D02*
X255454581Y-203268838D01*
X255454581Y-203268838D02*
X255412914Y-203316457D01*
X255412914Y-203316457D02*
X255377200Y-203411695D01*
X255377200Y-203411695D02*
X255395057Y-203554552D01*
X255395057Y-203554552D02*
X255454581Y-203649790D01*
X255454581Y-203649790D02*
X255508152Y-203697409D01*
X255508152Y-203697409D02*
X255609342Y-203745028D01*
X255609342Y-203745028D02*
X255990295Y-203745028D01*
X255061723Y-203935504D02*
X254585533Y-203935504D01*
X255192676Y-204221219D02*
X254734342Y-203221219D01*
X254734342Y-203221219D02*
X254526009Y-204221219D01*
X253621247Y-204221219D02*
X253895057Y-203745028D01*
X254192676Y-204221219D02*
X254067676Y-203221219D01*
X254067676Y-203221219D02*
X253686723Y-203221219D01*
X253686723Y-203221219D02*
X253597438Y-203268838D01*
X253597438Y-203268838D02*
X253555771Y-203316457D01*
X253555771Y-203316457D02*
X253520057Y-203411695D01*
X253520057Y-203411695D02*
X253537914Y-203554552D01*
X253537914Y-203554552D02*
X253597438Y-203649790D01*
X253597438Y-203649790D02*
X253651009Y-203697409D01*
X253651009Y-203697409D02*
X253752199Y-203745028D01*
X253752199Y-203745028D02*
X254133152Y-203745028D01*
X253127199Y-203697409D02*
X252793866Y-203697409D01*
X252716485Y-204221219D02*
X253192676Y-204221219D01*
X253192676Y-204221219D02*
X253067676Y-203221219D01*
X253067676Y-203221219D02*
X252591485Y-203221219D01*
D12*
X156630000Y-169508700D02*
X157646000Y-169508700D01*
X157138000Y-170016700D02*
X157138000Y-169000700D01*
X279820000Y-181827700D02*
X280836000Y-181827700D01*
X280328000Y-182335700D02*
X280328000Y-181319700D01*
X230544000Y-194117000D02*
X231560000Y-194117000D01*
X231052000Y-194625000D02*
X231052000Y-193609000D01*
X205906000Y-169479000D02*
X206922000Y-169479000D01*
X206414000Y-169987000D02*
X206414000Y-168971000D01*
X255182000Y-218784700D02*
X256198000Y-218784700D01*
X255690000Y-219292700D02*
X255690000Y-218276700D01*
X181268000Y-169479000D02*
X182284000Y-169479000D01*
X181776000Y-169987000D02*
X181776000Y-168971000D01*
X181268000Y-194117000D02*
X182284000Y-194117000D01*
X181776000Y-194625000D02*
X181776000Y-193609000D01*
X255182000Y-169508700D02*
X256198000Y-169508700D01*
X255690000Y-170016700D02*
X255690000Y-169000700D01*
X205906000Y-218755000D02*
X206922000Y-218755000D01*
X206414000Y-219263000D02*
X206414000Y-218247000D01*
X131992000Y-206436000D02*
X133008000Y-206436000D01*
X132500000Y-206944000D02*
X132500000Y-205928000D01*
X279820000Y-206436000D02*
X280836000Y-206436000D01*
X280328000Y-206944000D02*
X280328000Y-205928000D01*
X230544000Y-218784700D02*
X231560000Y-218784700D01*
X231052000Y-219292700D02*
X231052000Y-218276700D01*
X255182000Y-194146700D02*
X256198000Y-194146700D01*
X255690000Y-194654700D02*
X255690000Y-193638700D01*
X230544000Y-169479000D02*
X231560000Y-169479000D01*
X231052000Y-169987000D02*
X231052000Y-168971000D01*
X156630000Y-194117000D02*
X157646000Y-194117000D01*
X157138000Y-194625000D02*
X157138000Y-193609000D01*
X181268000Y-218784700D02*
X182284000Y-218784700D01*
X181776000Y-219292700D02*
X181776000Y-218276700D01*
X205906000Y-194117000D02*
X206922000Y-194117000D01*
X206414000Y-194625000D02*
X206414000Y-193609000D01*
X156630000Y-218755000D02*
X157646000Y-218755000D01*
X157138000Y-219263000D02*
X157138000Y-218247000D01*
X131992000Y-181798000D02*
X133008000Y-181798000D01*
X132500000Y-182306000D02*
X132500000Y-181290000D01*
X238041000Y-181898000D02*
X238041000Y-180648000D01*
X238331000Y-175638000D02*
X250951000Y-175638000D01*
X238331000Y-181608000D02*
X238331000Y-175638000D01*
X238341000Y-179348000D02*
X239091000Y-179348000D01*
X238341000Y-180848000D02*
X240141000Y-180848000D01*
X238341000Y-181598000D02*
X238341000Y-180848000D01*
X239091000Y-176398000D02*
X244641000Y-176398000D01*
X239091000Y-179348000D02*
X239091000Y-176398000D01*
X239291000Y-181898000D02*
X238041000Y-181898000D01*
X240141000Y-180848000D02*
X240141000Y-181598000D01*
X240141000Y-181598000D02*
X238341000Y-181598000D01*
X241641000Y-180848000D02*
X247641000Y-180848000D01*
X241641000Y-181598000D02*
X241641000Y-180848000D01*
X247641000Y-180848000D02*
X247641000Y-181598000D01*
X247641000Y-181598000D02*
X241641000Y-181598000D01*
X249141000Y-180848000D02*
X250941000Y-180848000D01*
X249141000Y-181598000D02*
X249141000Y-180848000D01*
X250191000Y-176398000D02*
X244641000Y-176398000D01*
X250191000Y-179348000D02*
X250191000Y-176398000D01*
X250941000Y-179348000D02*
X250191000Y-179348000D01*
X250941000Y-180848000D02*
X250941000Y-181598000D01*
X250941000Y-181598000D02*
X249141000Y-181598000D01*
X250951000Y-175638000D02*
X250951000Y-181608000D01*
X250951000Y-181608000D02*
X238331000Y-181608000D01*
X238041000Y-206536000D02*
X238041000Y-205286000D01*
X238331000Y-200276000D02*
X250951000Y-200276000D01*
X238331000Y-206246000D02*
X238331000Y-200276000D01*
X238341000Y-203986000D02*
X239091000Y-203986000D01*
X238341000Y-205486000D02*
X240141000Y-205486000D01*
X238341000Y-206236000D02*
X238341000Y-205486000D01*
X239091000Y-201036000D02*
X244641000Y-201036000D01*
X239091000Y-203986000D02*
X239091000Y-201036000D01*
X239291000Y-206536000D02*
X238041000Y-206536000D01*
X240141000Y-205486000D02*
X240141000Y-206236000D01*
X240141000Y-206236000D02*
X238341000Y-206236000D01*
X241641000Y-205486000D02*
X247641000Y-205486000D01*
X241641000Y-206236000D02*
X241641000Y-205486000D01*
X247641000Y-205486000D02*
X247641000Y-206236000D01*
X247641000Y-206236000D02*
X241641000Y-206236000D01*
X249141000Y-205486000D02*
X250941000Y-205486000D01*
X249141000Y-206236000D02*
X249141000Y-205486000D01*
X250191000Y-201036000D02*
X244641000Y-201036000D01*
X250191000Y-203986000D02*
X250191000Y-201036000D01*
X250941000Y-203986000D02*
X250191000Y-203986000D01*
X250941000Y-205486000D02*
X250941000Y-206236000D01*
X250941000Y-206236000D02*
X249141000Y-206236000D01*
X250951000Y-200276000D02*
X250951000Y-206246000D01*
X250951000Y-206246000D02*
X238331000Y-206246000D01*
%LPC*%
D13*
X159678000Y-171413700D03*
D14*
X157138000Y-171413700D03*
D13*
X282868000Y-183732700D03*
D14*
X280328000Y-183732700D03*
D15*
X227242000Y-190942000D03*
D16*
X232322000Y-190942000D03*
D15*
X237402000Y-190942000D03*
D17*
X234862000Y-185862000D03*
X228512000Y-188402000D03*
D15*
X128690000Y-203261000D03*
D16*
X133770000Y-203261000D03*
D15*
X138850000Y-203261000D03*
D17*
X136310000Y-198181000D03*
X129960000Y-200721000D03*
D13*
X233592000Y-196022000D03*
D14*
X231052000Y-196022000D03*
D15*
X128690000Y-178623000D03*
D16*
X133770000Y-178623000D03*
D15*
X138850000Y-178623000D03*
D17*
X136310000Y-173543000D03*
X129960000Y-176083000D03*
D15*
X202604000Y-166304000D03*
D16*
X207684000Y-166304000D03*
D15*
X212764000Y-166304000D03*
D17*
X210224000Y-161224000D03*
X203874000Y-163764000D03*
D13*
X208954000Y-171384000D03*
D14*
X206414000Y-171384000D03*
D15*
X153328000Y-190942000D03*
D16*
X158408000Y-190942000D03*
D15*
X163488000Y-190942000D03*
D17*
X160948000Y-185862000D03*
X154598000Y-188402000D03*
D13*
X258230000Y-220689700D03*
D14*
X255690000Y-220689700D03*
D13*
X184316000Y-171384000D03*
D14*
X181776000Y-171384000D03*
D13*
X184316000Y-196022000D03*
D14*
X181776000Y-196022000D03*
D13*
X258230000Y-171413700D03*
D14*
X255690000Y-171413700D03*
D15*
X251880000Y-190942000D03*
D16*
X256960000Y-190942000D03*
D15*
X262040000Y-190942000D03*
D17*
X259500000Y-185862000D03*
X253150000Y-188402000D03*
D15*
X177966000Y-190942000D03*
D16*
X183046000Y-190942000D03*
D15*
X188126000Y-190942000D03*
D17*
X185586000Y-185862000D03*
X179236000Y-188402000D03*
D15*
X251880000Y-166304000D03*
D16*
X256960000Y-166304000D03*
D15*
X262040000Y-166304000D03*
D17*
X259500000Y-161224000D03*
X253150000Y-163764000D03*
D13*
X208954000Y-220660000D03*
D14*
X206414000Y-220660000D03*
D15*
X251880000Y-215580000D03*
D16*
X256960000Y-215580000D03*
D15*
X262040000Y-215580000D03*
D17*
X259500000Y-210500000D03*
X253150000Y-213040000D03*
D15*
X202604000Y-190942000D03*
D16*
X207684000Y-190942000D03*
D15*
X212764000Y-190942000D03*
D17*
X210224000Y-185862000D03*
X203874000Y-188402000D03*
D13*
X135040000Y-208341000D03*
D14*
X132500000Y-208341000D03*
D15*
X227242000Y-166304000D03*
D16*
X232322000Y-166304000D03*
D15*
X237402000Y-166304000D03*
D17*
X234862000Y-161224000D03*
X228512000Y-163764000D03*
D13*
X282868000Y-208341000D03*
D14*
X280328000Y-208341000D03*
D15*
X202604000Y-215580000D03*
D16*
X207684000Y-215580000D03*
D15*
X212764000Y-215580000D03*
D17*
X210224000Y-210500000D03*
X203874000Y-213040000D03*
D15*
X177966000Y-166304000D03*
D16*
X183046000Y-166304000D03*
D15*
X188126000Y-166304000D03*
D17*
X185586000Y-161224000D03*
X179236000Y-163764000D03*
D13*
X233592000Y-220689700D03*
D14*
X231052000Y-220689700D03*
D13*
X258230000Y-196051700D03*
D14*
X255690000Y-196051700D03*
D13*
X233592000Y-171384000D03*
D14*
X231052000Y-171384000D03*
D13*
X159678000Y-196022000D03*
D14*
X157138000Y-196022000D03*
D13*
X184316000Y-220689700D03*
D14*
X181776000Y-220689700D03*
D18*
X189774600Y-152089600D03*
X189774600Y-146309600D03*
D19*
X189254600Y-153519600D03*
D20*
X193454600Y-153519600D03*
D19*
X189254600Y-144879600D03*
D20*
X193454600Y-144879600D03*
D15*
X177966000Y-215580000D03*
D16*
X183046000Y-215580000D03*
D15*
X188126000Y-215580000D03*
D17*
X185586000Y-210500000D03*
X179236000Y-213040000D03*
D15*
X276518000Y-203261000D03*
D16*
X281598000Y-203261000D03*
D15*
X286678000Y-203261000D03*
D17*
X284138000Y-198181000D03*
X277788000Y-200721000D03*
D15*
X153328000Y-166304000D03*
D16*
X158408000Y-166304000D03*
D15*
X163488000Y-166304000D03*
D17*
X160948000Y-161224000D03*
X154598000Y-163764000D03*
D13*
X208954000Y-196022000D03*
D14*
X206414000Y-196022000D03*
D15*
X153328000Y-215580000D03*
D16*
X158408000Y-215580000D03*
D15*
X163488000Y-215580000D03*
D17*
X160948000Y-210500000D03*
X154598000Y-213040000D03*
D13*
X159678000Y-220660000D03*
D14*
X157138000Y-220660000D03*
D13*
X135040000Y-183703000D03*
D14*
X132500000Y-183703000D03*
D15*
X276518000Y-178623000D03*
D16*
X281598000Y-178623000D03*
D15*
X286678000Y-178623000D03*
D17*
X284138000Y-173543000D03*
X277788000Y-176083000D03*
D15*
X227242000Y-215580000D03*
D16*
X232322000Y-215580000D03*
D15*
X237402000Y-215580000D03*
D17*
X234862000Y-210500000D03*
X228512000Y-213040000D03*
D21*
X240891000Y-179148000D03*
D22*
X243391000Y-179148000D03*
X245891000Y-179148000D03*
X248391000Y-179148000D03*
D21*
X240891000Y-203786000D03*
D22*
X243391000Y-203786000D03*
X245891000Y-203786000D03*
X248391000Y-203786000D03*
%LPD*%
M02*
