G04 #@! TF.GenerationSoftware,KiCad,Pcbnew,8.0.2*
G04 #@! TF.CreationDate,2024-07-10T12:12:49+02:00*
G04 #@! TF.ProjectId,Single_board,53696e67-6c65-45f6-926f-6172642e6b69,0.5.x*
G04 #@! TF.SameCoordinates,Original*
G04 #@! TF.FileFunction,Profile,NP*
%FSLAX46Y46*%
G04 Gerber Fmt 4.6, Leading zero omitted, Abs format (unit mm)*
G04 Created by KiCad (PCBNEW 8.0.2) date 2024-07-10 12:12:49*
%MOMM*%
%LPD*%
G01*
G04 APERTURE LIST*
G04 #@! TA.AperFunction,Profile*
%ADD10C,0.100000*%
G04 #@! TD*
G04 APERTURE END LIST*
D10*
X133693000Y-141180000D02*
X133693000Y-37738000D01*
X268644000Y-220152000D02*
G75*
G02*
X271184000Y-217612000I2540000J0D01*
G01*
X268644000Y-224089000D02*
X268644000Y-220152000D01*
X135693000Y-143180000D02*
G75*
G02*
X133693000Y-141180000I0J2000000D01*
G01*
X122721000Y-166812000D02*
X122721000Y-215072000D01*
X197651000Y-159573000D02*
G75*
G02*
X193587000Y-159573000I-2032000J0D01*
G01*
X193587000Y-159573000D02*
G75*
G02*
X197651000Y-159573000I2032000J0D01*
G01*
X149264000Y-226629000D02*
X266104000Y-226629000D01*
X290107000Y-190942000D02*
G75*
G02*
X286043000Y-190942000I-2032000J0D01*
G01*
X286043000Y-190942000D02*
G75*
G02*
X290107000Y-190942000I2032000J0D01*
G01*
X194177000Y-35738000D02*
G75*
G02*
X196177000Y-37738000I0J-2000000D01*
G01*
X221781000Y-221803000D02*
G75*
G02*
X217717000Y-221803000I-2032000J0D01*
G01*
X217717000Y-221803000D02*
G75*
G02*
X221781000Y-221803000I2032000J0D01*
G01*
X292647000Y-215072000D02*
X292647000Y-166812000D01*
X197651000Y-221803000D02*
G75*
G02*
X193587000Y-221803000I-2032000J0D01*
G01*
X193587000Y-221803000D02*
G75*
G02*
X197651000Y-221803000I2032000J0D01*
G01*
X268644000Y-224089000D02*
G75*
G02*
X266104000Y-226629000I-2540000J0D01*
G01*
X290107000Y-164272000D02*
X271184000Y-164272000D01*
X266104000Y-155255000D02*
G75*
G02*
X268644000Y-157795000I0J-2540000D01*
G01*
X290107000Y-164272000D02*
G75*
G02*
X292647000Y-166812000I0J-2540000D01*
G01*
X137693949Y-161733949D02*
G75*
G02*
X135153949Y-164273949I-2540049J49D01*
G01*
X122721000Y-166812000D02*
G75*
G02*
X125261000Y-164272000I2540000J0D01*
G01*
X129325000Y-190942000D02*
G75*
G02*
X125261000Y-190942000I-2032000J0D01*
G01*
X125261000Y-190942000D02*
G75*
G02*
X129325000Y-190942000I2032000J0D01*
G01*
X149264000Y-226629000D02*
G75*
G02*
X146724000Y-224089000I0J2540000D01*
G01*
X146724000Y-220152000D02*
X146724000Y-224089000D01*
X271184000Y-164272000D02*
G75*
G02*
X268644000Y-161732000I0J2540000D01*
G01*
X292647000Y-215072000D02*
G75*
G02*
X290107000Y-217612000I-2540000J0D01*
G01*
X196177000Y-37738000D02*
X196177000Y-153256039D01*
X198177031Y-155256039D02*
G75*
G02*
X196177061Y-153256039I-31J1999939D01*
G01*
X198177031Y-155256039D02*
X266104000Y-155255000D01*
X135693000Y-143180000D02*
G75*
G02*
X137693000Y-145180000I0J-2000000D01*
G01*
X135693000Y-35738000D02*
X194177000Y-35738000D01*
X144184000Y-217612000D02*
G75*
G02*
X146724000Y-220152000I0J-2540000D01*
G01*
X271184000Y-217612000D02*
X290107000Y-217612000D01*
X144184000Y-217612000D02*
X125261000Y-217612000D01*
X133693000Y-37738000D02*
G75*
G02*
X135693000Y-35738000I2000000J0D01*
G01*
X221781000Y-159573000D02*
G75*
G02*
X217717000Y-159573000I-2032000J0D01*
G01*
X217717000Y-159573000D02*
G75*
G02*
X221781000Y-159573000I2032000J0D01*
G01*
X125261000Y-164272000D02*
X135153949Y-164273949D01*
X137693000Y-145180000D02*
X137693949Y-161733949D01*
X125261000Y-217612000D02*
G75*
G02*
X122721000Y-215072000I0J2540000D01*
G01*
X268644000Y-161732000D02*
X268644000Y-157795000D01*
M02*
