G04 #@! TF.GenerationSoftware,KiCad,Pcbnew,8.0.2*
G04 #@! TF.CreationDate,2024-07-10T09:58:51+02:00*
G04 #@! TF.ProjectId,Single_board,53696e67-6c65-45f6-926f-6172642e6b69,0.5.x*
G04 #@! TF.SameCoordinates,Original*
G04 #@! TF.FileFunction,Soldermask,Bot*
G04 #@! TF.FilePolarity,Negative*
%FSLAX46Y46*%
G04 Gerber Fmt 4.6, Leading zero omitted, Abs format (unit mm)*
G04 Created by KiCad (PCBNEW 8.0.2) date 2024-07-10 09:58:51*
%MOMM*%
%LPD*%
G01*
G04 APERTURE LIST*
G04 Aperture macros list*
%AMRoundRect*
0 Rectangle with rounded corners*
0 $1 Rounding radius*
0 $2 $3 $4 $5 $6 $7 $8 $9 X,Y pos of 4 corners*
0 Add a 4 corners polygon primitive as box body*
4,1,4,$2,$3,$4,$5,$6,$7,$8,$9,$2,$3,0*
0 Add four circle primitives for the rounded corners*
1,1,$1+$1,$2,$3*
1,1,$1+$1,$4,$5*
1,1,$1+$1,$6,$7*
1,1,$1+$1,$8,$9*
0 Add four rect primitives between the rounded corners*
20,1,$1+$1,$2,$3,$4,$5,0*
20,1,$1+$1,$4,$5,$6,$7,0*
20,1,$1+$1,$6,$7,$8,$9,0*
20,1,$1+$1,$8,$9,$2,$3,0*%
G04 Aperture macros list end*
%ADD10C,1.700000*%
%ADD11C,4.000000*%
%ADD12C,2.200000*%
%ADD13C,1.905000*%
%ADD14R,1.905000X1.905000*%
%ADD15C,0.650000*%
%ADD16O,2.100000X1.000000*%
%ADD17O,1.800000X1.000000*%
%ADD18RoundRect,0.250000X-0.600000X-0.725000X0.600000X-0.725000X0.600000X0.725000X-0.600000X0.725000X0*%
%ADD19O,1.700000X1.950000*%
G04 APERTURE END LIST*
D10*
X227242000Y-190942000D03*
D11*
X232322000Y-190942000D03*
D10*
X237402000Y-190942000D03*
D12*
X234862000Y-185862000D03*
X228512000Y-188402000D03*
D10*
X128690000Y-203261000D03*
D11*
X133770000Y-203261000D03*
D10*
X138850000Y-203261000D03*
D12*
X136310000Y-198181000D03*
X129960000Y-200721000D03*
D10*
X128690000Y-178623000D03*
D11*
X133770000Y-178623000D03*
D10*
X138850000Y-178623000D03*
D12*
X136310000Y-173543000D03*
X129960000Y-176083000D03*
D10*
X202604000Y-166304000D03*
D11*
X207684000Y-166304000D03*
D10*
X212764000Y-166304000D03*
D12*
X210224000Y-161224000D03*
X203874000Y-163764000D03*
D10*
X153328000Y-190942000D03*
D11*
X158408000Y-190942000D03*
D10*
X163488000Y-190942000D03*
D12*
X160948000Y-185862000D03*
X154598000Y-188402000D03*
D10*
X251880000Y-190942000D03*
D11*
X256960000Y-190942000D03*
D10*
X262040000Y-190942000D03*
D12*
X259500000Y-185862000D03*
X253150000Y-188402000D03*
D10*
X177966000Y-190942000D03*
D11*
X183046000Y-190942000D03*
D10*
X188126000Y-190942000D03*
D12*
X185586000Y-185862000D03*
X179236000Y-188402000D03*
D10*
X251880000Y-166304000D03*
D11*
X256960000Y-166304000D03*
D10*
X262040000Y-166304000D03*
D12*
X259500000Y-161224000D03*
X253150000Y-163764000D03*
D10*
X251880000Y-215580000D03*
D11*
X256960000Y-215580000D03*
D10*
X262040000Y-215580000D03*
D12*
X259500000Y-210500000D03*
X253150000Y-213040000D03*
D10*
X202604000Y-190942000D03*
D11*
X207684000Y-190942000D03*
D10*
X212764000Y-190942000D03*
D12*
X210224000Y-185862000D03*
X203874000Y-188402000D03*
D10*
X227242000Y-166304000D03*
D11*
X232322000Y-166304000D03*
D10*
X237402000Y-166304000D03*
D12*
X234862000Y-161224000D03*
X228512000Y-163764000D03*
D10*
X202604000Y-215580000D03*
D11*
X207684000Y-215580000D03*
D10*
X212764000Y-215580000D03*
D12*
X210224000Y-210500000D03*
X203874000Y-213040000D03*
D10*
X177966000Y-166304000D03*
D11*
X183046000Y-166304000D03*
D10*
X188126000Y-166304000D03*
D12*
X185586000Y-161224000D03*
X179236000Y-163764000D03*
D10*
X177966000Y-215580000D03*
D11*
X183046000Y-215580000D03*
D10*
X188126000Y-215580000D03*
D12*
X185586000Y-210500000D03*
X179236000Y-213040000D03*
D10*
X276518000Y-203261000D03*
D11*
X281598000Y-203261000D03*
D10*
X286678000Y-203261000D03*
D12*
X284138000Y-198181000D03*
X277788000Y-200721000D03*
D10*
X153328000Y-166304000D03*
D11*
X158408000Y-166304000D03*
D10*
X163488000Y-166304000D03*
D12*
X160948000Y-161224000D03*
X154598000Y-163764000D03*
D10*
X153328000Y-215580000D03*
D11*
X158408000Y-215580000D03*
D10*
X163488000Y-215580000D03*
D12*
X160948000Y-210500000D03*
X154598000Y-213040000D03*
D10*
X276518000Y-178623000D03*
D11*
X281598000Y-178623000D03*
D10*
X286678000Y-178623000D03*
D12*
X284138000Y-173543000D03*
X277788000Y-176083000D03*
D10*
X227242000Y-215580000D03*
D11*
X232322000Y-215580000D03*
D10*
X237402000Y-215580000D03*
D12*
X234862000Y-210500000D03*
X228512000Y-213040000D03*
D13*
X159678000Y-171413700D03*
D14*
X157138000Y-171413700D03*
D13*
X282868000Y-183732700D03*
D14*
X280328000Y-183732700D03*
D13*
X233592000Y-196022000D03*
D14*
X231052000Y-196022000D03*
D13*
X208954000Y-171384000D03*
D14*
X206414000Y-171384000D03*
D13*
X258230000Y-220689700D03*
D14*
X255690000Y-220689700D03*
D13*
X184316000Y-171384000D03*
D14*
X181776000Y-171384000D03*
D13*
X184316000Y-196022000D03*
D14*
X181776000Y-196022000D03*
D13*
X258230000Y-171413700D03*
D14*
X255690000Y-171413700D03*
D13*
X208954000Y-220660000D03*
D14*
X206414000Y-220660000D03*
D13*
X135040000Y-208341000D03*
D14*
X132500000Y-208341000D03*
D13*
X282868000Y-208341000D03*
D14*
X280328000Y-208341000D03*
D13*
X233592000Y-220689700D03*
D14*
X231052000Y-220689700D03*
D13*
X258230000Y-196051700D03*
D14*
X255690000Y-196051700D03*
D13*
X233592000Y-171384000D03*
D14*
X231052000Y-171384000D03*
D13*
X159678000Y-196022000D03*
D14*
X157138000Y-196022000D03*
D13*
X184316000Y-220689700D03*
D14*
X181776000Y-220689700D03*
D15*
X189774600Y-152089600D03*
X189774600Y-146309600D03*
D16*
X189254600Y-153519600D03*
D17*
X193454600Y-153519600D03*
D16*
X189254600Y-144879600D03*
D17*
X193454600Y-144879600D03*
D13*
X208954000Y-196022000D03*
D14*
X206414000Y-196022000D03*
D13*
X159678000Y-220660000D03*
D14*
X157138000Y-220660000D03*
D13*
X135040000Y-183703000D03*
D14*
X132500000Y-183703000D03*
D18*
X240891000Y-179148000D03*
D19*
X243391000Y-179148000D03*
X245891000Y-179148000D03*
X248391000Y-179148000D03*
D18*
X240891000Y-203786000D03*
D19*
X243391000Y-203786000D03*
X245891000Y-203786000D03*
X248391000Y-203786000D03*
M02*
