M48
; DRILL file {KiCad 8.0.2} date 2024-07-04T18:36:24+0200
; FORMAT={-:-/ absolute / inch / decimal}
; #@! TF.CreationDate,2024-07-04T18:36:24+02:00
; #@! TF.GenerationSoftware,Kicad,Pcbnew,8.0.2
; #@! TF.FileFunction,Plated,1,2,PTH
FMAT,2
INCH
; #@! TA.AperFunction,Plated,PTH,ViaDrill
T1C0.0157
; #@! TA.AperFunction,Plated,PTH,ComponentDrill
T2C0.0236
; #@! TA.AperFunction,Plated,PTH,ComponentDrill
T3C0.0374
; #@! TA.AperFunction,Plated,PTH,ComponentDrill
T4C0.0409
; #@! TA.AperFunction,Plated,PTH,ComponentDrill
T5C0.0591
%
G90
G05
T1
X5.6274Y-6.1835
X5.6834Y-5.3988
X5.6958Y-5.8093
X5.7191Y-7.1579
X5.8524Y-5.8157
X5.8833Y-5.8487
X5.9474Y-5.83
X5.9866Y-5.9392
X5.9959Y-7.1826
X6.0205Y-5.8238
X6.0237Y-5.9891
X6.0692Y-5.73
X6.0955Y-6.0901
X6.0984Y-7.0948
X6.1516Y-5.9529
X6.157Y-5.8521
X6.1839Y-6.0467
X6.2767Y-5.5035
X6.2792Y-5.7532
X6.2926Y-5.5522
X6.5528Y-5.5355
X6.5772Y-5.3697
X6.588Y-2.7162
X6.6298Y-7.3846
X6.6463Y-5.5447
X6.7575Y-2.7256
X6.9019Y-6.8326
X6.9999Y-6.884
X7.1312Y-5.9296
X7.3869Y-5.8266
X7.7094Y-7.6481
X7.9651Y-8.7133
X8.7874Y-6.1814
X8.7997Y-7.023
X8.9754Y-6.7542
X9.0208Y-6.717
X9.2667Y-8.5802
X9.4939Y-7.5429
X9.8522Y-6.4877
X10.4643Y-7.5429
X10.5437Y-7.8633
X10.6313Y-6.9677
T3
X9.4839Y-7.0531
X9.4839Y-8.0231
X9.5823Y-7.0531
X9.5823Y-8.0231
X9.6807Y-7.0531
X9.6807Y-8.0231
X9.7792Y-7.0531
X9.7792Y-8.0231
T4
X5.2165Y-7.2324
X5.2165Y-8.2024
X5.3165Y-7.2324
X5.3165Y-8.2024
X6.1865Y-6.7486
X6.1865Y-7.7174
X6.1865Y-8.6874
X6.2865Y-6.7486
X6.2865Y-7.7174
X6.2865Y-8.6874
X7.1565Y-6.7474
X7.1565Y-7.7174
X7.1565Y-8.6886
X7.2565Y-6.7474
X7.2565Y-7.7174
X7.2565Y-8.6886
X8.1265Y-6.7474
X8.1265Y-7.7174
X8.1265Y-8.6874
X8.2265Y-6.7474
X8.2265Y-7.7174
X8.2265Y-8.6874
X9.0965Y-6.7474
X9.0965Y-7.7174
X9.0965Y-8.6886
X9.1965Y-6.7474
X9.1965Y-7.7174
X9.1965Y-8.6886
X10.0665Y-6.7486
X10.0665Y-7.7186
X10.0665Y-8.6886
X10.1665Y-6.7486
X10.1665Y-7.7186
X10.1665Y-8.6886
X11.0365Y-7.2336
X11.0365Y-8.2024
X11.1365Y-7.2336
X11.1365Y-8.2024
T5
X5.1165Y-6.9324
X5.1165Y-7.9024
X5.3665Y-6.8324
X5.3665Y-7.8024
X6.0865Y-6.4474
X6.0865Y-7.4174
X6.0865Y-8.3874
X6.3365Y-6.3474
X6.3365Y-7.3174
X6.3365Y-8.2874
X7.0565Y-6.4474
X7.0565Y-7.4174
X7.0565Y-8.3874
X7.3065Y-6.3474
X7.3065Y-7.3174
X7.3065Y-8.2874
X8.0265Y-6.4474
X8.0265Y-7.4174
X8.0265Y-8.3874
X8.2765Y-6.3474
X8.2765Y-7.3174
X8.2765Y-8.2874
X8.9965Y-6.4474
X8.9965Y-7.4174
X8.9965Y-8.3874
X9.2465Y-6.3474
X9.2465Y-7.3174
X9.2465Y-8.2874
X9.9665Y-6.4474
X9.9665Y-7.4174
X9.9665Y-8.3874
X10.2165Y-6.3474
X10.2165Y-7.3174
X10.2165Y-8.2874
X10.9365Y-6.9324
X10.9365Y-7.9024
X11.1865Y-6.8324
X11.1865Y-7.8024
T2
G00X7.3254Y-5.7063
M15
G01X7.3687Y-5.7063
M16
G05
G00X7.3254Y-6.0465
M15
G01X7.3687Y-6.0465
M16
G05
G00X7.4967Y-5.7063
M15
G01X7.5281Y-5.7063
M16
G05
G00X7.4967Y-6.0465
M15
G01X7.5281Y-6.0465
M16
G05
M30
