M48
; DRILL file {KiCad 8.0.2} date 2024-07-05T12:49:47+0200
; FORMAT={-:-/ absolute / inch / decimal}
; #@! TF.CreationDate,2024-07-05T12:49:47+02:00
; #@! TF.GenerationSoftware,Kicad,Pcbnew,8.0.2
; #@! TF.FileFunction,NonPlated,1,2,NPTH
FMAT,2
INCH
; #@! TA.AperFunction,NonPlated,NPTH,ComponentDrill
T1C0.0256
; #@! TA.AperFunction,NonPlated,NPTH,ComponentDrill
T2C0.0669
; #@! TA.AperFunction,NonPlated,NPTH,ComponentDrill
T3C0.1575
%
G90
G05
T1
X7.4714Y-5.7602
X7.4714Y-5.9878
T2
X5.0665Y-7.0324
X5.0665Y-8.0024
X5.4665Y-7.0324
X5.4665Y-8.0024
X6.0365Y-6.5474
X6.0365Y-7.5174
X6.0365Y-8.4874
X6.4365Y-6.5474
X6.4365Y-7.5174
X6.4365Y-8.4874
X7.0065Y-6.5474
X7.0065Y-7.5174
X7.0065Y-8.4874
X7.4065Y-6.5474
X7.4065Y-7.5174
X7.4065Y-8.4874
X7.9765Y-6.5474
X7.9765Y-7.5174
X7.9765Y-8.4874
X8.3765Y-6.5474
X8.3765Y-7.5174
X8.3765Y-8.4874
X8.9465Y-6.5474
X8.9465Y-7.5174
X8.9465Y-8.4874
X9.3465Y-6.5474
X9.3465Y-7.5174
X9.3465Y-8.4874
X9.9165Y-6.5474
X9.9165Y-7.5174
X9.9165Y-8.4874
X10.3165Y-6.5474
X10.3165Y-7.5174
X10.3165Y-8.4874
X10.8865Y-7.0324
X10.8865Y-8.0024
X11.2865Y-7.0324
X11.2865Y-8.0024
T3
X5.2665Y-7.0324
X5.2665Y-8.0024
X6.2365Y-6.5474
X6.2365Y-7.5174
X6.2365Y-8.4874
X7.2065Y-6.5474
X7.2065Y-7.5174
X7.2065Y-8.4874
X8.1765Y-6.5474
X8.1765Y-7.5174
X8.1765Y-8.4874
X9.1465Y-6.5474
X9.1465Y-7.5174
X9.1465Y-8.4874
X10.1165Y-6.5474
X10.1165Y-7.5174
X10.1165Y-8.4874
X11.0865Y-7.0324
X11.0865Y-8.0024
M30
