M48
; DRILL file {KiCad 8.0.2} date 2024-07-10T12:12:48+0200
; FORMAT={-:-/ absolute / inch / decimal}
; #@! TF.CreationDate,2024-07-10T12:12:48+02:00
; #@! TF.GenerationSoftware,Kicad,Pcbnew,8.0.2
; #@! TF.FileFunction,Plated,1,2,PTH
FMAT,2
INCH
; #@! TA.AperFunction,Plated,PTH,ViaDrill
T1C0.0118
; #@! TA.AperFunction,Plated,PTH,ViaDrill
T2C0.0157
; #@! TA.AperFunction,Plated,PTH,ComponentDrill
T3C0.0236
; #@! TA.AperFunction,Plated,PTH,ComponentDrill
T4C0.0374
; #@! TA.AperFunction,Plated,PTH,ComponentDrill
T5C0.0409
; #@! TA.AperFunction,Plated,PTH,ComponentDrill
T6C0.0591
%
G90
G05
T1
X5.87Y-6.62
X5.87Y-6.65
X5.87Y-6.68
X6.01Y-6.62
X6.01Y-6.65
X6.01Y-6.68
X6.24Y-6.11
X6.24Y-6.21
X6.27Y-6.11
X6.27Y-6.21
X6.28Y-4.65
X6.28Y-4.68
X6.28Y-4.71
X6.3Y-6.11
X6.3Y-6.21
X6.33Y-5.46
X6.33Y-5.49
X6.33Y-5.52
X6.34Y-6.62
X6.34Y-6.65
X6.34Y-6.68
X6.38Y-4.65
X6.38Y-4.68
X6.38Y-4.71
X6.41Y-5.46
X6.41Y-5.49
X6.41Y-5.52
X6.42Y-6.62
X6.42Y-6.65
X6.42Y-6.68
X6.46Y-2.74
X6.46Y-2.825
X6.48Y-6.2
X6.48Y-6.23
X6.48Y-6.26
X6.49Y-2.74
X6.49Y-2.825
X6.52Y-2.74
X6.52Y-2.825
X6.56Y-6.2
X6.56Y-6.23
X6.56Y-6.26
X6.63Y-3.38
X6.63Y-3.41
X6.63Y-3.44
X6.63Y-4.27
X6.63Y-4.3
X6.63Y-4.33
X6.71Y-8.07
X6.71Y-8.2
X6.71Y-8.34
X6.72Y-6.3
X6.72Y-6.47
X6.73Y-3.38
X6.73Y-3.41
X6.73Y-3.44
X6.74Y-8.07
X6.74Y-8.2
X6.74Y-8.34
X6.75Y-6.3
X6.75Y-6.47
X6.76Y-4.27
X6.76Y-4.3
X6.76Y-4.33
X6.77Y-8.07
X6.77Y-8.2
X6.77Y-8.34
X6.78Y-6.3
X6.78Y-6.47
X6.85Y-6.76
X6.85Y-6.9
X6.88Y-6.76
X6.88Y-6.9
X6.89Y-4.27
X6.89Y-4.3
X6.89Y-4.33
X6.91Y-6.76
X6.91Y-6.9
X6.97Y-6.1
X6.97Y-6.2
X6.98Y-6.95
X6.98Y-6.98
X6.98Y-7.01
X7.0Y-6.1
X7.0Y-6.2
X7.03Y-6.1
X7.03Y-6.2
X7.15Y-6.95
X7.15Y-6.98
X7.15Y-7.01
X7.5Y-4.98
X7.5Y-5.01
X7.5Y-5.04
X7.5Y-7.16
X7.5Y-7.36
X7.53Y-7.16
X7.53Y-7.36
X7.56Y-7.16
X7.56Y-7.36
X7.6Y-4.98
X7.6Y-5.01
X7.6Y-5.04
X7.7Y-8.07
X7.7Y-8.2
X7.7Y-8.34
X7.71Y-7.58
X7.71Y-7.71
X7.71Y-7.86
X7.73Y-8.07
X7.73Y-8.2
X7.73Y-8.34
X7.74Y-7.58
X7.74Y-7.71
X7.74Y-7.86
X7.76Y-8.07
X7.76Y-8.2
X7.76Y-8.34
X7.77Y-7.58
X7.77Y-7.71
X7.77Y-7.86
X7.95Y-6.95
X7.95Y-6.98
X7.95Y-7.01
X8.12Y-6.95
X8.12Y-6.98
X8.12Y-7.01
X8.67Y-7.58
X8.67Y-7.71
X8.67Y-7.86
X8.7Y-7.58
X8.7Y-7.71
X8.7Y-7.86
X8.73Y-7.58
X8.73Y-7.71
X8.73Y-7.86
X8.79Y-6.32
X8.79Y-6.49
X8.82Y-6.32
X8.82Y-6.49
X8.85Y-6.32
X8.85Y-6.49
X8.92Y-6.95
X8.92Y-6.98
X8.92Y-7.01
X9.09Y-6.95
X9.09Y-6.98
X9.09Y-7.01
X9.29Y-6.76
X9.29Y-6.91
X9.32Y-6.76
X9.32Y-6.91
X9.35Y-6.76
X9.35Y-6.91
X9.41Y-7.91
X9.52Y-7.91
X9.63Y-7.91
X9.76Y-6.64
X9.76Y-6.77
X9.76Y-6.89
X9.76Y-7.59
X9.76Y-7.72
X9.76Y-7.86
X9.79Y-6.64
X9.79Y-6.77
X9.79Y-6.89
X9.79Y-7.59
X9.79Y-7.72
X9.79Y-7.86
X9.82Y-6.64
X9.82Y-6.77
X9.82Y-6.89
X9.82Y-7.59
X9.82Y-7.72
X9.82Y-7.86
T2
X5.62Y-5.79
X5.63Y-6.21
X5.667Y-6.007
X5.6834Y-5.3988
X5.7384Y-5.7057
X5.757Y-7.18
X5.8427Y-5.9232
X5.8547Y-5.9913
X5.8555Y-5.5719
X5.8627Y-5.7898
X5.8712Y-5.8629
X5.8827Y-6.3402
X5.8857Y-5.6669
X5.9021Y-5.8106
X5.9209Y-5.8711
X5.95Y-5.961
X5.9571Y-5.6497
X6.0105Y-7.2841
X6.02Y-6.21
X6.0205Y-5.9211
X6.032Y-5.979
X6.05Y-6.25
X6.09Y-6.29
X6.1501Y-6.839
X6.1503Y-5.952
X6.16Y-5.8819
X6.1602Y-6.0608
X6.1827Y-5.701
X6.2028Y-5.6601
X6.3659Y-5.6644
X6.39Y-2.68
X6.39Y-2.73
X6.39Y-3.18
X6.4704Y-4.904
X6.5Y-2.34
X6.51Y-5.97
X6.524Y-5.654
X6.533Y-3.4248
X6.538Y-3.911
X6.5456Y-6.8178
X6.55Y-6.01
X6.5676Y-4.0442
X6.5945Y-2.7809
X6.6Y-6.06
X6.6014Y-6.835
X6.614Y-5.6249
X6.6299Y-3.6
X6.6686Y-8.5741
X6.7395Y-5.3567
X6.761Y-2.8374
X6.7758Y-5.8783
X6.8Y-2.8
X6.8988Y-5.8951
X6.96Y-5.42
X7.2548Y-7.6504
X7.3626Y-5.8921
X7.3682Y-5.8452
X7.5014Y-6.91
X7.7093Y-7.4373
X8.7997Y-8.6273
X8.9995Y-7.5869
X9.4465Y-6.5275
X9.52Y-7.53
X9.9875Y-6.7275
X10.3368Y-8.0433
X10.4914Y-7.5361
X10.6247Y-7.0118
T4
X9.4839Y-7.0531
X9.4839Y-8.0231
X9.5823Y-7.0531
X9.5823Y-8.0231
X9.6807Y-7.0531
X9.6807Y-8.0231
X9.7792Y-7.0531
X9.7792Y-8.0231
T5
X5.2165Y-7.2324
X5.2165Y-8.2024
X5.3165Y-7.2324
X5.3165Y-8.2024
X6.1865Y-6.7486
X6.1865Y-7.7174
X6.1865Y-8.6874
X6.2865Y-6.7486
X6.2865Y-7.7174
X6.2865Y-8.6874
X7.1565Y-6.7474
X7.1565Y-7.7174
X7.1565Y-8.6886
X7.2565Y-6.7474
X7.2565Y-7.7174
X7.2565Y-8.6886
X8.1265Y-6.7474
X8.1265Y-7.7174
X8.1265Y-8.6874
X8.2265Y-6.7474
X8.2265Y-7.7174
X8.2265Y-8.6874
X9.0965Y-6.7474
X9.0965Y-7.7174
X9.0965Y-8.6886
X9.1965Y-6.7474
X9.1965Y-7.7174
X9.1965Y-8.6886
X10.0665Y-6.7486
X10.0665Y-7.7186
X10.0665Y-8.6886
X10.1665Y-6.7486
X10.1665Y-7.7186
X10.1665Y-8.6886
X11.0365Y-7.2336
X11.0365Y-8.2024
X11.1365Y-7.2336
X11.1365Y-8.2024
T6
X5.1165Y-6.9324
X5.1165Y-7.9024
X5.3665Y-6.8324
X5.3665Y-7.8024
X6.0865Y-6.4474
X6.0865Y-7.4174
X6.0865Y-8.3874
X6.3365Y-6.3474
X6.3365Y-7.3174
X6.3365Y-8.2874
X7.0565Y-6.4474
X7.0565Y-7.4174
X7.0565Y-8.3874
X7.3065Y-6.3474
X7.3065Y-7.3174
X7.3065Y-8.2874
X8.0265Y-6.4474
X8.0265Y-7.4174
X8.0265Y-8.3874
X8.2765Y-6.3474
X8.2765Y-7.3174
X8.2765Y-8.2874
X8.9965Y-6.4474
X8.9965Y-7.4174
X8.9965Y-8.3874
X9.2465Y-6.3474
X9.2465Y-7.3174
X9.2465Y-8.2874
X9.9665Y-6.4474
X9.9665Y-7.4174
X9.9665Y-8.3874
X10.2165Y-6.3474
X10.2165Y-7.3174
X10.2165Y-8.2874
X10.9365Y-6.9324
X10.9365Y-7.9024
X11.1865Y-6.8324
X11.1865Y-7.8024
T3
G00X7.4293Y-5.7039
M15
G01X7.4726Y-5.7039
M16
G05
G00X7.4293Y-6.0441
M15
G01X7.4726Y-6.0441
M16
G05
G00X7.6006Y-5.7039
M15
G01X7.6321Y-5.7039
M16
G05
G00X7.6006Y-6.0441
M15
G01X7.6321Y-6.0441
M16
G05
M30
